G04 ================== begin FILE IDENTIFICATION RECORD ==================*
G04 Layout Name:  G:/project_development/GitHub/StarrySky/PCB/V2.0/STARRYSKY.brd*
G04 Film Name:    ART06*
G04 File Format:  Gerber RS274X*
G04 File Origin:  Cadence Allegro 16.6-2015-S066*
G04 Origin Date:  Mon Aug 28 10:48:10 2023*
G04 *
G04 Layer:  VIA CLASS/ART06*
G04 Layer:  PIN/ART06*
G04 Layer:  ETCH/ART06*
G04 Layer:  BOARD GEOMETRY/OUTLINE*
G04 *
G04 Offset:    (0.00 0.00)*
G04 Mirror:    No*
G04 Mode:      Positive*
G04 Rotation:  0*
G04 FullContactRelief:  No*
G04 UndefLineWidth:     0.01*
G04 ================== end FILE IDENTIFICATION RECORD ====================*
%FSLAX55Y55*MOIN*%
%IR0*IPPOS*OFA0.00000B0.00000*MIA0B0*SFA1.00000B1.00000*%
%ADD12C,.018*%
%ADD26C,.05157*%
%ADD20C,.03583*%
%ADD16C,.0748*%
%ADD25C,.05906*%
%ADD17C,.02795*%
%ADD13C,.06693*%
%ADD24C,.09449*%
%ADD11C,.06299*%
%ADD15R,.06299X.06299*%
%ADD23C,.12205*%
%ADD10C,.16142*%
%ADD19C,.17323*%
%ADD21O,.04724X.07087*%
%ADD14O,.07087X.04724*%
%ADD22O,.04724X.07874*%
%ADD18O,.07874X.04724*%
%ADD27C,.02*%
%ADD28C,.04*%
%ADD29C,.014*%
%ADD30C,.006*%
%ADD31C,.008*%
%ADD37C,.07302*%
%ADD46C,.0616*%
%ADD36C,.02804*%
%ADD44C,.0691*%
%ADD41C,.04586*%
%ADD34C,.08666*%
%ADD39C,.03798*%
%ADD42C,.07696*%
%ADD35C,.07878*%
%ADD32C,.07879*%
%ADD45C,.10452*%
%ADD43C,.13208*%
%ADD38R,.07302X.07302*%
%ADD40C,.18326*%
%ADD33C,.18902*%
%ADD47O,.05726X.08876*%
G75*
%LPD*%
G75*
G36*
G01X332420Y2004D02*
G02X332137Y2687I0J400D01*
G01X334456Y5005D01*
Y49759D01*
X329941Y54274D01*
X257040D01*
G02X256640Y54670I0J400D01*
G03X253836I-1402J-11D01*
G02X253436Y54274I-400J4D01*
G01X252040D01*
G02X251640Y54670I0J400D01*
G03X248836I-1402J-11D01*
G02X248436Y54274I-400J4D01*
G01X247040D01*
G02X246640Y54670I0J400D01*
G03X243836I-1402J-11D01*
G02X243436Y54274I-400J4D01*
G01X227850D01*
X224994Y51417D01*
Y3491D01*
X225798Y2687D01*
G02X225515Y2004I-283J-283D01*
G01X150831D01*
G02X150521Y2657I0J400D01*
G03X148349I-1086J886D01*
G02X148039Y2004I-310J-253D01*
G01X122267D01*
G02X121971Y2673I0J400D01*
G03X119895I-1038J942D01*
G02X119599Y2004I-296J-269D01*
G01X16000D01*
G02X2004Y16000I0J13996D01*
G01Y322400D01*
G02X16000Y336396I13996J0D01*
G01X424000D01*
G02X437996Y322400I0J-13996D01*
G01Y16000D01*
G02X424000Y2004I-13996J0D01*
G01X396471D01*
G02X396123Y2601I0J400D01*
G03X390111I-3006J1703D01*
G02X389763Y2004I-348J-197D01*
G01X388597D01*
G02X388249Y2601I0J400D01*
G03X382237I-3006J1703D01*
G02X381889Y2004I-348J-197D01*
G01X380723D01*
G02X380375Y2601I0J400D01*
G03X374363I-3006J1703D01*
G02X374015Y2004I-348J-197D01*
G01X358720D01*
G02X358500Y2738I0J400D01*
G03X352738I-2881J4360D01*
G02X352518Y2004I-220J-334D01*
G01X332420D01*
G37*
G36*
G01X227007Y14063D02*
G02X226295Y14313I-312J251D01*
G01Y23924D01*
G02X227007Y24174I400J0D01*
G03X232102Y25969I2231J1795D01*
G01Y29119D01*
G03X232099Y29231I-2863J-21D01*
G02X232468Y29347I200J8D01*
G03X232371Y30682I1180J757D01*
G02X231667Y30635I-365J165D01*
G03X227007Y30914I-2429J-1516D01*
G02X226295Y31164I-312J250D01*
G01Y50878D01*
X228389Y52972D01*
X329402D01*
X333154Y49220D01*
Y5544D01*
X329697Y2087D01*
X328942D01*
G02X328713Y2815I0J400D01*
G03X322725I-2994J4283D01*
G02X322496Y2087I-229J-328D01*
G01X228238D01*
X226295Y4030D01*
Y7861D01*
G02X227007Y8111I400J-1D01*
G03X232102Y9905I2231J1795D01*
G01Y12269D01*
G03X227007Y14063I-2864J-1D01*
G37*
%LPC*%
G75*
G36*
G01X355251Y89548D02*
X324349D01*
X310799Y103098D01*
X204299D01*
X198114Y109283D01*
X198035Y109285D01*
G02X196809Y110073I35J1402D01*
G03X196111Y110110I-359J-175D01*
G02X193835Y109965I-1190J742D01*
G03X193223Y109974I-310J-253D01*
G02X191303Y109785I-1060J918D01*
G03X190793Y109769I-245J-316D01*
G02X190724Y111926I-929J1050D01*
G03X191234Y111942I245J316D01*
G02X193249Y111779I929J-1050D01*
G03X193861Y111770I310J253D01*
G02X194431Y112166I1060J-918D01*
G03X194575Y112823I-139J375D01*
G01X174396Y133001D01*
G03X173742Y132866I-283J-283D01*
G02X171921Y134687I-1303J518D01*
G03X172056Y135341I-148J371D01*
G01X171411Y135987D01*
X171369Y136002D01*
G02X170526Y136845I476J1319D01*
G01X170511Y136887D01*
X159999Y147398D01*
X139906D01*
G02X138202I-852J1114D01*
G01X129299D01*
X124998Y151699D01*
Y153943D01*
X124989Y153972D01*
G02Y156158I3484J1093D01*
G01X124998Y156187D01*
Y183943D01*
X124989Y183972D01*
G02Y186158I3484J1093D01*
G01X124998Y186187D01*
Y194105D01*
X124822Y194126D01*
G02Y196910I166J1392D01*
G01X124998Y196931D01*
Y200283D01*
X120894Y204387D01*
Y218932D01*
X95897Y243929D01*
Y247288D01*
G03X95374Y247669I-400J1D01*
G02X93945Y248015I-434J1333D01*
G03X93376I-285J-282D01*
G02Y249989I-995J987D01*
G03X93945I284J282D01*
G02X95820Y250093I995J-987D01*
G03X96357Y250124I251J311D01*
G02X99100Y249002I1142J-1122D01*
G01Y245255D01*
X121853Y222503D01*
G03X122536Y222785I283J283D01*
G01Y225334D01*
G02X122563Y225479I400J1D01*
G03X122415Y225956I-372J146D01*
G02X123656Y228442I788J1160D01*
G03X124186Y228821I130J379D01*
G01Y234638D01*
X116872Y241952D01*
Y243026D01*
G03X116479Y243426I-400J0D01*
G02X115917Y246101I25J1402D01*
G01X115949Y246116D01*
X116116Y246283D01*
X115859Y246539D01*
Y247288D01*
G03X115336Y247669I-400J1D01*
G02X113907Y248015I-434J1333D01*
G03X113338I-284J-282D01*
G02Y249989I-995J987D01*
G03X113907I284J282D01*
G02X115782Y250093I995J-987D01*
G03X116319Y250124I251J311D01*
G02X119062Y249002I1142J-1122D01*
G01Y247865D01*
X120074Y246853D01*
Y246630D01*
G03X120467Y246230I400J0D01*
G02X120757Y243462I-25J-1402D01*
G03X120564Y242789I90J-390D01*
G01X124175Y239178D01*
G03X124854Y239408I283J283D01*
G02X124989Y240016I3619J-485D01*
G01X124998Y240045D01*
Y247402D01*
G03X124809Y247602I-200J0D01*
G02X123888Y248015I75J1400D01*
G03X123319I-284J-282D01*
G02Y249989I-995J987D01*
G03X123888I285J282D01*
G02X124809Y250402I996J-987D01*
G03X124998Y250602I-11J200D01*
G01Y253801D01*
X126299Y255102D01*
X131277D01*
X131574Y255399D01*
X131426Y255548D01*
X131418Y255554D01*
G02X133473Y255865I887J1086D01*
G03X133806Y255244I333J-221D01*
G01X140785D01*
G03X141118Y255865I0J400D01*
G02X143454I1168J775D01*
G03X143787Y255244I333J-221D01*
G01X150766D01*
G03X151099Y255865I0J400D01*
G02X153435I1168J775D01*
G03X153768Y255244I333J-221D01*
G01X159643D01*
X159785Y255102D01*
X160845D01*
X160880Y255258D01*
G02X163616I1368J-306D01*
G01X163651Y255102D01*
X166194D01*
X166206Y255288D01*
G02X169004I1399J-91D01*
G01X169016Y255102D01*
X170832D01*
G03X171142Y255754I0J400D01*
G02X173316I1087J886D01*
G03X173626Y255102I310J-252D01*
G01X180201D01*
X184903Y250399D01*
X184969Y250390D01*
G02X185764Y249989I-201J-1387D01*
G03X186333I284J282D01*
G02X188123Y247847I996J-987D01*
G03X188067Y247235I227J-329D01*
G01X193201Y242102D01*
X210147D01*
X210201Y242215D01*
G02X212731I1265J-604D01*
G01X212785Y242102D01*
X213297D01*
X213351Y242215D01*
G02X215881I1265J-604D01*
G01X215935Y242102D01*
X216446D01*
X216500Y242215D01*
G02X219030I1265J-604D01*
G01X219084Y242102D01*
X219596D01*
X219650Y242215D01*
G02X222180I1265J-604D01*
G01X222234Y242102D01*
X230699D01*
X230799Y242202D01*
X254005D01*
X254059Y242316D01*
G02X256591I1266J-603D01*
G01X256645Y242202D01*
X262812D01*
X262860Y242333D01*
G02X263227Y242884I1317J-480D01*
G03X263139Y243534I-271J294D01*
G02X262547Y244114I641J1247D01*
G03X261933Y244225I-352J-191D01*
G02X259613Y245221I-919J1059D01*
G03X259102Y245587I-399J-18D01*
G02X260111Y246996I-392J1346D01*
G03X260622Y246630I399J18D01*
G02X262247Y245951I392J-1346D01*
G03X262861Y245840I352J191D01*
G02X264730Y243750I920J-1058D01*
G03X264818Y243100I271J-294D01*
G02X265381Y241135I-641J-1247D01*
G01X265301Y241001D01*
X271168Y235134D01*
G03X271842Y235330I283J283D01*
G02X273515Y233657I1368J-305D01*
G03X273319Y232983I87J-391D01*
G01X273801Y232502D01*
X274708D01*
G02X277092I1192J-738D01*
G01X291428D01*
X292744Y233818D01*
X309014D01*
G03X309372Y234397I0J400D01*
G02X311878I1253J628D01*
G03X312236Y233818I358J-179D01*
G01X326626D01*
X326636Y234006D01*
G02X329189Y233129I1400J-80D01*
G03X329518Y232502I329J-227D01*
G01X333001D01*
X340651Y224851D01*
X340780Y224917D01*
G02X342666Y223031I637J-1249D01*
G01X342600Y222902D01*
X344217Y221285D01*
X344359Y221427D01*
G02X346342Y219444I996J-987D01*
G01X346200Y219302D01*
X359252Y206251D01*
Y177567D01*
G03X359692Y177169I400J0D01*
G02Y174379I143J-1395D01*
G03X359252Y173981I-40J-398D01*
G01Y167549D01*
G03X359790Y167174I400J0D01*
G02Y164544I487J-1315D01*
G03X359252Y164169I-138J-375D01*
G01Y160761D01*
G03X359790Y160386I400J0D01*
G02Y157756I487J-1315D01*
G03X359252Y157381I-138J-375D01*
G01Y154009D01*
G03X359790Y153634I400J0D01*
G02Y151004I487J-1315D01*
G03X359252Y150629I-138J-375D01*
G01Y145267D01*
X359254Y145250D01*
G02Y144772I-1381J-239D01*
G01X359252Y144755D01*
Y139635D01*
X359254Y139618D01*
G02Y139140I-1381J-239D01*
G01X359252Y139123D01*
Y134949D01*
X351102Y126799D01*
Y108101D01*
X359602Y99601D01*
Y93899D01*
X355251Y89548D01*
G37*
G36*
G01X295002Y325958D02*
G02X289276I-2863J0D01*
G01Y328320D01*
G02X295002I2863J0D01*
G01Y325958D01*
G37*
G36*
G01X9910Y254356D02*
G02Y260082I0J2863D01*
G01X12274D01*
G02Y254356I0J-2863D01*
G01X9910D01*
G37*
G36*
G01X25974D02*
G02Y260082I0J2863D01*
G01X29124D01*
G02Y254356I0J-2863D01*
G01X25974D01*
G37*
G36*
G01X9910Y220340D02*
G02Y226066I0J2863D01*
G01X12274D01*
G02Y220340I0J-2863D01*
G01X9910D01*
G37*
G36*
G01X25974D02*
G02Y226066I0J2863D01*
G01X29124D01*
G02Y220340I0J-2863D01*
G01X25974D01*
G37*
G36*
G01X315916Y260822D02*
X311024Y265714D01*
Y294181D01*
X310861Y294211D01*
G02Y296969I255J1379D01*
G01X311024Y296999D01*
Y311183D01*
G02Y312981I1076J899D01*
G01Y324282D01*
X318464Y331722D01*
X359779D01*
X359808Y331692D01*
X398781D01*
X404760Y325714D01*
Y324878D01*
X404772Y324845D01*
G02Y323881I-1317J-482D01*
G01X404760Y323848D01*
Y267715D01*
X401244Y264200D01*
X376821D01*
G02X374361I-1230J673D01*
G01X361103D01*
X361061Y264055D01*
G02X358369I-1346J392D01*
G01X358327Y264200D01*
X355001D01*
G03X354603Y263757I0J-400D01*
G02X351815I-1394J-151D01*
G03X351417Y264200I-398J43D01*
G01X351063D01*
G03X350665Y263757I0J-400D01*
G02X347877I-1394J-151D01*
G03X347479Y264200I-398J43D01*
G01X333297D01*
X329920Y260822D01*
X315916D01*
G37*
G36*
G01X269560Y262060D02*
G03X269889Y261650I400J-16D01*
G02X268241Y260325I-247J-1380D01*
G03X267912Y260735I-400J16D01*
G02X269560Y262060I247J1380D01*
G37*
G36*
G01X223698Y248015D02*
G03X223129I-284J-282D01*
G02Y249989I-995J987D01*
G03X223698I285J282D01*
G02Y248015I995J-987D01*
G37*
G36*
G01X213717D02*
G03X213148I-285J-282D01*
G02Y249989I-995J987D01*
G03X213717I284J282D01*
G02X215707I995J-987D01*
G03X216276I284J282D01*
G02Y248015I995J-987D01*
G03X215707I-285J-282D01*
G02X213717I-995J987D01*
G37*
G36*
G01X203736D02*
G03X203167I-284J-282D01*
G02Y249989I-995J987D01*
G03X203736I285J282D01*
G02X205726I995J-987D01*
G03X206295I284J282D01*
G02Y248015I995J-987D01*
G03X205726I-284J-282D01*
G02X203736I-995J987D01*
G37*
G36*
G01X193755D02*
G03X193186I-285J-282D01*
G02Y249989I-995J987D01*
G03X193755I284J282D01*
G02X195745I995J-987D01*
G03X196314I284J282D01*
G02Y248015I995J-987D01*
G03X195745I-284J-282D01*
G02X193755I-995J987D01*
G37*
G36*
G01X103926D02*
G03X103357I-284J-282D01*
G02Y249989I-995J987D01*
G03X103926I285J282D01*
G02X105916I995J-987D01*
G03X106485I284J282D01*
G02Y248015I995J-987D01*
G03X105916I-284J-282D01*
G02X103926I-995J987D01*
G37*
G36*
G01X83964D02*
G03X83395I-285J-282D01*
G02Y249989I-995J987D01*
G03X83964I284J282D01*
G02X85954I995J-987D01*
G03X86523I284J282D01*
G02Y248015I995J-987D01*
G03X85954I-285J-282D01*
G02X83964I-995J987D01*
G37*
G36*
G01X79741Y225470D02*
G03X79190Y225261I-180J-357D01*
G02X78518Y227034I-1302J520D01*
G03X79069Y227243I180J357D01*
G02X79741Y225470I1302J-520D01*
G37*
G36*
G01X92815Y188571D02*
G03X92240Y188544I-274J-291D01*
G02X92149Y190489I-1053J925D01*
G03X92724Y190516I274J291D01*
G02X94823Y190525I1053J-925D01*
G03X95395Y190499I299J266D01*
G02X95308Y188543I959J-1023D01*
G03X94736Y188569I-299J-266D01*
G02X92815Y188571I-959J1022D01*
G37*
G36*
G01X86910D02*
G03X86335Y188544I-274J-291D01*
G02X86243Y190489I-1054J925D01*
G03X86818Y190516I274J291D01*
G02X86910Y188571I1054J-925D01*
G37*
G36*
G01X62398Y138909D02*
G03X62216Y139491I-338J214D01*
G02X63949Y140034I547J1291D01*
G03X64131Y139452I338J-214D01*
G02X62398Y138909I-547J-1291D01*
G37*
G36*
G01X56625Y139903D02*
G03X56743Y139307I314J-248D01*
G02X54955Y138951I-686J-1223D01*
G03X54837Y139547I-314J248D01*
G02X56625Y139903I686J1223D01*
G37*
G36*
G01X69359Y136854D02*
G03X69150Y136295I145J-373D01*
G02X67402Y136948I-1240J-654D01*
G03X67611Y137507I-145J373D01*
G02X69359Y136854I1240J654D01*
G37*
G36*
G01X83025Y132087D02*
G03Y131518I282J-284D01*
G02X81051I-987J-995D01*
G03Y132087I-282J285D01*
G02X83025I987J995D01*
G37*
G36*
G01Y121850D02*
G03Y121281I282J-284D01*
G02X81051I-987J-995D01*
G03Y121850I-282J284D01*
G02Y123841I987J995D01*
G03Y124409I-281J284D01*
G02X83025I987J996D01*
G03Y123841I281J-284D01*
G02Y121850I-987J-996D01*
G37*
G36*
G01X47013Y101612D02*
G03X46723Y102033I-398J36D01*
G02X48501Y103257I382J1349D01*
G03X48791Y102836I398J-36D01*
G02X48776Y100134I-382J-1349D01*
G03X48487Y99681I105J-386D01*
G02X46738Y100797I-1382J-237D01*
G03X47027Y101250I-105J386D01*
G02X47013Y101612I1382J235D01*
G37*
G36*
G01X253636Y75015D02*
G03X253207Y74578I-31J-398D01*
G02X251922Y75842I-1396J-134D01*
G03X252351Y76279I31J398D01*
G02X253636Y75015I1396J134D01*
G37*
G36*
G01X295002Y309107D02*
G02X289276I-2863J0D01*
G01Y312257D01*
G02X289991Y314150I2863J0D01*
G03X289822Y314792I-300J264D01*
G02X291603Y315650I459J1325D01*
G03X291999Y315117I377J-133D01*
G02X295002Y312257I140J-2860D01*
G01Y309107D01*
G37*
G36*
G01X307667Y264915D02*
G02X305208Y265478I-1366J-315D01*
G03X305078Y266086I-311J251D01*
G02X307031Y267812I634J1250D01*
G03X307693Y267668I376J135D01*
G02X308199Y265378I1004J-979D01*
G03X307667Y264915I-142J-374D01*
G37*
G36*
G01X342964Y240551D02*
G02X341058Y242457I-1225J681D01*
G03Y243157I-194J350D01*
G02Y245607I681J1225D01*
G03Y246307I-194J350D01*
G02X342964Y248213I681J1225D01*
G03X343664I350J194D01*
G02X346114I1225J-681D01*
G03X346814I350J194D01*
G02X348720Y246307I1225J-681D01*
G03Y245607I194J-350D01*
G02Y243157I-681J-1225D01*
G03Y242457I194J-350D01*
G02X346814Y240551I-681J-1225D01*
G03X346114I-350J-194D01*
G02X343664I-1225J681D01*
G03X342964I-350J-194D01*
G37*
G36*
G01X79290Y228996D02*
G02X78418Y230307I-1402J13D01*
G03X78969Y230674I151J370D01*
G02X79841Y229363I1402J-13D01*
G03X79290Y228996I-151J-370D01*
G37*
G36*
G01X35269Y226891D02*
G02X35231Y228394I-1202J722D01*
G03X35906Y228411I332J223D01*
G02X35944Y226908I1202J-722D01*
G03X35269Y226891I-332J-223D01*
G37*
G36*
G01X117560Y210491D02*
G02X116198I-681J-1225D01*
G03Y211191I-194J350D01*
G02X117560I681J1225D01*
G03Y210491I194J-350D01*
G37*
G36*
G01X112156Y204094D02*
G02X110227Y203841I-833J-1127D01*
G03X110152Y204412I-313J249D01*
G02X110070Y206601I833J1127D01*
G03Y207207I-261J303D01*
G02X110152Y209396I915J1062D01*
G03X110227Y209967I-238J322D01*
G02X110642Y212066I1096J874D01*
G03Y212766I-194J350D01*
G02X112004I681J1225D01*
G03Y212066I194J-350D01*
G02X112156Y209714I-681J-1225D01*
G03X112081Y209143I238J-322D01*
G02X111900Y207207I-1096J-874D01*
G03Y206601I261J-303D01*
G02X112081Y204665I-915J-1062D01*
G03X112156Y204094I313J-249D01*
G37*
G36*
G01X119351Y191788D02*
G02X119194Y190437I1139J-817D01*
G03X118499Y190518I-370J-152D01*
G02X118656Y191869I-1139J817D01*
G03X119351Y191788I370J152D01*
G37*
G36*
G01X109138Y162062D02*
G02X108460Y160869I724J-1201D01*
G03X107853Y161214I-400J2D01*
G02X108531Y162407I-724J1201D01*
G03X109138Y162062I400J-2D01*
G37*
G36*
G01X106731Y156460D02*
G02X105487Y157124I-1193J-737D01*
G03X105813Y157734I-14J400D01*
G02X107057Y157070I1193J737D01*
G03X106731Y156460I14J-400D01*
G37*
G36*
G01X98406Y151696D02*
G02X96514Y152228I-1217J-697D01*
G03X96668Y152777I-193J350D01*
G02X96551Y153042I1217J696D01*
G03X95884Y153198I-381J-123D01*
G02X96214Y154608I-1004J979D01*
G03X96881Y154452I381J123D01*
G02X98560Y152245I1004J-978D01*
G03X98406Y151696I193J-350D01*
G37*
G36*
G01X117560Y138050D02*
G02X116198I-681J-1225D01*
G03Y138750I-194J350D01*
G02X117267Y141322I682J1225D01*
G03X117769Y141790I111J385D01*
G02X118207Y143129I1371J293D01*
G03X117941Y143828I-266J299D01*
G01X116397D01*
X113360Y146864D01*
Y160445D01*
X110314Y163492D01*
Y167444D01*
G03X109939Y167843I-400J0D01*
G02Y170641I90J1399D01*
G03X110314Y171040I-25J399D01*
G01Y175168D01*
G03X109934Y175567I-400J-1D01*
G02Y178367I74J1400D01*
G03X110314Y178766I-20J400D01*
G01Y179307D01*
G03X109629Y179588I-400J0D01*
G02X107682Y181605I-998J985D01*
G03X107725Y182147I-271J294D01*
G02X107610Y183715I1100J869D01*
G03X107263Y184314I-347J199D01*
G01X106445D01*
G03X106045Y183910I0J-400D01*
G02X105261Y182637I-1402J-14D01*
G03X105182Y181970I176J-359D01*
G02X103669Y182150I-896J-1079D01*
G03X103748Y182817I-176J359D01*
G02X103279Y184221I895J1079D01*
G01X103305Y184330D01*
X98942Y188694D01*
Y193584D01*
G03X98442Y193972I-400J0D01*
G02Y196688I-347J1358D01*
G03X98942Y197076I100J388D01*
G01Y198660D01*
G03X98442Y199048I-400J0D01*
G02Y201764I-347J1358D01*
G03X98942Y202152I100J388D01*
G01Y202940D01*
G03X98739Y203140I-200J0D01*
G02Y205944I-14J1402D01*
G03X98942Y206144I3J200D01*
G01Y207664D01*
G03X98739Y207864I-200J0D01*
G02X98044Y210491I-14J1402D01*
G03Y211191I-194J350D01*
G02X98739Y213818I681J1225D01*
G03X98942Y214018I3J200D01*
G01Y219190D01*
X82249Y235882D01*
X81941D01*
G03X81593Y235286I0J-400D01*
G02X79149I-1222J-687D01*
G03X78801Y235882I-348J196D01*
G01X77453D01*
G02Y239086I0J1602D01*
G01X80935D01*
G03X81218Y239768I0J400D01*
G01X78850Y242136D01*
X77453D01*
G02Y245340I0J1602D01*
G01X80176D01*
X97844Y227672D01*
G03X98419Y227681I283J283D01*
G02X100400Y225700I1023J-958D01*
G03X100391Y225125I274J-292D01*
G01X104044Y221472D01*
Y215786D01*
G03X104407Y215387I400J-1D01*
G02X104962Y212766I-126J-1396D01*
G03Y212066I194J-350D01*
G02X105377Y209967I-681J-1225D01*
G03X105452Y209396I313J-249D01*
G02X105680Y207352I-833J-1128D01*
G03X105704Y206803I302J-262D01*
G02X105395Y204562I-975J-1007D01*
G03X105296Y203934I190J-352D01*
G02X104407Y201571I-1015J-967D01*
G03X104044Y201172I37J-398D01*
G01Y195539D01*
X109782Y189801D01*
G03X110344Y189798I283J283D01*
G02X112327Y187815I979J-1004D01*
G03X112330Y187253I286J-279D01*
G01X115630Y183953D01*
Y169406D01*
G03X116242Y169067I400J0D01*
G02X117869Y166789I747J-1187D01*
G03X117845Y166188I251J-311D01*
G02X117904Y164215I-966J-1016D01*
G03X117913Y163659I292J-273D01*
G01X120968Y160604D01*
Y149262D01*
G02X118176Y148192I-1601J0D01*
G03X117656Y148257I-298J-268D01*
G02X117411Y148127I-776J1167D01*
G03X117280Y147474I152J-370D01*
G01X117723Y147030D01*
X119528D01*
G02X120062Y143919I0J-1601D01*
G03X119961Y143218I134J-377D01*
G02X118752Y140735I-822J-1136D01*
G03X118250Y140267I-111J-385D01*
G02X117560Y138750I-1371J-292D01*
G03Y138050I194J-350D01*
G37*
G36*
G01X186301Y15998D02*
X160499D01*
X153598Y22899D01*
Y43601D01*
X163098Y53101D01*
Y67401D01*
X173099Y77402D01*
X203199D01*
X207599Y81802D01*
X212001D01*
X217252Y76551D01*
Y62449D01*
X199252Y44449D01*
Y36052D01*
G03X199942Y35777I400J0D01*
G02Y33851I1019J-963D01*
G03X199252Y33576I-290J-275D01*
G01Y29424D01*
X200171Y28505D01*
G02X197057Y25391I-1557J-1557D01*
G01X196375Y26073D01*
X186301Y15998D01*
G37*
G36*
G01X265095Y37275D02*
G03X264583Y36939I-115J-383D01*
G02X263590Y38447I-1392J164D01*
G03X264102Y38783I115J383D01*
G02X265095Y37275I1392J-164D01*
G37*
G36*
G01X312866Y9906D02*
G02X307140I-2863J0D01*
G01Y12268D01*
G02X312866I2863J0D01*
G01Y9906D01*
G37*
G36*
G01X278850D02*
G02X273124I-2863J0D01*
G01Y12268D01*
G02X278850I2863J0D01*
G01Y9906D01*
G37*
G36*
G01X312866Y25969D02*
G02X307140I-2863J0D01*
G01Y29119D01*
G02X307142Y29231I2863J5D01*
G03X306773Y29347I-200J8D01*
G02X306870Y30682I-1180J757D01*
G03X307574Y30635I365J165D01*
G02X312866Y29119I2429J-1516D01*
G01Y25969D01*
G37*
G36*
G01X278850D02*
G02X273124I-2863J0D01*
G01Y29119D01*
G02X278416Y30635I2863J0D01*
G03X279120Y30682I339J212D01*
G02X279217Y29347I1277J-578D01*
G03X278848Y29231I-169J-108D01*
G02X278850Y29119I-2861J-107D01*
G01Y25969D01*
G37*
G36*
G01X266118Y9906D02*
G02X260390I-2864J0D01*
G01Y12268D01*
G02X266118I2864J0D01*
G01Y9906D01*
G37*
G36*
G01Y25969D02*
G02X260390I-2864J0D01*
G01Y29119D01*
G02X260393Y29231I2863J-21D01*
G03X260024Y29347I-200J8D01*
G02X260121Y30682I-1180J757D01*
G03X260825Y30635I365J165D01*
G02X266118Y29119I2429J-1516D01*
G01Y25969D01*
G37*
G54D37*
X23400Y91400D03*
Y101400D03*
Y111400D03*
Y121400D03*
X13400Y81400D03*
Y91400D03*
Y101400D03*
Y111400D03*
Y121400D03*
X247797Y309793D03*
X258033D03*
X239529D03*
X266301D03*
X239529Y299950D03*
X266301D03*
X433107Y139394D03*
X433114Y179708D03*
G54D46*
X394554Y240200D03*
X422113Y280500D03*
Y240200D03*
G54D36*
X27632Y25482D03*
X21014Y56578D03*
X29366Y40001D03*
X24226Y32934D03*
X7907Y34091D03*
X19086Y46940D03*
X8388Y49734D03*
X51311Y54601D03*
X37751Y17025D03*
X30227D03*
X33989Y11688D03*
Y22362D03*
Y51058D03*
X30620Y55214D03*
X28596Y130713D03*
X6045Y125316D03*
X30138Y137073D03*
X10671Y136110D03*
X26476Y69420D03*
X11249Y69613D03*
X51555Y97564D03*
X51029Y140240D03*
X16765Y143631D03*
X46718Y93753D03*
X38481Y101413D03*
X33989Y59370D03*
X28981Y184104D03*
X6623Y193356D03*
X32258Y215136D03*
X6045Y212438D03*
X4695Y199138D03*
X27825Y195283D03*
X25126Y174274D03*
X7779Y171383D03*
X16765Y147424D03*
X18125Y230590D03*
X13125D03*
X8125D03*
X52280Y169744D03*
X33859Y148372D03*
Y207428D03*
X11428Y147424D03*
X16765Y151217D03*
Y204733D03*
Y212319D03*
X11428Y208526D03*
X22102D03*
X41046Y227689D03*
X49436Y217681D03*
X45498D03*
X31808Y318715D03*
X18125Y250590D03*
Y245590D03*
Y240590D03*
Y235590D03*
X13125D03*
Y240590D03*
Y245590D03*
Y250590D03*
X8125D03*
Y245590D03*
Y240590D03*
Y235590D03*
X36363Y291732D03*
X26149Y237258D03*
Y241195D03*
X51631Y264147D03*
Y272183D03*
X51519Y298651D03*
Y290615D03*
X6200Y264235D03*
Y272271D03*
X6166Y298665D03*
Y290629D03*
X45729Y279226D03*
X41967Y283776D03*
X25078Y279226D03*
X21316Y283776D03*
X45593Y305686D03*
X41831Y310236D03*
X21316D03*
X25078Y305686D03*
X44368Y242180D03*
X51896Y245201D03*
Y240201D03*
Y235201D03*
X39512Y248360D03*
X34067Y252809D03*
X35965Y329353D03*
X137469Y37915D03*
X67530Y9063D03*
X87961Y34312D03*
X66567Y36047D03*
X60611Y54470D03*
X122530Y22371D03*
X138246Y17553D03*
X138384Y5532D03*
X121410Y12224D03*
X68634Y54601D03*
X64304D03*
X133780Y47063D03*
X130498D03*
X91329Y17025D03*
X95091Y22362D03*
X95153Y55214D03*
X88415D03*
X91784Y51058D03*
X139029Y27634D03*
X100602Y4355D03*
X103282Y8117D03*
Y24475D03*
X105686Y4355D03*
Y20713D03*
X106178Y28838D03*
Y32776D03*
Y36714D03*
X123106Y31746D03*
X55003Y81326D03*
X129096Y139027D03*
X77299Y138161D03*
X82136Y144331D03*
X58461Y110518D03*
X99836Y135061D03*
X128150Y132131D03*
X123150D03*
X97012Y140717D03*
X111590Y138400D03*
X74440Y89986D03*
X77151Y104459D03*
X128342Y61722D03*
X99023Y127964D03*
X52829Y126270D03*
X56057Y114456D03*
Y118394D03*
Y122332D03*
Y130208D03*
Y134146D03*
X75962Y142679D03*
X87278Y81327D03*
X79754D03*
X83516Y84007D03*
Y78647D03*
X99874D03*
Y84007D03*
X96112Y81327D03*
X103636D03*
Y96363D03*
X96112D03*
X99874Y99043D03*
Y93683D03*
X83516D03*
Y99043D03*
X79754Y96363D03*
X87278D03*
X72088Y106121D03*
X96619Y117572D03*
X93391D03*
X96619Y133237D03*
X58461Y106580D03*
X109102Y87451D03*
Y102487D03*
X58046Y68788D03*
X91784Y59370D03*
X76903Y63220D03*
X80841D03*
X125249Y69968D03*
X129187D03*
X135529Y67564D03*
X128007Y82971D03*
X105628Y63418D03*
X65759Y159258D03*
X62755Y149371D03*
X82136Y149830D03*
X77570Y158763D03*
X65691Y154684D03*
X53203Y159590D03*
X72810Y231183D03*
X83066Y159808D03*
X117759Y195612D03*
Y199550D03*
X94761Y148819D03*
X110243Y147273D03*
X107401Y195612D03*
Y199550D03*
X119276Y172736D03*
X105604Y169144D03*
X93076Y163786D03*
X104463Y152573D03*
X54954Y200122D03*
X116879Y204542D03*
X94867Y200406D03*
X60281Y207428D03*
X65006Y191680D03*
X65759Y173247D03*
Y165371D03*
Y169309D03*
Y177185D03*
Y181123D03*
X88407Y218847D03*
X80371Y222785D03*
Y218847D03*
X57312Y217681D03*
X53374D03*
X83248Y181642D03*
X88248D03*
X93248D03*
Y176642D03*
X88248D03*
X83248D03*
Y171642D03*
X88248D03*
X93248D03*
X67300Y149371D03*
X83314Y196666D03*
X67999Y196843D03*
Y200781D03*
X89218Y163833D03*
X90942Y159808D03*
X94880D03*
X90942Y154176D03*
X98077Y185492D03*
X87004Y154176D03*
X83066D03*
X120661Y314861D03*
X102462Y312970D03*
X64106Y316825D03*
X78654Y285164D03*
X135268Y314917D03*
X124421Y287725D03*
X120013Y283317D03*
Y276533D03*
Y271959D03*
X129561Y309210D03*
X125981Y305630D03*
Y299826D03*
X107584Y281253D03*
X71555Y237484D03*
X122324Y256640D03*
X112343D03*
X102362D03*
X92381D03*
X82400D03*
X70780Y304469D03*
X91743Y241746D03*
X108101D03*
X61799Y296247D03*
X55457Y298651D03*
X56591Y278290D03*
X57973Y266551D03*
Y269779D03*
X52527Y259888D03*
X69142Y255441D03*
X77888D03*
X56896Y245201D03*
X61896D03*
Y240201D03*
X56896D03*
Y235201D03*
X61896D03*
X81242Y324149D03*
X130024Y332325D03*
X102655Y326655D03*
X63527Y329353D03*
X221464Y20739D03*
X139898Y11618D03*
X147992Y33714D03*
X144343Y31746D03*
Y35683D03*
X147992Y37651D03*
X215961Y34814D03*
X210961D03*
X156570Y49462D03*
X160411Y55174D03*
X148472Y11538D03*
X144534D03*
X172119Y115877D03*
X172182Y111968D03*
X161440Y114077D03*
X154429Y100143D03*
X167802Y135352D03*
X180347Y111351D03*
X217500Y99140D03*
X187500D03*
X202500D03*
X207500D03*
X212500D03*
X197500D03*
X192500D03*
X222500D03*
Y94460D03*
X177500Y99140D03*
Y94460D03*
X182500Y99140D03*
Y94460D03*
X172500Y99140D03*
Y94460D03*
X161515Y97739D03*
X220416Y75564D03*
X158287Y100143D03*
X220416Y61436D03*
X168283Y130192D03*
X160759D03*
X164521Y132872D03*
X148163D03*
X144401Y130192D03*
X151925D03*
X164521Y108689D03*
X148163D03*
X168283Y111369D03*
X151925D03*
X158212Y114124D03*
X154354D03*
X142468Y107163D03*
Y111101D03*
X160411Y59112D03*
X147888Y62593D03*
X144934Y65090D03*
X144145Y87971D03*
X221996Y65428D03*
Y72514D03*
Y69286D03*
X205728Y313711D03*
X225388Y303689D03*
X185549Y276614D03*
Y286859D03*
Y295551D03*
Y305171D03*
X180103Y314917D03*
X169423D03*
X161585D03*
X153961D03*
X145055D03*
X191324Y269226D03*
X160060Y259615D03*
X222134Y256640D03*
X212153D03*
X202172D03*
X192191D03*
X182210D03*
X179972Y269088D03*
X172096D03*
X176034D03*
X183910D03*
X188096Y269226D03*
X193849Y273163D03*
X206053D03*
X225984Y266033D03*
X220160Y269226D03*
X217756Y275568D03*
X199799Y271194D03*
X210978Y333288D03*
X195751Y323073D03*
X170694Y328662D03*
X149106Y323378D03*
X229165Y56576D03*
X281140Y69835D03*
X262222Y78381D03*
X309022Y94864D03*
X299022D03*
X294022D03*
X227500Y99140D03*
Y94460D03*
X232500Y99140D03*
Y94460D03*
X242500D03*
Y99140D03*
X247500Y94460D03*
Y99140D03*
X252500Y94460D03*
Y99140D03*
X257500Y94460D03*
Y99140D03*
X262500Y94460D03*
Y99140D03*
X267500Y94460D03*
Y99140D03*
X294022Y63264D03*
X299022D03*
X304022D03*
X309022D03*
Y100496D03*
X304022D03*
X299022D03*
X294022D03*
X253747Y80350D03*
X247493D03*
X245238Y64659D03*
X250238D03*
X255238D03*
Y59659D03*
X250238D03*
X245238D03*
X265450Y75977D03*
X233386Y74443D03*
Y78381D03*
X276658Y309856D03*
X273210Y255498D03*
X255355Y246869D03*
X267034Y274419D03*
X251847Y262576D03*
X263272Y266869D03*
X243947D03*
X240625Y259615D03*
X232115Y249002D03*
X298942Y270691D03*
X301919Y245261D03*
Y250380D03*
X276438Y255498D03*
X297237Y265803D03*
X294009D03*
X285783Y282780D03*
X287766Y286718D03*
Y290656D03*
Y294594D03*
X304147Y284041D03*
X309147D03*
X308163Y312082D03*
X304147Y288041D03*
X309147D03*
X296625Y298354D03*
X296549Y304164D03*
X283392Y268571D03*
X267034D03*
X256042Y278857D03*
X232115Y256640D03*
X261788Y274693D03*
X243947Y273961D03*
X267745Y287168D03*
Y278422D03*
X264517Y284764D03*
X249788Y282794D03*
X238085Y283230D03*
X241313Y280826D03*
X266681Y332903D03*
X243166Y322109D03*
X294043Y321454D03*
X380577Y32243D03*
X368300Y52122D03*
X373300D03*
X378300D03*
X383300D03*
X388300D03*
Y47122D03*
X383300D03*
X378300D03*
X373300D03*
X368300D03*
Y42122D03*
X373300D03*
X378300D03*
X383300D03*
X388300D03*
X395945Y58227D03*
X380577Y37187D03*
X375240Y32243D03*
X395945Y54289D03*
Y50351D03*
Y46413D03*
X348471Y81754D03*
X321102Y80212D03*
X334594Y71539D03*
X371809Y133446D03*
X378264Y87521D03*
X374327D03*
X370390D03*
X366453D03*
X362516D03*
Y91458D03*
X366453D03*
X370390D03*
Y95395D03*
X366453D03*
X362516D03*
X359057Y73554D03*
X362994D03*
X366931D03*
X370868D03*
Y69617D03*
X366931D03*
X362994D03*
X359057D03*
Y65680D03*
X362994D03*
X366931D03*
X370868D03*
X357873Y59257D03*
Y103879D03*
X367545Y111077D03*
X375778Y113675D03*
Y90675D03*
Y67675D03*
X386006Y66613D03*
Y89613D03*
Y112613D03*
X352873Y63649D03*
X347873D03*
X342873D03*
X337873D03*
X332873D03*
X327873D03*
X393790Y77200D03*
X396940Y74050D03*
X393790Y70900D03*
X393799Y93913D03*
X396949Y97063D03*
X393799Y100213D03*
X393788Y123231D03*
X396938Y120081D03*
X393788Y116931D03*
X367192Y82245D03*
X371130D03*
X375068D03*
X379006D03*
X367192Y105245D03*
X371130D03*
X375068D03*
X379006D03*
Y128245D03*
X375068D03*
X371130D03*
X367192D03*
X395823Y144940D03*
X381160Y189632D03*
X383491Y149588D03*
X379573Y203993D03*
Y164067D03*
X395314Y184954D03*
X369225Y210961D03*
X370492Y215779D03*
X366177Y179748D03*
X373263Y190028D03*
X369405D03*
X383473Y164067D03*
X379573Y167711D03*
Y207637D03*
X383473Y203993D03*
X353231Y220440D03*
X395269Y211244D03*
X388611D03*
Y171518D03*
X395269D03*
X362578Y200837D03*
Y205837D03*
Y210837D03*
Y215837D03*
X359605Y223686D03*
X372201Y175810D03*
X373263Y147664D03*
X369405D03*
X359605Y220458D03*
X341417Y230754D03*
Y227526D03*
X316554Y238322D03*
X371202Y234168D03*
X383705Y254570D03*
X378819Y244358D03*
X365570Y238106D03*
X371202Y242044D03*
X361712Y238106D03*
Y242044D03*
X358484Y238106D03*
Y242044D03*
X365570Y245982D03*
X358484D03*
X361712D03*
X371202D03*
Y249920D03*
Y253858D03*
X358484Y249920D03*
X365570D03*
X361712D03*
Y253858D03*
X331264Y241802D03*
X324178D03*
X328036D03*
Y245740D03*
X318546Y249678D03*
X316526Y256129D03*
X324178Y247274D03*
X328036Y253616D03*
X345333Y261202D03*
X341395D03*
X335053D03*
X313133Y331939D03*
X433068Y33830D03*
X412926Y7506D03*
X411385Y25238D03*
X430659Y46247D03*
X412926Y53186D03*
X418770Y102841D03*
X414832D03*
X418770Y79841D03*
X414832D03*
X418770Y125841D03*
X414832D03*
X423770Y76613D03*
X428770D03*
X433770D03*
Y71613D03*
X428770D03*
X423770D03*
X428770Y99613D03*
X433770D03*
Y94613D03*
X428770D03*
X423770D03*
Y99613D03*
X424071Y117624D03*
X429071D03*
X434071D03*
Y122624D03*
X429071D03*
X424071D03*
X418770Y114385D03*
Y122613D03*
X414832D03*
X407832D03*
X418770Y91385D03*
Y99613D03*
X414832D03*
X407832D03*
X418770Y68385D03*
Y76613D03*
X414832D03*
X407832D03*
X400090Y77200D03*
Y70900D03*
X400099Y93913D03*
Y100213D03*
X400088Y123231D03*
Y116931D03*
X415091Y141788D03*
X427625Y174621D03*
X410123Y215691D03*
X433165Y158231D03*
X415239Y164977D03*
X413119Y198128D03*
X431430Y209885D03*
X407530Y226654D03*
X417957Y225830D03*
X422507Y231758D03*
X400727Y199549D03*
X400766Y159667D03*
X415091Y145646D03*
X415093Y181752D03*
Y185610D03*
X435020Y289997D03*
X432514Y238150D03*
X432996Y302125D03*
X433550Y260577D03*
X412541Y280623D03*
X422113Y288942D03*
X417563Y294870D03*
Y254570D03*
X417957Y266130D03*
X422113Y248642D03*
X422507Y272058D03*
X408792Y328913D03*
Y319813D03*
X245262Y34062D03*
X249199D03*
X295917Y47960D03*
X229773Y48762D03*
X248277Y46873D03*
X261556Y41023D03*
X255214D03*
X269432Y38619D03*
X268923Y51145D03*
X235693Y37103D03*
X245975Y26059D03*
X242693D03*
G54D44*
X377369Y22020D03*
X385243D03*
X393117D03*
G54D41*
X69796Y287321D03*
X87512D03*
G54D34*
X40377Y168057D03*
Y187743D03*
G54D39*
X25462Y228794D03*
Y251628D03*
X297730Y312769D03*
X281578Y25457D03*
X304412D03*
X234829D03*
X257663D03*
G54D42*
X136340Y302931D03*
X131832Y295136D03*
X136340Y287341D03*
X172403Y302931D03*
X163387D03*
X154371D03*
X145355D03*
X167895Y295136D03*
X158879D03*
X149863D03*
X140847D03*
X172403Y287341D03*
X163387D03*
X154371D03*
X145355D03*
G54D35*
X15426Y158487D03*
Y189983D03*
G54D32*
X45052Y15686D03*
X76548D03*
X301344Y322793D03*
G54D45*
X355619Y25602D03*
Y44106D03*
X325719Y25602D03*
Y44106D03*
G54D43*
X225946Y322698D03*
X279884D03*
X252915Y326628D03*
G54D38*
X23400Y81400D03*
X433107Y147268D03*
X433114Y187582D03*
G54D40*
X105162Y295136D03*
X203588D03*
G54D33*
X15000Y15000D03*
Y323400D03*
X425000Y15000D03*
Y323400D03*
%LPD*%
G75*
G36*
G01X380182Y330391D02*
G02X380503Y329752I0J-400D01*
G03X382749I1123J-839D01*
G02X383070Y330391I321J239D01*
G01X398242D01*
X402594Y326039D01*
G02X402565Y325447I-283J-283D01*
G03X403283Y322972I890J-1084D01*
G01X403458Y322950D01*
Y319295D01*
G02X402845Y318957I-400J1D01*
G03Y316583I-746J-1187D01*
G02X403458Y316245I213J-339D01*
G01Y268254D01*
X400705Y265501D01*
X376844D01*
G03X374338I-1253J-628D01*
G01X373853D01*
G02X373483Y266052I1J400D01*
G03X370887I-1298J529D01*
G02X370517Y265501I-371J-151D01*
G01X360639D01*
G03X358791I-924J-1054D01*
G01X332758D01*
X329381Y262124D01*
X316455D01*
X312326Y266253D01*
Y294880D01*
X312350Y294924D01*
G03Y296256I-1234J666D01*
G01X312326Y296300D01*
Y310689D01*
X312473Y310730D01*
G03Y313434I-373J1352D01*
G01X312326Y313475D01*
Y323743D01*
X319003Y330420D01*
X323369D01*
G02X323710Y329812I0J-400D01*
G03X323292Y328325I2446J-1490D01*
G01Y325957D01*
G03X329018I2863J1D01*
G01Y328325D01*
G03X328600Y329812I-2864J-3D01*
G02X328941Y330420I341J208D01*
G01X359240D01*
X359269Y330391D01*
X380182D01*
G37*
%LPC*%
G75*
G36*
G01X391659Y317479D02*
G02X391115Y318902I-1371J291D01*
G03X391742Y319142I236J323D01*
G02X392286Y317719I1371J-291D01*
G03X391659Y317479I-236J-323D01*
G37*
G36*
G01X360877Y270600D02*
G03Y270031I282J-284D01*
G02X358903I-987J-995D01*
G03Y270600I-282J285D01*
G02X360877I987J995D01*
G37*
G54D46*
X394554Y280500D03*
G54D36*
X396193Y320306D03*
X344684Y322886D03*
X381626Y319813D03*
X386963Y324363D03*
X376289D03*
X355145Y321454D03*
X347621D03*
X354684Y327239D03*
X359684D03*
X321745Y304164D03*
X317296Y299888D03*
X314147Y288041D03*
Y284041D03*
X320441Y267337D03*
X326073D03*
X330528Y286718D03*
X391602Y302179D03*
X387664D03*
X383726D03*
X395540D03*
X397305Y291913D03*
X375591Y280625D03*
X378819Y284563D03*
X373187Y288501D03*
Y272749D03*
X378819D03*
X370214Y278438D03*
X357243Y289509D03*
X369698Y290497D03*
X342252Y276500D03*
X346152Y272856D03*
X337133Y276323D03*
X333195D03*
X351383Y316117D03*
X348076Y279109D03*
X351445Y283265D03*
X344707D03*
X320596Y273919D03*
X359890Y276713D03*
X317655Y271728D03*
X344684Y295743D03*
X349684D03*
X370214Y270442D03*
X351225Y290582D03*
X398162Y317770D03*
X369366Y310242D03*
G54D39*
X320564Y312769D03*
G54D32*
X332840Y322793D03*
G54D47*
X326155Y310682D03*
%LPD*%
G75*
G54D10*
X15000Y15000D03*
Y323400D03*
X425000Y15000D03*
Y323400D03*
G54D11*
X13400Y101400D03*
Y91400D03*
Y81400D03*
Y121400D03*
Y111400D03*
X23400Y101400D03*
Y91400D03*
Y121400D03*
Y111400D03*
X128473Y185065D03*
X158473D03*
Y155065D03*
X128473D03*
Y238923D03*
X158473D03*
Y208923D03*
X128473D03*
X239529Y299950D03*
Y309793D03*
X258033D03*
X247797D03*
X266301Y299950D03*
Y309793D03*
X433107Y139394D03*
X433114Y179708D03*
G54D20*
X87512Y287321D03*
X69796D03*
X165449Y63390D03*
X183165D03*
X337069Y181623D03*
X354785D03*
G54D30*
G01X16000Y0D02*
X424000D01*
G03X440000Y16000I0J16000D01*
G01Y322400D01*
G03X424000Y338400I-16000J0D01*
G01X16000D01*
G03X0Y322400I0J-16000D01*
G01Y16000D01*
G03X16000Y0I16000J0D01*
G54D21*
X263254Y11087D03*
X229238D03*
X310003D03*
X275987D03*
X292139Y327139D03*
X326155D03*
G54D12*
X11249Y69613D03*
X7907Y34091D03*
X19086Y46940D03*
X8388Y49734D03*
X7779Y171383D03*
X6045Y125316D03*
X10671Y136110D03*
X16765Y147424D03*
X11428D03*
X16765Y151217D03*
Y143631D03*
X6200Y264235D03*
X6623Y193356D03*
X6045Y212438D03*
X4695Y199138D03*
X16765Y204733D03*
Y212319D03*
X11428Y208526D03*
X8125Y230590D03*
Y235590D03*
Y240590D03*
Y245590D03*
Y250590D03*
X13125D03*
Y245590D03*
Y240590D03*
Y235590D03*
Y230590D03*
X18125D03*
Y235590D03*
Y240590D03*
Y245590D03*
Y250590D03*
X6166Y290629D03*
X6200Y272271D03*
X6166Y298665D03*
X67530Y9063D03*
X27632Y25482D03*
X95091Y22362D03*
X91329Y17025D03*
X33989Y22362D03*
Y11688D03*
X30227Y17025D03*
X37751D03*
X100602Y4355D03*
X87961Y34312D03*
X66567Y36047D03*
X55003Y81326D03*
X26476Y69420D03*
X21014Y56578D03*
X29366Y40001D03*
X24226Y32934D03*
X87278Y81327D03*
X79754D03*
X83516Y84007D03*
Y78647D03*
X99874D03*
Y84007D03*
X96112Y81327D03*
Y96363D03*
X99874Y99043D03*
Y93683D03*
X83516D03*
Y99043D03*
X79754Y96363D03*
X72088Y106121D03*
X46718Y93753D03*
X58461Y106580D03*
X33989Y51058D03*
X91784D03*
X88415Y55214D03*
X91784Y59370D03*
X95153Y55214D03*
X30620D03*
X33989Y59370D03*
X51311Y54601D03*
X76903Y63220D03*
X80841D03*
X38481Y101413D03*
X87278Y96363D03*
X77151Y104459D03*
X64150Y101461D03*
X60506Y97561D03*
X68860Y106121D03*
X66447Y87591D03*
X85960Y63043D03*
X89860Y66687D03*
X38682Y93753D03*
X51555Y97564D03*
X47105Y99444D03*
X48409Y101487D03*
X74440Y89986D03*
X47105Y103382D03*
X68634Y54601D03*
X64304D03*
X58046Y68788D03*
X60611Y54470D03*
X28981Y184104D03*
X25126Y174274D03*
X28596Y130713D03*
X30138Y137073D03*
X77299Y138161D03*
X68851D03*
X63584D03*
X65759Y159258D03*
X62755Y149371D03*
X62763Y140782D03*
X82136Y149830D03*
Y144331D03*
X53203Y159590D03*
X65759Y165371D03*
Y169309D03*
Y177185D03*
X93248Y171642D03*
X88248D03*
X83248D03*
Y176642D03*
X88248D03*
X93248D03*
Y181642D03*
X88248D03*
X83248D03*
X75962Y142679D03*
X67300Y149371D03*
X94880Y154176D03*
X90942D03*
X83066D03*
X96619Y117572D03*
X67910Y135641D03*
X58461Y110518D03*
X65759Y181123D03*
X33859Y148372D03*
X55523Y140770D03*
X94761Y148819D03*
X97012Y140717D03*
X65691Y154684D03*
X77570Y158763D03*
X71391Y177185D03*
X67910Y115168D03*
X56057Y138084D03*
X89218Y163833D03*
X93076Y163786D03*
X97885Y153474D03*
X97189Y150999D03*
X83066Y159808D03*
X99836Y135061D03*
X52829Y126270D03*
X51029Y140240D03*
X52280Y169744D03*
X56057Y114456D03*
Y118394D03*
Y122332D03*
Y130208D03*
Y134146D03*
X87004Y154176D03*
X98077Y185492D03*
X94880Y159808D03*
X90942D03*
X96619Y133237D03*
X93391Y117572D03*
X82038Y120286D03*
Y122845D03*
Y125405D03*
X99023Y127964D03*
X82038Y130523D03*
Y133082D03*
X65759Y173247D03*
X45498Y217681D03*
X49436D03*
X94867Y200406D03*
X98725Y212416D03*
Y209266D03*
X51631Y264147D03*
X32258Y215136D03*
X27825Y195283D03*
X98725Y204542D03*
X84959Y249002D03*
X94940D03*
X60281Y207428D03*
X98095Y200406D03*
X91743Y241746D03*
X80371Y234599D03*
Y230661D03*
Y222785D03*
X72810Y231183D03*
X61896Y235201D03*
X56896D03*
X51896D03*
Y240201D03*
X56896D03*
X61896D03*
Y245201D03*
X56896D03*
X51896D03*
X34067Y227613D03*
X37108Y227689D03*
X57312Y217681D03*
X53374D03*
X83314Y196666D03*
X67999Y196843D03*
X98095Y195330D03*
X67999Y200781D03*
X41046Y227689D03*
X34067Y252809D03*
X39512Y248360D03*
X44368Y242180D03*
X69142Y255441D03*
X77888Y225781D03*
X57973Y266551D03*
X80371Y218847D03*
X99442Y226723D03*
X22102Y208526D03*
X33859Y207428D03*
X54954Y200122D03*
X71546Y252213D03*
X84959Y256640D03*
X94940D03*
X70403Y190501D03*
X77453Y243738D03*
X96354Y189477D03*
X93777Y189591D03*
X87872D03*
X77453Y237484D03*
X26149Y237258D03*
Y241195D03*
X77888Y255441D03*
X91187Y189469D03*
X77888Y229009D03*
X80371Y226723D03*
X88407Y218847D03*
X85281Y189469D03*
X92381Y256640D03*
X82400D03*
X97499Y249002D03*
X87518D03*
X71555Y237484D03*
X52527Y259888D03*
X65006Y191680D03*
X92381Y249002D03*
X82400D03*
X51519Y290615D03*
X36363Y291732D03*
X31808Y318715D03*
X81242Y324149D03*
X64106Y316825D03*
X63527Y329353D03*
X35965D03*
X55457Y298651D03*
X51631Y272183D03*
X51519Y298651D03*
X45729Y279226D03*
X41967Y283776D03*
X25078Y279226D03*
X21316Y283776D03*
X45593Y305686D03*
X41831Y310236D03*
X21316D03*
X25078Y305686D03*
X56591Y278290D03*
X70780Y304469D03*
X55457Y293019D03*
X83300Y304728D03*
X57973Y269779D03*
X61799Y296247D03*
X78654Y285164D03*
X120933Y3615D03*
X139898Y11618D03*
X122530Y22371D03*
X138384Y5532D03*
X179825Y20200D03*
X161151D03*
X148472Y11538D03*
X103282Y8117D03*
Y24475D03*
X105686Y4355D03*
Y20713D03*
X144534Y11538D03*
X149435Y3543D03*
X121410Y12224D03*
X138246Y17553D03*
X144534Y17170D03*
X148472D03*
X169890Y3236D03*
X162366D03*
X166128Y5916D03*
X178724Y3236D03*
X168789Y20200D03*
X179825Y22759D03*
X161151Y17641D03*
X179825D03*
X176850Y26779D03*
X168789Y22759D03*
X137469Y37915D03*
X180821Y28159D03*
X179825Y42000D03*
X142468Y107163D03*
X103636Y81327D03*
Y96363D03*
X160411Y55174D03*
X125249Y69968D03*
X139029Y27634D03*
X106178Y28838D03*
Y32776D03*
X123106Y31746D03*
X105628Y63418D03*
X106178Y36714D03*
X144145Y87971D03*
X129187Y69968D03*
X160411Y59112D03*
X182181Y56916D03*
X156570Y49462D03*
X160064Y44409D03*
X161151Y31100D03*
X154429Y100143D03*
X128342Y61722D03*
X144145Y82971D03*
X154779Y65454D03*
X105962Y59495D03*
X119218Y63418D03*
X125249Y64336D03*
X128007Y77971D03*
Y72971D03*
X129187Y64336D03*
X135529D03*
X154779Y55174D03*
X168789Y31100D03*
X169583Y47907D03*
X111810Y32776D03*
X105962Y43137D03*
X158009Y29595D03*
X161151Y33659D03*
X179825D03*
X168789Y28541D03*
X181443Y38801D03*
X168719D03*
X158287Y100143D03*
X109102Y102487D03*
Y87451D03*
X177282Y75752D03*
X161151Y28541D03*
X144343Y31746D03*
X147992Y33714D03*
X144343Y35683D03*
X147992Y37651D03*
X179825Y44559D03*
X130498Y47063D03*
X167101Y44559D03*
X133780Y47063D03*
X135529Y67564D03*
X147888Y62593D03*
X144934Y65090D03*
X128007Y82971D03*
X177500Y94460D03*
Y99140D03*
X172500Y94460D03*
Y99140D03*
X161515Y97739D03*
X168789Y33659D03*
X129096Y139027D03*
X139054Y148512D03*
X164045Y186796D03*
X172477Y158502D03*
X164045Y161058D03*
Y164996D03*
X168283Y130192D03*
X160759D03*
X164521Y132872D03*
X148163D03*
X144401Y130192D03*
X151925D03*
X164521Y108689D03*
X148163D03*
X168283Y111369D03*
X151925D03*
X142468Y111101D03*
X154354Y114124D03*
X164045Y168934D03*
X172194Y162911D03*
X104287Y180891D03*
X108631Y180573D03*
X116879Y165172D03*
X116988Y167880D03*
X116879Y157298D03*
Y149424D03*
X119140Y142082D03*
X180347Y111351D03*
X172119Y115877D03*
X140064Y121381D03*
X142468Y115039D03*
X169677Y164996D03*
Y161058D03*
X172182Y111968D03*
X169677Y168934D03*
Y186796D03*
X110243Y147273D03*
X119367Y149262D03*
X111590Y138400D03*
X116879Y136825D03*
Y139975D03*
X104643Y183896D03*
X161440Y114077D03*
X105604Y169144D03*
X105538Y155723D03*
X110029Y169242D03*
X107129Y162414D03*
X109862Y160862D03*
X107006Y158471D03*
X104463Y152573D03*
X119528Y145429D03*
X119276Y172736D03*
X158212Y114124D03*
X172225Y188502D03*
X170288Y176151D03*
X167802Y135352D03*
X171845Y137321D03*
X172439Y133384D03*
X110008Y176967D03*
X123150Y132131D03*
X128150D03*
X108825Y183016D03*
X104281Y213991D03*
X111323D03*
X104281Y210841D03*
X111323D03*
X116879Y212416D03*
Y209266D03*
X104619Y208269D03*
X110985D03*
X162274Y228889D03*
X110985Y205539D03*
X117759Y195612D03*
X135302Y195518D03*
X116879Y204542D03*
X111323Y202967D03*
X104281D03*
X117360Y191335D03*
X174788Y249002D03*
X167605Y255197D03*
X104921Y249002D03*
X114902D03*
X124883D03*
X134864D03*
X144845D03*
X154826D03*
X164045Y190734D03*
Y197730D03*
X181084Y221819D03*
X172096Y269088D03*
X116504Y244828D03*
X120442D03*
X108101Y241746D03*
X161285Y244828D03*
X171865Y193738D03*
X164045Y201668D03*
X172740Y201231D03*
X120490Y190971D03*
X104729Y205796D03*
X104162Y188794D03*
X149293Y193053D03*
X128216Y195518D03*
X111323Y188794D03*
X117759Y199550D03*
X121155Y198656D03*
X139160Y195518D03*
X144845Y256640D03*
X154826D03*
X164807D03*
X174788D03*
X104921D03*
X114902D03*
X124883D03*
X134864D03*
X181084Y216187D03*
X169677Y190734D03*
Y197730D03*
Y201668D03*
X142388Y195518D03*
X132074D03*
X123202Y227116D03*
X182210Y256640D03*
X172229D03*
X160060Y259615D03*
X152267Y256640D03*
X142286D03*
X132305D03*
X122324D03*
X112343D03*
X102362D03*
X182210Y249002D03*
X172229D03*
X162248Y254952D03*
X152267Y249002D03*
X117461D03*
X107480D03*
X142286D03*
X132305D03*
X122324D03*
X112343D03*
X102362D03*
X162011Y195457D03*
X166539Y229727D03*
X107401Y195612D03*
X124988Y195518D03*
X107401Y199550D03*
X157385Y249002D03*
X165430Y246216D03*
X176034Y269088D03*
X137423Y249002D03*
X179972Y269088D03*
X127442Y249002D03*
X177347D03*
X169423Y249274D03*
X120661Y314861D03*
X170694Y328662D03*
X130024Y332325D03*
X149106Y323378D03*
X102462Y312970D03*
X102655Y326655D03*
X180103Y314917D03*
X169423D03*
X161585D03*
X153961D03*
X145055D03*
X135268D03*
X124421Y287725D03*
X120013Y283317D03*
Y276533D03*
Y271959D03*
X129561Y309210D03*
X125981Y305630D03*
Y299826D03*
X107584Y281253D03*
X221464Y20739D03*
X256107Y8148D03*
X251107D03*
X246107D03*
X241107D03*
X236107D03*
Y13148D03*
X241107D03*
X246107D03*
X251107D03*
X256107D03*
Y18148D03*
X251107D03*
X246107D03*
X241107D03*
X236107D03*
X182486Y5916D03*
X186248Y3236D03*
X187463Y20200D03*
X245975Y26059D03*
X242693D03*
X229773Y48762D03*
X233648Y30103D03*
X258844D03*
X198702Y51305D03*
X221996Y65428D03*
X255238Y54659D03*
X250238D03*
X245238D03*
Y59659D03*
X250238D03*
X255238D03*
Y64659D03*
X250238D03*
X245238D03*
X233386Y74443D03*
X261556Y41023D03*
X255214D03*
X263191Y37103D03*
X235693D03*
X253747Y76413D03*
X221996Y69286D03*
X200961Y34814D03*
X248277Y46873D03*
X197384Y61436D03*
X192500Y99140D03*
X197500D03*
X212500D03*
X207500D03*
X202500D03*
X187500D03*
X217500D03*
X239018Y74443D03*
X224400Y62200D03*
X192500Y94460D03*
X197500D03*
X202500D03*
X207500D03*
X212500D03*
X187500D03*
X217500D03*
X187463Y42000D03*
X192366Y30411D03*
X205061Y75564D03*
X199943D03*
X207620Y72184D03*
X202502Y72145D03*
X210961Y34814D03*
X187463Y28541D03*
X215961Y34814D03*
X249199Y34062D03*
X245262D03*
X262222Y78381D03*
X233386D03*
X221996Y72514D03*
X195767Y69286D03*
X202560Y51305D03*
X195474D03*
X198614Y26948D03*
X207620Y61436D03*
X205061Y64816D03*
X202502Y61436D03*
X199943Y64816D03*
X262500Y99140D03*
Y94460D03*
X257500Y99140D03*
Y94460D03*
X247493Y80350D03*
X252500Y99140D03*
Y94460D03*
X247500Y99140D03*
Y94460D03*
X253747Y80350D03*
X242500Y99140D03*
Y94460D03*
X232500D03*
Y99140D03*
X227500Y94460D03*
Y99140D03*
X222500Y94460D03*
Y99140D03*
X182500Y94460D03*
Y99140D03*
X229165Y56576D03*
X251811Y74444D03*
X220416Y61436D03*
X215298Y64816D03*
X212739Y61436D03*
X210180Y64816D03*
X220416Y75564D03*
X215298D03*
X213279Y71618D03*
X210180Y79917D03*
X188135Y33915D03*
X187795Y44532D03*
X251352Y115423D03*
X257492Y160943D03*
X224921Y118710D03*
X189864Y110819D03*
X257492Y164880D03*
X229137Y115251D03*
X216238Y116013D03*
X239813Y114761D03*
X261860Y115636D03*
Y121771D03*
X222795Y115541D03*
X254449D03*
X226733D03*
X200730Y159455D03*
X205784Y157645D03*
X199928Y155430D03*
X253515Y186533D03*
X257492Y188502D03*
X182508Y184565D03*
X253515Y158974D03*
X253828Y155052D03*
X187036Y183570D03*
X247457Y170931D03*
X189419Y184259D03*
X189702Y177716D03*
X182508Y172754D03*
X184903Y170785D03*
X192163Y110892D03*
X203189Y153630D03*
X194921Y110852D03*
X205340Y150448D03*
X198070Y110687D03*
X201271Y110694D03*
X204377Y110535D03*
X251212Y168817D03*
X211676Y116035D03*
X185766Y131924D03*
X214371Y117878D03*
X218009Y118135D03*
X258191Y121556D03*
X220781Y118167D03*
X231540Y114761D03*
X230827Y118710D03*
X232932Y116862D03*
X234764Y118710D03*
X196177Y136152D03*
X234485Y114746D03*
X201349Y135321D03*
X237502Y114761D03*
X195375Y130994D03*
X240669Y118710D03*
X191232Y132544D03*
X242638Y115084D03*
X204106Y131998D03*
X244606Y118710D03*
X207245Y134211D03*
X246575Y115084D03*
X248543Y118710D03*
X252647Y118528D03*
X209465Y128639D03*
X257492Y153069D03*
X253523Y151100D03*
X253515Y170785D03*
X257492Y172754D03*
X218857Y115541D03*
X206974Y110421D03*
X213975Y115599D03*
X253515Y174722D03*
X257492Y176691D03*
X253831Y178659D03*
X253515Y182596D03*
X257492Y180628D03*
Y184565D03*
X182662Y166848D03*
X183521Y164541D03*
X185654Y161207D03*
X189797Y163180D03*
X193696Y162334D03*
X192923Y157878D03*
X199331Y213018D03*
X197362Y216995D03*
X195394Y213018D03*
X233035Y201680D03*
X244537Y236055D03*
Y229013D03*
X255561D03*
X255325Y241713D03*
X238795Y234751D03*
X257492Y194407D03*
X219340Y229013D03*
X213075Y219415D03*
X213041Y229013D03*
X220915Y241611D03*
X217765D03*
X219340Y236055D03*
X213041D03*
X224693Y249002D03*
X214712D03*
X204731D03*
X194750D03*
X184769D03*
X232795Y213018D03*
X185022Y221819D03*
X188960D03*
X234239D03*
X226363D03*
X183910Y269088D03*
X188096Y269226D03*
X219927Y201246D03*
X230301Y221819D03*
X192898D03*
X182508Y194407D03*
X183703Y213487D03*
X191288Y213223D03*
X228858Y213018D03*
X257492Y200313D03*
X230633Y229271D03*
X234674Y256640D03*
X184769D03*
X194750D03*
X204731D03*
X214712D03*
X224693D03*
X230301Y216187D03*
X185022D03*
X188960D03*
X234239D03*
X226363D03*
X216125D03*
X221244Y217250D03*
X192898Y216187D03*
X248543Y200379D03*
X246575Y203356D03*
X244606Y200379D03*
X242638Y203356D03*
X191324Y269226D03*
X251847Y262576D03*
X220160Y269226D03*
X225984Y266033D03*
X209891Y236055D03*
X211466Y241611D03*
X216191Y236055D03*
X214616Y241611D03*
X209891Y229013D03*
X216191D03*
X211466Y223457D03*
X214616D03*
X217224Y223244D03*
X240625Y259615D03*
X217271Y249002D03*
X207290D03*
X232115Y256640D03*
X222134D03*
X212153D03*
X202172D03*
X192191D03*
Y249002D03*
X202172D03*
X212153D03*
X222134D03*
X253024Y221819D03*
X232115Y249002D03*
X243947Y266869D03*
X255355Y246869D03*
X258710Y246933D03*
X261014Y245284D03*
X225572Y201142D03*
X219016Y213018D03*
X203268D03*
X213110Y215815D03*
X201299Y216995D03*
X208673Y216985D03*
X205236Y216995D03*
X207205Y213018D03*
X211142D03*
X197309Y249002D03*
X187328D03*
X256962Y221819D03*
X249086D03*
X243804Y231207D03*
X205728Y313711D03*
X225388Y303689D03*
X243166Y322109D03*
X210978Y333288D03*
X195751Y323073D03*
X185549Y276614D03*
Y286859D03*
Y295551D03*
Y305171D03*
X217756Y275568D03*
X199799Y271194D03*
X238085Y283230D03*
X249788Y282794D03*
X243947Y273961D03*
X261788Y274693D03*
X231616Y277099D03*
X253694Y274560D03*
X214528Y275568D03*
X241313Y280826D03*
X256042Y278857D03*
X193849Y273163D03*
X206053D03*
X265494Y38619D03*
X269432D03*
X321102Y80212D03*
X334594Y71539D03*
X281140Y69835D03*
X295917Y47960D03*
X280397Y30103D03*
X305593D03*
X342873Y98485D03*
X337873Y100889D03*
X332873D03*
X327873D03*
X309022Y100496D03*
X304022D03*
X299022D03*
X268923Y51145D03*
X265450Y75977D03*
X294022Y100496D03*
Y94864D03*
X299022D03*
X309022D03*
X327873Y63649D03*
X332873D03*
X337873D03*
X342873D03*
X309022Y63264D03*
X304022D03*
X299022D03*
X294022D03*
X267500Y99140D03*
Y94460D03*
X327873Y95257D03*
X337873D03*
X342873D03*
X332873D03*
X339106Y128263D03*
X332083Y146765D03*
X329335Y114928D03*
X337641Y145011D03*
X296032Y178553D03*
X296094Y176253D03*
X324279Y144699D03*
X329835Y139975D03*
Y146274D03*
Y158873D03*
X329977Y170745D03*
X330672Y180920D03*
X287116Y149919D03*
X287768Y142046D03*
X294541Y146960D03*
X317237Y139975D03*
Y146274D03*
X319701Y158108D03*
X317237Y169896D03*
X317212Y184985D03*
X310158Y126377D03*
Y132161D03*
Y139247D03*
Y146333D03*
X273498Y133265D03*
X299600Y157834D03*
X277915Y154047D03*
X310158Y175920D03*
Y183006D03*
X274082Y185828D03*
X283968Y180260D03*
X283967Y170812D03*
X277669Y158215D03*
X283968Y186559D03*
X277669Y149919D03*
X283967Y134172D03*
X277669Y121575D03*
X295373Y141664D03*
X273550Y172309D03*
X273551Y159930D03*
Y163868D03*
Y167806D03*
X268159Y115541D03*
X277608Y115696D03*
X287057Y115541D03*
X268159Y121803D03*
X339524Y157220D03*
X287689Y119499D03*
X275182D03*
X341246Y162537D03*
X270323Y163868D03*
Y159930D03*
Y167806D03*
X334826Y187142D03*
X294597Y186786D03*
X299714Y180260D03*
X310158Y186234D03*
Y179148D03*
X310174Y159789D03*
X285055Y154047D03*
X310158Y149561D03*
X307703Y175701D03*
X292313Y152511D03*
X318227Y143125D03*
X329835D03*
X324279Y138400D03*
X329835Y136825D03*
X324279Y141550D03*
X317237Y136825D03*
X273498Y138897D03*
X310158Y142475D03*
Y135389D03*
Y123149D03*
X298140Y142046D03*
X311799Y136900D03*
X287500Y177495D03*
X287116Y170811D03*
X280818D03*
X277752Y170896D03*
X318893Y172188D03*
X288058Y165628D03*
X283966Y164514D03*
X277669Y167663D03*
X289361Y157734D03*
X283966Y158215D03*
X277669Y161364D03*
X320251Y154148D03*
X277669Y164514D03*
X317237Y150999D03*
X280818Y161364D03*
X320251Y151018D03*
X287116Y161364D03*
X296566Y124724D03*
X302864Y134173D03*
X299714Y131023D03*
X306013D03*
Y127874D03*
X299716Y134171D03*
X280818D03*
X287116D03*
X302864Y180260D03*
Y186559D03*
Y183410D03*
X306013D03*
Y180260D03*
X303447Y121149D03*
X301532Y118940D03*
X306013Y177111D03*
X299714Y121575D03*
X302864Y177111D03*
X284165Y119499D03*
X281015D03*
X287116Y127872D03*
X290419Y124724D03*
X264600Y128401D03*
X265630Y120536D03*
X283968Y127574D03*
X306013Y124724D03*
X307409Y172078D03*
X329835Y184069D03*
X290469Y128920D03*
X323665Y182443D03*
X296566Y170811D03*
X276929Y127345D03*
X296566Y127874D03*
X302864D03*
X303421Y150702D03*
X306013Y146770D03*
X302864D03*
X306013Y143620D03*
X299716D03*
X323056Y179345D03*
X299716Y170813D03*
X306013Y140471D03*
X330522Y178352D03*
X306455Y166709D03*
X303132Y140520D03*
X333029Y177920D03*
X311008Y165421D03*
X333164Y174621D03*
X302864Y167663D03*
X333370Y171876D03*
X295879Y166862D03*
X334021Y168994D03*
X299716Y164514D03*
X332840Y166720D03*
X303835Y157244D03*
X335567Y164444D03*
X295914Y162938D03*
X333766Y162192D03*
X302864Y161364D03*
X332181Y159681D03*
X307593Y160161D03*
X323963Y155656D03*
X296408Y156991D03*
X338186Y152330D03*
X277669Y180260D03*
Y183410D03*
X280818Y186559D03*
Y183410D03*
Y149919D03*
X271822Y131415D03*
X272633Y147801D03*
X270684Y133415D03*
X283966Y146770D03*
X267154Y135352D03*
X275609Y145680D03*
X270915Y139252D03*
X280818Y143620D03*
X267908Y139289D03*
X280818Y180260D03*
Y177111D03*
X277669D03*
X334070Y191537D03*
X271011Y229238D03*
X273210Y255498D03*
X329835Y191943D03*
X266584Y229013D03*
X276310Y229065D03*
X275900Y231764D03*
X266584Y236055D03*
X301368Y193076D03*
X320333Y205094D03*
X326073Y267337D03*
X294009Y265803D03*
X283392Y268571D03*
X275955Y196736D03*
Y200674D03*
X267034Y268571D03*
X316526Y256129D03*
X313727Y230339D03*
X274009Y217639D03*
X306301Y264600D03*
X310625Y235025D03*
X300648Y230235D03*
X309644Y209466D03*
X285737Y207062D03*
X295807Y203063D03*
X282314Y193076D03*
X317237Y202967D03*
Y191943D03*
X313727Y216021D03*
X322744Y205692D03*
X330735Y203351D03*
X322744Y209630D03*
X313298Y253725D03*
X306416Y207062D03*
X320441Y267337D03*
X277237Y215235D03*
X270323Y196736D03*
Y200674D03*
X271386Y209437D03*
X267742Y205793D03*
X333110Y189446D03*
X329835Y189643D03*
X326073Y263399D03*
X297237Y265803D03*
X276438Y255498D03*
X273210Y235025D03*
X292508Y199737D03*
X309644Y203124D03*
X285542Y193076D03*
X298140Y190672D03*
X285737Y203125D03*
X316554Y238322D03*
X301919Y250380D03*
X292754Y207035D03*
X335014Y227526D03*
X301919Y245261D03*
X319848Y202845D03*
X319934Y200218D03*
X317829Y197434D03*
X319895Y195634D03*
X323319Y193798D03*
X263272Y266869D03*
X320074Y191116D03*
X321532Y189236D03*
X263780Y244781D03*
X264177Y241853D03*
X268159Y262115D03*
X269642Y260270D03*
X328036Y233926D03*
X335053Y261202D03*
X328036Y253616D03*
X318546Y249678D03*
X328036Y245740D03*
Y241802D03*
X341739Y241232D03*
Y244382D03*
Y247532D03*
X341417Y227526D03*
X339013Y220440D03*
X330369Y199377D03*
X341417Y223668D03*
Y230754D03*
X305712Y267336D03*
X341395Y261202D03*
X343476Y217374D03*
X297634Y226140D03*
X335308Y223327D03*
X290509Y229318D03*
X331264Y241802D03*
X324178D03*
X308697Y266689D03*
X280283Y209831D03*
X281644Y205793D03*
X275446Y209950D03*
X273551Y192798D03*
Y188860D03*
X324178Y247274D03*
X287766Y290656D03*
X264517Y284764D03*
X287766Y294594D03*
X276658Y309856D03*
X313133Y331939D03*
X266681Y332903D03*
X290281Y316117D03*
X333195Y276323D03*
X287766Y286718D03*
X311116Y295590D03*
X304147Y284041D03*
X309147D03*
X314147D03*
Y288041D03*
X309147D03*
X304147D03*
X267745Y287168D03*
X296549Y304164D03*
X321745D03*
X317296Y299888D03*
X296625Y298354D03*
X285783Y282780D03*
X337133Y276323D03*
X294043Y321454D03*
X342252Y276500D03*
X267745Y278422D03*
X267034Y274419D03*
X330528Y286718D03*
X312100Y312082D03*
X308163D03*
X320596Y273919D03*
X317655Y271728D03*
X298942Y270691D03*
X412926Y7506D03*
X411385Y25238D03*
X423770Y76613D03*
Y71613D03*
Y94613D03*
Y99613D03*
X407832Y76613D03*
X414832D03*
X418770D03*
Y68385D03*
X407832Y99613D03*
X414832D03*
X418770D03*
Y91385D03*
X388300Y42122D03*
X383300D03*
X378300D03*
X373300D03*
X368300D03*
Y47122D03*
X373300D03*
X378300D03*
X383300D03*
X388300D03*
Y52122D03*
X383300D03*
X378300D03*
X373300D03*
X368300D03*
X348471Y81754D03*
X412926Y53186D03*
X418770Y102841D03*
X414832D03*
X418770Y79841D03*
X414832D03*
X380577Y32243D03*
X395945Y46413D03*
Y50351D03*
Y54289D03*
Y58227D03*
X375778Y90675D03*
Y67675D03*
X386006Y66613D03*
Y89613D03*
X357873Y98485D03*
X352873D03*
X347873D03*
X375240Y32243D03*
X400090Y77200D03*
Y70900D03*
X393790Y77200D03*
X396940Y74050D03*
X393790Y70900D03*
X400099Y93913D03*
Y100213D03*
X393799Y93913D03*
X396949Y97063D03*
X393799Y100213D03*
X367192Y82245D03*
X371130D03*
X375068D03*
X379006D03*
X367192Y105245D03*
X371130D03*
X375068D03*
X379006D03*
X380577Y37187D03*
X347873Y63649D03*
X352873D03*
X357873Y103879D03*
X352873D03*
X347873D03*
X357873Y59257D03*
X370868Y65680D03*
X366931D03*
X362994D03*
X359057D03*
Y69617D03*
X362994D03*
X366931D03*
X370868D03*
Y73554D03*
X366931D03*
X362994D03*
X359057D03*
X352873Y95257D03*
X357873D03*
X347873D03*
X378264Y87521D03*
X374327D03*
X370390D03*
X366453D03*
X362516D03*
Y91458D03*
X366453D03*
X370390D03*
Y95395D03*
X366453D03*
X362516D03*
X357873Y139379D03*
X352873D03*
X379573Y164067D03*
X383473D03*
X379573Y167711D03*
X424071Y117624D03*
Y122624D03*
X407832Y122613D03*
X414832D03*
X418770D03*
Y114385D03*
X415239Y164977D03*
X418770Y125841D03*
X414832D03*
X360277Y165859D03*
Y159071D03*
X367545Y111077D03*
X375778Y113675D03*
X386006Y112613D03*
X400088Y116931D03*
X393788D03*
X396938Y120081D03*
X400088Y123231D03*
X393788D03*
X379006Y128245D03*
X375068D03*
X371130D03*
X347873Y145011D03*
X360277Y152319D03*
X357873Y145011D03*
X356776Y169812D03*
X367192Y128245D03*
X362239Y181406D03*
X352279Y121050D03*
X356216D03*
X360153D03*
X364090D03*
Y117113D03*
X360153D03*
X356216D03*
X352279D03*
Y113176D03*
X356216D03*
X360153D03*
X364090D03*
X356368Y162537D03*
X366177Y179748D03*
X415093Y185610D03*
Y181752D03*
X415091Y145646D03*
X400766Y159667D03*
X369405Y147664D03*
X373263D03*
X372201Y175810D03*
X388611Y171518D03*
X395269D03*
X415091Y141788D03*
X395823Y144940D03*
X395314Y184954D03*
X371809Y133446D03*
X383491Y149588D03*
X359835Y175774D03*
X379573Y203993D03*
Y207637D03*
X383473Y203993D03*
X410123Y215691D03*
X413119Y198128D03*
X407530Y226654D03*
X345375Y202635D03*
X362578Y200837D03*
Y205837D03*
Y210837D03*
X359605Y220458D03*
X362578Y215837D03*
X359890Y269036D03*
X371202Y238106D03*
X369225Y210961D03*
X371202Y234168D03*
X353231Y220440D03*
X417957Y225830D03*
X417563Y254570D03*
X417957Y266130D03*
X422113Y248642D03*
X349271Y263606D03*
X353209D03*
X361712Y253858D03*
Y249920D03*
X371202Y253858D03*
Y249920D03*
Y245982D03*
X361712D03*
Y242044D03*
Y238106D03*
X348039Y241232D03*
X344889D03*
Y244382D03*
X348039D03*
Y247532D03*
X344889D03*
X372185Y266581D03*
X400727Y199549D03*
X422507Y231758D03*
X359605Y223686D03*
X395269Y211244D03*
X388611D03*
X369405Y190028D03*
X373263D03*
X365570Y245982D03*
X358484D03*
X378819Y244358D03*
X345355Y220440D03*
X365570Y249920D03*
X358484D03*
X359715Y264447D03*
X345333Y261202D03*
X383705Y254570D03*
X370492Y215779D03*
X375591Y264873D03*
X358484Y238106D03*
Y242044D03*
X371202D03*
X365570Y238106D03*
X381160Y189632D03*
X369366Y310242D03*
X412541Y280623D03*
X344707Y283265D03*
X351445D03*
X348076Y279109D03*
X347621Y321454D03*
X355145D03*
X351383Y316117D03*
X369698Y290497D03*
X387664Y302179D03*
X408792Y328913D03*
Y319813D03*
X403455Y324363D03*
X376289D03*
X386963D03*
X381626Y319813D03*
X344684Y322886D03*
X381626Y328913D03*
X390288Y317770D03*
X391602Y302179D03*
X397305Y291913D03*
X351225Y290582D03*
X357243Y289509D03*
X346152Y272856D03*
X383726Y302179D03*
X395540D03*
X369662Y326960D03*
X369698Y296129D03*
X354684Y300096D03*
X394077Y289509D03*
X397305Y273343D03*
X393113Y318851D03*
X396193Y320306D03*
X402099Y317770D03*
X354684Y327239D03*
X359684D03*
X344684Y295743D03*
X349684D03*
X422113Y288942D03*
X417563Y294870D03*
X422507Y272058D03*
X373187Y288501D03*
Y272749D03*
X370214Y278438D03*
X359890Y276713D03*
Y271595D03*
X398162Y317770D03*
X378819Y272749D03*
Y284563D03*
X375591Y280625D03*
X370214Y270442D03*
X428770Y76613D03*
X433770D03*
Y71613D03*
X428770D03*
Y99613D03*
X433770D03*
Y94613D03*
X428770D03*
X433068Y33830D03*
X430659Y46247D03*
X429071Y117624D03*
X434071D03*
Y122624D03*
X429071D03*
X427625Y174621D03*
X433165Y158231D03*
X432514Y238150D03*
X431430Y209885D03*
X433550Y260577D03*
X435020Y289997D03*
X432996Y302125D03*
G54D31*
G01X119367Y149262D02*
Y159941D01*
X114028Y165280D01*
Y183290D01*
X102442Y194876D01*
Y220809D01*
X79513Y243738D01*
X77453D01*
G01X119528Y145429D02*
X117060D01*
X114962Y147527D01*
Y161108D01*
X111915Y164155D01*
Y182512D01*
X108511Y185916D01*
X103984D01*
X100543Y189357D01*
Y219853D01*
X82912Y237484D01*
X77453D01*
G01X253515Y158974D02*
X255812Y156677D01*
Y154020D01*
X254868Y153076D01*
X250546D01*
X217084Y186538D01*
X179271D01*
X174045Y191764D01*
X171293D01*
X169400Y193657D01*
X154647D01*
X146496Y201808D01*
X125738D01*
X122496Y205050D01*
Y219595D01*
X97499Y244592D01*
Y249002D01*
G01X215298Y75564D02*
Y70184D01*
X212739Y67625D01*
Y64009D01*
X205247Y56517D01*
X196687D01*
X193025Y52855D01*
Y35289D01*
X188964Y31228D01*
X187247D01*
X181523Y25504D01*
X179756D01*
X171893Y17641D01*
X161151D01*
G01X199943Y75564D02*
X190751D01*
X168860Y53673D01*
Y50437D01*
X158009Y39586D01*
Y29595D01*
G01X207620Y72184D02*
X205820D01*
X204059Y73945D01*
X200884D01*
X198074Y71135D01*
Y68774D01*
X170519Y41219D01*
Y38055D01*
X166123Y33659D01*
X161151D01*
G01X202502Y72145D02*
Y70211D01*
X182688Y50397D01*
Y41625D01*
X184080Y40233D01*
Y37914D01*
X179825Y33659D01*
G01X177282Y75752D02*
Y65950D01*
X166297Y54965D01*
Y53391D01*
X155886Y42980D01*
Y28744D01*
X157362Y27268D01*
X159878D01*
X161151Y28541D01*
G01X176850Y26779D02*
X190193Y40122D01*
Y53305D01*
X195334Y58446D01*
X202058D01*
X207620Y64008D01*
Y66795D01*
X210180Y69355D01*
Y79917D01*
G01X296566Y124724D02*
X298722Y126880D01*
Y128866D01*
X297783Y129805D01*
X293214D01*
X292299Y130720D01*
X274016D01*
X272911Y129615D01*
X270195D01*
X267931Y131879D01*
X265588D01*
X264131Y133336D01*
X245507D01*
X209992Y168851D01*
X174678D01*
X168232Y175297D01*
Y179066D01*
X172225Y183059D01*
Y188502D01*
G01X170288Y176151D02*
X172088D01*
X172753Y175486D01*
X212865D01*
X247193Y141158D01*
X277125D01*
X282355Y135928D01*
X287935D01*
X291567Y132296D01*
X298441D01*
X299714Y131023D01*
G01X253828Y155052D02*
X252028D01*
X218570Y188510D01*
X181443D01*
X170423Y199530D01*
X151420D01*
X147153Y203797D01*
X126428D01*
X124423Y205802D01*
Y225791D01*
X125787Y227155D01*
Y235301D01*
X118473Y242615D01*
Y246190D01*
X117461Y247202D01*
Y249002D01*
G01X253515Y170785D02*
X251569Y172731D01*
X237709D01*
X219765Y190675D01*
X188810D01*
X168653Y210832D01*
Y234529D01*
X157385Y245797D01*
Y249002D01*
G01X257492Y172754D02*
X255462Y174784D01*
Y175941D01*
X254713Y176690D01*
X253097D01*
X251956Y177831D01*
X240403D01*
X223359Y194875D01*
X191010D01*
X172549Y213336D01*
Y239097D01*
X165430Y246216D01*
G01X253515Y174722D02*
X239767D01*
X221714Y192775D01*
X189823D01*
X170665Y211933D01*
Y236818D01*
X163433Y244050D01*
Y246252D01*
X158169Y251516D01*
X139937D01*
X137423Y249002D01*
G01X127442D02*
X132082Y253642D01*
X158980D01*
X159470Y253152D01*
X161909D01*
X174690Y240371D01*
Y214053D01*
X191724Y197019D01*
X225030D01*
X241421Y180628D01*
X254866D01*
X256219Y179275D01*
Y177964D01*
X257492Y176691D01*
G01X253515Y182596D02*
X243147D01*
X226495Y199248D01*
X192467D01*
X176770Y214945D01*
Y246625D01*
X177347Y247202D01*
Y249002D01*
G01X257492Y184565D02*
X245549D01*
X227014Y203100D01*
X191371D01*
X179147Y215324D01*
Y250236D01*
X178267Y251116D01*
X171265D01*
X169423Y249274D01*
G01X182508Y184565D02*
X187223Y179850D01*
X213996D01*
X249000Y144846D01*
X272226D01*
X275012Y147632D01*
X279397D01*
X286814Y140215D01*
X289830D01*
X292493Y137552D01*
X299485D01*
X302864Y134173D01*
G01X187036Y183570D02*
X188596Y182010D01*
X214728D01*
X249770Y146968D01*
X268588D01*
X273603Y151983D01*
X281433D01*
X293452Y139964D01*
X299940D01*
X306013Y133891D01*
Y131023D01*
G01X189419Y184259D02*
X215449D01*
X250894Y148814D01*
X267377D01*
X274410Y155847D01*
X280407D01*
X284007Y152247D01*
X287991D01*
X291459Y148779D01*
X306437D01*
X308085Y147131D01*
Y129946D01*
X306013Y127874D01*
G01X299716Y134171D02*
X292636D01*
X288649Y138158D01*
X283170D01*
X278405Y142923D01*
X248278D01*
X213485Y177716D01*
X189702D01*
G01X280818Y134171D02*
X278108D01*
X275182Y137097D01*
X267955D01*
X267900Y137152D01*
X248195D01*
X211942Y173405D01*
X184959D01*
X184308Y172754D01*
X182508D01*
G01X287116Y134171D02*
X285251Y132306D01*
X277266D01*
X274291Y135281D01*
X269629D01*
X267900Y133552D01*
X266408D01*
X264671Y135289D01*
X246853D01*
X211357Y170785D01*
X184903D01*
G01X284165Y119499D02*
Y116853D01*
X273605Y106293D01*
X205672D01*
X201271Y110694D01*
G01X281015Y119499D02*
Y116362D01*
X273274Y108621D01*
X206228D01*
X205174Y109675D01*
Y109738D01*
X204377Y110535D01*
G01X211676Y116035D02*
Y121746D01*
X220175Y130245D01*
X266240D01*
X268854Y127631D01*
X274130D01*
X275544Y129045D01*
X278394D01*
X281654Y125785D01*
X285029D01*
X287116Y127872D01*
G01X264600Y128401D02*
X221698D01*
X214371Y121074D01*
Y117878D01*
G01X265630Y120536D02*
Y122336D01*
X261501Y126465D01*
X223816D01*
X218009Y120658D01*
Y118135D01*
G01X258191Y121556D02*
X255170Y124577D01*
X225391D01*
X220781Y119967D01*
Y118167D01*
G01X230827Y118710D02*
X232832Y120715D01*
X253012D01*
X260198Y113529D01*
X268927D01*
X270823Y115425D01*
Y117867D01*
X276426Y123470D01*
X286335D01*
X289196Y126331D01*
Y127647D01*
X290469Y128920D01*
G01X232932Y116862D02*
X229949D01*
X228797Y118014D01*
Y119972D01*
X231560Y122735D01*
X253935D01*
X258642Y118028D01*
X267612D01*
X276929Y127345D01*
G01X234764Y118710D02*
X236564Y116910D01*
X247295D01*
X253194Y111011D01*
X270046D01*
X280424Y121389D01*
X290081D01*
X296566Y127874D01*
G01X206974Y110421D02*
X213737D01*
X218857Y115541D01*
G01X199331Y213018D02*
X207341Y205008D01*
X239070D01*
X242963Y208901D01*
X267884D01*
X269820Y206965D01*
X277126D01*
X280513Y203578D01*
X283256D01*
X284625Y204947D01*
X303324D01*
X314487Y193784D01*
X320094D01*
X322013Y191865D01*
X326136D01*
X328104Y193833D01*
X331745D01*
X334041Y191537D01*
X334070D01*
G01X197362Y216995D02*
Y224987D01*
X205811Y233436D01*
X237335D01*
X243656Y227115D01*
X290329D01*
X293104Y224340D01*
X299336D01*
X301425Y226429D01*
X327007D01*
X357477Y195959D01*
Y178130D01*
X354536Y175189D01*
Y141042D01*
X352873Y139379D01*
G01X271011Y229238D02*
X268649Y231600D01*
X246394D01*
X239714Y238280D01*
X206730D01*
X195394Y226944D01*
Y213018D01*
G01X334826Y187142D02*
X333553Y185869D01*
X328409D01*
X325675Y183135D01*
Y179009D01*
X323968Y177302D01*
X318806D01*
X311958Y184150D01*
Y187094D01*
X303743Y195309D01*
X278179D01*
X277736Y194866D01*
X259783D01*
X254270Y200379D01*
X248543D01*
G01X246575Y203356D02*
X257122D01*
X261848Y198630D01*
X291069D01*
X291762Y197937D01*
X303945D01*
X314891Y186991D01*
Y184487D01*
X316328Y183050D01*
X321502D01*
X326022Y187570D01*
X331234D01*
X333110Y189446D01*
G01X294597Y186786D02*
X290649Y190734D01*
X258041D01*
X250677Y198098D01*
X246887D01*
X244606Y200379D01*
G01X329835Y189643D02*
X325618D01*
X323379Y187404D01*
X317437D01*
X304868Y199973D01*
X295831D01*
X293764Y202040D01*
X291404D01*
X289879Y200515D01*
X279448D01*
X276905Y203058D01*
X266084D01*
X263059Y206083D01*
X245365D01*
X242638Y203356D01*
G01X330369Y199377D02*
X328156Y201590D01*
Y203828D01*
X324318Y207666D01*
X308898D01*
X307596Y208968D01*
X285301D01*
X282519Y211750D01*
X242611D01*
X237926Y207065D01*
X209221D01*
X203268Y213018D01*
G01X213110Y215815D02*
X216345Y219050D01*
X233922D01*
X235010Y217962D01*
X270858D01*
X272335Y219439D01*
X284289D01*
X287203Y216525D01*
X304751D01*
X306724Y218498D01*
X323737D01*
X336997Y205238D01*
Y198775D01*
X345356Y190416D01*
Y149796D01*
X336332Y140772D01*
Y108665D01*
X330373Y102706D01*
Y97757D01*
X327873Y95257D01*
G01X201299Y216995D02*
Y225415D01*
X206919Y231035D01*
X229851D01*
X229887Y231071D01*
X231379D01*
X231415Y231035D01*
X236326D01*
X241870Y225491D01*
X288653D01*
X291301Y222843D01*
X301090D01*
X302704Y224457D01*
X326249D01*
X351707Y198999D01*
Y142167D01*
X347481Y137941D01*
Y107005D01*
X351073Y103413D01*
Y101517D01*
X351955Y100635D01*
X354021D01*
X355171Y99485D01*
Y97959D01*
X357873Y95257D01*
G01X208673Y216985D02*
Y218785D01*
X211324Y221436D01*
X219750D01*
X222026Y223712D01*
X235633D01*
X239454Y219891D01*
X269624D01*
X271364Y221631D01*
X285182D01*
X287683Y219130D01*
X304135D01*
X305346Y220341D01*
X324867D01*
X338997Y206211D01*
Y200377D01*
X347545Y191829D01*
Y148256D01*
X340994Y141705D01*
Y98378D01*
X337873Y95257D01*
G01X347873D02*
X344905Y98225D01*
Y139094D01*
X350054Y144243D01*
Y145376D01*
X349464Y145966D01*
Y193253D01*
X341044Y201673D01*
Y206936D01*
X325538Y222442D01*
X304198D01*
X302842Y221086D01*
X289199D01*
X286565Y223720D01*
X239831D01*
X237478Y226073D01*
X210359D01*
X205236Y220950D01*
Y216995D01*
G01X207205Y213018D02*
X211100Y209123D01*
X236483D01*
X240795Y213435D01*
X284124D01*
X286060Y211499D01*
X325278D01*
X333239Y203538D01*
Y195229D01*
X340340Y188128D01*
Y165153D01*
X339289Y164102D01*
Y160151D01*
X327249Y148111D01*
Y107046D01*
X323097Y102894D01*
Y94309D01*
X326069Y91337D01*
X336873D01*
X340793Y95257D01*
X342873D01*
G01X332873D02*
X330758Y93142D01*
X326866D01*
X325345Y94663D01*
Y101366D01*
X332659Y108680D01*
Y144060D01*
X343191Y154592D01*
Y188938D01*
X335226Y196903D01*
Y204249D01*
X326221Y213267D01*
X287538D01*
X283770Y217035D01*
X275951D01*
X274507Y215591D01*
X240098D01*
X235613Y211106D01*
X224596D01*
X220681Y215021D01*
X217989D01*
X215986Y213018D01*
X211142D01*
G01X277752Y170896D02*
X280729Y173873D01*
X317208D01*
X318893Y172188D01*
G01X277669Y161364D02*
X283143Y155890D01*
X292511D01*
X294253Y154148D01*
X320251D01*
G01X329835Y184069D02*
X327590Y181824D01*
Y172007D01*
X323179Y167596D01*
X316629D01*
X312147Y172078D01*
X307409D01*
G01X295914Y162938D02*
X297187Y164211D01*
Y164915D01*
X301647Y169375D01*
X309600D01*
X313299Y165676D01*
X331055D01*
X332287Y164444D01*
X335567D01*
G01X333766Y162192D02*
X331966D01*
X330598Y163560D01*
X305060D01*
X302864Y161364D01*
G01X332181Y159681D02*
X330169Y161693D01*
X309125D01*
X307593Y160161D01*
G01X323963Y155656D02*
X322163D01*
X321518Y156301D01*
X308280D01*
X305047Y159534D01*
X297151D01*
X296408Y158791D01*
Y156991D01*
G01X297634Y226140D02*
X299851Y228357D01*
X327519D01*
X338502Y217374D01*
X343476D01*
G01X335308Y223327D02*
X326419Y232216D01*
X293407D01*
X290509Y229318D01*
G54D22*
X263254Y27544D03*
X229238D03*
X310003D03*
X275987D03*
X292139Y310682D03*
X326155D03*
G54D13*
X15426Y189983D03*
Y158487D03*
X76548Y15686D03*
X45052D03*
X172403Y302931D03*
X163387D03*
X154371D03*
X145355D03*
X136340D03*
X167895Y295136D03*
X158879D03*
X149863D03*
X140847D03*
X131832D03*
X172403Y287341D03*
X163387D03*
X154371D03*
X145355D03*
X136340D03*
X332840Y322793D03*
X301344D03*
G54D14*
X11092Y223203D03*
Y257219D03*
G54D23*
X225946Y322698D03*
X252915Y326628D03*
X279884Y322698D03*
G54D15*
X23400Y81400D03*
X433107Y147268D03*
X433114Y187582D03*
G54D24*
X325719Y7098D03*
Y25602D03*
Y44106D03*
X355619Y7098D03*
Y25602D03*
Y44106D03*
G54D25*
X377369Y4304D03*
X385243D03*
X393117D03*
X377369Y22020D03*
X385243D03*
X393117D03*
G54D16*
X40377Y168057D03*
Y187743D03*
G54D17*
X25462Y228794D03*
Y251628D03*
X257663Y25457D03*
X234829D03*
X304412D03*
X281578D03*
X297730Y312769D03*
X320564D03*
G54D26*
X394554Y240200D03*
X422113D03*
X394554Y280500D03*
X422113D03*
G54D27*
G01X121155Y198656D02*
X136022D01*
X139160Y195518D01*
G01X198614Y26948D02*
X196383Y29179D01*
Y45128D01*
X202560Y51305D01*
G54D18*
X27549Y223203D03*
Y257219D03*
G54D28*
G01X331146Y44106D02*
X325719D01*
G01X329756Y48143D02*
X325719Y44106D01*
G01Y49533D02*
Y44106D01*
G01X321682Y48143D02*
X325719Y44106D01*
G01X320292D02*
X325719D01*
G01X321682Y40069D02*
X325719Y44106D01*
G01Y38679D02*
Y44106D01*
G01X329756Y40069D02*
X325719Y44106D01*
G54D19*
X105162Y295136D03*
X203588D03*
G54D29*
G01X13400Y87548D02*
Y91400D01*
G01D02*
Y95252D01*
G01X9548Y91400D02*
X13400D01*
G01D02*
X17252D01*
G01X10476Y88476D02*
X13400Y91400D01*
G01D02*
X16324Y94324D01*
G01X10476D02*
X13400Y91400D01*
G01D02*
X16324Y88476D01*
M02*
