G04 ================== begin FILE IDENTIFICATION RECORD ==================*
G04 Layout Name:  G:/project_development/GitHub/StarrySky/PCB/V2.0/STARRYSKY.brd*
G04 Film Name:    ART03*
G04 File Format:  Gerber RS274X*
G04 File Origin:  Cadence Allegro 16.6-2015-S066*
G04 Origin Date:  Mon Aug 28 10:48:09 2023*
G04 *
G04 Layer:  VIA CLASS/ART03*
G04 Layer:  PIN/ART03*
G04 Layer:  ETCH/ART03*
G04 Layer:  BOARD GEOMETRY/OUTLINE*
G04 *
G04 Offset:    (0.00 0.00)*
G04 Mirror:    No*
G04 Mode:      Positive*
G04 Rotation:  0*
G04 FullContactRelief:  No*
G04 UndefLineWidth:     0.01*
G04 ================== end FILE IDENTIFICATION RECORD ====================*
%FSLAX55Y55*MOIN*%
%IR0*IPPOS*OFA0.00000B0.00000*MIA0B0*SFA1.00000B1.00000*%
%ADD12C,.018*%
%ADD26C,.05157*%
%ADD20C,.03583*%
%ADD16C,.0748*%
%ADD25C,.05906*%
%ADD17C,.02795*%
%ADD13C,.06693*%
%ADD24C,.09449*%
%ADD11C,.06299*%
%ADD15R,.06299X.06299*%
%ADD23C,.12205*%
%ADD10C,.16142*%
%ADD19C,.17323*%
%ADD21O,.04724X.07087*%
%ADD14O,.07087X.04724*%
%ADD22O,.04724X.07874*%
%ADD18O,.07874X.04724*%
%ADD27C,.02*%
%ADD28C,.04*%
%ADD29C,.014*%
%ADD30C,.015*%
%ADD31C,.006*%
%ADD32C,.008*%
%ADD39C,.07302*%
%ADD42C,.0616*%
%ADD38C,.02804*%
%ADD47C,.04586*%
%ADD36C,.08666*%
%ADD41C,.03798*%
%ADD45C,.07696*%
%ADD37C,.07878*%
%ADD34C,.07879*%
%ADD43C,.10452*%
%ADD44C,.13208*%
%ADD40R,.07302X.07302*%
%ADD33O,.03202X.07139*%
%ADD46C,.18326*%
%ADD35C,.18902*%
%ADD48O,.05726X.08876*%
G75*
%LPD*%
G75*
G36*
G01X15999Y2001D02*
G02X12209Y2524I1J13999D01*
G01X2524Y12209D01*
G02X2035Y15025I13476J3791D01*
G01Y251016D01*
X4045Y253026D01*
X23391D01*
G02X23751Y252452I0J-400D01*
G03X27173I1711J-824D01*
G02X27533Y253026I360J174D01*
G01X32665D01*
Y252824D01*
G03X35469I1402J-15D01*
G01Y253026D01*
X47249D01*
X49305Y250970D01*
Y219086D01*
X49146Y219053D01*
G03Y216309I290J-1372D01*
G01X49305Y216276D01*
Y141609D01*
G03Y138871I1724J-1369D01*
G01Y103219D01*
G02X48795Y102835I-400J0D01*
G03X48791Y102836I-342J-1360D01*
G02X48501Y103257I108J385D01*
G03X46723Y102033I-1396J125D01*
G02X47013Y101612I-108J-385D01*
G03X47027Y101250I1396J-127D01*
G02X46738Y100797I-394J-67D01*
G03X48487Y99681I367J-1353D01*
G02X48776Y100134I394J67D01*
G03X48795Y100139I-347J1358D01*
G02X49305Y99755I110J-384D01*
G01Y61823D01*
X61476Y49652D01*
X121204D01*
X150659Y20197D01*
X159738D01*
X159760Y20022D01*
G03X160164Y19205I1390J179D01*
G02Y18636I-282J-285D01*
G03X162138I987J-995D01*
G02Y19205I282J284D01*
G03X162542Y20022I-986J996D01*
G01X162564Y20197D01*
X167376D01*
X167398Y20022D01*
G03X170180I1391J178D01*
G01X170202Y20197D01*
X178412D01*
X178434Y20022D01*
G03X178838Y19205I1390J179D01*
G02Y18636I-282J-285D01*
G03X180812I987J-995D01*
G02Y19205I282J284D01*
G03X181216Y20022I-986J996D01*
G01X181238Y20197D01*
X186050D01*
X186072Y20022D01*
G03X188854I1391J178D01*
G01X188876Y20197D01*
X220165D01*
X220221Y20090D01*
G03X222707I1243J649D01*
G01X222763Y20197D01*
X334055D01*
X336679Y17573D01*
Y4136D01*
X334544Y2001D01*
X328816D01*
G02X328596Y2735I0J400D01*
G03X322842I-2877J4363D01*
G02X322622Y2001I-220J-334D01*
G01X187845D01*
G02X187490Y2586I0J400D01*
G03X185006I-1242J650D01*
G02X184651Y2001I-355J-185D01*
G01X180321D01*
G02X179966Y2586I0J400D01*
G03X177482I-1242J650D01*
G02X177127Y2001I-355J-185D01*
G01X171487D01*
G02X171132Y2586I0J400D01*
G03X168648I-1242J650D01*
G02X168293Y2001I-355J-185D01*
G01X163963D01*
G02X163608Y2586I0J400D01*
G03X161124I-1242J650D01*
G02X160769Y2001I-355J-185D01*
G01X150829D01*
G02X150519Y2654I0J400D01*
G03X148351I-1084J889D01*
G02X148041Y2001I-310J-253D01*
G01X122265D01*
G02X121969Y2670I0J400D01*
G03X119897I-1036J945D01*
G02X119601Y2001I-296J-269D01*
G01X15999D01*
G37*
G36*
G01X262243Y39801D02*
G03Y42245I-687J1222D01*
G01Y43986D01*
X262252Y43996D01*
Y70182D01*
X262254Y70184D01*
Y74845D01*
X263387Y75978D01*
G02X264065Y75758I283J-283D01*
G03X265669Y77362I1385J219D01*
G02X265449Y78040I63J395D01*
G01X269342Y81933D01*
X319876D01*
G02X320148Y81240I0J-400D01*
G03X322056I954J-1028D01*
G02X322328Y81933I272J293D01*
G01X347066D01*
X347069Y81736D01*
G03X349873I1402J18D01*
G01X349876Y81933D01*
X365826D01*
G03X368558I1366J312D01*
G01X369764D01*
G03X372496I1366J312D01*
G01X373702D01*
G03X376434I1366J312D01*
G01X377632D01*
X377678Y81797D01*
G03X380035Y83197I1328J448D01*
G02X380040Y83474I147J136D01*
G01X380536Y83970D01*
Y154946D01*
X374127Y161355D01*
Y188924D01*
G03Y191132I-864J1104D01*
G01Y222235D01*
X386326Y234434D01*
Y280823D01*
X377773Y289376D01*
X374282D01*
G03X372092I-1095J-875D01*
G01X371349D01*
G02X370983Y289936I0J400D01*
G03X368413I-1285J561D01*
G02X368047Y289376I-366J-160D01*
G01X358652D01*
X358644Y289568D01*
G03X355842I-1401J-59D01*
G01X355834Y289376D01*
X352836D01*
G02X352479Y289955I1J400D01*
G03X349971I-1254J627D01*
G02X349614Y289376I-358J-179D01*
G01X321476D01*
X316199Y284099D01*
G02X315524Y284306I-282J283D01*
G03X313882Y282664I-1377J-265D01*
G02X314089Y281989I-76J-393D01*
G01X313216Y281116D01*
X287067D01*
G02X286782Y281797I0J400D01*
G03X284784I-999J983D01*
G02X284499Y281116I-285J-281D01*
G01X262002D01*
X261945Y281059D01*
X250998D01*
G02X250730Y281755I1J400D01*
G03X248846I-942J1039D01*
G02X248578Y281059I-269J-296D01*
G01X242704D01*
X242663Y281205D01*
G03X239963I-1350J-379D01*
G01X239922Y281059D01*
X182448D01*
X171860Y270471D01*
X171802Y270459D01*
G03X170725Y269382I294J-1371D01*
G01X170713Y269324D01*
X162888Y261499D01*
X83360D01*
X80329Y258468D01*
Y251948D01*
X81573Y250704D01*
G02X81536Y250106I-283J-283D01*
G03X83395Y248015I864J-1104D01*
G02X83964I284J-282D01*
G03X84590Y247649I997J986D01*
G01X84642Y247635D01*
X90350Y241927D01*
X90344Y241837D01*
G03X91834Y240347I1399J-91D01*
G01X91924Y240353D01*
X119285Y212992D01*
Y203164D01*
X115859Y199738D01*
X108799D01*
X108761Y199890D01*
G03X106041I-1360J-340D01*
G01X106003Y199738D01*
X99876D01*
G02X99481Y200197I1J400D01*
G03X96709I-1386J209D01*
G02X96314Y199738I-396J-59D01*
G01X69682D01*
G02X69309Y200281I0J400D01*
G03X66689I-1310J500D01*
G02X66316Y199738I-373J-143D01*
G01X56756D01*
G02X56356Y200134I0J400D01*
G03X53601Y200489I-1402J-12D01*
G02X52932Y200311I-386J105D01*
G01X50606Y202636D01*
Y233634D01*
G02X51204Y233982I400J0D01*
G03Y236420I692J1219D01*
G02X50606Y236768I-198J348D01*
G01Y238634D01*
G02X51204Y238982I400J0D01*
G03Y241420I692J1219D01*
G02X50606Y241768I-198J348D01*
G01Y243634D01*
G02X51204Y243982I400J0D01*
G03Y246420I692J1219D01*
G02X50606Y246768I-198J348D01*
G01Y251509D01*
X47788Y254328D01*
X31231D01*
G02X30973Y255033I1J400D01*
G03X29124Y260082I-1849J2186D01*
G01X25974D01*
G03X24125Y255033I0J-2863D01*
G02X23867Y254328I-259J-305D01*
G01X14381D01*
G02X14123Y255033I0J400D01*
G03X12274Y260082I-1850J2186D01*
G01X9910D01*
G03X8061Y255033I1J-2863D01*
G02X7803Y254328I-258J-305D01*
G01X6606D01*
X2875Y258059D01*
Y326531D01*
X11838Y335494D01*
X428622D01*
X437266Y326850D01*
Y323601D01*
X437982Y322885D01*
Y38543D01*
X434164Y34725D01*
X434023Y34857D01*
G03X432041Y32875I-955J-1027D01*
G01X432173Y32734D01*
X431723Y32284D01*
X381989D01*
X381963Y32454D01*
G03X379191I-1386J-211D01*
G01X379165Y32284D01*
X376652D01*
X376626Y32454D01*
G03X373854I-1386J-211D01*
G01X373828Y32284D01*
X265547D01*
X262243Y35588D01*
Y35886D01*
X262493D01*
X262536Y35863D01*
G03X262765Y38439I655J1240D01*
G02X262243Y38820I-122J381D01*
G01Y39801D01*
G37*
G36*
G01X342503Y83844D02*
X340089Y86258D01*
Y126999D01*
G03X340238Y129395I-983J1264D01*
G01X340089Y129545D01*
Y155931D01*
X340193Y155988D01*
G03Y158452I-669J1232D01*
G01X340089Y158509D01*
Y160902D01*
G02X340657Y161265I400J0D01*
G03Y163809I589J1272D01*
G02X340089Y164172I-168J363D01*
G01Y186150D01*
X335330Y190909D01*
X335377Y191030D01*
G03X333563Y192844I-1307J507D01*
G01X333442Y192797D01*
X322624Y203615D01*
G02X322871Y204296I283J283D01*
G03X321562Y206445I-127J1396D01*
G02X321026Y206313I-337J215D01*
G03X318960Y204809I-693J-1219D01*
G02X318569Y204328I-392J-81D01*
G01X317574D01*
X317552Y204333D01*
G03X316922I-315J-1366D01*
G01X316900Y204328D01*
X312952D01*
X311386Y202762D01*
X311038D01*
Y202973D01*
X311039Y202983D01*
G03X308736Y202056I-1395J141D01*
G02X308760Y201468I-259J-305D01*
G01X303792Y196501D01*
X278019D01*
X277253Y197267D01*
X277238Y197301D01*
G03X276520Y198019I-1283J-565D01*
G01X276486Y198034D01*
X275914Y198606D01*
G02X276143Y199285I283J283D01*
G03X275169Y201835I-188J1389D01*
G02X274545Y202166I-224J331D01*
G01Y215452D01*
X279621Y220528D01*
X337601D01*
X337614Y220342D01*
G03X339400Y219093I1399J98D01*
G01X339514Y219125D01*
X342125Y216514D01*
X342136Y216497D01*
G03X342599Y216034I1340J877D01*
G01X342616Y216023D01*
X350001Y208638D01*
Y208583D01*
X358138Y200446D01*
X358142D01*
X368082Y190506D01*
X368052Y190394D01*
G03X369771Y188675I1353J-366D01*
G01X369883Y188705D01*
X372783Y185805D01*
Y177603D01*
G02X372343Y177205I-400J0D01*
G03Y174415I-142J-1395D01*
G02X372783Y174017I40J-398D01*
G01Y160541D01*
X379166Y154158D01*
Y129846D01*
G02X378971Y129647I-200J1D01*
G03Y126843I35J-1402D01*
G02X379166Y126644I-5J-200D01*
G01Y106846D01*
G02X378971Y106647I-200J1D01*
G03Y103843I35J-1402D01*
G02X379166Y103644I-5J-200D01*
G01Y86266D01*
X376744Y83844D01*
X342503D01*
G37*
%LPC*%
G75*
G36*
G01X278850Y9906D02*
G02X273124I-2863J0D01*
G01Y12268D01*
G02X278850I2863J0D01*
G01Y9906D01*
G37*
G36*
G01X312866D02*
G02X307140I-2863J0D01*
G01Y12268D01*
G02X312866I2863J0D01*
G01Y9906D01*
G37*
G36*
G01X232102D02*
G02X226374I-2864J0D01*
G01Y12268D01*
G02X232102I2864J0D01*
G01Y9906D01*
G37*
G36*
G01X266118D02*
G02X260390I-2864J0D01*
G01Y12268D01*
G02X266118I2864J0D01*
G01Y9906D01*
G37*
G36*
G01X9910Y220340D02*
G02Y226066I0J2863D01*
G01X12274D01*
G02Y220340I0J-2863D01*
G01X9910D01*
G37*
G36*
G01X25974D02*
G02Y226066I0J2863D01*
G01X29124D01*
G02Y220340I0J-2863D01*
G01X25974D01*
G37*
G36*
G01X35269Y226891D02*
G02X35231Y228394I-1202J722D01*
G03X35906Y228411I332J223D01*
G02X35944Y226908I1202J-722D01*
G03X35269Y226891I-332J-223D01*
G37*
G36*
G01X105296Y203934D02*
G02X103615Y204201I-1015J-967D01*
G03X103714Y204829I-190J352D01*
G02X105395Y204562I1015J967D01*
G03X105296Y203934I190J-352D01*
G37*
G36*
G01X79290Y228996D02*
G02X78418Y230307I-1402J13D01*
G03X78969Y230674I151J370D01*
G02X79841Y229363I1402J-13D01*
G03X79290Y228996I-151J-370D01*
G37*
G36*
G01X295002Y309107D02*
G02X289276I-2863J0D01*
G01Y312257D01*
G02X289991Y314150I2863J0D01*
G03X289822Y314792I-300J264D01*
G02X291603Y315650I459J1325D01*
G03X291999Y315117I377J-133D01*
G02X295002Y312257I140J-2860D01*
G01Y309107D01*
G37*
G36*
G01X391659Y317479D02*
G02X391115Y318902I-1371J291D01*
G03X391742Y319142I236J323D01*
G02X392286Y317719I1371J-291D01*
G03X391659Y317479I-236J-323D01*
G37*
G36*
G01X110227Y203841D02*
G03X110152Y204412I-313J249D01*
G02X112081Y204665I833J1127D01*
G03X112156Y204094I313J-249D01*
G02X110227Y203841I-833J-1127D01*
G37*
G36*
G01X79741Y225470D02*
G03X79190Y225261I-180J-357D01*
G02X78518Y227034I-1302J520D01*
G03X79069Y227243I180J357D01*
G02X79741Y225470I1302J-520D01*
G37*
G36*
G01X312100Y313684D02*
G02Y310480I0J-1602D01*
G01X308163D01*
G02Y313684I0J1602D01*
G01X312100D01*
G37*
G36*
G01X295002Y325958D02*
G02X289276I-2863J0D01*
G01Y328320D01*
G02X295002I2863J0D01*
G01Y325958D01*
G37*
G36*
G01X329018D02*
G02X323292I-2863J0D01*
G01Y328320D01*
G02X329018I2863J0D01*
G01Y325958D01*
G37*
G54D39*
X23400Y91400D03*
Y101400D03*
Y111400D03*
Y121400D03*
X13400Y81400D03*
Y91400D03*
Y101400D03*
Y111400D03*
Y121400D03*
X433114Y179708D03*
X433107Y139394D03*
X266301Y299950D03*
X239529D03*
X266301Y309793D03*
X239529D03*
X258033D03*
X247797D03*
G54D42*
X422113Y240200D03*
Y280500D03*
X394554Y240200D03*
Y280500D03*
G54D38*
X27632Y25482D03*
X21014Y56578D03*
X29366Y40001D03*
X24226Y32934D03*
X7907Y34091D03*
X19086Y46940D03*
X8388Y49734D03*
X51311Y54601D03*
X37751Y17025D03*
X30227D03*
X33989Y11688D03*
Y22362D03*
Y51058D03*
X30620Y55214D03*
X28596Y130713D03*
X6045Y125316D03*
X30138Y137073D03*
X10671Y136110D03*
X26476Y69420D03*
X11249Y69613D03*
X16765Y143631D03*
X46718Y93753D03*
X38682D03*
X38481Y101413D03*
X33989Y59370D03*
X28981Y184104D03*
X6623Y193356D03*
X32258Y215136D03*
X6045Y212438D03*
X4695Y199138D03*
X27825Y195283D03*
X25126Y174274D03*
X7779Y171383D03*
X16765Y147424D03*
X33859Y148372D03*
Y207428D03*
X11428Y147424D03*
X16765Y151217D03*
Y204733D03*
Y212319D03*
X11428Y208526D03*
X22102D03*
X41046Y227689D03*
X45498Y217681D03*
X44368Y242180D03*
X39512Y248360D03*
X67530Y9063D03*
X87961Y34312D03*
X66567Y36047D03*
X122530Y22371D03*
X138246Y17553D03*
X138384Y5532D03*
X121410Y12224D03*
X91329Y17025D03*
X95091Y22362D03*
X139029Y27634D03*
X100602Y4355D03*
X103282Y8117D03*
Y24475D03*
X105686Y4355D03*
Y20713D03*
X106178Y28838D03*
Y32776D03*
Y36714D03*
X105962Y43137D03*
X123106Y31746D03*
X111810Y32776D03*
X139898Y11618D03*
X182486Y5916D03*
X166128D03*
X148472Y17170D03*
Y11538D03*
X144534D03*
Y17170D03*
X256107Y8148D03*
X251107D03*
X246107D03*
X241107D03*
X236107D03*
Y13148D03*
X241107D03*
X246107D03*
X251107D03*
X256107D03*
Y18148D03*
X251107D03*
X246107D03*
X241107D03*
X236107D03*
X403455Y324363D03*
X408792Y319813D03*
Y328913D03*
X422507Y272058D03*
X422113Y248642D03*
X402099Y317770D03*
X417957Y266130D03*
X417563Y254570D03*
Y294870D03*
X422113Y288942D03*
X412541Y280623D03*
X433550Y260577D03*
X432996Y302125D03*
X432514Y238150D03*
X435020Y289997D03*
X415093Y185610D03*
Y181752D03*
X415091Y145646D03*
X400766Y159667D03*
X400727Y199549D03*
X422507Y231758D03*
X417957Y225830D03*
X407530Y226654D03*
X431430Y209885D03*
X413119Y198128D03*
X415239Y164977D03*
X433165Y158231D03*
X410123Y215691D03*
X427625Y174621D03*
X415091Y141788D03*
X400088Y116931D03*
Y123231D03*
X400099Y100213D03*
Y93913D03*
X400090Y70900D03*
Y77200D03*
X414832Y125841D03*
X418770D03*
X414832Y79841D03*
X418770D03*
X414832Y102841D03*
X418770D03*
X412926Y53186D03*
X430659Y46247D03*
X344684Y322886D03*
X369662Y326960D03*
X381626Y328913D03*
Y319813D03*
X386963Y324363D03*
X376289D03*
X355145Y321454D03*
X347621D03*
X396193Y320306D03*
X354684Y327239D03*
X359684D03*
X313133Y331939D03*
X321745Y304164D03*
X317296Y299888D03*
X314147Y288041D03*
X369698Y296129D03*
X354684Y300096D03*
X391602Y302179D03*
X387664D03*
X383726D03*
X395540D03*
X394077Y289509D03*
X397305Y291913D03*
X351383Y316117D03*
X397305Y273343D03*
X398162Y317770D03*
X344684Y295743D03*
X349684D03*
X369366Y310242D03*
X395269Y171518D03*
X388611D03*
Y211244D03*
X395269D03*
X395314Y184954D03*
X383491Y149588D03*
X381160Y189632D03*
X395823Y144940D03*
X393788Y116931D03*
X396938Y120081D03*
X393788Y123231D03*
X393799Y100213D03*
X396949Y97063D03*
X393799Y93913D03*
X393790Y70900D03*
X396940Y74050D03*
X393790Y77200D03*
X327873Y63649D03*
X332873D03*
X337873D03*
X342873D03*
X347873D03*
X352873D03*
X386006Y112613D03*
Y89613D03*
Y66613D03*
X375778Y67675D03*
X357873Y59257D03*
X370868Y65680D03*
X366931D03*
X362994D03*
X359057D03*
Y69617D03*
X362994D03*
X366931D03*
X370868D03*
Y73554D03*
X366931D03*
X362994D03*
X359057D03*
X334594Y71539D03*
X395945Y46413D03*
Y50351D03*
Y54289D03*
X380577Y37187D03*
X395945Y58227D03*
X294043Y321454D03*
X243166Y322109D03*
X266681Y332903D03*
X238085Y283230D03*
X267745Y287168D03*
X296549Y304164D03*
X296625Y298354D03*
X309147Y288041D03*
X304147D03*
X311116Y295590D03*
X309147Y284041D03*
X304147D03*
X287766Y286718D03*
X276658Y309856D03*
X309022Y63264D03*
X304022D03*
X299022D03*
X294022D03*
X281140Y69835D03*
X268923Y51145D03*
X295917Y47960D03*
X149106Y323378D03*
X170694Y328662D03*
X195751Y323073D03*
X210978Y333288D03*
X145055Y314917D03*
X153961D03*
X161585D03*
X169423D03*
X180103D03*
X185549Y305171D03*
Y295551D03*
Y286859D03*
X225388Y303689D03*
X205728Y313711D03*
X63527Y329353D03*
X102655Y326655D03*
X130024Y332325D03*
X81242Y324149D03*
X61896Y235201D03*
X56896D03*
Y240201D03*
X61896D03*
Y245201D03*
X56896D03*
X71546Y252213D03*
X77888Y255441D03*
X69142D03*
X52527Y259888D03*
X57973Y269779D03*
Y266551D03*
X56591Y278290D03*
X55457Y298651D03*
X61799Y296247D03*
X55457Y293019D03*
X83300Y304728D03*
X80371Y234599D03*
X70780Y304469D03*
X77453Y243738D03*
Y237484D03*
X71555D03*
X107584Y281253D03*
X125981Y299826D03*
Y305630D03*
X129561Y309210D03*
X120013Y271959D03*
Y276533D03*
Y283317D03*
X124421Y287725D03*
X135268Y314917D03*
X78654Y285164D03*
X64106Y316825D03*
X102462Y312970D03*
X120661Y314861D03*
X53374Y217681D03*
X57312D03*
X80371Y218847D03*
Y222785D03*
X99442Y226723D03*
X88407Y218847D03*
X60281Y207428D03*
X98725Y204542D03*
X116879D03*
X72810Y231183D03*
X35965Y329353D03*
X25078Y305686D03*
X21316Y310236D03*
X41831D03*
X45593Y305686D03*
X21316Y283776D03*
X25078Y279226D03*
X41967Y283776D03*
X45729Y279226D03*
X6166Y298665D03*
X6200Y272271D03*
X51519Y298651D03*
X51631Y272183D03*
X31808Y318715D03*
X295807Y203063D03*
X292754Y207035D03*
X285737Y203125D03*
X292508Y199737D03*
X285737Y207062D03*
X309644Y209466D03*
X306416Y207062D03*
X277237Y215235D03*
X371809Y133446D03*
X357873Y139379D03*
X352873D03*
X357873Y95257D03*
X352873D03*
X347873D03*
X342873D03*
X352279Y121050D03*
X356216D03*
X360153D03*
X364090D03*
Y117113D03*
X360153D03*
X356216D03*
X352279D03*
Y113176D03*
X356216D03*
X360153D03*
X364090D03*
X347873Y103879D03*
X352873D03*
X357873D03*
X367545Y111077D03*
X375778Y113675D03*
Y90675D03*
X357873Y98485D03*
X352873D03*
X347873D03*
X342873D03*
X367192Y105245D03*
X371130D03*
X375068D03*
Y128245D03*
X371130D03*
X367192D03*
X347873Y145011D03*
X357873D03*
X345375Y202635D03*
X360277Y165859D03*
Y159071D03*
X313727Y216021D03*
X359835Y175774D03*
X330369Y199377D03*
X366177Y179748D03*
X356776Y169812D03*
X330735Y203351D03*
X322744Y209630D03*
X362239Y181406D03*
X360277Y152319D03*
X356368Y162537D03*
X373263Y147664D03*
X369405D03*
G54D47*
X87512Y287321D03*
X69796D03*
X354785Y181623D03*
G54D36*
X40377Y168057D03*
Y187743D03*
G54D41*
X25462Y228794D03*
X320564Y312769D03*
X297730D03*
G54D45*
X145355Y287341D03*
X154371D03*
X163387D03*
X172403D03*
X140847Y295136D03*
X149863D03*
X158879D03*
X167895D03*
X145355Y302931D03*
X154371D03*
X163387D03*
X172403D03*
X136340Y287341D03*
X131832Y295136D03*
X136340Y302931D03*
G54D37*
X15426Y158487D03*
Y189983D03*
G54D34*
X45052Y15686D03*
X76548D03*
X332840Y322793D03*
X301344D03*
G54D43*
X355619Y44106D03*
X325719D03*
G54D44*
X252915Y326628D03*
X279884Y322698D03*
X225946D03*
G54D40*
X23400Y81400D03*
X433114Y187582D03*
X433107Y147268D03*
G54D33*
X26149Y239226D03*
G54D46*
X203588Y295136D03*
X105162D03*
G54D35*
X15000Y15000D03*
X425000Y323400D03*
X15000D03*
G54D48*
X326155Y310682D03*
%LPD*%
G75*
G54D10*
X15000Y15000D03*
Y323400D03*
X425000Y15000D03*
Y323400D03*
G54D11*
X13400Y101400D03*
Y91400D03*
Y81400D03*
Y121400D03*
Y111400D03*
X23400Y101400D03*
Y91400D03*
Y121400D03*
Y111400D03*
X128473Y185065D03*
X158473D03*
Y155065D03*
X128473D03*
Y238923D03*
X158473D03*
Y208923D03*
X128473D03*
X239529Y299950D03*
Y309793D03*
X258033D03*
X247797D03*
X266301Y299950D03*
Y309793D03*
X433107Y139394D03*
X433114Y179708D03*
G54D20*
X87512Y287321D03*
X69796D03*
X165449Y63390D03*
X183165D03*
X337069Y181623D03*
X354785D03*
G54D30*
G01X219927Y201246D02*
X174555D01*
X174540Y201231D01*
X172740D01*
G01X171865Y193738D02*
X170310Y195293D01*
X168282D01*
X165845Y197730D01*
X164045D01*
G01X182508Y194407D02*
X174684D01*
X174015Y193738D01*
X171865D01*
G01X164045Y201668D02*
X166730Y204353D01*
X171240D01*
X172740Y202853D01*
Y201231D01*
G01X183703Y213487D02*
X177676D01*
X162274Y228889D01*
G01X181084Y221819D02*
X176910D01*
X169143Y229586D01*
Y236970D01*
X161285Y244828D01*
G01X182508Y194407D02*
X184786Y196685D01*
X228040D01*
X233035Y201680D01*
G01X192898Y221819D02*
X188960D01*
G01D02*
X185022D01*
G01D02*
X181084D01*
G01X183703Y213487D02*
X189224D01*
X189488Y213223D01*
X191288D01*
G01X213041Y229013D02*
X209286Y225258D01*
X196337D01*
X192898Y221819D01*
G01X213041Y229013D02*
X215939Y226115D01*
X220169D01*
X224465Y221819D01*
X226363D01*
G01X191288Y213223D02*
X194346Y210165D01*
X226005D01*
X228858Y213018D01*
G54D21*
X263254Y11087D03*
X229238D03*
X310003D03*
X275987D03*
X292139Y327139D03*
X326155D03*
G54D12*
X11249Y69613D03*
X7907Y34091D03*
X19086Y46940D03*
X8388Y49734D03*
X7779Y171383D03*
X6045Y125316D03*
X10671Y136110D03*
X16765Y147424D03*
X11428D03*
X16765Y151217D03*
Y143631D03*
X6200Y264235D03*
X6623Y193356D03*
X6045Y212438D03*
X4695Y199138D03*
X16765Y204733D03*
Y212319D03*
X11428Y208526D03*
X8125Y230590D03*
Y235590D03*
Y240590D03*
Y245590D03*
Y250590D03*
X13125D03*
Y245590D03*
Y240590D03*
Y235590D03*
Y230590D03*
X18125D03*
Y235590D03*
Y240590D03*
Y245590D03*
Y250590D03*
X6166Y290629D03*
X6200Y272271D03*
X6166Y298665D03*
X67530Y9063D03*
X27632Y25482D03*
X95091Y22362D03*
X91329Y17025D03*
X33989Y22362D03*
Y11688D03*
X30227Y17025D03*
X37751D03*
X100602Y4355D03*
X87961Y34312D03*
X66567Y36047D03*
X55003Y81326D03*
X26476Y69420D03*
X21014Y56578D03*
X29366Y40001D03*
X24226Y32934D03*
X87278Y81327D03*
X79754D03*
X83516Y84007D03*
Y78647D03*
X99874D03*
Y84007D03*
X96112Y81327D03*
Y96363D03*
X99874Y99043D03*
Y93683D03*
X83516D03*
Y99043D03*
X79754Y96363D03*
X72088Y106121D03*
X46718Y93753D03*
X58461Y106580D03*
X33989Y51058D03*
X91784D03*
X88415Y55214D03*
X91784Y59370D03*
X95153Y55214D03*
X30620D03*
X33989Y59370D03*
X51311Y54601D03*
X76903Y63220D03*
X80841D03*
X38481Y101413D03*
X87278Y96363D03*
X77151Y104459D03*
X64150Y101461D03*
X60506Y97561D03*
X68860Y106121D03*
X66447Y87591D03*
X85960Y63043D03*
X89860Y66687D03*
X38682Y93753D03*
X51555Y97564D03*
X47105Y99444D03*
X48409Y101487D03*
X74440Y89986D03*
X47105Y103382D03*
X68634Y54601D03*
X64304D03*
X58046Y68788D03*
X60611Y54470D03*
X28981Y184104D03*
X25126Y174274D03*
X28596Y130713D03*
X30138Y137073D03*
X77299Y138161D03*
X68851D03*
X63584D03*
X65759Y159258D03*
X62755Y149371D03*
X62763Y140782D03*
X82136Y149830D03*
Y144331D03*
X53203Y159590D03*
X65759Y165371D03*
Y169309D03*
Y177185D03*
X93248Y171642D03*
X88248D03*
X83248D03*
Y176642D03*
X88248D03*
X93248D03*
Y181642D03*
X88248D03*
X83248D03*
X75962Y142679D03*
X67300Y149371D03*
X94880Y154176D03*
X90942D03*
X83066D03*
X96619Y117572D03*
X67910Y135641D03*
X58461Y110518D03*
X65759Y181123D03*
X33859Y148372D03*
X55523Y140770D03*
X94761Y148819D03*
X97012Y140717D03*
X65691Y154684D03*
X77570Y158763D03*
X71391Y177185D03*
X67910Y115168D03*
X56057Y138084D03*
X89218Y163833D03*
X93076Y163786D03*
X97885Y153474D03*
X97189Y150999D03*
X83066Y159808D03*
X99836Y135061D03*
X52829Y126270D03*
X51029Y140240D03*
X52280Y169744D03*
X56057Y114456D03*
Y118394D03*
Y122332D03*
Y130208D03*
Y134146D03*
X87004Y154176D03*
X98077Y185492D03*
X94880Y159808D03*
X90942D03*
X96619Y133237D03*
X93391Y117572D03*
X82038Y120286D03*
Y122845D03*
Y125405D03*
X99023Y127964D03*
X82038Y130523D03*
Y133082D03*
X65759Y173247D03*
X45498Y217681D03*
X49436D03*
X94867Y200406D03*
X98725Y212416D03*
Y209266D03*
X51631Y264147D03*
X32258Y215136D03*
X27825Y195283D03*
X98725Y204542D03*
X84959Y249002D03*
X94940D03*
X60281Y207428D03*
X98095Y200406D03*
X91743Y241746D03*
X80371Y234599D03*
Y230661D03*
Y222785D03*
X72810Y231183D03*
X61896Y235201D03*
X56896D03*
X51896D03*
Y240201D03*
X56896D03*
X61896D03*
Y245201D03*
X56896D03*
X51896D03*
X34067Y227613D03*
X37108Y227689D03*
X57312Y217681D03*
X53374D03*
X83314Y196666D03*
X67999Y196843D03*
X98095Y195330D03*
X67999Y200781D03*
X41046Y227689D03*
X34067Y252809D03*
X39512Y248360D03*
X44368Y242180D03*
X69142Y255441D03*
X77888Y225781D03*
X57973Y266551D03*
X80371Y218847D03*
X99442Y226723D03*
X22102Y208526D03*
X33859Y207428D03*
X54954Y200122D03*
X71546Y252213D03*
X84959Y256640D03*
X94940D03*
X70403Y190501D03*
X77453Y243738D03*
X96354Y189477D03*
X93777Y189591D03*
X87872D03*
X77453Y237484D03*
X26149Y237258D03*
Y241195D03*
X77888Y255441D03*
X91187Y189469D03*
X77888Y229009D03*
X80371Y226723D03*
X88407Y218847D03*
X85281Y189469D03*
X92381Y256640D03*
X82400D03*
X97499Y249002D03*
X87518D03*
X71555Y237484D03*
X52527Y259888D03*
X65006Y191680D03*
X92381Y249002D03*
X82400D03*
X51519Y290615D03*
X36363Y291732D03*
X31808Y318715D03*
X81242Y324149D03*
X64106Y316825D03*
X63527Y329353D03*
X35965D03*
X55457Y298651D03*
X51631Y272183D03*
X51519Y298651D03*
X45729Y279226D03*
X41967Y283776D03*
X25078Y279226D03*
X21316Y283776D03*
X45593Y305686D03*
X41831Y310236D03*
X21316D03*
X25078Y305686D03*
X56591Y278290D03*
X70780Y304469D03*
X55457Y293019D03*
X83300Y304728D03*
X57973Y269779D03*
X61799Y296247D03*
X78654Y285164D03*
X120933Y3615D03*
X139898Y11618D03*
X122530Y22371D03*
X138384Y5532D03*
X179825Y20200D03*
X161151D03*
X148472Y11538D03*
X103282Y8117D03*
Y24475D03*
X105686Y4355D03*
Y20713D03*
X144534Y11538D03*
X149435Y3543D03*
X121410Y12224D03*
X138246Y17553D03*
X144534Y17170D03*
X148472D03*
X169890Y3236D03*
X162366D03*
X166128Y5916D03*
X178724Y3236D03*
X168789Y20200D03*
X179825Y22759D03*
X161151Y17641D03*
X179825D03*
X176850Y26779D03*
X168789Y22759D03*
X137469Y37915D03*
X180821Y28159D03*
X179825Y42000D03*
X142468Y107163D03*
X103636Y81327D03*
Y96363D03*
X160411Y55174D03*
X125249Y69968D03*
X139029Y27634D03*
X106178Y28838D03*
Y32776D03*
X123106Y31746D03*
X105628Y63418D03*
X106178Y36714D03*
X144145Y87971D03*
X129187Y69968D03*
X160411Y59112D03*
X182181Y56916D03*
X156570Y49462D03*
X160064Y44409D03*
X161151Y31100D03*
X154429Y100143D03*
X128342Y61722D03*
X144145Y82971D03*
X154779Y65454D03*
X105962Y59495D03*
X119218Y63418D03*
X125249Y64336D03*
X128007Y77971D03*
Y72971D03*
X129187Y64336D03*
X135529D03*
X154779Y55174D03*
X168789Y31100D03*
X169583Y47907D03*
X111810Y32776D03*
X105962Y43137D03*
X158009Y29595D03*
X161151Y33659D03*
X179825D03*
X168789Y28541D03*
X181443Y38801D03*
X168719D03*
X158287Y100143D03*
X109102Y102487D03*
Y87451D03*
X177282Y75752D03*
X161151Y28541D03*
X144343Y31746D03*
X147992Y33714D03*
X144343Y35683D03*
X147992Y37651D03*
X179825Y44559D03*
X130498Y47063D03*
X167101Y44559D03*
X133780Y47063D03*
X135529Y67564D03*
X147888Y62593D03*
X144934Y65090D03*
X128007Y82971D03*
X177500Y94460D03*
Y99140D03*
X172500Y94460D03*
Y99140D03*
X161515Y97739D03*
X168789Y33659D03*
X129096Y139027D03*
X139054Y148512D03*
X164045Y186796D03*
X172477Y158502D03*
X164045Y161058D03*
Y164996D03*
X168283Y130192D03*
X160759D03*
X164521Y132872D03*
X148163D03*
X144401Y130192D03*
X151925D03*
X164521Y108689D03*
X148163D03*
X168283Y111369D03*
X151925D03*
X142468Y111101D03*
X154354Y114124D03*
X164045Y168934D03*
X172194Y162911D03*
X104287Y180891D03*
X108631Y180573D03*
X116879Y165172D03*
X116988Y167880D03*
X116879Y157298D03*
Y149424D03*
X119140Y142082D03*
X180347Y111351D03*
X172119Y115877D03*
X140064Y121381D03*
X142468Y115039D03*
X169677Y164996D03*
Y161058D03*
X172182Y111968D03*
X169677Y168934D03*
Y186796D03*
X110243Y147273D03*
X119367Y149262D03*
X111590Y138400D03*
X116879Y136825D03*
Y139975D03*
X104643Y183896D03*
X161440Y114077D03*
X105604Y169144D03*
X105538Y155723D03*
X110029Y169242D03*
X107129Y162414D03*
X109862Y160862D03*
X107006Y158471D03*
X104463Y152573D03*
X119528Y145429D03*
X119276Y172736D03*
X158212Y114124D03*
X172225Y188502D03*
X170288Y176151D03*
X167802Y135352D03*
X171845Y137321D03*
X172439Y133384D03*
X110008Y176967D03*
X123150Y132131D03*
X128150D03*
X108825Y183016D03*
X104281Y213991D03*
X111323D03*
X104281Y210841D03*
X111323D03*
X116879Y212416D03*
Y209266D03*
X104619Y208269D03*
X110985D03*
X162274Y228889D03*
X110985Y205539D03*
X117759Y195612D03*
X135302Y195518D03*
X116879Y204542D03*
X111323Y202967D03*
X104281D03*
X117360Y191335D03*
X174788Y249002D03*
X167605Y255197D03*
X104921Y249002D03*
X114902D03*
X124883D03*
X134864D03*
X144845D03*
X154826D03*
X164045Y190734D03*
Y197730D03*
X181084Y221819D03*
X172096Y269088D03*
X116504Y244828D03*
X120442D03*
X108101Y241746D03*
X161285Y244828D03*
X171865Y193738D03*
X164045Y201668D03*
X172740Y201231D03*
X120490Y190971D03*
X104729Y205796D03*
X104162Y188794D03*
X149293Y193053D03*
X128216Y195518D03*
X111323Y188794D03*
X117759Y199550D03*
X121155Y198656D03*
X139160Y195518D03*
X144845Y256640D03*
X154826D03*
X164807D03*
X174788D03*
X104921D03*
X114902D03*
X124883D03*
X134864D03*
X181084Y216187D03*
X169677Y190734D03*
Y197730D03*
Y201668D03*
X142388Y195518D03*
X132074D03*
X123202Y227116D03*
X182210Y256640D03*
X172229D03*
X160060Y259615D03*
X152267Y256640D03*
X142286D03*
X132305D03*
X122324D03*
X112343D03*
X102362D03*
X182210Y249002D03*
X172229D03*
X162248Y254952D03*
X152267Y249002D03*
X117461D03*
X107480D03*
X142286D03*
X132305D03*
X122324D03*
X112343D03*
X102362D03*
X162011Y195457D03*
X166539Y229727D03*
X107401Y195612D03*
X124988Y195518D03*
X107401Y199550D03*
X157385Y249002D03*
X165430Y246216D03*
X176034Y269088D03*
X137423Y249002D03*
X179972Y269088D03*
X127442Y249002D03*
X177347D03*
X169423Y249274D03*
X120661Y314861D03*
X170694Y328662D03*
X130024Y332325D03*
X149106Y323378D03*
X102462Y312970D03*
X102655Y326655D03*
X180103Y314917D03*
X169423D03*
X161585D03*
X153961D03*
X145055D03*
X135268D03*
X124421Y287725D03*
X120013Y283317D03*
Y276533D03*
Y271959D03*
X129561Y309210D03*
X125981Y305630D03*
Y299826D03*
X107584Y281253D03*
X221464Y20739D03*
X256107Y8148D03*
X251107D03*
X246107D03*
X241107D03*
X236107D03*
Y13148D03*
X241107D03*
X246107D03*
X251107D03*
X256107D03*
Y18148D03*
X251107D03*
X246107D03*
X241107D03*
X236107D03*
X182486Y5916D03*
X186248Y3236D03*
X187463Y20200D03*
X245975Y26059D03*
X242693D03*
X229773Y48762D03*
X233648Y30103D03*
X258844D03*
X198702Y51305D03*
X221996Y65428D03*
X255238Y54659D03*
X250238D03*
X245238D03*
Y59659D03*
X250238D03*
X255238D03*
Y64659D03*
X250238D03*
X245238D03*
X233386Y74443D03*
X261556Y41023D03*
X255214D03*
X263191Y37103D03*
X235693D03*
X253747Y76413D03*
X221996Y69286D03*
X200961Y34814D03*
X248277Y46873D03*
X197384Y61436D03*
X192500Y99140D03*
X197500D03*
X212500D03*
X207500D03*
X202500D03*
X187500D03*
X217500D03*
X239018Y74443D03*
X224400Y62200D03*
X192500Y94460D03*
X197500D03*
X202500D03*
X207500D03*
X212500D03*
X187500D03*
X217500D03*
X187463Y42000D03*
X192366Y30411D03*
X205061Y75564D03*
X199943D03*
X207620Y72184D03*
X202502Y72145D03*
X210961Y34814D03*
X187463Y28541D03*
X215961Y34814D03*
X249199Y34062D03*
X245262D03*
X262222Y78381D03*
X233386D03*
X221996Y72514D03*
X195767Y69286D03*
X202560Y51305D03*
X195474D03*
X198614Y26948D03*
X207620Y61436D03*
X205061Y64816D03*
X202502Y61436D03*
X199943Y64816D03*
X262500Y99140D03*
Y94460D03*
X257500Y99140D03*
Y94460D03*
X247493Y80350D03*
X252500Y99140D03*
Y94460D03*
X247500Y99140D03*
Y94460D03*
X253747Y80350D03*
X242500Y99140D03*
Y94460D03*
X232500D03*
Y99140D03*
X227500Y94460D03*
Y99140D03*
X222500Y94460D03*
Y99140D03*
X182500Y94460D03*
Y99140D03*
X229165Y56576D03*
X251811Y74444D03*
X220416Y61436D03*
X215298Y64816D03*
X212739Y61436D03*
X210180Y64816D03*
X220416Y75564D03*
X215298D03*
X213279Y71618D03*
X210180Y79917D03*
X188135Y33915D03*
X187795Y44532D03*
X251352Y115423D03*
X257492Y160943D03*
X224921Y118710D03*
X189864Y110819D03*
X257492Y164880D03*
X229137Y115251D03*
X216238Y116013D03*
X239813Y114761D03*
X261860Y115636D03*
Y121771D03*
X222795Y115541D03*
X254449D03*
X226733D03*
X200730Y159455D03*
X205784Y157645D03*
X199928Y155430D03*
X253515Y186533D03*
X257492Y188502D03*
X182508Y184565D03*
X253515Y158974D03*
X253828Y155052D03*
X187036Y183570D03*
X247457Y170931D03*
X189419Y184259D03*
X189702Y177716D03*
X182508Y172754D03*
X184903Y170785D03*
X192163Y110892D03*
X203189Y153630D03*
X194921Y110852D03*
X205340Y150448D03*
X198070Y110687D03*
X201271Y110694D03*
X204377Y110535D03*
X251212Y168817D03*
X211676Y116035D03*
X185766Y131924D03*
X214371Y117878D03*
X218009Y118135D03*
X258191Y121556D03*
X220781Y118167D03*
X231540Y114761D03*
X230827Y118710D03*
X232932Y116862D03*
X234764Y118710D03*
X196177Y136152D03*
X234485Y114746D03*
X201349Y135321D03*
X237502Y114761D03*
X195375Y130994D03*
X240669Y118710D03*
X191232Y132544D03*
X242638Y115084D03*
X204106Y131998D03*
X244606Y118710D03*
X207245Y134211D03*
X246575Y115084D03*
X248543Y118710D03*
X252647Y118528D03*
X209465Y128639D03*
X257492Y153069D03*
X253523Y151100D03*
X253515Y170785D03*
X257492Y172754D03*
X218857Y115541D03*
X206974Y110421D03*
X213975Y115599D03*
X253515Y174722D03*
X257492Y176691D03*
X253831Y178659D03*
X253515Y182596D03*
X257492Y180628D03*
Y184565D03*
X182662Y166848D03*
X183521Y164541D03*
X185654Y161207D03*
X189797Y163180D03*
X193696Y162334D03*
X192923Y157878D03*
X199331Y213018D03*
X197362Y216995D03*
X195394Y213018D03*
X233035Y201680D03*
X244537Y236055D03*
Y229013D03*
X255561D03*
X255325Y241713D03*
X238795Y234751D03*
X257492Y194407D03*
X219340Y229013D03*
X213075Y219415D03*
X213041Y229013D03*
X220915Y241611D03*
X217765D03*
X219340Y236055D03*
X213041D03*
X224693Y249002D03*
X214712D03*
X204731D03*
X194750D03*
X184769D03*
X232795Y213018D03*
X185022Y221819D03*
X188960D03*
X234239D03*
X226363D03*
X183910Y269088D03*
X188096Y269226D03*
X219927Y201246D03*
X230301Y221819D03*
X192898D03*
X182508Y194407D03*
X183703Y213487D03*
X191288Y213223D03*
X228858Y213018D03*
X257492Y200313D03*
X230633Y229271D03*
X234674Y256640D03*
X184769D03*
X194750D03*
X204731D03*
X214712D03*
X224693D03*
X230301Y216187D03*
X185022D03*
X188960D03*
X234239D03*
X226363D03*
X216125D03*
X221244Y217250D03*
X192898Y216187D03*
X248543Y200379D03*
X246575Y203356D03*
X244606Y200379D03*
X242638Y203356D03*
X191324Y269226D03*
X251847Y262576D03*
X220160Y269226D03*
X225984Y266033D03*
X209891Y236055D03*
X211466Y241611D03*
X216191Y236055D03*
X214616Y241611D03*
X209891Y229013D03*
X216191D03*
X211466Y223457D03*
X214616D03*
X217224Y223244D03*
X240625Y259615D03*
X217271Y249002D03*
X207290D03*
X232115Y256640D03*
X222134D03*
X212153D03*
X202172D03*
X192191D03*
Y249002D03*
X202172D03*
X212153D03*
X222134D03*
X253024Y221819D03*
X232115Y249002D03*
X243947Y266869D03*
X255355Y246869D03*
X258710Y246933D03*
X261014Y245284D03*
X225572Y201142D03*
X219016Y213018D03*
X203268D03*
X213110Y215815D03*
X201299Y216995D03*
X208673Y216985D03*
X205236Y216995D03*
X207205Y213018D03*
X211142D03*
X197309Y249002D03*
X187328D03*
X256962Y221819D03*
X249086D03*
X243804Y231207D03*
X205728Y313711D03*
X225388Y303689D03*
X243166Y322109D03*
X210978Y333288D03*
X195751Y323073D03*
X185549Y276614D03*
Y286859D03*
Y295551D03*
Y305171D03*
X217756Y275568D03*
X199799Y271194D03*
X238085Y283230D03*
X249788Y282794D03*
X243947Y273961D03*
X261788Y274693D03*
X231616Y277099D03*
X253694Y274560D03*
X214528Y275568D03*
X241313Y280826D03*
X256042Y278857D03*
X193849Y273163D03*
X206053D03*
X265494Y38619D03*
X269432D03*
X321102Y80212D03*
X334594Y71539D03*
X281140Y69835D03*
X295917Y47960D03*
X280397Y30103D03*
X305593D03*
X342873Y98485D03*
X337873Y100889D03*
X332873D03*
X327873D03*
X309022Y100496D03*
X304022D03*
X299022D03*
X268923Y51145D03*
X265450Y75977D03*
X294022Y100496D03*
Y94864D03*
X299022D03*
X309022D03*
X327873Y63649D03*
X332873D03*
X337873D03*
X342873D03*
X309022Y63264D03*
X304022D03*
X299022D03*
X294022D03*
X267500Y99140D03*
Y94460D03*
X327873Y95257D03*
X337873D03*
X342873D03*
X332873D03*
X339106Y128263D03*
X332083Y146765D03*
X329335Y114928D03*
X337641Y145011D03*
X296032Y178553D03*
X296094Y176253D03*
X324279Y144699D03*
X329835Y139975D03*
Y146274D03*
Y158873D03*
X329977Y170745D03*
X330672Y180920D03*
X287116Y149919D03*
X287768Y142046D03*
X294541Y146960D03*
X317237Y139975D03*
Y146274D03*
X319701Y158108D03*
X317237Y169896D03*
X317212Y184985D03*
X310158Y126377D03*
Y132161D03*
Y139247D03*
Y146333D03*
X273498Y133265D03*
X299600Y157834D03*
X277915Y154047D03*
X310158Y175920D03*
Y183006D03*
X274082Y185828D03*
X283968Y180260D03*
X283967Y170812D03*
X277669Y158215D03*
X283968Y186559D03*
X277669Y149919D03*
X283967Y134172D03*
X277669Y121575D03*
X295373Y141664D03*
X273550Y172309D03*
X273551Y159930D03*
Y163868D03*
Y167806D03*
X268159Y115541D03*
X277608Y115696D03*
X287057Y115541D03*
X268159Y121803D03*
X339524Y157220D03*
X287689Y119499D03*
X275182D03*
X341246Y162537D03*
X270323Y163868D03*
Y159930D03*
Y167806D03*
X334826Y187142D03*
X294597Y186786D03*
X299714Y180260D03*
X310158Y186234D03*
Y179148D03*
X310174Y159789D03*
X285055Y154047D03*
X310158Y149561D03*
X307703Y175701D03*
X292313Y152511D03*
X318227Y143125D03*
X329835D03*
X324279Y138400D03*
X329835Y136825D03*
X324279Y141550D03*
X317237Y136825D03*
X273498Y138897D03*
X310158Y142475D03*
Y135389D03*
Y123149D03*
X298140Y142046D03*
X311799Y136900D03*
X287500Y177495D03*
X287116Y170811D03*
X280818D03*
X277752Y170896D03*
X318893Y172188D03*
X288058Y165628D03*
X283966Y164514D03*
X277669Y167663D03*
X289361Y157734D03*
X283966Y158215D03*
X277669Y161364D03*
X320251Y154148D03*
X277669Y164514D03*
X317237Y150999D03*
X280818Y161364D03*
X320251Y151018D03*
X287116Y161364D03*
X296566Y124724D03*
X302864Y134173D03*
X299714Y131023D03*
X306013D03*
Y127874D03*
X299716Y134171D03*
X280818D03*
X287116D03*
X302864Y180260D03*
Y186559D03*
Y183410D03*
X306013D03*
Y180260D03*
X303447Y121149D03*
X301532Y118940D03*
X306013Y177111D03*
X299714Y121575D03*
X302864Y177111D03*
X284165Y119499D03*
X281015D03*
X287116Y127872D03*
X290419Y124724D03*
X264600Y128401D03*
X265630Y120536D03*
X283968Y127574D03*
X306013Y124724D03*
X307409Y172078D03*
X329835Y184069D03*
X290469Y128920D03*
X323665Y182443D03*
X296566Y170811D03*
X276929Y127345D03*
X296566Y127874D03*
X302864D03*
X303421Y150702D03*
X306013Y146770D03*
X302864D03*
X306013Y143620D03*
X299716D03*
X323056Y179345D03*
X299716Y170813D03*
X306013Y140471D03*
X330522Y178352D03*
X306455Y166709D03*
X303132Y140520D03*
X333029Y177920D03*
X311008Y165421D03*
X333164Y174621D03*
X302864Y167663D03*
X333370Y171876D03*
X295879Y166862D03*
X334021Y168994D03*
X299716Y164514D03*
X332840Y166720D03*
X303835Y157244D03*
X335567Y164444D03*
X295914Y162938D03*
X333766Y162192D03*
X302864Y161364D03*
X332181Y159681D03*
X307593Y160161D03*
X323963Y155656D03*
X296408Y156991D03*
X338186Y152330D03*
X277669Y180260D03*
Y183410D03*
X280818Y186559D03*
Y183410D03*
Y149919D03*
X271822Y131415D03*
X272633Y147801D03*
X270684Y133415D03*
X283966Y146770D03*
X267154Y135352D03*
X275609Y145680D03*
X270915Y139252D03*
X280818Y143620D03*
X267908Y139289D03*
X280818Y180260D03*
Y177111D03*
X277669D03*
X334070Y191537D03*
X271011Y229238D03*
X273210Y255498D03*
X329835Y191943D03*
X266584Y229013D03*
X276310Y229065D03*
X275900Y231764D03*
X266584Y236055D03*
X301368Y193076D03*
X320333Y205094D03*
X326073Y267337D03*
X294009Y265803D03*
X283392Y268571D03*
X275955Y196736D03*
Y200674D03*
X267034Y268571D03*
X316526Y256129D03*
X313727Y230339D03*
X274009Y217639D03*
X306301Y264600D03*
X310625Y235025D03*
X300648Y230235D03*
X309644Y209466D03*
X285737Y207062D03*
X295807Y203063D03*
X282314Y193076D03*
X317237Y202967D03*
Y191943D03*
X313727Y216021D03*
X322744Y205692D03*
X330735Y203351D03*
X322744Y209630D03*
X313298Y253725D03*
X306416Y207062D03*
X320441Y267337D03*
X277237Y215235D03*
X270323Y196736D03*
Y200674D03*
X271386Y209437D03*
X267742Y205793D03*
X333110Y189446D03*
X329835Y189643D03*
X326073Y263399D03*
X297237Y265803D03*
X276438Y255498D03*
X273210Y235025D03*
X292508Y199737D03*
X309644Y203124D03*
X285542Y193076D03*
X298140Y190672D03*
X285737Y203125D03*
X316554Y238322D03*
X301919Y250380D03*
X292754Y207035D03*
X335014Y227526D03*
X301919Y245261D03*
X319848Y202845D03*
X319934Y200218D03*
X317829Y197434D03*
X319895Y195634D03*
X323319Y193798D03*
X263272Y266869D03*
X320074Y191116D03*
X321532Y189236D03*
X263780Y244781D03*
X264177Y241853D03*
X268159Y262115D03*
X269642Y260270D03*
X328036Y233926D03*
X335053Y261202D03*
X328036Y253616D03*
X318546Y249678D03*
X328036Y245740D03*
Y241802D03*
X341739Y241232D03*
Y244382D03*
Y247532D03*
X341417Y227526D03*
X339013Y220440D03*
X330369Y199377D03*
X341417Y223668D03*
Y230754D03*
X305712Y267336D03*
X341395Y261202D03*
X343476Y217374D03*
X297634Y226140D03*
X335308Y223327D03*
X290509Y229318D03*
X331264Y241802D03*
X324178D03*
X308697Y266689D03*
X280283Y209831D03*
X281644Y205793D03*
X275446Y209950D03*
X273551Y192798D03*
Y188860D03*
X324178Y247274D03*
X287766Y290656D03*
X264517Y284764D03*
X287766Y294594D03*
X276658Y309856D03*
X313133Y331939D03*
X266681Y332903D03*
X290281Y316117D03*
X333195Y276323D03*
X287766Y286718D03*
X311116Y295590D03*
X304147Y284041D03*
X309147D03*
X314147D03*
Y288041D03*
X309147D03*
X304147D03*
X267745Y287168D03*
X296549Y304164D03*
X321745D03*
X317296Y299888D03*
X296625Y298354D03*
X285783Y282780D03*
X337133Y276323D03*
X294043Y321454D03*
X342252Y276500D03*
X267745Y278422D03*
X267034Y274419D03*
X330528Y286718D03*
X312100Y312082D03*
X308163D03*
X320596Y273919D03*
X317655Y271728D03*
X298942Y270691D03*
X412926Y7506D03*
X411385Y25238D03*
X423770Y76613D03*
Y71613D03*
Y94613D03*
Y99613D03*
X407832Y76613D03*
X414832D03*
X418770D03*
Y68385D03*
X407832Y99613D03*
X414832D03*
X418770D03*
Y91385D03*
X388300Y42122D03*
X383300D03*
X378300D03*
X373300D03*
X368300D03*
Y47122D03*
X373300D03*
X378300D03*
X383300D03*
X388300D03*
Y52122D03*
X383300D03*
X378300D03*
X373300D03*
X368300D03*
X348471Y81754D03*
X412926Y53186D03*
X418770Y102841D03*
X414832D03*
X418770Y79841D03*
X414832D03*
X380577Y32243D03*
X395945Y46413D03*
Y50351D03*
Y54289D03*
Y58227D03*
X375778Y90675D03*
Y67675D03*
X386006Y66613D03*
Y89613D03*
X357873Y98485D03*
X352873D03*
X347873D03*
X375240Y32243D03*
X400090Y77200D03*
Y70900D03*
X393790Y77200D03*
X396940Y74050D03*
X393790Y70900D03*
X400099Y93913D03*
Y100213D03*
X393799Y93913D03*
X396949Y97063D03*
X393799Y100213D03*
X367192Y82245D03*
X371130D03*
X375068D03*
X379006D03*
X367192Y105245D03*
X371130D03*
X375068D03*
X379006D03*
X380577Y37187D03*
X347873Y63649D03*
X352873D03*
X357873Y103879D03*
X352873D03*
X347873D03*
X357873Y59257D03*
X370868Y65680D03*
X366931D03*
X362994D03*
X359057D03*
Y69617D03*
X362994D03*
X366931D03*
X370868D03*
Y73554D03*
X366931D03*
X362994D03*
X359057D03*
X352873Y95257D03*
X357873D03*
X347873D03*
X378264Y87521D03*
X374327D03*
X370390D03*
X366453D03*
X362516D03*
Y91458D03*
X366453D03*
X370390D03*
Y95395D03*
X366453D03*
X362516D03*
X357873Y139379D03*
X352873D03*
X379573Y164067D03*
X383473D03*
X379573Y167711D03*
X424071Y117624D03*
Y122624D03*
X407832Y122613D03*
X414832D03*
X418770D03*
Y114385D03*
X415239Y164977D03*
X418770Y125841D03*
X414832D03*
X360277Y165859D03*
Y159071D03*
X367545Y111077D03*
X375778Y113675D03*
X386006Y112613D03*
X400088Y116931D03*
X393788D03*
X396938Y120081D03*
X400088Y123231D03*
X393788D03*
X379006Y128245D03*
X375068D03*
X371130D03*
X347873Y145011D03*
X360277Y152319D03*
X357873Y145011D03*
X356776Y169812D03*
X367192Y128245D03*
X362239Y181406D03*
X352279Y121050D03*
X356216D03*
X360153D03*
X364090D03*
Y117113D03*
X360153D03*
X356216D03*
X352279D03*
Y113176D03*
X356216D03*
X360153D03*
X364090D03*
X356368Y162537D03*
X366177Y179748D03*
X415093Y185610D03*
Y181752D03*
X415091Y145646D03*
X400766Y159667D03*
X369405Y147664D03*
X373263D03*
X372201Y175810D03*
X388611Y171518D03*
X395269D03*
X415091Y141788D03*
X395823Y144940D03*
X395314Y184954D03*
X371809Y133446D03*
X383491Y149588D03*
X359835Y175774D03*
X379573Y203993D03*
Y207637D03*
X383473Y203993D03*
X410123Y215691D03*
X413119Y198128D03*
X407530Y226654D03*
X345375Y202635D03*
X362578Y200837D03*
Y205837D03*
Y210837D03*
X359605Y220458D03*
X362578Y215837D03*
X359890Y269036D03*
X371202Y238106D03*
X369225Y210961D03*
X371202Y234168D03*
X353231Y220440D03*
X417957Y225830D03*
X417563Y254570D03*
X417957Y266130D03*
X422113Y248642D03*
X349271Y263606D03*
X353209D03*
X361712Y253858D03*
Y249920D03*
X371202Y253858D03*
Y249920D03*
Y245982D03*
X361712D03*
Y242044D03*
Y238106D03*
X348039Y241232D03*
X344889D03*
Y244382D03*
X348039D03*
Y247532D03*
X344889D03*
X372185Y266581D03*
X400727Y199549D03*
X422507Y231758D03*
X359605Y223686D03*
X395269Y211244D03*
X388611D03*
X369405Y190028D03*
X373263D03*
X365570Y245982D03*
X358484D03*
X378819Y244358D03*
X345355Y220440D03*
X365570Y249920D03*
X358484D03*
X359715Y264447D03*
X345333Y261202D03*
X383705Y254570D03*
X370492Y215779D03*
X375591Y264873D03*
X358484Y238106D03*
Y242044D03*
X371202D03*
X365570Y238106D03*
X381160Y189632D03*
X369366Y310242D03*
X412541Y280623D03*
X344707Y283265D03*
X351445D03*
X348076Y279109D03*
X347621Y321454D03*
X355145D03*
X351383Y316117D03*
X369698Y290497D03*
X387664Y302179D03*
X408792Y328913D03*
Y319813D03*
X403455Y324363D03*
X376289D03*
X386963D03*
X381626Y319813D03*
X344684Y322886D03*
X381626Y328913D03*
X390288Y317770D03*
X391602Y302179D03*
X397305Y291913D03*
X351225Y290582D03*
X357243Y289509D03*
X346152Y272856D03*
X383726Y302179D03*
X395540D03*
X369662Y326960D03*
X369698Y296129D03*
X354684Y300096D03*
X394077Y289509D03*
X397305Y273343D03*
X393113Y318851D03*
X396193Y320306D03*
X402099Y317770D03*
X354684Y327239D03*
X359684D03*
X344684Y295743D03*
X349684D03*
X422113Y288942D03*
X417563Y294870D03*
X422507Y272058D03*
X373187Y288501D03*
Y272749D03*
X370214Y278438D03*
X359890Y276713D03*
Y271595D03*
X398162Y317770D03*
X378819Y272749D03*
Y284563D03*
X375591Y280625D03*
X370214Y270442D03*
X428770Y76613D03*
X433770D03*
Y71613D03*
X428770D03*
Y99613D03*
X433770D03*
Y94613D03*
X428770D03*
X433068Y33830D03*
X430659Y46247D03*
X429071Y117624D03*
X434071D03*
Y122624D03*
X429071D03*
X427625Y174621D03*
X433165Y158231D03*
X432514Y238150D03*
X431430Y209885D03*
X433550Y260577D03*
X435020Y289997D03*
X432996Y302125D03*
G54D31*
G01X16000Y0D02*
X424000D01*
G03X440000Y16000I0J16000D01*
G01Y322400D01*
G03X424000Y338400I-16000J0D01*
G01X16000D01*
G03X0Y322400I0J-16000D01*
G01Y16000D01*
G03X16000Y0I16000J0D01*
G54D22*
X263254Y27544D03*
X229238D03*
X310003D03*
X275987D03*
X292139Y310682D03*
X326155D03*
G54D13*
X15426Y189983D03*
Y158487D03*
X76548Y15686D03*
X45052D03*
X172403Y302931D03*
X163387D03*
X154371D03*
X145355D03*
X136340D03*
X167895Y295136D03*
X158879D03*
X149863D03*
X140847D03*
X131832D03*
X172403Y287341D03*
X163387D03*
X154371D03*
X145355D03*
X136340D03*
X332840Y322793D03*
X301344D03*
G54D32*
G01X220416Y61436D02*
X212179Y53199D01*
X84024D01*
X82622Y54601D01*
X68634D01*
G01X64304D02*
X66797Y57094D01*
X179813D01*
X181435Y58716D01*
X182927D01*
X183895Y57748D01*
X211699D01*
X215298Y61347D01*
Y64816D01*
G01X212739Y61436D02*
Y65193D01*
X209623Y68309D01*
X199965D01*
X196906Y71368D01*
X165217D01*
X154642Y60793D01*
X136324D01*
X129921Y67196D01*
X121234D01*
X119642Y68788D01*
X58046D01*
G01X60611Y54470D02*
X65854Y59713D01*
X89153D01*
X90763Y61323D01*
X110502D01*
X112808Y59017D01*
X156077D01*
X158653Y61593D01*
X161366D01*
X162361Y60598D01*
X195676D01*
X196638Y59636D01*
X204148D01*
X205155Y60643D01*
Y62151D01*
X207820Y64816D01*
X210180D01*
G01X56057Y138084D02*
X65418Y128723D01*
X96690D01*
X110243Y142276D01*
Y147273D01*
G01X97885Y153474D02*
Y175868D01*
X97085Y176668D01*
X95848D01*
X95048Y177468D01*
Y179068D01*
X95848Y179868D01*
X97085D01*
X97885Y180668D01*
Y182817D01*
X95937Y184765D01*
Y185898D01*
X96354Y186315D01*
Y189477D01*
G01X97189Y150999D02*
X95389D01*
X92911Y153477D01*
Y160821D01*
X91147Y162585D01*
Y183903D01*
X87872Y187178D01*
Y189591D01*
G01X83066Y159808D02*
X85035Y157839D01*
Y143909D01*
X93883Y135061D01*
X99836D01*
G01X104463Y152573D02*
X101060Y155976D01*
Y188278D01*
X97745Y191593D01*
X95779D01*
X93777Y189591D01*
G01X26149Y241195D02*
Y237258D01*
G01X92381Y256640D02*
X90437Y258584D01*
X84344D01*
X82400Y256640D01*
G01X102362D02*
X100266Y258736D01*
X94477D01*
X92381Y256640D01*
G01X251212Y168817D02*
X245917D01*
X228369Y186365D01*
X171792D01*
X170423Y184996D01*
X168391D01*
X164622Y188765D01*
X161759D01*
X149830Y200694D01*
X125632D01*
X122111Y204215D01*
Y221663D01*
X97042Y246732D01*
X89788D01*
X87518Y249002D01*
G01X215961Y34814D02*
X206126Y24979D01*
X172351D01*
X168789Y28541D01*
G01Y33659D02*
X166678Y31548D01*
Y24870D01*
X168789Y22759D01*
G01X245975Y26059D02*
X244817Y27217D01*
Y31288D01*
X243280Y32825D01*
Y38126D01*
X240422Y40984D01*
X198027D01*
X188726Y31683D01*
X177480D01*
X175681Y33482D01*
Y38001D01*
X176481Y38801D01*
X181443D01*
G01X242693Y26059D02*
X243617Y26983D01*
Y30790D01*
X242080Y32327D01*
Y37628D01*
X239924Y39784D01*
X198525D01*
X189224Y30483D01*
X176982D01*
X174481Y32984D01*
Y38001D01*
X173681Y38801D01*
X168719D01*
G01X177282Y75752D02*
X174357Y78677D01*
Y116399D01*
X184635Y126677D01*
X201335D01*
X207069Y132411D01*
X207991D01*
X240233Y164653D01*
X254719D01*
X262275Y172209D01*
Y208032D01*
X253024Y217283D01*
Y221819D01*
G01X179825Y44559D02*
X174863D01*
X174063Y43759D01*
Y42129D01*
X172936Y41002D01*
X134929D01*
X131539Y44392D01*
Y46022D01*
X130498Y47063D01*
G01X167101Y44559D02*
X172063D01*
X172863Y43759D01*
Y42627D01*
X172438Y42202D01*
X135427D01*
X132739Y44890D01*
Y46022D01*
X133780Y47063D01*
G01X147888Y62593D02*
X140500D01*
X135529Y67564D01*
G01X144934Y65090D02*
X141906D01*
X130634Y76362D01*
Y80344D01*
X128007Y82971D01*
G01X256962Y221819D02*
Y217021D01*
X264373Y209610D01*
Y169105D01*
X258011Y162743D01*
X242402D01*
X210098Y130439D01*
X208719D01*
X207665Y129385D01*
Y128006D01*
X204153Y124494D01*
X185133D01*
X176257Y115618D01*
Y107605D01*
X179616Y104246D01*
Y86519D01*
X188385Y77750D01*
X205653D01*
X209639Y73764D01*
X216816D01*
X218616Y75564D01*
X220416D01*
G01X249086Y221819D02*
Y217267D01*
X259927Y206426D01*
Y172620D01*
X254030Y166723D01*
X236146D01*
X198037Y128614D01*
X180808D01*
X170319Y118125D01*
Y79225D01*
X175928Y73616D01*
X198239D01*
X201510Y70345D01*
X212006D01*
X213279Y71618D01*
G01X110008Y176967D02*
X117805D01*
X121328Y173444D01*
Y133953D01*
X123150Y132131D01*
G01X108825Y183016D02*
X115402D01*
X124370Y174048D01*
Y135911D01*
X128150Y132131D01*
G01X215298Y75564D02*
X211090D01*
X206881Y79773D01*
X203035D01*
X190000Y92808D01*
Y95431D01*
X188631Y96800D01*
X186606D01*
X185000Y98406D01*
Y102175D01*
X178547Y108628D01*
Y114447D01*
X186331Y122231D01*
X205941D01*
X244484Y160774D01*
X254841D01*
X256476Y159139D01*
X258391D01*
X266384Y167132D01*
Y185631D01*
X273551Y192798D01*
G01X132305Y256640D02*
X134591Y258926D01*
X140000D01*
X142286Y256640D01*
G01X112343D02*
X110543Y258440D01*
X104175D01*
X104129Y258394D01*
X104116D01*
X102362Y256640D01*
G01X122324D02*
X120114Y258850D01*
X114553D01*
X112343Y256640D01*
G01X132305D02*
X130361Y258584D01*
X124268D01*
X122324Y256640D01*
G01X152267D02*
X149981Y258926D01*
X144572D01*
X142286Y256640D01*
G01X182210D02*
X180076Y258774D01*
X174363D01*
X172229Y256640D01*
G01X152267D02*
X155242Y259615D01*
X160060D01*
G01D02*
X169254D01*
X172229Y256640D01*
G01X107480Y249002D02*
X120909Y235573D01*
Y226353D01*
X124182Y223080D01*
Y204949D01*
X126269Y202862D01*
X151099D01*
X161409Y192552D01*
X170489D01*
X172389Y190652D01*
X229897D01*
X247457Y173092D01*
Y170931D01*
G01X225572Y201142D02*
X222707D01*
X220483Y198918D01*
X171849D01*
X171079Y199688D01*
X163103D01*
X162011Y198596D01*
Y195457D01*
G01X219016Y213018D02*
Y217102D01*
X214903Y221215D01*
X205730D01*
X203983Y219468D01*
X174998D01*
X166539Y227927D01*
Y229727D01*
G01X176034Y269088D02*
X180109Y273163D01*
X193849D01*
G01X206053D02*
X197957D01*
X195821Y271027D01*
X181911D01*
X179972Y269088D01*
G01X187463Y28541D02*
X194170D01*
X195550Y29921D01*
X206068D01*
X210961Y34814D01*
G01X245262Y34062D02*
X249199D01*
G01X303447Y121149D02*
Y116040D01*
X291022Y103615D01*
X199440D01*
X192163Y110892D01*
G01X301532Y118940D02*
Y117140D01*
X290110Y105718D01*
X200055D01*
X194921Y110852D01*
G01X257492Y153069D02*
X243423D01*
X208181Y117827D01*
X187288D01*
X184884Y115423D01*
Y109302D01*
X195000Y99186D01*
Y98382D01*
X196042Y97340D01*
X197470D01*
X200005Y94805D01*
Y93365D01*
X200925Y92445D01*
X235398D01*
X247493Y80350D01*
G01X253747D02*
X251947D01*
X235465Y96832D01*
X201516D01*
X200700Y97648D01*
Y98779D01*
X191103Y108376D01*
X189047D01*
X187592Y109831D01*
Y112173D01*
X190676Y115257D01*
X208192D01*
X213322Y120387D01*
X215485D01*
X246198Y151100D01*
X253523D01*
G01X251811Y74444D02*
X247033D01*
X229165Y56576D01*
G01X210180Y79917D02*
X208632Y81465D01*
X207368D01*
X195000Y93833D01*
Y95634D01*
X193834Y96800D01*
X191638D01*
X190000Y98438D01*
Y100822D01*
X182701Y108121D01*
Y116215D01*
X186513Y120027D01*
X207107D01*
X244202Y157122D01*
X260407D01*
X268379Y165094D01*
Y183688D01*
X273551Y188860D01*
G01X187795Y44532D02*
X185995D01*
X184488Y43025D01*
Y37562D01*
X188135Y33915D01*
G01X253515Y186533D02*
X251046Y189002D01*
Y206233D01*
X243018Y214261D01*
Y225055D01*
X219071Y249002D01*
X217271D01*
G01X299714Y121575D02*
Y118896D01*
X288848Y108030D01*
X200727D01*
X198070Y110687D01*
G01X283968Y127574D02*
X280251Y123857D01*
X260492D01*
X258191Y121556D01*
G01X231540Y114761D02*
Y112429D01*
X233812Y110157D01*
X287856D01*
X297403Y119704D01*
Y122510D01*
X301031Y126138D01*
X304599D01*
X306013Y124724D01*
G01X302864Y127874D02*
X299806D01*
X297708Y129972D01*
X295287D01*
X294487Y129172D01*
Y119497D01*
X287140Y112150D01*
X235260D01*
X234485Y112925D01*
Y114746D01*
G01X303421Y150702D02*
X289045D01*
X287500Y152247D01*
X284309D01*
X280587Y155969D01*
X263215D01*
X237502Y130256D01*
Y114761D01*
G01X240669Y118710D02*
Y130668D01*
X261706Y151705D01*
X281780D01*
X285266Y148219D01*
X287821D01*
X288585Y148983D01*
X303800D01*
X306013Y146770D01*
G01X242638Y115084D02*
Y128895D01*
X261539Y147796D01*
X269342D01*
X271147Y149601D01*
X275133D01*
X278295Y146439D01*
X280880D01*
X282766Y144553D01*
X284154D01*
X285987Y146386D01*
X292710D01*
X293836Y145260D01*
X295546D01*
X297558Y147272D01*
X300562D01*
X301064Y146770D01*
X302864D01*
G01X244606Y118710D02*
Y127460D01*
X261160Y144014D01*
X274521D01*
X276805Y141730D01*
X284973D01*
X286989Y143746D01*
X288473D01*
X288855Y143364D01*
X296625D01*
X298697Y145436D01*
X300417D01*
X300960Y144893D01*
X304740D01*
X306013Y143620D01*
G01X299716D02*
X299972Y143364D01*
Y141463D01*
X298465Y139956D01*
X275951D01*
X274818Y141089D01*
X261560D01*
X246575Y126104D01*
Y115084D01*
G01X248543Y118710D02*
Y124888D01*
X260807Y137152D01*
X272697D01*
X273248Y136601D01*
X274380D01*
X275913Y138134D01*
X299683D01*
X301429Y139880D01*
Y141450D01*
X302501Y142522D01*
X303962D01*
X306013Y140471D01*
G01X303132Y140520D02*
Y138557D01*
X300747Y136172D01*
X279125D01*
X272209Y129256D01*
X267775D01*
X266474Y130557D01*
X256995D01*
X252647Y126209D01*
Y118528D01*
G01X197309Y249002D02*
X200796Y245515D01*
X219586D01*
X240666Y224435D01*
Y212545D01*
X240715Y212496D01*
Y191775D01*
X253831Y178659D01*
G01X257492Y180628D02*
X256219Y179355D01*
Y178072D01*
X254837Y176690D01*
X251726D01*
X237188Y191228D01*
Y221416D01*
X231828Y226776D01*
X230324D01*
X225040Y232060D01*
X204270D01*
X187328Y249002D01*
G01X256042Y278857D02*
X254242D01*
X248138Y272753D01*
Y267128D01*
X240625Y259615D01*
G01X257492Y188502D02*
X254502Y191492D01*
Y207080D01*
X245155Y216427D01*
Y225844D01*
X227180Y243819D01*
Y249075D01*
X224699Y251556D01*
X209844D01*
X207290Y249002D01*
G01X212153Y256640D02*
X210188Y258605D01*
X204137D01*
X202172Y256640D01*
G01D02*
X200093Y258719D01*
X194270D01*
X192191Y256640D01*
G01D02*
X190171Y258660D01*
X184230D01*
X182210Y256640D01*
G01X222134D02*
X220114Y258660D01*
X214173D01*
X212153Y256640D01*
G01X232115D02*
X230171Y258584D01*
X224078D01*
X222134Y256640D01*
G01X329835Y189643D02*
Y187107D01*
X333407Y183535D01*
Y180523D01*
X337420Y176510D01*
Y159546D01*
X327305Y149431D01*
Y113147D01*
X309022Y94864D01*
G01X339106Y128263D02*
X334164Y133205D01*
Y144684D01*
X332083Y146765D01*
G01X280818Y161364D02*
Y158507D01*
X283391Y155934D01*
X292050D01*
X295389Y152595D01*
X313537D01*
X315133Y150999D01*
X317237D01*
G01X287116Y161364D02*
X289081D01*
X296226Y154219D01*
X317050D01*
X320251Y151018D01*
G01X319848Y202845D02*
X318164Y201161D01*
X310717D01*
X303168Y193612D01*
Y192330D01*
X301034Y190196D01*
Y182090D01*
X302864Y180260D01*
G01X319934Y200218D02*
X319936Y200216D01*
Y200109D01*
X319136Y199309D01*
X311631D01*
X304950Y192628D01*
Y191715D01*
X302864Y189629D01*
Y186559D01*
G01X317829Y197434D02*
X313098D01*
X304664Y189000D01*
Y185210D01*
X302864Y183410D01*
G01X319895Y195634D02*
X314282D01*
X306600Y187952D01*
Y185797D01*
X306013Y185210D01*
Y183410D01*
G01X323319Y193798D02*
X317871D01*
X317816Y193743D01*
X316491D01*
X315437Y192689D01*
Y191364D01*
X312107Y188034D01*
X309412D01*
X308358Y186980D01*
Y182605D01*
X306013Y180260D01*
G01X320074Y191116D02*
X312235Y183277D01*
Y181998D01*
X311314Y181077D01*
X309583D01*
X309454Y180948D01*
X309412D01*
X308358Y179894D01*
Y179852D01*
X307314Y178808D01*
Y178412D01*
X306013Y177111D01*
G01X321532Y189236D02*
Y186759D01*
X315151Y180378D01*
Y178260D01*
X310792Y173901D01*
X306074D01*
X302864Y177111D01*
G01X290419Y124724D02*
X292398Y126703D01*
Y129396D01*
X291174Y130620D01*
X276618D01*
X273126Y127128D01*
X265873D01*
X264600Y128401D01*
G01X296566Y170811D02*
X298965Y173210D01*
X303504D01*
X306397Y170317D01*
X310245D01*
X318378Y178450D01*
Y179976D01*
X320845Y182443D01*
X323665D01*
G01X323056Y179345D02*
X312616Y168905D01*
X304542D01*
X302634Y170813D01*
X299716D01*
G01X306455Y166709D02*
X309639D01*
X310262Y167332D01*
X317240D01*
X320907Y170999D01*
Y172684D01*
X326575Y178352D01*
X330522D01*
G01X311008Y165421D02*
X318213D01*
X323127Y170335D01*
Y172200D01*
X327448Y176521D01*
X331630D01*
X333029Y177920D01*
G01X302864Y167663D02*
X306934Y163593D01*
X319966D01*
X325235Y168862D01*
Y171376D01*
X328480Y174621D01*
X333164D01*
G01X295879Y166862D02*
X300502D01*
X305503Y161861D01*
X321246D01*
X327714Y168329D01*
Y171124D01*
X329309Y172719D01*
X330727D01*
X331570Y171876D01*
X333370D01*
G01X334021Y168994D02*
X332221D01*
X323167Y159940D01*
X317142D01*
X315191Y157989D01*
X306819D01*
X305504Y159304D01*
X301929D01*
X299716Y161517D01*
Y164514D01*
G01X303835Y157244D02*
X305108Y155971D01*
X321102D01*
X323217Y153856D01*
X325367D01*
X327200Y155689D01*
Y158784D01*
X332840Y164424D01*
Y166720D01*
G01X316554Y238322D02*
X304496Y250380D01*
X301919D01*
G01X335014Y227526D02*
X330880Y231660D01*
X319901D01*
X306300Y245261D01*
X301919D01*
G01X341417Y223668D02*
X343560Y225811D01*
Y228611D01*
X341417Y230754D01*
G01X305712Y267336D02*
Y269512D01*
X322918Y286718D01*
X330528D01*
G01X343476Y217374D02*
Y221757D01*
X345385Y223666D01*
Y230368D01*
X337727Y238026D01*
X324734D01*
X321505Y241255D01*
Y250738D01*
X328134Y257367D01*
X337560D01*
X341395Y261202D01*
G01X335308Y223327D02*
X336872Y224891D01*
Y230378D01*
X331351Y235899D01*
X323703D01*
X316502Y243100D01*
Y252029D01*
X324773Y260300D01*
X330043D01*
X333579Y263836D01*
X342699D01*
X345333Y261202D01*
G01X331264Y241802D02*
X329329Y243737D01*
X326113D01*
X324178Y241802D01*
G01X308697Y266689D02*
X311365Y269357D01*
X355852D01*
X358090Y271595D01*
X359890D01*
G01X308163Y312082D02*
X312100D01*
G01X359890Y276713D02*
X355493Y281110D01*
X327787D01*
X320596Y273919D01*
G01X369225Y210961D02*
X367082Y213104D01*
Y230048D01*
X371202Y234168D01*
G01X358484Y245982D02*
X360442Y247940D01*
X363612D01*
X365570Y245982D01*
G01X345355Y220440D02*
X354509Y229594D01*
X362556D01*
X368930Y235968D01*
X372229D01*
X378819Y242558D01*
Y244358D01*
G01X365570Y249920D02*
X363443Y252047D01*
X360611D01*
X358484Y249920D01*
G01X359715Y264447D02*
X370214Y274946D01*
Y278438D01*
G01X383705Y254570D02*
Y239895D01*
X370492Y226682D01*
Y215779D01*
G01X375591Y264873D02*
Y269521D01*
X378819Y272749D01*
G01X375591Y280625D02*
X376864Y281898D01*
Y282608D01*
X378819Y284563D01*
G54D14*
X11092Y223203D03*
Y257219D03*
G54D23*
X225946Y322698D03*
X252915Y326628D03*
X279884Y322698D03*
G54D15*
X23400Y81400D03*
X433107Y147268D03*
X433114Y187582D03*
G54D24*
X325719Y7098D03*
Y25602D03*
Y44106D03*
X355619Y7098D03*
Y25602D03*
Y44106D03*
G54D25*
X377369Y4304D03*
X385243D03*
X393117D03*
X377369Y22020D03*
X385243D03*
X393117D03*
G54D16*
X40377Y168057D03*
Y187743D03*
G54D17*
X25462Y228794D03*
Y251628D03*
X257663Y25457D03*
X234829D03*
X304412D03*
X281578D03*
X297730Y312769D03*
X320564D03*
G54D26*
X394554Y240200D03*
X422113D03*
X394554Y280500D03*
X422113D03*
G54D27*
G01X51029Y140240D02*
X55900Y145111D01*
Y166124D01*
X52280Y169744D01*
G01X65759Y173247D02*
X63056Y175950D01*
Y189730D01*
X65006Y191680D01*
G01X320441Y267337D02*
X313298Y260194D01*
Y253725D01*
G01X358484Y242044D02*
X349785Y250743D01*
X327647D01*
X324178Y247274D01*
G01X370214Y270442D02*
X368516Y268744D01*
Y264530D01*
X374560Y258486D01*
Y245402D01*
X371202Y242044D01*
G01X365570Y238106D02*
X367268Y239804D01*
X368962D01*
X371202Y242044D01*
G01X365570Y238106D02*
X362985Y235521D01*
X359848D01*
X358484Y236885D01*
Y238106D01*
G54D18*
X27549Y223203D03*
Y257219D03*
G54D28*
G01X321682Y11135D02*
X325719Y7098D01*
G01Y12525D02*
Y7098D01*
G01X329756Y11135D02*
X325719Y7098D01*
G01X331146D02*
X325719D01*
G01X320292D02*
X325719D01*
G54D19*
X105162Y295136D03*
X203588D03*
G54D29*
G01X321682Y3061D02*
X325719Y7098D01*
G01D02*
X329756Y3061D01*
G01X325719Y7098D02*
X327959Y12349D01*
G01X320468Y4858D02*
X325719Y7098D01*
G01X266301Y305941D02*
Y309793D01*
G01D02*
Y313645D01*
G01X262449Y309793D02*
X266301D01*
G01D02*
X270153D01*
G01X263377Y306869D02*
X266301Y309793D01*
G01D02*
X269225Y312717D01*
G01X263377D02*
X266301Y309793D01*
G01D02*
X269225Y306869D01*
M02*
