G04 ================== begin FILE IDENTIFICATION RECORD ==================*
G04 Layout Name:  G:/project_development/GitHub/StarrySky/PCB/V2.0/STARRYSKY.brd*
G04 Film Name:    DRILL*
G04 File Format:  Gerber RS274X*
G04 File Origin:  Cadence Allegro 16.6-2015-S066*
G04 Origin Date:  Mon Aug 28 10:48:12 2023*
G04 *
G04 Layer:  MANUFACTURING/NCLEGEND-1-8*
G04 Layer:  MANUFACTURING/NCDRILL_LEGEND*
G04 Layer:  MANUFACTURING/NCDRILL_FIGURE*
G04 Layer:  BOARD GEOMETRY/OUTLINE*
G04 Layer:  BOARD GEOMETRY/DIMENSION*
G04 *
G04 Offset:    (0.00 0.00)*
G04 Mirror:    No*
G04 Mode:      Positive*
G04 Rotation:  0*
G04 FullContactRelief:  No*
G04 UndefLineWidth:     0.01*
G04 ================== end FILE IDENTIFICATION RECORD ====================*
%FSLAX55Y55*MOIN*%
%IR0*IPPOS*OFA0.00000B0.00000*MIA0B0*SFA1.00000B1.00000*%
%AMMACRO21*
1,1,.00001,0.0,.02166*
20,1,.00001,0.0,.02166,0.0,-.02165,0.0*
1,1,.00001,0.0,-.02165*
1,1,.00001,-.0101,.00722*
20,1,.00001,-.0101,.00722,.01011,.00722,0.0*
1,1,.00001,.01011,.00722*
%
%ADD21MACRO21*%
%AMMACRO12*
1,1,.00001,0.0,.025*
20,1,.00001,0.0,.025,.021655,-.025,0.0*
1,1,.00001,.021655,-.025*
20,1,.00001,.021655,-.025,-.021655,-.025,0.0*
1,1,.00001,-.021655,-.025*
20,1,.00001,-.021655,-.025,0.0,.025,0.0*
1,1,.00001,0.0,.025*
1,1,.00001,.0065,-.01082*
20,1,.00001,.0065,-.01082,.0065,.00361,0.0*
1,1,.00001,.0065,.00361*
1,1,.00001,.0065,.00109*
20,1,.00001,.0065,.00109,.00506,.00253,0.0*
1,1,.00001,.00506,.00253*
20,1,.00001,.00506,.00253,.00289,.00325,0.0*
1,1,.00001,.00289,.00325*
20,1,.00001,.00289,.00325,.00037,.00361,0.0*
1,1,.00001,.00037,.00361*
20,1,.00001,.00037,.00361,-.00216,.00289,0.0*
1,1,.00001,-.00216,.00289*
20,1,.00001,-.00216,.00289,-.00433,.00145,0.0*
1,1,.00001,-.00433,.00145*
20,1,.00001,-.00433,.00145,-.00577,-.00072,0.0*
1,1,.00001,-.00577,-.00072*
20,1,.00001,-.00577,-.00072,-.00649,-.0036,0.0*
1,1,.00001,-.00649,-.0036*
20,1,.00001,-.00649,-.0036,-.00577,-.00649,0.0*
1,1,.00001,-.00577,-.00649*
20,1,.00001,-.00577,-.00649,-.00433,-.00866,0.0*
1,1,.00001,-.00433,-.00866*
20,1,.00001,-.00433,-.00866,-.00216,-.0101,0.0*
1,1,.00001,-.00216,-.0101*
20,1,.00001,-.00216,-.0101,.00037,-.01082,0.0*
1,1,.00001,.00037,-.01082*
20,1,.00001,.00037,-.01082,.00289,-.01046,0.0*
1,1,.00001,.00289,-.01046*
20,1,.00001,.00289,-.01046,.00506,-.00938,0.0*
1,1,.00001,.00506,-.00938*
20,1,.00001,.00506,-.00938,.0065,-.00793,0.0*
1,1,.00001,.0065,-.00793*
%
%ADD12MACRO12*%
%AMMACRO23*
1,1,.00001,-.01378,-.01378*
20,1,.00001,-.01378,-.01378,-.01378,.01378,0.0*
1,1,.00001,-.01378,.01378*
20,1,.00001,-.01378,.01378,-.013571,.016173,0.0*
1,1,.00001,-.013571,.016173*
20,1,.00001,-.013571,.016173,-.012949,.018493,0.0*
1,1,.00001,-.012949,.018493*
20,1,.00001,-.012949,.018493,-.011934,.02067,0.0*
1,1,.00001,-.011934,.02067*
20,1,.00001,-.011934,.02067,-.010556,.022638,0.0*
1,1,.00001,-.010556,.022638*
20,1,.00001,-.010556,.022638,-.008858,.024336,0.0*
1,1,.00001,-.008858,.024336*
20,1,.00001,-.008858,.024336,-.00689,.025714,0.0*
1,1,.00001,-.00689,.025714*
20,1,.00001,-.00689,.025714,-.004713,.026729,0.0*
1,1,.00001,-.004713,.026729*
20,1,.00001,-.004713,.026729,-.002393,.027351,0.0*
1,1,.00001,-.002393,.027351*
20,1,.00001,-.002393,.027351,0.0,.02756,0.0*
1,1,.00001,0.0,.02756*
20,1,.00001,0.0,.02756,.002393,.027351,0.0*
1,1,.00001,.002393,.027351*
20,1,.00001,.002393,.027351,.004713,.026729,0.0*
1,1,.00001,.004713,.026729*
20,1,.00001,.004713,.026729,.00689,.025714,0.0*
1,1,.00001,.00689,.025714*
20,1,.00001,.00689,.025714,.008858,.024336,0.0*
1,1,.00001,.008858,.024336*
20,1,.00001,.008858,.024336,.010556,.022638,0.0*
1,1,.00001,.010556,.022638*
20,1,.00001,.010556,.022638,.011934,.02067,0.0*
1,1,.00001,.011934,.02067*
20,1,.00001,.011934,.02067,.012949,.018493,0.0*
1,1,.00001,.012949,.018493*
20,1,.00001,.012949,.018493,.013571,.016173,0.0*
1,1,.00001,.013571,.016173*
20,1,.00001,.013571,.016173,.01378,.01378,0.0*
1,1,.00001,.01378,.01378*
20,1,.00001,.01378,.01378,.01378,-.01378,0.0*
1,1,.00001,.01378,-.01378*
20,1,.00001,.01378,-.01378,.013571,-.016173,0.0*
1,1,.00001,.013571,-.016173*
20,1,.00001,.013571,-.016173,.012949,-.018493,0.0*
1,1,.00001,.012949,-.018493*
20,1,.00001,.012949,-.018493,.011934,-.02067,0.0*
1,1,.00001,.011934,-.02067*
20,1,.00001,.011934,-.02067,.010556,-.022638,0.0*
1,1,.00001,.010556,-.022638*
20,1,.00001,.010556,-.022638,.008858,-.024336,0.0*
1,1,.00001,.008858,-.024336*
20,1,.00001,.008858,-.024336,.00689,-.025714,0.0*
1,1,.00001,.00689,-.025714*
20,1,.00001,.00689,-.025714,.004713,-.026729,0.0*
1,1,.00001,.004713,-.026729*
20,1,.00001,.004713,-.026729,.002393,-.027351,0.0*
1,1,.00001,.002393,-.027351*
20,1,.00001,.002393,-.027351,0.0,-.02756,0.0*
1,1,.00001,0.0,-.02756*
20,1,.00001,0.0,-.02756,-.002393,-.027351,0.0*
1,1,.00001,-.002393,-.027351*
20,1,.00001,-.002393,-.027351,-.004713,-.026729,0.0*
1,1,.00001,-.004713,-.026729*
20,1,.00001,-.004713,-.026729,-.00689,-.025714,0.0*
1,1,.00001,-.00689,-.025714*
20,1,.00001,-.00689,-.025714,-.008858,-.024336,0.0*
1,1,.00001,-.008858,-.024336*
20,1,.00001,-.008858,-.024336,-.010556,-.022638,0.0*
1,1,.00001,-.010556,-.022638*
20,1,.00001,-.010556,-.022638,-.011934,-.02067,0.0*
1,1,.00001,-.011934,-.02067*
20,1,.00001,-.011934,-.02067,-.012949,-.018493,0.0*
1,1,.00001,-.012949,-.018493*
20,1,.00001,-.012949,-.018493,-.013571,-.016173,0.0*
1,1,.00001,-.013571,-.016173*
20,1,.00001,-.013571,-.016173,-.01378,-.01378,0.0*
1,1,.00001,-.01378,-.01378*
1,1,.00001,-.00322,-.01034*
20,1,.00001,-.00322,-.01034,-.00161,-.01125,0.0*
1,1,.00001,-.00161,-.01125*
20,1,.00001,-.00161,-.01125,.00023,-.01148,0.0*
1,1,.00001,.00023,-.01148*
20,1,.00001,.00023,-.01148,.00184,-.01125,0.0*
1,1,.00001,.00184,-.01125*
20,1,.00001,.00184,-.01125,.00322,-.01011,0.0*
1,1,.00001,.00322,-.01011*
20,1,.00001,.00322,-.01011,.00413,-.0085,0.0*
1,1,.00001,.00413,-.0085*
20,1,.00001,.00413,-.0085,.00413,.0023,0.0*
1,1,.00001,.00413,.0023*
1,1,.00001,.00413,.00046*
20,1,.00001,.00413,.00046,.00322,.00138,0.0*
1,1,.00001,.00322,.00138*
20,1,.00001,.00322,.00138,.00184,.00207,0.0*
1,1,.00001,.00184,.00207*
20,1,.00001,.00184,.00207,.00023,.0023,0.0*
1,1,.00001,.00023,.0023*
20,1,.00001,.00023,.0023,-.00161,.00184,0.0*
1,1,.00001,-.00161,.00184*
20,1,.00001,-.00161,.00184,-.00276,.00092,0.0*
1,1,.00001,-.00276,.00092*
20,1,.00001,-.00276,.00092,-.00367,-.00069,0.0*
1,1,.00001,-.00367,-.00069*
20,1,.00001,-.00367,-.00069,-.00413,-.0023,0.0*
1,1,.00001,-.00413,-.0023*
20,1,.00001,-.00413,-.0023,-.0039,-.00367,0.0*
1,1,.00001,-.0039,-.00367*
20,1,.00001,-.0039,-.00367,-.00299,-.00528,0.0*
1,1,.00001,-.00299,-.00528*
20,1,.00001,-.00299,-.00528,-.00161,-.00643,0.0*
1,1,.00001,-.00161,-.00643*
20,1,.00001,-.00161,-.00643,.00023,-.00689,0.0*
1,1,.00001,.00023,-.00689*
20,1,.00001,.00023,-.00689,.00161,-.00666,0.0*
1,1,.00001,.00161,-.00666*
20,1,.00001,.00161,-.00666,.00322,-.00574,0.0*
1,1,.00001,.00322,-.00574*
20,1,.00001,.00322,-.00574,.00413,-.00482,0.0*
1,1,.00001,.00413,-.00482*
%
%ADD23MACRO23*%
%AMMACRO14*
1,1,.00001,-.01378,.01378*
20,1,.00001,-.01378,.01378,.01378,.01378,0.0*
1,1,.00001,.01378,.01378*
20,1,.00001,.01378,.01378,.016173,.013571,0.0*
1,1,.00001,.016173,.013571*
20,1,.00001,.016173,.013571,.018493,.012949,0.0*
1,1,.00001,.018493,.012949*
20,1,.00001,.018493,.012949,.02067,.011934,0.0*
1,1,.00001,.02067,.011934*
20,1,.00001,.02067,.011934,.022638,.010556,0.0*
1,1,.00001,.022638,.010556*
20,1,.00001,.022638,.010556,.024336,.008858,0.0*
1,1,.00001,.024336,.008858*
20,1,.00001,.024336,.008858,.025714,.00689,0.0*
1,1,.00001,.025714,.00689*
20,1,.00001,.025714,.00689,.026729,.004713,0.0*
1,1,.00001,.026729,.004713*
20,1,.00001,.026729,.004713,.027351,.002393,0.0*
1,1,.00001,.027351,.002393*
20,1,.00001,.027351,.002393,.02756,0.0,0.0*
1,1,.00001,.02756,0.0*
20,1,.00001,.02756,0.0,.027351,-.002393,0.0*
1,1,.00001,.027351,-.002393*
20,1,.00001,.027351,-.002393,.026729,-.004713,0.0*
1,1,.00001,.026729,-.004713*
20,1,.00001,.026729,-.004713,.025714,-.00689,0.0*
1,1,.00001,.025714,-.00689*
20,1,.00001,.025714,-.00689,.024336,-.008858,0.0*
1,1,.00001,.024336,-.008858*
20,1,.00001,.024336,-.008858,.022638,-.010556,0.0*
1,1,.00001,.022638,-.010556*
20,1,.00001,.022638,-.010556,.02067,-.011934,0.0*
1,1,.00001,.02067,-.011934*
20,1,.00001,.02067,-.011934,.018493,-.012949,0.0*
1,1,.00001,.018493,-.012949*
20,1,.00001,.018493,-.012949,.016173,-.013571,0.0*
1,1,.00001,.016173,-.013571*
20,1,.00001,.016173,-.013571,.01378,-.01378,0.0*
1,1,.00001,.01378,-.01378*
20,1,.00001,.01378,-.01378,-.01378,-.01378,0.0*
1,1,.00001,-.01378,-.01378*
20,1,.00001,-.01378,-.01378,-.016173,-.013571,0.0*
1,1,.00001,-.016173,-.013571*
20,1,.00001,-.016173,-.013571,-.018493,-.012949,0.0*
1,1,.00001,-.018493,-.012949*
20,1,.00001,-.018493,-.012949,-.02067,-.011934,0.0*
1,1,.00001,-.02067,-.011934*
20,1,.00001,-.02067,-.011934,-.022638,-.010556,0.0*
1,1,.00001,-.022638,-.010556*
20,1,.00001,-.022638,-.010556,-.024336,-.008858,0.0*
1,1,.00001,-.024336,-.008858*
20,1,.00001,-.024336,-.008858,-.025714,-.00689,0.0*
1,1,.00001,-.025714,-.00689*
20,1,.00001,-.025714,-.00689,-.026729,-.004713,0.0*
1,1,.00001,-.026729,-.004713*
20,1,.00001,-.026729,-.004713,-.027351,-.002393,0.0*
1,1,.00001,-.027351,-.002393*
20,1,.00001,-.027351,-.002393,-.02756,0.0,0.0*
1,1,.00001,-.02756,0.0*
20,1,.00001,-.02756,0.0,-.027351,.002393,0.0*
1,1,.00001,-.027351,.002393*
20,1,.00001,-.027351,.002393,-.026729,.004713,0.0*
1,1,.00001,-.026729,.004713*
20,1,.00001,-.026729,.004713,-.025714,.00689,0.0*
1,1,.00001,-.025714,.00689*
20,1,.00001,-.025714,.00689,-.024336,.008858,0.0*
1,1,.00001,-.024336,.008858*
20,1,.00001,-.024336,.008858,-.022638,.010556,0.0*
1,1,.00001,-.022638,.010556*
20,1,.00001,-.022638,.010556,-.02067,.011934,0.0*
1,1,.00001,-.02067,.011934*
20,1,.00001,-.02067,.011934,-.018493,.012949,0.0*
1,1,.00001,-.018493,.012949*
20,1,.00001,-.018493,.012949,-.016173,.013571,0.0*
1,1,.00001,-.016173,.013571*
20,1,.00001,-.016173,.013571,-.01378,.01378,0.0*
1,1,.00001,-.01378,.01378*
1,1,.00001,-.00322,-.01034*
20,1,.00001,-.00322,-.01034,-.00161,-.01125,0.0*
1,1,.00001,-.00161,-.01125*
20,1,.00001,-.00161,-.01125,.00023,-.01148,0.0*
1,1,.00001,.00023,-.01148*
20,1,.00001,.00023,-.01148,.00184,-.01125,0.0*
1,1,.00001,.00184,-.01125*
20,1,.00001,.00184,-.01125,.00322,-.01011,0.0*
1,1,.00001,.00322,-.01011*
20,1,.00001,.00322,-.01011,.00413,-.0085,0.0*
1,1,.00001,.00413,-.0085*
20,1,.00001,.00413,-.0085,.00413,.0023,0.0*
1,1,.00001,.00413,.0023*
1,1,.00001,.00413,.00046*
20,1,.00001,.00413,.00046,.00322,.00138,0.0*
1,1,.00001,.00322,.00138*
20,1,.00001,.00322,.00138,.00184,.00207,0.0*
1,1,.00001,.00184,.00207*
20,1,.00001,.00184,.00207,.00023,.0023,0.0*
1,1,.00001,.00023,.0023*
20,1,.00001,.00023,.0023,-.00161,.00184,0.0*
1,1,.00001,-.00161,.00184*
20,1,.00001,-.00161,.00184,-.00276,.00092,0.0*
1,1,.00001,-.00276,.00092*
20,1,.00001,-.00276,.00092,-.00367,-.00069,0.0*
1,1,.00001,-.00367,-.00069*
20,1,.00001,-.00367,-.00069,-.00413,-.0023,0.0*
1,1,.00001,-.00413,-.0023*
20,1,.00001,-.00413,-.0023,-.0039,-.00367,0.0*
1,1,.00001,-.0039,-.00367*
20,1,.00001,-.0039,-.00367,-.00299,-.00528,0.0*
1,1,.00001,-.00299,-.00528*
20,1,.00001,-.00299,-.00528,-.00161,-.00643,0.0*
1,1,.00001,-.00161,-.00643*
20,1,.00001,-.00161,-.00643,.00023,-.00689,0.0*
1,1,.00001,.00023,-.00689*
20,1,.00001,.00023,-.00689,.00161,-.00666,0.0*
1,1,.00001,.00161,-.00666*
20,1,.00001,.00161,-.00666,.00322,-.00574,0.0*
1,1,.00001,.00322,-.00574*
20,1,.00001,.00322,-.00574,.00413,-.00482,0.0*
1,1,.00001,.00413,-.00482*
%
%ADD14MACRO14*%
%AMMACRO20*
1,1,.00001,-.01378,-.01968*
20,1,.00001,-.01378,-.01968,-.01378,.01968,0.0*
1,1,.00001,-.01378,.01968*
20,1,.00001,-.01378,.01968,-.013571,.022073,0.0*
1,1,.00001,-.013571,.022073*
20,1,.00001,-.013571,.022073,-.012949,.024393,0.0*
1,1,.00001,-.012949,.024393*
20,1,.00001,-.012949,.024393,-.011934,.02657,0.0*
1,1,.00001,-.011934,.02657*
20,1,.00001,-.011934,.02657,-.010556,.028538,0.0*
1,1,.00001,-.010556,.028538*
20,1,.00001,-.010556,.028538,-.008858,.030236,0.0*
1,1,.00001,-.008858,.030236*
20,1,.00001,-.008858,.030236,-.00689,.031614,0.0*
1,1,.00001,-.00689,.031614*
20,1,.00001,-.00689,.031614,-.004713,.032629,0.0*
1,1,.00001,-.004713,.032629*
20,1,.00001,-.004713,.032629,-.002393,.033251,0.0*
1,1,.00001,-.002393,.033251*
20,1,.00001,-.002393,.033251,0.0,.03346,0.0*
1,1,.00001,0.0,.03346*
20,1,.00001,0.0,.03346,.002393,.033251,0.0*
1,1,.00001,.002393,.033251*
20,1,.00001,.002393,.033251,.004713,.032629,0.0*
1,1,.00001,.004713,.032629*
20,1,.00001,.004713,.032629,.00689,.031614,0.0*
1,1,.00001,.00689,.031614*
20,1,.00001,.00689,.031614,.008858,.030236,0.0*
1,1,.00001,.008858,.030236*
20,1,.00001,.008858,.030236,.010556,.028538,0.0*
1,1,.00001,.010556,.028538*
20,1,.00001,.010556,.028538,.011934,.02657,0.0*
1,1,.00001,.011934,.02657*
20,1,.00001,.011934,.02657,.012949,.024393,0.0*
1,1,.00001,.012949,.024393*
20,1,.00001,.012949,.024393,.013571,.022073,0.0*
1,1,.00001,.013571,.022073*
20,1,.00001,.013571,.022073,.01378,.01968,0.0*
1,1,.00001,.01378,.01968*
20,1,.00001,.01378,.01968,.01378,-.01968,0.0*
1,1,.00001,.01378,-.01968*
20,1,.00001,.01378,-.01968,.013571,-.022073,0.0*
1,1,.00001,.013571,-.022073*
20,1,.00001,.013571,-.022073,.012949,-.024393,0.0*
1,1,.00001,.012949,-.024393*
20,1,.00001,.012949,-.024393,.011934,-.02657,0.0*
1,1,.00001,.011934,-.02657*
20,1,.00001,.011934,-.02657,.010556,-.028538,0.0*
1,1,.00001,.010556,-.028538*
20,1,.00001,.010556,-.028538,.008858,-.030236,0.0*
1,1,.00001,.008858,-.030236*
20,1,.00001,.008858,-.030236,.00689,-.031614,0.0*
1,1,.00001,.00689,-.031614*
20,1,.00001,.00689,-.031614,.004713,-.032629,0.0*
1,1,.00001,.004713,-.032629*
20,1,.00001,.004713,-.032629,.002393,-.033251,0.0*
1,1,.00001,.002393,-.033251*
20,1,.00001,.002393,-.033251,0.0,-.03346,0.0*
1,1,.00001,0.0,-.03346*
20,1,.00001,0.0,-.03346,-.002393,-.033251,0.0*
1,1,.00001,-.002393,-.033251*
20,1,.00001,-.002393,-.033251,-.004713,-.032629,0.0*
1,1,.00001,-.004713,-.032629*
20,1,.00001,-.004713,-.032629,-.00689,-.031614,0.0*
1,1,.00001,-.00689,-.031614*
20,1,.00001,-.00689,-.031614,-.008858,-.030236,0.0*
1,1,.00001,-.008858,-.030236*
20,1,.00001,-.008858,-.030236,-.010556,-.028538,0.0*
1,1,.00001,-.010556,-.028538*
20,1,.00001,-.010556,-.028538,-.011934,-.02657,0.0*
1,1,.00001,-.011934,-.02657*
20,1,.00001,-.011934,-.02657,-.012949,-.024393,0.0*
1,1,.00001,-.012949,-.024393*
20,1,.00001,-.012949,-.024393,-.013571,-.022073,0.0*
1,1,.00001,-.013571,-.022073*
20,1,.00001,-.013571,-.022073,-.01378,-.01968,0.0*
1,1,.00001,-.01378,-.01968*
1,1,.00001,-.00322,-.01034*
20,1,.00001,-.00322,-.01034,-.00161,-.01125,0.0*
1,1,.00001,-.00161,-.01125*
20,1,.00001,-.00161,-.01125,.00023,-.01148,0.0*
1,1,.00001,.00023,-.01148*
20,1,.00001,.00023,-.01148,.00184,-.01125,0.0*
1,1,.00001,.00184,-.01125*
20,1,.00001,.00184,-.01125,.00322,-.01011,0.0*
1,1,.00001,.00322,-.01011*
20,1,.00001,.00322,-.01011,.00413,-.0085,0.0*
1,1,.00001,.00413,-.0085*
20,1,.00001,.00413,-.0085,.00413,.0023,0.0*
1,1,.00001,.00413,.0023*
1,1,.00001,.00413,.00046*
20,1,.00001,.00413,.00046,.00322,.00138,0.0*
1,1,.00001,.00322,.00138*
20,1,.00001,.00322,.00138,.00184,.00207,0.0*
1,1,.00001,.00184,.00207*
20,1,.00001,.00184,.00207,.00023,.0023,0.0*
1,1,.00001,.00023,.0023*
20,1,.00001,.00023,.0023,-.00161,.00184,0.0*
1,1,.00001,-.00161,.00184*
20,1,.00001,-.00161,.00184,-.00276,.00092,0.0*
1,1,.00001,-.00276,.00092*
20,1,.00001,-.00276,.00092,-.00367,-.00069,0.0*
1,1,.00001,-.00367,-.00069*
20,1,.00001,-.00367,-.00069,-.00413,-.0023,0.0*
1,1,.00001,-.00413,-.0023*
20,1,.00001,-.00413,-.0023,-.0039,-.00367,0.0*
1,1,.00001,-.0039,-.00367*
20,1,.00001,-.0039,-.00367,-.00299,-.00528,0.0*
1,1,.00001,-.00299,-.00528*
20,1,.00001,-.00299,-.00528,-.00161,-.00643,0.0*
1,1,.00001,-.00161,-.00643*
20,1,.00001,-.00161,-.00643,.00023,-.00689,0.0*
1,1,.00001,.00023,-.00689*
20,1,.00001,.00023,-.00689,.00161,-.00666,0.0*
1,1,.00001,.00161,-.00666*
20,1,.00001,.00161,-.00666,.00322,-.00574,0.0*
1,1,.00001,.00322,-.00574*
20,1,.00001,.00322,-.00574,.00413,-.00482,0.0*
1,1,.00001,.00413,-.00482*
%
%ADD20MACRO20*%
%AMMACRO17*
1,1,.00001,-.019685,.01378*
20,1,.00001,-.019685,.01378,.019685,.01378,0.0*
1,1,.00001,.019685,.01378*
20,1,.00001,.019685,.01378,.022078,.013571,0.0*
1,1,.00001,.022078,.013571*
20,1,.00001,.022078,.013571,.024398,.012949,0.0*
1,1,.00001,.024398,.012949*
20,1,.00001,.024398,.012949,.026575,.011934,0.0*
1,1,.00001,.026575,.011934*
20,1,.00001,.026575,.011934,.028543,.010556,0.0*
1,1,.00001,.028543,.010556*
20,1,.00001,.028543,.010556,.030241,.008858,0.0*
1,1,.00001,.030241,.008858*
20,1,.00001,.030241,.008858,.031619,.00689,0.0*
1,1,.00001,.031619,.00689*
20,1,.00001,.031619,.00689,.032634,.004713,0.0*
1,1,.00001,.032634,.004713*
20,1,.00001,.032634,.004713,.033256,.002393,0.0*
1,1,.00001,.033256,.002393*
20,1,.00001,.033256,.002393,.033465,0.0,0.0*
1,1,.00001,.033465,0.0*
20,1,.00001,.033465,0.0,.033256,-.002393,0.0*
1,1,.00001,.033256,-.002393*
20,1,.00001,.033256,-.002393,.032634,-.004713,0.0*
1,1,.00001,.032634,-.004713*
20,1,.00001,.032634,-.004713,.031619,-.00689,0.0*
1,1,.00001,.031619,-.00689*
20,1,.00001,.031619,-.00689,.030241,-.008858,0.0*
1,1,.00001,.030241,-.008858*
20,1,.00001,.030241,-.008858,.028543,-.010556,0.0*
1,1,.00001,.028543,-.010556*
20,1,.00001,.028543,-.010556,.026575,-.011934,0.0*
1,1,.00001,.026575,-.011934*
20,1,.00001,.026575,-.011934,.024398,-.012949,0.0*
1,1,.00001,.024398,-.012949*
20,1,.00001,.024398,-.012949,.022078,-.013571,0.0*
1,1,.00001,.022078,-.013571*
20,1,.00001,.022078,-.013571,.019685,-.01378,0.0*
1,1,.00001,.019685,-.01378*
20,1,.00001,.019685,-.01378,-.019685,-.01378,0.0*
1,1,.00001,-.019685,-.01378*
20,1,.00001,-.019685,-.01378,-.022078,-.013571,0.0*
1,1,.00001,-.022078,-.013571*
20,1,.00001,-.022078,-.013571,-.024398,-.012949,0.0*
1,1,.00001,-.024398,-.012949*
20,1,.00001,-.024398,-.012949,-.026575,-.011934,0.0*
1,1,.00001,-.026575,-.011934*
20,1,.00001,-.026575,-.011934,-.028543,-.010556,0.0*
1,1,.00001,-.028543,-.010556*
20,1,.00001,-.028543,-.010556,-.030241,-.008858,0.0*
1,1,.00001,-.030241,-.008858*
20,1,.00001,-.030241,-.008858,-.031619,-.00689,0.0*
1,1,.00001,-.031619,-.00689*
20,1,.00001,-.031619,-.00689,-.032634,-.004713,0.0*
1,1,.00001,-.032634,-.004713*
20,1,.00001,-.032634,-.004713,-.033256,-.002393,0.0*
1,1,.00001,-.033256,-.002393*
20,1,.00001,-.033256,-.002393,-.033465,0.0,0.0*
1,1,.00001,-.033465,0.0*
20,1,.00001,-.033465,0.0,-.033256,.002393,0.0*
1,1,.00001,-.033256,.002393*
20,1,.00001,-.033256,.002393,-.032634,.004713,0.0*
1,1,.00001,-.032634,.004713*
20,1,.00001,-.032634,.004713,-.031619,.00689,0.0*
1,1,.00001,-.031619,.00689*
20,1,.00001,-.031619,.00689,-.030241,.008858,0.0*
1,1,.00001,-.030241,.008858*
20,1,.00001,-.030241,.008858,-.028543,.010556,0.0*
1,1,.00001,-.028543,.010556*
20,1,.00001,-.028543,.010556,-.026575,.011934,0.0*
1,1,.00001,-.026575,.011934*
20,1,.00001,-.026575,.011934,-.024398,.012949,0.0*
1,1,.00001,-.024398,.012949*
20,1,.00001,-.024398,.012949,-.022078,.013571,0.0*
1,1,.00001,-.022078,.013571*
20,1,.00001,-.022078,.013571,-.019685,.01378,0.0*
1,1,.00001,-.019685,.01378*
1,1,.00001,-.00322,-.01034*
20,1,.00001,-.00322,-.01034,-.00161,-.01125,0.0*
1,1,.00001,-.00161,-.01125*
20,1,.00001,-.00161,-.01125,.00023,-.01148,0.0*
1,1,.00001,.00023,-.01148*
20,1,.00001,.00023,-.01148,.00184,-.01125,0.0*
1,1,.00001,.00184,-.01125*
20,1,.00001,.00184,-.01125,.00322,-.01011,0.0*
1,1,.00001,.00322,-.01011*
20,1,.00001,.00322,-.01011,.00413,-.0085,0.0*
1,1,.00001,.00413,-.0085*
20,1,.00001,.00413,-.0085,.00413,.0023,0.0*
1,1,.00001,.00413,.0023*
1,1,.00001,.00413,.00046*
20,1,.00001,.00413,.00046,.00322,.00138,0.0*
1,1,.00001,.00322,.00138*
20,1,.00001,.00322,.00138,.00184,.00207,0.0*
1,1,.00001,.00184,.00207*
20,1,.00001,.00184,.00207,.00023,.0023,0.0*
1,1,.00001,.00023,.0023*
20,1,.00001,.00023,.0023,-.00161,.00184,0.0*
1,1,.00001,-.00161,.00184*
20,1,.00001,-.00161,.00184,-.00276,.00092,0.0*
1,1,.00001,-.00276,.00092*
20,1,.00001,-.00276,.00092,-.00367,-.00069,0.0*
1,1,.00001,-.00367,-.00069*
20,1,.00001,-.00367,-.00069,-.00413,-.0023,0.0*
1,1,.00001,-.00413,-.0023*
20,1,.00001,-.00413,-.0023,-.0039,-.00367,0.0*
1,1,.00001,-.0039,-.00367*
20,1,.00001,-.0039,-.00367,-.00299,-.00528,0.0*
1,1,.00001,-.00299,-.00528*
20,1,.00001,-.00299,-.00528,-.00161,-.00643,0.0*
1,1,.00001,-.00161,-.00643*
20,1,.00001,-.00161,-.00643,.00023,-.00689,0.0*
1,1,.00001,.00023,-.00689*
20,1,.00001,.00023,-.00689,.00161,-.00666,0.0*
1,1,.00001,.00161,-.00666*
20,1,.00001,.00161,-.00666,.00322,-.00574,0.0*
1,1,.00001,.00322,-.00574*
20,1,.00001,.00322,-.00574,.00413,-.00482,0.0*
1,1,.00001,.00413,-.00482*
%
%ADD17MACRO17*%
%AMMACRO22*
1,1,.00001,.02625,-.03937*
20,1,.00001,.02625,-.03937,-.02625,-.03937,0.0*
1,1,.00001,-.02625,-.03937*
20,1,.00001,-.02625,-.03937,-.02625,.03937,0.0*
1,1,.00001,-.02625,.03937*
20,1,.00001,-.02625,.03937,.02625,.03937,0.0*
1,1,.00001,.02625,.03937*
1,1,.00001,.00525,.00131*
20,1,.00001,.00525,.00131,-.02625,.00131,0.0*
1,1,.00001,-.02625,.00131*
%
%ADD22MACRO22*%
%AMMACRO16*
1,1,.00001,.013,.02166*
20,1,.00001,.013,.02166,.013,-.02165,0.0*
1,1,.00001,.013,-.02165*
1,1,.00001,.013,-.01515*
20,1,.00001,.013,-.01515,.01011,-.01876,0.0*
1,1,.00001,.01011,-.01876*
20,1,.00001,.01011,-.01876,.00578,-.02093,0.0*
1,1,.00001,.00578,-.02093*
20,1,.00001,.00578,-.02093,.00073,-.02165,0.0*
1,1,.00001,.00073,-.02165*
20,1,.00001,.00073,-.02165,-.00505,-.02021,0.0*
1,1,.00001,-.00505,-.02021*
20,1,.00001,-.00505,-.02021,-.00938,-.0166,0.0*
1,1,.00001,-.00938,-.0166*
20,1,.00001,-.00938,-.0166,-.01227,-.01227,0.0*
1,1,.00001,-.01227,-.01227*
20,1,.00001,-.01227,-.01227,-.01299,-.00721,0.0*
1,1,.00001,-.01299,-.00721*
20,1,.00001,-.01299,-.00721,-.01227,-.00216,0.0*
1,1,.00001,-.01227,-.00216*
20,1,.00001,-.01227,-.00216,-.00938,.00217,0.0*
1,1,.00001,-.00938,.00217*
20,1,.00001,-.00938,.00217,-.00505,.00578,0.0*
1,1,.00001,-.00505,.00578*
20,1,.00001,-.00505,.00578,.00073,.00722,0.0*
1,1,.00001,.00073,.00722*
20,1,.00001,.00073,.00722,.00578,.0065,0.0*
1,1,.00001,.00578,.0065*
20,1,.00001,.00578,.0065,.00939,.00506,0.0*
1,1,.00001,.00939,.00506*
20,1,.00001,.00939,.00506,.013,.00217,0.0*
1,1,.00001,.013,.00217*
%
%ADD16MACRO16*%
%AMMACRO19*
1,1,.00001,-.00433,-.02165*
20,1,.00001,-.00433,-.02165,-.00433,.01516,0.0*
1,1,.00001,-.00433,.01516*
20,1,.00001,-.00433,.01516,-.00288,.01877,0.0*
1,1,.00001,-.00288,.01877*
20,1,.00001,-.00288,.01877,0.0,.02094,0.0*
1,1,.00001,0.0,.02094*
20,1,.00001,0.0,.02094,.00434,.02166,0.0*
1,1,.00001,.00434,.02166*
20,1,.00001,.00434,.02166,.00867,.02022,0.0*
1,1,.00001,.00867,.02022*
20,1,.00001,.00867,.02022,.01083,.01661,0.0*
1,1,.00001,.01083,.01661*
1,1,.00001,.00217,.00434*
20,1,.00001,.00217,.00434,-.01227,.00434,0.0*
1,1,.00001,-.01227,.00434*
%
%ADD19MACRO19*%
%AMMACRO10*
1,1,.00001,-.02625,-.02362*
20,1,.00001,-.02625,-.02362,-.01968,-.0315,0.0*
1,1,.00001,-.01968,-.0315*
20,1,.00001,-.01968,-.0315,-.01181,-.03675,0.0*
1,1,.00001,-.01181,-.03675*
20,1,.00001,-.01181,-.03675,-.00263,-.03937,0.0*
1,1,.00001,-.00263,-.03937*
20,1,.00001,-.00263,-.03937,.00787,-.03675,0.0*
1,1,.00001,.00787,-.03675*
20,1,.00001,.00787,-.03675,.01575,-.0315,0.0*
1,1,.00001,.01575,-.0315*
20,1,.00001,.01575,-.0315,.02362,-.02362,0.0*
1,1,.00001,.02362,-.02362*
20,1,.00001,.02362,-.02362,.02625,-.01312,0.0*
1,1,.00001,.02625,-.01312*
20,1,.00001,.02625,-.01312,.02625,.03937,0.0*
1,1,.00001,.02625,.03937*
%
%ADD10MACRO10*%
%AMMACRO11*
1,1,.00001,-.0101,-.03248*
20,1,.00001,-.0101,-.03248,-.00505,-.03536,0.0*
1,1,.00001,-.00505,-.03536*
20,1,.00001,-.00505,-.03536,.00073,-.03609,0.0*
1,1,.00001,.00073,-.03609*
20,1,.00001,.00073,-.03609,.00578,-.03536,0.0*
1,1,.00001,.00578,-.03536*
20,1,.00001,.00578,-.03536,.01011,-.03176,0.0*
1,1,.00001,.01011,-.03176*
20,1,.00001,.01011,-.03176,.013,-.0267,0.0*
1,1,.00001,.013,-.0267*
20,1,.00001,.013,-.0267,.013,.00722,0.0*
1,1,.00001,.013,.00722*
1,1,.00001,.013,.00145*
20,1,.00001,.013,.00145,.01011,.00434,0.0*
1,1,.00001,.01011,.00434*
20,1,.00001,.01011,.00434,.00578,.0065,0.0*
1,1,.00001,.00578,.0065*
20,1,.00001,.00578,.0065,.00073,.00722,0.0*
1,1,.00001,.00073,.00722*
20,1,.00001,.00073,.00722,-.00505,.00578,0.0*
1,1,.00001,-.00505,.00578*
20,1,.00001,-.00505,.00578,-.00866,.00289,0.0*
1,1,.00001,-.00866,.00289*
20,1,.00001,-.00866,.00289,-.01155,-.00216,0.0*
1,1,.00001,-.01155,-.00216*
20,1,.00001,-.01155,-.00216,-.01299,-.00721,0.0*
1,1,.00001,-.01299,-.00721*
20,1,.00001,-.01299,-.00721,-.01227,-.01155,0.0*
1,1,.00001,-.01227,-.01155*
20,1,.00001,-.01227,-.01155,-.00938,-.0166,0.0*
1,1,.00001,-.00938,-.0166*
20,1,.00001,-.00938,-.0166,-.00505,-.02021,0.0*
1,1,.00001,-.00505,-.02021*
20,1,.00001,-.00505,-.02021,.00073,-.02165,0.0*
1,1,.00001,.00073,-.02165*
20,1,.00001,.00073,-.02165,.00506,-.02093,0.0*
1,1,.00001,.00506,-.02093*
20,1,.00001,.00506,-.02093,.01011,-.01804,0.0*
1,1,.00001,.01011,-.01804*
20,1,.00001,.01011,-.01804,.013,-.01515,0.0*
1,1,.00001,.013,-.01515*
%
%ADD11MACRO11*%
%AMMACRO13*
1,1,.00001,-.01227,-.02165*
20,1,.00001,-.01227,-.02165,-.01227,.02166,0.0*
1,1,.00001,-.01227,.02166*
1,1,.00001,-.01227,.00073*
20,1,.00001,-.01227,.00073,-.00866,.00434,0.0*
1,1,.00001,-.00866,.00434*
20,1,.00001,-.00866,.00434,-.00505,.0065,0.0*
1,1,.00001,-.00505,.0065*
20,1,.00001,-.00505,.0065,.00073,.00722,0.0*
1,1,.00001,.00073,.00722*
20,1,.00001,.00073,.00722,.00506,.0065,0.0*
1,1,.00001,.00506,.0065*
20,1,.00001,.00506,.0065,.01011,.00361,0.0*
1,1,.00001,.01011,.00361*
20,1,.00001,.01011,.00361,.01228,-.00072,0.0*
1,1,.00001,.01228,-.00072*
20,1,.00001,.01228,-.00072,.01228,-.02165,0.0*
1,1,.00001,.01228,-.02165*
%
%ADD13MACRO13*%
%AMMACRO18*
1,1,.00001,-.03412,-.03937*
20,1,.00001,-.03412,-.03937,-.03412,.03937,0.0*
1,1,.00001,-.03412,.03937*
20,1,.00001,-.03412,.03937,0.0,-.02625,0.0*
1,1,.00001,0.0,-.02625*
20,1,.00001,0.0,-.02625,.03412,.03937,0.0*
1,1,.00001,.03412,.03937*
20,1,.00001,.03412,.03937,.03412,-.03937,0.0*
1,1,.00001,.03412,-.03937*
%
%ADD18MACRO18*%
%AMMACRO15*
1,1,.00001,-.02165,-.02165*
20,1,.00001,-.02165,-.02165,-.02165,.00722,0.0*
1,1,.00001,-.02165,.00722*
1,1,.00001,-.02165,-.00072*
20,1,.00001,-.02165,-.00072,-.01948,.00289,0.0*
1,1,.00001,-.01948,.00289*
20,1,.00001,-.01948,.00289,-.01588,.00578,0.0*
1,1,.00001,-.01588,.00578*
20,1,.00001,-.01588,.00578,-.01082,.00722,0.0*
1,1,.00001,-.01082,.00722*
20,1,.00001,-.01082,.00722,-.00577,.00578,0.0*
1,1,.00001,-.00577,.00578*
20,1,.00001,-.00577,.00578,-.00216,.00289,0.0*
1,1,.00001,-.00216,.00289*
20,1,.00001,-.00216,.00289,0.0,-.00072,0.0*
1,1,.00001,0.0,-.00072*
20,1,.00001,0.0,-.00072,0.0,-.02165,0.0*
1,1,.00001,0.0,-.02165*
1,1,.00001,0.0,-.00072*
20,1,.00001,0.0,-.00072,.00217,.00289,0.0*
1,1,.00001,.00217,.00289*
20,1,.00001,.00217,.00289,.00578,.00578,0.0*
1,1,.00001,.00578,.00578*
20,1,.00001,.00578,.00578,.01083,.00722,0.0*
1,1,.00001,.01083,.00722*
20,1,.00001,.01083,.00722,.01589,.00578,0.0*
1,1,.00001,.01589,.00578*
20,1,.00001,.01589,.00578,.01949,.00289,0.0*
1,1,.00001,.01949,.00289*
20,1,.00001,.01949,.00289,.02166,-.00144,0.0*
1,1,.00001,.02166,-.00144*
20,1,.00001,.02166,-.00144,.02166,-.02165,0.0*
1,1,.00001,.02166,-.02165*
%
%ADD15MACRO15*%
%ADD24C,.00001*%
%ADD25C,.006*%
G75*
%LPD*%
G75*
G54D10*
X15000Y15000D03*
Y323400D03*
X128409Y-167965D03*
X425000Y15000D03*
Y323400D03*
G54D11*
X13400Y101400D03*
Y91400D03*
Y81400D03*
Y121400D03*
Y111400D03*
X23400Y81400D03*
Y101400D03*
Y91400D03*
Y121400D03*
Y111400D03*
X128409Y-102965D03*
X128473Y185065D03*
X158473D03*
Y155065D03*
X128473D03*
Y238923D03*
X158473D03*
Y208923D03*
X128473D03*
X239529Y299950D03*
Y309793D03*
X258033D03*
X247797D03*
X266301Y299950D03*
Y309793D03*
X433107Y139394D03*
Y147268D03*
X433114Y179708D03*
Y187582D03*
G54D20*
X128409Y-232965D03*
X263254Y27544D03*
X229238D03*
X310003D03*
X275987D03*
X292139Y310682D03*
X326155D03*
G54D12*
X11249Y69613D03*
X7907Y34091D03*
X19086Y46940D03*
X8388Y49734D03*
X7779Y171383D03*
X6045Y125316D03*
X10671Y136110D03*
X16765Y147424D03*
X11428D03*
X16765Y151217D03*
Y143631D03*
X6200Y264235D03*
X6623Y193356D03*
X6045Y212438D03*
X4695Y199138D03*
X16765Y204733D03*
Y212319D03*
X11428Y208526D03*
X8125Y230590D03*
Y235590D03*
Y240590D03*
Y245590D03*
Y250590D03*
X13125D03*
Y245590D03*
Y240590D03*
Y235590D03*
Y230590D03*
X18125D03*
Y235590D03*
Y240590D03*
Y245590D03*
Y250590D03*
X6166Y290629D03*
X6200Y272271D03*
X6166Y298665D03*
X67530Y9063D03*
X27632Y25482D03*
X95091Y22362D03*
X91329Y17025D03*
X33989Y22362D03*
Y11688D03*
X30227Y17025D03*
X37751D03*
X100602Y4355D03*
X87961Y34312D03*
X66567Y36047D03*
X55003Y81326D03*
X26476Y69420D03*
X21014Y56578D03*
X29366Y40001D03*
X24226Y32934D03*
X87278Y81327D03*
X79754D03*
X83516Y84007D03*
Y78647D03*
X99874D03*
Y84007D03*
X96112Y81327D03*
Y96363D03*
X99874Y99043D03*
Y93683D03*
X83516D03*
Y99043D03*
X79754Y96363D03*
X72088Y106121D03*
X46718Y93753D03*
X58461Y106580D03*
X33989Y51058D03*
X91784D03*
X88415Y55214D03*
X91784Y59370D03*
X95153Y55214D03*
X30620D03*
X33989Y59370D03*
X51311Y54601D03*
X76903Y63220D03*
X80841D03*
X38481Y101413D03*
X87278Y96363D03*
X77151Y104459D03*
X64150Y101461D03*
X60506Y97561D03*
X68860Y106121D03*
X66447Y87591D03*
X85960Y63043D03*
X89860Y66687D03*
X38682Y93753D03*
X51555Y97564D03*
X47105Y99444D03*
X48409Y101487D03*
X74440Y89986D03*
X47105Y103382D03*
X68634Y54601D03*
X64304D03*
X58046Y68788D03*
X60611Y54470D03*
X28981Y184104D03*
X25126Y174274D03*
X28596Y130713D03*
X30138Y137073D03*
X77299Y138161D03*
X68851D03*
X63584D03*
X65759Y159258D03*
X62755Y149371D03*
X62763Y140782D03*
X82136Y149830D03*
Y144331D03*
X53203Y159590D03*
X65759Y165371D03*
Y169309D03*
Y177185D03*
X93248Y171642D03*
X88248D03*
X83248D03*
Y176642D03*
X88248D03*
X93248D03*
Y181642D03*
X88248D03*
X83248D03*
X75962Y142679D03*
X67300Y149371D03*
X94880Y154176D03*
X90942D03*
X83066D03*
X96619Y117572D03*
X67910Y135641D03*
X58461Y110518D03*
X65759Y181123D03*
X33859Y148372D03*
X55523Y140770D03*
X94761Y148819D03*
X97012Y140717D03*
X65691Y154684D03*
X77570Y158763D03*
X71391Y177185D03*
X67910Y115168D03*
X56057Y138084D03*
X89218Y163833D03*
X93076Y163786D03*
X97885Y153474D03*
X97189Y150999D03*
X83066Y159808D03*
X99836Y135061D03*
X52829Y126270D03*
X51029Y140240D03*
X52280Y169744D03*
X56057Y114456D03*
Y118394D03*
Y122332D03*
Y130208D03*
Y134146D03*
X87004Y154176D03*
X98077Y185492D03*
X94880Y159808D03*
X90942D03*
X96619Y133237D03*
X93391Y117572D03*
X82038Y120286D03*
Y122845D03*
Y125405D03*
X99023Y127964D03*
X82038Y130523D03*
Y133082D03*
X65759Y173247D03*
X45498Y217681D03*
X49436D03*
X94867Y200406D03*
X98725Y212416D03*
Y209266D03*
X51631Y264147D03*
X32258Y215136D03*
X27825Y195283D03*
X98725Y204542D03*
X84959Y249002D03*
X94940D03*
X60281Y207428D03*
X98095Y200406D03*
X91743Y241746D03*
X80371Y234599D03*
Y230661D03*
Y222785D03*
X72810Y231183D03*
X61896Y235201D03*
X56896D03*
X51896D03*
Y240201D03*
X56896D03*
X61896D03*
Y245201D03*
X56896D03*
X51896D03*
X34067Y227613D03*
X37108Y227689D03*
X57312Y217681D03*
X53374D03*
X83314Y196666D03*
X67999Y196843D03*
X98095Y195330D03*
X67999Y200781D03*
X41046Y227689D03*
X34067Y252809D03*
X39512Y248360D03*
X44368Y242180D03*
X69142Y255441D03*
X77888Y225781D03*
X57973Y266551D03*
X80371Y218847D03*
X99442Y226723D03*
X22102Y208526D03*
X33859Y207428D03*
X54954Y200122D03*
X71546Y252213D03*
X84959Y256640D03*
X94940D03*
X70403Y190501D03*
X77453Y243738D03*
X96354Y189477D03*
X93777Y189591D03*
X87872D03*
X77453Y237484D03*
X26149Y237258D03*
Y241195D03*
X77888Y255441D03*
X91187Y189469D03*
X77888Y229009D03*
X80371Y226723D03*
X88407Y218847D03*
X85281Y189469D03*
X92381Y256640D03*
X82400D03*
X97499Y249002D03*
X87518D03*
X71555Y237484D03*
X52527Y259888D03*
X65006Y191680D03*
X92381Y249002D03*
X82400D03*
X51519Y290615D03*
X36363Y291732D03*
X31808Y318715D03*
X81242Y324149D03*
X64106Y316825D03*
X63527Y329353D03*
X35965D03*
X55457Y298651D03*
X51631Y272183D03*
X51519Y298651D03*
X45729Y279226D03*
X41967Y283776D03*
X25078Y279226D03*
X21316Y283776D03*
X45593Y305686D03*
X41831Y310236D03*
X21316D03*
X25078Y305686D03*
X56591Y278290D03*
X70780Y304469D03*
X55457Y293019D03*
X83300Y304728D03*
X57973Y269779D03*
X61799Y296247D03*
X78654Y285164D03*
X128409Y-63965D03*
X120933Y3615D03*
X139898Y11618D03*
X122530Y22371D03*
X138384Y5532D03*
X179825Y20200D03*
X161151D03*
X148472Y11538D03*
X103282Y8117D03*
Y24475D03*
X105686Y4355D03*
Y20713D03*
X144534Y11538D03*
X149435Y3543D03*
X121410Y12224D03*
X138246Y17553D03*
X144534Y17170D03*
X148472D03*
X169890Y3236D03*
X162366D03*
X166128Y5916D03*
X178724Y3236D03*
X168789Y20200D03*
X179825Y22759D03*
X161151Y17641D03*
X179825D03*
X176850Y26779D03*
X168789Y22759D03*
X137469Y37915D03*
X180821Y28159D03*
X179825Y42000D03*
X142468Y107163D03*
X103636Y81327D03*
Y96363D03*
X160411Y55174D03*
X125249Y69968D03*
X139029Y27634D03*
X106178Y28838D03*
Y32776D03*
X123106Y31746D03*
X105628Y63418D03*
X106178Y36714D03*
X144145Y87971D03*
X129187Y69968D03*
X160411Y59112D03*
X182181Y56916D03*
X156570Y49462D03*
X160064Y44409D03*
X161151Y31100D03*
X154429Y100143D03*
X128342Y61722D03*
X144145Y82971D03*
X154779Y65454D03*
X105962Y59495D03*
X119218Y63418D03*
X125249Y64336D03*
X128007Y77971D03*
Y72971D03*
X129187Y64336D03*
X135529D03*
X154779Y55174D03*
X168789Y31100D03*
X169583Y47907D03*
X111810Y32776D03*
X105962Y43137D03*
X158009Y29595D03*
X161151Y33659D03*
X179825D03*
X168789Y28541D03*
X181443Y38801D03*
X168719D03*
X158287Y100143D03*
X109102Y102487D03*
Y87451D03*
X177282Y75752D03*
X161151Y28541D03*
X144343Y31746D03*
X147992Y33714D03*
X144343Y35683D03*
X147992Y37651D03*
X179825Y44559D03*
X130498Y47063D03*
X167101Y44559D03*
X133780Y47063D03*
X135529Y67564D03*
X147888Y62593D03*
X144934Y65090D03*
X128007Y82971D03*
X177500Y94460D03*
Y99140D03*
X172500Y94460D03*
Y99140D03*
X161515Y97739D03*
X168789Y33659D03*
X129096Y139027D03*
X139054Y148512D03*
X164045Y186796D03*
X172477Y158502D03*
X164045Y161058D03*
Y164996D03*
X168283Y130192D03*
X160759D03*
X164521Y132872D03*
X148163D03*
X144401Y130192D03*
X151925D03*
X164521Y108689D03*
X148163D03*
X168283Y111369D03*
X151925D03*
X142468Y111101D03*
X154354Y114124D03*
X164045Y168934D03*
X172194Y162911D03*
X104287Y180891D03*
X108631Y180573D03*
X116879Y165172D03*
X116988Y167880D03*
X116879Y157298D03*
Y149424D03*
X119140Y142082D03*
X180347Y111351D03*
X172119Y115877D03*
X140064Y121381D03*
X142468Y115039D03*
X169677Y164996D03*
Y161058D03*
X172182Y111968D03*
X169677Y168934D03*
Y186796D03*
X110243Y147273D03*
X119367Y149262D03*
X111590Y138400D03*
X116879Y136825D03*
Y139975D03*
X104643Y183896D03*
X161440Y114077D03*
X105604Y169144D03*
X105538Y155723D03*
X110029Y169242D03*
X107129Y162414D03*
X109862Y160862D03*
X107006Y158471D03*
X104463Y152573D03*
X119528Y145429D03*
X119276Y172736D03*
X158212Y114124D03*
X172225Y188502D03*
X170288Y176151D03*
X167802Y135352D03*
X171845Y137321D03*
X172439Y133384D03*
X110008Y176967D03*
X123150Y132131D03*
X128150D03*
X108825Y183016D03*
X104281Y213991D03*
X111323D03*
X104281Y210841D03*
X111323D03*
X116879Y212416D03*
Y209266D03*
X104619Y208269D03*
X110985D03*
X162274Y228889D03*
X110985Y205539D03*
X117759Y195612D03*
X135302Y195518D03*
X116879Y204542D03*
X111323Y202967D03*
X104281D03*
X117360Y191335D03*
X174788Y249002D03*
X167605Y255197D03*
X104921Y249002D03*
X114902D03*
X124883D03*
X134864D03*
X144845D03*
X154826D03*
X164045Y190734D03*
Y197730D03*
X181084Y221819D03*
X172096Y269088D03*
X116504Y244828D03*
X120442D03*
X108101Y241746D03*
X161285Y244828D03*
X171865Y193738D03*
X164045Y201668D03*
X172740Y201231D03*
X120490Y190971D03*
X104729Y205796D03*
X104162Y188794D03*
X149293Y193053D03*
X128216Y195518D03*
X111323Y188794D03*
X117759Y199550D03*
X121155Y198656D03*
X139160Y195518D03*
X144845Y256640D03*
X154826D03*
X164807D03*
X174788D03*
X104921D03*
X114902D03*
X124883D03*
X134864D03*
X181084Y216187D03*
X169677Y190734D03*
Y197730D03*
Y201668D03*
X142388Y195518D03*
X132074D03*
X123202Y227116D03*
X182210Y256640D03*
X172229D03*
X160060Y259615D03*
X152267Y256640D03*
X142286D03*
X132305D03*
X122324D03*
X112343D03*
X102362D03*
X182210Y249002D03*
X172229D03*
X162248Y254952D03*
X152267Y249002D03*
X117461D03*
X107480D03*
X142286D03*
X132305D03*
X122324D03*
X112343D03*
X102362D03*
X162011Y195457D03*
X166539Y229727D03*
X107401Y195612D03*
X124988Y195518D03*
X107401Y199550D03*
X157385Y249002D03*
X165430Y246216D03*
X176034Y269088D03*
X137423Y249002D03*
X179972Y269088D03*
X127442Y249002D03*
X177347D03*
X169423Y249274D03*
X120661Y314861D03*
X170694Y328662D03*
X130024Y332325D03*
X149106Y323378D03*
X102462Y312970D03*
X102655Y326655D03*
X180103Y314917D03*
X169423D03*
X161585D03*
X153961D03*
X145055D03*
X135268D03*
X124421Y287725D03*
X120013Y283317D03*
Y276533D03*
Y271959D03*
X129561Y309210D03*
X125981Y305630D03*
Y299826D03*
X107584Y281253D03*
X221464Y20739D03*
X256107Y8148D03*
X251107D03*
X246107D03*
X241107D03*
X236107D03*
Y13148D03*
X241107D03*
X246107D03*
X251107D03*
X256107D03*
Y18148D03*
X251107D03*
X246107D03*
X241107D03*
X236107D03*
X182486Y5916D03*
X186248Y3236D03*
X187463Y20200D03*
X245975Y26059D03*
X242693D03*
X229773Y48762D03*
X233648Y30103D03*
X258844D03*
X198702Y51305D03*
X221996Y65428D03*
X255238Y54659D03*
X250238D03*
X245238D03*
Y59659D03*
X250238D03*
X255238D03*
Y64659D03*
X250238D03*
X245238D03*
X233386Y74443D03*
X261556Y41023D03*
X255214D03*
X263191Y37103D03*
X235693D03*
X253747Y76413D03*
X221996Y69286D03*
X200961Y34814D03*
X248277Y46873D03*
X197384Y61436D03*
X192500Y99140D03*
X197500D03*
X212500D03*
X207500D03*
X202500D03*
X187500D03*
X217500D03*
X239018Y74443D03*
X224400Y62200D03*
X192500Y94460D03*
X197500D03*
X202500D03*
X207500D03*
X212500D03*
X187500D03*
X217500D03*
X187463Y42000D03*
X192366Y30411D03*
X205061Y75564D03*
X199943D03*
X207620Y72184D03*
X202502Y72145D03*
X210961Y34814D03*
X187463Y28541D03*
X215961Y34814D03*
X249199Y34062D03*
X245262D03*
X262222Y78381D03*
X233386D03*
X221996Y72514D03*
X195767Y69286D03*
X202560Y51305D03*
X195474D03*
X198614Y26948D03*
X207620Y61436D03*
X205061Y64816D03*
X202502Y61436D03*
X199943Y64816D03*
X262500Y99140D03*
Y94460D03*
X257500Y99140D03*
Y94460D03*
X247493Y80350D03*
X252500Y99140D03*
Y94460D03*
X247500Y99140D03*
Y94460D03*
X253747Y80350D03*
X242500Y99140D03*
Y94460D03*
X232500D03*
Y99140D03*
X227500Y94460D03*
Y99140D03*
X222500Y94460D03*
Y99140D03*
X182500Y94460D03*
Y99140D03*
X229165Y56576D03*
X251811Y74444D03*
X220416Y61436D03*
X215298Y64816D03*
X212739Y61436D03*
X210180Y64816D03*
X220416Y75564D03*
X215298D03*
X213279Y71618D03*
X210180Y79917D03*
X188135Y33915D03*
X187795Y44532D03*
X251352Y115423D03*
X257492Y160943D03*
X224921Y118710D03*
X189864Y110819D03*
X257492Y164880D03*
X229137Y115251D03*
X216238Y116013D03*
X239813Y114761D03*
X261860Y115636D03*
Y121771D03*
X222795Y115541D03*
X254449D03*
X226733D03*
X200730Y159455D03*
X205784Y157645D03*
X199928Y155430D03*
X253515Y186533D03*
X257492Y188502D03*
X182508Y184565D03*
X253515Y158974D03*
X253828Y155052D03*
X187036Y183570D03*
X247457Y170931D03*
X189419Y184259D03*
X189702Y177716D03*
X182508Y172754D03*
X184903Y170785D03*
X192163Y110892D03*
X203189Y153630D03*
X194921Y110852D03*
X205340Y150448D03*
X198070Y110687D03*
X201271Y110694D03*
X204377Y110535D03*
X251212Y168817D03*
X211676Y116035D03*
X185766Y131924D03*
X214371Y117878D03*
X218009Y118135D03*
X258191Y121556D03*
X220781Y118167D03*
X231540Y114761D03*
X230827Y118710D03*
X232932Y116862D03*
X234764Y118710D03*
X196177Y136152D03*
X234485Y114746D03*
X201349Y135321D03*
X237502Y114761D03*
X195375Y130994D03*
X240669Y118710D03*
X191232Y132544D03*
X242638Y115084D03*
X204106Y131998D03*
X244606Y118710D03*
X207245Y134211D03*
X246575Y115084D03*
X248543Y118710D03*
X252647Y118528D03*
X209465Y128639D03*
X257492Y153069D03*
X253523Y151100D03*
X253515Y170785D03*
X257492Y172754D03*
X218857Y115541D03*
X206974Y110421D03*
X213975Y115599D03*
X253515Y174722D03*
X257492Y176691D03*
X253831Y178659D03*
X253515Y182596D03*
X257492Y180628D03*
Y184565D03*
X182662Y166848D03*
X183521Y164541D03*
X185654Y161207D03*
X189797Y163180D03*
X193696Y162334D03*
X192923Y157878D03*
X199331Y213018D03*
X197362Y216995D03*
X195394Y213018D03*
X233035Y201680D03*
X244537Y236055D03*
Y229013D03*
X255561D03*
X255325Y241713D03*
X238795Y234751D03*
X257492Y194407D03*
X219340Y229013D03*
X213075Y219415D03*
X213041Y229013D03*
X220915Y241611D03*
X217765D03*
X219340Y236055D03*
X213041D03*
X224693Y249002D03*
X214712D03*
X204731D03*
X194750D03*
X184769D03*
X232795Y213018D03*
X185022Y221819D03*
X188960D03*
X234239D03*
X226363D03*
X183910Y269088D03*
X188096Y269226D03*
X219927Y201246D03*
X230301Y221819D03*
X192898D03*
X182508Y194407D03*
X183703Y213487D03*
X191288Y213223D03*
X228858Y213018D03*
X257492Y200313D03*
X230633Y229271D03*
X234674Y256640D03*
X184769D03*
X194750D03*
X204731D03*
X214712D03*
X224693D03*
X230301Y216187D03*
X185022D03*
X188960D03*
X234239D03*
X226363D03*
X216125D03*
X221244Y217250D03*
X192898Y216187D03*
X248543Y200379D03*
X246575Y203356D03*
X244606Y200379D03*
X242638Y203356D03*
X191324Y269226D03*
X251847Y262576D03*
X220160Y269226D03*
X225984Y266033D03*
X209891Y236055D03*
X211466Y241611D03*
X216191Y236055D03*
X214616Y241611D03*
X209891Y229013D03*
X216191D03*
X211466Y223457D03*
X214616D03*
X217224Y223244D03*
X240625Y259615D03*
X217271Y249002D03*
X207290D03*
X232115Y256640D03*
X222134D03*
X212153D03*
X202172D03*
X192191D03*
Y249002D03*
X202172D03*
X212153D03*
X222134D03*
X253024Y221819D03*
X232115Y249002D03*
X243947Y266869D03*
X255355Y246869D03*
X258710Y246933D03*
X261014Y245284D03*
X225572Y201142D03*
X219016Y213018D03*
X203268D03*
X213110Y215815D03*
X201299Y216995D03*
X208673Y216985D03*
X205236Y216995D03*
X207205Y213018D03*
X211142D03*
X197309Y249002D03*
X187328D03*
X256962Y221819D03*
X249086D03*
X243804Y231207D03*
X205728Y313711D03*
X225388Y303689D03*
X243166Y322109D03*
X210978Y333288D03*
X195751Y323073D03*
X185549Y276614D03*
Y286859D03*
Y295551D03*
Y305171D03*
X217756Y275568D03*
X199799Y271194D03*
X238085Y283230D03*
X249788Y282794D03*
X243947Y273961D03*
X261788Y274693D03*
X231616Y277099D03*
X253694Y274560D03*
X214528Y275568D03*
X241313Y280826D03*
X256042Y278857D03*
X193849Y273163D03*
X206053D03*
X265494Y38619D03*
X269432D03*
X321102Y80212D03*
X334594Y71539D03*
X281140Y69835D03*
X295917Y47960D03*
X280397Y30103D03*
X305593D03*
X342873Y98485D03*
X337873Y100889D03*
X332873D03*
X327873D03*
X309022Y100496D03*
X304022D03*
X299022D03*
X268923Y51145D03*
X265450Y75977D03*
X294022Y100496D03*
Y94864D03*
X299022D03*
X309022D03*
X327873Y63649D03*
X332873D03*
X337873D03*
X342873D03*
X309022Y63264D03*
X304022D03*
X299022D03*
X294022D03*
X267500Y99140D03*
Y94460D03*
X327873Y95257D03*
X337873D03*
X342873D03*
X332873D03*
X339106Y128263D03*
X332083Y146765D03*
X329335Y114928D03*
X337641Y145011D03*
X296032Y178553D03*
X296094Y176253D03*
X324279Y144699D03*
X329835Y139975D03*
Y146274D03*
Y158873D03*
X329977Y170745D03*
X330672Y180920D03*
X287116Y149919D03*
X287768Y142046D03*
X294541Y146960D03*
X317237Y139975D03*
Y146274D03*
X319701Y158108D03*
X317237Y169896D03*
X317212Y184985D03*
X310158Y126377D03*
Y132161D03*
Y139247D03*
Y146333D03*
X273498Y133265D03*
X299600Y157834D03*
X277915Y154047D03*
X310158Y175920D03*
Y183006D03*
X274082Y185828D03*
X283968Y180260D03*
X283967Y170812D03*
X277669Y158215D03*
X283968Y186559D03*
X277669Y149919D03*
X283967Y134172D03*
X277669Y121575D03*
X295373Y141664D03*
X273550Y172309D03*
X273551Y159930D03*
Y163868D03*
Y167806D03*
X268159Y115541D03*
X277608Y115696D03*
X287057Y115541D03*
X268159Y121803D03*
X339524Y157220D03*
X287689Y119499D03*
X275182D03*
X341246Y162537D03*
X270323Y163868D03*
Y159930D03*
Y167806D03*
X334826Y187142D03*
X294597Y186786D03*
X299714Y180260D03*
X310158Y186234D03*
Y179148D03*
X310174Y159789D03*
X285055Y154047D03*
X310158Y149561D03*
X307703Y175701D03*
X292313Y152511D03*
X318227Y143125D03*
X329835D03*
X324279Y138400D03*
X329835Y136825D03*
X324279Y141550D03*
X317237Y136825D03*
X273498Y138897D03*
X310158Y142475D03*
Y135389D03*
Y123149D03*
X298140Y142046D03*
X311799Y136900D03*
X287500Y177495D03*
X287116Y170811D03*
X280818D03*
X277752Y170896D03*
X318893Y172188D03*
X288058Y165628D03*
X283966Y164514D03*
X277669Y167663D03*
X289361Y157734D03*
X283966Y158215D03*
X277669Y161364D03*
X320251Y154148D03*
X277669Y164514D03*
X317237Y150999D03*
X280818Y161364D03*
X320251Y151018D03*
X287116Y161364D03*
X296566Y124724D03*
X302864Y134173D03*
X299714Y131023D03*
X306013D03*
Y127874D03*
X299716Y134171D03*
X280818D03*
X287116D03*
X302864Y180260D03*
Y186559D03*
Y183410D03*
X306013D03*
Y180260D03*
X303447Y121149D03*
X301532Y118940D03*
X306013Y177111D03*
X299714Y121575D03*
X302864Y177111D03*
X284165Y119499D03*
X281015D03*
X287116Y127872D03*
X290419Y124724D03*
X264600Y128401D03*
X265630Y120536D03*
X283968Y127574D03*
X306013Y124724D03*
X307409Y172078D03*
X329835Y184069D03*
X290469Y128920D03*
X323665Y182443D03*
X296566Y170811D03*
X276929Y127345D03*
X296566Y127874D03*
X302864D03*
X303421Y150702D03*
X306013Y146770D03*
X302864D03*
X306013Y143620D03*
X299716D03*
X323056Y179345D03*
X299716Y170813D03*
X306013Y140471D03*
X330522Y178352D03*
X306455Y166709D03*
X303132Y140520D03*
X333029Y177920D03*
X311008Y165421D03*
X333164Y174621D03*
X302864Y167663D03*
X333370Y171876D03*
X295879Y166862D03*
X334021Y168994D03*
X299716Y164514D03*
X332840Y166720D03*
X303835Y157244D03*
X335567Y164444D03*
X295914Y162938D03*
X333766Y162192D03*
X302864Y161364D03*
X332181Y159681D03*
X307593Y160161D03*
X323963Y155656D03*
X296408Y156991D03*
X338186Y152330D03*
X277669Y180260D03*
Y183410D03*
X280818Y186559D03*
Y183410D03*
Y149919D03*
X271822Y131415D03*
X272633Y147801D03*
X270684Y133415D03*
X283966Y146770D03*
X267154Y135352D03*
X275609Y145680D03*
X270915Y139252D03*
X280818Y143620D03*
X267908Y139289D03*
X280818Y180260D03*
Y177111D03*
X277669D03*
X334070Y191537D03*
X271011Y229238D03*
X273210Y255498D03*
X329835Y191943D03*
X266584Y229013D03*
X276310Y229065D03*
X275900Y231764D03*
X266584Y236055D03*
X301368Y193076D03*
X320333Y205094D03*
X326073Y267337D03*
X294009Y265803D03*
X283392Y268571D03*
X275955Y196736D03*
Y200674D03*
X267034Y268571D03*
X316526Y256129D03*
X313727Y230339D03*
X274009Y217639D03*
X306301Y264600D03*
X310625Y235025D03*
X300648Y230235D03*
X309644Y209466D03*
X285737Y207062D03*
X295807Y203063D03*
X282314Y193076D03*
X317237Y202967D03*
Y191943D03*
X313727Y216021D03*
X322744Y205692D03*
X330735Y203351D03*
X322744Y209630D03*
X313298Y253725D03*
X306416Y207062D03*
X320441Y267337D03*
X277237Y215235D03*
X270323Y196736D03*
Y200674D03*
X271386Y209437D03*
X267742Y205793D03*
X333110Y189446D03*
X329835Y189643D03*
X326073Y263399D03*
X297237Y265803D03*
X276438Y255498D03*
X273210Y235025D03*
X292508Y199737D03*
X309644Y203124D03*
X285542Y193076D03*
X298140Y190672D03*
X285737Y203125D03*
X316554Y238322D03*
X301919Y250380D03*
X292754Y207035D03*
X335014Y227526D03*
X301919Y245261D03*
X319848Y202845D03*
X319934Y200218D03*
X317829Y197434D03*
X319895Y195634D03*
X323319Y193798D03*
X263272Y266869D03*
X320074Y191116D03*
X321532Y189236D03*
X263780Y244781D03*
X264177Y241853D03*
X268159Y262115D03*
X269642Y260270D03*
X328036Y233926D03*
X335053Y261202D03*
X328036Y253616D03*
X318546Y249678D03*
X328036Y245740D03*
Y241802D03*
X341739Y241232D03*
Y244382D03*
Y247532D03*
X341417Y227526D03*
X339013Y220440D03*
X330369Y199377D03*
X341417Y223668D03*
Y230754D03*
X305712Y267336D03*
X341395Y261202D03*
X343476Y217374D03*
X297634Y226140D03*
X335308Y223327D03*
X290509Y229318D03*
X331264Y241802D03*
X324178D03*
X308697Y266689D03*
X280283Y209831D03*
X281644Y205793D03*
X275446Y209950D03*
X273551Y192798D03*
Y188860D03*
X324178Y247274D03*
X287766Y290656D03*
X264517Y284764D03*
X287766Y294594D03*
X276658Y309856D03*
X313133Y331939D03*
X266681Y332903D03*
X290281Y316117D03*
X333195Y276323D03*
X287766Y286718D03*
X311116Y295590D03*
X304147Y284041D03*
X309147D03*
X314147D03*
Y288041D03*
X309147D03*
X304147D03*
X267745Y287168D03*
X296549Y304164D03*
X321745D03*
X317296Y299888D03*
X296625Y298354D03*
X285783Y282780D03*
X337133Y276323D03*
X294043Y321454D03*
X342252Y276500D03*
X267745Y278422D03*
X267034Y274419D03*
X330528Y286718D03*
X312100Y312082D03*
X308163D03*
X320596Y273919D03*
X317655Y271728D03*
X298942Y270691D03*
X412926Y7506D03*
X411385Y25238D03*
X423770Y76613D03*
Y71613D03*
Y94613D03*
Y99613D03*
X407832Y76613D03*
X414832D03*
X418770D03*
Y68385D03*
X407832Y99613D03*
X414832D03*
X418770D03*
Y91385D03*
X388300Y42122D03*
X383300D03*
X378300D03*
X373300D03*
X368300D03*
Y47122D03*
X373300D03*
X378300D03*
X383300D03*
X388300D03*
Y52122D03*
X383300D03*
X378300D03*
X373300D03*
X368300D03*
X348471Y81754D03*
X412926Y53186D03*
X418770Y102841D03*
X414832D03*
X418770Y79841D03*
X414832D03*
X380577Y32243D03*
X395945Y46413D03*
Y50351D03*
Y54289D03*
Y58227D03*
X375778Y90675D03*
Y67675D03*
X386006Y66613D03*
Y89613D03*
X357873Y98485D03*
X352873D03*
X347873D03*
X375240Y32243D03*
X400090Y77200D03*
Y70900D03*
X393790Y77200D03*
X396940Y74050D03*
X393790Y70900D03*
X400099Y93913D03*
Y100213D03*
X393799Y93913D03*
X396949Y97063D03*
X393799Y100213D03*
X367192Y82245D03*
X371130D03*
X375068D03*
X379006D03*
X367192Y105245D03*
X371130D03*
X375068D03*
X379006D03*
X380577Y37187D03*
X347873Y63649D03*
X352873D03*
X357873Y103879D03*
X352873D03*
X347873D03*
X357873Y59257D03*
X370868Y65680D03*
X366931D03*
X362994D03*
X359057D03*
Y69617D03*
X362994D03*
X366931D03*
X370868D03*
Y73554D03*
X366931D03*
X362994D03*
X359057D03*
X352873Y95257D03*
X357873D03*
X347873D03*
X378264Y87521D03*
X374327D03*
X370390D03*
X366453D03*
X362516D03*
Y91458D03*
X366453D03*
X370390D03*
Y95395D03*
X366453D03*
X362516D03*
X357873Y139379D03*
X352873D03*
X379573Y164067D03*
X383473D03*
X379573Y167711D03*
X424071Y117624D03*
Y122624D03*
X407832Y122613D03*
X414832D03*
X418770D03*
Y114385D03*
X415239Y164977D03*
X418770Y125841D03*
X414832D03*
X360277Y165859D03*
Y159071D03*
X367545Y111077D03*
X375778Y113675D03*
X386006Y112613D03*
X400088Y116931D03*
X393788D03*
X396938Y120081D03*
X400088Y123231D03*
X393788D03*
X379006Y128245D03*
X375068D03*
X371130D03*
X347873Y145011D03*
X360277Y152319D03*
X357873Y145011D03*
X356776Y169812D03*
X367192Y128245D03*
X362239Y181406D03*
X352279Y121050D03*
X356216D03*
X360153D03*
X364090D03*
Y117113D03*
X360153D03*
X356216D03*
X352279D03*
Y113176D03*
X356216D03*
X360153D03*
X364090D03*
X356368Y162537D03*
X366177Y179748D03*
X415093Y185610D03*
Y181752D03*
X415091Y145646D03*
X400766Y159667D03*
X369405Y147664D03*
X373263D03*
X372201Y175810D03*
X388611Y171518D03*
X395269D03*
X415091Y141788D03*
X395823Y144940D03*
X395314Y184954D03*
X371809Y133446D03*
X383491Y149588D03*
X359835Y175774D03*
X379573Y203993D03*
Y207637D03*
X383473Y203993D03*
X410123Y215691D03*
X413119Y198128D03*
X407530Y226654D03*
X345375Y202635D03*
X362578Y200837D03*
Y205837D03*
Y210837D03*
X359605Y220458D03*
X362578Y215837D03*
X359890Y269036D03*
X371202Y238106D03*
X369225Y210961D03*
X371202Y234168D03*
X353231Y220440D03*
X417957Y225830D03*
X417563Y254570D03*
X417957Y266130D03*
X422113Y248642D03*
X349271Y263606D03*
X353209D03*
X361712Y253858D03*
Y249920D03*
X371202Y253858D03*
Y249920D03*
Y245982D03*
X361712D03*
Y242044D03*
Y238106D03*
X348039Y241232D03*
X344889D03*
Y244382D03*
X348039D03*
Y247532D03*
X344889D03*
X372185Y266581D03*
X400727Y199549D03*
X422507Y231758D03*
X359605Y223686D03*
X395269Y211244D03*
X388611D03*
X369405Y190028D03*
X373263D03*
X365570Y245982D03*
X358484D03*
X378819Y244358D03*
X345355Y220440D03*
X365570Y249920D03*
X358484D03*
X359715Y264447D03*
X345333Y261202D03*
X383705Y254570D03*
X370492Y215779D03*
X375591Y264873D03*
X358484Y238106D03*
Y242044D03*
X371202D03*
X365570Y238106D03*
X381160Y189632D03*
X369366Y310242D03*
X412541Y280623D03*
X344707Y283265D03*
X351445D03*
X348076Y279109D03*
X347621Y321454D03*
X355145D03*
X351383Y316117D03*
X369698Y290497D03*
X387664Y302179D03*
X408792Y328913D03*
Y319813D03*
X403455Y324363D03*
X376289D03*
X386963D03*
X381626Y319813D03*
X344684Y322886D03*
X381626Y328913D03*
X390288Y317770D03*
X391602Y302179D03*
X397305Y291913D03*
X351225Y290582D03*
X357243Y289509D03*
X346152Y272856D03*
X383726Y302179D03*
X395540D03*
X369662Y326960D03*
X369698Y296129D03*
X354684Y300096D03*
X394077Y289509D03*
X397305Y273343D03*
X393113Y318851D03*
X396193Y320306D03*
X402099Y317770D03*
X354684Y327239D03*
X359684D03*
X344684Y295743D03*
X349684D03*
X422113Y288942D03*
X417563Y294870D03*
X422507Y272058D03*
X373187Y288501D03*
Y272749D03*
X370214Y278438D03*
X359890Y276713D03*
Y271595D03*
X398162Y317770D03*
X378819Y272749D03*
Y284563D03*
X375591Y280625D03*
X370214Y270442D03*
X428770Y76613D03*
X433770D03*
Y71613D03*
X428770D03*
Y99613D03*
X433770D03*
Y94613D03*
X428770D03*
X433068Y33830D03*
X430659Y46247D03*
X429071Y117624D03*
X434071D03*
Y122624D03*
X429071D03*
X427625Y174621D03*
X433165Y158231D03*
X432514Y238150D03*
X431430Y209885D03*
X433550Y260577D03*
X435020Y289997D03*
X432996Y302125D03*
G54D21*
X128409Y-141965D03*
X325719Y7098D03*
Y25602D03*
Y44106D03*
X355619Y7098D03*
Y25602D03*
Y44106D03*
G54D13*
X15426Y189983D03*
Y158487D03*
X76548Y15686D03*
X45052D03*
X128409Y-115965D03*
X172403Y302931D03*
X163387D03*
X154371D03*
X145355D03*
X136340D03*
X167895Y295136D03*
X158879D03*
X149863D03*
X140847D03*
X131832D03*
X172403Y287341D03*
X163387D03*
X154371D03*
X145355D03*
X136340D03*
X332840Y322793D03*
X301344D03*
G54D22*
X128409Y-154965D03*
X225946Y322698D03*
X252915Y326628D03*
X279884Y322698D03*
G54D14*
X11092Y223203D03*
Y257219D03*
X128409Y-193965D03*
G54D23*
Y-206965D03*
X263254Y11087D03*
X229238D03*
X310003D03*
X275987D03*
X292139Y327139D03*
X326155D03*
G54D24*
G01X105409Y-239465D02*
Y-6465D01*
X354409D01*
Y-239465D01*
X105409D01*
G01X151409Y-44465D02*
Y-239465D01*
G01X105409Y-226465D02*
X354409D01*
G01X105409Y-148465D02*
X354409D01*
G01X105409Y-161465D02*
X354409D01*
G01X105409Y-174465D02*
X354409D01*
G01X105409Y-187465D02*
X354409D01*
G01X105409Y-200465D02*
X354409D01*
G01X105409Y-213465D02*
X354409D01*
G01X105409Y-57465D02*
X354409D01*
G01X105409Y-70465D02*
X354409D01*
G01X105409Y-83465D02*
X354409D01*
G01X105409Y-96465D02*
X354409D01*
G01X105409Y-109465D02*
X354409D01*
G01X105409Y-122465D02*
X354409D01*
G01X105409Y-135465D02*
X354409D01*
G01X105409Y-31465D02*
X354409D01*
G01X105409Y-44465D02*
X354409D01*
G01X249409D02*
Y-239465D01*
G01X314909Y-44465D02*
Y-239465D01*
G54D15*
X40377Y168057D03*
Y187743D03*
X128409Y-128965D03*
X394554Y240200D03*
X422113D03*
X394554Y280500D03*
X422113D03*
G54D25*
G01X16000Y0D02*
X424000D01*
G03X440000Y16000I0J16000D01*
G01Y322400D01*
G03X424000Y338400I-16000J0D01*
G01X16000D01*
G03X0Y322400I0J-16000D01*
G01Y16000D01*
G03X16000Y0I16000J0D01*
G01X166009Y-220507D02*
X166709Y-219748D01*
X167309Y-219315D01*
X168109Y-219098D01*
X168809Y-219315D01*
X169309Y-219748D01*
X169709Y-220398D01*
X169809Y-221157D01*
X169709Y-221807D01*
X169309Y-222457D01*
X168709Y-222998D01*
X168009Y-223215D01*
X167209Y-222998D01*
X166509Y-222349D01*
X166109Y-221373D01*
X166009Y-220290D01*
X166209Y-218882D01*
X166509Y-218123D01*
X167009Y-217365D01*
X167709Y-216823D01*
X168409Y-216715D01*
X169109Y-216932D01*
X169609Y-217473D01*
G01X172509Y-220507D02*
X173209Y-219748D01*
X173809Y-219315D01*
X174609Y-219098D01*
X175309Y-219315D01*
X175809Y-219748D01*
X176209Y-220398D01*
X176309Y-221157D01*
X176209Y-221807D01*
X175809Y-222457D01*
X175209Y-222998D01*
X174509Y-223215D01*
X173709Y-222998D01*
X173009Y-222349D01*
X172609Y-221373D01*
X172509Y-220290D01*
X172709Y-218882D01*
X173009Y-218123D01*
X173509Y-217365D01*
X174209Y-216823D01*
X174909Y-216715D01*
X175609Y-216932D01*
X176109Y-217473D01*
G01X180909Y-223432D02*
X180709Y-223323D01*
Y-223107D01*
X180909Y-222998D01*
X181109Y-223107D01*
Y-223323D01*
X180909Y-223432D01*
G01X185709Y-222457D02*
X186409Y-222998D01*
X187209Y-223215D01*
X188009Y-222998D01*
X188709Y-222349D01*
X189209Y-221373D01*
X189409Y-220398D01*
Y-219207D01*
X189209Y-218232D01*
X188709Y-217365D01*
X188109Y-216932D01*
X187409Y-216715D01*
X186609Y-216932D01*
X186009Y-217365D01*
X185609Y-218015D01*
X185409Y-218882D01*
X185609Y-219640D01*
X186109Y-220398D01*
X186709Y-220832D01*
X187409Y-220940D01*
X188209Y-220723D01*
X188809Y-220182D01*
X189409Y-219207D01*
G01X191709Y-221915D02*
X192309Y-222673D01*
X193109Y-223107D01*
X194009Y-223215D01*
X194809Y-223107D01*
X195609Y-222565D01*
X196109Y-221915D01*
X196209Y-221265D01*
X196009Y-220507D01*
X195309Y-219965D01*
X194609Y-219748D01*
X193709D01*
G01X194609D02*
X195209Y-219423D01*
X195709Y-218882D01*
X195909Y-218232D01*
X195709Y-217582D01*
X195209Y-217040D01*
X194309Y-216715D01*
X193409Y-216823D01*
X192509Y-217257D01*
G01X198909Y-218882D02*
X201909Y-223215D01*
G01Y-218882D02*
X198909Y-223215D01*
G01X205009Y-217798D02*
X205609Y-217148D01*
X206309Y-216823D01*
X207109Y-216715D01*
X208109Y-216932D01*
X208809Y-217473D01*
X209009Y-218123D01*
X208909Y-218773D01*
X208509Y-219315D01*
X206509Y-220398D01*
X205609Y-221157D01*
X205009Y-222240D01*
X204809Y-223215D01*
X209009D01*
G01X213209D02*
X213409Y-221807D01*
X213709Y-220615D01*
X214109Y-219532D01*
X214609Y-218340D01*
X215409Y-216715D01*
X211409D01*
G01X219909Y-223432D02*
X219709Y-223323D01*
Y-223107D01*
X219909Y-222998D01*
X220109Y-223107D01*
Y-223323D01*
X219909Y-223432D01*
G01X224209Y-222240D02*
X224809Y-222782D01*
X225509Y-223107D01*
X226409Y-223215D01*
X227309Y-222998D01*
X228009Y-222565D01*
X228509Y-221807D01*
X228609Y-220940D01*
X228409Y-220073D01*
X227909Y-219532D01*
X227209Y-219098D01*
X226509Y-218990D01*
X225809Y-219098D01*
X224909Y-219532D01*
X225209Y-216715D01*
X227909D01*
G01X231009Y-220507D02*
X231709Y-219748D01*
X232309Y-219315D01*
X233109Y-219098D01*
X233809Y-219315D01*
X234309Y-219748D01*
X234709Y-220398D01*
X234809Y-221157D01*
X234709Y-221807D01*
X234309Y-222457D01*
X233709Y-222998D01*
X233009Y-223215D01*
X232209Y-222998D01*
X231509Y-222349D01*
X231109Y-221373D01*
X231009Y-220290D01*
X231209Y-218882D01*
X231509Y-218123D01*
X232009Y-217365D01*
X232709Y-216823D01*
X233409Y-216715D01*
X234109Y-216932D01*
X234609Y-217473D01*
G01X166009Y-233507D02*
X166709Y-232748D01*
X167309Y-232315D01*
X168109Y-232098D01*
X168809Y-232315D01*
X169309Y-232748D01*
X169709Y-233398D01*
X169809Y-234157D01*
X169709Y-234807D01*
X169309Y-235457D01*
X168709Y-235998D01*
X168009Y-236215D01*
X167209Y-235998D01*
X166509Y-235349D01*
X166109Y-234373D01*
X166009Y-233290D01*
X166209Y-231882D01*
X166509Y-231123D01*
X167009Y-230365D01*
X167709Y-229823D01*
X168409Y-229715D01*
X169109Y-229932D01*
X169609Y-230473D01*
G01X172509Y-233507D02*
X173209Y-232748D01*
X173809Y-232315D01*
X174609Y-232098D01*
X175309Y-232315D01*
X175809Y-232748D01*
X176209Y-233398D01*
X176309Y-234157D01*
X176209Y-234807D01*
X175809Y-235457D01*
X175209Y-235998D01*
X174509Y-236215D01*
X173709Y-235998D01*
X173009Y-235349D01*
X172609Y-234373D01*
X172509Y-233290D01*
X172709Y-231882D01*
X173009Y-231123D01*
X173509Y-230365D01*
X174209Y-229823D01*
X174909Y-229715D01*
X175609Y-229932D01*
X176109Y-230473D01*
G01X180909Y-236432D02*
X180709Y-236323D01*
Y-236107D01*
X180909Y-235998D01*
X181109Y-236107D01*
Y-236323D01*
X180909Y-236432D01*
G01X185709Y-235457D02*
X186409Y-235998D01*
X187209Y-236215D01*
X188009Y-235998D01*
X188709Y-235349D01*
X189209Y-234373D01*
X189409Y-233398D01*
Y-232207D01*
X189209Y-231232D01*
X188709Y-230365D01*
X188109Y-229932D01*
X187409Y-229715D01*
X186609Y-229932D01*
X186009Y-230365D01*
X185609Y-231015D01*
X185409Y-231882D01*
X185609Y-232640D01*
X186109Y-233398D01*
X186709Y-233832D01*
X187409Y-233940D01*
X188209Y-233723D01*
X188809Y-233182D01*
X189409Y-232207D01*
G01X191709Y-234915D02*
X192309Y-235673D01*
X193109Y-236107D01*
X194009Y-236215D01*
X194809Y-236107D01*
X195609Y-235565D01*
X196109Y-234915D01*
X196209Y-234265D01*
X196009Y-233507D01*
X195309Y-232965D01*
X194609Y-232748D01*
X193709D01*
G01X194609D02*
X195209Y-232423D01*
X195709Y-231882D01*
X195909Y-231232D01*
X195709Y-230582D01*
X195209Y-230040D01*
X194309Y-229715D01*
X193409Y-229823D01*
X192509Y-230257D01*
G01X198909Y-231882D02*
X201909Y-236215D01*
G01Y-231882D02*
X198909Y-236215D01*
G01X205009Y-230798D02*
X205609Y-230148D01*
X206309Y-229823D01*
X207109Y-229715D01*
X208109Y-229932D01*
X208809Y-230473D01*
X209009Y-231123D01*
X208909Y-231773D01*
X208509Y-232315D01*
X206509Y-233398D01*
X205609Y-234157D01*
X205009Y-235240D01*
X204809Y-236215D01*
X209009D01*
G01X213209D02*
X213409Y-234807D01*
X213709Y-233615D01*
X214109Y-232532D01*
X214609Y-231340D01*
X215409Y-229715D01*
X211409D01*
G01X219909Y-236432D02*
X219709Y-236323D01*
Y-236107D01*
X219909Y-235998D01*
X220109Y-236107D01*
Y-236323D01*
X219909Y-236432D01*
G01X224209Y-235240D02*
X224809Y-235782D01*
X225509Y-236107D01*
X226409Y-236215D01*
X227309Y-235998D01*
X228009Y-235565D01*
X228509Y-234807D01*
X228609Y-233940D01*
X228409Y-233073D01*
X227909Y-232532D01*
X227209Y-232098D01*
X226509Y-231990D01*
X225809Y-232098D01*
X224909Y-232532D01*
X225209Y-229715D01*
X227909D01*
G01X231009Y-233507D02*
X231709Y-232748D01*
X232309Y-232315D01*
X233109Y-232098D01*
X233809Y-232315D01*
X234309Y-232748D01*
X234709Y-233398D01*
X234809Y-234157D01*
X234709Y-234807D01*
X234309Y-235457D01*
X233709Y-235998D01*
X233009Y-236215D01*
X232209Y-235998D01*
X231509Y-235349D01*
X231109Y-234373D01*
X231009Y-233290D01*
X231209Y-231882D01*
X231509Y-231123D01*
X232009Y-230365D01*
X232709Y-229823D01*
X233409Y-229715D01*
X234109Y-229932D01*
X234609Y-230473D01*
G01X165709Y-196240D02*
X166309Y-196782D01*
X167009Y-197107D01*
X167909Y-197215D01*
X168809Y-196998D01*
X169509Y-196565D01*
X170009Y-195807D01*
X170109Y-194940D01*
X169909Y-194073D01*
X169409Y-193532D01*
X168709Y-193098D01*
X168009Y-192990D01*
X167309Y-193098D01*
X166409Y-193532D01*
X166709Y-190715D01*
X169409D01*
G01X172209Y-196240D02*
X172809Y-196782D01*
X173509Y-197107D01*
X174409Y-197215D01*
X175309Y-196998D01*
X176009Y-196565D01*
X176509Y-195807D01*
X176609Y-194940D01*
X176409Y-194073D01*
X175909Y-193532D01*
X175209Y-193098D01*
X174509Y-192990D01*
X173809Y-193098D01*
X172909Y-193532D01*
X173209Y-190715D01*
X175909D01*
G01X180909Y-197432D02*
X180709Y-197323D01*
Y-197107D01*
X180909Y-196998D01*
X181109Y-197107D01*
Y-197323D01*
X180909Y-197432D01*
G01X187409Y-197215D02*
Y-190715D01*
X186209Y-192015D01*
G01Y-197215D02*
X188609D01*
G01X192009Y-191798D02*
X192609Y-191148D01*
X193309Y-190823D01*
X194109Y-190715D01*
X195109Y-190932D01*
X195809Y-191473D01*
X196009Y-192123D01*
X195909Y-192773D01*
X195509Y-193315D01*
X193509Y-194398D01*
X192609Y-195157D01*
X192009Y-196240D01*
X191809Y-197215D01*
X196009D01*
G01X198909Y-192882D02*
X201909Y-197215D01*
G01Y-192882D02*
X198909Y-197215D01*
G01X205009Y-191798D02*
X205609Y-191148D01*
X206309Y-190823D01*
X207109Y-190715D01*
X208109Y-190932D01*
X208809Y-191473D01*
X209009Y-192123D01*
X208909Y-192773D01*
X208509Y-193315D01*
X206509Y-194398D01*
X205609Y-195157D01*
X205009Y-196240D01*
X204809Y-197215D01*
X209009D01*
G01X213209D02*
X213409Y-195807D01*
X213709Y-194615D01*
X214109Y-193532D01*
X214609Y-192340D01*
X215409Y-190715D01*
X211409D01*
G01X219909Y-197432D02*
X219709Y-197323D01*
Y-197107D01*
X219909Y-196998D01*
X220109Y-197107D01*
Y-197323D01*
X219909Y-197432D01*
G01X224209Y-196240D02*
X224809Y-196782D01*
X225509Y-197107D01*
X226409Y-197215D01*
X227309Y-196998D01*
X228009Y-196565D01*
X228509Y-195807D01*
X228609Y-194940D01*
X228409Y-194073D01*
X227909Y-193532D01*
X227209Y-193098D01*
X226509Y-192990D01*
X225809Y-193098D01*
X224909Y-193532D01*
X225209Y-190715D01*
X227909D01*
G01X231009Y-194507D02*
X231709Y-193748D01*
X232309Y-193315D01*
X233109Y-193098D01*
X233809Y-193315D01*
X234309Y-193748D01*
X234709Y-194398D01*
X234809Y-195157D01*
X234709Y-195807D01*
X234309Y-196457D01*
X233709Y-196998D01*
X233009Y-197215D01*
X232209Y-196998D01*
X231509Y-196349D01*
X231109Y-195373D01*
X231009Y-194290D01*
X231209Y-192882D01*
X231509Y-192123D01*
X232009Y-191365D01*
X232709Y-190823D01*
X233409Y-190715D01*
X234109Y-190932D01*
X234609Y-191473D01*
G01X165709Y-209240D02*
X166309Y-209782D01*
X167009Y-210107D01*
X167909Y-210215D01*
X168809Y-209998D01*
X169509Y-209565D01*
X170009Y-208807D01*
X170109Y-207940D01*
X169909Y-207073D01*
X169409Y-206532D01*
X168709Y-206098D01*
X168009Y-205990D01*
X167309Y-206098D01*
X166409Y-206532D01*
X166709Y-203715D01*
X169409D01*
G01X172209Y-209240D02*
X172809Y-209782D01*
X173509Y-210107D01*
X174409Y-210215D01*
X175309Y-209998D01*
X176009Y-209565D01*
X176509Y-208807D01*
X176609Y-207940D01*
X176409Y-207073D01*
X175909Y-206532D01*
X175209Y-206098D01*
X174509Y-205990D01*
X173809Y-206098D01*
X172909Y-206532D01*
X173209Y-203715D01*
X175909D01*
G01X180909Y-210432D02*
X180709Y-210323D01*
Y-210107D01*
X180909Y-209998D01*
X181109Y-210107D01*
Y-210323D01*
X180909Y-210432D01*
G01X187409Y-210215D02*
Y-203715D01*
X186209Y-205015D01*
G01Y-210215D02*
X188609D01*
G01X192009Y-204798D02*
X192609Y-204148D01*
X193309Y-203823D01*
X194109Y-203715D01*
X195109Y-203932D01*
X195809Y-204473D01*
X196009Y-205123D01*
X195909Y-205773D01*
X195509Y-206315D01*
X193509Y-207398D01*
X192609Y-208157D01*
X192009Y-209240D01*
X191809Y-210215D01*
X196009D01*
G01X198909Y-205882D02*
X201909Y-210215D01*
G01Y-205882D02*
X198909Y-210215D01*
G01X205009Y-204798D02*
X205609Y-204148D01*
X206309Y-203823D01*
X207109Y-203715D01*
X208109Y-203932D01*
X208809Y-204473D01*
X209009Y-205123D01*
X208909Y-205773D01*
X208509Y-206315D01*
X206509Y-207398D01*
X205609Y-208157D01*
X205009Y-209240D01*
X204809Y-210215D01*
X209009D01*
G01X213209D02*
X213409Y-208807D01*
X213709Y-207615D01*
X214109Y-206532D01*
X214609Y-205340D01*
X215409Y-203715D01*
X211409D01*
G01X219909Y-210432D02*
X219709Y-210323D01*
Y-210107D01*
X219909Y-209998D01*
X220109Y-210107D01*
Y-210323D01*
X219909Y-210432D01*
G01X224209Y-209240D02*
X224809Y-209782D01*
X225509Y-210107D01*
X226409Y-210215D01*
X227309Y-209998D01*
X228009Y-209565D01*
X228509Y-208807D01*
X228609Y-207940D01*
X228409Y-207073D01*
X227909Y-206532D01*
X227209Y-206098D01*
X226509Y-205990D01*
X225809Y-206098D01*
X224909Y-206532D01*
X225209Y-203715D01*
X227909D01*
G01X231009Y-207507D02*
X231709Y-206748D01*
X232309Y-206315D01*
X233109Y-206098D01*
X233809Y-206315D01*
X234309Y-206748D01*
X234709Y-207398D01*
X234809Y-208157D01*
X234709Y-208807D01*
X234309Y-209457D01*
X233709Y-209998D01*
X233009Y-210215D01*
X232209Y-209998D01*
X231509Y-209349D01*
X231109Y-208373D01*
X231009Y-207290D01*
X231209Y-205882D01*
X231509Y-205123D01*
X232009Y-204365D01*
X232709Y-203823D01*
X233409Y-203715D01*
X234109Y-203932D01*
X234609Y-204473D01*
G01X110259Y-54215D02*
Y-47715D01*
X114059D01*
G01X112659Y-50857D02*
X110259D01*
G01X117459Y-47715D02*
X119859D01*
G01X118659D02*
Y-54215D01*
G01X117459D02*
X119859D01*
G01X125759Y-50965D02*
X127759D01*
Y-52915D01*
X127159Y-53565D01*
X126459Y-53998D01*
X125459Y-54215D01*
X124459Y-53998D01*
X123759Y-53565D01*
X123159Y-52915D01*
X122759Y-52157D01*
X122559Y-51290D01*
Y-50532D01*
X122759Y-49882D01*
X123159Y-49123D01*
X123759Y-48473D01*
X124359Y-48040D01*
X125159Y-47715D01*
X125859D01*
X126659Y-47932D01*
X127259Y-48365D01*
G01X129459Y-47715D02*
Y-52373D01*
X129859Y-53349D01*
X130659Y-53998D01*
X131659Y-54215D01*
X132659Y-53998D01*
X133459Y-53349D01*
X133859Y-52373D01*
Y-47715D01*
G01X136159Y-54215D02*
Y-47715D01*
X138659D01*
X139459Y-48040D01*
X139959Y-48473D01*
X140159Y-49340D01*
X139959Y-50207D01*
X139359Y-50748D01*
X138659Y-51073D01*
X136159D01*
G01X138659D02*
X140159Y-54215D01*
G01X146659D02*
X142659D01*
Y-47715D01*
X146659D01*
G01X145059Y-50857D02*
X142659D01*
G01X146459Y-16215D02*
Y-9715D01*
X148459D01*
X149259Y-10040D01*
X149859Y-10473D01*
X150359Y-11123D01*
X150759Y-11882D01*
X150859Y-12965D01*
X150759Y-14048D01*
X150359Y-14807D01*
X149859Y-15457D01*
X149259Y-15890D01*
X148459Y-16215D01*
X146459D01*
G01X153159D02*
Y-9715D01*
X155659D01*
X156459Y-10040D01*
X156959Y-10473D01*
X157159Y-11340D01*
X156959Y-12207D01*
X156359Y-12748D01*
X155659Y-13073D01*
X153159D01*
G01X155659D02*
X157159Y-16215D01*
G01X160459Y-9715D02*
X162859D01*
G01X161659D02*
Y-16215D01*
G01X160459D02*
X162859D01*
G01X166159Y-9715D02*
Y-16215D01*
X170159D01*
G01X172659Y-9715D02*
Y-16215D01*
X176659D01*
G01X189859Y-10257D02*
X189259Y-9932D01*
X188559Y-9715D01*
X187759D01*
X186859Y-10040D01*
X186159Y-10582D01*
X185659Y-11232D01*
X185259Y-12315D01*
X185159Y-13290D01*
X185359Y-14265D01*
X185659Y-14915D01*
X186259Y-15565D01*
X186959Y-15998D01*
X187659Y-16215D01*
X188359D01*
X189059Y-15998D01*
X189659Y-15673D01*
X190159Y-15240D01*
G01X192059Y-16215D02*
Y-9715D01*
G01X196259D02*
Y-16215D01*
G01Y-12965D02*
X192059D01*
G01X198159Y-16215D02*
X200659Y-9715D01*
X203159Y-16215D01*
G01X202259Y-13940D02*
X199059D01*
G01X205159Y-16215D02*
Y-9715D01*
X207659D01*
X208459Y-10040D01*
X208959Y-10473D01*
X209159Y-11340D01*
X208959Y-12207D01*
X208359Y-12748D01*
X207659Y-13073D01*
X205159D01*
G01X207659D02*
X209159Y-16215D01*
G01X213659Y-9715D02*
Y-16215D01*
G01X211359Y-9715D02*
X215959D01*
G01X220159Y-16432D02*
X219959Y-16323D01*
Y-16107D01*
X220159Y-15998D01*
X220359Y-16107D01*
Y-16323D01*
X220159Y-16432D01*
G01Y-13507D02*
X219959Y-13398D01*
Y-13182D01*
X220159Y-13073D01*
X220359Y-13182D01*
Y-13398D01*
X220159Y-13507D01*
G01X233159Y-9715D02*
Y-16215D01*
G01X230859Y-9715D02*
X235459D01*
G01X239659Y-16215D02*
X238859Y-16107D01*
X238159Y-15673D01*
X237559Y-15023D01*
X237159Y-14265D01*
X236959Y-13398D01*
Y-12532D01*
X237159Y-11665D01*
X237559Y-10907D01*
X238159Y-10257D01*
X238859Y-9823D01*
X239659Y-9715D01*
X240459Y-9823D01*
X241159Y-10257D01*
X241759Y-10907D01*
X242159Y-11665D01*
X242359Y-12532D01*
Y-13398D01*
X242159Y-14265D01*
X241759Y-15023D01*
X241159Y-15673D01*
X240459Y-16107D01*
X239659Y-16215D01*
G01X244159D02*
Y-9715D01*
X246559D01*
X247359Y-10040D01*
X247959Y-10798D01*
X248159Y-11665D01*
X247959Y-12532D01*
X247459Y-13182D01*
X246559Y-13507D01*
X244159D01*
G01X259159Y-9715D02*
Y-16215D01*
G01X257759Y-11882D02*
X260559D01*
G01X265659Y-16215D02*
X265059Y-16107D01*
X264459Y-15673D01*
X264059Y-14915D01*
X263859Y-14048D01*
X264059Y-13182D01*
X264459Y-12423D01*
X265059Y-11990D01*
X265659Y-11882D01*
X266259Y-11990D01*
X266859Y-12423D01*
X267259Y-13182D01*
X267359Y-14048D01*
X267259Y-14915D01*
X266859Y-15673D01*
X266259Y-16107D01*
X265659Y-16215D01*
G01X279459Y-12748D02*
X279859Y-12423D01*
X280159Y-11882D01*
X280359Y-11123D01*
X280159Y-10473D01*
X279759Y-10040D01*
X279059Y-9715D01*
X276359D01*
Y-16215D01*
X279659D01*
X280359Y-15782D01*
X280759Y-15132D01*
X280959Y-14373D01*
X280759Y-13615D01*
X280159Y-12965D01*
X279459Y-12748D01*
X276359D01*
G01X285159Y-16215D02*
X284359Y-16107D01*
X283659Y-15673D01*
X283059Y-15023D01*
X282659Y-14265D01*
X282459Y-13398D01*
Y-12532D01*
X282659Y-11665D01*
X283059Y-10907D01*
X283659Y-10257D01*
X284359Y-9823D01*
X285159Y-9715D01*
X285959Y-9823D01*
X286659Y-10257D01*
X287259Y-10907D01*
X287659Y-11665D01*
X287859Y-12532D01*
Y-13398D01*
X287659Y-14265D01*
X287259Y-15023D01*
X286659Y-15673D01*
X285959Y-16107D01*
X285159Y-16215D01*
G01X291659Y-9715D02*
Y-16215D01*
G01X289359Y-9715D02*
X293959D01*
G01X298159D02*
Y-16215D01*
G01X295859Y-9715D02*
X300459D01*
G01X304659Y-16215D02*
X303859Y-16107D01*
X303159Y-15673D01*
X302559Y-15023D01*
X302159Y-14265D01*
X301959Y-13398D01*
Y-12532D01*
X302159Y-11665D01*
X302559Y-10907D01*
X303159Y-10257D01*
X303859Y-9823D01*
X304659Y-9715D01*
X305459Y-9823D01*
X306159Y-10257D01*
X306759Y-10907D01*
X307159Y-11665D01*
X307359Y-12532D01*
Y-13398D01*
X307159Y-14265D01*
X306759Y-15023D01*
X306159Y-15673D01*
X305459Y-16107D01*
X304659Y-16215D01*
G01X308559D02*
Y-9715D01*
X311159Y-15132D01*
X313759Y-9715D01*
Y-16215D01*
G01X162409Y-41215D02*
X164909Y-34715D01*
X167409Y-41215D01*
G01X166509Y-38940D02*
X163309D01*
G01X169409Y-34715D02*
Y-41215D01*
X173409D01*
G01X175909Y-34715D02*
Y-41215D01*
X179909D01*
G01X188709Y-34715D02*
Y-39373D01*
X189109Y-40349D01*
X189909Y-40998D01*
X190909Y-41215D01*
X191909Y-40998D01*
X192709Y-40349D01*
X193109Y-39373D01*
Y-34715D01*
G01X195109Y-41215D02*
Y-34715D01*
X199709Y-41215D01*
Y-34715D01*
G01X202709D02*
X205109D01*
G01X203909D02*
Y-41215D01*
G01X202709D02*
X205109D01*
G01X210409Y-34715D02*
Y-41215D01*
G01X208109Y-34715D02*
X212709D01*
G01X214809Y-40349D02*
X215609Y-40890D01*
X216509Y-41215D01*
X217309D01*
X218109Y-40890D01*
X218709Y-40349D01*
X219009Y-39590D01*
X218809Y-38832D01*
X218309Y-38182D01*
X217409Y-37748D01*
X216209Y-37532D01*
X215509Y-37098D01*
X215209Y-36340D01*
X215409Y-35582D01*
X215909Y-35040D01*
X216609Y-34715D01*
X217309D01*
X218009Y-34932D01*
X218609Y-35473D01*
G01X227409Y-41215D02*
X229909Y-34715D01*
X232409Y-41215D01*
G01X231509Y-38940D02*
X228309D01*
G01X234409Y-41215D02*
Y-34715D01*
X236909D01*
X237709Y-35040D01*
X238209Y-35473D01*
X238409Y-36340D01*
X238209Y-37207D01*
X237609Y-37748D01*
X236909Y-38073D01*
X234409D01*
G01X236909D02*
X238409Y-41215D01*
G01X244909D02*
X240909D01*
Y-34715D01*
X244909D01*
G01X243309Y-37857D02*
X240909D01*
G01X254709Y-34715D02*
X257109D01*
G01X255909D02*
Y-41215D01*
G01X254709D02*
X257109D01*
G01X260109D02*
Y-34715D01*
X264709Y-41215D01*
Y-34715D01*
G01X272809Y-41215D02*
Y-34715D01*
X275409Y-40132D01*
X278009Y-34715D01*
Y-41215D01*
G01X280709Y-34715D02*
X283109D01*
G01X281909D02*
Y-41215D01*
G01X280709D02*
X283109D01*
G01X286409Y-34715D02*
Y-41215D01*
X290409D01*
G01X292809Y-40349D02*
X293609Y-40890D01*
X294509Y-41215D01*
X295309D01*
X296109Y-40890D01*
X296709Y-40349D01*
X297009Y-39590D01*
X296809Y-38832D01*
X296309Y-38182D01*
X295409Y-37748D01*
X294209Y-37532D01*
X293509Y-37098D01*
X293209Y-36340D01*
X293409Y-35582D01*
X293909Y-35040D01*
X294609Y-34715D01*
X295309D01*
X296009Y-34932D01*
X296609Y-35473D01*
G01X187209Y-145215D02*
X187409Y-143807D01*
X187709Y-142615D01*
X188109Y-141532D01*
X188609Y-140340D01*
X189409Y-138715D01*
X185409D01*
G01X193909D02*
X193109Y-138932D01*
X192509Y-139473D01*
X192109Y-140123D01*
X191809Y-140990D01*
X191709Y-141965D01*
X191809Y-142940D01*
X192109Y-143807D01*
X192509Y-144457D01*
X193109Y-144998D01*
X193909Y-145215D01*
X194709Y-144998D01*
X195309Y-144457D01*
X195709Y-143807D01*
X196009Y-142940D01*
X196109Y-141965D01*
X196009Y-140990D01*
X195709Y-140123D01*
X195309Y-139473D01*
X194709Y-138932D01*
X193909Y-138715D01*
G01X200409Y-145432D02*
X200209Y-145323D01*
Y-145107D01*
X200409Y-144998D01*
X200609Y-145107D01*
Y-145323D01*
X200409Y-145432D01*
G01X206909Y-145215D02*
X207609Y-145107D01*
X208409Y-144782D01*
X208909Y-144240D01*
X209109Y-143482D01*
X208909Y-142723D01*
X208309Y-142073D01*
X207409Y-141748D01*
X206409D01*
X205809Y-141532D01*
X205309Y-140990D01*
X205109Y-140232D01*
X205409Y-139473D01*
X206109Y-138932D01*
X206909Y-138715D01*
X207709Y-138932D01*
X208409Y-139473D01*
X208709Y-140232D01*
X208509Y-140990D01*
X208009Y-141532D01*
X207409Y-141748D01*
X206409D01*
X205509Y-142073D01*
X204909Y-142723D01*
X204709Y-143482D01*
X204909Y-144240D01*
X205409Y-144782D01*
X206209Y-145107D01*
X206909Y-145215D01*
G01X213209D02*
X213409Y-143807D01*
X213709Y-142615D01*
X214109Y-141532D01*
X214609Y-140340D01*
X215409Y-138715D01*
X211409D01*
G01X185709Y-157457D02*
X186409Y-157998D01*
X187209Y-158215D01*
X188009Y-157998D01*
X188709Y-157349D01*
X189209Y-156373D01*
X189409Y-155398D01*
Y-154207D01*
X189209Y-153232D01*
X188709Y-152365D01*
X188109Y-151932D01*
X187409Y-151715D01*
X186609Y-151932D01*
X186009Y-152365D01*
X185609Y-153015D01*
X185409Y-153882D01*
X185609Y-154640D01*
X186109Y-155398D01*
X186709Y-155832D01*
X187409Y-155940D01*
X188209Y-155723D01*
X188809Y-155182D01*
X189409Y-154207D01*
G01X193909Y-158215D02*
X194609Y-158107D01*
X195409Y-157782D01*
X195909Y-157240D01*
X196109Y-156482D01*
X195909Y-155723D01*
X195309Y-155073D01*
X194409Y-154748D01*
X193409D01*
X192809Y-154532D01*
X192309Y-153990D01*
X192109Y-153232D01*
X192409Y-152473D01*
X193109Y-151932D01*
X193909Y-151715D01*
X194709Y-151932D01*
X195409Y-152473D01*
X195709Y-153232D01*
X195509Y-153990D01*
X195009Y-154532D01*
X194409Y-154748D01*
X193409D01*
X192509Y-155073D01*
X191909Y-155723D01*
X191709Y-156482D01*
X191909Y-157240D01*
X192409Y-157782D01*
X193209Y-158107D01*
X193909Y-158215D01*
G01X200409Y-158432D02*
X200209Y-158323D01*
Y-158107D01*
X200409Y-157998D01*
X200609Y-158107D01*
Y-158323D01*
X200409Y-158432D01*
G01X208109Y-158215D02*
Y-151715D01*
X204409Y-156373D01*
X209409D01*
G01X211209Y-156915D02*
X211809Y-157673D01*
X212609Y-158107D01*
X213509Y-158215D01*
X214309Y-158107D01*
X215109Y-157565D01*
X215609Y-156915D01*
X215709Y-156265D01*
X215509Y-155507D01*
X214809Y-154965D01*
X214109Y-154748D01*
X213209D01*
G01X214109D02*
X214709Y-154423D01*
X215209Y-153882D01*
X215409Y-153232D01*
X215209Y-152582D01*
X214709Y-152040D01*
X213809Y-151715D01*
X212909Y-151823D01*
X212009Y-152257D01*
G01X184159Y-171215D02*
Y-164715D01*
X182959Y-166015D01*
G01Y-171215D02*
X185359D01*
G01X188759Y-165798D02*
X189359Y-165148D01*
X190059Y-164823D01*
X190859Y-164715D01*
X191859Y-164932D01*
X192559Y-165473D01*
X192759Y-166123D01*
X192659Y-166773D01*
X192259Y-167315D01*
X190259Y-168398D01*
X189359Y-169157D01*
X188759Y-170240D01*
X188559Y-171215D01*
X192759D01*
G01X195259Y-165798D02*
X195859Y-165148D01*
X196559Y-164823D01*
X197359Y-164715D01*
X198359Y-164932D01*
X199059Y-165473D01*
X199259Y-166123D01*
X199159Y-166773D01*
X198759Y-167315D01*
X196759Y-168398D01*
X195859Y-169157D01*
X195259Y-170240D01*
X195059Y-171215D01*
X199259D01*
G01X203659Y-171432D02*
X203459Y-171323D01*
Y-171107D01*
X203659Y-170998D01*
X203859Y-171107D01*
Y-171323D01*
X203659Y-171432D01*
G01X210159Y-164715D02*
X209359Y-164932D01*
X208759Y-165473D01*
X208359Y-166123D01*
X208059Y-166990D01*
X207959Y-167965D01*
X208059Y-168940D01*
X208359Y-169807D01*
X208759Y-170457D01*
X209359Y-170998D01*
X210159Y-171215D01*
X210959Y-170998D01*
X211559Y-170457D01*
X211959Y-169807D01*
X212259Y-168940D01*
X212359Y-167965D01*
X212259Y-166990D01*
X211959Y-166123D01*
X211559Y-165473D01*
X210959Y-164932D01*
X210159Y-164715D01*
G01X214459Y-170240D02*
X215059Y-170782D01*
X215759Y-171107D01*
X216659Y-171215D01*
X217559Y-170998D01*
X218259Y-170565D01*
X218759Y-169807D01*
X218859Y-168940D01*
X218659Y-168073D01*
X218159Y-167532D01*
X217459Y-167098D01*
X216759Y-166990D01*
X216059Y-167098D01*
X215159Y-167532D01*
X215459Y-164715D01*
X218159D01*
G01X184159Y-184215D02*
Y-177715D01*
X182959Y-179015D01*
G01Y-184215D02*
X185359D01*
G01X188459Y-182915D02*
X189059Y-183673D01*
X189859Y-184107D01*
X190759Y-184215D01*
X191559Y-184107D01*
X192359Y-183565D01*
X192859Y-182915D01*
X192959Y-182265D01*
X192759Y-181507D01*
X192059Y-180965D01*
X191359Y-180748D01*
X190459D01*
G01X191359D02*
X191959Y-180423D01*
X192459Y-179882D01*
X192659Y-179232D01*
X192459Y-178582D01*
X191959Y-178040D01*
X191059Y-177715D01*
X190159Y-177823D01*
X189259Y-178257D01*
G01X194959Y-182915D02*
X195559Y-183673D01*
X196359Y-184107D01*
X197259Y-184215D01*
X198059Y-184107D01*
X198859Y-183565D01*
X199359Y-182915D01*
X199459Y-182265D01*
X199259Y-181507D01*
X198559Y-180965D01*
X197859Y-180748D01*
X196959D01*
G01X197859D02*
X198459Y-180423D01*
X198959Y-179882D01*
X199159Y-179232D01*
X198959Y-178582D01*
X198459Y-178040D01*
X197559Y-177715D01*
X196659Y-177823D01*
X195759Y-178257D01*
G01X203659Y-184432D02*
X203459Y-184323D01*
Y-184107D01*
X203659Y-183998D01*
X203859Y-184107D01*
Y-184323D01*
X203659Y-184432D01*
G01X210159Y-184215D02*
X210859Y-184107D01*
X211659Y-183782D01*
X212159Y-183240D01*
X212359Y-182482D01*
X212159Y-181723D01*
X211559Y-181073D01*
X210659Y-180748D01*
X209659D01*
X209059Y-180532D01*
X208559Y-179990D01*
X208359Y-179232D01*
X208659Y-178473D01*
X209359Y-177932D01*
X210159Y-177715D01*
X210959Y-177932D01*
X211659Y-178473D01*
X211959Y-179232D01*
X211759Y-179990D01*
X211259Y-180532D01*
X210659Y-180748D01*
X209659D01*
X208759Y-181073D01*
X208159Y-181723D01*
X207959Y-182482D01*
X208159Y-183240D01*
X208659Y-183782D01*
X209459Y-184107D01*
X210159Y-184215D01*
G01X214759Y-181507D02*
X215459Y-180748D01*
X216059Y-180315D01*
X216859Y-180098D01*
X217559Y-180315D01*
X218059Y-180748D01*
X218459Y-181398D01*
X218559Y-182157D01*
X218459Y-182807D01*
X218059Y-183457D01*
X217459Y-183998D01*
X216759Y-184215D01*
X215959Y-183998D01*
X215259Y-183349D01*
X214859Y-182373D01*
X214759Y-181290D01*
X214959Y-179882D01*
X215259Y-179123D01*
X215759Y-178365D01*
X216459Y-177823D01*
X217159Y-177715D01*
X217859Y-177932D01*
X218359Y-178473D01*
G01X188559Y-53349D02*
X189359Y-53890D01*
X190259Y-54215D01*
X191059D01*
X191859Y-53890D01*
X192459Y-53349D01*
X192759Y-52590D01*
X192559Y-51832D01*
X192059Y-51182D01*
X191159Y-50748D01*
X189959Y-50532D01*
X189259Y-50098D01*
X188959Y-49340D01*
X189159Y-48582D01*
X189659Y-48040D01*
X190359Y-47715D01*
X191059D01*
X191759Y-47932D01*
X192359Y-48473D01*
G01X195959Y-47715D02*
X198359D01*
G01X197159D02*
Y-54215D01*
G01X195959D02*
X198359D01*
G01X201759Y-47715D02*
X205559D01*
X201759Y-54215D01*
X205559D01*
G01X212159D02*
X208159D01*
Y-47715D01*
X212159D01*
G01X210559Y-50857D02*
X208159D01*
G01X193909Y-67215D02*
X194609Y-67107D01*
X195409Y-66782D01*
X195909Y-66240D01*
X196109Y-65482D01*
X195909Y-64723D01*
X195309Y-64073D01*
X194409Y-63748D01*
X193409D01*
X192809Y-63532D01*
X192309Y-62990D01*
X192109Y-62232D01*
X192409Y-61473D01*
X193109Y-60932D01*
X193909Y-60715D01*
X194709Y-60932D01*
X195409Y-61473D01*
X195709Y-62232D01*
X195509Y-62990D01*
X195009Y-63532D01*
X194409Y-63748D01*
X193409D01*
X192509Y-64073D01*
X191909Y-64723D01*
X191709Y-65482D01*
X191909Y-66240D01*
X192409Y-66782D01*
X193209Y-67107D01*
X193909Y-67215D01*
G01X200409Y-67432D02*
X200209Y-67323D01*
Y-67107D01*
X200409Y-66998D01*
X200609Y-67107D01*
Y-67323D01*
X200409Y-67432D01*
G01X206909Y-60715D02*
X206109Y-60932D01*
X205509Y-61473D01*
X205109Y-62123D01*
X204809Y-62990D01*
X204709Y-63965D01*
X204809Y-64940D01*
X205109Y-65807D01*
X205509Y-66457D01*
X206109Y-66998D01*
X206909Y-67215D01*
X207709Y-66998D01*
X208309Y-66457D01*
X208709Y-65807D01*
X209009Y-64940D01*
X209109Y-63965D01*
X209009Y-62990D01*
X208709Y-62123D01*
X208309Y-61473D01*
X207709Y-60932D01*
X206909Y-60715D01*
G01X185509Y-74798D02*
X186109Y-74148D01*
X186809Y-73823D01*
X187609Y-73715D01*
X188609Y-73932D01*
X189309Y-74473D01*
X189509Y-75123D01*
X189409Y-75773D01*
X189009Y-76315D01*
X187009Y-77398D01*
X186109Y-78157D01*
X185509Y-79240D01*
X185309Y-80215D01*
X189509D01*
G01X193709D02*
X193909Y-78807D01*
X194209Y-77615D01*
X194609Y-76532D01*
X195109Y-75340D01*
X195909Y-73715D01*
X191909D01*
G01X200409Y-80432D02*
X200209Y-80323D01*
Y-80107D01*
X200409Y-79998D01*
X200609Y-80107D01*
Y-80323D01*
X200409Y-80432D01*
G01X204709Y-79240D02*
X205309Y-79782D01*
X206009Y-80107D01*
X206909Y-80215D01*
X207809Y-79998D01*
X208509Y-79565D01*
X209009Y-78807D01*
X209109Y-77940D01*
X208909Y-77073D01*
X208409Y-76532D01*
X207709Y-76098D01*
X207009Y-75990D01*
X206309Y-76098D01*
X205409Y-76532D01*
X205709Y-73715D01*
X208409D01*
G01X211509Y-77507D02*
X212209Y-76748D01*
X212809Y-76315D01*
X213609Y-76098D01*
X214309Y-76315D01*
X214809Y-76748D01*
X215209Y-77398D01*
X215309Y-78157D01*
X215209Y-78807D01*
X214809Y-79457D01*
X214209Y-79998D01*
X213509Y-80215D01*
X212709Y-79998D01*
X212009Y-79349D01*
X211609Y-78373D01*
X211509Y-77290D01*
X211709Y-75882D01*
X212009Y-75123D01*
X212509Y-74365D01*
X213209Y-73823D01*
X213909Y-73715D01*
X214609Y-73932D01*
X215109Y-74473D01*
G01X185209Y-91915D02*
X185809Y-92673D01*
X186609Y-93107D01*
X187509Y-93215D01*
X188309Y-93107D01*
X189109Y-92565D01*
X189609Y-91915D01*
X189709Y-91265D01*
X189509Y-90507D01*
X188809Y-89965D01*
X188109Y-89748D01*
X187209D01*
G01X188109D02*
X188709Y-89423D01*
X189209Y-88882D01*
X189409Y-88232D01*
X189209Y-87582D01*
X188709Y-87040D01*
X187809Y-86715D01*
X186909Y-86823D01*
X186009Y-87257D01*
G01X191709Y-92240D02*
X192309Y-92782D01*
X193009Y-93107D01*
X193909Y-93215D01*
X194809Y-92998D01*
X195509Y-92565D01*
X196009Y-91807D01*
X196109Y-90940D01*
X195909Y-90073D01*
X195409Y-89532D01*
X194709Y-89098D01*
X194009Y-88990D01*
X193309Y-89098D01*
X192409Y-89532D01*
X192709Y-86715D01*
X195409D01*
G01X200409Y-93432D02*
X200209Y-93323D01*
Y-93107D01*
X200409Y-92998D01*
X200609Y-93107D01*
Y-93323D01*
X200409Y-93432D01*
G01X208109Y-93215D02*
Y-86715D01*
X204409Y-91373D01*
X209409D01*
G01X211209Y-91915D02*
X211809Y-92673D01*
X212609Y-93107D01*
X213509Y-93215D01*
X214309Y-93107D01*
X215109Y-92565D01*
X215609Y-91915D01*
X215709Y-91265D01*
X215509Y-90507D01*
X214809Y-89965D01*
X214109Y-89748D01*
X213209D01*
G01X214109D02*
X214709Y-89423D01*
X215209Y-88882D01*
X215409Y-88232D01*
X215209Y-87582D01*
X214709Y-87040D01*
X213809Y-86715D01*
X212909Y-86823D01*
X212009Y-87257D01*
G01X185209Y-104915D02*
X185809Y-105673D01*
X186609Y-106107D01*
X187509Y-106215D01*
X188309Y-106107D01*
X189109Y-105565D01*
X189609Y-104915D01*
X189709Y-104265D01*
X189509Y-103507D01*
X188809Y-102965D01*
X188109Y-102748D01*
X187209D01*
G01X188109D02*
X188709Y-102423D01*
X189209Y-101882D01*
X189409Y-101232D01*
X189209Y-100582D01*
X188709Y-100040D01*
X187809Y-99715D01*
X186909Y-99823D01*
X186009Y-100257D01*
G01X192209Y-105457D02*
X192909Y-105998D01*
X193709Y-106215D01*
X194509Y-105998D01*
X195209Y-105349D01*
X195709Y-104373D01*
X195909Y-103398D01*
Y-102207D01*
X195709Y-101232D01*
X195209Y-100365D01*
X194609Y-99932D01*
X193909Y-99715D01*
X193109Y-99932D01*
X192509Y-100365D01*
X192109Y-101015D01*
X191909Y-101882D01*
X192109Y-102640D01*
X192609Y-103398D01*
X193209Y-103832D01*
X193909Y-103940D01*
X194709Y-103723D01*
X195309Y-103182D01*
X195909Y-102207D01*
G01X200409Y-106432D02*
X200209Y-106323D01*
Y-106107D01*
X200409Y-105998D01*
X200609Y-106107D01*
Y-106323D01*
X200409Y-106432D01*
G01X204709Y-104915D02*
X205309Y-105673D01*
X206109Y-106107D01*
X207009Y-106215D01*
X207809Y-106107D01*
X208609Y-105565D01*
X209109Y-104915D01*
X209209Y-104265D01*
X209009Y-103507D01*
X208309Y-102965D01*
X207609Y-102748D01*
X206709D01*
G01X207609D02*
X208209Y-102423D01*
X208709Y-101882D01*
X208909Y-101232D01*
X208709Y-100582D01*
X208209Y-100040D01*
X207309Y-99715D01*
X206409Y-99823D01*
X205509Y-100257D01*
G01X213209Y-106215D02*
X213409Y-104807D01*
X213709Y-103615D01*
X214109Y-102532D01*
X214609Y-101340D01*
X215409Y-99715D01*
X211409D01*
G01X188609Y-119215D02*
Y-112715D01*
X184909Y-117373D01*
X189909D01*
G01X191709Y-117915D02*
X192309Y-118673D01*
X193109Y-119107D01*
X194009Y-119215D01*
X194809Y-119107D01*
X195609Y-118565D01*
X196109Y-117915D01*
X196209Y-117265D01*
X196009Y-116507D01*
X195309Y-115965D01*
X194609Y-115748D01*
X193709D01*
G01X194609D02*
X195209Y-115423D01*
X195709Y-114882D01*
X195909Y-114232D01*
X195709Y-113582D01*
X195209Y-113040D01*
X194309Y-112715D01*
X193409Y-112823D01*
X192509Y-113257D01*
G01X200409Y-119432D02*
X200209Y-119323D01*
Y-119107D01*
X200409Y-118998D01*
X200609Y-119107D01*
Y-119323D01*
X200409Y-119432D01*
G01X204709Y-117915D02*
X205309Y-118673D01*
X206109Y-119107D01*
X207009Y-119215D01*
X207809Y-119107D01*
X208609Y-118565D01*
X209109Y-117915D01*
X209209Y-117265D01*
X209009Y-116507D01*
X208309Y-115965D01*
X207609Y-115748D01*
X206709D01*
G01X207609D02*
X208209Y-115423D01*
X208709Y-114882D01*
X208909Y-114232D01*
X208709Y-113582D01*
X208209Y-113040D01*
X207309Y-112715D01*
X206409Y-112823D01*
X205509Y-113257D01*
G01X213409Y-119215D02*
Y-112715D01*
X212209Y-114015D01*
G01Y-119215D02*
X214609D01*
G01X185209Y-131240D02*
X185809Y-131782D01*
X186509Y-132107D01*
X187409Y-132215D01*
X188309Y-131998D01*
X189009Y-131565D01*
X189509Y-130807D01*
X189609Y-129940D01*
X189409Y-129073D01*
X188909Y-128532D01*
X188209Y-128098D01*
X187509Y-127990D01*
X186809Y-128098D01*
X185909Y-128532D01*
X186209Y-125715D01*
X188909D01*
G01X193909Y-132215D02*
Y-125715D01*
X192709Y-127015D01*
G01Y-132215D02*
X195109D01*
G01X200409Y-132432D02*
X200209Y-132323D01*
Y-132107D01*
X200409Y-131998D01*
X200609Y-132107D01*
Y-132323D01*
X200409Y-132432D01*
G01X206909Y-132215D02*
Y-125715D01*
X205709Y-127015D01*
G01Y-132215D02*
X208109D01*
G01X213409D02*
X214109Y-132107D01*
X214909Y-131782D01*
X215409Y-131240D01*
X215609Y-130482D01*
X215409Y-129723D01*
X214809Y-129073D01*
X213909Y-128748D01*
X212909D01*
X212309Y-128532D01*
X211809Y-127990D01*
X211609Y-127232D01*
X211909Y-126473D01*
X212609Y-125932D01*
X213409Y-125715D01*
X214209Y-125932D01*
X214909Y-126473D01*
X215209Y-127232D01*
X215009Y-127990D01*
X214509Y-128532D01*
X213909Y-128748D01*
X212909D01*
X212009Y-129073D01*
X211409Y-129723D01*
X211209Y-130482D01*
X211409Y-131240D01*
X211909Y-131782D01*
X212709Y-132107D01*
X213409Y-132215D01*
G01X263909Y-223215D02*
Y-216715D01*
X266309D01*
X267109Y-217040D01*
X267709Y-217798D01*
X267909Y-218665D01*
X267709Y-219532D01*
X267209Y-220182D01*
X266309Y-220507D01*
X263909D01*
G01X270409Y-216715D02*
Y-223215D01*
X274409D01*
G01X276409D02*
X278909Y-216715D01*
X281409Y-223215D01*
G01X280509Y-220940D02*
X277309D01*
G01X285409Y-216715D02*
Y-223215D01*
G01X283109Y-216715D02*
X287709D01*
G01X293909Y-223215D02*
X289909D01*
Y-216715D01*
X293909D01*
G01X292309Y-219857D02*
X289909D01*
G01X296209Y-223215D02*
Y-216715D01*
X298209D01*
X299009Y-217040D01*
X299609Y-217473D01*
X300109Y-218123D01*
X300509Y-218882D01*
X300609Y-219965D01*
X300509Y-221048D01*
X300109Y-221807D01*
X299609Y-222457D01*
X299009Y-222890D01*
X298209Y-223215D01*
X296209D01*
G01X332759Y-217798D02*
X333359Y-217148D01*
X334059Y-216823D01*
X334859Y-216715D01*
X335859Y-216932D01*
X336559Y-217473D01*
X336759Y-218123D01*
X336659Y-218773D01*
X336259Y-219315D01*
X334259Y-220398D01*
X333359Y-221157D01*
X332759Y-222240D01*
X332559Y-223215D01*
X336759D01*
G01X263909Y-236215D02*
Y-229715D01*
X266309D01*
X267109Y-230040D01*
X267709Y-230798D01*
X267909Y-231665D01*
X267709Y-232532D01*
X267209Y-233182D01*
X266309Y-233507D01*
X263909D01*
G01X270409Y-229715D02*
Y-236215D01*
X274409D01*
G01X276409D02*
X278909Y-229715D01*
X281409Y-236215D01*
G01X280509Y-233940D02*
X277309D01*
G01X285409Y-229715D02*
Y-236215D01*
G01X283109Y-229715D02*
X287709D01*
G01X293909Y-236215D02*
X289909D01*
Y-229715D01*
X293909D01*
G01X292309Y-232857D02*
X289909D01*
G01X296209Y-236215D02*
Y-229715D01*
X298209D01*
X299009Y-230040D01*
X299609Y-230473D01*
X300109Y-231123D01*
X300509Y-231882D01*
X300609Y-232965D01*
X300509Y-234048D01*
X300109Y-234807D01*
X299609Y-235457D01*
X299009Y-235890D01*
X298209Y-236215D01*
X296209D01*
G01X332759Y-233507D02*
X333459Y-232748D01*
X334059Y-232315D01*
X334859Y-232098D01*
X335559Y-232315D01*
X336059Y-232748D01*
X336459Y-233398D01*
X336559Y-234157D01*
X336459Y-234807D01*
X336059Y-235457D01*
X335459Y-235998D01*
X334759Y-236215D01*
X333959Y-235998D01*
X333259Y-235349D01*
X332859Y-234373D01*
X332759Y-233290D01*
X332959Y-231882D01*
X333259Y-231123D01*
X333759Y-230365D01*
X334459Y-229823D01*
X335159Y-229715D01*
X335859Y-229932D01*
X336359Y-230473D01*
G01X263909Y-145215D02*
Y-138715D01*
X266309D01*
X267109Y-139040D01*
X267709Y-139798D01*
X267909Y-140665D01*
X267709Y-141532D01*
X267209Y-142182D01*
X266309Y-142507D01*
X263909D01*
G01X270409Y-138715D02*
Y-145215D01*
X274409D01*
G01X276409D02*
X278909Y-138715D01*
X281409Y-145215D01*
G01X280509Y-142940D02*
X277309D01*
G01X285409Y-138715D02*
Y-145215D01*
G01X283109Y-138715D02*
X287709D01*
G01X293909Y-145215D02*
X289909D01*
Y-138715D01*
X293909D01*
G01X292309Y-141857D02*
X289909D01*
G01X296209Y-145215D02*
Y-138715D01*
X298209D01*
X299009Y-139040D01*
X299609Y-139473D01*
X300109Y-140123D01*
X300509Y-140882D01*
X300609Y-141965D01*
X300509Y-143048D01*
X300109Y-143807D01*
X299609Y-144457D01*
X299009Y-144890D01*
X298209Y-145215D01*
X296209D01*
G01X332759Y-142507D02*
X333459Y-141748D01*
X334059Y-141315D01*
X334859Y-141098D01*
X335559Y-141315D01*
X336059Y-141748D01*
X336459Y-142398D01*
X336559Y-143157D01*
X336459Y-143807D01*
X336059Y-144457D01*
X335459Y-144998D01*
X334759Y-145215D01*
X333959Y-144998D01*
X333259Y-144349D01*
X332859Y-143373D01*
X332759Y-142290D01*
X332959Y-140882D01*
X333259Y-140123D01*
X333759Y-139365D01*
X334459Y-138823D01*
X335159Y-138715D01*
X335859Y-138932D01*
X336359Y-139473D01*
G01X263909Y-158215D02*
Y-151715D01*
X266309D01*
X267109Y-152040D01*
X267709Y-152798D01*
X267909Y-153665D01*
X267709Y-154532D01*
X267209Y-155182D01*
X266309Y-155507D01*
X263909D01*
G01X270409Y-151715D02*
Y-158215D01*
X274409D01*
G01X276409D02*
X278909Y-151715D01*
X281409Y-158215D01*
G01X280509Y-155940D02*
X277309D01*
G01X285409Y-151715D02*
Y-158215D01*
G01X283109Y-151715D02*
X287709D01*
G01X293909Y-158215D02*
X289909D01*
Y-151715D01*
X293909D01*
G01X292309Y-154857D02*
X289909D01*
G01X296209Y-158215D02*
Y-151715D01*
X298209D01*
X299009Y-152040D01*
X299609Y-152473D01*
X300109Y-153123D01*
X300509Y-153882D01*
X300609Y-154965D01*
X300509Y-156048D01*
X300109Y-156807D01*
X299609Y-157457D01*
X299009Y-157890D01*
X298209Y-158215D01*
X296209D01*
G01X332459Y-156915D02*
X333059Y-157673D01*
X333859Y-158107D01*
X334759Y-158215D01*
X335559Y-158107D01*
X336359Y-157565D01*
X336859Y-156915D01*
X336959Y-156265D01*
X336759Y-155507D01*
X336059Y-154965D01*
X335359Y-154748D01*
X334459D01*
G01X335359D02*
X335959Y-154423D01*
X336459Y-153882D01*
X336659Y-153232D01*
X336459Y-152582D01*
X335959Y-152040D01*
X335059Y-151715D01*
X334159Y-151823D01*
X333259Y-152257D01*
G01X263909Y-171215D02*
Y-164715D01*
X266309D01*
X267109Y-165040D01*
X267709Y-165798D01*
X267909Y-166665D01*
X267709Y-167532D01*
X267209Y-168182D01*
X266309Y-168507D01*
X263909D01*
G01X270409Y-164715D02*
Y-171215D01*
X274409D01*
G01X276409D02*
X278909Y-164715D01*
X281409Y-171215D01*
G01X280509Y-168940D02*
X277309D01*
G01X285409Y-164715D02*
Y-171215D01*
G01X283109Y-164715D02*
X287709D01*
G01X293909Y-171215D02*
X289909D01*
Y-164715D01*
X293909D01*
G01X292309Y-167857D02*
X289909D01*
G01X296209Y-171215D02*
Y-164715D01*
X298209D01*
X299009Y-165040D01*
X299609Y-165473D01*
X300109Y-166123D01*
X300509Y-166882D01*
X300609Y-167965D01*
X300509Y-169048D01*
X300109Y-169807D01*
X299609Y-170457D01*
X299009Y-170890D01*
X298209Y-171215D01*
X296209D01*
G01X335859D02*
Y-164715D01*
X332159Y-169373D01*
X337159D01*
G01X263909Y-184215D02*
Y-177715D01*
X266309D01*
X267109Y-178040D01*
X267709Y-178798D01*
X267909Y-179665D01*
X267709Y-180532D01*
X267209Y-181182D01*
X266309Y-181507D01*
X263909D01*
G01X270409Y-177715D02*
Y-184215D01*
X274409D01*
G01X276409D02*
X278909Y-177715D01*
X281409Y-184215D01*
G01X280509Y-181940D02*
X277309D01*
G01X285409Y-177715D02*
Y-184215D01*
G01X283109Y-177715D02*
X287709D01*
G01X293909Y-184215D02*
X289909D01*
Y-177715D01*
X293909D01*
G01X292309Y-180857D02*
X289909D01*
G01X296209Y-184215D02*
Y-177715D01*
X298209D01*
X299009Y-178040D01*
X299609Y-178473D01*
X300109Y-179123D01*
X300509Y-179882D01*
X300609Y-180965D01*
X300509Y-182048D01*
X300109Y-182807D01*
X299609Y-183457D01*
X299009Y-183890D01*
X298209Y-184215D01*
X296209D01*
G01X332759Y-178798D02*
X333359Y-178148D01*
X334059Y-177823D01*
X334859Y-177715D01*
X335859Y-177932D01*
X336559Y-178473D01*
X336759Y-179123D01*
X336659Y-179773D01*
X336259Y-180315D01*
X334259Y-181398D01*
X333359Y-182157D01*
X332759Y-183240D01*
X332559Y-184215D01*
X336759D01*
G01X263909Y-197215D02*
Y-190715D01*
X266309D01*
X267109Y-191040D01*
X267709Y-191798D01*
X267909Y-192665D01*
X267709Y-193532D01*
X267209Y-194182D01*
X266309Y-194507D01*
X263909D01*
G01X270409Y-190715D02*
Y-197215D01*
X274409D01*
G01X276409D02*
X278909Y-190715D01*
X281409Y-197215D01*
G01X280509Y-194940D02*
X277309D01*
G01X285409Y-190715D02*
Y-197215D01*
G01X283109Y-190715D02*
X287709D01*
G01X293909Y-197215D02*
X289909D01*
Y-190715D01*
X293909D01*
G01X292309Y-193857D02*
X289909D01*
G01X296209Y-197215D02*
Y-190715D01*
X298209D01*
X299009Y-191040D01*
X299609Y-191473D01*
X300109Y-192123D01*
X300509Y-192882D01*
X300609Y-193965D01*
X300509Y-195048D01*
X300109Y-195807D01*
X299609Y-196457D01*
X299009Y-196890D01*
X298209Y-197215D01*
X296209D01*
G01X332759Y-191798D02*
X333359Y-191148D01*
X334059Y-190823D01*
X334859Y-190715D01*
X335859Y-190932D01*
X336559Y-191473D01*
X336759Y-192123D01*
X336659Y-192773D01*
X336259Y-193315D01*
X334259Y-194398D01*
X333359Y-195157D01*
X332759Y-196240D01*
X332559Y-197215D01*
X336759D01*
G01X263909Y-210215D02*
Y-203715D01*
X266309D01*
X267109Y-204040D01*
X267709Y-204798D01*
X267909Y-205665D01*
X267709Y-206532D01*
X267209Y-207182D01*
X266309Y-207507D01*
X263909D01*
G01X270409Y-203715D02*
Y-210215D01*
X274409D01*
G01X276409D02*
X278909Y-203715D01*
X281409Y-210215D01*
G01X280509Y-207940D02*
X277309D01*
G01X285409Y-203715D02*
Y-210215D01*
G01X283109Y-203715D02*
X287709D01*
G01X293909Y-210215D02*
X289909D01*
Y-203715D01*
X293909D01*
G01X292309Y-206857D02*
X289909D01*
G01X296209Y-210215D02*
Y-203715D01*
X298209D01*
X299009Y-204040D01*
X299609Y-204473D01*
X300109Y-205123D01*
X300509Y-205882D01*
X300609Y-206965D01*
X300509Y-208048D01*
X300109Y-208807D01*
X299609Y-209457D01*
X299009Y-209890D01*
X298209Y-210215D01*
X296209D01*
G01X332759Y-207507D02*
X333459Y-206748D01*
X334059Y-206315D01*
X334859Y-206098D01*
X335559Y-206315D01*
X336059Y-206748D01*
X336459Y-207398D01*
X336559Y-208157D01*
X336459Y-208807D01*
X336059Y-209457D01*
X335459Y-209998D01*
X334759Y-210215D01*
X333959Y-209998D01*
X333259Y-209349D01*
X332859Y-208373D01*
X332759Y-207290D01*
X332959Y-205882D01*
X333259Y-205123D01*
X333759Y-204365D01*
X334459Y-203823D01*
X335159Y-203715D01*
X335859Y-203932D01*
X336359Y-204473D01*
G01X263909Y-54215D02*
Y-47715D01*
X266309D01*
X267109Y-48040D01*
X267709Y-48798D01*
X267909Y-49665D01*
X267709Y-50532D01*
X267209Y-51182D01*
X266309Y-51507D01*
X263909D01*
G01X270409Y-47715D02*
Y-54215D01*
X274409D01*
G01X276409D02*
X278909Y-47715D01*
X281409Y-54215D01*
G01X280509Y-51940D02*
X277309D01*
G01X285409Y-47715D02*
Y-54215D01*
G01X283109Y-47715D02*
X287709D01*
G01X293909Y-54215D02*
X289909D01*
Y-47715D01*
X293909D01*
G01X292309Y-50857D02*
X289909D01*
G01X296209Y-54215D02*
Y-47715D01*
X298209D01*
X299009Y-48040D01*
X299609Y-48473D01*
X300109Y-49123D01*
X300509Y-49882D01*
X300609Y-50965D01*
X300509Y-52048D01*
X300109Y-52807D01*
X299609Y-53457D01*
X299009Y-53890D01*
X298209Y-54215D01*
X296209D01*
G01X328159D02*
X327359Y-54107D01*
X326659Y-53673D01*
X326059Y-53023D01*
X325659Y-52265D01*
X325459Y-51398D01*
Y-50532D01*
X325659Y-49665D01*
X326059Y-48907D01*
X326659Y-48257D01*
X327359Y-47823D01*
X328159Y-47715D01*
X328959Y-47823D01*
X329659Y-48257D01*
X330259Y-48907D01*
X330659Y-49665D01*
X330859Y-50532D01*
Y-51398D01*
X330659Y-52265D01*
X330259Y-53023D01*
X329659Y-53673D01*
X328959Y-54107D01*
X328159Y-54215D01*
G01X328959Y-52482D02*
X330159Y-54215D01*
G01X334659Y-47715D02*
Y-54215D01*
G01X332359Y-47715D02*
X336959D01*
G01X341159Y-54215D02*
Y-51290D01*
X339159Y-47715D01*
G01X343159D02*
X341159Y-51290D01*
G01X263909Y-67215D02*
Y-60715D01*
X266309D01*
X267109Y-61040D01*
X267709Y-61798D01*
X267909Y-62665D01*
X267709Y-63532D01*
X267209Y-64182D01*
X266309Y-64507D01*
X263909D01*
G01X270409Y-60715D02*
Y-67215D01*
X274409D01*
G01X276409D02*
X278909Y-60715D01*
X281409Y-67215D01*
G01X280509Y-64940D02*
X277309D01*
G01X285409Y-60715D02*
Y-67215D01*
G01X283109Y-60715D02*
X287709D01*
G01X293909Y-67215D02*
X289909D01*
Y-60715D01*
X293909D01*
G01X292309Y-63857D02*
X289909D01*
G01X296209Y-67215D02*
Y-60715D01*
X298209D01*
X299009Y-61040D01*
X299609Y-61473D01*
X300109Y-62123D01*
X300509Y-62882D01*
X300609Y-63965D01*
X300509Y-65048D01*
X300109Y-65807D01*
X299609Y-66457D01*
X299009Y-66890D01*
X298209Y-67215D01*
X296209D01*
G01X324909D02*
Y-60715D01*
X323709Y-62015D01*
G01Y-67215D02*
X326109D01*
G01X332609D02*
Y-60715D01*
X328909Y-65373D01*
X333909D01*
G01X337909Y-67215D02*
X338609Y-67107D01*
X339409Y-66782D01*
X339909Y-66240D01*
X340109Y-65482D01*
X339909Y-64723D01*
X339309Y-64073D01*
X338409Y-63748D01*
X337409D01*
X336809Y-63532D01*
X336309Y-62990D01*
X336109Y-62232D01*
X336409Y-61473D01*
X337109Y-60932D01*
X337909Y-60715D01*
X338709Y-60932D01*
X339409Y-61473D01*
X339709Y-62232D01*
X339509Y-62990D01*
X339009Y-63532D01*
X338409Y-63748D01*
X337409D01*
X336509Y-64073D01*
X335909Y-64723D01*
X335709Y-65482D01*
X335909Y-66240D01*
X336409Y-66782D01*
X337209Y-67107D01*
X337909Y-67215D01*
G01X344409D02*
Y-60715D01*
X343209Y-62015D01*
G01Y-67215D02*
X345609D01*
G01X263909Y-80215D02*
Y-73715D01*
X266309D01*
X267109Y-74040D01*
X267709Y-74798D01*
X267909Y-75665D01*
X267709Y-76532D01*
X267209Y-77182D01*
X266309Y-77507D01*
X263909D01*
G01X270409Y-73715D02*
Y-80215D01*
X274409D01*
G01X276409D02*
X278909Y-73715D01*
X281409Y-80215D01*
G01X280509Y-77940D02*
X277309D01*
G01X285409Y-73715D02*
Y-80215D01*
G01X283109Y-73715D02*
X287709D01*
G01X293909Y-80215D02*
X289909D01*
Y-73715D01*
X293909D01*
G01X292309Y-76857D02*
X289909D01*
G01X296209Y-80215D02*
Y-73715D01*
X298209D01*
X299009Y-74040D01*
X299609Y-74473D01*
X300109Y-75123D01*
X300509Y-75882D01*
X300609Y-76965D01*
X300509Y-78048D01*
X300109Y-78807D01*
X299609Y-79457D01*
X299009Y-79890D01*
X298209Y-80215D01*
X296209D01*
G01X334659D02*
X335359Y-80107D01*
X336159Y-79782D01*
X336659Y-79240D01*
X336859Y-78482D01*
X336659Y-77723D01*
X336059Y-77073D01*
X335159Y-76748D01*
X334159D01*
X333559Y-76532D01*
X333059Y-75990D01*
X332859Y-75232D01*
X333159Y-74473D01*
X333859Y-73932D01*
X334659Y-73715D01*
X335459Y-73932D01*
X336159Y-74473D01*
X336459Y-75232D01*
X336259Y-75990D01*
X335759Y-76532D01*
X335159Y-76748D01*
X334159D01*
X333259Y-77073D01*
X332659Y-77723D01*
X332459Y-78482D01*
X332659Y-79240D01*
X333159Y-79782D01*
X333959Y-80107D01*
X334659Y-80215D01*
G01X263909Y-93215D02*
Y-86715D01*
X266309D01*
X267109Y-87040D01*
X267709Y-87798D01*
X267909Y-88665D01*
X267709Y-89532D01*
X267209Y-90182D01*
X266309Y-90507D01*
X263909D01*
G01X270409Y-86715D02*
Y-93215D01*
X274409D01*
G01X276409D02*
X278909Y-86715D01*
X281409Y-93215D01*
G01X280509Y-90940D02*
X277309D01*
G01X285409Y-86715D02*
Y-93215D01*
G01X283109Y-86715D02*
X287709D01*
G01X293909Y-93215D02*
X289909D01*
Y-86715D01*
X293909D01*
G01X292309Y-89857D02*
X289909D01*
G01X296209Y-93215D02*
Y-86715D01*
X298209D01*
X299009Y-87040D01*
X299609Y-87473D01*
X300109Y-88123D01*
X300509Y-88882D01*
X300609Y-89965D01*
X300509Y-91048D01*
X300109Y-91807D01*
X299609Y-92457D01*
X299009Y-92890D01*
X298209Y-93215D01*
X296209D01*
G01X331409D02*
Y-86715D01*
X330209Y-88015D01*
G01Y-93215D02*
X332609D01*
G01X336009Y-87798D02*
X336609Y-87148D01*
X337309Y-86823D01*
X338109Y-86715D01*
X339109Y-86932D01*
X339809Y-87473D01*
X340009Y-88123D01*
X339909Y-88773D01*
X339509Y-89315D01*
X337509Y-90398D01*
X336609Y-91157D01*
X336009Y-92240D01*
X335809Y-93215D01*
X340009D01*
G01X263909Y-106215D02*
Y-99715D01*
X266309D01*
X267109Y-100040D01*
X267709Y-100798D01*
X267909Y-101665D01*
X267709Y-102532D01*
X267209Y-103182D01*
X266309Y-103507D01*
X263909D01*
G01X270409Y-99715D02*
Y-106215D01*
X274409D01*
G01X276409D02*
X278909Y-99715D01*
X281409Y-106215D01*
G01X280509Y-103940D02*
X277309D01*
G01X285409Y-99715D02*
Y-106215D01*
G01X283109Y-99715D02*
X287709D01*
G01X293909Y-106215D02*
X289909D01*
Y-99715D01*
X293909D01*
G01X292309Y-102857D02*
X289909D01*
G01X296209Y-106215D02*
Y-99715D01*
X298209D01*
X299009Y-100040D01*
X299609Y-100473D01*
X300109Y-101123D01*
X300509Y-101882D01*
X300609Y-102965D01*
X300509Y-104048D01*
X300109Y-104807D01*
X299609Y-105457D01*
X299009Y-105890D01*
X298209Y-106215D01*
X296209D01*
G01X329509Y-100798D02*
X330109Y-100148D01*
X330809Y-99823D01*
X331609Y-99715D01*
X332609Y-99932D01*
X333309Y-100473D01*
X333509Y-101123D01*
X333409Y-101773D01*
X333009Y-102315D01*
X331009Y-103398D01*
X330109Y-104157D01*
X329509Y-105240D01*
X329309Y-106215D01*
X333509D01*
G01X337909D02*
X338609Y-106107D01*
X339409Y-105782D01*
X339909Y-105240D01*
X340109Y-104482D01*
X339909Y-103723D01*
X339309Y-103073D01*
X338409Y-102748D01*
X337409D01*
X336809Y-102532D01*
X336309Y-101990D01*
X336109Y-101232D01*
X336409Y-100473D01*
X337109Y-99932D01*
X337909Y-99715D01*
X338709Y-99932D01*
X339409Y-100473D01*
X339709Y-101232D01*
X339509Y-101990D01*
X339009Y-102532D01*
X338409Y-102748D01*
X337409D01*
X336509Y-103073D01*
X335909Y-103723D01*
X335709Y-104482D01*
X335909Y-105240D01*
X336409Y-105782D01*
X337209Y-106107D01*
X337909Y-106215D01*
G01X263909Y-119215D02*
Y-112715D01*
X266309D01*
X267109Y-113040D01*
X267709Y-113798D01*
X267909Y-114665D01*
X267709Y-115532D01*
X267209Y-116182D01*
X266309Y-116507D01*
X263909D01*
G01X270409Y-112715D02*
Y-119215D01*
X274409D01*
G01X276409D02*
X278909Y-112715D01*
X281409Y-119215D01*
G01X280509Y-116940D02*
X277309D01*
G01X285409Y-112715D02*
Y-119215D01*
G01X283109Y-112715D02*
X287709D01*
G01X293909Y-119215D02*
X289909D01*
Y-112715D01*
X293909D01*
G01X292309Y-115857D02*
X289909D01*
G01X296209Y-119215D02*
Y-112715D01*
X298209D01*
X299009Y-113040D01*
X299609Y-113473D01*
X300109Y-114123D01*
X300509Y-114882D01*
X300609Y-115965D01*
X300509Y-117048D01*
X300109Y-117807D01*
X299609Y-118457D01*
X299009Y-118890D01*
X298209Y-119215D01*
X296209D01*
G01X329509Y-113798D02*
X330109Y-113148D01*
X330809Y-112823D01*
X331609Y-112715D01*
X332609Y-112932D01*
X333309Y-113473D01*
X333509Y-114123D01*
X333409Y-114773D01*
X333009Y-115315D01*
X331009Y-116398D01*
X330109Y-117157D01*
X329509Y-118240D01*
X329309Y-119215D01*
X333509D01*
G01X337909D02*
Y-112715D01*
X336709Y-114015D01*
G01Y-119215D02*
X339109D01*
G01X263909Y-132215D02*
Y-125715D01*
X266309D01*
X267109Y-126040D01*
X267709Y-126798D01*
X267909Y-127665D01*
X267709Y-128532D01*
X267209Y-129182D01*
X266309Y-129507D01*
X263909D01*
G01X270409Y-125715D02*
Y-132215D01*
X274409D01*
G01X276409D02*
X278909Y-125715D01*
X281409Y-132215D01*
G01X280509Y-129940D02*
X277309D01*
G01X285409Y-125715D02*
Y-132215D01*
G01X283109Y-125715D02*
X287709D01*
G01X293909Y-132215D02*
X289909D01*
Y-125715D01*
X293909D01*
G01X292309Y-128857D02*
X289909D01*
G01X296209Y-132215D02*
Y-125715D01*
X298209D01*
X299009Y-126040D01*
X299609Y-126473D01*
X300109Y-127123D01*
X300509Y-127882D01*
X300609Y-128965D01*
X300509Y-130048D01*
X300109Y-130807D01*
X299609Y-131457D01*
X299009Y-131890D01*
X298209Y-132215D01*
X296209D01*
G01X332759Y-129507D02*
X333459Y-128748D01*
X334059Y-128315D01*
X334859Y-128098D01*
X335559Y-128315D01*
X336059Y-128748D01*
X336459Y-129398D01*
X336559Y-130157D01*
X336459Y-130807D01*
X336059Y-131457D01*
X335459Y-131998D01*
X334759Y-132215D01*
X333959Y-131998D01*
X333259Y-131349D01*
X332859Y-130373D01*
X332759Y-129290D01*
X332959Y-127882D01*
X333259Y-127123D01*
X333759Y-126365D01*
X334459Y-125823D01*
X335159Y-125715D01*
X335859Y-125932D01*
X336359Y-126473D01*
G54D16*
X25462Y228794D03*
Y251628D03*
X128409Y-76965D03*
X257663Y25457D03*
X234829D03*
X304412D03*
X281578D03*
X297730Y312769D03*
X320564D03*
G54D17*
X27549Y223203D03*
Y257219D03*
X128409Y-219965D03*
G54D18*
X105162Y295136D03*
X128409Y-180965D03*
X203588Y295136D03*
G54D19*
X87512Y287321D03*
X69796D03*
X128409Y-89965D03*
X165449Y63390D03*
X183165D03*
X337069Y181623D03*
X377369Y4304D03*
X385243D03*
X393117D03*
X377369Y22020D03*
X385243D03*
X393117D03*
X354785Y181623D03*
M02*
