G04 ================== begin FILE IDENTIFICATION RECORD ==================*
G04 Layout Name:  G:/project_development/GitHub/StarrySky/PCB/V2.0/STARRYSKY.brd*
G04 Film Name:    SOLDBOT*
G04 File Format:  Gerber RS274X*
G04 File Origin:  Cadence Allegro 16.6-2015-S066*
G04 Origin Date:  Mon Aug 28 10:48:11 2023*
G04 *
G04 Layer:  VIA CLASS/SOLDERMASK_BOTTOM*
G04 Layer:  PIN/SOLDERMASK_BOTTOM*
G04 Layer:  PACKAGE GEOMETRY/SOLDERMASK_BOTTOM*
G04 Layer:  BOARD GEOMETRY/SOLDERMASK_BOTTOM*
G04 Layer:  BOARD GEOMETRY/OUTLINE*
G04 *
G04 Offset:    (0.00 0.00)*
G04 Mirror:    No*
G04 Mode:      Positive*
G04 Rotation:  0*
G04 FullContactRelief:  No*
G04 UndefLineWidth:     0.01*
G04 ================== end FILE IDENTIFICATION RECORD ====================*
%FSLAX55Y55*MOIN*%
%IR0*IPPOS*OFA0.00000B0.00000*MIA0B0*SFA1.00000B1.00000*%
%ADD33R,.02402X.02402*%
%ADD35C,.05157*%
%ADD22C,.03583*%
%ADD12C,.07087*%
%ADD19C,.02795*%
%ADD28C,.09843*%
%ADD11C,.06693*%
%ADD34C,.06299*%
%ADD18C,.07874*%
%ADD15R,.06693X.06693*%
%ADD26R,.01181X.0315*%
%ADD23R,.0315X.01181*%
%ADD32R,.0315X.05512*%
%ADD17R,.05512X.0315*%
%ADD10C,.16535*%
%ADD31R,.04331X.05906*%
%ADD21C,.17717*%
%ADD16R,.05906X.04331*%
%ADD27C,.12598*%
%ADD24O,.04724X.07087*%
%ADD14O,.07087X.04724*%
%ADD30R,.05118X.08268*%
%ADD25O,.04724X.07874*%
%ADD13R,.08268X.05118*%
%ADD36R,.06299X.02165*%
%ADD20O,.07874X.04724*%
%ADD29R,.05394X.04882*%
%ADD37C,.006*%
G75*
%LPD*%
G75*
G54D10*
X15000Y15000D03*
Y323400D03*
X425000Y15000D03*
Y323400D03*
G54D20*
X27549Y223203D03*
Y257219D03*
G54D11*
X13400Y101400D03*
Y91400D03*
Y81400D03*
Y121400D03*
Y111400D03*
X23400Y101400D03*
Y91400D03*
Y121400D03*
Y111400D03*
X128473Y185065D03*
X158473D03*
Y155065D03*
X128473D03*
Y238923D03*
X158473D03*
Y208923D03*
X128473D03*
X239529Y299950D03*
Y309793D03*
X258033D03*
X247797D03*
X266301Y299950D03*
Y309793D03*
X433107Y139394D03*
X433114Y179708D03*
G54D30*
X290281Y321454D03*
X351383D03*
G54D21*
X105162Y295136D03*
X203588D03*
G54D12*
X15426Y189983D03*
Y158487D03*
X76548Y15686D03*
X45052D03*
X172403Y302931D03*
X163387D03*
X154371D03*
X145355D03*
X136340D03*
X167895Y295136D03*
X158879D03*
X149863D03*
X140847D03*
X131832D03*
X172403Y287341D03*
X163387D03*
X154371D03*
X145355D03*
X136340D03*
X332840Y322793D03*
X301344D03*
G54D13*
X16765Y147424D03*
Y208526D03*
G54D31*
X290281Y283265D03*
X348076D03*
G54D22*
X87512Y287321D03*
X69796D03*
X165449Y63390D03*
X183165D03*
X337069Y181623D03*
X354785D03*
G54D14*
X11092Y223203D03*
Y257219D03*
G54D32*
X294611Y279919D03*
X298942D03*
X303273D03*
X307603D03*
X311934D03*
X316265D03*
X320596D03*
X324926D03*
X329257D03*
G54D23*
X101503Y185644D03*
Y184069D03*
Y182495D03*
Y180920D03*
Y179345D03*
Y177770D03*
Y176195D03*
Y174621D03*
Y173046D03*
Y171471D03*
Y169896D03*
Y168321D03*
Y166747D03*
Y165172D03*
Y163597D03*
Y162022D03*
Y160447D03*
Y158873D03*
Y157298D03*
Y155723D03*
Y154148D03*
Y152573D03*
Y150999D03*
Y149424D03*
Y147849D03*
Y146274D03*
Y144699D03*
Y143125D03*
Y141550D03*
Y139975D03*
Y138400D03*
Y136825D03*
X114101Y185644D03*
Y184069D03*
Y182495D03*
Y180920D03*
Y179345D03*
Y177770D03*
Y176195D03*
Y174621D03*
Y173046D03*
Y171471D03*
Y169896D03*
Y168321D03*
Y166747D03*
Y165172D03*
Y163597D03*
Y162022D03*
Y160447D03*
Y158873D03*
Y157298D03*
Y155723D03*
Y154148D03*
Y152573D03*
Y150999D03*
Y149424D03*
Y147849D03*
Y146274D03*
Y144699D03*
Y143125D03*
Y141550D03*
Y139975D03*
Y138400D03*
Y136825D03*
X101503Y213991D03*
Y212416D03*
Y210841D03*
Y209266D03*
Y207691D03*
Y206117D03*
Y204542D03*
Y202967D03*
Y201392D03*
Y199817D03*
Y198243D03*
Y196668D03*
Y195093D03*
Y193518D03*
Y191943D03*
Y190369D03*
Y188794D03*
Y187219D03*
X114101Y213991D03*
Y212416D03*
Y210841D03*
Y209266D03*
Y207691D03*
Y206117D03*
Y204542D03*
Y202967D03*
Y201392D03*
Y199817D03*
Y198243D03*
Y196668D03*
Y195093D03*
Y193518D03*
Y191943D03*
Y190369D03*
Y188794D03*
Y187219D03*
X327057Y136825D03*
Y138400D03*
Y139975D03*
Y141550D03*
Y143125D03*
Y144699D03*
Y146274D03*
Y147849D03*
Y149424D03*
Y150999D03*
Y152573D03*
Y154148D03*
Y155723D03*
Y157298D03*
Y158873D03*
Y160447D03*
Y162022D03*
Y163597D03*
Y165172D03*
Y166747D03*
Y168321D03*
Y169896D03*
Y171471D03*
Y173046D03*
Y174621D03*
Y176195D03*
Y177770D03*
Y179345D03*
Y180920D03*
Y182495D03*
Y184069D03*
Y185644D03*
X314459Y136825D03*
Y138400D03*
Y139975D03*
Y141550D03*
Y143125D03*
Y144699D03*
Y146274D03*
Y147849D03*
Y149424D03*
Y150999D03*
Y152573D03*
Y154148D03*
Y155723D03*
Y157298D03*
Y158873D03*
Y160447D03*
Y162022D03*
Y163597D03*
Y165172D03*
Y166747D03*
Y168321D03*
Y169896D03*
Y171471D03*
Y173046D03*
Y174621D03*
Y176195D03*
Y177770D03*
Y179345D03*
Y180920D03*
Y182495D03*
Y184069D03*
Y185644D03*
X327057Y187219D03*
Y188794D03*
Y190369D03*
Y191943D03*
Y193518D03*
Y195093D03*
Y196668D03*
Y198243D03*
Y199817D03*
Y201392D03*
Y202967D03*
Y204542D03*
Y206117D03*
Y207691D03*
Y209266D03*
Y210841D03*
Y212416D03*
Y213991D03*
X314459Y187219D03*
Y188794D03*
Y190369D03*
Y191943D03*
Y193518D03*
Y195093D03*
Y196668D03*
Y198243D03*
Y199817D03*
Y201392D03*
Y202967D03*
Y204542D03*
Y206117D03*
Y207691D03*
Y209266D03*
Y210841D03*
Y212416D03*
Y213991D03*
G54D24*
X263254Y11087D03*
X229238D03*
X310003D03*
X275987D03*
X292139Y327139D03*
X326155D03*
G54D15*
X23400Y81400D03*
X433107Y147268D03*
X433114Y187582D03*
G54D33*
X333195Y273919D03*
Y270691D03*
X337133Y273919D03*
Y270691D03*
X311934Y273919D03*
Y270691D03*
X329257Y273919D03*
Y270691D03*
X324926Y273919D03*
Y270691D03*
X320596Y273919D03*
Y270691D03*
X294611Y273919D03*
Y270691D03*
X298942Y273919D03*
Y270691D03*
X303273Y273919D03*
Y270691D03*
X394077Y289509D03*
X397305D03*
X354015D03*
X357243D03*
X394077Y269036D03*
X397305D03*
G54D25*
X263254Y27544D03*
X229238D03*
X310003D03*
X275987D03*
X292139Y310682D03*
X326155D03*
G54D16*
X54954Y147424D03*
Y205219D03*
G54D34*
X377369Y4304D03*
X385243D03*
X393117D03*
X377369Y22020D03*
X385243D03*
X393117D03*
G54D17*
X58300Y151754D03*
Y156085D03*
Y160416D03*
Y164746D03*
Y169077D03*
Y173408D03*
Y177739D03*
Y182069D03*
Y186400D03*
G54D26*
X209891Y111983D03*
X211466D03*
X213041D03*
X214616D03*
X216191D03*
X217765D03*
X219340D03*
X220915D03*
X222490D03*
X224065D03*
X225639D03*
X227214D03*
X228789D03*
X230364D03*
X231939D03*
X233513D03*
X235088D03*
X236663D03*
X238238D03*
X239813D03*
X241387D03*
X242962D03*
X244537D03*
X246112D03*
X247687D03*
X249261D03*
X250836D03*
X252411D03*
X253986D03*
X255561D03*
X257135D03*
X258710D03*
X260285D03*
X209891Y124581D03*
X211466D03*
X213041D03*
X214616D03*
X216191D03*
X217765D03*
X219340D03*
X220915D03*
X222490D03*
X224065D03*
X225639D03*
X227214D03*
X228789D03*
X230364D03*
X231939D03*
X233513D03*
X235088D03*
X236663D03*
X238238D03*
X239813D03*
X241387D03*
X242962D03*
X244537D03*
X246112D03*
X247687D03*
X249261D03*
X250836D03*
X252411D03*
X253986D03*
X255561D03*
X257135D03*
X258710D03*
X260285D03*
Y238833D03*
X258710D03*
X257135D03*
X255561D03*
X253986D03*
X252411D03*
X250836D03*
X249261D03*
X247687D03*
X246112D03*
X244537D03*
X242962D03*
X241387D03*
X239813D03*
X238238D03*
X236663D03*
X235088D03*
X233513D03*
X231939D03*
X230364D03*
X228789D03*
X227214D03*
X225639D03*
X224065D03*
X222490D03*
X220915D03*
X219340D03*
X217765D03*
X216191D03*
X214616D03*
X213041D03*
X211466D03*
X209891D03*
X260285Y226235D03*
X258710D03*
X257135D03*
X255561D03*
X253986D03*
X252411D03*
X250836D03*
X249261D03*
X247687D03*
X246112D03*
X244537D03*
X242962D03*
X241387D03*
X239813D03*
X238238D03*
X236663D03*
X235088D03*
X233513D03*
X231939D03*
X230364D03*
X228789D03*
X227214D03*
X225639D03*
X224065D03*
X222490D03*
X220915D03*
X219340D03*
X217765D03*
X216191D03*
X214616D03*
X213041D03*
X211466D03*
X209891D03*
X261860Y111983D03*
X263435D03*
X265009D03*
X266584D03*
X268159D03*
X269734D03*
X271309D03*
X272883D03*
X274458D03*
X276033D03*
X277608D03*
X279183D03*
X280757D03*
X282332D03*
X283907D03*
X285482D03*
X287057D03*
X261860Y124581D03*
X263435D03*
X265009D03*
X266584D03*
X268159D03*
X269734D03*
X271309D03*
X272883D03*
X274458D03*
X276033D03*
X277608D03*
X279183D03*
X280757D03*
X282332D03*
X283907D03*
X285482D03*
X287057D03*
Y238833D03*
X285482D03*
X283907D03*
X282332D03*
X280757D03*
X279183D03*
X277608D03*
X276033D03*
X274458D03*
X272883D03*
X271309D03*
X269734D03*
X268159D03*
X266584D03*
X265009D03*
X263435D03*
X261860D03*
X287057Y226235D03*
X285482D03*
X283907D03*
X282332D03*
X280757D03*
X279183D03*
X277608D03*
X276033D03*
X274458D03*
X272883D03*
X271309D03*
X269734D03*
X268159D03*
X266584D03*
X265009D03*
X263435D03*
X261860D03*
G54D35*
X394554Y240200D03*
X422113D03*
X394554Y280500D03*
X422113D03*
G54D36*
X364243Y292068D03*
Y289509D03*
Y286950D03*
Y284391D03*
Y281832D03*
Y279272D03*
Y276713D03*
Y274154D03*
Y271595D03*
Y269036D03*
X387077D03*
Y271595D03*
Y274154D03*
Y276713D03*
Y279272D03*
Y281832D03*
Y284391D03*
Y286950D03*
Y289509D03*
Y292068D03*
G54D27*
X225946Y322698D03*
X252915Y326628D03*
X279884Y322698D03*
G54D18*
X40377Y168057D03*
Y187743D03*
G54D37*
G01X16000Y0D02*
X424000D01*
G03X440000Y16000I0J16000D01*
G01Y322400D01*
G03X424000Y338400I-16000J0D01*
G01X16000D01*
G03X0Y322400I0J-16000D01*
G01Y16000D01*
G03X16000Y0I16000J0D01*
G54D28*
X325719Y7098D03*
Y25602D03*
Y44106D03*
X355619Y7098D03*
Y25602D03*
Y44106D03*
G54D19*
X25462Y228794D03*
Y251628D03*
X257663Y25457D03*
X234829D03*
X304412D03*
X281578D03*
X297730Y312769D03*
X320564D03*
G54D29*
X342252Y266242D03*
Y272856D03*
M02*
