G04 ================== begin FILE IDENTIFICATION RECORD ==================*
G04 Layout Name:  G:/project_development/GitHub/StarrySky/PCB/V1.3/STARRYSKY.brd*
G04 Film Name:    BOTTOM*
G04 File Format:  Gerber RS274X*
G04 File Origin:  Cadence Allegro 16.6-2015-S066*
G04 Origin Date:  Mon Jun 05 10:46:44 2023*
G04 *
G04 Layer:  VIA CLASS/BOTTOM*
G04 Layer:  PIN/BOTTOM*
G04 Layer:  ETCH/BOTTOM*
G04 Layer:  BOARD GEOMETRY/OUTLINE*
G04 *
G04 Offset:    (0.00 0.00)*
G04 Mirror:    No*
G04 Mode:      Positive*
G04 Rotation:  0*
G04 FullContactRelief:  No*
G04 UndefLineWidth:     0.01*
G04 ================== end FILE IDENTIFICATION RECORD ====================*
%FSLAX55Y55*MOIN*%
%IR0*IPPOS*OFA0.00000B0.00000*MIA0B0*SFA1.00000B1.00000*%
%ADD11C,.018*%
%ADD13C,.04331*%
%ADD12C,.05157*%
%ADD21C,.09055*%
%ADD14C,.0748*%
%ADD28C,.05906*%
%ADD15C,.02795*%
%ADD20C,.06693*%
%ADD29C,.09449*%
%ADD19C,.06299*%
%ADD18R,.06299X.06299*%
%ADD27C,.12205*%
%ADD10C,.16142*%
%ADD24C,.17323*%
%ADD22R,.1378X.1811*%
%ADD25O,.04724X.07087*%
%ADD16O,.07087X.04724*%
%ADD26O,.04724X.07874*%
%ADD17O,.07874X.04724*%
%ADD23R,.01378X.07874*%
%ADD30C,.01*%
%ADD31C,.02*%
%ADD32C,.012*%
%ADD33C,.04*%
%ADD34C,.014*%
%ADD35C,.006*%
%ADD36C,.008*%
%ADD45C,.07302*%
%ADD40C,.0616*%
%ADD39C,.02804*%
%ADD43C,.0691*%
%ADD47C,.08666*%
%ADD41C,.03798*%
%ADD51C,.07696*%
%ADD46C,.07878*%
%ADD37C,.07879*%
%ADD42C,.10452*%
%ADD52C,.13208*%
%ADD48R,.10238X.10238*%
%ADD44R,.07302X.07302*%
%ADD50C,.18326*%
%ADD38C,.18902*%
%ADD53R,.23626X.23626*%
%ADD54R,.0238X.08876*%
%ADD49R,.02382X.08876*%
G75*
%LPD*%
G75*
G36*
G01X16626Y2113D02*
X16445Y2294D01*
X13408D01*
X2781Y12921D01*
Y261384D01*
X5473Y264076D01*
X26679D01*
X29351Y261404D01*
Y240820D01*
X26307D01*
G03Y235092I0J-2864D01*
G01X29351D01*
Y123546D01*
X88992Y63906D01*
X88906Y63771D01*
G03X90840Y61837I1186J-748D01*
G01X90975Y61923D01*
X96300Y56598D01*
G02X96312Y56045I-283J-283D01*
G03X98293Y54064I1032J-949D01*
G02X98846Y54052I270J-295D01*
G01X100107Y52791D01*
G02X100022Y52160I-282J-283D01*
G03X101933Y50249I691J-1220D01*
G02X102564Y50334I348J-197D01*
G01X105578Y47320D01*
X169147D01*
G02X169490Y46713I0J-400D01*
G03X171890I1200J-724D01*
G02X172233Y47320I343J207D01*
G01X181871D01*
G02X182214Y46713I0J-400D01*
G03X182441Y44979I1200J-725D01*
G02X182164Y44292I-278J-287D01*
G01X180883D01*
X172560Y35968D01*
X172291D01*
G02X171897Y36435I0J400D01*
G03X171501Y37662I-1383J231D01*
G02Y38231I282J284D01*
G03X171786Y39816I-987J996D01*
G02X172161Y40384I363J168D01*
G03X170930Y41195I41J1401D01*
G02X170555Y40627I-363J-168D01*
G03X169527Y38231I-41J-1401D01*
G02Y37662I-282J-284D01*
G03X169131Y36435I987J-996D01*
G02X168737Y35968I-394J-67D01*
G01X168267D01*
G03Y32366I0J-1801D01*
G01X170425D01*
G02X170819Y31899I0J-400D01*
G03X170930Y31077I1383J-232D01*
G02X170555Y30509I-363J-168D01*
G03X169181Y28674I-41J-1401D01*
G02X168800Y28150I-381J-124D01*
G01X163572D01*
X158415Y33308D01*
X143721D01*
X142141Y31728D01*
X131750D01*
G02X131493Y32433I1J400D01*
G03X129687I-903J1073D01*
G02X129430Y31728I-258J-305D01*
G01X123634D01*
Y31927D01*
G03X120830I-1402J-1D01*
G01Y31728D01*
X115598D01*
Y31927D01*
G03X112794I-1402J-1D01*
G01Y31728D01*
X97608D01*
X77804Y51532D01*
Y57192D01*
X64724Y70272D01*
X62167D01*
G03Y67068I0J-1602D01*
G01X63398D01*
X73708Y56758D01*
G02X73387Y56077I-283J-283D01*
G03X71632Y54483I-154J-1594D01*
G01Y47284D01*
X95805Y23110D01*
X102279D01*
G02X102666Y22607I1J-400D01*
G03X105374I1354J-363D01*
G02X105761Y23110I386J103D01*
G01X136478D01*
G02X136811Y22490I0J-400D01*
G03X139149I1169J-775D01*
G02X139482Y23110I333J220D01*
G01X170041D01*
G03X171637Y24580I0J1601D01*
G02X172036Y24948I399J-32D01*
G01X183238D01*
G03X184360Y27691I0J1601D01*
G02X184329Y28228I280J286D01*
G03X184225Y30103I-1091J880D01*
G02Y30672I282J285D01*
G03X182251I-987J995D01*
G02Y30103I-282J-285D01*
G03X181905Y28674I987J-995D01*
G02X181524Y28150I-381J-124D01*
G01X172228D01*
G02X171847Y28674I0J400D01*
G03X171786Y29698I-1333J434D01*
G02X172161Y30266I363J168D01*
G03X173585Y31899I41J1401D01*
G02X173979Y32366I394J67D01*
G01X174052D01*
X182375Y40688D01*
X183111D01*
G02X183499Y40189I1J-400D01*
G03X183813Y38907I1358J-347D01*
G02X183774Y38336I-298J-266D01*
G03X183288Y37138I910J-1067D01*
G02X182979Y36710I-398J-38D01*
G03X184689Y35475I314J-1366D01*
G02X184998Y35903I398J38D01*
G03X185728Y38204I-314J1366D01*
G02X185767Y38775I298J266D01*
G03X185955Y38970I-911J1066D01*
G02X186551Y39004I313J-249D01*
G01X188130Y37424D01*
X190876D01*
G03X192004Y40631I0J1802D01*
G02X191973Y40911I125J156D01*
G03X189497Y42039I-1097J873D01*
G02X188821Y41829I-393J73D01*
G01X186358Y44292D01*
X184664D01*
G02X184387Y44979I1J400D01*
G03X184614Y46713I-973J1009D01*
G02X184957Y47320I343J207D01*
G01X188849D01*
X210750Y25420D01*
X229351D01*
X229385Y25262D01*
G03X234985I2800J601D01*
G01X235019Y25420D01*
X235869D01*
X235881Y25232D01*
G03X239671I1895J119D01*
G01X239683Y25420D01*
X246180D01*
G03X248696I1258J618D01*
G01X249462D01*
G03X251978I1258J618D01*
G01X258703D01*
X258715Y25232D01*
G03X262505I1895J119D01*
G01X262517Y25420D01*
X263367D01*
X263401Y25262D01*
G03X269001I2800J601D01*
G01X269035Y25420D01*
X271460D01*
X271495Y25263D01*
G03X277089I2797J611D01*
G01X277124Y25420D01*
X277976D01*
X277988Y25234D01*
G03X281778I1895J128D01*
G01X281790Y25420D01*
X300810D01*
X300822Y25234D01*
G03X304612I1895J128D01*
G01X304624Y25420D01*
X305476D01*
X305511Y25263D01*
G03X311105I2797J611D01*
G01X311140Y25420D01*
X322235D01*
X322245Y25230D01*
G03X332683I5219J274D01*
G01X332693Y25420D01*
X338651D01*
X342546Y21525D01*
Y4305D01*
X340354Y2113D01*
X330858D01*
G02X330617Y2832I0J400D01*
G03X324311I-3153J4168D01*
G02X324070Y2113I-241J-319D01*
G01X147958D01*
G02X147568Y2603I0J400D01*
G03X144836I-1366J316D01*
G02X144446Y2113I-390J-90D01*
G01X143276D01*
G02X142886Y2603I0J400D01*
G03X140154I-1366J316D01*
G02X139764Y2113I-390J-90D01*
G01X16626D01*
G37*
G36*
G01X437681Y215920D02*
Y13216D01*
X426874Y2409D01*
X425471D01*
X425166Y2104D01*
X397199D01*
G02X396847Y2694I0J400D01*
G03X390771I-3038J1646D01*
G02X390419Y2104I-352J-190D01*
G01X389325D01*
G02X388973Y2694I0J400D01*
G03X382897I-3038J1646D01*
G02X382545Y2104I-352J-190D01*
G01X381451D01*
G02X381099Y2694I0J400D01*
G03X375023I-3038J1646D01*
G02X374671Y2104I-352J-190D01*
G01X360770D01*
G02X360530Y2824I1J400D01*
G03X354248I-3141J4176D01*
G02X354008Y2104I-241J-320D01*
G01X345888D01*
X343848Y4144D01*
Y22064D01*
X343846Y22066D01*
Y23630D01*
X338970Y28506D01*
X331742D01*
G03X323186I-4278J-3002D01*
G01X311172D01*
Y29024D01*
G03X305444I-2864J0D01*
G01Y28506D01*
X277156D01*
Y29024D01*
G03X271428I-2864J0D01*
G01Y28506D01*
X269064D01*
Y29013D01*
G03X263338I-2863J0D01*
G01Y28506D01*
X235048D01*
Y29013D01*
G03X229322I-2863J0D01*
G01Y28506D01*
X211278D01*
X190447Y49337D01*
X184651D01*
X184630Y49513D01*
G03X184225Y50339I-1392J-170D01*
G02Y50908I282J284D01*
G03X182251I-987J995D01*
G02Y50339I-282J-284D01*
G03X181846Y49513I987J-996D01*
G01X181825Y49337D01*
X156770D01*
G02X156372Y49705I1J400D01*
G03X153576I-1398J-111D01*
G02X153178Y49337I-399J32D01*
G01X149861D01*
G02X149488Y49881I0J400D01*
G03X146870I-1309J503D01*
G02X146497Y49337I-373J-144D01*
G01X107071D01*
X95540Y60868D01*
G02X95687Y61527I283J283D01*
G03X93892Y63322I-476J1319D01*
G02X93233Y63175I-376J136D01*
G01X72198Y84210D01*
X72310Y84350D01*
G03X70363Y86340I-1094J877D01*
G01X70338Y86321D01*
X70153Y86255D01*
X30652Y125756D01*
Y137979D01*
G02X31149Y138367I400J0D01*
G03Y141087I340J1360D01*
G02X30652Y141475I-97J388D01*
G01Y235354D01*
G03Y240558I-1195J2602D01*
G01Y246342D01*
X33112Y248801D01*
X54719D01*
X56309Y247211D01*
Y241218D01*
X76475Y221052D01*
X95197D01*
X95208Y220863D01*
G03X98008I1400J79D01*
G01X98019Y221052D01*
X98353D01*
X100281Y219124D01*
Y214714D01*
X100262Y214630D01*
Y214628D01*
G03X100088Y213858I1628J-772D01*
G01Y208521D01*
G03X100262Y207751I1802J2D01*
G01Y207750D01*
X100281Y207709D01*
Y207120D01*
X99298Y206137D01*
X79745D01*
X73157Y199549D01*
Y157054D01*
X75416Y154795D01*
G02X75199Y154117I-282J-283D01*
G03X76811Y152505I229J-1383D01*
G02X77489Y152722I395J-65D01*
G01X87147Y143064D01*
G02X87009Y142408I-283J-283D01*
G03X87588Y139314I579J-1493D01*
G01X90898D01*
X91283Y138928D01*
X99025D01*
X104307Y133646D01*
G02X103983Y132965I-283J-283D01*
G03X105231Y131717I-146J-1394D01*
G02X105912Y132041I398J41D01*
G01X110731Y127222D01*
Y99740D01*
X108723Y97732D01*
X108524Y97814D01*
X108497Y97839D01*
G03X106878Y95582I-965J-1017D01*
G01Y86757D01*
X103303Y83181D01*
G03X105567Y80917I1132J-1132D01*
G01X106389Y81738D01*
G02X107049Y81587I283J-283D01*
G03X108835Y83373I1324J462D01*
G02X108684Y84033I132J377D01*
G01X110082Y85431D01*
Y94561D01*
X110390Y94869D01*
G02X110731Y94727I141J-142D01*
G01Y93235D01*
X115874Y88092D01*
X189378D01*
G02X189776Y87727I0J-400D01*
G03X192570I1397J124D01*
G02X192968Y88092I398J-35D01*
G01X198124D01*
G02X198522Y87727I0J-400D01*
G03X201316I1397J124D01*
G02X201714Y88092I398J-35D01*
G01X206912D01*
G02X207310Y87727I0J-400D01*
G03X210104I1397J124D01*
G02X210502Y88092I398J-35D01*
G01X215658D01*
G02X216056Y87727I0J-400D01*
G03X218850I1397J124D01*
G02X219248Y88092I398J-35D01*
G01X220911D01*
G02X221309Y87727I0J-400D01*
G03X224103I1397J124D01*
G02X224501Y88092I398J-35D01*
G01X229657D01*
G02X230055Y87727I0J-400D01*
G03X232849I1397J124D01*
G02X233247Y88092I398J-35D01*
G01X236921D01*
G02X237319Y87727I0J-400D01*
G03X240113I1397J124D01*
G02X240511Y88092I398J-35D01*
G01X245667D01*
G02X246065Y87727I0J-400D01*
G03X248859I1397J124D01*
G02X249257Y88092I398J-35D01*
G01X249897D01*
G02X250295Y87727I0J-400D01*
G03X253089I1397J124D01*
G02X253487Y88092I398J-35D01*
G01X256239D01*
G02X256637Y87727I0J-400D01*
G03X259431I1397J124D01*
G02X259829Y88092I398J-35D01*
G01X289231D01*
X314235Y113096D01*
X324151D01*
G03X326209I1029J952D01*
G01X329151D01*
G03X331209I1029J952D01*
G01X334151D01*
G03X336209I1029J952D01*
G01X339151D01*
G03X341209I1029J952D01*
G01X341695D01*
X343104Y114505D01*
G02X343785Y114183I283J-283D01*
G03X345045Y115443I1395J-135D01*
G02X344723Y116124I-39J398D01*
G01X362954Y134355D01*
Y143223D01*
G03Y145639I-712J1208D01*
G01Y147161D01*
G03Y149577I-712J1208D01*
G01Y150281D01*
G02X363352Y150681I400J0D01*
G03Y153485I-9J1402D01*
G02X362954Y153885I2J400D01*
G01Y160518D01*
G02X363352Y160918I400J0D01*
G03Y163722I-9J1402D01*
G02X362954Y164122I2J400D01*
G01Y170805D01*
G02X363138Y171004I200J0D01*
G03Y173798I-113J1397D01*
G02X362954Y173997I16J199D01*
G01Y246876D01*
X368802Y252724D01*
X382105D01*
G03X384609I1252J630D01*
G01X405954D01*
G02X406318Y252160I-1J-400D01*
G03X408874I1278J-577D01*
G02X409238Y252724I365J164D01*
G01X428109D01*
X428145Y252570D01*
G03X430875I1365J322D01*
G01X430911Y252724D01*
X436156D01*
X437681Y251199D01*
Y232468D01*
X430799D01*
Y225166D01*
X437681D01*
Y221714D01*
G02X437002Y221428I-400J1D01*
G03Y216206I-2552J-2611D01*
G02X437681Y215920I279J-287D01*
G37*
G36*
G01X179900Y226156D02*
G02X179313Y225802I-400J0D01*
G03X178567Y225986I-745J-1417D01*
G01X139948D01*
G02X139665Y226669I0J400D01*
G01X140316Y227321D01*
Y236007D01*
G02X140746Y236406I400J0D01*
G03X142468Y238003I120J1597D01*
G01Y238836D01*
G02X142940Y239230I400J1D01*
G03X144830Y240805I289J1575D01*
G01Y241703D01*
X155800D01*
Y238003D01*
G03X159004I1602J0D01*
G01Y246142D01*
G03X158593Y247213I-1601J0D01*
G01Y250581D01*
X157382D01*
G02X157131Y251292I0J400D01*
G03X155365I-883J1089D01*
G02X155114Y250581I-251J-311D01*
G01X153238D01*
G02X152987Y251292I0J400D01*
G03X151221I-883J1089D01*
G02X150970Y250581I-251J-311D01*
G01X148120D01*
G02X147869Y251292I0J400D01*
G03X146103I-883J1089D01*
G02X145852Y250581I-251J-311D01*
G01X143976D01*
G02X143725Y251292I0J400D01*
G03X141959I-883J1089D01*
G02X141708Y250581I-251J-311D01*
G01X139675D01*
Y247213D01*
G03X139264Y246142I1190J-1071D01*
G01Y238003D01*
G03X139271Y237861I1602J8D01*
G01X139279Y237768D01*
X139072Y237560D01*
X137117Y239515D01*
X137259Y239657D01*
X137260Y239658D01*
G03X137744Y240805I-1117J1147D01*
G01Y246142D01*
G03X137333Y247213I-1601J0D01*
G01Y250581D01*
X134714D01*
G02X134463Y251292I0J400D01*
G03X132697I-883J1089D01*
G02X132446Y250581I-251J-311D01*
G01X129596D01*
G02X129345Y251292I0J400D01*
G03X127579I-883J1089D01*
G02X127328Y250581I-251J-311D01*
G01X125452D01*
G02X125201Y251292I0J400D01*
G03X123435I-883J1089D01*
G02X123184Y250581I-251J-311D01*
G01X120334D01*
G02X120083Y251292I0J400D01*
G03X119131Y250981I-883J1089D01*
G01X119321Y250971D01*
Y250581D01*
X118415D01*
Y247213D01*
G03X118004Y246142I1190J-1071D01*
G01Y240400D01*
X100725D01*
X100623Y240646D01*
X100664Y240688D01*
Y254861D01*
X103450Y257646D01*
Y267651D01*
X101568Y269532D01*
X92062D01*
X90524Y267995D01*
Y247696D01*
G02X89842Y247413I-400J0D01*
G01X83664Y253590D01*
Y270894D01*
X78048Y276510D01*
Y288580D01*
X80138Y290669D01*
Y302373D01*
X77317Y305194D01*
X72813D01*
X70276Y302656D01*
X70183Y302664D01*
G03X68442Y301069I-140J-1595D01*
G01Y300913D01*
G02X68049Y300513I-400J0D01*
G03X66943Y300044I26J-1601D01*
G01X61824Y294925D01*
Y278573D01*
G02X61253Y278212I-400J1D01*
G03X60448Y278331I-599J-1268D01*
G02X59989Y278726I-59J396D01*
G01Y286957D01*
X57226Y289720D01*
G03X54962Y287456I-1132J-1132D01*
G01X56786Y285631D01*
Y249540D01*
G02X56104Y249257I-400J0D01*
G01X55258Y250102D01*
X32573D01*
X31335Y248865D01*
G02X30652Y249148I-283J283D01*
G01Y261943D01*
X27336Y265260D01*
X27417Y265394D01*
G03X23963Y265882I-1622J987D01*
G02X23577Y265378I-386J-104D01*
G01X4934D01*
X2687Y263130D01*
G02X2004Y263413I-283J283D01*
G01Y322400D01*
G02X16000Y336396I13996J0D01*
G01X368088D01*
G02X368371Y335713I0J-400D01*
G01X366612Y333955D01*
Y305961D01*
X367104Y305470D01*
G02X366951Y304808I-283J-283D01*
G03X366957Y302154I454J-1326D01*
G02X367112Y301492I-128J-379D01*
G01X366145Y300524D01*
X352003D01*
X316145Y264666D01*
X307311D01*
X299916Y257272D01*
Y252656D01*
X301308Y251264D01*
G02X301026Y250581I-283J-283D01*
G01X298374D01*
Y254281D01*
G03X295366Y255048I-1602J0D01*
G02X294732Y254956I-351J191D01*
G01X293932Y255757D01*
Y259756D01*
X295531Y261355D01*
G03X296176Y262912I-1557J1557D01*
G01Y272288D01*
X291690Y276774D01*
G03X288576Y273660I-1557J-1557D01*
G01X291772Y270464D01*
Y263824D01*
X289528Y261580D01*
Y253933D01*
X292198Y251264D01*
G02X291915Y250581I-283J-283D01*
G01X288494D01*
Y247213D01*
G03X288084Y246142I1191J-1070D01*
G01Y243132D01*
X287245Y242294D01*
G02X286562Y242577I-283J283D01*
G01Y246142D01*
G03X286152Y247213I-1601J1D01*
G01Y250581D01*
X271959D01*
Y247213D01*
G03X271548Y246142I1190J-1071D01*
G01Y241802D01*
X270193D01*
X270026Y241968D01*
Y246142D01*
G03X269616Y247213I-1601J1D01*
G01Y250581D01*
X262940D01*
Y251479D01*
G03X260317Y252712I-1601J0D01*
G02X260061I-128J154D01*
G03X257438Y251479I-1022J-1233D01*
G01Y250826D01*
X257374Y250763D01*
Y250581D01*
X255423D01*
Y247213D01*
G03X255012Y246142I1190J-1071D01*
G01Y241802D01*
X253492D01*
Y246142D01*
G03X253081Y247213I-1601J0D01*
G01Y250581D01*
X240740D01*
G02X240489Y251292I0J400D01*
G03X238723I-883J1089D01*
G02X238472Y250581I-251J-311D01*
G01X236596D01*
G02X236345Y251292I0J400D01*
G03X234579I-883J1089D01*
G02X234328Y250581I-251J-311D01*
G01X234163D01*
Y247213D01*
G03X233752Y246142I1190J-1071D01*
G01Y241802D01*
X232232D01*
Y246142D01*
G03X231821Y247213I-1601J0D01*
G01Y250581D01*
X231478D01*
G02X231227Y251292I0J400D01*
G03X229461I-883J1089D01*
G02X229210Y250581I-251J-311D01*
G01X227334D01*
G02X227083Y251292I0J400D01*
G03X225317I-883J1089D01*
G02X225066Y250581I-251J-311D01*
G01X222216D01*
G02X221965Y251292I0J400D01*
G03X220199I-883J1089D01*
G02X219948Y250581I-251J-311D01*
G01X218072D01*
G02X217821Y251292I0J400D01*
G03X216055I-883J1089D01*
G02X215804Y250581I-251J-311D01*
G01X212903D01*
Y247213D01*
G03X212492Y246142I1190J-1071D01*
G01Y241802D01*
X210561D01*
Y250581D01*
X209106D01*
G02X208820Y251261I0J400D01*
G03X208808Y253513I-1144J1120D01*
G01X204654Y257668D01*
X186387D01*
X184304Y255585D01*
X181660Y258230D01*
X181037D01*
G02X180783Y258938I1J400D01*
G03X181251Y259680I-893J1082D01*
G02X181921Y259867I388J-96D01*
G01X182902Y258887D01*
G03X185166I1132J1132D01*
G01X185455Y259175D01*
X185596Y259033D01*
X185597D01*
G03X187588Y259032I996J986D01*
G02X188157I284J-282D01*
G03X190513Y259680I996J987D01*
G02X191183Y259867I388J-96D01*
G01X192164Y258887D01*
G03X194428I1132J1132D01*
G01X194717Y259175D01*
X194858Y259033D01*
X194859D01*
G03X196850Y259032I996J986D01*
G02X197419I284J-282D01*
G03X199775Y259680I996J987D01*
G02X200445Y259867I388J-96D01*
G01X201426Y258887D01*
G03X203690I1132J1132D01*
G01X203979Y259175D01*
X204120Y259033D01*
X204121D01*
G03X206112Y259032I996J986D01*
G02X206681I285J-282D01*
G03X209037Y259680I996J987D01*
G02X209707Y259867I388J-96D01*
G01X210688Y258887D01*
G03X212952I1132J1132D01*
G01X215196Y261130D01*
X215282D01*
G02X215650Y260573I0J-400D01*
G03X218299Y259680I1288J-554D01*
G02X218969Y259867I388J-96D01*
G01X219950Y258887D01*
G03X222214I1132J1132D01*
G01X224372Y261044D01*
X224510D01*
G02X224885Y260506I0J-400D01*
G03X227561Y259680I1315J-487D01*
G02X228231Y259867I388J-96D01*
G01X229212Y258887D01*
G03X231476I1132J1132D01*
G01X233845Y261256D01*
X234241D01*
G02X234393Y260926I0J-200D01*
G03X236823Y259680I1069J-907D01*
G02X237493Y259867I388J-96D01*
G01X238474Y258887D01*
G03X240738Y261151I1132J1132D01*
G01X237431Y264458D01*
X234322D01*
G02X234007Y265105I0J400D01*
G03X232154Y264784I-1104J864D01*
G02X232223Y264163I-214J-338D01*
G01X230344Y262284D01*
X228380Y264248D01*
X224866D01*
G02X224594Y264941I0J400D01*
G03X223202Y264637I-954J1028D01*
G01X223340Y264592D01*
Y264248D01*
X223046D01*
X221082Y262284D01*
X219032Y264334D01*
X215691D01*
G02X215400Y265008I0J400D01*
G03X213630Y264784I-1021J961D01*
G02X213699Y264163I-214J-338D01*
G01X211820Y262284D01*
X209950Y264154D01*
X204428D01*
X202558Y262284D01*
X200631Y264210D01*
X195223D01*
X193296Y262284D01*
X191083Y264496D01*
X186247D01*
X184034Y262284D01*
X181878Y264440D01*
X176928D01*
X174772Y262284D01*
X173016Y264040D01*
X167266D01*
X165510Y262284D01*
X163640Y264154D01*
X158118D01*
X156248Y262284D01*
X154633Y263898D01*
X148601D01*
X146986Y262284D01*
X144697Y264572D01*
X140013D01*
X137061Y261620D01*
X119200D01*
G03Y258418I0J-1601D01*
G01X137724D01*
G03X138856Y258887I0J1601D01*
G01X139145Y259175D01*
X139286Y259033D01*
X139287D01*
G03X141278Y259032I996J986D01*
G02X141847I285J-282D01*
G03X144203Y259680I996J987D01*
G02X144873Y259867I388J-96D01*
G01X145854Y258887D01*
G03X148118I1132J1132D01*
G01X148407Y259175D01*
X148548Y259033D01*
X148549D01*
G03X150540Y259032I996J986D01*
G02X151109I284J-282D01*
G03X153465Y259680I996J987D01*
G02X154135Y259867I388J-96D01*
G01X155116Y258887D01*
G03X157380I1132J1132D01*
G01X157669Y259175D01*
X157810Y259033D01*
X157811D01*
G03X159802Y259032I996J986D01*
G02X160371I284J-282D01*
G03X162727Y259680I996J987D01*
G02X163397Y259867I388J-96D01*
G01X164378Y258887D01*
G03X164675Y258653I1132J1132D01*
G02X164749Y258029I-209J-341D01*
G01X160234Y253513D01*
G03X160805Y250881I1132J-1132D01*
G01X160935Y250832D01*
Y247213D01*
G03X160524Y246142I1190J-1071D01*
G01Y238003D01*
G03X163728I1602J0D01*
G01Y238836D01*
G02X164200Y239230I400J1D01*
G03X164776I288J1575D01*
G02X165248Y238836I72J-393D01*
G01Y238003D01*
G03X168452I1602J0D01*
G01Y238836D01*
G02X168924Y239230I400J1D01*
G03X169501I289J1575D01*
G02X169974Y238836I73J-394D01*
G01Y238003D01*
G03X173176I1601J0D01*
G01Y238836D01*
G02X173649Y239230I400J0D01*
G03X174225I288J1575D01*
G02X174698Y238836I73J-394D01*
G01Y238003D01*
G03X177900I1601J0D01*
G01Y238836D01*
G02X178373Y239230I400J0D01*
G03X179332Y239351I288J1575D01*
G02X179900Y238988I168J-363D01*
G01Y226156D01*
G37*
G36*
G01X170164Y109169D02*
Y106514D01*
X183697Y92980D01*
X186300D01*
X189204Y90076D01*
G02X188921Y89394I-283J-282D01*
G01X116413D01*
X112032Y93774D01*
Y96512D01*
X113968Y98447D01*
Y106678D01*
G02X114650Y106961I400J0D01*
G01X120977Y100635D01*
G03X123241Y102899I1132J1132D01*
G01X119439Y106701D01*
G02X119474Y107298I283J283D01*
G03X119610Y107420I-1000J1251D01*
G01X120789Y108598D01*
X121199D01*
X121299Y108498D01*
X122019D01*
G03X124395Y108375I1243J1009D01*
G01X124519Y108498D01*
X125101D01*
X126831Y110229D01*
X126918Y110225D01*
G03X128576Y111826I56J1601D01*
G01Y111973D01*
X160081Y143478D01*
X160467D01*
X162840Y145851D01*
Y146237D01*
X168202Y151599D01*
Y153927D01*
X168487Y154212D01*
G02X169170Y153929I283J-283D01*
G01Y146147D01*
G03X169726Y144802I1902J-1D01*
G01X171006Y143523D01*
G02X170843Y142858I-283J-283D01*
G03X171938Y140292I418J-1338D01*
G02X172532Y139942I194J-350D01*
G01Y136734D01*
X170550Y134752D01*
X170510Y134737D01*
G03X169160Y132774I752J-1963D01*
G01Y129074D01*
X175430Y122804D01*
Y121815D01*
G02X174747Y121532I-400J0D01*
G01X172557Y123722D01*
G03X169585Y120750I-1486J-1486D01*
G01X171494Y118842D01*
Y115292D01*
G02X171089Y114892I-400J0D01*
G03Y112088I-18J-1402D01*
G02X171494Y111688I5J-400D01*
G01Y109287D01*
G02X171152Y109146I-200J0D01*
G01X170846Y109452D01*
G03X170164Y109169I-282J-283D01*
G37*
G36*
G01X114650Y127509D02*
G02X113968Y127792I-282J283D01*
G01Y128529D01*
X99980Y142516D01*
X89535D01*
X76311Y155741D01*
G02X76459Y156401I282J283D01*
G03X75109Y158813I-470J1320D01*
G02X74458Y159125I-251J312D01*
G01Y168374D01*
G02X75141Y168657I400J0D01*
G01X78499Y165300D01*
X99601D01*
X110156Y175855D01*
Y199189D01*
X115598Y204630D01*
X121524D01*
X124752Y207858D01*
Y209419D01*
X130996D01*
Y205719D01*
G03X134200I1602J0D01*
G01Y206552D01*
G02X134672Y206946I400J1D01*
G03X135249I288J1575D01*
G02X135722Y206552I73J-394D01*
G01Y205719D01*
G03X138924I1601J0D01*
G01Y213858D01*
G03X138514Y214929I-1601J1D01*
G01Y218297D01*
X131838D01*
Y221997D01*
G03X131807Y222306I-1602J-5D01*
G02X132200Y222784I393J78D01*
G01X178567D01*
G03X179313Y222968I1J1601D01*
G02X179900Y222614I187J-354D01*
G01Y218297D01*
X162116D01*
Y214929D01*
G03X161706Y213858I1191J-1070D01*
G01Y208521D01*
G03X161781Y208036I1601J-1D01*
G01X161818Y207920D01*
X160867Y206969D01*
G02X160184Y207252I-283J283D01*
G01Y213858D01*
G03X159774Y214929I-1601J1D01*
G01Y218297D01*
X140856D01*
Y214929D01*
G03X140446Y213858I1191J-1070D01*
G01Y205719D01*
G03X143648I1601J0D01*
G01Y206552D01*
G02X144121Y206946I400J0D01*
G03X144698I289J1575D01*
G02X145170Y206552I72J-393D01*
G01Y205719D01*
G03X148374I1602J0D01*
G01Y209419D01*
X154855D01*
G02X155206Y208826I1J-400D01*
G03X156549Y206753I1228J-676D01*
G02X156982Y206354I33J-399D01*
G01Y205719D01*
G03X157654Y204415I1601J0D01*
G02X157704Y203806I-233J-326D01*
G01X154298Y200401D01*
Y199220D01*
X154005Y198927D01*
X153800Y199132D01*
X153806Y199222D01*
G03X152271Y196458I-3645J216D01*
G02X152902Y196131I231J-326D01*
G01Y186227D01*
X154298Y184831D01*
Y184699D01*
X160249Y178748D01*
X161749D01*
X161799Y178698D01*
X161921D01*
G02X162248Y178068I0J-400D01*
G03X164540I1146J-808D01*
G02X164867Y178698I327J230D01*
G01X168838D01*
G02X169121Y178016I0J-400D01*
G01X163985Y172880D01*
X160021D01*
X114650Y127509D01*
G37*
G36*
G01X114527Y220634D02*
X110230Y224930D01*
X98303D01*
G02X97927Y225466I0J400D01*
G03X95289I-1319J476D01*
G02X94913Y224930I-376J-136D01*
G01X91273D01*
G02X91069Y225674I0J400D01*
G03X93478Y230740I-2565J4326D01*
G02X93874Y231198I396J58D01*
G01X94812D01*
G02X95210Y230830I0J-400D01*
G03X98006I1398J112D01*
G02X98404Y231198I398J-32D01*
G01X123612D01*
X128294Y235881D01*
Y236034D01*
G02X128767Y236428I400J0D01*
G03X130656Y238003I288J1575D01*
G01Y238836D01*
G02X131129Y239230I400J0D01*
G03X132356Y239508I288J1575D01*
G01X132494Y239608D01*
X132807Y239295D01*
X132665Y239152D01*
X132664Y239151D01*
G03X132178Y238003I1116J-1149D01*
G01Y227264D01*
X132773Y226669D01*
G02X132490Y225986I-283J-283D01*
G01X119880D01*
X114527Y220634D01*
G37*
G36*
G01X79825Y168502D02*
X77526Y170801D01*
Y182365D01*
G03X75072Y183720I-1601J0D01*
G02X74458Y184059I-214J338D01*
G01Y193451D01*
G02X74921Y193846I400J0D01*
G03Y196616I217J1385D01*
G02X74458Y197011I-63J395D01*
G01Y199010D01*
X80284Y204836D01*
X98493D01*
G02X98776Y204153I0J-400D01*
G01X97424Y202800D01*
Y186899D01*
X99224Y185098D01*
G03X99308Y185020I1267J1280D01*
G02X99319Y184730I-132J-150D01*
G03X99178Y182948I1006J-976D01*
G02X98982Y182341I-328J-229D01*
G03X100591Y181823I462J-1324D01*
G02X100787Y182430I328J229D01*
G03X101537Y184459I-462J1324D01*
G02X101631Y184971I346J201D01*
G03X101940Y187451I-1133J1400D01*
G02X102092Y188054I320J240D01*
G03X101443Y190726I-591J1271D01*
G02X101026Y191125I-17J400D01*
G01Y191462D01*
G02X101443Y191861I400J-1D01*
G03Y194663I58J1401D01*
G02X101026Y195062I-17J400D01*
G01Y195399D01*
G02X101443Y195798I400J-1D01*
G03Y198600I58J1401D01*
G02X101026Y198999I-17J400D01*
G01Y199336D01*
G02X101443Y199735I400J-1D01*
G03X102903Y201110I58J1401D01*
G02X103093Y201306I200J-4D01*
G03X104279Y204379I-88J1799D01*
G01X103267Y205390D01*
X101358D01*
G02X101075Y206073I0J400D01*
G01X101582Y206581D01*
Y219663D01*
X100201Y221045D01*
G02X100484Y221728I283J283D01*
G01X108904D01*
X112100Y218532D01*
Y213858D01*
G03X112510Y212787I1601J-1D01*
G01Y209419D01*
X117254D01*
Y212787D01*
G03X117664Y213858I-1191J1070D01*
G01Y219242D01*
X121206Y222784D01*
X128272D01*
G02X128665Y222306I0J-400D01*
G03X128634Y221997I1571J-314D01*
G01Y221164D01*
G02X128162Y220770I-400J-1D01*
G03X126272Y219195I-289J-1575D01*
G01Y218297D01*
X122388D01*
Y219195D01*
G03X119186I-1601J0D01*
G01Y213858D01*
G03X119596Y212787I1601J-1D01*
G01Y209419D01*
X120818D01*
G02X121100Y208736I-1J-400D01*
G01X120198Y207834D01*
X114272D01*
X106954Y200515D01*
Y177181D01*
X98275Y168502D01*
X79825D01*
G37*
G36*
G01X82165Y224930D02*
G02X81789Y225466I0J400D01*
G03X79077Y226103I-1319J475D01*
G02X78397Y225866I-397J46D01*
G01X59990Y244273D01*
Y275162D01*
G02X60448Y275557I400J0D01*
G03X61253Y275676I206J1387D01*
G02X61824Y275315I171J-362D01*
G01Y262384D01*
X88503Y235704D01*
G02X88241Y235022I-283J-283D01*
G03X85939Y225674I263J-5022D01*
G02X85735Y224930I-204J-344D01*
G01X82165D01*
G37*
G36*
G01X99193Y241057D02*
X96198D01*
X91826Y245429D01*
Y267456D01*
X92601Y268231D01*
X101029D01*
X102148Y267112D01*
Y258185D01*
X99798Y255835D01*
G03X98908Y254281I912J-1554D01*
G01Y246142D01*
G03X99363Y244945I1802J0D01*
G01Y241227D01*
X99193Y241057D01*
G37*
G36*
G01X66673Y285821D02*
X70134Y282360D01*
Y268327D01*
X74464Y263998D01*
Y255239D01*
G02X73781Y254956I-400J0D01*
G01X65026Y263710D01*
Y285001D01*
G02X65475Y285398I400J0D01*
G03X66533Y285706I169J1392D01*
G01X66673Y285821D01*
G37*
G36*
G01X174749Y155015D02*
G03X174820Y155082I-1269J1416D01*
G01X177168Y157430D01*
X177182D01*
X183090Y163339D01*
G02X183772Y163056I282J-283D01*
G01Y161023D01*
X184198Y160597D01*
Y157974D01*
G03X183772Y156886I1176J-1088D01*
G01Y155286D01*
G03X184198Y154198I1602J0D01*
G01Y122110D01*
X184189Y122081D01*
G03Y121247I1339J-417D01*
G01X184198Y121218D01*
Y106346D01*
G02X183516Y106063I-400J0D01*
G01X179632Y109946D01*
Y124544D01*
X173362Y130814D01*
Y132186D01*
X176334Y135158D01*
Y143573D01*
X172972Y146935D01*
Y152125D01*
G02X173422Y152522I400J0D01*
G03X174722Y154748I174J1391D01*
G02X174749Y155015I161J119D01*
G37*
G36*
G01X189672Y241802D02*
Y250650D01*
X191262Y252239D01*
G02X191933Y252051I283J-283D01*
G03X192413Y251292I1363J330D01*
G02X192162Y250581I-251J-311D01*
G01X191644D01*
Y241802D01*
X189672D01*
G37*
G36*
G01X171364Y250959D02*
G03X171760Y251249I-737J1422D01*
G01X173982Y253470D01*
X178295D01*
X179900Y251866D01*
Y250581D01*
X171456D01*
X171364Y250959D01*
G37*
G36*
G01X199558Y251261D02*
G03X199546Y253513I-1144J1120D01*
G01X199278Y253782D01*
G02X199561Y254464I283J282D01*
G01X203328D01*
X206544Y251249D01*
G03X206940Y250959I1133J1132D01*
G01X206848Y250581D01*
X203692D01*
G02X203441Y251292I0J400D01*
G03X201675I-883J1089D01*
G02X201424Y250581I-251J-311D01*
G01X199844D01*
G02X199558Y251261I0J400D01*
G37*
G36*
G01X166393Y251292D02*
G03X165849Y253742I-883J1089D01*
G02X165662Y254412I96J388D01*
G01X166276Y255026D01*
X170043D01*
G02X170326Y254344I0J-400D01*
G01X169496Y253513D01*
G03X169484Y251261I1132J-1132D01*
G02X169198Y250581I-286J-280D01*
G01X166644D01*
G02X166393Y251292I0J400D01*
G37*
G36*
G01X260180Y89394D02*
G02X259837Y89999I0J400D01*
G03X260136Y91079I-1803J1081D01*
G01Y92932D01*
X271478Y104274D01*
G03X268506Y107246I-1486J1486D01*
G01X263462Y102202D01*
G02X262780Y102485I-282J283D01*
G01Y111503D01*
X265017Y113740D01*
G02X265572Y113751I283J-283D01*
G03X267553Y115732I953J1028D01*
G02X267564Y116287I294J272D01*
G01X270075Y118798D01*
X275786D01*
G03X277426I820J1138D01*
G01X305800D01*
Y118041D01*
X309472Y114370D01*
X312702D01*
G02X312985Y113687I0J-400D01*
G01X288692Y89394D01*
X260180D01*
G37*
G36*
G01X344202Y196331D02*
X344340Y196375D01*
G03X344861Y198741I-429J1335D01*
G02X344849Y199318I271J294D01*
G01X345014Y199483D01*
Y206744D01*
X344202Y207556D01*
Y213023D01*
G03X344436Y213858I-1367J833D01*
G01Y219358D01*
X341055Y222740D01*
X338152D01*
G03Y219536I0J-1602D01*
G01X339729D01*
X340285Y218980D01*
G02X340003Y218297I-283J-283D01*
G01X334988D01*
Y219195D01*
G03X333979Y220683I-1602J0D01*
G02X333844Y221337I148J371D01*
G01X334312Y221806D01*
G03X332048Y224070I-1132J1132D01*
G01X330945Y222968D01*
G02X330262Y223251I-283J283D01*
G01Y224902D01*
G03X327060I-1601J0D01*
G01Y217902D01*
X325128D01*
Y218297D01*
X320814D01*
Y221135D01*
G03X317612I-1601J0D01*
G01Y218297D01*
X313728D01*
Y222438D01*
G02X314312Y222793I400J0D01*
G03X316652Y224214I739J1421D01*
G01Y227957D01*
X314725Y229884D01*
X309647D01*
X305579Y225816D01*
X304502D01*
Y235801D01*
X301717Y238585D01*
G02X301899Y239255I283J283D01*
G03X303098Y240805I-402J1550D01*
G01Y241703D01*
X307411D01*
Y245071D01*
G03X307822Y246142I-1190J1071D01*
G01Y254281D01*
G03X304618I-1602J0D01*
G01Y253449D01*
G02X303936Y253166I-400J0D01*
G01X303120Y253982D01*
Y255946D01*
X308637Y261464D01*
X311418D01*
G02X311795Y260932I-1J-400D01*
G03X311706Y260403I1512J-526D01*
G01Y253984D01*
G02X311233Y253590I-400J0D01*
G03X309344Y252015I-288J-1575D01*
G01Y246142D01*
G03X309754Y245071I1601J-1D01*
G01Y241703D01*
X314068D01*
Y233618D01*
G03X317270I1601J0D01*
G01Y236731D01*
G02X317953Y237014I400J0D01*
G01X320274Y234694D01*
X337304D01*
X358068Y213929D01*
Y175980D01*
X347772Y165683D01*
Y164451D01*
G02X347089Y164168I-400J0D01*
G01X344202Y167055D01*
Y196331D01*
G37*
G36*
G01X345571Y119778D02*
Y126420D01*
X338801D01*
G02X338519Y127103I1J400D01*
G01X350974Y139559D01*
Y164357D01*
X360970Y174352D01*
G02X361652Y174069I282J-283D01*
G01Y172688D01*
X361649Y172669D01*
G03Y172133I1376J-268D01*
G01X361652Y172114D01*
Y166455D01*
G02X361058Y166105I-400J-1D01*
G03Y163653I-680J-1226D01*
G02X361652Y163303I194J-349D01*
G01Y161336D01*
G02X361058Y160986I-400J-1D01*
G03Y158534I-680J-1226D01*
G02X361652Y158184I194J-349D01*
G01Y156218D01*
G02X361058Y155868I-400J-1D01*
G03Y153416I-680J-1226D01*
G02X361652Y153066I194J-349D01*
G01Y136872D01*
G02X361018Y136548I-400J0D01*
G03X359918Y134038I-821J-1136D01*
G02X360122Y133363I-79J-392D01*
G01X346254Y119495D01*
G02X345571Y119778I-283J283D01*
G37*
G36*
G01X360970Y215557D02*
X351055Y225472D01*
G02X351352Y226155I283J283D01*
G03X347651Y229856I144J3845D01*
G02X346968Y229559I-400J-14D01*
G01X340050Y236477D01*
G02X340049Y237042I283J283D01*
G03X340047Y239305I-1134J1130D01*
G01X338333Y241020D01*
G02X338615Y241703I283J283D01*
G01X342845D01*
Y245071D01*
G03X343256Y246142I-1190J1071D01*
G01Y250316D01*
X343363Y250424D01*
X345637D01*
X348638Y247423D01*
Y244566D01*
G03X351840I1601J0D01*
G01Y248749D01*
X350774Y249816D01*
G02X350853Y250443I283J283D01*
G03X348932Y252364I-715J1206D01*
G02X348305Y252285I-344J204D01*
G01X346963Y253626D01*
X342037D01*
X341575Y253165D01*
G02X340892Y253448I-283J283D01*
G01Y253655D01*
X346838Y259601D01*
G03X344574Y261865I-1132J1132D01*
G01X343132Y260424D01*
G02X342527Y260471I-282J283D01*
G03X342482Y260528I-1279J-964D01*
G01X342370Y260668D01*
X351627Y269925D01*
G02X352310Y269642I283J-283D01*
G01Y256214D01*
X351687Y255592D01*
X354826Y252454D01*
X365725D01*
G02X366008Y251771I0J-400D01*
G01X361652Y247415D01*
Y215840D01*
G02X360970Y215557I-400J0D01*
G37*
G36*
G01X367914Y309237D02*
X368081Y309265D01*
G03Y312031I-232J1383D01*
G01X367914Y312059D01*
Y322427D01*
G02X368461Y322799I400J0D01*
G03Y325405I517J1303D01*
G02X367914Y325777I-147J372D01*
G01Y333416D01*
X370429Y335931D01*
X425508D01*
X425531Y335908D01*
X426917D01*
X437333Y325492D01*
Y323701D01*
X437818Y323216D01*
Y255466D01*
X436107Y253755D01*
X430615D01*
G03X428405I-1105J-863D01*
G01X384707D01*
X384657Y253880D01*
G03X382057I-1300J-526D01*
G01X382007Y253755D01*
X367796D01*
X367773Y253929D01*
G03X364993I-1390J-179D01*
G01X364970Y253755D01*
X355365D01*
X353528Y255592D01*
X353611Y255675D01*
Y270443D01*
X362304Y279136D01*
X365754D01*
X367892Y276998D01*
X390040D01*
X394335Y281293D01*
G02X394992Y281151I283J-283D01*
G03X396799Y282958I1312J495D01*
G02X396657Y283615I141J374D01*
G01X398350Y285308D01*
X406799D01*
X406836Y285292D01*
G03X407467Y285162I632J1472D01*
G01X412380D01*
X412526Y285308D01*
X413519D01*
X416291Y288080D01*
Y303132D01*
X416230D01*
X412790Y306572D01*
X398972D01*
X396763Y304363D01*
X370051D01*
X367914Y306500D01*
Y309237D01*
G37*
%LPC*%
G75*
G36*
G01X235048Y9800D02*
G02X229322I-2863J0D01*
G01Y12162D01*
G02X235048I2863J0D01*
G01Y9800D01*
G37*
G36*
G01X269064D02*
G02X263338I-2863J0D01*
G01Y12162D01*
G02X269064I2863J0D01*
G01Y9800D01*
G37*
G36*
G01X277156Y9810D02*
G02X271428I-2864J0D01*
G01Y12174D01*
G02X277156I2864J0D01*
G01Y9810D01*
G37*
G36*
G01X311172D02*
G02X305444I-2864J0D01*
G01Y12174D01*
G02X311172I2864J0D01*
G01Y9810D01*
G37*
G36*
G01X10244Y235092D02*
G02Y240820I0J2864D01*
G01X12606D01*
G02Y235092I0J-2864D01*
G01X10244D01*
G37*
G36*
G01X156119Y37313D02*
G03X156520Y36876I398J-37D01*
G02X155134Y35604I10J-1402D01*
G03X154733Y36041I-398J37D01*
G02X156119Y37313I-10J1402D01*
G37*
G36*
G01X191863Y30672D02*
G03Y30103I282J-285D01*
G02X189889I-987J-995D01*
G03Y30672I-282J285D01*
G02X191863I987J995D01*
G37*
G36*
G01X18703Y62113D02*
G02X16363I-1170J-2397D01*
G03Y62831I-176J359D01*
G02X18703I1170J2397D01*
G03Y62113I176J-359D01*
G37*
G36*
G01X171901Y52106D02*
G02X170758Y53284I-1387J-203D01*
G03X171223Y53736I69J394D01*
G02X171695Y55001I1387J203D01*
G03X171765Y55529I-261J303D01*
G02X173839Y55256I1159J789D01*
G03X173769Y54728I261J-303D01*
G02X172366Y52558I-1159J-789D01*
G03X171901Y52106I-69J-394D01*
G37*
G36*
G01X363110Y65313D02*
G02X363097Y63559I1087J-885D01*
G03X362473Y63564I-314J-248D01*
G02X362486Y65318I-1087J885D01*
G03X363110Y65313I314J248D01*
G37*
G36*
G01X42135Y244615D02*
G02X40958Y243660I155J-1393D01*
G03X40534Y244183I-380J125D01*
G02X41711Y245138I-155J1393D01*
G03X42135Y244615I380J-125D01*
G37*
G36*
G01X194235Y54183D02*
G03X193848Y53740I10J-400D01*
G02X192417Y54988I-1394J-154D01*
G03X192804Y55431I-10J400D01*
G02X194235Y54183I1394J154D01*
G37*
G36*
G01X92417Y208011D02*
G03X91869I-274J-291D01*
G02Y210055I-960J1022D01*
G03X92417I274J291D01*
G02Y208011I960J-1022D01*
G37*
G36*
G01X372505Y242235D02*
G03X372695Y241764I382J-120D01*
G02X370686Y240952I-671J-1231D01*
G03X370496Y241423I-382J120D01*
G02X372505Y242235I671J1231D01*
G37*
G36*
G01X26307Y269108D02*
G02Y274836I0J2864D01*
G01X29457D01*
G02Y269108I0J-2864D01*
G01X26307D01*
G37*
G36*
G01X10244D02*
G02Y274836I0J2864D01*
G01X12606D01*
G02Y269108I0J-2864D01*
G01X10244D01*
G37*
G36*
G01X243729Y264982D02*
G03X243160I-284J-282D01*
G02Y266956I-995J987D01*
G03X243729I285J282D01*
G02Y264982I995J-987D01*
G37*
G36*
G01X116073Y245071D02*
Y241703D01*
X111329D01*
Y245071D01*
G02X110918Y246142I1190J1071D01*
G01Y251479D01*
G02X112808Y253054I1601J0D01*
G03X113280Y253448I72J393D01*
G01Y254281D01*
G02X116484I1602J0D01*
G01Y246142D01*
G02X116073Y245071I-1601J0D01*
G37*
G36*
G01X105590Y141082D02*
X111234Y146726D01*
Y188162D01*
G02X115638I2202J0D01*
G01Y144902D01*
X108704Y137968D01*
G02X105590Y141082I-1557J1557D01*
G37*
G36*
G01X289759Y97455D02*
X287917Y99296D01*
X279690D01*
G02Y102500I0J1602D01*
G01X289243D01*
X292023Y99719D01*
G02X289759Y97455I-1132J-1132D01*
G37*
G54D45*
X75165Y128593D03*
Y138435D03*
X51028Y325115D03*
X91028Y315115D03*
X81028D03*
X71028D03*
X61028D03*
X91028Y325115D03*
X81028D03*
X71028D03*
X61028D03*
X262544Y258626D03*
X286598Y299275D03*
X259826D03*
X286598Y309118D03*
X259826D03*
X278330D03*
X268094D03*
X120161Y199437D03*
Y169437D03*
X150161D03*
G54D40*
X45667Y97998D03*
X18108D03*
Y139739D03*
X45667D03*
G54D39*
X7148Y28589D03*
X36830Y38996D03*
X19153Y40272D03*
X42918Y11570D03*
Y22244D03*
X39156Y16907D03*
X46680D03*
X42918Y50940D03*
X39549Y55096D03*
X32384Y57992D03*
X6047Y63787D03*
X9516Y100601D03*
X6625Y131632D03*
X42918Y59252D03*
X38953Y89556D03*
X29525Y119441D03*
X17714Y118296D03*
Y106440D03*
X22264Y112368D03*
X22658Y83628D03*
X18108Y77700D03*
Y89556D03*
X22658Y125369D03*
X18108Y131297D03*
X32384Y66738D03*
X7589Y181167D03*
X13756Y209115D03*
X22264Y154109D03*
X13164D03*
X17714Y148181D03*
Y160037D03*
X26065Y252011D03*
Y255948D03*
X76920Y24219D03*
X76590Y8855D03*
X55003Y28130D03*
X133043Y5754D03*
X114196Y35864D03*
X118792Y20779D03*
X124152D03*
Y4421D03*
X118792D03*
X107782Y16907D03*
X100258D03*
X104020Y11570D03*
X60240Y54483D03*
X134030Y18632D03*
X133043Y13522D03*
X107920Y41089D03*
X113280D03*
X110819Y35248D03*
X86154Y63023D03*
X60240Y62401D03*
X152409Y8935D03*
X156347Y13000D03*
X152409D03*
X157310Y4911D03*
X167499Y44066D03*
X149152Y18632D03*
X150085Y6611D03*
X156347Y21036D03*
X152409D03*
X212158Y12102D03*
X217158D03*
X177964Y8183D03*
X180644Y20779D03*
X175284D03*
X255810Y12385D03*
Y8448D03*
X251873D03*
X247936D03*
X243999D03*
Y4511D03*
X247936D03*
X251873D03*
X255810D03*
X243999Y12385D03*
X247936D03*
X251873D03*
X434031Y248396D03*
X420272Y243126D03*
X401477Y237739D03*
X411772Y247990D03*
X428406Y196488D03*
X417732D03*
X423069Y192726D03*
Y200250D03*
X403085Y225939D03*
X414567Y230939D03*
X433600Y206000D03*
X418100Y209100D03*
X434000Y182100D03*
X415600Y175000D03*
X433100Y160400D03*
X415700Y151400D03*
X400234Y69779D03*
X400187Y77092D03*
X400213Y123126D03*
X400260Y115813D03*
X400171Y100098D03*
X400218Y92785D03*
X418416Y127580D03*
X414478D03*
Y81580D03*
X418416D03*
Y104580D03*
X414478D03*
X428406Y135386D03*
X417732D03*
X423069Y131624D03*
Y139148D03*
X434000Y128200D03*
X434600Y95100D03*
X435000Y74500D03*
X434600Y58700D03*
X432700Y39600D03*
X415500Y28100D03*
X406100Y8200D03*
X402400Y21700D03*
X383357Y247058D03*
X382557Y242654D03*
X366383Y243246D03*
X378534Y242654D03*
X385493Y148378D03*
Y165701D03*
Y170031D03*
Y174362D03*
Y161370D03*
X374733D03*
X377189Y206940D03*
X366253Y172401D03*
X389036Y193181D03*
X380701Y204026D03*
X385493Y152708D03*
X388737Y224955D03*
X380701Y230530D03*
X385493Y139716D03*
X360042Y94407D03*
X371853Y86533D03*
X367916D03*
X363979D03*
X360042D03*
Y90470D03*
X363979D03*
X367916D03*
X371853D03*
Y94407D03*
X367916D03*
X363979D03*
X385493Y144047D03*
X366811Y135412D03*
X345180Y98516D03*
X340180D03*
X335180D03*
X330180D03*
X361386Y68386D03*
Y72323D03*
X357449Y68386D03*
X353512D03*
X349575D03*
Y64449D03*
X353512D03*
X357449D03*
X349575Y72323D03*
X353512D03*
X357449D03*
X345180Y60784D03*
X340180D03*
X335180D03*
X330180D03*
X325180D03*
X360042Y117407D03*
X363979D03*
Y113470D03*
X360042D03*
Y109533D03*
X363979D03*
X367916D03*
X371853D03*
X367916Y113470D03*
X371853D03*
Y117407D03*
X367916D03*
X375424Y64606D03*
X396565Y73448D03*
X392932Y69843D03*
X392888Y77075D03*
X385652Y63367D03*
X375424Y110606D03*
Y87606D03*
X366838Y127580D03*
X370776D03*
X374714D03*
X366838Y104580D03*
X370776D03*
X374714D03*
X366838Y81580D03*
X370776D03*
X374714D03*
X385652Y109367D03*
Y86367D03*
X392914Y123109D03*
X396591Y119482D03*
X392958Y115877D03*
X392872Y100081D03*
X396549Y96454D03*
X392916Y92849D03*
X378652Y127580D03*
Y104580D03*
Y81580D03*
X389036Y135386D03*
X342260Y88210D03*
X374788Y46678D03*
Y50616D03*
Y54554D03*
Y58492D03*
X391995Y27353D03*
X386658Y32297D03*
X391995Y37241D03*
X397332Y32297D03*
X317074Y56713D03*
X346938Y53698D03*
X230258Y62944D03*
X301475Y97661D03*
X295891Y60855D03*
X290891D03*
X305891D03*
X300891D03*
X244944Y65150D03*
X249944D03*
X254944D03*
Y60150D03*
X249944D03*
X244944D03*
X264392Y79199D03*
X282767Y59026D03*
X312706Y73931D03*
X240878Y77159D03*
X227608Y32339D03*
X248209Y33956D03*
X252146D03*
X227854Y56602D03*
X241044Y38401D03*
X244944Y55150D03*
X249944D03*
X254944D03*
X278702Y33967D03*
X261791Y33956D03*
X236595D03*
X246938Y46958D03*
X264040Y37888D03*
X266364Y40461D03*
X253680D03*
X303898Y33967D03*
X182163Y60598D03*
X140609Y71728D03*
X150285Y74662D03*
X152418Y62858D03*
X194198Y58867D03*
X140609Y63692D03*
X150285Y84662D03*
X183133Y80123D03*
X164888Y60256D03*
X192163Y70046D03*
X188794Y74793D03*
X195532D03*
X192163Y79540D03*
X172924Y60256D03*
X213631Y77471D03*
X222676Y69305D03*
X199118Y66622D03*
X224326Y32339D03*
X148179Y53666D03*
X207158Y43598D03*
X203742Y46611D03*
X196656D03*
X202158Y43598D03*
X199884Y46611D03*
X58042Y235186D03*
X54104D03*
X85003Y209033D03*
X93340Y215942D03*
X96540Y208442D03*
X64237Y220348D03*
Y227714D03*
X69296Y157721D03*
X60660Y226826D03*
X65385Y183518D03*
X58079Y180149D03*
Y186887D03*
X60660Y167770D03*
X74641Y213302D03*
X64237Y217120D03*
X65481Y188335D03*
Y196211D03*
X67885Y202553D03*
X65645Y176144D03*
X68919Y152734D03*
X63494Y155762D03*
Y160271D03*
Y165752D03*
Y171861D03*
X103981Y92009D03*
X54328Y106440D03*
X76848Y82823D03*
X96559Y82049D03*
X80413Y107673D03*
X79252Y113428D03*
Y93103D03*
X71365Y120796D03*
X83680Y125211D03*
X134147Y84662D03*
X60902Y117007D03*
X71216Y117517D03*
X87070Y127391D03*
X91008D03*
X68013Y112703D03*
X80807Y82049D03*
X88889Y109711D03*
X93889D03*
X98889D03*
Y104711D03*
X93889D03*
X88889D03*
Y99711D03*
X93889D03*
X98889D03*
X100497Y82049D03*
X112311D03*
X71216Y93103D03*
Y97041D03*
X88683Y82049D03*
X57486Y105575D03*
X99111Y66490D03*
X127944Y63788D03*
Y70526D03*
X136671Y63692D03*
X132733D03*
X122489Y74662D03*
Y79662D03*
X116249Y82049D03*
X71216Y89165D03*
X101433Y125229D03*
X107065Y118887D03*
X100713Y59252D03*
X114354Y70526D03*
Y63788D03*
X110985Y67157D03*
X103837Y118887D03*
X132733Y71728D03*
X136671D03*
X117060Y52864D03*
X113280Y57447D03*
X107920D03*
X104082Y55096D03*
X134702Y55334D03*
X50166Y235186D03*
X34400Y242366D03*
X34238Y226826D03*
X47449Y219520D03*
X50773Y183518D03*
X47449Y175076D03*
X34238Y167770D03*
X32122Y296464D03*
Y284650D03*
X121759Y265969D03*
X131021D03*
X82240Y289194D03*
X107586Y294771D03*
X56094Y292526D03*
X54312Y279348D03*
X89295Y272429D03*
X137724Y252381D03*
X186512Y311810D03*
X210131Y266902D03*
X198317D03*
X151061D03*
X154999D03*
X158937D03*
X162875D03*
X166813D03*
X170751D03*
X182565D03*
X186503D03*
X211820Y252381D03*
X190441Y266902D03*
X194379D03*
X286905Y283963D03*
X275749Y280555D03*
X270675Y277995D03*
X260519Y275574D03*
X232407Y272429D03*
X262363Y283114D03*
X116558Y98622D03*
Y94684D03*
X152246Y127302D03*
X150573Y113358D03*
X157211Y110620D03*
Y119366D03*
X139623Y116372D03*
X119419Y135298D03*
X83728Y160259D03*
X126364Y150626D03*
X119419Y156929D03*
X115935Y227511D03*
X79863Y173740D03*
X102772Y178458D03*
X104505Y191294D03*
Y195231D03*
Y199168D03*
X92151Y172029D03*
X80470Y230942D03*
X266092Y109660D03*
X276606Y113560D03*
X280250Y109660D03*
X276606Y105760D03*
X331554Y227302D03*
X343911Y224214D03*
X340399Y227302D03*
X350053Y256965D03*
X367309Y264307D03*
X377388Y274900D03*
X364939Y266677D03*
X367309Y259060D03*
X376322Y321369D03*
X371453Y328694D03*
X373394Y324102D03*
X370370Y307026D03*
X371816Y319569D03*
X434031Y256396D03*
Y264396D03*
Y272396D03*
Y280396D03*
Y288396D03*
X422378Y291953D03*
X429749Y272146D03*
Y288749D03*
X382431Y265745D03*
X379711Y272577D03*
X382431Y269857D03*
Y259060D03*
X410432Y281646D03*
X425013Y294597D03*
X407268Y276788D03*
X407596Y261077D03*
X410965Y256330D03*
X404227D03*
X425013Y281801D03*
X395478Y316886D03*
X400967Y329088D03*
X395722Y333901D03*
X389708D03*
X384028D03*
X378653Y317769D03*
X392267Y316352D03*
X381723Y306971D03*
X397520Y313755D03*
X399990Y323806D03*
X387355Y316515D03*
X379207Y328694D03*
G54D43*
X393809Y22056D03*
X385935D03*
X378061D03*
G54D47*
X40756Y207141D03*
Y187455D03*
G54D41*
X25795Y243547D03*
G54D51*
X195528Y302395D03*
X186512D03*
X177496D03*
X168480D03*
X159465D03*
X191020Y294600D03*
X182004D03*
X172988D03*
X163972D03*
X154957D03*
X195528Y286805D03*
X186512D03*
X177496D03*
X168480D03*
X159465D03*
G54D46*
X424408Y177945D03*
Y146449D03*
G54D37*
X53981Y15568D03*
X85477D03*
G54D42*
X327464Y44008D03*
X357389D03*
Y25504D03*
G54D52*
X246243Y322023D03*
X300181D03*
X273212Y325953D03*
G54D48*
X313869Y294799D03*
G54D44*
X65165Y128593D03*
Y138435D03*
X51028Y315115D03*
X252544Y258626D03*
G54D50*
X128287Y294600D03*
X226713D03*
G54D38*
X15000Y15000D03*
X425000D03*
X15000Y323400D03*
X425000D03*
G54D53*
X135161Y184437D03*
G54D54*
X104252Y213858D03*
G54D49*
X103071Y246142D03*
%LPD*%
G75*
G54D10*
X15000Y15000D03*
Y323400D03*
X425000Y15000D03*
Y323400D03*
G54D20*
X85477Y15568D03*
X53981D03*
X195528Y302395D03*
X186512D03*
X177496D03*
X168480D03*
X159465D03*
X191020Y294600D03*
X182004D03*
X172988D03*
X163972D03*
X154957D03*
X195528Y286805D03*
X186512D03*
X177496D03*
X168480D03*
X159465D03*
X351496Y230000D03*
X424408Y146449D03*
Y177945D03*
G54D11*
G01X191173Y91079D02*
X173595Y108657D01*
Y119712D01*
X171071Y122236D01*
G01X199919Y91079D02*
X195528D01*
X177531Y109076D01*
Y123674D01*
X171261Y129944D01*
Y132774D01*
G01X251692Y91079D02*
Y93483D01*
X260678Y102469D01*
Y112373D01*
X269368Y121063D01*
Y124011D01*
X275963Y130606D01*
X278616D01*
G01X269992Y105760D02*
X258034Y93802D01*
Y91079D01*
G01X327464Y7000D02*
X323427Y2963D01*
G01X327464Y7000D02*
X331501Y2963D01*
X7148Y28589D03*
X36830Y38996D03*
X19153Y40272D03*
X42918Y11570D03*
Y22244D03*
X39156Y16907D03*
X46680D03*
X42918Y50940D03*
X39549Y55096D03*
X32384Y57992D03*
X6047Y63787D03*
X9516Y100601D03*
X6625Y131632D03*
X31489Y139727D03*
X42918Y59252D03*
X38953Y89556D03*
X29525Y119441D03*
X17714Y118296D03*
Y106440D03*
X22264Y112368D03*
X22658Y83628D03*
X18108Y77700D03*
Y89556D03*
X22658Y125369D03*
X18108Y131297D03*
X32384Y66738D03*
X50773Y211078D03*
X7589Y181167D03*
X13756Y209115D03*
X34238Y167770D03*
X47449Y175076D03*
X50773Y183518D03*
X47449Y219520D03*
X34238Y226826D03*
X22264Y154109D03*
X13164D03*
X17714Y148181D03*
Y160037D03*
X38884Y235168D03*
X46228Y235186D03*
X42290D03*
X47620Y305969D03*
X31440Y306996D03*
X42227Y313545D03*
X7170Y291458D03*
X32724Y318809D03*
X39273Y301872D03*
X34400Y242366D03*
X50166Y235186D03*
X38845Y263113D03*
X50940Y262266D03*
Y257266D03*
Y252266D03*
X43203Y259236D03*
X12830Y283135D03*
X9934Y278743D03*
X17830Y283135D03*
X20726Y278743D03*
X34400Y267562D03*
X40379Y245576D03*
X19104Y258827D03*
X15167D03*
X11230D03*
X7293D03*
X19104Y250953D03*
X15167D03*
X11230D03*
X7293D03*
Y254890D03*
X11230D03*
X15167D03*
X19104D03*
X32122Y296464D03*
Y284650D03*
X42290Y243222D03*
X26065Y252011D03*
Y255948D03*
X46978Y331394D03*
X33523Y330016D03*
X73233Y54483D03*
X76920Y24219D03*
X76590Y8855D03*
X55003Y28130D03*
X133043Y5754D03*
X137980Y21715D03*
X114196Y35864D03*
Y31926D03*
Y27988D03*
X130590Y33506D03*
X118792Y20779D03*
X124152D03*
Y4421D03*
X118792D03*
X134702Y55334D03*
X107782Y16907D03*
X100258D03*
X104020Y22244D03*
Y11570D03*
X100713Y50940D03*
X104082Y55096D03*
X97344D03*
X60240Y54483D03*
X134030Y18632D03*
X133043Y13522D03*
X107920Y41089D03*
X113280D03*
X107920Y57447D03*
X113280D03*
X122232Y31926D03*
X110819Y35248D03*
X117060Y52864D03*
X94946Y127391D03*
X136671Y71728D03*
X132733D03*
X116558Y113334D03*
X103837Y118887D03*
X107532Y96822D03*
X131004Y135298D03*
Y130298D03*
Y125298D03*
Y120298D03*
X119116Y125298D03*
X103919Y139525D03*
X110985Y67157D03*
X114354Y63788D03*
Y70526D03*
X100713Y59252D03*
X86154Y63023D03*
X90092D03*
X60240Y62401D03*
X119116Y120298D03*
X107147Y139525D03*
X107065Y118887D03*
X103837Y131571D03*
X101433Y125229D03*
X71216Y89165D03*
X116249Y82049D03*
X122489Y79662D03*
Y74662D03*
X132733Y63692D03*
X136671D03*
X127944Y70526D03*
Y63788D03*
X99111Y66490D03*
X95211Y62846D03*
X62167Y68670D03*
X57486Y105575D03*
X126974Y111826D03*
X122109Y101767D03*
X118478Y108552D03*
X88683Y82049D03*
X71216Y97041D03*
Y93103D03*
Y85227D03*
X112311Y82049D03*
X100497D03*
X98889Y99711D03*
X93889D03*
X88889D03*
Y104711D03*
X93889D03*
X98889D03*
Y109711D03*
X93889D03*
X88889D03*
X116558Y98622D03*
Y94684D03*
X80807Y82049D03*
X68013Y112703D03*
X91008Y127391D03*
X87070D03*
X71216Y117517D03*
X118478Y115926D03*
X60902Y117007D03*
X104435Y82049D03*
X87588Y140915D03*
X123263Y109507D03*
X134147Y84662D03*
X119419Y135298D03*
X83680Y125211D03*
X71365Y120796D03*
X108373Y82049D03*
X79252Y93103D03*
Y113428D03*
X80413Y107673D03*
X96559Y82049D03*
X76848Y82823D03*
X54328Y106440D03*
X103981Y92009D03*
X65481Y192273D03*
X65385Y211078D03*
X58079Y214447D03*
X87969Y191191D03*
X128543Y170066D03*
X121223Y185475D03*
X63494Y171861D03*
Y165752D03*
Y160271D03*
Y155762D03*
X68919Y152734D03*
X75428D03*
X81309D03*
X86917Y154060D03*
X88045Y160214D03*
X82969Y196191D03*
X87969D03*
X92969D03*
Y201191D03*
X87969D03*
X82969D03*
X101890Y208521D03*
X106614Y205719D03*
X111339D03*
X108976Y208521D03*
X118425D03*
X130912Y156929D03*
X83728Y163487D03*
X65645Y176144D03*
X79750Y170539D03*
X67885Y202553D03*
X65481Y196211D03*
Y188335D03*
X83801Y172082D03*
X87739Y172032D03*
X105494Y179959D03*
X114544Y202972D03*
X105588Y201980D03*
X64237Y217120D03*
X74641Y213302D03*
X60660Y167770D03*
X58079Y186887D03*
Y180149D03*
X65385Y183518D03*
X60660Y226826D03*
X96040Y171861D03*
X113436Y188162D03*
X69296Y157721D03*
X75988D03*
X83728Y160259D03*
X79863Y173740D03*
X96608Y230942D03*
X64237Y227714D03*
X96608Y225942D03*
X64237Y220348D03*
X75138Y195231D03*
X126364Y150626D03*
X101501Y201136D03*
X102772Y178458D03*
X130236Y221997D03*
X100325Y183754D03*
X137323Y205719D03*
X104505Y191294D03*
X101501Y189325D03*
X134961Y208521D03*
X101501Y193262D03*
X104505Y195231D03*
X132598Y205719D03*
X101501Y197199D03*
X104505Y199168D03*
X96540Y208442D03*
X93377Y209033D03*
X120787Y219195D03*
X115935Y227511D03*
X80470Y230942D03*
Y225942D03*
X96608Y220942D03*
X93340Y215942D03*
X119419Y156929D03*
X127874Y219195D03*
X75925Y182365D03*
X103005Y203105D03*
X90909Y209033D03*
X85003D03*
X100498Y186372D03*
X99444Y181017D03*
X92151Y172029D03*
X94785Y261887D03*
Y266887D03*
X99785D03*
Y261887D03*
X88904Y305787D03*
X102772Y311566D03*
X133913Y308536D03*
X114009Y307124D03*
X91152Y298520D03*
X55453Y301859D03*
X98514Y288333D03*
X101853Y302202D03*
X126679Y317098D03*
X100709Y254281D03*
X105433D03*
X107795Y251479D03*
X110157Y254281D03*
X138504Y240805D03*
X117244D03*
X73564Y256974D03*
X70884Y260736D03*
X87208Y253076D03*
Y260600D03*
X89888Y256838D03*
X84528D03*
X87208Y236718D03*
X70884Y236854D03*
Y244378D03*
X73564Y240616D03*
X68204D03*
X82245Y278277D03*
Y283637D03*
X78483Y280957D03*
X86007D03*
X112530Y268871D03*
Y262133D03*
X107783Y265502D03*
X131021Y252381D03*
X121759D03*
X54104Y235186D03*
X65887Y278277D03*
Y283637D03*
X69649Y280957D03*
X55940Y262266D03*
X60940D03*
Y257266D03*
X55940D03*
Y252266D03*
X60940D03*
X121759Y265969D03*
X131021D03*
X82240Y289194D03*
X76071Y293034D03*
X65985D03*
X69701Y290449D03*
X72355D03*
X107586Y294771D03*
X60654Y276944D03*
X58042Y235186D03*
X56094Y288588D03*
X112520Y251479D03*
X56094Y292526D03*
X129055Y238003D03*
X131417Y240805D03*
X136142D03*
X133780Y238003D03*
X65643Y286790D03*
X124318Y252381D03*
X133580D03*
X114882Y254281D03*
X54312Y279348D03*
X89295Y272429D03*
X73981Y301069D03*
X70044D03*
X68075Y298912D03*
X119200Y260019D03*
X128462D03*
X137724D03*
X72012Y298912D03*
X119200Y252381D03*
X128462D03*
X137724D03*
X92050Y331651D03*
X101039Y325744D03*
X117604Y324331D03*
X73523Y330016D03*
X113523D03*
X133523D03*
X170041Y24712D03*
X141520Y2919D03*
X146202D03*
X152409Y8935D03*
X156347Y13000D03*
X152409D03*
X146513Y29394D03*
X157310Y4911D03*
X172924Y56318D03*
X154974Y49594D03*
X170514Y39226D03*
X183238Y29108D03*
X170514D03*
X199884Y46611D03*
X202158Y43598D03*
X184684Y37269D03*
X183238Y49344D03*
X167499Y44066D03*
X149152Y18632D03*
X150085Y6611D03*
X156347Y21036D03*
X152409D03*
X190876Y29108D03*
X196656Y46611D03*
X203742D03*
X207158Y43598D03*
X190876Y39226D03*
X168267Y34167D03*
X172610Y53939D03*
X192454Y53586D03*
X212158Y12102D03*
X217158D03*
X177964Y8183D03*
X180644Y20779D03*
X175284D03*
X183293Y35344D03*
X170514Y36667D03*
X183238Y26549D03*
X183414Y45989D03*
X170690D03*
X194198Y55585D03*
X170514Y51903D03*
X148179Y53666D03*
X183238Y51903D03*
X148179Y50384D03*
X157550Y26535D03*
X152418Y29394D03*
X183238Y31667D03*
X156530Y35474D03*
X184857Y39842D03*
X154723Y37443D03*
X224326Y32339D03*
X190876Y31667D03*
Y41785D03*
X172202D03*
Y31667D03*
X199118Y66622D03*
X222676Y69305D03*
X213631Y77471D03*
X165439Y115894D03*
Y119832D03*
X165629Y135178D03*
Y139116D03*
X217453Y87851D03*
X199919D03*
X222706D03*
X191173D03*
X225517Y102278D03*
X211069Y102056D03*
X192839Y102030D03*
X182030Y119914D03*
X182271Y138367D03*
X150285Y89662D03*
X147528Y98981D03*
X156362D03*
X155342Y121626D03*
X160439Y119366D03*
X172924Y60256D03*
X192163Y79540D03*
X195532Y74793D03*
X188794D03*
X192163Y70046D03*
X208707Y87851D03*
X152246Y127302D03*
X150573Y113358D03*
X157211Y110620D03*
X164888Y60256D03*
X183133Y80123D03*
X150285Y84662D03*
X140609Y63692D03*
X157211Y119366D03*
X191173Y91079D03*
X171071Y122236D03*
X171261Y141520D03*
X222706Y91079D03*
X208707D03*
X171261Y132774D03*
X171071Y113490D03*
X217453Y91079D03*
X199919D03*
X194198Y58867D03*
X139623Y116372D03*
X152418Y62858D03*
X150285Y74662D03*
X140609Y71728D03*
X185528Y121664D03*
X188908Y123689D03*
X186029Y125489D03*
X188833Y127289D03*
X186033Y129089D03*
X188833Y130889D03*
X186033Y132689D03*
Y144387D03*
X186028Y140561D03*
X188833Y134489D03*
X187471Y105974D03*
X191090Y104489D03*
X197387Y104876D03*
X200987D03*
X204587D03*
X188833Y142587D03*
X186033Y136289D03*
X195587Y109176D03*
X199187D03*
X202787D03*
X206387D03*
X208413Y104871D03*
X182163Y60598D03*
X213361Y109272D03*
X215161Y104972D03*
X216961Y109272D03*
X218761Y104972D03*
X220561Y109272D03*
X222586Y104967D03*
X216673Y204189D03*
X197165Y196532D03*
X162913Y196324D03*
X206869Y192157D03*
X210807D03*
X222345D03*
X139714Y168396D03*
X149602Y183549D03*
X157668Y229350D03*
X152875Y220362D03*
X172720Y190456D03*
X195284Y198139D03*
X139685Y208521D03*
X212913D03*
X191654D03*
X160945Y219195D03*
X176676Y200250D03*
X165439Y148551D03*
Y152489D03*
Y156427D03*
Y160365D03*
Y164303D03*
X216003Y192157D03*
X182030Y158509D03*
X207035Y177919D03*
X156690Y196619D03*
X142973Y147561D03*
X165439Y168241D03*
X182030Y154560D03*
X183574Y156535D03*
X172776Y196606D03*
X163394Y177260D03*
Y169460D03*
X182976Y200250D03*
X186876Y196606D03*
X173475Y156427D03*
X173596Y153913D03*
X173475Y160906D03*
X216003Y188929D03*
X206869D03*
X222345Y188956D03*
X171071Y146147D03*
X210807Y188929D03*
X220611Y204189D03*
X212735D03*
X208797D03*
X204859D03*
X156434Y208150D03*
X208955Y164928D03*
X207155Y163110D03*
X208955Y161328D03*
X207155Y159510D03*
X208955Y157728D03*
X144409Y208521D03*
X207155Y155910D03*
X146772Y205719D03*
X208937Y154128D03*
X142047Y205719D03*
X158583D03*
X163307Y208521D03*
X165669Y205719D03*
X168031Y208521D03*
X170394Y205719D03*
X172756Y208521D03*
X175118Y205719D03*
X208189Y221997D03*
X186033Y151587D03*
X188833Y149787D03*
X210551Y219195D03*
X215276Y221997D03*
X186033Y147987D03*
X220000Y221997D03*
X224724D03*
X176676Y186348D03*
X187123Y186422D03*
X188833Y146187D03*
X217638Y219195D03*
X222362D03*
X178567Y224385D03*
X211789Y176876D03*
X204859Y196153D03*
X220611D03*
X216955Y177110D03*
X212735Y196153D03*
X211602Y186122D03*
X216673Y196153D03*
X213589Y175076D03*
X208797Y196153D03*
X208426Y175684D03*
X188054Y174378D03*
X149450Y233492D03*
X166711Y233235D03*
X141103Y288259D03*
X142088Y301688D03*
X149964Y316841D03*
X222045Y315386D03*
X215750Y292735D03*
Y298958D03*
X214015Y306851D03*
X209384Y311482D03*
X204663Y316203D03*
X194416D03*
X184939D03*
X175574D03*
X167753D03*
X160089Y313843D03*
X155093Y308847D03*
X151528Y301985D03*
X148312Y292339D03*
X215750Y277401D03*
Y285401D03*
Y270401D03*
X146350Y277401D03*
Y285401D03*
Y270401D03*
X211732Y240805D03*
X190472D03*
X159764D03*
X206193Y266902D03*
X202255D03*
X223641Y252381D03*
X214379D03*
X205117D03*
X195855D03*
X186593D03*
X177331D03*
X168069D03*
X158807D03*
X149545D03*
X140283D03*
X223641Y265969D03*
X214379D03*
X149545Y260019D03*
X158807D03*
X168069D03*
X177331D03*
X186593D03*
X195855D03*
X205117D03*
X140283D03*
X198414Y252381D03*
X216938D03*
X170628D03*
X161366D03*
X207676Y260019D03*
X214094Y240805D03*
X207676Y252381D03*
X216938Y260019D03*
X216457Y238003D03*
X218819Y240805D03*
X221181Y238003D03*
X223543Y240805D03*
X225906Y238003D03*
X186512Y311810D03*
X143228Y240805D03*
X210131Y266902D03*
X140866Y238003D03*
X198317Y266902D03*
X152104Y252381D03*
X142842D03*
X157402Y238003D03*
X162126D03*
X142842Y260019D03*
X164488Y240805D03*
X152104Y260019D03*
X166850Y238003D03*
X161366Y260019D03*
X169213Y240805D03*
X170628Y260019D03*
X171575Y238003D03*
X179890Y260019D03*
X173937Y240805D03*
X189152Y260019D03*
X176299Y238003D03*
X198414Y260019D03*
X178661Y240805D03*
X146986Y260019D03*
X156248D03*
X165510D03*
X174772D03*
X184034D03*
X193296D03*
X202558D03*
X211820D03*
X221082D03*
X151061Y266902D03*
X154999D03*
X158937D03*
X162875D03*
X146986Y252381D03*
X166813Y266902D03*
X156248Y252381D03*
X170751Y266902D03*
X165510Y252381D03*
X193296D03*
X182565Y266902D03*
X202558Y252381D03*
X186503Y266902D03*
X211820Y252381D03*
X190441Y266902D03*
X221082Y252381D03*
X194379Y266902D03*
X211687Y323543D03*
X160729Y322534D03*
X139948Y323047D03*
X171365Y319923D03*
X196876Y323604D03*
X153523Y330016D03*
X173523D03*
X193523D03*
X213523D03*
X272016Y56082D03*
Y52144D03*
X303898Y33967D03*
X253680Y40461D03*
X266364D03*
X264040Y37888D03*
X246938Y46958D03*
X236595Y33956D03*
X261791D03*
X278702Y33967D03*
X254944Y55150D03*
X249944D03*
X244944D03*
X241044Y38401D03*
X255810Y12385D03*
Y8448D03*
X251873D03*
X247936D03*
X243999D03*
Y4511D03*
X247936D03*
X251873D03*
X255810D03*
X243999Y12385D03*
X247936D03*
X251873D03*
X227854Y56602D03*
X252146Y33956D03*
X248209D03*
X247438Y26038D03*
X227608Y32339D03*
X250720Y26038D03*
X290891Y98587D03*
X279690Y100898D03*
X251692Y87851D03*
X240878Y77159D03*
X312706Y73931D03*
X282767Y59026D03*
X264392Y79199D03*
X291694Y132734D03*
X302659Y143356D03*
X299576Y135304D03*
X272729Y142272D03*
X277112Y138486D03*
X258034Y87851D03*
X247462D03*
X231452D03*
X238716D03*
X240083Y102030D03*
X251441Y139815D03*
X274561Y118717D03*
X300891Y114119D03*
X305891D03*
X295891D03*
X290891D03*
X244944Y60150D03*
X249944D03*
X254944D03*
Y65150D03*
X249944D03*
X244944D03*
X274561Y114779D03*
X257970Y120315D03*
X276606Y127736D03*
X280250Y123836D03*
X276606Y119936D03*
Y105760D03*
X280250Y109660D03*
X276606Y113560D03*
X300891Y60855D03*
X305891D03*
X290891D03*
X295891D03*
X251692Y91079D03*
X238716D03*
X266348Y123836D03*
X278616Y130606D03*
X268929Y132426D03*
X270145Y142201D03*
X266092Y109660D03*
X269992Y105760D03*
X266525Y114779D03*
X231452Y91079D03*
X258034D03*
X247462D03*
X301475Y97661D03*
X243623Y131909D03*
X243504Y128617D03*
Y125280D03*
Y121790D03*
Y118367D03*
X252963Y144388D03*
X251163Y142588D03*
X253963Y140788D03*
X250460Y136065D03*
X253260Y134265D03*
X250460Y132465D03*
X253260Y130665D03*
X250460Y128865D03*
X253265Y127065D03*
X250460Y125265D03*
X253265Y123240D03*
X252283Y105094D03*
X250482Y107772D03*
X230258Y62944D03*
X227309Y104972D03*
X229109Y107772D03*
X230909Y104972D03*
X232709Y107772D03*
X234509Y104972D03*
X236309Y107772D03*
X238109Y105972D03*
X243282Y107772D03*
X245082Y104972D03*
X246882Y107772D03*
X248682Y104972D03*
X286444Y227302D03*
X294764Y224214D03*
Y197710D03*
X286444Y200798D03*
X228836Y192157D03*
X247609D03*
X309535Y198354D03*
Y179086D03*
X232774Y194561D03*
X311474Y207114D03*
X288504Y208521D03*
X271969Y226046D03*
X255433Y208521D03*
X234173D03*
X241267Y192157D03*
X274561Y158888D03*
X272157Y145672D03*
Y165239D03*
Y154418D03*
X227642Y177618D03*
X257739Y164628D03*
X257970Y150736D03*
X309535Y204844D03*
X291252Y204026D03*
X239551Y186720D03*
X241267Y188929D03*
X226432D03*
X268929Y165239D03*
Y154418D03*
X242003Y198217D03*
X235178Y188929D03*
X247609D03*
X266467Y156426D03*
X268929Y145672D03*
X253281Y148488D03*
X251163Y146188D03*
X300028Y228276D03*
X229449Y221997D03*
X231811Y219195D03*
X251163Y157940D03*
X256895Y157303D03*
X227087Y219195D03*
X276693Y205719D03*
X279055Y208521D03*
X281417Y205719D03*
X283780Y208521D03*
X286142Y205719D03*
X290866Y206557D03*
X293228D03*
X312126Y225975D03*
X286905Y283963D03*
X275749Y280555D03*
X262528Y289181D03*
X231548Y311386D03*
X285373Y290780D03*
X297701Y286329D03*
X296245Y298142D03*
X248466Y294423D03*
X251548Y273236D03*
X242880Y283252D03*
X242495Y303914D03*
X241050Y310592D03*
X267160Y316156D03*
X300289Y307767D03*
X311946Y314598D03*
X304595Y290862D03*
X310114Y273844D03*
X304595Y298736D03*
Y302673D03*
X308532D03*
X312469D03*
X308062Y276468D03*
Y279618D03*
Y282768D03*
Y285918D03*
X251350Y252381D03*
X247179D03*
X242764Y258630D03*
X249468Y263688D03*
X253826Y265057D03*
X259141D03*
X262544Y263251D03*
X288848Y232934D03*
X308583Y251936D03*
X287323Y251479D03*
X270787D03*
X254252D03*
X232992Y240805D03*
X308062Y289068D03*
X304595Y294799D03*
X307756Y233618D03*
X307215Y258474D03*
X299691D03*
X303453Y261154D03*
Y255794D03*
X270675Y280555D03*
X290133Y283963D03*
X257291Y275574D03*
X306964Y273844D03*
X299440D03*
X303202Y276524D03*
X232903Y252381D03*
X242165D03*
X232903Y265969D03*
X242165D03*
X270675Y277995D03*
X260519Y275574D03*
X294225Y252350D03*
X293974Y262912D03*
X290133Y275217D03*
X226200Y252381D03*
Y260019D03*
X235462D03*
X244724Y265969D03*
X228268Y240805D03*
X230630Y238003D03*
X235354D03*
X237717Y240805D03*
X240079Y238003D03*
X242441Y240805D03*
X256614Y237791D03*
X259039Y251479D03*
X261339D03*
X263701Y238003D03*
X239606Y252381D03*
X266063Y240805D03*
X230344Y252381D03*
X268425Y238003D03*
X273150D03*
X275512Y240805D03*
X277874Y238003D03*
X280236Y240805D03*
X282598Y238003D03*
X284961Y240805D03*
X287860Y240644D03*
X290405Y239307D03*
X294409Y233298D03*
X296772Y254281D03*
X301496Y240805D03*
X306220Y254281D03*
X310945Y252015D03*
X235462Y252381D03*
X232407Y272429D03*
X247165Y238003D03*
X249528Y240805D03*
X251890D03*
X239606Y260019D03*
X230344D03*
X262363Y283114D03*
X227664Y322405D03*
X286592Y320008D03*
X233523Y330016D03*
X253523D03*
X346938Y53698D03*
X317074Y56713D03*
X397332Y32297D03*
X391995Y37241D03*
X386658Y32297D03*
X391995Y27353D03*
X374788Y58492D03*
Y54554D03*
Y50616D03*
Y46678D03*
X342260Y88210D03*
X348320Y131354D03*
X355801Y142507D03*
X389036Y135386D03*
X378652Y81580D03*
Y104580D03*
Y127580D03*
X392916Y92849D03*
X396549Y96454D03*
X392872Y100081D03*
X392958Y115877D03*
X396591Y119482D03*
X392914Y123109D03*
X385652Y86367D03*
Y109367D03*
X325180Y114048D03*
X330180D03*
X335180D03*
X340180D03*
X345180D03*
X362242Y144431D03*
X374714Y81580D03*
X370776D03*
X366838D03*
X374714Y104580D03*
X370776D03*
X366838D03*
X374714Y127580D03*
X370776D03*
X366838D03*
X375424Y87606D03*
Y110606D03*
X385652Y63367D03*
X392888Y77075D03*
X392932Y69843D03*
X396565Y73448D03*
X364197Y64428D03*
X375424Y64606D03*
X367916Y117407D03*
X371853D03*
Y113470D03*
X367916D03*
X371853Y109533D03*
X367916D03*
X363979D03*
X360042D03*
Y113470D03*
X363979D03*
Y117407D03*
X360042D03*
X360197Y135412D03*
X325180Y60784D03*
X330180D03*
X335180D03*
X340180D03*
X345180D03*
X357449Y72323D03*
X353512D03*
X349575D03*
X357449Y64449D03*
X353512D03*
X349575D03*
Y68386D03*
X353512D03*
X357449D03*
X361386Y72323D03*
Y64449D03*
Y68386D03*
X330180Y98516D03*
X335180D03*
X340180D03*
X345180D03*
X366811Y135412D03*
X385493Y144047D03*
X363979Y94407D03*
X367916D03*
X371853D03*
Y90470D03*
X367916D03*
X363979D03*
X360042D03*
Y86533D03*
X363979D03*
X367916D03*
X371853D03*
X360042Y94407D03*
X385493Y139716D03*
X315050Y197710D03*
Y224214D03*
X331554Y200798D03*
Y227302D03*
X343911Y224214D03*
X340399Y227302D03*
X364197Y224214D03*
X388737Y221727D03*
X380701Y200798D03*
Y227302D03*
X364197Y197710D03*
X343911D03*
X340399Y200798D03*
X353099Y223709D03*
X314745Y170091D03*
X346907Y207114D03*
X324589D03*
X349134Y172301D03*
X380701Y230530D03*
X331554D03*
X340399D03*
X388737Y224955D03*
X385493Y152708D03*
X380701Y204026D03*
X389036Y193181D03*
X366253Y172401D03*
X351672Y149524D03*
X322963Y167593D03*
X356903Y206940D03*
X377189D03*
X340399Y204026D03*
X331554D03*
X328042Y207114D03*
X362242Y148369D03*
X357424Y182756D03*
X363025Y172401D03*
X319213Y221135D03*
X328661Y224902D03*
X333180Y222938D03*
X333386Y219195D03*
X328838Y172556D03*
X327528Y165033D03*
X338152Y221138D03*
X374733Y161370D03*
X385493D03*
X360378Y164879D03*
X385493Y174362D03*
X363343Y162320D03*
X385493Y170031D03*
X360378Y159760D03*
X385493Y165701D03*
X360378Y154642D03*
X385493Y148378D03*
X363343Y152083D03*
X340509Y164879D03*
X339171Y162320D03*
X328838Y159760D03*
X322963Y159605D03*
X325873Y154642D03*
X328838Y152083D03*
X344500Y286600D03*
X357700Y295100D03*
X335160Y310113D03*
X347359Y306902D03*
X361613Y305105D03*
X341771Y295917D03*
X346877Y300623D03*
X355324Y303762D03*
X341740Y310896D03*
X341341Y303191D03*
X359833Y311581D03*
X350035Y311538D03*
X395478Y316886D03*
X367849Y310648D03*
X371167Y242654D03*
X378534D03*
X366383Y243246D03*
X382557Y242654D03*
X383357Y253354D03*
X382431Y265745D03*
X379711Y272577D03*
X382431Y269857D03*
X367309Y264307D03*
X377388Y274900D03*
X364939Y266677D03*
X383357Y247058D03*
X323143Y290862D03*
X313264Y273844D03*
X316406Y302673D03*
X320343D03*
X323280Y298736D03*
Y302673D03*
X322618Y281275D03*
X319676Y285131D03*
X326707Y269959D03*
X331051Y265615D03*
X340920Y267862D03*
X378653Y317769D03*
X399269Y304678D03*
X346105Y246142D03*
X325118Y251479D03*
X387355Y316515D03*
X397520Y313755D03*
X381723Y306971D03*
X370370Y307026D03*
X323143Y294799D03*
X319676Y289068D03*
X323992Y314081D03*
Y306994D03*
X340920Y277544D03*
X333833D03*
X372024Y240533D03*
X353035Y242036D03*
X328042Y233618D03*
X323573Y258474D03*
X316049D03*
X319811Y261154D03*
X350937Y266191D03*
X367309Y259060D03*
X382431D03*
X366383Y253750D03*
X350053Y256965D03*
X350138Y251649D03*
X313307Y260403D03*
X315669Y233618D03*
X337084Y258497D03*
X341234Y259525D03*
X345706Y260733D03*
X350239Y244566D03*
X399269Y289323D03*
X370370Y285766D03*
X367405Y289309D03*
X396304Y291882D03*
X399269Y294442D03*
X370370Y292852D03*
X369379Y296396D03*
X396304Y297001D03*
X399269Y299560D03*
X370370Y299939D03*
X367405Y303482D03*
X396304Y302119D03*
X367405Y282223D03*
X396304Y281646D03*
Y286764D03*
X370370Y278679D03*
X387668Y268563D03*
X384951Y274975D03*
X356569Y263787D03*
Y259862D03*
X374723Y316693D03*
X370370Y314112D03*
X387500Y307351D03*
X397596Y261031D03*
X394227Y265778D03*
X399269Y284205D03*
X362180Y277544D03*
X392267Y316352D03*
X338915Y238173D03*
X332205Y252312D03*
X334784Y238174D03*
X323760Y321960D03*
X313523Y330016D03*
X333523D03*
X353523D03*
X395722Y333901D03*
X389708D03*
X384028D03*
X371453Y328694D03*
X376322Y321369D03*
X373394Y324102D03*
X368978D03*
X363230Y324369D03*
X364981Y328694D03*
X379207D03*
X333802Y323922D03*
X340888D03*
X371816Y319569D03*
X427068Y51762D03*
X422068D03*
Y56762D03*
X427068D03*
X402400Y21700D03*
X406100Y8200D03*
X415500Y28100D03*
X432700Y39600D03*
X434600Y58700D03*
X427068Y61762D03*
X422068D03*
Y66762D03*
X427068D03*
Y71762D03*
X422068D03*
Y76762D03*
X427068D03*
Y81762D03*
X422068D03*
Y86762D03*
X427068D03*
Y91762D03*
X422068D03*
Y96762D03*
X427068D03*
Y101762D03*
X422068D03*
Y106762D03*
X427068D03*
Y111762D03*
X422068D03*
Y116762D03*
X427068D03*
Y121762D03*
X422068D03*
X435000Y74500D03*
X434600Y95100D03*
X434000Y128200D03*
X423069Y139148D03*
Y131624D03*
X417732Y135386D03*
X428406D03*
X414478Y104580D03*
X418416D03*
Y81580D03*
X414478D03*
Y127580D03*
X418416D03*
X400218Y92785D03*
X400171Y100098D03*
X400260Y115813D03*
X400213Y123126D03*
X400187Y77092D03*
X400234Y69779D03*
X415700Y151400D03*
X433100Y160400D03*
X415600Y175000D03*
X434000Y182100D03*
X418100Y209100D03*
X433600Y206000D03*
X414567Y230939D03*
X403085Y225939D03*
X423069Y200250D03*
Y192726D03*
X417732Y196488D03*
X428406D03*
X422378Y291953D03*
X411772Y247990D03*
X401477Y237739D03*
X420272Y243126D03*
X429510Y252892D03*
X429749Y272146D03*
Y288749D03*
X425013Y281801D03*
X407268Y276788D03*
X434031Y248396D03*
Y256396D03*
Y264396D03*
Y272396D03*
Y280396D03*
Y288396D03*
X404227Y256330D03*
X410965D03*
X407596Y251583D03*
Y261077D03*
X410432Y281646D03*
Y294442D03*
Y289323D03*
X425013Y294597D03*
X407467Y291882D03*
Y286764D03*
Y299560D03*
X410432Y302119D03*
X400965Y265778D03*
X400967Y329088D03*
X399990Y323806D03*
G54D30*
G01X210807Y188929D02*
X208838Y190898D01*
Y193506D01*
X210766Y195434D01*
Y197400D01*
X209396Y198770D01*
G01D02*
X220920D01*
X224388Y195302D01*
Y190999D01*
X222345Y188956D01*
G54D21*
X88504Y230000D03*
G54D12*
X45667Y97998D03*
X18108D03*
X45667Y139739D03*
X18108D03*
G54D31*
G01X113436Y188162D02*
Y145814D01*
X107147Y139525D01*
G01X96040Y171861D02*
Y180235D01*
X93519Y182756D01*
X90866D01*
G01X290133Y275217D02*
X293974Y271376D01*
Y262912D01*
G01X294225Y252350D02*
X291730Y254845D01*
Y260668D01*
X293974Y262912D01*
G01X349134Y182756D02*
X357424D01*
G01X349134D02*
Y172301D01*
G54D22*
X90866Y182756D03*
X349134D03*
G54D13*
X17533Y65228D03*
Y59716D03*
G54D32*
G01X101890Y213858D02*
Y208521D01*
G01X106614Y213858D02*
Y205719D01*
G01X111339Y213858D02*
Y205719D01*
G01X108976Y213858D02*
Y208521D01*
G01X118425Y213858D02*
Y208521D01*
G01X103005Y203105D02*
X102521Y203589D01*
X100760D01*
X99225Y202054D01*
Y187645D01*
X100498Y186372D01*
G01X100709Y246142D02*
Y254281D01*
G01X105433Y246142D02*
Y254281D01*
G01X107795Y246142D02*
Y251479D01*
G01X110157Y246142D02*
Y254281D01*
G01X117244Y246142D02*
Y240805D01*
G01X190876Y39226D02*
X188876D01*
X185612Y42490D01*
X181629D01*
X173306Y34167D01*
X168267D01*
G01X139685Y213858D02*
Y208521D01*
G01X212913Y213858D02*
Y208521D01*
G01X191654Y213858D02*
Y208521D01*
G01X160945Y213858D02*
Y219195D01*
G01X211732Y246142D02*
Y240805D01*
G01X190472Y246142D02*
Y240805D01*
G01X159764Y246142D02*
Y240805D01*
G01X138504Y246142D02*
Y240805D01*
G01X288504Y213858D02*
Y208521D01*
G01X255433Y213858D02*
Y208521D01*
G01X234173Y213858D02*
Y208521D01*
G01X309764Y213858D02*
Y208824D01*
X311474Y207114D01*
G01X271969Y213858D02*
Y226046D01*
G01X287323Y246142D02*
Y251479D01*
G01X270787Y246142D02*
Y251479D01*
G01X254252Y246142D02*
Y251479D01*
G01X232992Y246142D02*
Y240805D01*
G01X308583Y246142D02*
Y251936D01*
G01X345197Y213858D02*
Y208824D01*
X346907Y207114D01*
G01X326299Y213858D02*
Y208824D01*
X324589Y207114D01*
G01X325118Y246142D02*
Y251479D01*
G01X344016Y246142D02*
X346105D01*
G54D23*
X137323Y213858D03*
X134961D03*
X132598D03*
X130236D03*
X127874D03*
X125512D03*
X123150D03*
X120787D03*
X118425D03*
X116063D03*
X113701D03*
X111339D03*
X108976D03*
X106614D03*
X104252D03*
X101890D03*
X99528D03*
X97165D03*
X136142Y246142D03*
X133780D03*
X131417D03*
X129055D03*
X126693D03*
X124331D03*
X121969D03*
X119606D03*
X117244D03*
X114882D03*
X112520D03*
X110157D03*
X107795D03*
X105433D03*
X103071D03*
X100709D03*
X98346D03*
X95984D03*
X222362Y213858D03*
X220000D03*
X217638D03*
X215276D03*
X212913D03*
X210551D03*
X208189D03*
X205827D03*
X203465D03*
X201102D03*
X198740D03*
X196378D03*
X194016D03*
X191654D03*
X179843D03*
X177480D03*
X175118D03*
X172756D03*
X170394D03*
X168031D03*
X165669D03*
X163307D03*
X160945D03*
X158583D03*
X156220D03*
X153858D03*
X151496D03*
X149134D03*
X146772D03*
X144409D03*
X142047D03*
X139685D03*
X223543Y246142D03*
X221181D03*
X218819D03*
X216457D03*
X214094D03*
X211732D03*
X209370D03*
X207008D03*
X204646D03*
X202283D03*
X199921D03*
X197559D03*
X195197D03*
X192835D03*
X190472D03*
X178661D03*
X176299D03*
X173937D03*
X171575D03*
X169213D03*
X166850D03*
X164488D03*
X162126D03*
X159764D03*
X157402D03*
X155039D03*
X152677D03*
X150315D03*
X147953D03*
X145591D03*
X143228D03*
X140866D03*
X138504D03*
X309764Y213858D03*
X307402D03*
X305039D03*
X302677D03*
X300315D03*
X297953D03*
X295591D03*
X293228D03*
X290866D03*
X288504D03*
X286142D03*
X283780D03*
X281417D03*
X279055D03*
X276693D03*
X274331D03*
X271969D03*
X269606D03*
X267244D03*
X264882D03*
X262520D03*
X260157D03*
X257795D03*
X255433D03*
X253071D03*
X250709D03*
X248346D03*
X245984D03*
X243622D03*
X241260D03*
X238898D03*
X236535D03*
X234173D03*
X231811D03*
X229449D03*
X227087D03*
X224724D03*
X310945Y246142D03*
X308583D03*
X306220D03*
X303858D03*
X301496D03*
X299134D03*
X296772D03*
X294409D03*
X292047D03*
X289685D03*
X287323D03*
X284961D03*
X282598D03*
X280236D03*
X277874D03*
X275512D03*
X273150D03*
X270787D03*
X268425D03*
X266063D03*
X263701D03*
X261339D03*
X258976D03*
X256614D03*
X254252D03*
X251890D03*
X249528D03*
X247165D03*
X244803D03*
X242441D03*
X240079D03*
X237717D03*
X235354D03*
X232992D03*
X230630D03*
X228268D03*
X225906D03*
X345197Y213858D03*
X342835D03*
X340472D03*
X338110D03*
X335748D03*
X333386D03*
X331024D03*
X328661D03*
X326299D03*
X323937D03*
X321575D03*
X319213D03*
X316850D03*
X314488D03*
X312126D03*
X344016Y246142D03*
X341654D03*
X339291D03*
X336929D03*
X334567D03*
X332205D03*
X329843D03*
X327480D03*
X325118D03*
X322756D03*
X320394D03*
X318031D03*
X315669D03*
X313307D03*
G54D14*
X40756Y187455D03*
Y207141D03*
G54D33*
G01X327464Y7000D02*
X332891D01*
G01X327464D02*
X331501Y11037D01*
G01X327464Y7000D02*
Y12427D01*
G01Y7000D02*
X323427Y11037D01*
G01X327464Y7000D02*
X322037D01*
G54D24*
X128287Y294600D03*
X226713D03*
G54D15*
X25795Y243547D03*
Y266381D03*
X302717Y25362D03*
X279883D03*
X260610Y25351D03*
X237776D03*
G54D34*
G01X27882Y268908D02*
Y271972D01*
G01D02*
Y275036D01*
G01X23243Y271972D02*
X27882D01*
G01D02*
X32521D01*
G01X23243Y268908D02*
X27882Y271972D01*
G01D02*
X32521Y275036D01*
G01X23243D02*
X27882Y271972D01*
G01D02*
X32521Y268908D01*
G01X11425D02*
Y271972D01*
G01D02*
Y275036D01*
G01X7179Y271972D02*
X11425D01*
G01D02*
X15671D01*
G01X7179Y268908D02*
X11425Y271972D01*
G01D02*
X15671Y275036D01*
G01X7179D02*
X11425Y271972D01*
G01D02*
X15671Y268908D01*
G01X47176Y325115D02*
X51028D01*
G01X48104Y322191D02*
X51028Y325115D01*
G01D02*
X53952Y328039D01*
G01X48104D02*
X51028Y325115D01*
G01D02*
X53952Y322191D01*
G01X88504Y230000D02*
Y235230D01*
G01X83274Y230000D02*
X88504D01*
G01D02*
X93734D01*
G01X84606Y226102D02*
X88504Y230000D01*
G01X84606Y233898D02*
X88504Y230000D01*
G01D02*
X92402Y226102D01*
G01X128287Y285236D02*
Y294600D01*
G01D02*
Y303964D01*
G01X118923Y294600D02*
X128287D01*
G01D02*
X137651D01*
G01X121466Y287779D02*
X128287Y294600D01*
G01D02*
X135108Y301421D01*
G01X121466D02*
X128287Y294600D01*
G01D02*
X135108Y287779D01*
G01X91028Y321263D02*
Y325115D01*
G01D02*
Y328967D01*
G01X87176Y325115D02*
X91028D01*
G01D02*
X94880D01*
G01X88104Y322191D02*
X91028Y325115D01*
G01D02*
X93952Y328039D01*
G01X88104D02*
X91028Y325115D01*
G01D02*
X93952Y322191D01*
G01X51028Y321263D02*
Y325115D01*
G01D02*
Y328967D01*
G01Y325115D02*
X54880D01*
G01X171071Y146147D02*
X174433Y142785D01*
Y135946D01*
X171261Y132774D01*
G01X150161Y165585D02*
Y169437D01*
G01D02*
Y173289D01*
G01X146309Y169437D02*
X150161D01*
G01D02*
X154013D01*
G01X147237Y166513D02*
X150161Y169437D01*
G01D02*
X153085Y172361D01*
G01X150161Y169437D02*
X153085Y166513D01*
G01X226432Y188929D02*
Y183607D01*
X215403Y172578D01*
X189640D01*
X176394Y159332D01*
X176380D01*
X173475Y156427D01*
G01X209396Y198770D02*
X203074D01*
X198983Y194679D01*
Y190044D01*
X181376Y172437D01*
Y170225D01*
X174157Y163006D01*
X172605D01*
X171071Y161472D01*
Y146147D01*
G01X195528Y282756D02*
Y286805D01*
G01D02*
Y290854D01*
G01X191479Y286805D02*
X195528D01*
G01D02*
X199577D01*
G01X192465Y283742D02*
X195528Y286805D01*
G01D02*
X198591Y289868D01*
G01X192465D02*
X195528Y286805D01*
G01D02*
X198591Y283742D01*
G01X154957Y290551D02*
Y294600D01*
G01D02*
Y298649D01*
G01X150908Y294600D02*
X154957D01*
G01D02*
X159006D01*
G01X151894Y291537D02*
X154957Y294600D01*
G01D02*
X158020Y297663D01*
G01X151894D02*
X154957Y294600D01*
G01D02*
X158020Y291537D01*
G01X163972Y290551D02*
Y294600D01*
G01D02*
Y298649D01*
G01X159923Y294600D02*
X163972D01*
G01D02*
X168021D01*
G01X160909Y291537D02*
X163972Y294600D01*
G01D02*
X167035Y297663D01*
G01X160909D02*
X163972Y294600D01*
G01D02*
X167035Y291537D01*
G01X172988Y290551D02*
Y294600D01*
G01D02*
Y298649D01*
G01X168939Y294600D02*
X172988D01*
G01D02*
X177037D01*
G01X169925Y291537D02*
X172988Y294600D01*
G01D02*
X176051Y297663D01*
G01X169925D02*
X172988Y294600D01*
G01D02*
X176051Y291537D01*
G01X191020Y290551D02*
Y294600D01*
G01D02*
Y298649D01*
G01X186971Y294600D02*
X191020D01*
G01D02*
X195069D01*
G01X187957Y291537D02*
X191020Y294600D01*
G01D02*
X194083Y297663D01*
G01X187957D02*
X191020Y294600D01*
G01D02*
X194083Y291537D01*
G01X217349Y294600D02*
X226713D01*
G01X219892Y287779D02*
X226713Y294600D01*
G01X219892Y301421D02*
X226713Y294600D01*
G01X259826Y305266D02*
Y309118D01*
G01D02*
Y312970D01*
G01X255974Y309118D02*
X259826D01*
G01D02*
X263678D01*
G01X256902Y306194D02*
X259826Y309118D01*
G01D02*
X262750Y312042D01*
G01X256902D02*
X259826Y309118D01*
G01D02*
X262750Y306194D01*
G01X300181Y315218D02*
Y322023D01*
G01X295169Y317011D02*
X300181Y322023D01*
G01D02*
X305193Y317011D01*
G01X246243Y315218D02*
Y322023D01*
G01X241231Y317011D02*
X246243Y322023D01*
G01D02*
X251255Y317011D01*
G01X262544Y254774D02*
Y258626D01*
G01D02*
Y262478D01*
G01X258692Y258626D02*
X262544D01*
G01D02*
X266396D01*
G01X259620Y255702D02*
X262544Y258626D01*
G01D02*
X265468Y261550D01*
G01X259620D02*
X262544Y258626D01*
G01D02*
X265468Y255702D01*
G01X226713Y285236D02*
Y294600D01*
G01D02*
Y303964D01*
G01Y294600D02*
X236077D01*
G01X226713D02*
X233534Y301421D01*
G01X226713Y294600D02*
X233534Y287779D01*
G01X273212Y319148D02*
Y325953D01*
G01D02*
Y332758D01*
G01X266407Y325953D02*
X273212D01*
G01D02*
X280017D01*
G01X268200Y320941D02*
X273212Y325953D01*
G01D02*
X278224Y330965D01*
G01X268200D02*
X273212Y325953D01*
G01D02*
X278224Y320941D01*
G01X300181Y322023D02*
Y328828D01*
G01X293376Y322023D02*
X300181D01*
G01D02*
X306986D01*
G01X300181D02*
X305193Y327035D01*
G01X295169D02*
X300181Y322023D01*
G01X246243D02*
Y328828D01*
G01X239438Y322023D02*
X246243D01*
G01D02*
X253048D01*
G01X246243D02*
X251255Y327035D01*
G01X241231D02*
X246243Y322023D01*
G01X327464Y7000D02*
X329704Y12251D01*
G01X322213Y4760D02*
X327464Y7000D01*
G01D02*
X332715Y9240D01*
G01X322213D02*
X327464Y7000D01*
G01X351496Y225951D02*
Y230000D01*
G01D02*
Y234049D01*
G01X347447Y230000D02*
X351496D01*
G01D02*
X355545D01*
G01X351496D02*
X354559Y233063D01*
G01X348433D02*
X351496Y230000D01*
G01D02*
X354559Y226937D01*
G54D16*
X11425Y237956D03*
Y271972D03*
G54D25*
X308308Y10992D03*
X274292D03*
X266201Y10981D03*
X232185D03*
G54D35*
G01X16000Y0D02*
X424000D01*
G03X440000Y16000I0J16000D01*
G01Y322400D01*
G03X424000Y338400I-16000J0D01*
G01X16000D01*
G03X0Y322400I0J-16000D01*
G01Y16000D01*
G03X16000Y0I16000J0D01*
G54D17*
X27882Y237956D03*
Y271972D03*
G54D26*
X308308Y27449D03*
X274292D03*
X266201Y27438D03*
X232185D03*
G54D36*
G01X73233Y54483D02*
Y47947D01*
X96468Y24712D01*
X170041D01*
G01X183238Y26549D02*
X162909D01*
X157752Y31706D01*
X144384D01*
X142804Y30126D01*
X96945D01*
X76202Y50869D01*
Y56529D01*
X64061Y68670D01*
X62167D01*
G01X198414Y252381D02*
X196359Y254436D01*
X191194D01*
X188071Y251313D01*
Y208337D01*
X194612Y201796D01*
Y200013D01*
X193484Y198885D01*
Y189376D01*
X172176Y168068D01*
Y165593D01*
X168009Y161426D01*
Y155999D01*
X166299Y154289D01*
X164451D01*
X161238Y151076D01*
Y146514D01*
X159804Y145080D01*
X155223D01*
X153152Y143009D01*
Y139804D01*
X126974Y113626D01*
Y111826D01*
G01X170628Y252381D02*
X173319Y255072D01*
X178958D01*
X181501Y252529D01*
Y206355D01*
X178688Y203542D01*
Y185318D01*
X164648Y171278D01*
X160684D01*
X114699Y125293D01*
Y109177D01*
X122109Y101767D01*
G01X118478Y108552D02*
X121152Y111226D01*
Y122732D01*
X129204Y130784D01*
Y131044D01*
X130258Y132098D01*
X130688D01*
X164693Y166103D01*
X166185D01*
X167990Y167908D01*
Y170756D01*
X180853Y183619D01*
Y202997D01*
X183119Y205263D01*
Y254506D01*
X180997Y256628D01*
X165613D01*
X161366Y252381D01*
G01X104435Y82049D02*
X108480Y86094D01*
Y95224D01*
X112366Y99110D01*
Y127866D01*
X99317Y140915D01*
X87588D01*
G01X207676Y252381D02*
X203991Y256066D01*
X187050D01*
X184793Y253809D01*
Y184308D01*
X169893Y169408D01*
Y166127D01*
X165931Y162165D01*
X164693D01*
X163639Y161111D01*
Y157013D01*
X136082Y129456D01*
Y127984D01*
X132804Y124706D01*
Y124552D01*
X130350Y122098D01*
X130258D01*
X124536Y116376D01*
Y110780D01*
X123263Y109507D01*
G01X56094Y288588D02*
X58388Y286294D01*
Y243610D01*
X78669Y223329D01*
X109567D01*
X113701Y219195D01*
Y213858D01*
G01X130236D02*
Y221997D01*
G01X134961Y213858D02*
Y208521D01*
G01X132598Y213858D02*
Y205719D01*
G01X133780Y238003D02*
Y227927D01*
X134870Y226837D01*
X137568D01*
X138715Y227984D01*
Y235652D01*
X133780Y240587D01*
Y246142D01*
G01X120787Y213858D02*
Y219195D01*
G01X127874Y213858D02*
Y219195D01*
G01X123150Y213858D02*
Y208521D01*
X120861Y206232D01*
X114935D01*
X108555Y199852D01*
Y176518D01*
X98938Y166901D01*
X79162D01*
X75925Y170138D01*
Y182365D01*
G01X178567Y224385D02*
X120543D01*
X116063Y219905D01*
Y213858D01*
G01X112520Y246142D02*
Y251479D01*
G01X129055Y246142D02*
Y238003D01*
G01X131417Y246142D02*
Y240805D01*
G01X136142Y246142D02*
Y240805D01*
G01X114882Y246142D02*
Y254281D01*
G01X121969Y246142D02*
Y238273D01*
X120637Y236941D01*
X95587D01*
X78885Y253643D01*
Y267866D01*
X74155Y272596D01*
Y291195D01*
X73981Y291369D01*
Y301069D01*
G01X124331Y246142D02*
Y236865D01*
X122361Y234895D01*
X94301D01*
X76065Y253131D01*
Y264661D01*
X71736Y268990D01*
Y283023D01*
X67901Y286858D01*
Y291195D01*
X70044Y293338D01*
Y301069D01*
G01X68075Y298912D02*
X63425Y294262D01*
Y263047D01*
X93672Y232800D01*
X122949D01*
X126693Y236544D01*
Y246142D01*
G01X128462Y260019D02*
X119200D01*
G01X137724D02*
X128462D01*
G01X119606Y246142D02*
Y239598D01*
X118806Y238798D01*
X96192D01*
X82063Y252927D01*
Y270231D01*
X76447Y275847D01*
Y289243D01*
X78536Y291332D01*
Y301710D01*
X76654Y303592D01*
X73476D01*
X72012Y302128D01*
Y298912D01*
G01X191090Y104489D02*
X190829Y104750D01*
Y153686D01*
X190029Y154486D01*
X186174D01*
X185374Y155286D01*
Y156886D01*
X186174Y157686D01*
X190029D01*
X190829Y158486D01*
Y160086D01*
X190029Y160886D01*
X186174D01*
X185374Y161686D01*
Y163286D01*
X186174Y164086D01*
X190029D01*
X190829Y164886D01*
Y166628D01*
X194894Y170693D01*
X217965D01*
X230796Y183524D01*
Y193355D01*
X229372Y194779D01*
X228227D01*
X225506Y197500D01*
Y204618D01*
X227463Y206575D01*
X235184D01*
X236535Y207926D01*
Y213858D01*
G01X197387Y104876D02*
Y103076D01*
X197394Y103069D01*
Y96475D01*
X196594Y95675D01*
X195462D01*
X194662Y96475D01*
Y104870D01*
X197387Y107595D01*
Y109922D01*
X194245Y113064D01*
Y163106D01*
X198124Y166985D01*
X225169D01*
X237745Y179561D01*
Y194150D01*
X238552Y194957D01*
Y203576D01*
X241260Y206284D01*
Y213858D01*
G01X245984D02*
Y203895D01*
X244399Y202310D01*
Y200052D01*
X245636Y198815D01*
Y179940D01*
X227867Y162171D01*
X215742D01*
X213136Y159565D01*
Y151492D01*
X210918Y149274D01*
X204291D01*
X202298Y151267D01*
Y160494D01*
X201361Y161431D01*
X199274D01*
X197933Y160090D01*
Y113514D01*
X200987Y110460D01*
Y104876D01*
G01X204587D02*
Y97911D01*
X201162Y94486D01*
X200030D01*
X199230Y95286D01*
Y96512D01*
X200410Y97692D01*
Y100842D01*
X202787Y103219D01*
Y106176D01*
X204587Y107976D01*
Y111881D01*
X201611Y114857D01*
Y136342D01*
X202557Y137288D01*
X207352D01*
X210026Y139962D01*
Y142618D01*
X217194Y149786D01*
X222116D01*
X223607Y151277D01*
Y155889D01*
X225031Y157313D01*
X228681D01*
X251813Y180445D01*
Y196603D01*
X249555Y198861D01*
Y203537D01*
X251546Y205528D01*
Y208184D01*
X250709Y209021D01*
Y213858D01*
G01X195587Y109176D02*
X193787D01*
X192439Y110524D01*
Y164215D01*
X197119Y168895D01*
X223047D01*
X232626Y178474D01*
Y191808D01*
X235988Y195170D01*
Y196302D01*
X235188Y197102D01*
X234609D01*
X233809Y197902D01*
Y200184D01*
X233009Y200984D01*
X231409D01*
X230609Y200184D01*
Y197902D01*
X229809Y197102D01*
X228677D01*
X227877Y197902D01*
Y203532D01*
X228677Y204332D01*
X235564D01*
X238898Y207666D01*
Y213858D01*
G01X243622D02*
Y205297D01*
X241510Y203185D01*
Y200270D01*
X240203Y198963D01*
Y195767D01*
X243067Y192903D01*
Y188183D01*
X241510Y186626D01*
Y179608D01*
X226394Y164492D01*
X212776D01*
X210807Y162523D01*
Y152512D01*
X209965Y151670D01*
X205523D01*
X204681Y152512D01*
Y162412D01*
X202830Y164263D01*
X198420D01*
X196039Y161882D01*
Y113160D01*
X199187Y110012D01*
Y109176D01*
G01X202787D02*
Y111112D01*
X199639Y114260D01*
Y138351D01*
X201179Y139891D01*
X207313D01*
X208113Y140691D01*
Y142667D01*
X207312Y143468D01*
X200439D01*
X199639Y144268D01*
Y145799D01*
X200580Y146740D01*
X211516D01*
X215504Y150728D01*
Y158680D01*
X216626Y159802D01*
X218024D01*
X218938Y158888D01*
Y152600D01*
X219739Y151799D01*
X220871D01*
X221671Y152599D01*
Y158368D01*
X223105Y159802D01*
X228610D01*
X250059Y181251D01*
Y195273D01*
X247804Y197528D01*
Y208479D01*
X248346Y209021D01*
Y213858D01*
G01X206387Y109176D02*
Y113689D01*
X205100Y114976D01*
X204039D01*
X203239Y115776D01*
Y117376D01*
X204039Y118176D01*
X205100D01*
X205900Y118976D01*
Y120576D01*
X205100Y121376D01*
X204039D01*
X203239Y122176D01*
Y123776D01*
X204039Y124576D01*
X205100D01*
X205900Y125376D01*
Y126976D01*
X205100Y127776D01*
X204039D01*
X203239Y128576D01*
Y131448D01*
X204848Y133054D01*
X206656D01*
X209039Y130671D01*
X210171D01*
X211302Y131802D01*
Y132934D01*
X209037Y135199D01*
Y136329D01*
X211644Y138936D01*
Y141569D01*
X218348Y148273D01*
X223083D01*
X225407Y150597D01*
Y153952D01*
X226606Y155151D01*
X229961D01*
X255789Y180979D01*
Y186099D01*
X254989Y186899D01*
X254187D01*
X253387Y187699D01*
Y189299D01*
X254187Y190099D01*
X254989D01*
X255789Y190899D01*
Y192499D01*
X254989Y193299D01*
X254187D01*
X253387Y194099D01*
Y195699D01*
X254187Y196499D01*
X254989D01*
X255789Y197299D01*
Y199239D01*
X254989Y200039D01*
X252092D01*
X251292Y200839D01*
Y202439D01*
X252092Y203239D01*
X254989D01*
X255789Y204039D01*
Y205339D01*
X253071Y208057D01*
Y213858D01*
G01X257795D02*
Y180311D01*
X223523Y146039D01*
X218927D01*
X213545Y140657D01*
Y131583D01*
X208187Y126225D01*
Y108430D01*
X206428Y106671D01*
Y96457D01*
X204333Y94362D01*
Y92914D01*
X205598Y91649D01*
X206731D01*
X208920Y93838D01*
Y95827D01*
X212894Y99801D01*
Y101003D01*
X212869Y101028D01*
Y103141D01*
X211139Y104871D01*
X208413D01*
G01X260157Y213858D02*
Y194816D01*
X260957Y194016D01*
X262017D01*
X262817Y193216D01*
Y191616D01*
X262017Y190816D01*
X260957D01*
X260157Y190016D01*
Y188416D01*
X260957Y187616D01*
X262017D01*
X262817Y186816D01*
Y185216D01*
X262017Y184416D01*
X260957D01*
X260157Y183616D01*
Y179776D01*
X224288Y143907D01*
X219166D01*
X217564Y142305D01*
Y141018D01*
X218479Y140103D01*
X221987D01*
X223022Y139068D01*
Y137360D01*
X222221Y136559D01*
X216609D01*
X215809Y135759D01*
Y134159D01*
X216609Y133359D01*
X221553D01*
X222353Y132559D01*
Y131427D01*
X219788Y128862D01*
X218656D01*
X217006Y130512D01*
X215874D01*
X214743Y129381D01*
Y128249D01*
X216393Y126599D01*
Y125467D01*
X215262Y124336D01*
X214130D01*
X212480Y125986D01*
X211348D01*
X210217Y124855D01*
Y123723D01*
X211867Y122073D01*
Y120941D01*
X210213Y119287D01*
Y112420D01*
X213361Y109272D01*
G01X215161Y104972D02*
Y97690D01*
X210557Y93086D01*
Y90916D01*
X211123Y90350D01*
X214178D01*
X219266Y95438D01*
Y97047D01*
X216961Y99352D01*
Y105718D01*
X215161Y107518D01*
Y121470D01*
X226753Y133062D01*
Y143611D01*
X264730Y181588D01*
Y196071D01*
X262520Y198281D01*
Y213858D01*
G01X216961Y109272D02*
Y113216D01*
X219083Y115338D01*
X220215D01*
X221346Y116469D01*
Y117601D01*
X218211Y120736D01*
Y121868D01*
X219526Y123183D01*
X220823D01*
X225817Y118189D01*
X226949D01*
X228080Y119320D01*
Y120452D01*
X223004Y125528D01*
Y126661D01*
X223868Y127525D01*
X225000D01*
X228135Y124390D01*
X229267D01*
X230398Y125521D01*
Y126653D01*
X227263Y129788D01*
Y130920D01*
X229407Y133064D01*
Y143934D01*
X266904Y181431D01*
Y183650D01*
X267704Y184450D01*
X268843D01*
X269643Y185250D01*
Y186850D01*
X268843Y187650D01*
X267704D01*
X266904Y188450D01*
Y190050D01*
X267704Y190850D01*
X268843D01*
X269643Y191650D01*
Y193250D01*
X268843Y194050D01*
X267704D01*
X266904Y194850D01*
Y196895D01*
X264882Y198917D01*
Y213858D01*
G01X267244D02*
Y199892D01*
X271541Y195595D01*
Y183522D01*
X232832Y144813D01*
Y119338D01*
X228180Y114686D01*
X222661D01*
X218761Y110786D01*
Y108526D01*
X220786Y106501D01*
Y101492D01*
X221838Y100440D01*
X228297D01*
X229097Y99640D01*
Y98290D01*
X228297Y97490D01*
X221586D01*
X218761Y100315D01*
Y104972D01*
G01X269606Y213858D02*
Y208612D01*
X270406Y207812D01*
X271424D01*
X272224Y207012D01*
Y205412D01*
X271424Y204612D01*
X270406D01*
X269606Y203812D01*
Y200632D01*
X273595Y196643D01*
Y183030D01*
X270095Y179530D01*
Y178398D01*
X271036Y177457D01*
Y176325D01*
X269905Y175194D01*
X268773D01*
X267832Y176135D01*
X266700D01*
X265569Y175004D01*
Y173872D01*
X266510Y172931D01*
Y171799D01*
X265379Y170668D01*
X264247D01*
X263306Y171609D01*
X262174D01*
X261043Y170478D01*
Y169346D01*
X261984Y168405D01*
Y167273D01*
X260853Y166142D01*
X259721D01*
X258780Y167083D01*
X257648D01*
X248255Y157690D01*
Y156558D01*
X249753Y155060D01*
Y153928D01*
X248622Y152797D01*
X247490D01*
X245992Y154295D01*
X244860D01*
X243729Y153164D01*
Y152032D01*
X245227Y150534D01*
Y149402D01*
X244096Y148271D01*
X242964D01*
X241466Y149769D01*
X240334D01*
X239203Y148638D01*
Y147506D01*
X240701Y146008D01*
Y144876D01*
X239570Y143745D01*
X238438D01*
X236940Y145243D01*
X235808D01*
X234887Y144322D01*
Y117633D01*
X230007Y112753D01*
X224078D01*
X220597Y109272D01*
X220561D01*
G01X222586Y104967D02*
X228232Y110613D01*
X231633D01*
X237027Y116007D01*
Y138646D01*
X255095Y156714D01*
Y158049D01*
X256149Y159103D01*
X257484D01*
X266721Y168340D01*
X267853D01*
X269154Y167039D01*
X270534D01*
X271541Y168046D01*
Y169178D01*
X270110Y170609D01*
Y171741D01*
X271177Y172808D01*
X272310D01*
X275331Y169787D01*
X276463D01*
X277594Y170918D01*
Y172050D01*
X274636Y175008D01*
Y176267D01*
X275801Y177432D01*
Y181072D01*
X276601Y181872D01*
X278825D01*
X279625Y182672D01*
Y184272D01*
X278825Y185072D01*
X276601D01*
X275801Y185872D01*
Y187472D01*
X276601Y188272D01*
X278825D01*
X279625Y189072D01*
Y190672D01*
X278825Y191472D01*
X276601D01*
X275801Y192272D01*
Y193872D01*
X276601Y194672D01*
X278825D01*
X279625Y195472D01*
Y197072D01*
X278825Y197872D01*
X276601D01*
X274331Y200142D01*
Y213858D01*
G01X144409D02*
Y208521D01*
G01X146772Y213858D02*
Y205719D01*
G01X137323Y213858D02*
Y205719D01*
G01X142047Y213858D02*
Y205719D01*
G01X158583Y213858D02*
Y205719D01*
G01X163307Y213858D02*
Y208521D01*
G01X165669Y213858D02*
Y208326D01*
X154504Y197161D01*
Y186890D01*
X155304Y186090D01*
X159946D01*
X160746Y186890D01*
Y190072D01*
X159946Y190872D01*
X157925D01*
X157125Y191672D01*
Y193272D01*
X157925Y194072D01*
X159946D01*
X160746Y194872D01*
Y200796D01*
X165669Y205719D01*
G01X168031Y213858D02*
Y208521D01*
G01X170394Y205719D02*
Y202945D01*
X168625Y201176D01*
Y188363D01*
X169425Y187563D01*
X173926D01*
X174726Y186763D01*
Y184992D01*
X173926Y184192D01*
X169425D01*
X168625Y183392D01*
Y181226D01*
X167825Y180426D01*
X166693D01*
X165893Y181226D01*
Y183481D01*
X165093Y184281D01*
X163836D01*
X163036Y185081D01*
Y186681D01*
X163836Y187481D01*
X165093D01*
X165893Y188281D01*
Y189881D01*
X165093Y190681D01*
X163836D01*
X163036Y191481D01*
Y193081D01*
X163836Y193881D01*
X165093D01*
X165893Y194681D01*
Y201869D01*
X167863Y203839D01*
Y205807D01*
X170394Y208338D01*
Y213858D01*
G01X172756D02*
Y208521D01*
G01X175118Y205719D02*
Y203919D01*
X170976Y199777D01*
Y193725D01*
X171776Y192925D01*
X173992D01*
X174792Y193725D01*
Y200973D01*
X177203Y203384D01*
Y206936D01*
X175118Y209021D01*
Y213858D01*
G01X208189D02*
Y218142D01*
X206806Y219525D01*
X192647D01*
X191924Y220248D01*
Y225808D01*
X192724Y226608D01*
X193752D01*
X194552Y227408D01*
Y229008D01*
X193752Y229808D01*
X192724D01*
X191924Y230608D01*
Y232208D01*
X192724Y233008D01*
X193752D01*
X194552Y233808D01*
Y235408D01*
X193752Y236208D01*
X192724D01*
X191924Y237008D01*
Y238721D01*
X192724Y239521D01*
X195522D01*
X196397Y238646D01*
Y223277D01*
X197677Y221997D01*
X208189D01*
G01X210551Y213858D02*
Y219195D01*
G01X215276Y221997D02*
Y225661D01*
X213107Y227830D01*
X206643D01*
X203932Y230541D01*
Y239595D01*
X203112Y240415D01*
X199496D01*
X198696Y239615D01*
Y238315D01*
X199496Y237515D01*
X201165D01*
X201965Y236715D01*
Y235115D01*
X201165Y234315D01*
X199496D01*
X198696Y233515D01*
Y231915D01*
X199496Y231115D01*
X201165D01*
X201965Y230315D01*
Y228715D01*
X201165Y227915D01*
X199496D01*
X198696Y227115D01*
Y225498D01*
X199919Y224275D01*
X209696D01*
X215276Y218695D01*
Y213858D01*
G01X220000D02*
Y219451D01*
X222699Y222150D01*
Y234887D01*
X221566Y236020D01*
X220173D01*
X219373Y235220D01*
Y234345D01*
X218573Y233545D01*
X216973D01*
X216173Y234345D01*
Y235220D01*
X215373Y236020D01*
X213773D01*
X212973Y235220D01*
Y234345D01*
X212173Y233545D01*
X210573D01*
X209773Y234345D01*
Y235220D01*
X208973Y236020D01*
X207673D01*
X206379Y234726D01*
Y232214D01*
X207179Y231414D01*
X217128D01*
X218727Y229815D01*
Y223270D01*
X220000Y221997D01*
G01X217638Y213858D02*
Y219195D01*
G01X222362Y213858D02*
Y219195D01*
G01X211789Y176876D02*
X202562Y186103D01*
Y193856D01*
X204859Y196153D01*
G01X216955Y177110D02*
X219338Y179493D01*
Y194880D01*
X220611Y196153D01*
G01X212735D02*
X214008Y194880D01*
Y187224D01*
X212906Y186122D01*
X211602D01*
G01X208797Y196153D02*
X207524Y194880D01*
X206676D01*
X205069Y193273D01*
Y188183D01*
X213589Y179663D01*
Y175076D01*
G01X208426Y175684D02*
X190174D01*
X190141Y175651D01*
X189327D01*
X188054Y174378D01*
G01X214094Y246142D02*
Y240805D01*
G01X216457Y246142D02*
Y238003D01*
G01X218819Y246142D02*
Y240805D01*
G01X221181Y246142D02*
Y238003D01*
G01X223543Y246142D02*
Y240805D01*
G01X143228Y246142D02*
Y240805D01*
G01X140866Y246142D02*
Y238003D01*
G01X157402Y246142D02*
Y238003D01*
G01X162126Y246142D02*
Y238003D01*
G01X164488Y246142D02*
Y240805D01*
G01X166850Y246142D02*
Y238003D01*
G01X169213Y246142D02*
Y240805D01*
G01X171575Y246142D02*
Y238003D01*
G01X173937Y246142D02*
Y240805D01*
G01X176299Y246142D02*
Y238003D01*
G01X178661Y246142D02*
Y240805D01*
G01X137724Y260019D02*
X140676Y262971D01*
X144034D01*
X146986Y260019D01*
G01X156248D02*
X158781Y262552D01*
X162977D01*
X165510Y260019D01*
G01D02*
X167929Y262438D01*
X172353D01*
X174772Y260019D01*
G01D02*
X177591Y262838D01*
X181215D01*
X184034Y260019D01*
G01D02*
X186910Y262895D01*
X190420D01*
X193296Y260019D01*
G01D02*
X195886Y262609D01*
X199968D01*
X202558Y260019D01*
G01D02*
X205091Y262552D01*
X209287D01*
X211820Y260019D01*
G01X230344D02*
X227717Y262646D01*
X223709D01*
X221082Y260019D01*
G01X211820D02*
X214533Y262732D01*
X218369D01*
X221082Y260019D01*
G01X146986D02*
X149264Y262297D01*
X153970D01*
X156248Y260019D01*
G01X279690Y100898D02*
X288580D01*
X290891Y98587D01*
G01X243282Y107772D02*
Y109844D01*
X238857Y114269D01*
Y137626D01*
X254305Y153074D01*
X256979D01*
X264653Y160748D01*
X271804D01*
X281451Y170395D01*
Y171309D01*
X282251Y172109D01*
X286256D01*
X287056Y172909D01*
Y174509D01*
X286256Y175309D01*
X282251D01*
X281451Y176109D01*
Y177709D01*
X282251Y178509D01*
X286256D01*
X287056Y179309D01*
Y180909D01*
X286256Y181709D01*
X282251D01*
X281451Y182509D01*
Y184109D01*
X282251Y184909D01*
X286256D01*
X287056Y185709D01*
Y187309D01*
X286256Y188109D01*
X282251D01*
X281451Y188909D01*
Y190209D01*
X282494Y191252D01*
X285071D01*
X286807Y192988D01*
Y195565D01*
X295591Y204349D01*
Y213858D01*
G01X245082Y104972D02*
Y110628D01*
X240859Y114851D01*
Y133185D01*
X245689Y138015D01*
X255801D01*
X260116Y142330D01*
Y146482D01*
X260916Y147282D01*
X265162D01*
X265962Y148082D01*
Y149682D01*
X265162Y150482D01*
X260916D01*
X260116Y151282D01*
Y153091D01*
X265294Y158269D01*
X271396D01*
X273815Y160688D01*
X275307D01*
X276157Y159838D01*
X281679D01*
X282600Y160759D01*
Y161891D01*
X279880Y164611D01*
Y165743D01*
X281011Y166874D01*
X282143D01*
X284863Y164154D01*
X285995D01*
X288955Y167114D01*
Y195029D01*
X297953Y204027D01*
Y213858D01*
G01X246882Y107772D02*
Y112720D01*
X261334Y127172D01*
Y140714D01*
X269383Y148763D01*
X274106D01*
X276905Y151562D01*
X278035D01*
X279202Y150396D01*
X280332D01*
X281465Y151529D01*
Y152659D01*
X280298Y153825D01*
Y154955D01*
X281431Y156088D01*
X282561D01*
X283728Y154922D01*
X284858D01*
X285991Y156055D01*
Y157185D01*
X284824Y158351D01*
Y159481D01*
X285957Y160614D01*
X287087D01*
X288254Y159448D01*
X289384D01*
X290517Y160581D01*
Y161711D01*
X289350Y162877D01*
Y164007D01*
X292244Y166901D01*
X294539D01*
X295339Y167701D01*
Y169301D01*
X294539Y170101D01*
X292244D01*
X291444Y170901D01*
Y172501D01*
X292244Y173301D01*
X294539D01*
X295339Y174101D01*
Y175701D01*
X294539Y176501D01*
X292244D01*
X291444Y177301D01*
Y178901D01*
X292244Y179701D01*
X294539D01*
X295339Y180501D01*
Y182101D01*
X294539Y182901D01*
X292244D01*
X291444Y183701D01*
Y185301D01*
X292244Y186101D01*
X294539D01*
X295339Y186901D01*
Y188501D01*
X294539Y189301D01*
X292244D01*
X291444Y190101D01*
Y191588D01*
X300315Y200459D01*
Y213858D01*
G01X248682Y104972D02*
Y109288D01*
X250189Y110795D01*
X253568D01*
X263646Y120873D01*
Y132485D01*
X267242Y136081D01*
X272142D01*
X275778Y139717D01*
Y142777D01*
X276701Y143700D01*
X277831D01*
X279913Y141617D01*
X281043D01*
X282176Y142750D01*
Y143880D01*
X280094Y145963D01*
Y147093D01*
X281227Y148226D01*
X282357D01*
X284439Y146143D01*
X285569D01*
X286702Y147276D01*
Y148406D01*
X284620Y150489D01*
Y151619D01*
X285753Y152752D01*
X286883D01*
X288965Y150669D01*
X290095D01*
X291228Y151802D01*
Y152932D01*
X289146Y155015D01*
Y156145D01*
X290279Y157278D01*
X291409D01*
X293491Y155195D01*
X294621D01*
X295754Y156328D01*
Y157458D01*
X293672Y159541D01*
Y160671D01*
X297565Y164564D01*
Y187476D01*
X298365Y188276D01*
X300561D01*
X301361Y189076D01*
Y190676D01*
X300561Y191476D01*
X298365D01*
X297565Y192276D01*
Y193652D01*
X302677Y198764D01*
Y213858D01*
G01X305039D02*
Y125888D01*
X301920Y122769D01*
G01X341920D02*
X335122Y115971D01*
X310135D01*
X307402Y118704D01*
Y213858D01*
G01X294764Y224214D02*
X306242D01*
X310310Y228282D01*
X314062D01*
X315050Y227294D01*
Y224214D01*
G01X230630Y238003D02*
Y229915D01*
X231430Y229115D01*
X232685D01*
X233485Y229915D01*
Y237750D01*
X230630Y240605D01*
Y246142D01*
G01X256614Y237791D02*
X254218Y235395D01*
Y233055D01*
X255018Y232255D01*
X258389D01*
X259189Y231455D01*
Y229855D01*
X258389Y229055D01*
X255018D01*
X254218Y228255D01*
Y226655D01*
X255018Y225855D01*
X258389D01*
X259189Y225055D01*
Y223455D01*
X258389Y222655D01*
X255018D01*
X254218Y221855D01*
Y220555D01*
X255512Y219261D01*
X259856D01*
X261241Y220646D01*
Y229649D01*
X262041Y230449D01*
X263744D01*
X264544Y229649D01*
Y220148D01*
X265436Y219256D01*
X266793D01*
X267685Y220148D01*
Y230234D01*
X256614Y241305D01*
Y246142D01*
G01X268425Y238003D02*
Y236033D01*
X273560Y230898D01*
X279484D01*
X280284Y230098D01*
Y225876D01*
X281084Y225076D01*
X282684D01*
X283484Y225876D01*
Y230098D01*
X284284Y230898D01*
X286077D01*
X286877Y231698D01*
Y234553D01*
X285722Y235708D01*
X272501D01*
X270822Y237387D01*
Y238908D01*
X268425Y241305D01*
Y246142D01*
G01X299134D02*
Y230970D01*
X300028Y230076D01*
Y228276D01*
G01X247165Y246142D02*
Y241305D01*
X242033Y236173D01*
X237877D01*
X236735Y235031D01*
Y231295D01*
X241301Y226729D01*
Y220952D01*
X242183Y220070D01*
X250225D01*
X251851Y221696D01*
Y224023D01*
X251051Y224823D01*
X244289D01*
X243489Y225623D01*
Y227223D01*
X244289Y228023D01*
X251051D01*
X251851Y228823D01*
Y230423D01*
X251051Y231223D01*
X244289D01*
X243489Y232023D01*
Y233623D01*
X244289Y234423D01*
X251051D01*
X251851Y235223D01*
Y236793D01*
X250641Y238003D01*
X247165D01*
G01X224724Y213858D02*
Y219380D01*
X227038Y221694D01*
Y223014D01*
X228235Y224211D01*
X238414D01*
X239214Y225011D01*
Y226143D01*
X238414Y226943D01*
X230076D01*
X228235Y228784D01*
Y234328D01*
X227421Y235142D01*
X225596D01*
X224724Y234270D01*
Y221997D01*
G01X229449Y213858D02*
Y221997D01*
G01X231811Y213858D02*
Y219195D01*
G01X227087Y213858D02*
Y219195D01*
G01X276693Y213858D02*
Y205719D01*
G01X279055Y213858D02*
Y208521D01*
G01X281417Y213858D02*
Y205719D01*
G01X283780Y213858D02*
Y208521D01*
G01X286142Y205719D02*
X284296Y203873D01*
X280313D01*
X279190Y202750D01*
Y201004D01*
X281854Y198340D01*
Y196013D01*
X282654Y195213D01*
X283844D01*
X284644Y196013D01*
Y201544D01*
X285698Y202598D01*
X287185D01*
X287986Y203399D01*
Y206493D01*
X286142Y208337D01*
Y213858D01*
G01X290866D02*
Y206557D01*
G01X293228Y213858D02*
Y206557D01*
G01X225906Y246142D02*
Y238003D01*
G01X228268Y246142D02*
Y240805D01*
G01X235354Y246142D02*
Y238003D01*
G01X237717Y246142D02*
Y240805D01*
G01X240079Y246142D02*
Y238003D01*
G01X242441Y246142D02*
Y240805D01*
G01X258976Y246142D02*
Y250100D01*
X259039Y250163D01*
Y251479D01*
G01X261339Y246142D02*
Y251479D01*
G01X263701Y246142D02*
Y238003D01*
G01X266063Y246142D02*
Y240805D01*
G01X273150Y246142D02*
Y238003D01*
G01X275512Y246142D02*
Y240805D01*
G01X277874Y246142D02*
Y238003D01*
G01X280236Y246142D02*
Y240805D01*
G01X282598Y246142D02*
Y238003D01*
G01X284961Y246142D02*
Y240805D01*
G01X289685Y246142D02*
Y242469D01*
X287860Y240644D01*
G01X290405Y239307D02*
X292047Y240949D01*
Y246142D01*
G01X294409D02*
Y233298D01*
G01X296772Y246142D02*
Y254281D01*
G01X301496Y246142D02*
Y240805D01*
G01X407467Y286764D02*
X411717D01*
X414406Y289453D01*
Y301856D01*
X411554Y304708D01*
X401845D01*
X397456Y300319D01*
X395558D01*
X394138Y301739D01*
X369624D01*
X366808Y298923D01*
X352666D01*
X316808Y263065D01*
X307974D01*
X301518Y256609D01*
Y253319D01*
X303858Y250979D01*
Y246142D01*
G01X306220D02*
Y254281D01*
G01X249528Y246142D02*
Y240805D01*
G01X251890Y246142D02*
Y240805D01*
G01X230344Y260019D02*
X233182Y262857D01*
X236768D01*
X239606Y260019D01*
G01X311920Y122769D02*
X316556Y118133D01*
X325441D01*
X326920Y119612D01*
Y126862D01*
X316850Y136932D01*
Y213858D01*
G01X331920Y122769D02*
X349373Y140222D01*
Y165020D01*
X359670Y175317D01*
Y214592D01*
X337967Y236295D01*
X320937D01*
X318031Y239201D01*
Y246142D01*
G01X321575Y213858D02*
Y209021D01*
X319314Y206760D01*
Y146701D01*
X320114Y145901D01*
X325682D01*
X326482Y145101D01*
Y143501D01*
X325682Y142701D01*
X320114D01*
X319314Y141901D01*
Y139214D01*
X320566Y137962D01*
X332399D01*
X334161Y139724D01*
Y146130D01*
X332659Y147632D01*
X327904D01*
X325873Y149663D01*
Y154642D01*
G01X340472Y213858D02*
Y209021D01*
X343412Y206081D01*
Y200146D01*
X339044Y195778D01*
Y169760D01*
X342853Y165951D01*
X343041D01*
X346606Y162386D01*
Y145228D01*
X344693Y143315D01*
X340296D01*
X338298Y145313D01*
Y147815D01*
X339098Y148615D01*
X341554D01*
X342354Y149415D01*
Y151015D01*
X341554Y151815D01*
X339098D01*
X338298Y152615D01*
Y154215D01*
X339098Y155015D01*
X341554D01*
X342354Y155815D01*
Y157415D01*
X341554Y158215D01*
X339098D01*
X336955Y160358D01*
X331879D01*
X330638Y159117D01*
Y159014D01*
X329584Y157960D01*
X329481D01*
X328838Y157317D01*
Y152083D01*
G01X321920Y122769D02*
X311954Y132735D01*
Y200238D01*
X314488Y202772D01*
Y213858D01*
G01X319213D02*
Y221135D01*
G01X328661Y213858D02*
Y224902D01*
G01X333180Y222938D02*
X331024Y220782D01*
Y213858D01*
G01X333386D02*
Y219195D01*
G01X335748Y213858D02*
Y209021D01*
X333095Y206368D01*
X331114D01*
X328838Y204092D01*
Y172556D01*
G01X327528Y165033D02*
X332490Y169995D01*
Y196164D01*
X338110Y201784D01*
Y213858D01*
G01X338152Y221138D02*
X340392D01*
X342835Y218695D01*
Y213858D01*
G01X323937D02*
Y209021D01*
X322453Y207537D01*
Y197494D01*
X323253Y196694D01*
X325471D01*
X326271Y195894D01*
Y194294D01*
X325471Y193494D01*
X323253D01*
X322453Y192694D01*
Y191094D01*
X323253Y190294D01*
X325471D01*
X326271Y189494D01*
Y187894D01*
X325471Y187094D01*
X323253D01*
X322453Y186294D01*
Y184694D01*
X323253Y183894D01*
X325471D01*
X326271Y183094D01*
Y181494D01*
X325471Y180694D01*
X323253D01*
X322453Y179894D01*
Y178294D01*
X323253Y177494D01*
X325471D01*
X326271Y176694D01*
Y175094D01*
X325471Y174294D01*
X323253D01*
X322453Y173494D01*
Y169629D01*
X321163Y168339D01*
Y166151D01*
X324911Y162403D01*
X329547D01*
X332023Y164879D01*
X340509D01*
G01X312126Y213858D02*
Y225975D01*
G01X310945Y246142D02*
Y252015D01*
G01X313307Y246142D02*
Y260403D01*
G01X315669Y246142D02*
Y233618D01*
G01X407467Y299560D02*
X404601Y296694D01*
X398906D01*
X395894Y293682D01*
X391928D01*
X391128Y294482D01*
Y295531D01*
X390328Y296331D01*
X388728D01*
X387928Y295531D01*
Y294482D01*
X387128Y293682D01*
X385528D01*
X384728Y294482D01*
Y295531D01*
X383928Y296331D01*
X382328D01*
X381528Y295531D01*
Y294482D01*
X380728Y293682D01*
X379128D01*
X378328Y294482D01*
Y295531D01*
X377528Y296331D01*
X375928D01*
X375128Y295531D01*
Y294482D01*
X371661Y291015D01*
X368245D01*
X368151Y291109D01*
X360167D01*
X357483Y288425D01*
X356351D01*
X353707Y291069D01*
X352575D01*
X351444Y289938D01*
Y288806D01*
X354088Y286162D01*
Y285030D01*
X352957Y283899D01*
X351825D01*
X349181Y286543D01*
X348049D01*
X346918Y285412D01*
Y284280D01*
X349562Y281636D01*
Y280504D01*
X348431Y279373D01*
X347299D01*
X344655Y282017D01*
X343523D01*
X342392Y280886D01*
Y279754D01*
X345036Y277110D01*
Y275978D01*
X322756Y253698D01*
Y246142D01*
G01X410432Y302119D02*
Y299239D01*
X403835Y292642D01*
X399906D01*
X396319Y289055D01*
X394274D01*
X388277Y283058D01*
X384280D01*
X383480Y283858D01*
Y289795D01*
X382680Y290595D01*
X381080D01*
X380280Y289795D01*
Y283858D01*
X379480Y283058D01*
X377880D01*
X377080Y283858D01*
Y289795D01*
X376280Y290595D01*
X374680D01*
X373880Y289795D01*
Y283858D01*
X373080Y283058D01*
X369554D01*
X366501Y286111D01*
X362152D01*
X360660Y284619D01*
X359528D01*
X358813Y285334D01*
X357681D01*
X356550Y284203D01*
Y283071D01*
X357265Y282356D01*
Y281224D01*
X356134Y280093D01*
X355002D01*
X354287Y280808D01*
X353155D01*
X352024Y279677D01*
Y278545D01*
X352739Y277830D01*
Y276698D01*
X351608Y275567D01*
X350476D01*
X349761Y276282D01*
X348629D01*
X347498Y275151D01*
Y274019D01*
X348213Y273304D01*
Y272172D01*
X347082Y271041D01*
X345950D01*
X345235Y271756D01*
X344103D01*
X342972Y270625D01*
Y269493D01*
X343687Y268778D01*
Y267646D01*
X329843Y253802D01*
Y246142D01*
G01X334567D02*
Y255980D01*
X337084Y258497D01*
G01X336929Y246142D02*
Y255220D01*
X341234Y259525D01*
G01X339291Y246142D02*
Y254318D01*
X345706Y260733D01*
G01X341654Y246142D02*
Y250979D01*
X342700Y252025D01*
X346300D01*
X350239Y248086D01*
Y244566D01*
G01X370370Y278679D02*
X388219D01*
X396304Y286764D01*
G01X338915Y238173D02*
X336627Y240461D01*
X328324D01*
X327480Y241305D01*
Y246142D01*
G01X332205D02*
Y252312D01*
G01X334784Y238174D02*
X332984D01*
X332967Y238157D01*
X323542D01*
X320394Y241305D01*
Y246142D01*
G54D27*
X246243Y322023D03*
X300181D03*
X273212Y325953D03*
G54D18*
X51028Y315115D03*
X65165Y138435D03*
Y128593D03*
X252544Y258626D03*
X341920Y122769D03*
X434450Y228817D03*
G54D19*
X51028Y325115D03*
X75165Y138435D03*
Y128593D03*
X120161Y199437D03*
Y169437D03*
X91028Y315115D03*
X81028D03*
X71028D03*
X61028D03*
X91028Y325115D03*
X81028D03*
X71028D03*
X61028D03*
X150161Y199437D03*
Y169437D03*
X291920Y122769D03*
X301920D03*
X311920D03*
X262544Y258626D03*
X286598Y299275D03*
X259826D03*
X286598Y309118D03*
X259826D03*
X278330D03*
X268094D03*
X321920Y122769D03*
X331920D03*
X434450Y218817D03*
G54D28*
X378061Y4340D03*
X385935D03*
X393809D03*
X378061Y22056D03*
X385935D03*
X393809D03*
G54D29*
X357389Y7000D03*
Y25504D03*
Y44008D03*
X327464Y7000D03*
Y25504D03*
Y44008D03*
M02*
