M48
INCH,LZ
T01C.008
T02C.02756
T03C.03543
T04C.03937
T05C.04331
T06C.05118
T07C.06693
T08C.07087
T09C.09843
T10C.12205
T11C.13386
;LEADER: 12 
;HEADER: 
;CODE  : ASCII 
;FILE  : STARRYSKY-1-6.drl for board #Taaaalk10668.tmp ... layers TOP and BOTTOM
;T01 Holesize 1. = 8.000000 Tolerance = +0.000000/-0.000000 PLATED MILS Quantity = 1348
;T02 Holesize 2. = 27.560000 Tolerance = +0.000000/-0.000000 PLATED MILS Quantity = 8
;T03 Holesize 3. = 35.430000 Tolerance = +0.000000/-0.000000 PLATED MILS Quantity = 6
;T04 Holesize 4. = 39.370000 Tolerance = +0.000000/-0.000000 PLATED MILS Quantity = 34
;T05 Holesize 5. = 43.310000 Tolerance = +0.000000/-0.000000 PLATED MILS Quantity = 20
;T06 Holesize 6. = 51.180000 Tolerance = +0.000000/-0.000000 PLATED MILS Quantity = 6
;T07 Holesize 7. = 66.930000 Tolerance = +0.000000/-0.000000 PLATED MILS Quantity = 1
;T08 Holesize 8. = 70.870000 Tolerance = +0.000000/-0.000000 PLATED MILS Quantity = 6
;T09 Holesize 9. = 98.430000 Tolerance = +0.000000/-0.000000 PLATED MILS Quantity = 3
;T10 Holesize 10. = 122.050000 Tolerance = +0.000000/-0.000000 PLATED MILS Quantity = 4
;T11 Holesize 11. = 133.860000 Tolerance = +0.000000/-0.000000 PLATED MILS Quantity = 2
%
G90
T01
X000715Y002859
X001915Y004027
X000605Y006379
X001811Y00777
X001811Y008956
X000952Y01006
X001771Y010644
X001771Y01183
X001811Y01313
X000663Y013163
X001771Y014818
X001316Y015411
X001771Y016004
X000759Y018117
X001376Y020912
X000729Y025095
X001123Y025095
X001517Y025095
X00191Y025095
X000729Y025489
X001123Y025489
X001517Y025489
X00191Y025489
X000729Y025883
X001123Y025883
X001517Y025883
X00191Y025883
X000993Y027874
X001283Y028314
X001783Y028314
X000717Y029146
X003352Y033002
X003272Y031881
X003144Y0307
X003927Y030187
X003212Y029646
X003212Y028465
X002073Y027874
X00344Y026756
X003884Y026311
X002607Y025595
X002607Y025201
X00344Y024237
X003888Y023517
X003424Y022683
X003424Y016777
X002226Y015411
X003149Y013973
X002266Y012537
X002952Y011944
X002226Y011237
X003895Y008956
X002266Y008363
X003238Y006674
X003238Y005799
X003955Y00551
X003683Y0039
X003916Y001691
X004292Y001157
X004668Y001691
X004292Y002224
X0055Y002813
X004292Y005094
X004292Y005925
X005749Y010558
X005433Y010644
X004745Y017508
X005808Y018015
X005077Y018352
X005808Y018689
X005077Y021108
X005808Y021445
X004745Y021952
X004229Y023519
X004623Y023519
X005017Y023519
X00541Y023519
X005804Y023519
X004229Y024322
X004038Y024558
X005094Y025227
X005594Y025227
X005094Y025727
X005594Y025727
X00432Y025924
X005094Y026227
X005594Y026227
X005431Y027935
X005609Y028859
X005609Y029253
X005545Y030186
X004762Y030597
X004223Y031355
X004698Y033139
X007352Y033002
X007398Y030107
X007004Y030107
X007201Y029891
X006807Y029891
X007607Y029303
X006598Y029303
X007236Y029045
X00697Y029045
X006564Y028679
X006589Y028364
X007848Y028096
X006965Y028096
X006589Y027828
X006065Y027694
X006094Y026227
X007088Y026074
X006094Y025727
X007356Y025697
X006094Y025227
X007088Y024438
X007356Y024062
X00682Y024062
X007088Y023685
X006424Y022771
X006066Y022683
X006424Y022035
X006424Y021712
X007464Y02133
X006538Y021108
X006788Y020255
X006548Y019621
X007514Y019523
X006548Y019227
X006548Y018834
X006538Y018352
X007592Y018237
X006564Y017614
X007986Y017374
X006349Y017186
X007975Y017054
X006066Y016777
X006349Y016575
X006349Y016027
X007599Y015772
X00693Y015772
X006349Y015576
X007543Y015273
X006892Y015273
X007136Y01208
X007122Y011752
X00609Y011701
X007925Y011343
X006801Y01127
X007122Y009704
X007925Y00931
X007122Y00931
X007122Y008916
X007122Y008523
X007685Y008282
X006217Y006867
X006024Y00624
X007323Y005448
X006024Y005448
X007692Y002422
X007659Y000886
X009734Y00551
X009521Y006285
X008615Y006302
X009009Y006302
X009911Y006649
X008081Y008205
X008868Y008205
X009656Y008205
X008889Y009971
X009389Y009971
X009889Y009971
X008889Y010471
X009389Y010471
X009889Y010471
X008041Y010767
X008889Y010971
X009389Y010971
X009889Y010971
X008368Y012521
X008707Y012739
X009101Y012739
X009495Y012739
X008759Y014092
X008131Y015273
X008692Y015406
X008805Y016021
X008373Y016026
X008373Y016349
X009604Y017186
X008774Y017203
X009215Y017203
X00838Y017208
X009944Y018102
X008797Y019119
X008297Y019619
X008797Y019619
X009297Y019619
X008297Y020119
X008797Y020119
X009297Y020119
X009654Y020844
X0085Y020903
X009091Y020903
X009338Y020903
X009334Y021594
X009661Y022094
X008047Y022594
X009661Y022594
X008047Y023094
X009661Y023094
X008721Y023672
X008721Y025308
X008453Y025684
X008989Y025684
X008721Y02606
X009478Y026189
X009978Y026189
X009478Y026689
X009978Y026689
X00893Y027243
X008224Y027828
X008601Y028096
X008224Y028364
X009851Y028833
X008224Y028919
X009115Y029852
X00889Y030579
X009205Y033165
X011352Y033002
X010104Y032574
X01176Y032433
X010277Y031157
X011401Y030712
X010185Y03022
X010759Y029477
X011253Y026887
X010778Y02655
X011253Y026213
X01192Y026002
X011488Y025428
X011016Y025428
X010543Y025428
X010071Y025428
X01192Y025238
X011252Y025148
X010779Y025148
X011724Y02408
X011594Y022751
X011842Y020852
X010898Y020852
X010189Y020852
X011134Y020572
X010661Y020572
X0103Y02031
X011454Y020297
X010559Y020198
X01015Y020114
X01045Y019917
X01015Y01972
X01045Y019523
X01015Y019326
X01045Y019129
X01015Y018933
X011344Y018816
X01005Y018637
X010032Y018375
X010549Y017996
X010277Y017846
X011942Y015693
X010715Y013952
X010392Y013952
X011942Y01353
X010384Y013157
X011912Y01253
X010143Y012523
X011912Y01203
X010707Y011889
X010384Y011889
X011848Y011593
X011656Y011333
X011848Y010855
X011656Y009862
X010753Y009682
X011656Y009468
X010398Y009201
X011625Y008205
X011231Y008205
X010837Y008205
X010444Y008205
X01005Y008205
X011435Y007053
X011098Y006716
X011435Y006379
X010071Y005925
X011328Y005745
X010792Y005745
X010408Y00551
X011706Y005286
X010071Y005094
X011328Y004109
X010792Y004109
X01142Y003586
X011082Y003525
X01142Y003193
X01142Y002799
X010402Y002224
X011879Y002078
X010778Y001691
X010026Y001691
X010402Y001157
X011879Y000442
X012415Y000442
X013304Y000575
X013304Y001352
X013403Y001863
X012415Y002078
X013798Y002172
X012223Y003193
X013059Y003351
X01347Y005533
X013273Y006369
X013667Y006369
X012794Y006379
X012794Y007053
X013273Y007173
X013667Y007173
X012249Y007466
X012249Y007966
X013415Y008466
X012211Y010177
X012326Y010951
X012697Y011183
X013962Y011637
X0131Y01203
X0131Y01253
X0131Y01303
X0131Y01353
X012636Y015063
X013091Y015693
X013971Y01684
X012854Y017007
X012122Y018548
X01326Y020572
X013732Y020572
X013496Y020852
X013968Y020852
X012079Y02192
X012787Y02192
X013024Y0222
X012906Y0238
X013378Y0238
X013142Y02408
X013614Y02408
X01385Y02408
X012176Y025238
X012432Y025238
X012846Y025238
X013102Y025238
X013358Y025238
X013772Y025238
X012846Y026002
X013772Y026002
X012176Y026597
X013102Y026597
X013391Y030854
X012668Y03171
X013995Y032305
X013352Y033002
X015352Y033002
X014996Y031684
X015509Y030885
X015153Y030199
X014209Y030169
X014831Y029234
X01411Y028826
X014635Y02854
X014635Y02774
X014635Y02704
X015894Y02669
X0155Y02669
X015106Y02669
X015881Y026002
X015625Y026002
X01521Y026002
X014955Y026002
X014699Y026002
X014284Y026002
X014028Y026002
X015881Y025238
X015625Y025238
X01521Y025238
X014955Y025238
X014699Y025238
X014284Y025238
X014028Y025238
X015976Y02408
X014323Y02408
X01574Y0238
X014087Y0238
X014945Y023349
X015767Y022935
X015288Y022036
X014441Y020852
X015643Y020815
X015858Y020572
X014677Y020572
X014205Y020572
X015669Y019662
X01496Y018355
X014297Y014756
X015225Y01273
X015534Y012163
X015721Y011937
X015057Y011336
X015721Y011062
X015636Y009898
X014753Y009898
X015029Y008966
X015029Y008466
X015029Y007466
X014061Y007173
X014061Y006369
X015242Y006286
X014818Y005367
X014818Y005038
X015497Y004959
X015472Y003744
X015653Y003547
X015242Y002939
X014651Y002939
X015755Y002654
X015635Y002104
X015241Y002104
X014915Y001863
X015635Y0013
X015241Y0013
X015241Y000894
X015009Y000661
X015731Y000491
X01462Y000292
X014152Y000292
X017796Y000818
X017528Y002078
X017004Y002471
X017051Y002911
X01722Y003167
X016827Y003417
X017051Y003667
X017051Y003923
X01722Y004178
X01675Y004407
X017069Y004599
X017051Y00519
X017261Y005394
X017292Y005632
X016489Y006026
X017292Y006026
X017107Y011349
X016544Y011589
X016044Y011937
X016544Y011983
X017107Y012224
X017126Y013277
X016563Y013518
X016563Y013912
X017126Y014152
X017107Y014615
X016544Y014855
X016544Y015249
X01736Y015391
X016544Y015643
X017348Y015643
X016544Y016036
X017348Y016091
X016544Y01643
X016544Y016824
X016339Y016946
X016339Y017726
X017668Y018635
X017272Y019046
X016291Y019632
X017278Y019661
X017668Y020025
X016567Y020572
X017039Y020572
X017512Y020572
X016331Y020852
X016803Y020852
X017276Y020852
X016094Y02192
X017857Y022439
X016671Y023324
X016213Y0238
X016685Y0238
X017158Y0238
X01763Y0238
X016449Y02408
X016921Y02408
X017394Y02408
X017866Y02408
X016137Y025238
X016551Y025238
X016807Y025238
X017063Y025238
X017733Y025238
X016137Y026002
X016551Y026002
X016807Y026002
X017063Y026002
X017477Y026002
X017733Y026002
X017989Y026002
X016288Y02669
X016681Y02669
X017075Y02669
X016009Y031384
X016775Y03162
X017557Y03162
X017136Y031992
X016073Y032253
X017352Y033002
X019352Y033002
X019688Y03236
X019442Y03162
X018494Y03162
X018651Y031181
X019832Y02669
X019438Y02669
X019044Y02669
X01865Y02669
X018257Y02669
X019841Y026002
X019586Y026002
X01933Y026002
X018915Y026002
X018659Y026002
X018403Y026002
X019841Y025238
X019586Y025238
X01933Y025238
X018659Y025238
X019047Y02408
X019165Y020852
X018298Y020025
X019528Y019814
X018688Y019661
X019716Y019653
X018712Y018642
X018805Y017438
X018203Y015851
X018357Y015654
X018203Y015456
X018603Y015159
X018883Y014979
X018603Y014799
X018883Y014619
X018603Y014439
X018883Y014259
X018603Y014056
X018227Y013837
X018603Y013629
X018883Y013449
X018603Y013269
X018883Y013089
X018603Y012909
X018883Y012729
X018603Y012549
X018891Y012369
X018553Y012166
X018203Y011991
X019919Y010918
X019559Y010918
X018747Y010597
X019739Y010488
X019109Y010449
X019284Y010203
X019992Y009108
X019117Y009108
X019992Y008785
X019117Y008785
X018313Y008012
X019216Y007954
X019553Y007479
X018879Y007479
X019216Y007005
X019912Y006662
X018216Y00606
X01942Y005887
X01942Y005559
X019245Y005359
X018324Y00519
X018324Y004934
X019988Y004661
X019666Y004661
X018341Y004599
X019088Y004178
X018486Y003984
X019088Y003923
X018468Y003727
X018329Y003534
X019088Y003167
X018324Y003167
X019088Y002911
X018324Y002911
X018324Y002655
X018064Y002078
X021216Y00121
X021716Y00121
X020216Y00436
X020716Y00436
X020374Y004661
X021363Y007747
X020871Y008785
X021745Y008785
X020871Y009108
X021745Y009108
X021107Y010206
X020099Y010488
X020459Y010488
X020841Y010487
X021516Y010497
X021876Y010497
X020279Y010918
X020639Y010918
X021336Y010927
X021696Y010927
X020894Y015413
X020716Y015591
X020895Y015773
X020716Y015951
X020895Y016133
X020716Y016311
X020895Y016493
X021359Y017508
X020843Y017568
X021179Y017688
X021696Y017711
X020703Y017792
X02116Y018612
X020687Y018893
X021081Y018893
X0216Y018893
X020687Y019216
X021081Y019216
X0216Y019216
X020486Y019615
X02088Y019615
X021274Y019615
X021667Y019615
X020486Y020419
X02088Y020419
X021274Y020419
X021667Y020419
X021291Y020852
X021055Y02192
X021764Y02192
X020819Y0222
X021528Y0222
X021646Y0238
X021173Y02408
X021409Y02408
X021882Y02408
X020256Y025238
X020512Y025238
X020768Y025238
X021182Y025238
X021438Y025238
X021694Y025238
X020256Y026002
X020512Y026002
X020768Y026002
X021182Y026002
X021694Y026002
X021438Y026597
X020225Y02669
X020619Y02669
X021013Y02669
X021575Y02704
X021575Y02774
X021575Y02854
X021575Y029274
X021575Y029896
X021402Y030685
X020938Y031148
X020466Y03162
X021169Y032354
X021352Y033002
X023352Y033002
X022766Y03224
X022204Y031539
X023155Y031139
X023241Y027243
X02329Y026597
X022364Y026597
X023961Y026002
X023546Y026002
X023034Y026002
X02262Y026002
X022108Y026002
X023961Y025238
X023546Y025238
X02329Y025238
X023034Y025238
X02262Y025238
X022364Y025238
X022108Y025238
X023772Y02408
X023299Y02408
X022827Y02408
X022354Y02408
X023535Y0238
X023063Y0238
X022591Y0238
X022118Y0238
X022945Y0222
X022472Y0222
X022Y0222
X023181Y02192
X022709Y02192
X022236Y02192
X023417Y020852
X022061Y020419
X022061Y019615
X023277Y019456
X022884Y019216
X022234Y019216
X022234Y018896
X023518Y018893
X022643Y018893
X023955Y018672
X022764Y017762
X022056Y010927
X023631Y010777
X023271Y010777
X022911Y010777
X023811Y010597
X023451Y010497
X023091Y010497
X022731Y010497
X022259Y010497
X022552Y010228
X023872Y009108
X023145Y009108
X022271Y009108
X023872Y008785
X023145Y008785
X022271Y008785
X022268Y00693
X023026Y006294
X022785Y00566
X02366Y003396
X022761Y003234
X022433Y003234
X0244Y000451
X024794Y000451
X025187Y000451
X025581Y000451
X0244Y000845
X024794Y000845
X025187Y000845
X025581Y000845
X0244Y001238
X024794Y001238
X025187Y001238
X025581Y001238
X024744Y002604
X025072Y002604
X024821Y003396
X025215Y003396
X024104Y00384
X025368Y004046
X024694Y004696
X024494Y005515
X024994Y005515
X025494Y005515
X024494Y006015
X024994Y006015
X025494Y006015
X024494Y006515
X024994Y006515
X025494Y006515
X024088Y007716
X024746Y008785
X025169Y008785
X025803Y008785
X024746Y009108
X025169Y009108
X025803Y009108
X024008Y010203
X024508Y010497
X024868Y010497
X025228Y010509
X024328Y010777
X024688Y010777
X025048Y010777
X02435Y011837
X025797Y012032
X02435Y012179
X025327Y012324
X02435Y012528
X025046Y012526
X025327Y012706
X02435Y012862
X025046Y012886
X025326Y013066
X024362Y013191
X025046Y013246
X025326Y013426
X025046Y013606
X025144Y013982
X025396Y014079
X025116Y014259
X025296Y014439
X025116Y014619
X025328Y014849
X025797Y015074
X02569Y01573
X025116Y015794
X025774Y016463
X024127Y018893
X024761Y018893
X024127Y019216
X024761Y019216
X0242Y019822
X025543Y020852
X025661Y023779
X024008Y0238
X024716Y0238
X024244Y02408
X024953Y02408
X025189Y02408
X025425Y025148
X025904Y025148
X024216Y025238
X024718Y025238
X025135Y025238
X024276Y025863
X024947Y026369
X025383Y026506
X025914Y026506
X024216Y026597
X024472Y026597
X025155Y027324
X025729Y027557
X024288Y028325
X024847Y029442
X02425Y030391
X024105Y031059
X025352Y033002
X026716Y031616
X026253Y028918
X026236Y028311
X027575Y028056
X027068Y028056
X027068Y0278
X026052Y027557
X026254Y026325
X027079Y025148
X026134Y025148
X027551Y02408
X026606Y02408
X027787Y0238
X027315Y0238
X026842Y0238
X02637Y0238
X027197Y022605
X027906Y020852
X027669Y020572
X027216Y016524
X026893Y016524
X027456Y015889
X026647Y015643
X027216Y015442
X026893Y015442
X027216Y014567
X026893Y014567
X027273Y014227
X027014Y01422
X027711Y013849
X026893Y013243
X027862Y013061
X027661Y012774
X026635Y012384
X027661Y011994
X027456Y011872
X027456Y011478
X026652Y011478
X027661Y011356
X026609Y010966
X027661Y010576
X026999Y010576
X027969Y01009
X026439Y00792
X027202Y005608
X027202Y005214
X026636Y004046
X026404Y003789
X02787Y003397
X026179Y003396
X028277Y005903
X029089Y006086
X029589Y006086
X029089Y009859
X028025Y010966
X029089Y011412
X029589Y011412
X028025Y012384
X029169Y013273
X029958Y01353
X029476Y019771
X028644Y02008
X029125Y020403
X028142Y020572
X028614Y020572
X029087Y020656
X029323Y020656
X028378Y020852
X02885Y020852
X029476Y022421
X028644Y02273
X028885Y023293
X029441Y02333
X02826Y0238
X02904Y023931
X028786Y024064
X028024Y02408
X028496Y02408
X028732Y025148
X029422Y025235
X029677Y025428
X029969Y025847
X029397Y026291
X029944Y027384
X029013Y027522
X02869Y028396
X029013Y028396
X02977Y028633
X028537Y029078
X029624Y029814
X028659Y032001
X031352Y033002
X031195Y03146
X030029Y030777
X031641Y030267
X031247Y030267
X030853Y030267
X03046Y030267
X03046Y029874
X03046Y02948
X03046Y029086
X031968Y028907
X030806Y028907
X030806Y028592
X031968Y028513
X030806Y028277
X030806Y027962
X030806Y027647
X03032Y027652
X031326Y027384
X031011Y027384
X030696Y027384
X031981Y026115
X030345Y026115
X031331Y02604
X031605Y025847
X030722Y025847
X030345Y025579
X030622Y025428
X031094Y025202
X030858Y025194
X03015Y02408
X031567Y023362
X030776Y023362
X030003Y022828
X031213Y022598
X031505Y022421
X031921Y022114
X031147Y020711
X030953Y020484
X030953Y019835
X031505Y019771
X030953Y017909
X031474Y017009
X030266Y014336
X030589Y011412
X030089Y011412
X030148Y009766
X031271Y007393
X030589Y006086
X030089Y006086
X031707Y005671
X03039Y003397
X032518Y006078
X033018Y006078
X033518Y006078
X033018Y009852
X033518Y009852
X032518Y011405
X033018Y011405
X033518Y011405
X032884Y015208
X032587Y015464
X032296Y01596
X032884Y015976
X033917Y016232
X032753Y016503
X032296Y016759
X032884Y017256
X033155Y02008
X033155Y020403
X032459Y020711
X032804Y020711
X033339Y02192
X033815Y022114
X033318Y022294
X032866Y02249
X033155Y02273
X033155Y023053
X032804Y023362
X033478Y023817
X033892Y023817
X032512Y025148
X03322Y025231
X032357Y025847
X033708Y02585
X033105Y026562
X032671Y026996
X033383Y027754
X032262Y028128
X032314Y029086
X032314Y02948
X032328Y029874
X032034Y030267
X032328Y030267
X032399Y030699
X033516Y031011
X032399Y031408
X032376Y032196
X03338Y032392
X033352Y033002
X035352Y033002
X034089Y032392
X035983Y031158
X035004Y031154
X034174Y03109
X034736Y03069
X035532Y030376
X034134Y030319
X034688Y030062
X034177Y029592
X03577Y02951
X03445Y02866
X034092Y027754
X034092Y026786
X035094Y026619
X035657Y026379
X034571Y026073
X035657Y025986
X034123Y025952
X035005Y025697
X035014Y025165
X03461Y024614
X035024Y024457
X035303Y024204
X03404Y023053
X03404Y02273
X034391Y022421
X03531Y022371
X034691Y020711
X03569Y020694
X03404Y020403
X03404Y02008
X034391Y019771
X035742Y018276
X034913Y01723
X034051Y016488
X035167Y014952
X03558Y014251
X034832Y013135
X034518Y011405
X034018Y011405
X034518Y009852
X034018Y009852
X034226Y008821
X035745Y007232
X035351Y007232
X034958Y007232
X035745Y006839
X035351Y006839
X034958Y006839
X035745Y006445
X035351Y006445
X034958Y006445
X034518Y006078
X034018Y006078
X034694Y00537
X037479Y004668
X037479Y005062
X037479Y005455
X037479Y005849
X036139Y006445
X03642Y006443
X037542Y006461
X036139Y006839
X036139Y007232
X036684Y008158
X037078Y008158
X037471Y008158
X037865Y008158
X036004Y008653
X036398Y008653
X036792Y008653
X037185Y008653
X037542Y008761
X036004Y009047
X036398Y009047
X036792Y009047
X037185Y009047
X036004Y009441
X036398Y009441
X036792Y009441
X037185Y009441
X036684Y010458
X037078Y010458
X037471Y010458
X037865Y010458
X036004Y010953
X036398Y010953
X036792Y010953
X037185Y010953
X037542Y011061
X036004Y011347
X036398Y011347
X036792Y011347
X037185Y011347
X036004Y011741
X036398Y011741
X036792Y011741
X037185Y011741
X036684Y012758
X037078Y012758
X037471Y012758
X037865Y012758
X03602Y013541
X036681Y013541
X036224Y014443
X036224Y014837
X036334Y015208
X036038Y015464
X036038Y015976
X037473Y016137
X036334Y016232
X036038Y016488
X036303Y01724
X036625Y01724
X03642Y019771
X037719Y020694
X03642Y022421
X037202Y024053
X037117Y024265
X037853Y024265
X036638Y024325
X036638Y025375
X036731Y025906
X036731Y026431
X036494Y026668
X037971Y027258
X037739Y02749
X036218Y027754
X037037Y027868
X03674Y028222
X037037Y028577
X03674Y028931
X037037Y029285
X036938Y02964
X037037Y029994
X03674Y030348
X036161Y03051
X037037Y030703
X036785Y031065
X037037Y031411
X037472Y031669
X037865Y031777
X037182Y031957
X037632Y032137
X036898Y03241
X037339Y03241
X036323Y032437
X036498Y032869
X037145Y032869
X037921Y032869
X039572Y03339
X038971Y03339
X038403Y03339
X039548Y031689
X038736Y031652
X039227Y031635
X039752Y031376
X03875Y030735
X038172Y030697
X039927Y030468
X03963Y030212
X039927Y029956
X03963Y0297
X039927Y029444
X03963Y029188
X039927Y028932
X03963Y028676
X039927Y02842
X03963Y028165
X038495Y027498
X038243Y026986
X038767Y026856
X039423Y026578
X038243Y026574
X03976Y026103
X038243Y025906
X038336Y025335
X038336Y024706
X038256Y024265
X03807Y023053
X03807Y02273
X038874Y022495
X038874Y022173
X03807Y020403
X03807Y02008
X038904Y019318
X038549Y017436
X038549Y017003
X038549Y01657
X038549Y016137
X038549Y015271
X038549Y014838
X038549Y014405
X038549Y013972
X038904Y013539
X039291Y012311
X039659Y011948
X039296Y011588
X038565Y010937
X039287Y010008
X039655Y009645
X039292Y009285
X038565Y008637
X039289Y007708
X039656Y007345
X039293Y006984
X038565Y006337
X0392Y003724
X039733Y00323
X038666Y00323
X0392Y002735
X04061Y00082
X04024Y00217
X04155Y00281
X040023Y006978
X040019Y007709
X041448Y008158
X041842Y008158
X040022Y009279
X040017Y01001
X041448Y010458
X041842Y010458
X040026Y011581
X040021Y012313
X041448Y012758
X041842Y012758
X041773Y013539
X04157Y01514
X04156Y0175
X041773Y019649
X04181Y02091
X040308Y022594
X041457Y023094
X040148Y023774
X041177Y024799
X04076Y025158
X040423Y025633
X041096Y025633
X04076Y026108
X040097Y026578
X040727Y027679
X041043Y028165
X040747Y028676
X041043Y028932
X040747Y029188
X041043Y029444
X040747Y029956
X041043Y030212
X039999Y032381
X040097Y032909
X042501Y02946
X042238Y029195
X042975Y028875
X043403Y02884
X042501Y02818
X043403Y02804
X043403Y02724
X042975Y027215
X043403Y02644
X043403Y02564
X042951Y025289
X043403Y02484
X042027Y024313
X04336Y0206
X042307Y020025
X042841Y019649
X042307Y019273
X0434Y01821
X04331Y01604
X042307Y013915
X042841Y013539
X042307Y013162
X0434Y01282
X042707Y012176
X042207Y012176
X042707Y011676
X042207Y011676
X042707Y011176
X042207Y011176
X042707Y010676
X042207Y010676
X042707Y010176
X042207Y010176
X042707Y009676
X042207Y009676
X04346Y00951
X042707Y009176
X042207Y009176
X042707Y008676
X042207Y008676
X042707Y008176
X042207Y008176
X042707Y007676
X042207Y007676
X0435Y00745
X042707Y007176
X042207Y007176
X042707Y006676
X042207Y006676
X042707Y006176
X042207Y006176
X04346Y00587
X042707Y005676
X042207Y005676
X042707Y005176
X042207Y005176
X04327Y00396
T02
X030272Y002536
X027988Y002536
X026061Y002535
X023778Y002535
X001753Y005972
X001753Y006523
X00258Y024355
X00258Y026638
T03
X037806Y000434
X038594Y000434
X039381Y000434
X039381Y002206
X038594Y002206
X037806Y002206
T04
X006516Y012859
X007517Y012859
X006516Y013844
X007517Y013844
X005103Y031512
X006103Y031512
X007103Y031512
X005103Y032512
X006103Y032512
X007103Y032512
X009103Y032512
X008103Y032512
X009103Y031512
X008103Y031512
X012016Y016944
X015016Y016944
X012016Y019944
X015016Y019944
X025254Y025863
X026254Y025863
X025983Y029928
X025983Y030912
X026809Y030912
X027833Y030912
X02866Y030912
X02866Y029928
X031192Y012277
X030192Y012277
X029192Y012277
X032192Y012277
X033192Y012277
X034192Y012277
X043445Y021882
X043445Y022882
T05
X005398Y001557
X008548Y001557
X015946Y02868
X015496Y02946
X015946Y03024
X016848Y03024
X016397Y02946
X016848Y02868
X01775Y02868
X017299Y02946
X01775Y03024
X018651Y03024
X0182Y02946
X018651Y02868
X019553Y02868
X019102Y02946
X019553Y03024
X03515Y023
X042441Y017794
X042441Y014645
T06
X001811Y0098
X004567Y0098
X004567Y013974
X001811Y013974
X004076Y018745
X004076Y020714
T07
X00885Y023
T08
X032746Y0007
X032746Y00255
X032746Y004401
X035739Y004401
X035739Y00255
X035739Y0007
T09
X024624Y032202
X027321Y032595
X030018Y032202
T10
X0015Y0015
X0015Y03234
X0425Y03234
X0425Y0015
T11
X012829Y02946
X022671Y02946
M30
