G04 ================== begin FILE IDENTIFICATION RECORD ==================*
G04 Layout Name:  G:/project_development/GitHub/StarrySky/PCB/V2.1/STARRYSKY.brd*
G04 Film Name:    ART03*
G04 File Format:  Gerber RS274X*
G04 File Origin:  Cadence Allegro 16.6-2015-S066*
G04 Origin Date:  Sat Sep 23 14:58:54 2023*
G04 *
G04 Layer:  VIA CLASS/ART03*
G04 Layer:  PIN/ART03*
G04 Layer:  ETCH/ART03*
G04 Layer:  BOARD GEOMETRY/OUTLINE*
G04 *
G04 Offset:    (0.00 0.00)*
G04 Mirror:    No*
G04 Mode:      Positive*
G04 Rotation:  0*
G04 FullContactRelief:  No*
G04 UndefLineWidth:     0.01*
G04 ================== end FILE IDENTIFICATION RECORD ====================*
%FSLAX55Y55*MOIN*%
%IR0*IPPOS*OFA0.00000B0.00000*MIA0B0*SFA1.00000B1.00000*%
%ADD12C,.018*%
%ADD26C,.05157*%
%ADD19C,.03583*%
%ADD16C,.0748*%
%ADD25C,.05906*%
%ADD17C,.02795*%
%ADD13C,.06693*%
%ADD24C,.09449*%
%ADD11C,.06299*%
%ADD15R,.06299X.06299*%
%ADD23C,.12205*%
%ADD10C,.16142*%
%ADD20C,.17323*%
%ADD21O,.04724X.07087*%
%ADD14O,.07087X.04724*%
%ADD22O,.04724X.07874*%
%ADD18O,.07874X.04724*%
%ADD27C,.02*%
%ADD28C,.04*%
%ADD29C,.014*%
%ADD30C,.015*%
%ADD31C,.006*%
%ADD32C,.008*%
%ADD51C,.02604*%
%ADD38C,.07302*%
%ADD49C,.0616*%
%ADD39C,.02804*%
%ADD42C,.0691*%
%ADD45C,.04586*%
%ADD37C,.08666*%
%ADD41C,.03798*%
%ADD46C,.07696*%
%ADD35C,.07878*%
%ADD36C,.07879*%
%ADD48C,.10452*%
%ADD47C,.13208*%
%ADD40R,.07302X.07302*%
%ADD33O,.03202X.07139*%
%ADD44C,.18326*%
%ADD34C,.18902*%
%ADD43O,.05726X.08876*%
%ADD50O,.05728X.08878*%
G75*
%LPD*%
G75*
G36*
G01X15999Y2001D02*
G02X12209Y2524I1J13999D01*
G01X2524Y12209D01*
G02X2035Y15025I13476J3791D01*
G01Y251016D01*
X4045Y253026D01*
X23391D01*
G02X23751Y252452I0J-400D01*
G03X27173I1711J-824D01*
G02X27533Y253026I360J174D01*
G01X32665D01*
Y252824D01*
G03X35469I1402J-15D01*
G01Y253026D01*
X47249D01*
X49305Y250970D01*
Y219086D01*
X49146Y219053D01*
G03Y216309I290J-1372D01*
G01X49305Y216276D01*
Y141609D01*
G03Y138871I1724J-1369D01*
G01Y103219D01*
G02X48795Y102835I-400J0D01*
G03X48791Y102836I-342J-1360D01*
G02X48501Y103257I108J385D01*
G03X46723Y102033I-1396J125D01*
G02X47013Y101612I-108J-385D01*
G03X47027Y101250I1396J-127D01*
G02X46738Y100797I-394J-67D01*
G03X48487Y99681I367J-1353D01*
G02X48776Y100134I394J67D01*
G03X48795Y100139I-347J1358D01*
G02X49305Y99755I110J-384D01*
G01Y61823D01*
X61476Y49652D01*
X121204D01*
X133945Y36911D01*
X136490D01*
G03X138448I979J1004D01*
G01X142743D01*
G02X143098Y36327I0J-400D01*
G03X145588I1245J-644D01*
G02X145943Y36911I355J184D01*
G01X146801D01*
G03X149183I1191J740D01*
G01X160697D01*
X164218Y33390D01*
Y22361D01*
X166382Y20197D01*
X167376D01*
X167398Y20022D01*
G03X170180I1391J178D01*
G01X170202Y20197D01*
X178412D01*
X178434Y20022D01*
G03X178838Y19205I1390J179D01*
G02Y18636I-282J-285D01*
G03X180812I987J-995D01*
G02Y19205I282J284D01*
G03X181216Y20022I-986J996D01*
G01X181238Y20197D01*
X186050D01*
X186072Y20022D01*
G03X188854I1391J178D01*
G01X188876Y20197D01*
X220165D01*
X220221Y20090D01*
G03X222707I1243J649D01*
G01X222763Y20197D01*
X267242D01*
X272532Y25487D01*
G02X273203Y25298I282J-283D01*
G03X278850Y25969I2784J671D01*
G01Y29119D01*
G03X278848Y29231I-2863J5D01*
G02X279217Y29347I200J8D01*
G03X281799Y30115I1180J756D01*
G01Y30317D01*
X304191D01*
Y30115D01*
G03X306773Y29347I1402J-12D01*
G02X307142Y29231I169J-108D01*
G03X307140Y29119I2861J-107D01*
G01Y25969D01*
G03X312866I2863J0D01*
G01Y29119D01*
G03X312780Y29819I-2863J3D01*
G02X313167Y30317I388J98D01*
G01X322109D01*
G02X322366Y29610I0J-400D01*
G03X329072I3353J-4008D01*
G02X329329Y30317I257J307D01*
G01X352009D01*
G02X352266Y29610I0J-400D01*
G03X358972I3353J-4008D01*
G02X359229Y30317I257J307D01*
G01X436492D01*
X437627Y29182D01*
Y12808D01*
X427214Y2395D01*
X423271D01*
X423263Y2403D01*
X422861Y2001D01*
X396469D01*
G02X396122Y2598I1J400D01*
G03X390112I-3005J1706D01*
G02X389765Y2001I-348J-197D01*
G01X388595D01*
G02X388248Y2598I1J400D01*
G03X382238I-3005J1706D01*
G02X381891Y2001I-348J-197D01*
G01X380721D01*
G02X380374Y2598I1J400D01*
G03X374364I-3005J1706D01*
G02X374017Y2001I-348J-197D01*
G01X358716D01*
G02X358496Y2735I0J400D01*
G03X352742I-2877J4363D01*
G02X352522Y2001I-220J-334D01*
G01X328816D01*
G02X328596Y2735I0J400D01*
G03X322842I-2877J4363D01*
G02X322622Y2001I-220J-334D01*
G01X187845D01*
G02X187490Y2586I0J400D01*
G03X185006I-1242J650D01*
G02X184651Y2001I-355J-185D01*
G01X180321D01*
G02X179966Y2586I0J400D01*
G03X177482I-1242J650D01*
G02X177127Y2001I-355J-185D01*
G01X171487D01*
G02X171132Y2586I0J400D01*
G03X168648I-1242J650D01*
G02X168293Y2001I-355J-185D01*
G01X163963D01*
G02X163608Y2586I0J400D01*
G03X161124I-1242J650D01*
G02X160769Y2001I-355J-185D01*
G01X150829D01*
G02X150519Y2654I0J400D01*
G03X148351I-1084J889D01*
G02X148041Y2001I-310J-253D01*
G01X122265D01*
G02X121969Y2670I0J400D01*
G03X119897I-1036J945D01*
G02X119601Y2001I-296J-269D01*
G01X15999D01*
G37*
G36*
G01X265547Y32284D02*
X262243Y35588D01*
Y35886D01*
X262493D01*
X262536Y35863D01*
G03X262765Y38439I655J1240D01*
G02X262243Y38820I-122J381D01*
G01Y39801D01*
G03Y42245I-687J1222D01*
G01Y43986D01*
X262252Y43996D01*
Y70182D01*
X262254Y70184D01*
Y74845D01*
X263387Y75978D01*
G02X264065Y75758I283J-283D01*
G03X265669Y77362I1385J219D01*
G02X265449Y78040I63J395D01*
G01X269342Y81933D01*
X319876D01*
G02X320148Y81240I0J-400D01*
G03X322056I954J-1028D01*
G02X322328Y81933I272J293D01*
G01X347067D01*
X347069Y81736D01*
G03X349873I1402J18D01*
G01X349875Y81933D01*
X365818D01*
X365864Y81797D01*
G03X368520I1328J448D01*
G01X368566Y81933D01*
X369756D01*
X369802Y81797D01*
G03X372458I1328J448D01*
G01X372504Y81933D01*
X373694D01*
X373740Y81797D01*
G03X376396I1328J448D01*
G01X376442Y81933D01*
X377632D01*
X377678Y81797D01*
G03X380035Y83197I1328J448D01*
G01X379904Y83338D01*
X380536Y83970D01*
Y154946D01*
X374127Y161355D01*
Y188924D01*
G03Y191132I-864J1104D01*
G01Y222235D01*
X386326Y234434D01*
Y280823D01*
X377773Y289376D01*
X374282D01*
G03X372092I-1095J-875D01*
G01X371349D01*
G02X370983Y289936I0J400D01*
G03X368413I-1285J561D01*
G02X368047Y289376I-366J-160D01*
G01X358652D01*
X358644Y289568D01*
G03X355842I-1401J-59D01*
G01X355834Y289376D01*
X352837D01*
G02X352479Y289955I0J400D01*
G03X349971I-1254J627D01*
G02X349613Y289376I-358J-179D01*
G01X321476D01*
X316199Y284099D01*
G02X315524Y284306I-282J283D01*
G03X313882Y282664I-1377J-265D01*
G02X314089Y281989I-76J-393D01*
G01X313216Y281116D01*
X287067D01*
G02X286782Y281797I0J400D01*
G03X284784I-999J983D01*
G02X284499Y281116I-285J-281D01*
G01X262002D01*
X261945Y281059D01*
X250998D01*
G02X250730Y281755I1J400D01*
G03X248846I-942J1039D01*
G02X248578Y281059I-269J-296D01*
G01X242704D01*
X242663Y281205D01*
G03X239963I-1350J-379D01*
G01X239922Y281059D01*
X182448D01*
X171860Y270471D01*
X171803Y270459D01*
G03X170725Y269381I293J-1371D01*
G01X170713Y269324D01*
X162888Y261499D01*
X83360D01*
X80329Y258468D01*
Y251948D01*
X81573Y250704D01*
G02X81536Y250106I-283J-283D01*
G03X83395Y248015I864J-1104D01*
G02X83964I284J-282D01*
G03X84590Y247649I997J986D01*
G01X84642Y247635D01*
X90350Y241927D01*
X90344Y241837D01*
G03X91834Y240347I1399J-91D01*
G01X91924Y240353D01*
X119285Y212992D01*
Y203164D01*
X115859Y199738D01*
X108799D01*
X108761Y199890D01*
G03X106041I-1360J-340D01*
G01X106003Y199738D01*
X99877D01*
G02X99481Y200197I0J400D01*
G03X96709I-1386J209D01*
G02X96313Y199738I-396J-59D01*
G01X69682D01*
G02X69309Y200281I0J400D01*
G03X66689I-1310J500D01*
G02X66316Y199738I-373J-143D01*
G01X56756D01*
G02X56356Y200134I0J400D01*
G03X53601Y200489I-1402J-12D01*
G02X52932Y200311I-386J105D01*
G01X50606Y202636D01*
Y233634D01*
G02X51204Y233982I400J0D01*
G03Y236420I692J1219D01*
G02X50606Y236768I-198J348D01*
G01Y238634D01*
G02X51204Y238982I400J0D01*
G03Y241420I692J1219D01*
G02X50606Y241768I-198J348D01*
G01Y243634D01*
G02X51204Y243982I400J0D01*
G03Y246420I692J1219D01*
G02X50606Y246768I-198J348D01*
G01Y251509D01*
X47788Y254328D01*
X31232D01*
G02X30973Y255033I0J400D01*
G03X29124Y260082I-1849J2186D01*
G01X25974D01*
G03X24125Y255033I0J-2863D01*
G02X23866Y254328I-259J-305D01*
G01X14381D01*
G02X14123Y255033I0J400D01*
G03X12274Y260082I-1850J2186D01*
G01X9910D01*
G03X8061Y255033I1J-2863D01*
G02X7803Y254328I-258J-305D01*
G01X3687D01*
X2549Y255465D01*
Y326205D01*
X11838Y335494D01*
X428622D01*
X437266Y326850D01*
Y323601D01*
X437982Y322885D01*
Y33727D01*
X436539Y32284D01*
X434459D01*
G02X434150Y32938I0J400D01*
G03X431986I-1082J892D01*
G02X431677Y32284I-309J-254D01*
G01X381989D01*
X381963Y32454D01*
G03X379191I-1386J-211D01*
G01X379165Y32284D01*
X376652D01*
X376626Y32454D01*
G03X373854I-1386J-211D01*
G01X373828Y32284D01*
X265547D01*
G37*
G36*
G01X84654Y54834D02*
X84337Y55151D01*
G02X84478Y55492I141J141D01*
G01X152979D01*
G02X153378Y55111I0J-400D01*
G03X153382Y55051I1401J63D01*
G01X153383Y55042D01*
Y54834D01*
X84654D01*
G37*
G36*
G01X91083Y59378D02*
X91426Y59722D01*
X104560D01*
Y59518D01*
G03X104595Y59184I1402J-22D01*
G02X104205Y58696I-390J-88D01*
G01X91366D01*
G02X91083Y59378I0J400D01*
G37*
G36*
G01X181408Y21498D02*
G02X181057Y22089I0J400D01*
G03X181217Y22929I-1232J670D01*
G02X181614Y23378I397J49D01*
G01X206789D01*
X217093Y33682D01*
G03X214829Y35946I-1132J1132D01*
G01X213238Y34355D01*
G02X212556Y34673I-283J283D01*
G03X209829Y35946I-1595J141D01*
G01X205405Y31522D01*
X194887D01*
X194273Y30909D01*
G02X193630Y31018I-283J283D01*
G03X193197Y31540I-1264J-608D01*
G02X193151Y32145I237J322D01*
G01X199188Y38182D01*
X239261D01*
X240478Y36965D01*
Y31664D01*
X242016Y30127D01*
Y27646D01*
X241561Y27191D01*
G03X243825Y24927I1132J-1132D01*
G01X244334Y25435D01*
X244843Y24927D01*
G03X247107Y27191I1132J1132D01*
G01X246418Y27880D01*
Y31951D01*
X246251Y32119D01*
G02X246392Y32460I141J141D01*
G01X249199D01*
G03Y35664I0J1602D01*
G01X245262D01*
G03X245102Y35655I10J-1601D01*
G01X245092Y35654D01*
X244882D01*
Y38789D01*
X241085Y42586D01*
X197364D01*
X189539Y34761D01*
X189390Y34910D01*
X189383Y34918D01*
G03X189267Y35047I-1247J-1005D01*
G01X186090Y38225D01*
Y40484D01*
G02X186706Y40820I400J0D01*
G03X188661Y42728I757J1180D01*
G02X188761Y43255I342J208D01*
G03X187795Y46134I-966J1277D01*
G01X185332D01*
X182886Y43688D01*
Y40509D01*
G02X182278Y40168I-400J0D01*
G03X181443Y40402I-833J-1367D01*
G01X175818D01*
X175081Y39666D01*
X174473Y40274D01*
X175664Y41466D01*
Y42958D01*
X179825D01*
G03Y46160I0J1601D01*
G01X174200D01*
X173463Y45424D01*
X173195Y45691D01*
G03X172063Y46160I-1132J-1132D01*
G01X170780D01*
G02X170515Y46859I1J400D01*
G03X168651I-932J1048D01*
G02X168386Y46160I-266J-299D01*
G01X167101D01*
G03X165525Y44275I0J-1601D01*
G02X165131Y43804I-393J-71D01*
G01X136090D01*
X134438Y45456D01*
X134912Y45931D01*
G03X132648Y48195I-1132J1132D01*
G01X132139Y47687D01*
X131630Y48195D01*
G03X129366Y45931I-1132J-1132D01*
G01X129938Y45359D01*
Y43729D01*
X134266Y39400D01*
X146798D01*
G02X147063Y38701I0J-400D01*
G03X146759Y38317I930J-1049D01*
G01X146702Y38212D01*
X134484D01*
X121743Y50954D01*
X62015D01*
X60740Y52229D01*
G02X60941Y52903I283J283D01*
G03X61743Y53338I-331J1567D01*
G01X62288Y53882D01*
G02X62917Y53800I283J-282D01*
G03X65436Y53469I1387J801D01*
G01X66401Y54433D01*
G02X67074Y54240I283J-283D01*
G03X68634Y53000I1560J361D01*
G01X81959D01*
X83328Y51630D01*
X193674D01*
G02X194073Y51247I0J-400D01*
G03X196875I1401J58D01*
G02X197274Y51630I399J-17D01*
G01X200760D01*
G02X201159Y51247I0J-400D01*
G03X203961I1401J58D01*
G02X204360Y51630I399J-17D01*
G01X212875D01*
X221548Y60304D01*
G03X219284Y62568I-1132J1132D01*
G01X217582Y60867D01*
G02X216900Y61150I-282J283D01*
G01Y64816D01*
G03X214340Y66099I-1602J0D01*
G01X214201Y65996D01*
X212136Y68061D01*
G02X212419Y68744I283J283D01*
G01X212669D01*
X214411Y70486D01*
G03X214876Y71734I-1132J1132D01*
G02X215275Y72162I399J28D01*
G01X217479D01*
X219279Y73962D01*
X220416D01*
G03Y77166I0J1602D01*
G01X217953D01*
X217219Y76432D01*
G02X216609Y76484I-283J282D01*
G03X215298Y77166I-1311J-919D01*
G01X211753D01*
X210973Y77946D01*
G02X211041Y78566I283J283D01*
G03X211312Y81049I-861J1350D01*
G01X209295Y83066D01*
X208031D01*
X200937Y90161D01*
G02X201220Y90844I283J283D01*
G01X234735D01*
X246361Y79218D01*
G03X249070Y80072I1132J1132D01*
G02X249747Y80285I394J-70D01*
G01X251284Y78748D01*
X253747D01*
G03Y81952I0J1602D01*
G01X252610D01*
X242186Y92375D01*
G02X242476Y93058I283J283D01*
G03X241098Y94436I24J1402D01*
G02X240415Y94146I-400J-7D01*
G01X236128Y98434D01*
X234276D01*
G02X233882Y98902I0J400D01*
G03X231118I-1382J238D01*
G02X230724Y98434I-394J-68D01*
G01X229276D01*
G02X228882Y98902I0J400D01*
G03X226118I-1382J238D01*
G02X225724Y98434I-394J-68D01*
G01X224276D01*
G02X223882Y98902I0J400D01*
G03X221118I-1382J238D01*
G02X220724Y98434I-394J-68D01*
G01X202302D01*
Y99442D01*
X200413Y101331D01*
G02X200696Y102014I283J283D01*
G01X291685D01*
X305048Y115377D01*
Y121149D01*
G03X301846I-1601J0D01*
G01Y120738D01*
G02X301633Y120538I-200J0D01*
G03X301517Y120541I-99J-1598D01*
G02X301316Y120741I-1J200D01*
G01Y121575D01*
G03X300668Y122861I-1602J-1D01*
G02X300623Y123465I238J321D01*
G01X301694Y124536D01*
X303936D01*
X304881Y123592D01*
G03X307145Y125856I1132J1132D01*
G01X306763Y126239D01*
G02X306803Y126839I283J282D01*
G03X304943Y128616I-790J1035D01*
G02X304265Y128650I-328J228D01*
G03X302864Y129476I-1401J-775D01*
G01X300469D01*
X300208Y129737D01*
X300366Y129896D01*
X300387Y129908D01*
G03X298534Y131574I-673J1115D01*
G01X294624D01*
X293554Y130504D01*
X291837Y132222D01*
X278405D01*
G02X278122Y132904I0J400D01*
G01X278980Y133762D01*
G02X279628Y133642I283J-283D01*
G03X282120Y134171I1190J529D01*
G02X282520Y134570I400J-1D01*
G01X285414D01*
G02X285814Y134171I0J-400D01*
G03X288418I1302J0D01*
G02X288818Y134570I400J-1D01*
G01X298014D01*
G02X298414Y134171I0J-400D01*
G03X301018I1302J0D01*
G02X301610Y134522I400J0D01*
G03X303151Y135443I1254J-349D01*
G02X302956Y136116I88J390D01*
G01X304734Y137894D01*
Y138673D01*
G02X305309Y139032I400J0D01*
G03X307145Y141603I704J1439D01*
G01X306977Y141772D01*
G02X307011Y142367I283J282D01*
G03X307145Y144752I-998J1252D01*
G01X306977Y144921D01*
G02X307010Y145517I282J283D01*
G03X307145Y147902I-997J1253D01*
G01X304921Y150127D01*
X304955Y150242D01*
G03X305020Y150615I-1534J460D01*
G02X305420Y150994I400J-21D01*
G01X308681D01*
G02X309009Y150364I0J-400D01*
G03X311307I1149J-803D01*
G02X311635Y150994I328J230D01*
G01X312874D01*
X314470Y149398D01*
X317237D01*
G03X318448Y149950I1J1602D01*
G02X319033Y149971I302J-262D01*
G01X319119Y149886D01*
G03X321383Y152150I1132J1132D01*
G01X321084Y152450D01*
G02X321119Y153047I283J283D01*
G03X321180Y153098I-868J1101D01*
G02X321727Y153081I264J-300D01*
G01X322554Y152254D01*
X326030D01*
X328802Y155026D01*
Y158121D01*
X330162Y159481D01*
G02X330830Y159305I283J-283D01*
G03X333469Y160234I1351J376D01*
G02X333821Y160791I368J157D01*
G03X335123Y162543I-55J1401D01*
G02X335523Y163043I387J100D01*
G03X335612I45J1401D01*
G02X335818Y162843I6J-200D01*
G01Y160209D01*
X325704Y150094D01*
Y143032D01*
G02X325076Y142703I-400J0D01*
G03X323598Y140325I-797J-1153D01*
G02Y139625I-194J-350D01*
G03X325076Y137247I681J-1225D01*
G02X325704Y136918I228J-329D01*
G01Y113810D01*
X307890Y95996D01*
G03X310154Y93732I1132J-1132D01*
G01X328906Y112484D01*
Y135102D01*
G02X329424Y135485I400J0D01*
G03Y138165I411J1340D01*
G02X328906Y138548I-118J383D01*
G01Y141402D01*
G02X329424Y141785I400J0D01*
G03Y144465I411J1340D01*
G02X328906Y144848I-118J383D01*
G01Y148768D01*
X338105Y157966D01*
G02X338788Y157683I283J-283D01*
G01Y154121D01*
G02X338343Y153723I-400J0D01*
G03Y150937I-157J-1393D01*
G02X338788Y150539I45J-398D01*
G01Y131812D01*
G02X338105Y131529I-400J0D01*
G01X335766Y133868D01*
Y145347D01*
X333215Y147897D01*
G03X330951Y145633I-1132J-1132D01*
G01X332562Y144021D01*
Y132542D01*
X337974Y127131D01*
G03X338645Y126729I1134J1131D01*
G01X338788Y126686D01*
Y96984D01*
G02X338273Y96601I-400J0D01*
G03Y93913I-400J-1344D01*
G02X338788Y93530I115J-383D01*
G01Y85719D01*
X340589Y83917D01*
G02X340306Y83234I-283J-283D01*
G01X268803D01*
X264220Y78651D01*
G02X263556Y78811I-283J283D01*
G03X261792Y77047I-1334J-430D01*
G02X261952Y76383I-123J-381D01*
G01X260952Y75384D01*
Y70723D01*
X260950Y70721D01*
Y44495D01*
X260942Y44485D01*
Y35049D01*
X263332Y32659D01*
G02X263074Y31977I-283J-283D01*
G03X260390Y29119I180J-2858D01*
G01Y25969D01*
G03X266118I2864J0D01*
G01Y29119D01*
G03X265813Y30403I-2864J-2D01*
G02X266171Y30982I358J179D01*
G01X273070D01*
G02X273428Y30403I0J-400D01*
G03X273124Y29119I2560J-1284D01*
G01Y27919D01*
X266703Y21498D01*
X187993D01*
X187959Y21511D01*
G03X186967I-496J-1311D01*
G01X186933Y21498D01*
X181408D01*
G37*
G36*
G01X59044Y54800D02*
G02X58370Y54599I-391J82D01*
G01X50606Y62362D01*
Y95848D01*
G02X51128Y96229I400J0D01*
G03Y98899I427J1335D01*
G02X50606Y99280I-122J381D01*
G01Y137639D01*
G02X51010Y138039I400J0D01*
G03X52586Y138683I20J2201D01*
G01X58102Y144199D01*
Y167036D01*
X53837Y171301D01*
G03X51202Y171664I-1557J-1557D01*
G02X50606Y172012I-196J349D01*
G01Y199830D01*
G02X51289Y200113I400J0D01*
G01X52966Y198436D01*
X106549D01*
G03X108253I852J1114D01*
G01X116398D01*
X120586Y202625D01*
Y213531D01*
X89670Y244448D01*
G02X89953Y245130I283J282D01*
G01X98651D01*
X156618Y187164D01*
X164057D01*
X171711Y179510D01*
X188560D01*
G02X188813Y178800I0J-400D01*
G03X190591I889J-1084D01*
G02X190844Y179510I253J310D01*
G01X232960D01*
X243462Y169007D01*
G02X243179Y168324I-283J-283D01*
G01X235483D01*
X203157Y135998D01*
G02X202535Y136068I-283J283D01*
G03X200602Y134135I-1186J-747D01*
G02X200672Y133513I-213J-339D01*
G01X197374Y130216D01*
X197137D01*
G02X196746Y130699I0J400D01*
G03X194004I-1371J295D01*
G02X193613Y130216I-391J-83D01*
G01X187005D01*
G02X186730Y130906I0J400D01*
G03X184802I-964J1018D01*
G02X184527Y130216I-275J-290D01*
G01X180145D01*
X168718Y118788D01*
Y78562D01*
X173627Y73652D01*
G02X173344Y72970I-283J-282D01*
G01X164554D01*
X156861Y65277D01*
G02X156179Y65536I-283J283D01*
G03X154697Y64054I-1400J-82D01*
G02X154956Y63372I-24J-399D01*
G01X153979Y62394D01*
X149490D01*
X149489Y62594D01*
G03X147888Y64194I-1601J-1D01*
G01X146873D01*
G02X146486Y64693I1J400D01*
G03X144934Y66692I-1552J397D01*
G01X142569D01*
X132236Y77025D01*
Y81007D01*
X129139Y84103D01*
G03X126875Y81839I-1132J-1132D01*
G01X129032Y79681D01*
Y79344D01*
G02X128729Y79173I-200J0D01*
G03X128494Y76656I-722J-1202D01*
G02X129032Y76281I138J-375D01*
G01Y75699D01*
X135038Y69693D01*
G02X134910Y69041I-283J-283D01*
G03X134397Y66432I619J-1477D01*
G01X134752Y66076D01*
G02X134704Y65470I-283J-282D01*
G03X134570Y65359I826J-1133D01*
G02X134014Y65368I-273J292D01*
G01X130584Y68798D01*
X121897D01*
X120305Y70390D01*
X58046D01*
G03Y67186I0J-1602D01*
G01X88061D01*
G02X88460Y66764I0J-400D01*
G03X91260I1400J-77D01*
G02X91659Y67186I399J22D01*
G01X118979D01*
X120571Y65594D01*
X123665D01*
G02X124016Y65004I0J-400D01*
G03X126482I1233J-668D01*
G02X126833Y65594I351J190D01*
G01X127603D01*
G02X127954Y65004I0J-400D01*
G03X130430Y63687I1233J-668D01*
G02X131067Y63785I354J-185D01*
G01X133551Y61301D01*
G02X133268Y60618I-283J-283D01*
G01X113471D01*
X111165Y62924D01*
X90100D01*
X88490Y61314D01*
X87177D01*
G02X86907Y62009I0J400D01*
G03X85013I-947J1034D01*
G02X84743Y61314I-270J-295D01*
G01X65191D01*
X59479Y55602D01*
G03X59044Y54800I1132J-1133D01*
G37*
G36*
G01X50606Y143897D02*
Y167338D01*
G02X51289Y167621I400J0D01*
G01X53698Y165212D01*
Y146023D01*
X51289Y143614D01*
G02X50606Y143897I-283J283D01*
G37*
G36*
G01X297926Y155820D02*
G02X297569Y156402I-1J400D01*
G03X295441Y157863I-1161J589D01*
G02X294862Y157848I-297J268D01*
G01X289744Y162966D01*
X287116D01*
G03Y159762I0J-1602D01*
G01X288418D01*
X288728Y159452D01*
G02X288661Y158832I-282J-283D01*
G03X288059Y157735I700J-1098D01*
G01Y157536D01*
X285645D01*
G02X285250Y158001I0J400D01*
G03X282921Y158992I-1284J214D01*
G02X282620Y158970I-160J120D01*
G01X282420Y159170D01*
Y161364D01*
G03X279417Y162140I-1602J0D01*
G02X278739Y162106I-350J194D01*
G03X278547Y160402I-1070J-742D01*
G02X279216Y160107I269J-295D01*
G01Y157570D01*
X264086D01*
G02X263803Y158253I0J400D01*
G01X268608Y163058D01*
G02X269208Y163018I282J-283D01*
G03X270368Y165269I1115J850D01*
G02X269980Y165669I12J400D01*
G01Y166005D01*
G02X270368Y166405I400J0D01*
G03Y169207I-45J1401D01*
G02X269980Y169607I12J400D01*
G01Y183025D01*
X274683Y187728D01*
G03X274150Y190345I-1132J1132D01*
G02X274017Y190999I150J371D01*
G01X274683Y191666D01*
G03X272419Y193930I-1132J1132D01*
G01X266657Y188169D01*
G02X265974Y188452I-283J283D01*
G01Y204620D01*
G02X266678Y204880I400J0D01*
G03Y206706I1064J913D01*
G02X265974Y206966I-304J260D01*
G01Y210273D01*
X258564Y217684D01*
Y221819D01*
G03X255360I-1602J0D01*
G01Y217694D01*
G02X255019Y217553I-200J0D01*
G01X254626Y217946D01*
Y221819D01*
G03X251422I-1602J0D01*
G01Y217678D01*
G02X251081Y217537I-200J0D01*
G01X250688Y217930D01*
Y221819D01*
G03X247484I-1602J0D01*
G01Y216845D01*
G02X247143Y216704I-200J0D01*
G01X246756Y217090D01*
Y226507D01*
X244059Y229204D01*
G02X244223Y229869I283J283D01*
G03X242466Y231626I-419J1338D01*
G02X241801Y231462I-382J119D01*
G01X228782Y244482D01*
Y249738D01*
X225362Y253158D01*
X209181D01*
X206158Y250134D01*
G03X206217Y247813I1132J-1132D01*
G02X205949Y247116I-268J-297D01*
G01X201459D01*
X198441Y250134D01*
G03X196177Y247870I-1132J-1132D01*
G01X200133Y243914D01*
X218923D01*
X239064Y223772D01*
Y222770D01*
G02X238382Y222487I-400J0D01*
G01X232491Y228378D01*
X230987D01*
X225703Y233662D01*
X204933D01*
X188460Y250134D01*
G03X186196Y247870I-1132J-1132D01*
G01X203607Y230458D01*
X208423D01*
G02X208749Y229826I0J-400D01*
G03X211033I1142J-813D01*
G02X211359Y230458I326J232D01*
G01X214723D01*
G02X215049Y229826I0J-400D01*
G03X217333I1142J-813D01*
G02X217659Y230458I326J232D01*
G01X224377D01*
X229661Y225174D01*
X231165D01*
X235586Y220753D01*
Y217720D01*
G02X234976Y217380I-400J0D01*
G03Y214994I-737J-1193D01*
G02X235586Y214654I210J-340D01*
G01Y190565D01*
X251063Y175088D01*
X251713D01*
G02X252113Y174696I0J-400D01*
G03X254917I1402J26D01*
G02X255317Y175088I400J-8D01*
G01X255500D01*
X256026Y175614D01*
G02X256572Y175633I283J-282D01*
G03X257829Y175330I920J1058D01*
G02X258326Y174942I97J-388D01*
G01Y174503D01*
G02X257829Y174115I-400J0D01*
G03X256510Y171753I-337J-1361D01*
G02X256511Y171469I-140J-142D01*
G01X255599Y170557D01*
G02X254916Y170828I-283J283D01*
G03X252113Y170761I-1401J-43D01*
G02X251613Y170367I-400J-7D01*
G03X251212Y170418I-401J-1551D01*
G01X249455D01*
G02X249056Y170841I0J400D01*
G03X249058Y170931I-1599J81D01*
G01Y173755D01*
X233677Y189136D01*
X177643D01*
X173461Y193318D01*
X171987D01*
X171390Y193916D01*
X174790Y197316D01*
X224011D01*
X226704Y200010D01*
G03X224440Y202274I-1132J1132D01*
G01X222685Y200520D01*
X173464D01*
X171431Y198487D01*
G02X170822Y198539I-283J283D01*
G03X168431Y197088I-1144J-810D01*
G02X168075Y196504I-356J-184D01*
G01X159755D01*
G03X158173Y194652I0J-1602D01*
G02X157778Y194190I-395J-62D01*
G01X157184D01*
X122510Y228863D01*
Y236236D01*
X108612Y250134D01*
G03X106348Y247870I-1132J-1132D01*
G01X119308Y234910D01*
Y229969D01*
G02X118625Y229686I-400J0D01*
G01X99977Y248334D01*
X99281D01*
G02X98885Y248793I0J400D01*
G03X96113I-1386J209D01*
G02X95717Y248334I-396J-59D01*
G01X94163D01*
G02X93767Y248793I0J400D01*
G03X90995I-1386J209D01*
G02X90599Y248334I-396J-59D01*
G01X90451D01*
X88650Y250134D01*
G03X85922Y249129I-1132J-1132D01*
G02X85240Y248878I-399J32D01*
G01X81630Y252487D01*
Y254673D01*
G02X82104Y255066I400J0D01*
G03X83532Y255508I295J1574D01*
G01X83821Y255796D01*
X83962Y255654D01*
X83963D01*
G03X86360Y256595I996J986D01*
G02X86760Y256982I400J-13D01*
G01X89774D01*
X91249Y255508D01*
G03X93513I1132J1132D01*
G01X93802Y255796D01*
X93943Y255654D01*
X93944D01*
G03X96340Y256714I996J986D01*
G02X96739Y257134I399J20D01*
G01X99603D01*
X101230Y255508D01*
G03X103494I1132J1132D01*
G01X103783Y255796D01*
X103924Y255654D01*
X103925D01*
G03X106323Y256639I996J986D01*
G01Y256838D01*
X109880D01*
X111211Y255508D01*
G03X113475I1132J1132D01*
G01X113764Y255796D01*
X113905Y255654D01*
X113906D01*
G03X116295Y256802I996J986D01*
G02X116692Y257248I397J46D01*
G01X119451D01*
X121192Y255508D01*
G03X123456I1132J1132D01*
G01X123745Y255796D01*
X123886Y255654D01*
X123887D01*
G03X126284Y256595I996J986D01*
G02X126684Y256982I400J-13D01*
G01X129698D01*
X131173Y255508D01*
G03X133437I1132J1132D01*
G01X133726Y255796D01*
X133867Y255654D01*
X133868D01*
G03X136248Y256861I996J986D01*
G02X136643Y257324I395J63D01*
G01X139337D01*
X141154Y255508D01*
G03X143418I1132J1132D01*
G01X143707Y255796D01*
X143848Y255654D01*
X143849D01*
G03X146229Y256861I996J986D01*
G02X146624Y257324I395J63D01*
G01X149318D01*
X151135Y255508D01*
G03X153399I1132J1132D01*
G01X153688Y255796D01*
X153829Y255654D01*
X153830D01*
G03X155812Y257636I996J986D01*
G01Y257637D01*
X155670Y257778D01*
X155905Y258014D01*
X163291D01*
G02X163627Y257397I0J-400D01*
G03X163406Y256599I1180J-756D01*
G02X162838Y256224I-400J-12D01*
G03X163649Y254993I-590J-1272D01*
G02X164217Y255368I400J12D01*
G03X165987Y257397I590J1272D01*
G02X166323Y258014I336J217D01*
G01X168591D01*
X171097Y255508D01*
G03X173361I1132J1132D01*
G01X173650Y255796D01*
X173791Y255654D01*
X173792D01*
G03X176186Y256743I996J986D01*
G02X176585Y257172I399J29D01*
G01X179413D01*
X181078Y255508D01*
G03X183342I1132J1132D01*
G01X183631Y255796D01*
X183772Y255654D01*
X183773D01*
G03X186171Y256654I996J986D01*
G02X186571Y257058I400J4D01*
G01X189508D01*
X191059Y255508D01*
G03X193323I1132J1132D01*
G01X193612Y255796D01*
X193753Y255654D01*
X193754D01*
G03X196151Y256700I996J986D01*
G02X196550Y257118I400J18D01*
G01X199430D01*
X201040Y255508D01*
G03X203304I1132J1132D01*
G01X203593Y255796D01*
X203734Y255654D01*
X203735D01*
G03X206133Y256612I996J986D01*
G02X206533Y257004I400J-8D01*
G01X209525D01*
X211021Y255508D01*
G03X213285I1132J1132D01*
G01X213574Y255796D01*
X213715Y255654D01*
X213716D01*
G03X216114Y256654I996J986D01*
G02X216514Y257058I400J4D01*
G01X219451D01*
X221002Y255508D01*
G03X223266I1132J1132D01*
G01X223555Y255796D01*
X223696Y255654D01*
X223697D01*
G03X226094Y256595I996J986D01*
G02X226494Y256982I400J-13D01*
G01X229508D01*
X230983Y255508D01*
G03X233257Y255518I1132J1132D01*
G02X233794Y255549I286J-280D01*
G03Y257731I880J1091D01*
G02X233257Y257762I-251J311D01*
G03X233247Y257772I-1137J-1127D01*
G01X230834Y260186D01*
X223415D01*
X222134Y258905D01*
X220777Y260262D01*
X213510D01*
X212153Y258905D01*
X210851Y260206D01*
X203474D01*
X202172Y258905D01*
X200756Y260320D01*
X193607D01*
X192191Y258905D01*
X190834Y260262D01*
X183567D01*
X182210Y258905D01*
X180739Y260376D01*
X173700D01*
X172229Y258905D01*
X169917Y261216D01*
X165412D01*
G02X165129Y261899I0J400D01*
G01X182987Y279758D01*
X240405D01*
G03X242221I908J1068D01*
G01X251912D01*
G02X252195Y279075I0J-400D01*
G01X246536Y273416D01*
Y267791D01*
X245930Y267184D01*
G02X245269Y267334I-283J283D01*
G03X243482Y265547I-1322J-465D01*
G02X243632Y264886I-133J-378D01*
G01X239493Y260747D01*
G03X241757Y258483I1132J-1132D01*
G01X249740Y266465D01*
Y272090D01*
X251763Y274114D01*
G02X252412Y273993I283J-283D01*
G03X254261Y275842I1282J567D01*
G02X254140Y276491I162J366D01*
G01X254905Y277256D01*
X256042D01*
G03X257593Y279258I0J1602D01*
G02X257980Y279758I387J100D01*
G01X262484D01*
X262541Y279814D01*
X266241D01*
G02X266575Y279194I0J-400D01*
G03X268915I1170J-772D01*
G02X269249Y279814I334J220D01*
G01X312784D01*
G02X313067Y279132I0J-400D01*
G01X304110Y270175D01*
Y267336D01*
G03X306687Y266065I1602J0D01*
G02X307283Y265936I243J-317D01*
G03X309829Y265557I1413J753D01*
G01X312028Y267756D01*
X316780D01*
G02X317063Y267073I0J-400D01*
G01X311096Y261106D01*
Y253725D01*
G03X314316Y251773I2202J0D01*
G02X314900Y251418I184J-355D01*
G01Y243206D01*
G02X314218Y242923I-400J0D01*
G01X305159Y251982D01*
X301919D01*
G03Y248778I0J-1602D01*
G01X303833D01*
X305066Y247545D01*
G02X304783Y246862I-283J-283D01*
G01X301919D01*
G03Y243660I0J-1601D01*
G01X305637D01*
X319238Y230058D01*
X330217D01*
X333882Y226394D01*
G03X335064Y225925I1133J1132D01*
G02X335270Y225725I6J-200D01*
G01Y225554D01*
X334176Y224459D01*
G03X333969Y222449I1132J-1132D01*
G02X333634Y221830I-335J-219D01*
G01X279082D01*
X273244Y215991D01*
Y199436D01*
X277480Y195200D01*
X301525D01*
G02X301808Y194517I0J-400D01*
G01X301566Y194275D01*
Y192993D01*
X299938Y191365D01*
G02X299319Y191431I-283J283D01*
G03X298834Y189454I-1179J-759D01*
G02X299432Y189107I198J-347D01*
G01Y181539D01*
X299297Y181493D01*
G03X300749Y179470I417J-1233D01*
G02X301349Y179510I318J-243D01*
G01X301732Y179128D01*
G03X301875Y179000I1138J1127D01*
G02Y178371I-247J-314D01*
G03X301732Y175979I989J-1259D01*
G01X302216Y175494D01*
G02X301933Y174812I-283J-282D01*
G01X298302D01*
X295434Y171943D01*
G03X297698Y169679I1132J-1132D01*
G01X297868Y169848D01*
G02X298464Y169815I283J-283D01*
G03X299716Y169212I1252J998D01*
G01X301225D01*
G02X301552Y168582I0J-400D01*
G03X301492Y168488I1319J-908D01*
G01X301479Y168467D01*
X301320Y168309D01*
X301165Y168464D01*
X295879D01*
G03Y165260I0J-1602D01*
G01X297745D01*
G02X298139Y164791I0J-400D01*
G03X298114Y164514I1577J-282D01*
G01Y160854D01*
X301266Y157702D01*
X301834D01*
G02X302234Y157291I0J-400D01*
G03X302459Y156425I1601J-46D01*
G02X302115Y155820I-344J-205D01*
G01X297926D01*
G37*
G36*
G01X206024Y65835D02*
G03X204042Y63853I-963J-1019D01*
G02X204034Y63295I-290J-275D01*
G01X203554Y62814D01*
Y62793D01*
G02X203247Y62624I-200J0D01*
G03X201100Y61437I-745J-1188D01*
G01Y61238D01*
X197301D01*
X196339Y62200D01*
X185739D01*
G02X185357Y62717I0J400D01*
G03X180973I-2192J673D01*
G02X180591Y62200I-382J-117D01*
G01X168023D01*
G02X167641Y62717I0J400D01*
G03X163345Y62479I-2192J673D01*
G02X163161Y62200I-184J-79D01*
G01X163024D01*
X162029Y63194D01*
X160274D01*
G02X159991Y63877I0J400D01*
G01X165880Y69766D01*
X193967D01*
G02X194366Y69349I0J-400D01*
G03X196899Y68458I1401J-64D01*
G02X197504Y68505I323J-236D01*
G01X199302Y66708D01*
X206481D01*
G02X206764Y66025I0J-400D01*
G01X206582Y65843D01*
G02X206024Y65835I-283J282D01*
G37*
G36*
G01X173014Y26580D02*
X169921Y29673D01*
G03X169911Y29683I-1137J-1127D01*
G02X169880Y30220I280J286D01*
G03X169775Y32096I-1091J880D01*
G01Y32097D01*
X169633Y32238D01*
X169921Y32527D01*
G03X167657Y34791I-1132J1132D01*
G01X166202Y33337D01*
G02X165520Y33620I-282J283D01*
G01Y33929D01*
X161236Y38212D01*
X149282D01*
X149225Y38317D01*
G03X148921Y38701I-1234J-665D01*
G02X149186Y39400I265J299D01*
G01X166728D01*
G02X167125Y38961I-1J-400D01*
G03X168719Y37200I1594J-159D01*
G01X172880D01*
Y32321D01*
X176319Y28882D01*
X185462D01*
G02X185862Y28493I0J-400D01*
G03X186460Y27292I1601J48D01*
G02X186210Y26580I-250J-312D01*
G01X178252D01*
Y26780D01*
G03X175448I-1402J-1D01*
G01Y26580D01*
X173014D01*
G37*
G36*
G01X156580Y54834D02*
G02X156180Y55220I0J400D01*
G03X156177Y55278I-1401J-43D01*
G01Y55492D01*
X180476D01*
X182098Y57114D01*
X182264D01*
X183232Y56146D01*
X211896D01*
G02X212179Y55464I0J-400D01*
G01X211549Y54834D01*
X156580D01*
G37*
G36*
G01X181471Y127012D02*
X181740D01*
G02X182023Y126330I0J-400D01*
G01X172756Y117062D01*
Y113762D01*
G02X172317Y113363I-400J-1D01*
G03X172290Y113366I-168J-1391D01*
G02X171920Y113765I30J399D01*
G01Y117462D01*
X181471Y127012D01*
G37*
G36*
G01X168626Y187724D02*
G02X168044Y187706I-299J265D01*
G01X165383Y190366D01*
X157944D01*
X157666Y190645D01*
G02X157807Y190986I141J141D01*
G01X167881D01*
G02X168280Y190619I0J-400D01*
G03X170935Y190116I1397J115D01*
G01X171671D01*
Y189796D01*
X171565Y189739D01*
G03X170824Y188450I660J-1237D01*
G02X170258Y188072I-400J-14D01*
G03X168626Y187724I-581J-1276D01*
G37*
G36*
G01X239027Y114273D02*
G03X239104Y114761I-1525J491D01*
G01Y117083D01*
G02X239736Y117408I400J0D01*
G03X240643Y117109I932J1302D01*
G02X241036Y116709I-7J-400D01*
G01Y115084D01*
G03X241221Y114338I1602J1D01*
G02X240867Y113752I-354J-186D01*
G01X239408D01*
G02X239027Y114273I0J400D01*
G37*
G36*
G01X208733Y109632D02*
G02X208343Y110118I0J400D01*
G03X206006Y111435I-1369J303D01*
G02X205430Y111461I-276J290D01*
G03X203205Y111304I-1053J-926D01*
G02X202516Y111340I-334J220D01*
G03X200144Y111528I-1245J-646D01*
G02X199539Y111483I-322J237D01*
G01X199202Y111819D01*
G03X196878Y111756I-1132J-1132D01*
G02X196297Y111741I-298J267D01*
G01X196053Y111984D01*
G03X193715Y111906I-1133J-1132D01*
G01X193711Y111901D01*
X193565Y111755D01*
X193295Y112024D01*
G03X190615Y110480I-1132J-1132D01*
G02X190229Y109978I-386J-102D01*
G01X189710D01*
X189194Y110494D01*
Y111510D01*
X191339Y113656D01*
X208855D01*
X210183Y114983D01*
G02X210734Y114996I282J-283D01*
G03X212372Y114818I942J1039D01*
G02X212882Y114721I198J-347D01*
G03X215188Y116302I1093J878D01*
G02X215276Y116807I346J200D01*
G03X215716Y118273I-905J1071D01*
G02X216100Y118786I384J113D01*
G01X216148D01*
X216690Y119327D01*
X216950Y119068D01*
X216855Y118931D01*
G03X217469Y116841I1154J-796D01*
G02X217657Y116266I-155J-369D01*
G03X219184Y116904I1200J-725D01*
G02X219078Y117228I47J195D01*
G03X219098Y117252I-1067J909D01*
G02X219713Y117259I310J-252D01*
G03X219692Y119050I1068J908D01*
G02X219077Y119043I-310J252D01*
G03X217892Y119532I-1068J-908D01*
G02X217576Y120214I-33J399D01*
G01X246861Y149498D01*
X253523D01*
G03X254025Y149579I-1J1602D01*
G01X254142Y149618D01*
X254370Y149389D01*
X235900Y130919D01*
Y120355D01*
G02X235337Y119990I-400J0D01*
G03X233362Y118674I-573J-1280D01*
G02X232956Y118264I-400J-10D01*
G03X232695Y118244I-24J-1402D01*
G02X232228Y118654I-67J394D01*
G03X231064Y117328I-1401J56D01*
G02X231531Y116918I67J-394D01*
G03X231534Y116752I1401J-58D01*
G02X231216Y116329I-399J-31D01*
G03X229938Y114761I323J-1568D01*
G01Y111766D01*
X231390Y110314D01*
G02X231107Y109632I-283J-282D01*
G01X208733D01*
G37*
G36*
G01X248346Y113752D02*
G02X247992Y114338I0J400D01*
G03X248176Y115084I-1417J745D01*
G01Y116709D01*
G02X248570Y117109I400J0D01*
G03X250144Y118710I-27J1601D01*
G01Y124225D01*
X250363Y124443D01*
G02X251046Y124160I283J-283D01*
G01Y118528D01*
G03X254248I1601J0D01*
G01Y125546D01*
X257658Y128956D01*
X262605D01*
G02X263003Y128525I-1J-400D01*
G03X263468Y127269I1597J-123D01*
G01X264595Y126141D01*
G02X264312Y125458I-283J-283D01*
G01X259829D01*
X257059Y122688D01*
G03X259323Y120424I1132J-1132D01*
G01X261155Y122256D01*
X264403D01*
G02X264675Y121563I0J-400D01*
G03X266585I955J-1027D01*
G02X266857Y122256I272J293D01*
G01X280914D01*
X285100Y126442D01*
G03X285440Y126942I-1130J1134D01*
G02X286115Y127040I368J-158D01*
G03X288286Y128443I1001J833D01*
G02X288646Y129018I359J175D01*
G01X289157D01*
X289170Y128832D01*
G03X290201Y127646I1299J88D01*
G02X290402Y126972I-82J-391D01*
G01X289287Y125856D01*
G03X291551Y123592I1132J-1132D01*
G01X292203Y124243D01*
G02X292886Y123960I283J-283D01*
G01Y120160D01*
X286477Y113752D01*
X255596D01*
G02X255342Y114460I1J400D01*
G03X253556I-893J1081D01*
G02X253302Y113752I-255J-308D01*
G01X248346D01*
G37*
G36*
G01X224896Y245442D02*
X223004Y247334D01*
G02X223031Y247924I283J283D01*
G03X223468Y249432I-897J1077D01*
G02X223849Y249954I381J122D01*
G01X224036D01*
X225578Y248412D01*
Y245725D01*
G02X224896Y245442I-400J0D01*
G37*
G36*
G01X208363Y247813D02*
G03X208422Y247870I-1083J1180D01*
G01X210507Y249954D01*
X210939D01*
Y249705D01*
X210915Y249661D01*
G03X213487Y249432I1238J-659D01*
G02X213868Y249954I381J122D01*
G01X215347D01*
G02X215732Y249444I1J-400D01*
G03X216198Y247813I1539J-442D01*
G02X215930Y247116I-268J-297D01*
G01X208631D01*
G02X208363Y247813I0J400D01*
G37*
G36*
G01X276576Y136532D02*
X276738D01*
G02X276879Y136191I0J-200D01*
G01X272954Y132266D01*
X272813Y132407D01*
G03X272317Y132727I-991J-992D01*
G02X272065Y133171I142J374D01*
G03X270189Y132103I-1381J244D01*
G02X270441Y131659I-142J-374D01*
G03X270425Y131292I1381J-244D01*
G02X270027Y130858I-398J-34D01*
G01X268438D01*
X267137Y132158D01*
X259044D01*
G02X258761Y132841I0J400D01*
G01X261470Y135550D01*
X265752D01*
Y135351D01*
G03X268556I1402J1D01*
G01Y135550D01*
X272034D01*
X272585Y135000D01*
X275043D01*
X276576Y136532D01*
G37*
G36*
G01X283015Y147659D02*
G03X282849Y147439I950J-890D01*
G02X282223Y147361I-343J205D01*
G01X281543Y148040D01*
X278958D01*
X277578Y149421D01*
G02X277861Y150104I283J283D01*
G01X279514D01*
X279516Y149906D01*
G03X281707Y148967I1302J13D01*
G02X282262Y148958I273J-292D01*
G01X283005Y148215D01*
G02X283015Y147659I-283J-283D01*
G37*
G36*
G01X263500Y153989D02*
X263878Y154368D01*
X279924D01*
X280302Y153989D01*
G02X280019Y153306I-283J-283D01*
G01X263783D01*
G02X263500Y153989I0J400D01*
G37*
G36*
G01X317805Y158338D02*
X323830D01*
X330897Y165405D01*
G02X331238Y165264I141J-141D01*
G01Y165087D01*
X325598Y159447D01*
Y156352D01*
X325375Y156129D01*
X325213Y156292D01*
X325199Y156318D01*
G03X322972Y156648I-1236J-662D01*
G01X322831Y156507D01*
X321765Y157572D01*
X318005D01*
G02X317722Y158255I0J400D01*
G01X317805Y158338D01*
G37*
G36*
G01X309105Y175502D02*
Y175702D01*
G03X308584Y176792I-1402J-1D01*
G02X308552Y177386I251J311D01*
G01X308916Y177749D01*
Y177932D01*
G02X309246Y178083I200J0D01*
G03X311559Y179092I912J1065D01*
G02X311959Y179476I400J-16D01*
G01X311977D01*
X312867Y180365D01*
G02X313550Y180082I283J-283D01*
G01Y178923D01*
X310129Y175502D01*
X309105D01*
G37*
G36*
G01X325318Y179360D02*
G02X324640Y179583I-283J283D01*
G03X324266Y180395I-1584J-237D01*
G02X324387Y181014I302J262D01*
G03X323665Y184044I-722J1429D01*
G01X322048D01*
G02X321765Y184727I0J400D01*
G01X323134Y186096D01*
Y189236D01*
G03X321834Y190809I-1602J0D01*
G02X321672Y191017I38J196D01*
G03X321580Y191661I-1598J100D01*
G02X321956Y192196I376J135D01*
G01X323319D01*
G03Y195400I0J1602D01*
G01X321890D01*
G02X321491Y195766I-1J400D01*
G03X319895Y197236I-1596J-131D01*
G01X319431D01*
X319430Y197435D01*
G03X319429Y197499I-1601J7D01*
G01Y197708D01*
X319799D01*
X321068Y198977D01*
G03X321538Y200109I-1131J1133D01*
G01Y200216D01*
G03X321068Y201348I-1601J-1D01*
G01X321066Y201350D01*
G03X320991Y201422I-1146J-1119D01*
G02X320981Y201713I132J150D01*
G03X321341Y202264I-1132J1133D01*
G02X321996Y202402I373J-145D01*
G01X332677Y191721D01*
X332671Y191631D01*
G03X332716Y191174I1399J-93D01*
G02X332503Y190710I-386J-104D01*
G03X331971Y190263I608J-1263D01*
G02X331284Y190326I-325J233D01*
G03X328234Y189643I-1449J-683D01*
G01Y186444D01*
X328952Y185726D01*
G02X328928Y185138I-283J-283D01*
G03X330904Y183162I907J-1069D01*
G02X331492Y183186I305J-259D01*
G01X331806Y182872D01*
Y180148D01*
G02X331229Y179789I-400J0D01*
G03X330522Y179954I-708J-1437D01*
G01X325912D01*
X325318Y179360D01*
G37*
G36*
G01X314026Y181517D02*
X313816Y181727D01*
X313827Y181822D01*
G03X313836Y181998I-1592J170D01*
G01Y182614D01*
X319248Y188025D01*
G02X319930Y187742I282J-283D01*
G01Y187422D01*
X314026Y181517D01*
G37*
G36*
G01X258326Y190899D02*
G02X257643Y190616I-400J0D01*
G01X256104Y192155D01*
Y207019D01*
G02X256786Y207302I400J0D01*
G01X258326Y205763D01*
Y190899D01*
G37*
G36*
G01X368684Y228104D02*
Y229385D01*
X372334Y233036D01*
G03X372803Y234192I-1132J1132D01*
G01X372802Y234276D01*
X380420Y241895D01*
Y244358D01*
G03X377218I-1601J0D01*
G01Y243221D01*
X372915Y238919D01*
G02X372315Y238959I-282J283D01*
G03X372087Y239193I-1111J-855D01*
G02X372057Y239786I253J310D01*
G01X376762Y244490D01*
Y259398D01*
X370718Y265442D01*
Y265801D01*
X371016D01*
X371076Y265724D01*
G03Y267438I1109J857D01*
G01X371016Y267361D01*
X370718D01*
Y267832D01*
X371771Y268885D01*
G03X372364Y270914I-1557J1556D01*
G02X372851Y271388I391J86D01*
G03X371785Y272761I336J1361D01*
G02X371205Y272408I-400J4D01*
G03X370892Y272536I-987J-1968D01*
G02X370733Y273200I123J381D01*
G01X371816Y274283D01*
Y278438D01*
G03X368612I-1602J0D01*
G01Y275609D01*
X358583Y265579D01*
G03X360847Y263315I1132J-1132D01*
G01X365632Y268099D01*
G02X366314Y267816I282J-283D01*
G01Y263618D01*
X372358Y257574D01*
Y255493D01*
G02X371791Y255130I-400J0D01*
G03Y252586I-589J-1272D01*
G02X372358Y252223I167J-363D01*
G01Y251555D01*
G02X371791Y251192I-400J0D01*
G03Y248648I-589J-1272D01*
G02X372358Y248285I167J-363D01*
G01Y247617D01*
G02X371791Y247254I-400J0D01*
G03X370317Y244895I-588J-1272D01*
G02X370347Y244302I-253J-310D01*
G01X368050Y242006D01*
X366356D01*
X363355Y239005D01*
G02X362771Y239025I-283J283D01*
G03X360881Y239235I-1059J-919D01*
G02X360311Y239334I-238J322D01*
G03X359923Y239772I-1827J-1228D01*
G02Y240378I261J303D01*
G03X360311Y240816I-1439J1666D01*
G02X360881Y240915I332J-223D01*
G03Y243173I831J1129D01*
G02X360311Y243272I-238J322D01*
G03X360041Y243601I-1829J-1226D01*
G01X359481Y244160D01*
G02X359508Y244751I283J283D01*
G03X359616Y244850I-1027J1229D01*
G01X359972Y245205D01*
G02X360578Y245157I282J-283D01*
G03X363019Y245475I1134J825D01*
G02X363675Y245613I373J-145D01*
G01X364438Y244850D01*
G03X366702Y247114I1132J1132D01*
G01X366036Y247781D01*
G02X366169Y248435I283J283D01*
G03X366702Y251052I-599J1485D01*
G01X364106Y253648D01*
X363114D01*
Y253850D01*
G03X360310I-1402J8D01*
G01Y253648D01*
X359948D01*
X357352Y251052D01*
G03X357885Y248435I1132J-1132D01*
G02X358018Y247781I-150J-371D01*
G01X357352Y247114D01*
G03X357253Y247006I1130J-1135D01*
G02X356662Y246979I-308J256D01*
G01X350697Y252944D01*
X329817D01*
G02X329422Y253405I0J400D01*
G03X328654Y254874I-1386J211D01*
G02X328548Y255516I177J359D01*
G01X328797Y255766D01*
X338223D01*
X342527Y260070D01*
G03X342880Y260603I-1132J1133D01*
G02X343534Y260736I371J-150D01*
G01X344201Y260070D01*
G03X346465Y262334I1132J1132D01*
G01X343362Y265438D01*
X332916D01*
X329380Y261902D01*
X327502D01*
G02X327185Y262545I0J400D01*
G03X324961I-1112J854D01*
G02X324644Y261902I-317J-243D01*
G01X324110D01*
X316182Y253974D01*
G02X315500Y254257I-282J283D01*
G01Y259282D01*
X321998Y265780D01*
G03X322642Y267353I-1557J1556D01*
G02X323042Y267756I400J3D01*
G01X356515D01*
X358753Y269994D01*
X359890D01*
G03Y273196I0J1601D01*
G01X357427D01*
X355189Y270958D01*
X319419D01*
G02X319027Y271440I0J400D01*
G03X316283I-1372J288D01*
G02X315891Y270958I-392J-82D01*
G01X310702D01*
X307996Y268253D01*
G02X307314Y268536I-282J283D01*
G01Y268849D01*
X323581Y285116D01*
X330528D01*
G03X331935Y287483I0J1602D01*
G02X332286Y288074I351J191D01*
G01X371845D01*
X371897Y287953D01*
G03X374477I1290J548D01*
G01X374529Y288074D01*
X377234D01*
X378541Y286767D01*
G02X378370Y286100I-283J-283D01*
G03X377687Y285695I450J-1537D01*
G01X375262Y283271D01*
Y282561D01*
X374459Y281757D01*
G03X376723Y279493I1132J-1132D01*
G01X378466Y281235D01*
Y281945D01*
X379951Y283431D01*
G03X380356Y284114I-1132J1133D01*
G02X381023Y284285I384J-112D01*
G01X385024Y280284D01*
Y256348D01*
G02X384441Y255992I-400J0D01*
G03X382104Y254570I-736J-1422D01*
G01Y240558D01*
X369366Y227821D01*
G02X368684Y228104I-282J283D01*
G37*
G36*
G01X342503Y83844D02*
X340089Y86258D01*
Y126999D01*
G03X340238Y129395I-983J1264D01*
G01X340089Y129545D01*
Y155931D01*
X340193Y155988D01*
G03Y158452I-669J1232D01*
G01X340089Y158509D01*
Y160902D01*
G02X340657Y161265I400J0D01*
G03Y163809I589J1272D01*
G02X340089Y164172I-168J363D01*
G01Y186150D01*
X335330Y190909D01*
X335377Y191030D01*
G03X333563Y192844I-1307J507D01*
G01X333442Y192797D01*
X322624Y203615D01*
G02X322871Y204296I283J283D01*
G03X321562Y206445I-127J1396D01*
G02X321026Y206313I-337J215D01*
G03X318960Y204809I-693J-1219D01*
G02X318569Y204328I-392J-81D01*
G01X317574D01*
X317552Y204333D01*
G03X316922I-315J-1366D01*
G01X316900Y204328D01*
X312952D01*
X311386Y202762D01*
X311038D01*
Y202973D01*
X311039Y202983D01*
G03X308736Y202056I-1395J141D01*
G02X308760Y201468I-259J-305D01*
G01X303792Y196501D01*
X278019D01*
X277253Y197267D01*
X277238Y197301D01*
G03X276520Y198019I-1283J-565D01*
G01X276486Y198034D01*
X275914Y198606D01*
G02X276143Y199285I283J283D01*
G03X275169Y201835I-188J1389D01*
G02X274545Y202166I-224J331D01*
G01Y215452D01*
X279621Y220528D01*
X337601D01*
X337614Y220342D01*
G03X339400Y219093I1399J98D01*
G01X339514Y219125D01*
X342125Y216514D01*
X342136Y216497D01*
G03X342599Y216034I1340J877D01*
G01X342616Y216023D01*
X350001Y208638D01*
Y208583D01*
X358138Y200446D01*
X358142D01*
X368082Y190506D01*
X368052Y190394D01*
G03X369771Y188675I1353J-366D01*
G01X369883Y188705D01*
X372783Y185805D01*
Y177603D01*
G02X372343Y177205I-400J0D01*
G03Y174415I-142J-1395D01*
G02X372783Y174017I40J-398D01*
G01Y160541D01*
X379166Y154158D01*
Y129846D01*
G02X378971Y129647I-200J1D01*
G03Y126843I35J-1402D01*
G02X379166Y126644I-5J-200D01*
G01Y106846D01*
G02X378971Y106647I-200J1D01*
G03Y103843I35J-1402D01*
G02X379166Y103644I-5J-200D01*
G01Y86266D01*
X376744Y83844D01*
X342503D01*
G37*
G36*
G01X372484Y187944D02*
X370763Y189665D01*
X370783Y189769D01*
G03X369146Y191406I-1378J259D01*
G01X369042Y191386D01*
X358681Y201748D01*
X358677D01*
X351302Y209122D01*
Y209177D01*
X344703Y215777D01*
G02X344684Y216322I283J283D01*
G03X345078Y217374I-1207J1052D01*
G01Y218442D01*
G02X345453Y218842I400J1D01*
G03X346487Y219308I-98J1598D01*
G01X355172Y227992D01*
X363219D01*
X364798Y229571D01*
G02X365480Y229288I282J-283D01*
G01Y212441D01*
X368093Y209829D01*
G03X370357Y212093I1132J1132D01*
G01X368684Y213767D01*
Y214357D01*
G02X369365Y214641I400J0D01*
G03X372094Y215779I1127J1138D01*
G01Y226019D01*
X384342Y238267D01*
G02X385024Y237984I282J-283D01*
G01Y234973D01*
X372826Y222774D01*
Y191366D01*
X372705Y191314D01*
G03Y188742I558J-1286D01*
G01X372826Y188690D01*
Y188086D01*
G02X372484Y187944I-200J0D01*
G37*
%LPC*%
G75*
G36*
G01X278850Y9906D02*
G02X273124I-2863J0D01*
G01Y12268D01*
G02X278850I2863J0D01*
G01Y9906D01*
G37*
G36*
G01X312866D02*
G02X307140I-2863J0D01*
G01Y12268D01*
G02X312866I2863J0D01*
G01Y9906D01*
G37*
G36*
G01X232102D02*
G02X226374I-2864J0D01*
G01Y12268D01*
G02X232102I2864J0D01*
G01Y9906D01*
G37*
G36*
G01X266118D02*
G02X260390I-2864J0D01*
G01Y12268D01*
G02X266118I2864J0D01*
G01Y9906D01*
G37*
G36*
G01X25974Y220340D02*
G02Y226066I0J2863D01*
G01X29124D01*
G02Y220340I0J-2863D01*
G01X25974D01*
G37*
G36*
G01X9910D02*
G02Y226066I0J2863D01*
G01X12274D01*
G02Y220340I0J-2863D01*
G01X9910D01*
G37*
G36*
G01X162138Y30105D02*
G03Y29536I282J-285D01*
G02X160164I-987J-995D01*
G03Y30105I-282J284D01*
G02Y32095I987J995D01*
G03Y32664I-282J284D01*
G02X162138I987J995D01*
G03Y32095I282J-284D01*
G02Y30105I-987J-995D01*
G37*
G36*
G01Y19205D02*
G03Y18636I282J-285D01*
G02X160164I-987J-995D01*
G03Y19205I-282J284D01*
G02X162138I987J995D01*
G37*
G36*
G01X35269Y226891D02*
G02X35231Y228394I-1202J722D01*
G03X35906Y228411I332J223D01*
G02X35944Y226908I1202J-722D01*
G03X35269Y226891I-332J-223D01*
G37*
G36*
G01X312100Y313684D02*
G02Y310480I0J-1602D01*
G01X308163D01*
G02Y313684I0J1602D01*
G01X312100D01*
G37*
G36*
G01X329018Y325958D02*
G02X323292I-2863J0D01*
G01Y328320D01*
G02X329018I2863J0D01*
G01Y325958D01*
G37*
G36*
G01X295002D02*
G02X289276I-2863J0D01*
G01Y328320D01*
G02X295002I2863J0D01*
G01Y325958D01*
G37*
G36*
G01X79741Y225470D02*
G03X79190Y225261I-180J-357D01*
G02X78518Y227034I-1302J520D01*
G03X79069Y227243I180J357D01*
G02X79741Y225470I1302J-520D01*
G37*
G36*
G01X110227Y203841D02*
G03X110152Y204412I-313J249D01*
G02X112081Y204665I833J1127D01*
G03X112156Y204094I313J-249D01*
G02X110227Y203841I-833J-1127D01*
G37*
G36*
G01X391659Y317479D02*
G02X391115Y318902I-1371J291D01*
G03X391742Y319142I236J323D01*
G02X392286Y317719I1371J-291D01*
G03X391659Y317479I-236J-323D01*
G37*
G36*
G01X295002Y309107D02*
G02X289276I-2863J0D01*
G01Y312257D01*
G02X289991Y314150I2863J0D01*
G03X289822Y314792I-300J264D01*
G02X291603Y315650I459J1325D01*
G03X291999Y315117I377J-133D01*
G02X295002Y312257I140J-2860D01*
G01Y309107D01*
G37*
G36*
G01X79290Y228996D02*
G02X78418Y230307I-1402J13D01*
G03X78969Y230674I151J370D01*
G02X79841Y229363I1402J-13D01*
G03X79290Y228996I-151J-370D01*
G37*
G36*
G01X105296Y203934D02*
G02X103615Y204201I-1015J-967D01*
G03X103714Y204829I-190J352D01*
G02X105395Y204562I1015J967D01*
G03X105296Y203934I190J-352D01*
G37*
G36*
G01X228033Y57708D02*
X246370Y76046D01*
X251811D01*
G02Y72842I0J-1602D01*
G01X247696D01*
X230297Y55444D01*
G02X228033Y57708I-1132J1132D01*
G37*
G36*
G01X311763Y135498D02*
G03X311558Y135310I-6J-200D01*
G02X310194Y136791I-1400J79D01*
G03X310399Y136979I6J200D01*
G02X311763Y135498I1400J-79D01*
G37*
G36*
G01X65258Y188818D02*
Y176862D01*
X67316Y174804D01*
G02X64202Y171690I-1557J-1557D01*
G01X60854Y175038D01*
Y190642D01*
X63449Y193237D01*
G02X66563Y190123I1557J-1557D01*
G01X65258Y188818D01*
G37*
G36*
G01X183956Y166308D02*
G03X184146Y165796I369J-154D01*
G02X182227Y165081I-625J-1255D01*
G03X182037Y165593I-369J154D01*
G02X183956Y166308I625J1255D01*
G37*
G36*
G01X125427Y132590D02*
G03X124745Y132272I-283J-283D01*
G02X122018Y130999I-1595J-141D01*
G01X119726Y133290D01*
Y143827D01*
G03X119527Y144027I-200J0D01*
G02Y146831I1J1402D01*
G03X119726Y147031I-1J200D01*
G01Y147460D01*
G03X119336Y147860I-400J0D01*
G02Y150664I31J1402D01*
G03X119726Y151064I-10J400D01*
G01Y166784D01*
X111145Y175366D01*
X110008D01*
G02Y178568I0J1601D01*
G01X111842D01*
G03X112125Y179251I0J400D01*
G01X109962Y181414D01*
X108825D01*
G02Y184618I0J1602D01*
G01X111288D01*
X125972Y169934D01*
Y136574D01*
X129282Y133263D01*
G02X127018Y130999I-1132J-1132D01*
G01X125427Y132590D01*
G37*
G36*
G01X83025Y121281D02*
G02X81051I-987J-995D01*
G03Y121850I-282J284D01*
G02Y123841I987J995D01*
G03Y124409I-281J284D01*
G02X81081Y126429I987J996D01*
G03X80808Y127122I-273J293D01*
G01X64755D01*
X58041Y133835D01*
G03X57381Y133684I-283J-283D01*
G02X55595Y135470I-1324J462D01*
G03X55746Y136130I-132J377D01*
G01X54925Y136952D01*
G02X57189Y139216I1132J1132D01*
G01X66081Y130324D01*
X80636D01*
Y130524D01*
G02X81051Y131518I1402J-2D01*
G03Y132087I-282J285D01*
G02X83025I987J995D01*
G03Y131518I282J-284D01*
G02X83440Y130524I-987J-996D01*
G01Y130324D01*
X96027D01*
X96855Y131153D01*
G03X96583Y131835I-283J282D01*
G02X95217Y133257I36J1402D01*
G01Y133460D01*
X93220D01*
X83434Y143246D01*
Y157176D01*
X81934Y158676D01*
G02X84198Y160940I1132J1132D01*
G01X86636Y158502D01*
Y155978D01*
G03X87029Y155578I400J0D01*
G02Y152774I-25J-1402D01*
G03X86636Y152374I7J-400D01*
G01Y144572D01*
X94546Y136662D01*
X99836D01*
G02X101104Y136040I1J-1601D01*
G03X101703Y136001I317J244D01*
G01X108642Y142939D01*
Y147273D01*
G02X111844I1601J0D01*
G01Y141613D01*
X99877Y129645D01*
G03X99907Y129052I283J-283D01*
G02X97935Y127080I-884J-1088D01*
G03X97354Y127122I-310J-253D01*
G01X83268D01*
G03X82995Y126429I0J-400D01*
G02X83025Y124409I-957J-1024D01*
G03Y123841I281J-284D01*
G02Y121850I-987J-996D01*
G03Y121281I282J-284D01*
G37*
G36*
G01X117560Y138050D02*
G02X116198I-681J-1225D01*
G03Y138750I-194J350D01*
G02X117560I681J1225D01*
G03Y138050I194J-350D01*
G37*
G36*
G01X109138Y162062D02*
G02X108460Y160869I724J-1201D01*
G03X107853Y161214I-400J2D01*
G02X108531Y162407I-724J1201D01*
G03X109138Y162062I400J-2D01*
G37*
G36*
G01X184425Y172103D02*
G02X183517Y170999I478J-1318D01*
G03X182986Y171436I-395J61D01*
G02X183894Y172540I-478J1318D01*
G03X184425Y172103I395J-61D01*
G37*
G36*
G01X97189Y149398D02*
X94726D01*
X91310Y152814D01*
Y158006D01*
G03X90917Y158406I-400J0D01*
G02X90011Y160857I25J1402D01*
G03X90029Y161438I-265J299D01*
G01X89546Y161922D01*
Y162032D01*
G03X89162Y162432I-400J0D01*
G02Y165234I56J1401D01*
G03X89546Y165634I-16J400D01*
G01Y183240D01*
X86270Y186515D01*
Y187766D01*
G03X85740Y188144I-400J0D01*
G02X86125Y190589I-459J1325D01*
G03X86666Y190645I240J319D01*
G02X89317Y190281I1206J-1054D01*
G03X90013Y190235I361J173D01*
G02X92030Y190589I1174J-766D01*
G03X92572Y190645I241J320D01*
G02X92645Y190723I1205J-1054D01*
G01X95116Y193194D01*
X98408D01*
X102662Y188941D01*
Y156639D01*
X103491Y155809D01*
G03X104166Y156010I283J283D01*
G02X105487Y157124I1372J-287D01*
G03X105813Y157734I-14J400D01*
G02X107057Y157070I1193J737D01*
G03X106731Y156460I14J-400D01*
G02X105470Y154323I-1193J-737D01*
G01X105382Y154327D01*
X105178Y154123D01*
X105595Y153705D01*
G02X103331Y151441I-1132J-1132D01*
G01X100169Y154602D01*
G03X99486Y154319I-283J-283D01*
G01Y153474D01*
G02X98788Y152151I-1601J-1D01*
G03X98649Y151657I226J-330D01*
G02X97189Y149398I-1460J-658D01*
G37*
G36*
G01X196033Y273504D02*
X197294Y274764D01*
X206053D01*
G02Y271562I0J-1601D01*
G01X198620D01*
X196484Y269426D01*
X192726D01*
Y269226D01*
G02X189922I-1402J0D01*
G01Y269426D01*
X182574D01*
X181104Y267956D01*
G02X178487Y268489I-1132J1132D01*
G03X177833Y268622I-371J-150D01*
G01X177166Y267956D01*
G02X174902Y270220I-1132J1132D01*
G01X179446Y274764D01*
X193849D01*
G02X195371Y273662I0J-1602D01*
G03X196033Y273504I380J125D01*
G37*
G36*
G01X269560Y262060D02*
G03X269889Y261650I400J-16D01*
G02X268241Y260325I-247J-1380D01*
G03X267912Y260735I-400J16D01*
G02X269560Y262060I247J1380D01*
G37*
G36*
G01X171222Y249977D02*
G02X171053Y248238I1007J-976D01*
G03X170430Y248299I-336J-217D01*
G02X170599Y250038I-1007J976D01*
G03X171222Y249977I336J217D01*
G37*
G36*
G01X264818Y243100D02*
G02X263227Y242884I-641J-1247D01*
G03X263139Y243534I-271J294D01*
G02X262547Y244114I641J1247D01*
G03X261933Y244225I-352J-191D01*
G02X259613Y245221I-919J1059D01*
G03X259102Y245587I-399J-18D01*
G02X260111Y246996I-392J1346D01*
G03X260622Y246630I399J18D01*
G02X262247Y245951I392J-1346D01*
G03X262861Y245840I352J191D01*
G02X264730Y243750I920J-1058D01*
G03X264818Y243100I271J-294D01*
G37*
G36*
G01X212691Y240930D02*
G02Y242292I-1225J681D01*
G03X213391I350J194D01*
G02Y240930I1225J-681D01*
G03X212691I-350J-194D01*
G37*
G36*
G01X220618Y213018D02*
G02X217414I-1602J0D01*
G01Y214620D01*
G03X216817Y214968I-400J0D01*
G02X215044Y215294I-692J1219D01*
G03X214375Y215211I-308J-255D01*
G02X214191Y216708I-1265J604D01*
G03X214860Y216791I308J255D01*
G02X215589Y217482I1265J-604D01*
G03X215718Y218135I-153J370D01*
G01X214240Y219614D01*
X206393D01*
X205698Y218918D01*
G03X205816Y218272I283J-282D01*
G02X203835Y217037I-580J-1277D01*
G03X203435Y217448I-400J11D01*
G01X203100D01*
G03X202700Y217037I0J-400D01*
G02X199898I-1401J-42D01*
G03X199498Y217448I-400J11D01*
G01X199163D01*
G03X198763Y217037I0J-400D01*
G02X195961I-1401J-42D01*
G03X195561Y217448I-400J11D01*
G01X194481D01*
G03X194129Y216857I-1J-400D01*
G02X191667I-1231J-670D01*
G03X191315Y217448I-351J191D01*
G01X190543D01*
G03X190191Y216857I-1J-400D01*
G02X187729I-1231J-670D01*
G03X187377Y217448I-351J191D01*
G01X186605D01*
G03X186253Y216857I-1J-400D01*
G02X183791I-1231J-670D01*
G03X183439Y217448I-351J191D01*
G01X182667D01*
G03X182315Y216857I-1J-400D01*
G02X179853I-1231J-670D01*
G03X179501Y217448I-351J191D01*
G01X162389D01*
X160958Y216018D01*
G02X158694Y218282I-1132J1132D01*
G01X161063Y220652D01*
X202902D01*
X205067Y222816D01*
X209680D01*
G03X210077Y223270I0J400D01*
G02X212691Y224138I1389J186D01*
G03X213391I350J194D01*
G02X215709Y224335I1225J-681D01*
G03X216288Y224288I312J251D01*
G02X217429Y221857I936J-1044D01*
G03X217204Y221179I58J-396D01*
G01X220190Y218193D01*
X220331Y218314D01*
G02X221068Y215859I913J-1064D01*
G03X220618Y215462I-50J-397D01*
G01Y213018D01*
G37*
G36*
G01X282240Y118818D02*
G02Y120180I-1225J681D01*
G03X282940I350J194D01*
G02Y118818I1225J-681D01*
G03X282240I-350J-194D01*
G37*
G36*
G01X379951Y271617D02*
X377192Y268858D01*
Y264873D01*
G02X373990I-1601J0D01*
G01Y270184D01*
X377687Y273881D01*
G02X379951Y271617I1132J-1132D01*
G37*
G36*
G01X327124Y282712D02*
X356156D01*
X361022Y277845D01*
G02X358758Y275581I-1132J-1132D01*
G01X354830Y279508D01*
X328450D01*
X321728Y272787D01*
G02X319464Y275051I-1132J1132D01*
G01X327124Y282712D01*
G37*
G54D51*
X306013Y131023D03*
X294597Y186786D03*
X287500Y177495D03*
X287116Y170811D03*
X280818D03*
X277752Y170896D03*
X288058Y165628D03*
X283966Y164514D03*
X277669Y167663D03*
Y164514D03*
X295914Y162938D03*
X277669Y180260D03*
Y183410D03*
X280818Y186559D03*
Y183410D03*
Y180260D03*
Y177111D03*
X277669D03*
G54D38*
X13400Y101400D03*
Y91400D03*
Y81400D03*
Y121400D03*
Y111400D03*
X23400Y101400D03*
Y91400D03*
Y121400D03*
Y111400D03*
X239529Y299950D03*
Y309793D03*
X258033D03*
X247797D03*
X266301Y299950D03*
Y309793D03*
X433107Y139394D03*
X433114Y179708D03*
G54D49*
X394554Y240200D03*
X422113D03*
X394554Y280500D03*
X422113D03*
G54D39*
X11249Y69613D03*
X7907Y34091D03*
X19086Y46940D03*
X8388Y49734D03*
X7779Y171383D03*
X6045Y125316D03*
X10671Y136110D03*
X16765Y147424D03*
X11428D03*
X16765Y151217D03*
Y143631D03*
X6623Y193356D03*
X6045Y212438D03*
X4695Y199138D03*
X16765Y204733D03*
Y212319D03*
X11428Y208526D03*
X67530Y9063D03*
X27632Y25482D03*
X95091Y22362D03*
X91329Y17025D03*
X33989Y22362D03*
Y11688D03*
X30227Y17025D03*
X37751D03*
X100602Y4355D03*
X87961Y34312D03*
X66567Y36047D03*
X26476Y69420D03*
X21014Y56578D03*
X29366Y40001D03*
X24226Y32934D03*
X46718Y93753D03*
X33989Y51058D03*
X30620Y55214D03*
X33989Y59370D03*
X51311Y54601D03*
X38481Y101413D03*
X38682Y93753D03*
X28981Y184104D03*
X25126Y174274D03*
X28596Y130713D03*
X30138Y137073D03*
X33859Y148372D03*
X45498Y217681D03*
X32258Y215136D03*
X27825Y195283D03*
X41046Y227689D03*
X39512Y248360D03*
X44368Y242180D03*
X22102Y208526D03*
X33859Y207428D03*
X139898Y11618D03*
X122530Y22371D03*
X138384Y5532D03*
X148472Y11538D03*
X103282Y8117D03*
Y24475D03*
X105686Y4355D03*
Y20713D03*
X144534Y11538D03*
X121410Y12224D03*
X138246Y17553D03*
X144534Y17170D03*
X148472D03*
X166128Y5916D03*
X139029Y27634D03*
X106178Y28838D03*
Y32776D03*
X123106Y31746D03*
X106178Y36714D03*
X111810Y32776D03*
X105962Y43137D03*
X158009Y29595D03*
X144343Y31746D03*
X147992Y33714D03*
X256107Y8148D03*
X251107D03*
X246107D03*
X241107D03*
X236107D03*
Y13148D03*
X241107D03*
X246107D03*
X251107D03*
X256107D03*
Y18148D03*
X251107D03*
X246107D03*
X241107D03*
X236107D03*
X182486Y5916D03*
X412926Y7506D03*
X411385Y25238D03*
X6200Y272271D03*
X6166Y298665D03*
X98725Y204542D03*
X60281Y207428D03*
X80371Y234599D03*
Y222785D03*
X72810Y231183D03*
X61896Y235201D03*
X56896D03*
Y240201D03*
X61896D03*
Y245201D03*
X56896D03*
X57312Y217681D03*
X53374D03*
X69142Y255441D03*
X57973Y266551D03*
X80371Y218847D03*
X99442Y226723D03*
X71546Y252213D03*
X77453Y243738D03*
Y237484D03*
X77888Y255441D03*
X88407Y218847D03*
X71555Y237484D03*
X52527Y259888D03*
X31808Y318715D03*
X81242Y324149D03*
X64106Y316825D03*
X63527Y329353D03*
X35965D03*
X55457Y298651D03*
X51631Y272183D03*
X51519Y298651D03*
X45729Y279226D03*
X41967Y283776D03*
X25078Y279226D03*
X21316Y283776D03*
X45593Y305686D03*
X41831Y310236D03*
X21316D03*
X25078Y305686D03*
X56591Y278290D03*
X70780Y304469D03*
X55457Y293019D03*
X83300Y304728D03*
X57973Y269779D03*
X61799Y296247D03*
X78654Y285164D03*
X116879Y204542D03*
X120661Y314861D03*
X170694Y328662D03*
X130024Y332325D03*
X149106Y323378D03*
X102462Y312970D03*
X102655Y326655D03*
X180103Y314917D03*
X169423D03*
X161585D03*
X153961D03*
X145055D03*
X135268D03*
X124421Y287725D03*
X120013Y283317D03*
Y276533D03*
Y271959D03*
X129561Y309210D03*
X125981Y305630D03*
Y299826D03*
X107584Y281253D03*
X205728Y313711D03*
X225388Y303689D03*
X243166Y322109D03*
X210978Y333288D03*
X195751Y323073D03*
X185549Y286859D03*
Y295551D03*
Y305171D03*
X238085Y283230D03*
X334594Y71539D03*
X281140Y69835D03*
X295917Y47960D03*
X268923Y51145D03*
X327873Y63649D03*
X332873D03*
X337873D03*
X342873D03*
X309022Y63264D03*
X304022D03*
X299022D03*
X294022D03*
X276658Y309856D03*
X313133Y331939D03*
X266681Y332903D03*
X287766Y286718D03*
X311116Y295590D03*
X304147Y284041D03*
X309147D03*
X314147Y288041D03*
X309147D03*
X304147D03*
X267745Y287168D03*
X296549Y304164D03*
X321745D03*
X317296Y299888D03*
X296625Y298354D03*
X294043Y321454D03*
X412926Y53186D03*
X418770Y102841D03*
X414832D03*
X418770Y79841D03*
X414832D03*
X395945Y46413D03*
Y50351D03*
Y54289D03*
Y58227D03*
X375778Y67675D03*
X386006Y66613D03*
Y89613D03*
X400090Y77200D03*
Y70900D03*
X393790Y77200D03*
X396940Y74050D03*
X393790Y70900D03*
X400099Y93913D03*
Y100213D03*
X393799Y93913D03*
X396949Y97063D03*
X393799Y100213D03*
X380577Y37187D03*
X347873Y63649D03*
X352873D03*
X357873Y59257D03*
X370868Y65680D03*
X366931D03*
X362994D03*
X359057D03*
Y69617D03*
X362994D03*
X366931D03*
X370868D03*
Y73554D03*
X366931D03*
X362994D03*
X359057D03*
X415239Y164977D03*
X418770Y125841D03*
X414832D03*
X386006Y112613D03*
X400088Y116931D03*
X393788D03*
X396938Y120081D03*
X400088Y123231D03*
X393788D03*
X415093Y185610D03*
Y181752D03*
X415091Y145646D03*
X400766Y159667D03*
X388611Y171518D03*
X395269D03*
X415091Y141788D03*
X395823Y144940D03*
X395314Y184954D03*
X383491Y149588D03*
X410123Y215691D03*
X413119Y198128D03*
X407530Y226654D03*
X417957Y225830D03*
X417563Y254570D03*
X417957Y266130D03*
X422113Y248642D03*
X400727Y199549D03*
X422507Y231758D03*
X395269Y211244D03*
X388611D03*
X381160Y189632D03*
X403718Y310816D03*
X401116Y304697D03*
X397178D03*
X393240D03*
X389302D03*
X404045Y324008D03*
X406036Y326983D03*
Y321033D03*
X408027Y324008D03*
X386373D03*
X384382Y321033D03*
Y326983D03*
X382391Y324008D03*
X369366Y310242D03*
X412541Y280623D03*
X347621Y321454D03*
X355145D03*
X351383Y316117D03*
X344684Y322886D03*
X397305Y291913D03*
X369662Y326960D03*
X369698Y296129D03*
X354684Y300096D03*
X394077Y289509D03*
X397305Y273343D03*
X396193Y320306D03*
X402099Y317770D03*
X354684Y327239D03*
X359684D03*
X344684Y295743D03*
X349684D03*
X422113Y288942D03*
X417563Y294870D03*
X422507Y272058D03*
X398162Y317770D03*
X430659Y46247D03*
X427625Y174621D03*
X433165Y158231D03*
X432514Y238150D03*
X431430Y209885D03*
X433550Y260577D03*
X435020Y289997D03*
X432996Y302125D03*
X239018Y74443D03*
X224400Y62200D03*
X233386Y78381D03*
X221996Y72514D03*
X262500Y99140D03*
Y94460D03*
X257500Y99140D03*
Y94460D03*
X252500Y99140D03*
Y94460D03*
X247500Y99140D03*
Y94460D03*
X242500Y99140D03*
X294022Y94864D03*
X299022D03*
X267500Y99140D03*
Y94460D03*
X327873Y95257D03*
X332873D03*
X318227Y143125D03*
X317237Y136825D03*
X310158Y142475D03*
Y123149D03*
X64150Y101461D03*
X60506Y97561D03*
X68860Y106121D03*
X66447Y87591D03*
X74440Y89986D03*
X71391Y177185D03*
X67910Y115168D03*
X52829Y126270D03*
X56057Y114456D03*
Y118394D03*
Y122332D03*
Y130208D03*
X93391Y117572D03*
X70403Y190501D03*
X119218Y63918D03*
X144145Y82971D03*
X128007Y72971D03*
X158287Y100143D03*
X109102Y102487D03*
Y87451D03*
X161515Y97739D03*
X138264Y173234D03*
X140064Y121381D03*
X142468Y115039D03*
X169677Y164996D03*
Y161058D03*
Y168934D03*
X111590Y138400D03*
X104643Y183896D03*
X161440Y114077D03*
X105604Y169144D03*
X110029Y169242D03*
X158212Y114124D03*
X170288Y176151D03*
X167802Y135352D03*
X171845Y137321D03*
X172439Y133384D03*
X140188Y195442D03*
X126016Y193038D03*
X133102D03*
X143416D03*
X138277Y202615D03*
X113467Y226921D03*
X121155Y198656D03*
X107401Y195612D03*
X200730Y159455D03*
X205784Y157645D03*
X199928Y155430D03*
X203189Y153630D03*
X205340Y150448D03*
X196177Y136152D03*
X191232Y132544D03*
X185654Y161207D03*
X189797Y163180D03*
X193696Y162334D03*
X192923Y157878D03*
X169677Y201668D03*
X182210Y249002D03*
X152267D03*
X117461D03*
X142286D03*
X132305D03*
X122324D03*
X112343D03*
X102362D03*
X157385D03*
X165430Y246216D03*
X137423Y249002D03*
X127442D03*
X177347D03*
X199331Y213018D03*
X195394D03*
X230301Y216187D03*
X226363D03*
X251847Y262576D03*
X220160Y269226D03*
X225984Y266033D03*
X209891Y236055D03*
X216191D03*
X192191Y249002D03*
X202172D03*
X232115D03*
X255355Y246869D03*
X203268Y213018D03*
X208673Y216985D03*
X207205Y213018D03*
X211142D03*
X231616Y277099D03*
X214528Y275568D03*
X270323Y159930D03*
X271011Y229238D03*
X270323Y196736D03*
Y200674D03*
X271386Y209437D03*
X297237Y265803D03*
X276438Y255498D03*
X273210Y235025D03*
X285542Y193076D03*
X263272Y266869D03*
X297634Y226140D03*
X290509Y229318D03*
X267034Y274419D03*
X298942Y270691D03*
X199943Y64816D03*
X222795Y115541D03*
X226733D03*
X342252Y276500D03*
X349271Y263606D03*
X353209D03*
X346152Y272856D03*
X342873Y98485D03*
Y95257D03*
X309644Y209466D03*
X285737Y207062D03*
X295807Y203063D03*
X313727Y216021D03*
X330735Y203351D03*
X322744Y209630D03*
X306416Y207062D03*
X277237Y215235D03*
X292508Y199737D03*
X285737Y203125D03*
X292754Y207035D03*
X330369Y199377D03*
X375778Y90675D03*
X357873Y98485D03*
X352873D03*
X347873D03*
X367192Y105245D03*
X371130D03*
X375068D03*
X357873Y103879D03*
X352873D03*
X347873D03*
X352873Y95257D03*
X357873D03*
X347873D03*
X357873Y139379D03*
X352873D03*
X360277Y165859D03*
Y159071D03*
X367545Y111077D03*
X375778Y113675D03*
X375068Y128245D03*
X371130D03*
X347873Y145011D03*
X360277Y152319D03*
X357873Y145011D03*
X356776Y169812D03*
X367192Y128245D03*
X362239Y181406D03*
X352279Y121050D03*
X356216D03*
X360153D03*
X364090D03*
Y117113D03*
X360153D03*
X356216D03*
X352279D03*
Y113176D03*
X356216D03*
X360153D03*
X364090D03*
X356368Y162537D03*
X366177Y179748D03*
X369405Y147664D03*
X373263D03*
X371809Y133446D03*
X359835Y175774D03*
X345375Y202635D03*
X353231Y220440D03*
X359605Y223686D03*
G54D42*
X377369Y22020D03*
X385243D03*
X393117D03*
G54D45*
X87512Y287321D03*
X69796D03*
X354785Y181623D03*
G54D37*
X40377Y168057D03*
Y187743D03*
G54D41*
X25462Y228794D03*
X304412Y25457D03*
X281578D03*
X297730Y312769D03*
X320564D03*
X257663Y25457D03*
X234829D03*
G54D46*
X172403Y302931D03*
X163387D03*
X154371D03*
X145355D03*
X136340D03*
X167895Y295136D03*
X158879D03*
X149863D03*
X140847D03*
X131832D03*
X172403Y287341D03*
X163387D03*
X154371D03*
X145355D03*
X136340D03*
G54D35*
X15426Y189983D03*
Y158487D03*
G54D36*
X76548Y15686D03*
X45052D03*
X332840Y322793D03*
X301344D03*
G54D48*
X325719Y44106D03*
X355619D03*
G54D47*
X225946Y322698D03*
X252915Y326628D03*
X279884Y322698D03*
G54D40*
X23400Y81400D03*
X433107Y147268D03*
X433114Y187582D03*
G54D33*
X26149Y239226D03*
G54D44*
X105162Y295136D03*
X203588D03*
G54D34*
X15000Y15000D03*
X425000D03*
X15000Y323400D03*
X425000D03*
G54D43*
X326155Y310682D03*
G54D50*
X229238Y27544D03*
%LPD*%
G75*
G36*
G01X95661Y160972D02*
G03X94733Y161202I-781J-1164D01*
G01X94723Y161201D01*
X94512D01*
Y161484D01*
X93909Y162088D01*
G02X93944Y162685I283J283D01*
G03X93132Y165187I-868J1101D01*
G02X92748Y165587I16J400D01*
G01Y184566D01*
X89474Y187841D01*
Y188235D01*
G02X90165Y188509I400J0D01*
G03X92132Y188433I1022J960D01*
G02X92676Y188428I269J-296D01*
G03X94238Y188057I1101J1163D01*
G02X94752Y187674I114J-383D01*
G01Y186978D01*
X94336Y186561D01*
Y184102D01*
X96284Y182154D01*
Y181470D01*
X95848D01*
G03X94716Y181000I1J-1601D01*
G01X93916Y180200D01*
G03X93446Y179068I1131J-1133D01*
G01Y177468D01*
G03X93916Y176336I1601J1D01*
G01X94716Y175536D01*
G03X95848Y175066I1133J1131D01*
G01X96284D01*
Y161305D01*
G02X95661Y160972I-400J-1D01*
G37*
G36*
G01X96052Y152600D02*
X94512Y154140D01*
Y158006D01*
G02X94905Y158406I400J0D01*
G03X95661Y158644I-26J1402D01*
G02X96284Y158311I223J-332D01*
G01Y153474D01*
G03X96400Y152875I1601J-1D01*
G01X96414Y152839D01*
Y152600D01*
X96052D01*
G37*
G54D10*
X15000Y15000D03*
Y323400D03*
X425000Y15000D03*
Y323400D03*
G54D20*
X105162Y295136D03*
X203588D03*
G54D11*
X13400Y101400D03*
Y91400D03*
Y81400D03*
Y121400D03*
Y111400D03*
X23400Y101400D03*
Y91400D03*
Y121400D03*
Y111400D03*
X239529Y299950D03*
Y309793D03*
X247797D03*
X266301Y299950D03*
Y309793D03*
X258033D03*
X433107Y139394D03*
X433114Y179708D03*
G54D30*
G01X219927Y201246D02*
X174555D01*
X174540Y201231D01*
X172740D01*
G01X164045Y201668D02*
X166730Y204353D01*
X171240D01*
X172740Y202853D01*
Y201231D01*
G01X182508Y194407D02*
X180358D01*
X179689Y193738D01*
X171865D01*
G01X153929Y197730D02*
X164045D01*
G01Y201668D02*
Y197730D01*
G01X157441Y219879D02*
X159381Y221819D01*
X181084D01*
G01X164045Y217046D02*
X167604Y213487D01*
X183703D01*
G01X192898Y221819D02*
X188960D01*
G01D02*
X185022D01*
G01D02*
X181084D01*
G01X183703Y213487D02*
X189224D01*
X189488Y213223D01*
X191288D01*
G01X213041Y229013D02*
X215939Y226115D01*
X220169D01*
X224465Y221819D01*
X226363D01*
G01X191288Y213223D02*
X194346Y210165D01*
X226005D01*
X228858Y213018D01*
G01X182508Y194407D02*
X184160Y196059D01*
X227414D01*
X233035Y201680D01*
G01X192898Y221819D02*
X201650D01*
X205089Y225258D01*
X209286D01*
X213041Y229013D01*
G54D21*
X229238Y11087D03*
X310003D03*
X275987D03*
X263254D03*
X292139Y327139D03*
X326155D03*
G54D12*
X11249Y69613D03*
X7907Y34091D03*
X8388Y49734D03*
X7779Y171383D03*
X6045Y125316D03*
X10671Y136110D03*
X11428Y147424D03*
X6623Y193356D03*
X6045Y212438D03*
X4695Y199138D03*
X11428Y208526D03*
X8125Y230590D03*
Y235590D03*
Y240590D03*
Y245590D03*
Y250590D03*
X13125D03*
Y245590D03*
Y240590D03*
Y235590D03*
Y230590D03*
X6166Y290629D03*
X6200Y264235D03*
Y272271D03*
X6166Y298665D03*
X67530Y9063D03*
X91329Y17025D03*
X33989Y11688D03*
X30227Y17025D03*
X37751D03*
X87961Y34312D03*
X66567Y36047D03*
X55003Y81326D03*
X26476Y69420D03*
X27632Y25482D03*
X21014Y56578D03*
X29366Y40001D03*
X24226Y32934D03*
X19086Y46940D03*
X87278Y81327D03*
X79754D03*
X83516Y84007D03*
Y78647D03*
Y93683D03*
Y99043D03*
X79754Y96363D03*
X46718Y93753D03*
X33989Y22362D03*
Y51058D03*
X91784D03*
X88415Y55214D03*
X91784Y59370D03*
X30620Y55214D03*
X33989Y59370D03*
X51311Y54601D03*
X76903Y63220D03*
X80841D03*
X87278Y96363D03*
X60506Y97561D03*
X66447Y87591D03*
X85960Y63043D03*
X89860Y66687D03*
X38682Y93753D03*
X51555Y97564D03*
X47105Y99444D03*
X74440Y89986D03*
X68634Y54601D03*
X64304D03*
X58046Y68788D03*
X60611Y54470D03*
X25126Y174274D03*
X28596Y130713D03*
X30138Y137073D03*
X16765Y147424D03*
X77299Y138161D03*
X68851D03*
X63584D03*
X65759Y159258D03*
X62755Y149371D03*
X62763Y140782D03*
X82136Y149830D03*
Y144331D03*
X53203Y159590D03*
X16765Y151217D03*
Y143631D03*
X65759Y165371D03*
Y169309D03*
Y177185D03*
X93248Y171642D03*
X88248D03*
X83248D03*
Y176642D03*
X88248D03*
X93248D03*
Y181642D03*
X88248D03*
X83248D03*
X75962Y142679D03*
X67300Y149371D03*
X94880Y154176D03*
X90942D03*
X83066D03*
X72088Y106121D03*
X67910Y135641D03*
X58461Y110518D03*
Y106580D03*
X38481Y101413D03*
X65759Y181123D03*
X33859Y148372D03*
X55523Y140770D03*
X77151Y104459D03*
X94761Y148819D03*
X65691Y154684D03*
X77570Y158763D03*
X71391Y177185D03*
X67910Y115168D03*
X64150Y101461D03*
X68860Y106121D03*
X56057Y138084D03*
X89218Y163833D03*
X93076Y163786D03*
X83066Y159808D03*
X48409Y101487D03*
X52829Y126270D03*
X51029Y140240D03*
X52280Y169744D03*
X56057Y114456D03*
Y118394D03*
Y122332D03*
Y130208D03*
Y134146D03*
X87004Y154176D03*
X94880Y159808D03*
X90942D03*
X93391Y117572D03*
X47105Y103382D03*
X82038Y120286D03*
Y122845D03*
Y125405D03*
Y130523D03*
Y133082D03*
X65759Y173247D03*
X45498Y217681D03*
X49436D03*
X94867Y200406D03*
X28981Y184104D03*
X32258Y215136D03*
X27825Y195283D03*
X84959Y249002D03*
X60281Y207428D03*
X16765Y204733D03*
Y212319D03*
X91743Y241746D03*
X80371Y234599D03*
Y230661D03*
Y222785D03*
X72810Y231183D03*
X61896Y235201D03*
X56896D03*
X51896D03*
Y240201D03*
X56896D03*
X61896D03*
Y245201D03*
X56896D03*
X51896D03*
X34067Y227613D03*
X37108Y227689D03*
X57312Y217681D03*
X53374D03*
X83314Y196666D03*
X67999Y196843D03*
Y200781D03*
X41046Y227689D03*
X34067Y252809D03*
X39512Y248360D03*
X44368Y242180D03*
X69142Y255441D03*
X77888Y225781D03*
X80371Y218847D03*
X22102Y208526D03*
X33859Y207428D03*
X54954Y200122D03*
X18125Y230590D03*
Y235590D03*
Y240590D03*
Y245590D03*
Y250590D03*
X71546Y252213D03*
X84959Y256640D03*
X70403Y190501D03*
X77453Y243738D03*
X93777Y189591D03*
X87872D03*
X77453Y237484D03*
X26149Y237258D03*
Y241195D03*
X77888Y255441D03*
X91187Y189469D03*
X77888Y229009D03*
X80371Y226723D03*
X88407Y218847D03*
X85281Y189469D03*
X92381Y256640D03*
X82400D03*
X87518Y249002D03*
X71555Y237484D03*
X52527Y259888D03*
X65006Y191680D03*
X92381Y249002D03*
X82400D03*
X51519Y290615D03*
X51631Y264147D03*
X36363Y291732D03*
X31808Y318715D03*
X81242Y324149D03*
X64106Y316825D03*
X63527Y329353D03*
X35965D03*
X55457Y298651D03*
X51631Y272183D03*
X51519Y298651D03*
X45729Y279226D03*
X41967Y283776D03*
X25078Y279226D03*
X21316Y283776D03*
X45593Y305686D03*
X41831Y310236D03*
X21316D03*
X25078Y305686D03*
X57973Y266551D03*
X56591Y278290D03*
X70780Y304469D03*
X55457Y293019D03*
X83300Y304728D03*
X57973Y269779D03*
X61799Y296247D03*
X78654Y285164D03*
X120933Y3615D03*
X139898Y11618D03*
X138384Y5532D03*
X161151Y20200D03*
X148472Y11538D03*
X100602Y4355D03*
X103282Y8117D03*
X105686Y4355D03*
X144534Y11538D03*
X149435Y3543D03*
X121410Y12224D03*
X138246Y17553D03*
X144534Y17170D03*
X148472D03*
X169890Y3236D03*
X162366D03*
X166128Y5916D03*
X168789Y20200D03*
X161151Y17641D03*
X137469Y37915D03*
X122530Y22371D03*
X99874Y78647D03*
Y84007D03*
X96112Y81327D03*
X103636D03*
Y96363D03*
X96112D03*
X99874Y99043D03*
Y93683D03*
X95091Y22362D03*
X95153Y55214D03*
X160411Y55174D03*
X125249Y69968D03*
X139029Y27634D03*
X103282Y24475D03*
X105686Y20713D03*
X106178Y28838D03*
Y32776D03*
X123106Y31746D03*
X106178Y36714D03*
X144145Y87971D03*
X129187Y69968D03*
X160411Y59112D03*
X156570Y49462D03*
X160064Y44409D03*
X161151Y31100D03*
X154429Y100143D03*
X128342Y61722D03*
X103228Y63918D03*
X119218D03*
X144145Y82971D03*
X154779Y65454D03*
X105962Y59495D03*
X125249Y64336D03*
X128007Y77971D03*
Y72971D03*
X129187Y64336D03*
X135529D03*
X154779Y55174D03*
X168789Y31100D03*
X169583Y47907D03*
X111810Y32776D03*
X105962Y43137D03*
X158009Y29595D03*
X161151Y33659D03*
X168789Y28541D03*
X168719Y38801D03*
X158287Y100143D03*
X109102Y87451D03*
X161151Y28541D03*
X144343Y31746D03*
X147992Y33714D03*
X144343Y35683D03*
X147992Y37651D03*
X130498Y47063D03*
X167101Y44559D03*
X133780Y47063D03*
X135529Y67564D03*
X147888Y62593D03*
X144934Y65090D03*
X128007Y82971D03*
X172500Y94460D03*
Y99140D03*
X161515Y97739D03*
X168789Y22759D03*
Y33659D03*
X143391Y167065D03*
X154468D03*
X164045Y178583D03*
X158145Y172855D03*
X129096Y139027D03*
X139054Y148512D03*
X172477Y158502D03*
X164045Y161058D03*
Y164996D03*
X168283Y130192D03*
X160759D03*
X164521Y132872D03*
X148163D03*
X144401Y130192D03*
X151925D03*
X164521Y108689D03*
X148163D03*
X168283Y111369D03*
X151925D03*
X142468Y107163D03*
X96619Y117572D03*
X142468Y111101D03*
X154354Y114124D03*
X164045Y168934D03*
X172194Y162911D03*
X104287Y180891D03*
X108631Y180573D03*
X116879Y165172D03*
X116988Y167880D03*
X116879Y157298D03*
Y149424D03*
X97012Y140717D03*
X119140Y142082D03*
X172119Y115877D03*
X140064Y121381D03*
X142468Y115039D03*
X169677Y164996D03*
Y161058D03*
X172182Y111968D03*
X169677Y168934D03*
X110243Y147273D03*
X119367Y149262D03*
X111590Y138400D03*
X116879Y136825D03*
Y139975D03*
X161440Y114077D03*
X105604Y169144D03*
X105538Y155723D03*
X110029Y169242D03*
X107129Y162414D03*
X109862Y160862D03*
X107006Y158471D03*
X97885Y153474D03*
X104463Y152573D03*
X97189Y150999D03*
X99836Y135061D03*
X119528Y145429D03*
X138264Y173234D03*
X158212Y114124D03*
X109102Y102487D03*
X96619Y133237D03*
X99023Y127964D03*
X170288Y176151D03*
X167802Y135352D03*
X171845Y137321D03*
X172439Y133384D03*
X110008Y176967D03*
X123150Y132131D03*
X128150D03*
X104281Y213991D03*
X111323D03*
X104281Y210841D03*
X98725Y212416D03*
X111323Y210841D03*
X116879Y212416D03*
Y209266D03*
X98725D03*
X104619Y208269D03*
X110985D03*
X136330Y195442D03*
X157441Y219879D03*
X164045Y217046D03*
X157009Y194903D03*
X150642Y191673D03*
X145540Y197730D03*
X153929D03*
X158145Y202163D03*
X149512Y214746D03*
X143396Y217974D03*
X139458D03*
X149441Y185444D03*
X143383Y188586D03*
X139445D03*
X110985Y205539D03*
X117759Y195612D03*
X116879Y204542D03*
X98725D03*
X111323Y202967D03*
X104281D03*
X174788Y249002D03*
X167605Y255197D03*
X94940Y249002D03*
X104921D03*
X114902D03*
X124883D03*
X134864D03*
X144845D03*
X154826D03*
X164045Y186796D03*
Y190734D03*
Y197730D03*
X98095Y200406D03*
Y195330D03*
X108101Y241746D03*
X99442Y226723D03*
X171865Y193738D03*
X164045Y201668D03*
X172740Y201231D03*
X104729Y205796D03*
X104162Y188794D03*
X111323D03*
X117759Y199550D03*
X129244Y195442D03*
X140188D03*
X121155Y198656D03*
X144845Y256640D03*
X154826D03*
X164807D03*
X174788D03*
X94940D03*
X104921D03*
X114902D03*
X124883D03*
X134864D03*
X169677Y190734D03*
Y197730D03*
Y201668D03*
Y186796D03*
X104643Y183896D03*
X96354Y189477D03*
X143416Y193038D03*
X133102D03*
X138277Y202615D03*
X113467Y226921D03*
X98077Y185492D03*
X172229Y256640D03*
X160060Y259615D03*
X152267Y256640D03*
X142286D03*
X132305D03*
X122324D03*
X112343D03*
X102362D03*
X172229Y249002D03*
X172225Y188502D03*
X162248Y254952D03*
X97499Y249002D03*
X152267D03*
X117461D03*
X107480D03*
X142286D03*
X132305D03*
X122324D03*
X112343D03*
X102362D03*
X159755Y194903D03*
X159826Y217150D03*
X107401Y195612D03*
X126016Y193038D03*
X108825Y183016D03*
X107401Y199550D03*
X157385Y249002D03*
X165430Y246216D03*
X137423Y249002D03*
X127442D03*
X169423Y249274D03*
X120661Y314861D03*
X170694Y328662D03*
X130024Y332325D03*
X149106Y323378D03*
X102462Y312970D03*
X102655Y326655D03*
X169423Y314917D03*
X161585D03*
X153961D03*
X145055D03*
X135268D03*
X124421Y287725D03*
X120013Y283317D03*
Y276533D03*
Y271959D03*
X129561Y309210D03*
X125981Y305630D03*
Y299826D03*
X172096Y269088D03*
X107584Y281253D03*
X179825Y20200D03*
X256107Y8148D03*
X251107D03*
X246107D03*
X241107D03*
X236107D03*
Y13148D03*
X241107D03*
X246107D03*
X251107D03*
X256107D03*
Y18148D03*
X251107D03*
X246107D03*
X241107D03*
X236107D03*
X182486Y5916D03*
X186248Y3236D03*
X178724D03*
X187463Y20200D03*
X179825Y17641D03*
X229773Y48762D03*
X221464Y20739D03*
X233648Y30103D03*
X180821Y28159D03*
X179825Y42000D03*
X198702Y51305D03*
X221996Y65428D03*
X255238Y54659D03*
X250238D03*
X245238D03*
Y59659D03*
X250238D03*
X255238D03*
Y64659D03*
X250238D03*
X245238D03*
X233386Y74443D03*
X255214Y41023D03*
X235693Y37103D03*
X253747Y76413D03*
X221996Y69286D03*
X200961Y34814D03*
X182181Y56916D03*
X248277Y46873D03*
X197384Y61436D03*
X192500Y99140D03*
X197500D03*
X212500D03*
X207500D03*
X202500D03*
X187500D03*
X217500D03*
X239018Y74443D03*
X224400Y62200D03*
X192500Y94460D03*
X197500D03*
X202500D03*
X207500D03*
X212500D03*
X187500D03*
X217500D03*
X187463Y42000D03*
X192366Y30411D03*
X205061Y75564D03*
X179825Y22759D03*
X199943Y75564D03*
X207620Y72184D03*
X179825Y33659D03*
X202502Y72145D03*
X210961Y34814D03*
X187463Y28541D03*
X215961Y34814D03*
X245975Y26059D03*
X249199Y34062D03*
X245262D03*
X181443Y38801D03*
X242693Y26059D03*
X233386Y78381D03*
X221996Y72514D03*
X195767Y69286D03*
X202560Y51305D03*
X195474D03*
X198614Y26948D03*
X177282Y75752D03*
X207620Y61436D03*
X205061Y64816D03*
X202502Y61436D03*
X199943Y64816D03*
X179825Y44559D03*
X247493Y80350D03*
X252500Y99140D03*
Y94460D03*
X247500Y99140D03*
Y94460D03*
X253747Y80350D03*
X242500Y99140D03*
Y94460D03*
X232500D03*
Y99140D03*
X227500Y94460D03*
Y99140D03*
X222500Y94460D03*
Y99140D03*
X182500Y94460D03*
Y99140D03*
X177500Y94460D03*
Y99140D03*
X229165Y56576D03*
X251811Y74444D03*
X220416Y61436D03*
X215298Y64816D03*
X212739Y61436D03*
X210180Y64816D03*
X220416Y75564D03*
X215298D03*
X213279Y71618D03*
X210180Y79917D03*
X176850Y26779D03*
X188135Y33915D03*
X187795Y44532D03*
X251352Y115423D03*
X224921Y118710D03*
X189864Y110819D03*
X229137Y115251D03*
X216238Y116013D03*
X239813Y114761D03*
X180347Y111351D03*
X222795Y115541D03*
X254449D03*
X226733D03*
X200730Y159455D03*
X205784Y157645D03*
X199928Y155430D03*
X253515Y158974D03*
X253828Y155052D03*
X247457Y170931D03*
X189702Y177716D03*
X182508Y172754D03*
X184903Y170785D03*
X192163Y110892D03*
X203189Y153630D03*
X194921Y110852D03*
X205340Y150448D03*
X198070Y110687D03*
X201271Y110694D03*
X204377Y110535D03*
X251212Y168817D03*
X211676Y116035D03*
X185766Y131924D03*
X214371Y117878D03*
X218009Y118135D03*
X220781Y118167D03*
X231540Y114761D03*
X230827Y118710D03*
X232932Y116862D03*
X234764Y118710D03*
X196177Y136152D03*
X234485Y114746D03*
X201349Y135321D03*
X237502Y114761D03*
X195375Y130994D03*
X240669Y118710D03*
X191232Y132544D03*
X242638Y115084D03*
X204106Y131998D03*
X244606Y118710D03*
X207245Y134211D03*
X246575Y115084D03*
X248543Y118710D03*
X252647Y118528D03*
X209465Y128639D03*
X253523Y151100D03*
X253515Y170785D03*
X218857Y115541D03*
X206974Y110421D03*
X213975Y115599D03*
X253515Y174722D03*
X253831Y178659D03*
X182662Y166848D03*
X183521Y164541D03*
X185654Y161207D03*
X189797Y163180D03*
X193696Y162334D03*
X192923Y157878D03*
X199331Y213018D03*
X197362Y216995D03*
X195394Y213018D03*
X233035Y201680D03*
X244537Y236055D03*
Y229013D03*
X255561D03*
X255325Y241713D03*
X238795Y234751D03*
X219340Y229013D03*
X213075Y219415D03*
X213041Y229013D03*
X220915Y241611D03*
X217765D03*
X219340Y236055D03*
X213041D03*
X224693Y249002D03*
X214712D03*
X204731D03*
X194750D03*
X184769D03*
X232795Y213018D03*
X181084Y221819D03*
X185022D03*
X188960D03*
X234239D03*
X226363D03*
X219927Y201246D03*
X230301Y221819D03*
X192898D03*
X182508Y194407D03*
X183703Y213487D03*
X191288Y213223D03*
X228858Y213018D03*
X230633Y229271D03*
X234674Y256640D03*
X184769D03*
X194750D03*
X204731D03*
X214712D03*
X224693D03*
X230301Y216187D03*
X185022D03*
X188960D03*
X181084D03*
X234239D03*
X226363D03*
X216125D03*
X221244Y217250D03*
X192898Y216187D03*
X248543Y200379D03*
X246575Y203356D03*
X244606Y200379D03*
X242638Y203356D03*
X251847Y262576D03*
X209891Y236055D03*
X211466Y241611D03*
X216191Y236055D03*
X214616Y241611D03*
X209891Y229013D03*
X216191D03*
X211466Y223457D03*
X214616D03*
X217224Y223244D03*
X240625Y259615D03*
X253515Y186533D03*
X217271Y249002D03*
X207290D03*
X232115Y256640D03*
X222134D03*
X212153D03*
X202172D03*
X192191D03*
X182210D03*
X192191Y249002D03*
X182210D03*
X202172D03*
X212153D03*
X222134D03*
X253024Y221819D03*
X232115Y249002D03*
X182508Y184565D03*
X187036Y183570D03*
X189419Y184259D03*
X255355Y246869D03*
X225572Y201142D03*
X219016Y213018D03*
X203268D03*
X213110Y215815D03*
X201299Y216995D03*
X208673Y216985D03*
X205236Y216995D03*
X207205Y213018D03*
X211142D03*
X197309Y249002D03*
X253515Y182596D03*
X177347Y249002D03*
X187328D03*
X249086Y221819D03*
X243804Y231207D03*
X205728Y313711D03*
X225388Y303689D03*
X243166Y322109D03*
X210978Y333288D03*
X195751Y323073D03*
X185549Y276614D03*
Y286859D03*
Y295551D03*
Y305171D03*
X180103Y314917D03*
X183910Y269088D03*
X188096Y269226D03*
X217756Y275568D03*
X199799Y271194D03*
X238085Y283230D03*
X249788Y282794D03*
X243947Y273961D03*
X231616Y277099D03*
X253694Y274560D03*
X214528Y275568D03*
X191324Y269226D03*
X241313Y280826D03*
X220160Y269226D03*
X225984Y266033D03*
X256042Y278857D03*
X243947Y266869D03*
X193849Y273163D03*
X176034Y269088D03*
X206053Y273163D03*
X179972Y269088D03*
X265494Y38619D03*
X269432D03*
X321102Y80212D03*
X334594Y71539D03*
X281140Y69835D03*
X295917Y47960D03*
X258844Y30103D03*
X280397D03*
X305593D03*
X332873Y100889D03*
X327873D03*
X309022Y100496D03*
X304022D03*
X299022D03*
X261556Y41023D03*
X263191Y37103D03*
X268923Y51145D03*
X265450Y75977D03*
X294022Y100496D03*
Y94864D03*
X299022D03*
X309022D03*
X262222Y78381D03*
X327873Y63649D03*
X332873D03*
X309022Y63264D03*
X304022D03*
X299022D03*
X294022D03*
X267500Y99140D03*
Y94460D03*
X262500Y99140D03*
Y94460D03*
X257500Y99140D03*
Y94460D03*
X327873Y95257D03*
X332873D03*
X332083Y146765D03*
X329335Y114928D03*
X296032Y178553D03*
X296094Y176253D03*
X324279Y144699D03*
X329835Y139975D03*
Y146274D03*
Y158873D03*
X329977Y170745D03*
X330672Y180920D03*
X287116Y149919D03*
X287768Y142046D03*
X294541Y146960D03*
X317237Y139975D03*
Y146274D03*
X319701Y158108D03*
X317237Y169896D03*
X310158Y126377D03*
Y132161D03*
Y139247D03*
Y146333D03*
X273498Y133265D03*
X299600Y157834D03*
X277915Y154047D03*
X310158Y175920D03*
X283968Y180260D03*
X283967Y170812D03*
X277669Y158215D03*
Y149919D03*
X283967Y134172D03*
X277669Y121575D03*
X295373Y141664D03*
X273550Y172309D03*
X273551Y159930D03*
Y163868D03*
Y167806D03*
X257492Y160943D03*
Y164880D03*
X261860Y115636D03*
X268159Y115541D03*
X277608Y115696D03*
X287057Y115541D03*
X261860Y121771D03*
X268159Y121803D03*
X287689Y119499D03*
X275182D03*
X270323Y163868D03*
Y159930D03*
Y167806D03*
X299714Y180260D03*
X310158Y179148D03*
X310174Y159789D03*
X285055Y154047D03*
X310158Y149561D03*
X307703Y175701D03*
X292313Y152511D03*
X318227Y143125D03*
X329835D03*
X324279Y138400D03*
X329835Y136825D03*
X324279Y141550D03*
X317237Y136825D03*
X273498Y138897D03*
X310158Y142475D03*
Y135389D03*
Y123149D03*
X298140Y142046D03*
X311799Y136900D03*
X287500Y177495D03*
X287116Y170811D03*
X280818D03*
X277752Y170896D03*
X318893Y172188D03*
X288058Y165628D03*
X283966Y164514D03*
X277669Y167663D03*
X289361Y157734D03*
X283966Y158215D03*
X277669Y161364D03*
X320251Y154148D03*
X277669Y164514D03*
X317237Y150999D03*
X280818Y161364D03*
X320251Y151018D03*
X287116Y161364D03*
X296566Y124724D03*
X302864Y134173D03*
X299714Y131023D03*
X306013D03*
Y127874D03*
X299716Y134171D03*
X280818D03*
X287116D03*
X302864Y180260D03*
X306013D03*
X303447Y121149D03*
X301532Y118940D03*
X306013Y177111D03*
X299714Y121575D03*
X302864Y177111D03*
X284165Y119499D03*
X281015D03*
X287116Y127872D03*
X290419Y124724D03*
X264600Y128401D03*
X265630Y120536D03*
X283968Y127574D03*
X258191Y121556D03*
X306013Y124724D03*
X307409Y172078D03*
X290469Y128920D03*
X296566Y170811D03*
X276929Y127345D03*
X296566Y127874D03*
X302864D03*
X303421Y150702D03*
X306013Y146770D03*
X302864D03*
X306013Y143620D03*
X299716D03*
X323056Y179345D03*
X299716Y170813D03*
X306013Y140471D03*
X330522Y178352D03*
X306455Y166709D03*
X303132Y140520D03*
X333029Y177920D03*
X311008Y165421D03*
X333164Y174621D03*
X302864Y167663D03*
X333370Y171876D03*
X295879Y166862D03*
X334021Y168994D03*
X299716Y164514D03*
X332840Y166720D03*
X303835Y157244D03*
X335567Y164444D03*
X295914Y162938D03*
X333766Y162192D03*
X302864Y161364D03*
X332181Y159681D03*
X307593Y160161D03*
X323963Y155656D03*
X296408Y156991D03*
X257492Y153069D03*
Y172754D03*
Y176691D03*
Y180628D03*
X277669Y180260D03*
X280818Y149919D03*
X271822Y131415D03*
X272633Y147801D03*
X270684Y133415D03*
X283966Y146770D03*
X267154Y135352D03*
X275609Y145680D03*
X270915Y139252D03*
X280818Y143620D03*
X267908Y139289D03*
X280818Y180260D03*
Y177111D03*
X277669D03*
X334070Y191537D03*
X271011Y229238D03*
X273210Y255498D03*
X329835Y191943D03*
X266584Y229013D03*
X276310Y229065D03*
X275900Y231764D03*
X266584Y236055D03*
X317212Y184985D03*
X310158Y183006D03*
X301368Y193076D03*
X274082Y185828D03*
X283968Y186559D03*
X320333Y205094D03*
X257492Y194407D03*
X275955Y196736D03*
Y200674D03*
X257492Y200313D03*
X316526Y256129D03*
X313727Y230339D03*
X274009Y217639D03*
X310625Y235025D03*
X300648Y230235D03*
X309644Y209466D03*
X285737Y207062D03*
X295807Y203063D03*
X282314Y193076D03*
X317237Y202967D03*
Y191943D03*
X313727Y216021D03*
X322744Y205692D03*
X330735Y203351D03*
X322744Y209630D03*
X313298Y253725D03*
X306416Y207062D03*
X277237Y215235D03*
X270323Y196736D03*
Y200674D03*
X271386Y209437D03*
X267742Y205793D03*
X334826Y187142D03*
X333110Y189446D03*
X294597Y186786D03*
X329835Y189643D03*
X276438Y255498D03*
X273210Y235025D03*
X292508Y199737D03*
X309644Y203124D03*
X285542Y193076D03*
X310158Y186234D03*
X298140Y190672D03*
X257492Y188502D03*
X285737Y203125D03*
X316554Y238322D03*
X301919Y250380D03*
X292754Y207035D03*
X335014Y227526D03*
X301919Y245261D03*
X319848Y202845D03*
X319934Y200218D03*
X302864Y186559D03*
X317829Y197434D03*
X302864Y183410D03*
X319895Y195634D03*
X306013Y183410D03*
X323319Y193798D03*
X320074Y191116D03*
X321532Y189236D03*
X258710Y246933D03*
X329835Y184069D03*
X323665Y182443D03*
X261014Y245284D03*
X263780Y244781D03*
X264177Y241853D03*
X268159Y262115D03*
X269642Y260270D03*
X328036Y233926D03*
X335053Y261202D03*
X328036Y253616D03*
X318546Y249678D03*
X328036Y245740D03*
Y241802D03*
X330369Y199377D03*
X297634Y226140D03*
X335308Y223327D03*
X290509Y229318D03*
X331264Y241802D03*
X324178D03*
X257492Y184565D03*
X280283Y209831D03*
X281644Y205793D03*
X275446Y209950D03*
X277669Y183410D03*
X280818Y186559D03*
X256962Y221819D03*
X273551Y192798D03*
Y188860D03*
X280818Y183410D03*
X324178Y247274D03*
X287766Y290656D03*
X264517Y284764D03*
X287766Y294594D03*
X276658Y309856D03*
X313133Y331939D03*
X266681Y332903D03*
X290281Y316117D03*
X333195Y276323D03*
X326073Y267337D03*
X294009Y265803D03*
X287766Y286718D03*
X311116Y295590D03*
X304147Y284041D03*
X309147D03*
X314147D03*
Y288041D03*
X309147D03*
X304147D03*
X283392Y268571D03*
X267745Y287168D03*
X261788Y274693D03*
X267034Y268571D03*
X296549Y304164D03*
X321745D03*
X317296Y299888D03*
X296625Y298354D03*
X285783Y282780D03*
X306301Y264600D03*
X294043Y321454D03*
X320441Y267337D03*
X326073Y263399D03*
X267745Y278422D03*
X297237Y265803D03*
X263272Y266869D03*
X267034Y274419D03*
X330528Y286718D03*
X305712Y267336D03*
X312100Y312082D03*
X308163D03*
X320596Y273919D03*
X317655Y271728D03*
X298942Y270691D03*
X308697Y266689D03*
X412926Y7506D03*
X407832Y76613D03*
X414832D03*
X407832Y99613D03*
X414832D03*
X388300Y42122D03*
X383300D03*
X378300D03*
X373300D03*
X368300D03*
Y47122D03*
X373300D03*
X378300D03*
X383300D03*
X388300D03*
Y52122D03*
X383300D03*
X378300D03*
X373300D03*
X368300D03*
X348471Y81754D03*
X411385Y25238D03*
X412926Y53186D03*
X414832Y79841D03*
X380577Y32243D03*
X395945Y46413D03*
Y50351D03*
Y54289D03*
Y58227D03*
X375778Y90675D03*
Y67675D03*
X386006Y66613D03*
Y89613D03*
X357873Y98485D03*
X352873D03*
X347873D03*
X342873D03*
X337873Y100889D03*
X375240Y32243D03*
X400090Y77200D03*
Y70900D03*
X393790Y77200D03*
X396940Y74050D03*
X393790Y70900D03*
X400099Y93913D03*
Y100213D03*
X393799Y93913D03*
X396949Y97063D03*
X393799Y100213D03*
X367192Y82245D03*
X371130D03*
X375068D03*
X379006D03*
X380577Y37187D03*
X337873Y63649D03*
X342873D03*
X347873D03*
X352873D03*
X357873Y59257D03*
X370868Y65680D03*
X366931D03*
X362994D03*
X359057D03*
Y69617D03*
X362994D03*
X366931D03*
X370868D03*
Y73554D03*
X366931D03*
X362994D03*
X359057D03*
X352873Y95257D03*
X357873D03*
X337873D03*
X347873D03*
X342873D03*
X378264Y87521D03*
X374327D03*
X370390D03*
X366453D03*
X362516D03*
Y91458D03*
X366453D03*
X370390D03*
Y95395D03*
X366453D03*
X362516D03*
X357873Y139379D03*
X352873D03*
X379573Y164067D03*
X383473D03*
X379573Y167711D03*
X407832Y122613D03*
X414832D03*
X339106Y128263D03*
X415239Y164977D03*
X414832Y102841D03*
Y125841D03*
X337641Y145011D03*
X360277Y165859D03*
Y159071D03*
X367545Y111077D03*
X375778Y113675D03*
X386006Y112613D03*
X400088Y116931D03*
X393788D03*
X396938Y120081D03*
X400088Y123231D03*
X393788D03*
X367192Y105245D03*
X371130D03*
X375068D03*
X379006D03*
Y128245D03*
X375068D03*
X371130D03*
X347873Y145011D03*
X360277Y152319D03*
X357873Y145011D03*
X356776Y169812D03*
X367192Y128245D03*
X339524Y157220D03*
X362239Y181406D03*
X352279Y121050D03*
X356216D03*
X360153D03*
X364090D03*
Y117113D03*
X360153D03*
X356216D03*
X352279D03*
Y113176D03*
X356216D03*
X360153D03*
X364090D03*
X341246Y162537D03*
X356368D03*
X357873Y103879D03*
X352873D03*
X347873D03*
X366177Y179748D03*
X338186Y152330D03*
X415093Y181752D03*
X415091Y145646D03*
X400766Y159667D03*
X369405Y147664D03*
X373263D03*
X372201Y175810D03*
X388611Y171518D03*
X395269D03*
X415091Y141788D03*
X395823Y144940D03*
X371809Y133446D03*
X383491Y149588D03*
X359835Y175774D03*
X379573Y203993D03*
Y207637D03*
X383473Y203993D03*
X410123Y215691D03*
X413119Y198128D03*
X407530Y226654D03*
X345375Y202635D03*
X362578Y200837D03*
Y205837D03*
Y210837D03*
X359605Y220458D03*
X362578Y215837D03*
X371202Y238106D03*
X369225Y210961D03*
X371202Y234168D03*
X353231Y220440D03*
X417563Y254570D03*
X361712Y253858D03*
Y249920D03*
X371202Y253858D03*
Y249920D03*
Y245982D03*
X361712D03*
Y242044D03*
Y238106D03*
X348039Y241232D03*
X344889D03*
X341739D03*
Y244382D03*
X344889D03*
X348039D03*
Y247532D03*
X344889D03*
X341739D03*
X415093Y185610D03*
X400727Y199549D03*
X341417Y227526D03*
X339013Y220440D03*
X359605Y223686D03*
X395269Y211244D03*
X388611D03*
X369405Y190028D03*
X373263D03*
X395314Y184954D03*
X365570Y245982D03*
X358484D03*
X378819Y244358D03*
X345355Y220440D03*
X341417Y223668D03*
Y230754D03*
X365570Y249920D03*
X358484D03*
X341395Y261202D03*
X343476Y217374D03*
X345333Y261202D03*
X383705Y254570D03*
X370492Y215779D03*
X358484Y238106D03*
Y242044D03*
X371202D03*
X365570Y238106D03*
X381160Y189632D03*
X397178Y304697D03*
X393240D03*
X406036Y326983D03*
X404045Y324008D03*
X408027D03*
X406036Y321033D03*
X386373Y324008D03*
X384382Y321033D03*
Y326983D03*
X369366Y310242D03*
X412541Y280623D03*
X344707Y283265D03*
X351445D03*
X348076Y279109D03*
X347621Y321454D03*
X355145D03*
X351383Y316117D03*
X369698Y290497D03*
X344684Y322886D03*
X390288Y317770D03*
X397305Y291913D03*
X351225Y290582D03*
X337133Y276323D03*
X359890Y269036D03*
X382391Y324008D03*
X401116Y304697D03*
X357243Y289509D03*
X346152Y272856D03*
X342252Y276500D03*
X389302Y304697D03*
X403718Y310816D03*
X369662Y326960D03*
X369698Y296129D03*
X354684Y300096D03*
X394077Y289509D03*
X397305Y273343D03*
X393113Y318851D03*
X396193Y320306D03*
X402099Y317770D03*
X354684Y327239D03*
X359684D03*
X344684Y295743D03*
X349684D03*
X417563Y294870D03*
X373187Y288501D03*
Y272749D03*
X349271Y263606D03*
X353209D03*
X372185Y266581D03*
X370214Y278438D03*
X359715Y264447D03*
X359890Y276713D03*
Y271595D03*
X398162Y317770D03*
X378819Y272749D03*
X375591Y264873D03*
X378819Y284563D03*
X375591Y280625D03*
X370214Y270442D03*
X423770Y76613D03*
X428770D03*
X433770D03*
Y71613D03*
X428770D03*
X423770D03*
X428770Y99613D03*
X433770D03*
Y94613D03*
X428770D03*
X423770D03*
Y99613D03*
X418770Y76613D03*
Y68385D03*
Y99613D03*
Y91385D03*
X433068Y33830D03*
X430659Y46247D03*
X418770Y79841D03*
X424071Y117624D03*
X429071D03*
X434071D03*
Y122624D03*
X429071D03*
X424071D03*
X418770Y122613D03*
Y114385D03*
X427625Y174621D03*
X433165Y158231D03*
X418770Y102841D03*
Y125841D03*
X432514Y238150D03*
X431430Y209885D03*
X433550Y260577D03*
X417957Y225830D03*
X422113Y248642D03*
X422507Y231758D03*
X435020Y289997D03*
X432996Y302125D03*
X422113Y288942D03*
X417957Y266130D03*
X422507Y272058D03*
G54D31*
G01X16000Y0D02*
X424000D01*
G03X440000Y16000I0J16000D01*
G01Y322400D01*
G03X424000Y338400I-16000J0D01*
G01X16000D01*
G03X0Y322400I0J-16000D01*
G01Y16000D01*
G03X16000Y0I16000J0D01*
G54D22*
X229238Y27544D03*
X310003D03*
X275987D03*
X263254D03*
X292139Y310682D03*
X326155D03*
G54D13*
X15426Y158487D03*
Y189983D03*
X76548Y15686D03*
X45052D03*
X172403Y302931D03*
X163387D03*
X154371D03*
X145355D03*
X136340D03*
X167895Y295136D03*
X158879D03*
X149863D03*
X140847D03*
X131832D03*
X172403Y287341D03*
X163387D03*
X154371D03*
X145355D03*
X136340D03*
X332840Y322793D03*
X301344D03*
G54D32*
G01X220416Y61436D02*
X212212Y53232D01*
X83991D01*
X82622Y54601D01*
X68634D01*
G01X64304D02*
X66797Y57094D01*
X179813D01*
X181435Y58716D01*
X182927D01*
X183895Y57748D01*
X211699D01*
X215298Y61347D01*
Y64816D01*
G01X212739Y61436D02*
Y65193D01*
X209623Y68309D01*
X199965D01*
X196906Y71368D01*
X165217D01*
X154642Y60793D01*
X136324D01*
X129921Y67196D01*
X121234D01*
X119642Y68788D01*
X58046D01*
G01X60611Y54470D02*
X65854Y59713D01*
X89153D01*
X90763Y61323D01*
X110502D01*
X112808Y59017D01*
X156077D01*
X158653Y61593D01*
X161366D01*
X162361Y60598D01*
X195676D01*
X196638Y59636D01*
X204148D01*
X205155Y60643D01*
Y62151D01*
X207820Y64816D01*
X210180D01*
G01X56057Y138084D02*
X65418Y128723D01*
X96690D01*
X110243Y142276D01*
Y147273D01*
G01X97189Y150999D02*
X95389D01*
X92911Y153477D01*
Y160821D01*
X91147Y162585D01*
Y183903D01*
X87872Y187178D01*
Y189591D01*
G01X83066Y159808D02*
X85035Y157839D01*
Y143909D01*
X93883Y135061D01*
X99836D01*
G01X26149Y241195D02*
Y237258D01*
G01X92381Y256640D02*
X90437Y258584D01*
X84344D01*
X82400Y256640D01*
G01X102362D02*
X100266Y258736D01*
X94477D01*
X92381Y256640D01*
G01X251212Y168817D02*
X245917D01*
X233623Y181111D01*
X172374D01*
X164720Y188765D01*
X157281D01*
X99314Y246732D01*
X89788D01*
X87518Y249002D01*
G01X215961Y34814D02*
X206126Y24979D01*
X172351D01*
X168789Y28541D01*
G01X242693Y26059D02*
X243617Y26983D01*
Y30790D01*
X242080Y32327D01*
Y37628D01*
X239924Y39784D01*
X198525D01*
X189224Y30483D01*
X176982D01*
X174481Y32984D01*
Y38001D01*
X173681Y38801D01*
X168719D01*
G01X179825Y44559D02*
X174863D01*
X174063Y43759D01*
Y42129D01*
X172936Y41002D01*
X134929D01*
X131539Y44392D01*
Y46022D01*
X130498Y47063D01*
G01X167101Y44559D02*
X172063D01*
X172863Y43759D01*
Y42627D01*
X172438Y42202D01*
X135427D01*
X132739Y44890D01*
Y46022D01*
X133780Y47063D01*
G01X147888Y62593D02*
X140500D01*
X135529Y67564D01*
G01X144934Y65090D02*
X141906D01*
X130634Y76362D01*
Y80344D01*
X128007Y82971D01*
G01X249086Y221819D02*
Y217267D01*
X259927Y206426D01*
Y172620D01*
X254030Y166723D01*
X236146D01*
X198037Y128614D01*
X180808D01*
X170319Y118125D01*
Y79225D01*
X175928Y73616D01*
X198239D01*
X201510Y70345D01*
X212006D01*
X213279Y71618D01*
G01X168789Y33659D02*
X166910Y31780D01*
Y24638D01*
X168789Y22759D01*
G01X97885Y153474D02*
Y175868D01*
X97085Y176668D01*
X95848D01*
X95048Y177468D01*
Y179068D01*
X95848Y179868D01*
X97085D01*
X97885Y180668D01*
Y182817D01*
X95937Y184765D01*
Y185898D01*
X96354Y186315D01*
Y189477D01*
G01X104463Y152573D02*
X101060Y155976D01*
Y188278D01*
X97745Y191593D01*
X95779D01*
X93777Y189591D01*
G01X110008Y176967D02*
X111808D01*
X121328Y167447D01*
Y133953D01*
X123150Y132131D01*
G01X108825Y183016D02*
X110625D01*
X124370Y169271D01*
Y135911D01*
X128150Y132131D01*
G01X132305Y256640D02*
X134591Y258926D01*
X140000D01*
X142286Y256640D01*
G01X112343D02*
X110543Y258440D01*
X104175D01*
X104129Y258394D01*
X104116D01*
X102362Y256640D01*
G01X122324D02*
X120114Y258850D01*
X114553D01*
X112343Y256640D01*
G01X132305D02*
X130361Y258584D01*
X124268D01*
X122324Y256640D01*
G01X152267D02*
X149981Y258926D01*
X144572D01*
X142286Y256640D01*
G01X182210D02*
X180076Y258774D01*
X174363D01*
X172229Y256640D01*
G01X152267D02*
X155242Y259615D01*
X160060D01*
G01D02*
X169254D01*
X172229Y256640D01*
G01X107480Y249002D02*
X120909Y235573D01*
Y228200D01*
X156521Y192588D01*
X170453D01*
X171324Y191717D01*
X172798D01*
X176980Y187535D01*
X233014D01*
X247457Y173092D01*
Y170931D01*
G01X159755Y194903D02*
X170112D01*
X174127Y198918D01*
X223348D01*
X225572Y201142D01*
G01X159826Y217150D02*
X161726Y219050D01*
X203565D01*
X205730Y221215D01*
X214903D01*
X219016Y217102D01*
Y213018D01*
G01X187463Y28541D02*
X194170D01*
X195550Y29921D01*
X206068D01*
X210961Y34814D01*
G01X245262Y34062D02*
X249199D01*
G01X245975Y26059D02*
X244817Y27217D01*
Y31288D01*
X243280Y32825D01*
Y38126D01*
X240422Y40984D01*
X198027D01*
X188726Y31683D01*
X177480D01*
X175681Y33482D01*
Y38001D01*
X176481Y38801D01*
X181443D01*
G01X177282Y75752D02*
X174357Y78677D01*
Y116399D01*
X184635Y126677D01*
X201335D01*
X207069Y132411D01*
X207991D01*
X240233Y164653D01*
X254719D01*
X262275Y172209D01*
Y208032D01*
X253024Y217283D01*
Y221819D01*
G01X257492Y153069D02*
X243423D01*
X208181Y117827D01*
X187288D01*
X184884Y115423D01*
Y109302D01*
X195000Y99186D01*
Y98382D01*
X196042Y97340D01*
X197470D01*
X200005Y94805D01*
Y93365D01*
X200925Y92445D01*
X235398D01*
X247493Y80350D01*
G01X253747D02*
X251947D01*
X235465Y96832D01*
X201516D01*
X200700Y97648D01*
Y98779D01*
X191103Y108376D01*
X189047D01*
X187592Y109831D01*
Y112173D01*
X190676Y115257D01*
X208192D01*
X213322Y120387D01*
X215485D01*
X246198Y151100D01*
X253523D01*
G01X251811Y74444D02*
X247033D01*
X229165Y56576D01*
G01X256962Y221819D02*
Y217021D01*
X264373Y209610D01*
Y169105D01*
X258011Y162743D01*
X242402D01*
X210098Y130439D01*
X208719D01*
X207665Y129385D01*
Y128006D01*
X204153Y124494D01*
X185133D01*
X176257Y115618D01*
Y107605D01*
X179616Y104246D01*
Y86519D01*
X188385Y77750D01*
X205653D01*
X209639Y73764D01*
X216816D01*
X218616Y75564D01*
X220416D01*
G01X215298D02*
X211090D01*
X206881Y79773D01*
X203035D01*
X190000Y92808D01*
Y95431D01*
X188631Y96800D01*
X186606D01*
X185000Y98406D01*
Y102175D01*
X178547Y108628D01*
Y114447D01*
X186331Y122231D01*
X205941D01*
X244484Y160774D01*
X254841D01*
X256476Y159139D01*
X258391D01*
X266384Y167132D01*
Y185631D01*
X273551Y192798D01*
G01X210180Y79917D02*
X208632Y81465D01*
X207368D01*
X195000Y93833D01*
Y95634D01*
X193834Y96800D01*
X191638D01*
X190000Y98438D01*
Y100822D01*
X182701Y108121D01*
Y116215D01*
X186513Y120027D01*
X207107D01*
X244202Y157122D01*
X260407D01*
X268379Y165094D01*
Y183688D01*
X273551Y188860D01*
G01X187795Y44532D02*
X185995D01*
X184488Y43025D01*
Y37562D01*
X188135Y33915D01*
G01X303447Y121149D02*
Y116040D01*
X291022Y103615D01*
X199440D01*
X192163Y110892D01*
G01X301532Y118940D02*
Y117140D01*
X290110Y105718D01*
X200055D01*
X194921Y110852D01*
G01X299714Y121575D02*
Y118896D01*
X288848Y108030D01*
X200727D01*
X198070Y110687D01*
G01X231540Y114761D02*
Y112429D01*
X233812Y110157D01*
X287856D01*
X297403Y119704D01*
Y122510D01*
X301031Y126138D01*
X304599D01*
X306013Y124724D01*
G01X302864Y127874D02*
X299806D01*
X297708Y129972D01*
X295287D01*
X294487Y129172D01*
Y119497D01*
X287140Y112150D01*
X235260D01*
X234485Y112925D01*
Y114746D01*
G01X303421Y150702D02*
X289045D01*
X287500Y152247D01*
X284309D01*
X280587Y155969D01*
X263215D01*
X237502Y130256D01*
Y114761D01*
G01X240669Y118710D02*
Y130668D01*
X261706Y151705D01*
X281780D01*
X285266Y148219D01*
X287821D01*
X288585Y148983D01*
X303800D01*
X306013Y146770D01*
G01X242638Y115084D02*
Y128895D01*
X261539Y147796D01*
X269342D01*
X271147Y149601D01*
X275133D01*
X278295Y146439D01*
X280880D01*
X282766Y144553D01*
X284154D01*
X285987Y146386D01*
X292710D01*
X293836Y145260D01*
X295546D01*
X297558Y147272D01*
X300562D01*
X301064Y146770D01*
X302864D01*
G01X244606Y118710D02*
Y127460D01*
X261160Y144014D01*
X274521D01*
X276805Y141730D01*
X284973D01*
X286989Y143746D01*
X288473D01*
X288855Y143364D01*
X296625D01*
X298697Y145436D01*
X300417D01*
X300960Y144893D01*
X304740D01*
X306013Y143620D01*
G01X299716D02*
X299972Y143364D01*
Y141463D01*
X298465Y139956D01*
X275951D01*
X274818Y141089D01*
X261560D01*
X246575Y126104D01*
Y115084D01*
G01X248543Y118710D02*
Y124888D01*
X260807Y137152D01*
X272697D01*
X273248Y136601D01*
X274380D01*
X275913Y138134D01*
X299683D01*
X301429Y139880D01*
Y141450D01*
X302501Y142522D01*
X303962D01*
X306013Y140471D01*
G01X303132Y140520D02*
Y138557D01*
X300747Y136172D01*
X279125D01*
X272209Y129256D01*
X267775D01*
X266474Y130557D01*
X256995D01*
X252647Y126209D01*
Y118528D01*
G01X197309Y249002D02*
X200796Y245515D01*
X219586D01*
X240666Y224435D01*
Y212545D01*
X240715Y212496D01*
Y191775D01*
X253831Y178659D01*
G01X257492Y180628D02*
X256219Y179355D01*
Y178072D01*
X254837Y176690D01*
X251726D01*
X237188Y191228D01*
Y221416D01*
X231828Y226776D01*
X230324D01*
X225040Y232060D01*
X204270D01*
X187328Y249002D01*
G01X256042Y278857D02*
X254242D01*
X248138Y272753D01*
Y267128D01*
X240625Y259615D01*
G01X253515Y186533D02*
X251046Y189002D01*
Y206233D01*
X243018Y214261D01*
Y225055D01*
X219071Y249002D01*
X217271D01*
G01X257492Y188502D02*
X254502Y191492D01*
Y207080D01*
X245155Y216427D01*
Y225844D01*
X227180Y243819D01*
Y249075D01*
X224699Y251556D01*
X209844D01*
X207290Y249002D01*
G01X212153Y256640D02*
X210188Y258605D01*
X204137D01*
X202172Y256640D01*
G01D02*
X200093Y258719D01*
X194270D01*
X192191Y256640D01*
G01D02*
X190171Y258660D01*
X184230D01*
X182210Y256640D01*
G01X222134D02*
X220114Y258660D01*
X214173D01*
X212153Y256640D01*
G01X232115D02*
X230171Y258584D01*
X224078D01*
X222134Y256640D01*
G01X176034Y269088D02*
X180109Y273163D01*
X193849D01*
G01X206053D02*
X197957D01*
X195821Y271027D01*
X181911D01*
X179972Y269088D01*
G01X329835Y189643D02*
Y187107D01*
X333407Y183535D01*
Y180523D01*
X337420Y176510D01*
Y159546D01*
X327305Y149431D01*
Y113147D01*
X309022Y94864D01*
G01X339106Y128263D02*
X334164Y133205D01*
Y144684D01*
X332083Y146765D01*
G01X280818Y161364D02*
Y158507D01*
X283391Y155934D01*
X292050D01*
X295389Y152595D01*
X313537D01*
X315133Y150999D01*
X317237D01*
G01X287116Y161364D02*
X289081D01*
X296226Y154219D01*
X317050D01*
X320251Y151018D01*
G01X320074Y191116D02*
X312235Y183277D01*
Y181998D01*
X311314Y181077D01*
X309583D01*
X309454Y180948D01*
X309412D01*
X308358Y179894D01*
Y179852D01*
X307314Y178808D01*
Y178412D01*
X306013Y177111D01*
G01X321532Y189236D02*
Y186759D01*
X315151Y180378D01*
Y178260D01*
X310792Y173901D01*
X306074D01*
X302864Y177111D01*
G01X290419Y124724D02*
X292398Y126703D01*
Y129396D01*
X291174Y130620D01*
X276618D01*
X273126Y127128D01*
X265873D01*
X264600Y128401D01*
G01X283968Y127574D02*
X280251Y123857D01*
X260492D01*
X258191Y121556D01*
G01X296566Y170811D02*
X298965Y173210D01*
X303504D01*
X306397Y170317D01*
X310245D01*
X318378Y178450D01*
Y179976D01*
X320845Y182443D01*
X323665D01*
G01X323056Y179345D02*
X312616Y168905D01*
X304542D01*
X302634Y170813D01*
X299716D01*
G01X306455Y166709D02*
X309639D01*
X310262Y167332D01*
X317240D01*
X320907Y170999D01*
Y172684D01*
X326575Y178352D01*
X330522D01*
G01X311008Y165421D02*
X318213D01*
X323127Y170335D01*
Y172200D01*
X327448Y176521D01*
X331630D01*
X333029Y177920D01*
G01X302864Y167663D02*
X306934Y163593D01*
X319966D01*
X325235Y168862D01*
Y171376D01*
X328480Y174621D01*
X333164D01*
G01X295879Y166862D02*
X300502D01*
X305503Y161861D01*
X321246D01*
X327714Y168329D01*
Y171124D01*
X329309Y172719D01*
X330727D01*
X331570Y171876D01*
X333370D01*
G01X334021Y168994D02*
X332221D01*
X323167Y159940D01*
X317142D01*
X315191Y157989D01*
X306819D01*
X305504Y159304D01*
X301929D01*
X299716Y161517D01*
Y164514D01*
G01X303835Y157244D02*
X305108Y155971D01*
X321102D01*
X323217Y153856D01*
X325367D01*
X327200Y155689D01*
Y158784D01*
X332840Y164424D01*
Y166720D01*
G01X316554Y238322D02*
X304496Y250380D01*
X301919D01*
G01X335014Y227526D02*
X330880Y231660D01*
X319901D01*
X306300Y245261D01*
X301919D01*
G01X319848Y202845D02*
X318164Y201161D01*
X310717D01*
X303168Y193612D01*
Y192330D01*
X301034Y190196D01*
Y182090D01*
X302864Y180260D01*
G01X319934Y200218D02*
X319936Y200216D01*
Y200109D01*
X319136Y199309D01*
X311631D01*
X304950Y192628D01*
Y191715D01*
X302864Y189629D01*
Y186559D01*
G01X317829Y197434D02*
X313098D01*
X304664Y189000D01*
Y185210D01*
X302864Y183410D01*
G01X319895Y195634D02*
X314282D01*
X306600Y187952D01*
Y185797D01*
X306013Y185210D01*
Y183410D01*
G01X323319Y193798D02*
X317871D01*
X317816Y193743D01*
X316491D01*
X315437Y192689D01*
Y191364D01*
X312107Y188034D01*
X309412D01*
X308358Y186980D01*
Y182605D01*
X306013Y180260D01*
G01X343476Y217374D02*
Y221757D01*
X345385Y223666D01*
Y230368D01*
X337727Y238026D01*
X324734D01*
X321505Y241255D01*
Y250738D01*
X328134Y257367D01*
X337560D01*
X341395Y261202D01*
G01X335308Y223327D02*
X336872Y224891D01*
Y230378D01*
X331351Y235899D01*
X323703D01*
X316502Y243100D01*
Y252029D01*
X324773Y260300D01*
X330043D01*
X333579Y263836D01*
X342699D01*
X345333Y261202D01*
G01X331264Y241802D02*
X329329Y243737D01*
X326113D01*
X324178Y241802D01*
G01X305712Y267336D02*
Y269512D01*
X322918Y286718D01*
X330528D01*
G01X308163Y312082D02*
X312100D01*
G01X359890Y276713D02*
X355493Y281110D01*
X327787D01*
X320596Y273919D01*
G01X308697Y266689D02*
X311365Y269357D01*
X355852D01*
X358090Y271595D01*
X359890D01*
G01X369225Y210961D02*
X367082Y213104D01*
Y230048D01*
X371202Y234168D01*
G01X358484Y245982D02*
X360442Y247940D01*
X363612D01*
X365570Y245982D01*
G01X345355Y220440D02*
X354509Y229594D01*
X362556D01*
X368930Y235968D01*
X372229D01*
X378819Y242558D01*
Y244358D01*
G01X341417Y223668D02*
X343560Y225811D01*
Y228611D01*
X341417Y230754D01*
G01X365570Y249920D02*
X363443Y252047D01*
X360611D01*
X358484Y249920D01*
G01X383705Y254570D02*
Y239895D01*
X370492Y226682D01*
Y215779D01*
G01X359715Y264447D02*
X370214Y274946D01*
Y278438D01*
G01X375591Y264873D02*
Y269521D01*
X378819Y272749D01*
G01X375591Y280625D02*
X376864Y281898D01*
Y282608D01*
X378819Y284563D01*
G54D14*
X11092Y223203D03*
Y257219D03*
G54D23*
X225946Y322698D03*
X252915Y326628D03*
X279884Y322698D03*
G54D15*
X23400Y81400D03*
X433107Y147268D03*
X433114Y187582D03*
G54D24*
X325719Y7098D03*
Y25602D03*
Y44106D03*
X355619Y7098D03*
Y25602D03*
Y44106D03*
G54D25*
X377369Y4304D03*
X385243D03*
X393117D03*
X377369Y22020D03*
X385243D03*
X393117D03*
G54D16*
X40377Y168057D03*
Y187743D03*
G54D17*
X25462Y228794D03*
Y251628D03*
X234829Y25457D03*
X304412D03*
X281578D03*
X257663D03*
X297730Y312769D03*
X320564D03*
G54D26*
X394554Y240200D03*
Y280500D03*
X422113Y240200D03*
Y280500D03*
G54D27*
G01X51029Y140240D02*
X55900Y145111D01*
Y166124D01*
X52280Y169744D01*
G01X65759Y173247D02*
X63056Y175950D01*
Y189730D01*
X65006Y191680D01*
G01X320441Y267337D02*
X313298Y260194D01*
Y253725D01*
G01X358484Y242044D02*
X349785Y250743D01*
X327647D01*
X324178Y247274D01*
G01X370214Y270442D02*
X368516Y268744D01*
Y264530D01*
X374560Y258486D01*
Y245402D01*
X371202Y242044D01*
G01X365570Y238106D02*
X367268Y239804D01*
X368962D01*
X371202Y242044D01*
G01X365570Y238106D02*
X362985Y235521D01*
X359848D01*
X358484Y236885D01*
Y238106D01*
G54D18*
X27549Y223203D03*
Y257219D03*
G54D28*
G01X321682Y11135D02*
X325719Y7098D01*
G01Y12525D02*
Y7098D01*
G01X329756Y11135D02*
X325719Y7098D01*
G01X331146D02*
X325719D01*
G01X320292D02*
X325719D01*
G54D19*
X87512Y287321D03*
X69796D03*
X165449Y63390D03*
X183165D03*
X337069Y181623D03*
X354785D03*
G54D29*
G01X229238Y22905D02*
Y27544D01*
G01D02*
Y32183D01*
G01X226174Y27544D02*
X229238D01*
G01D02*
X232302D01*
G01X226174Y22905D02*
X229238Y27544D01*
G01D02*
X232302Y32183D01*
G01X226174D02*
X229238Y27544D01*
G01D02*
X232302Y22905D01*
G01X321682Y3061D02*
X325719Y7098D01*
G01D02*
X329756Y3061D01*
G01X325719Y7098D02*
X327959Y12349D01*
G01X320468Y4858D02*
X325719Y7098D01*
G01X263254Y22905D02*
Y27544D01*
G01D02*
Y32183D01*
G01X260190Y27544D02*
X263254D01*
G01D02*
X266318D01*
G01X260190Y22905D02*
X263254Y27544D01*
G01X260190Y32183D02*
X263254Y27544D01*
G01D02*
X266318Y22905D01*
G01X266301Y305941D02*
Y309793D01*
G01D02*
Y313645D01*
G01X262449Y309793D02*
X266301D01*
G01D02*
X270153D01*
G01X263377Y306869D02*
X266301Y309793D01*
G01D02*
X269225Y312717D01*
G01X263377D02*
X266301Y309793D01*
G01D02*
X269225Y306869D01*
M02*
