G04 ================== begin FILE IDENTIFICATION RECORD ==================*
G04 Layout Name:  G:/project_development/GitHub/StarrySky/PCB/V2.1/STARRYSKY.brd*
G04 Film Name:    BOTTOM*
G04 File Format:  Gerber RS274X*
G04 File Origin:  Cadence Allegro 16.6-2015-S066*
G04 Origin Date:  Sat Sep 23 14:58:55 2023*
G04 *
G04 Layer:  VIA CLASS/BOTTOM*
G04 Layer:  PIN/BOTTOM*
G04 Layer:  ETCH/BOTTOM*
G04 Layer:  BOARD GEOMETRY/OUTLINE*
G04 *
G04 Offset:    (0.00 0.00)*
G04 Mirror:    No*
G04 Mode:      Positive*
G04 Rotation:  0*
G04 FullContactRelief:  No*
G04 UndefLineWidth:     0.01*
G04 ================== end FILE IDENTIFICATION RECORD ====================*
%FSLAX55Y55*MOIN*%
%IR0*IPPOS*OFA0.00000B0.00000*MIA0B0*SFA1.00000B1.00000*%
%ADD12C,.018*%
%ADD33R,.02008X.02008*%
%ADD35C,.05157*%
%ADD22C,.03583*%
%ADD19C,.0748*%
%ADD34C,.05906*%
%ADD20C,.02795*%
%ADD13C,.06693*%
%ADD29C,.09449*%
%ADD11C,.06299*%
%ADD27R,.00787X.02756*%
%ADD15R,.06299X.06299*%
%ADD23R,.02756X.00787*%
%ADD28C,.12205*%
%ADD10C,.16142*%
%ADD24C,.17323*%
%ADD37R,.05X.04488*%
%ADD32R,.02756X.05118*%
%ADD31R,.03937X.05512*%
%ADD25O,.04724X.07087*%
%ADD18R,.05118X.02756*%
%ADD17R,.05512X.03937*%
%ADD14O,.07087X.04724*%
%ADD36R,.05906X.01772*%
%ADD26O,.04724X.07874*%
%ADD21O,.07874X.04724*%
%ADD30R,.04724X.07874*%
%ADD16R,.07874X.04724*%
%ADD38C,.02*%
%ADD39C,.014*%
%ADD40C,.016*%
%ADD41C,.006*%
%ADD42C,.008*%
%ADD51C,.02604*%
%ADD45C,.07302*%
%ADD46C,.0616*%
%ADD43C,.02804*%
%ADD48C,.0691*%
%ADD66R,.0376X.12814*%
%ADD52C,.04586*%
%ADD61R,.03758X.12813*%
%ADD59C,.08666*%
%ADD50C,.03798*%
%ADD54C,.07696*%
%ADD60C,.07878*%
%ADD58C,.07879*%
%ADD47C,.10452*%
%ADD49C,.13208*%
%ADD44R,.07302X.07302*%
%ADD63R,.03164X.0356*%
%ADD57C,.18902*%
%ADD53C,.18326*%
%ADD56R,.03364X.0376*%
%ADD55R,.03366X.0376*%
%ADD68R,.09664X.0376*%
%ADD67R,.09666X.0376*%
%ADD65O,.05726X.08876*%
%ADD62R,.03758X.09664*%
%ADD64O,.05728X.08878*%
G75*
%LPD*%
G75*
G36*
G01X424000Y336396D02*
G02X437996Y322400I0J-13996D01*
G01Y16000D01*
G02X424000Y2004I-13996J0D01*
G01X396471D01*
G02X396123Y2601I0J400D01*
G03X390111I-3006J1703D01*
G02X389763Y2004I-348J-197D01*
G01X388597D01*
G02X388249Y2601I0J400D01*
G03X382237I-3006J1703D01*
G02X381889Y2004I-348J-197D01*
G01X380723D01*
G02X380375Y2601I0J400D01*
G03X374363I-3006J1703D01*
G02X374015Y2004I-348J-197D01*
G01X358720D01*
G02X358500Y2738I0J400D01*
G03X352738I-2881J4360D01*
G02X352518Y2004I-220J-334D01*
G01X328820D01*
G02X328600Y2738I0J400D01*
G03X322838I-2881J4360D01*
G02X322618Y2004I-220J-334D01*
G01X187846D01*
G02X187492Y2589I0J400D01*
G03X185004I-1244J647D01*
G02X184650Y2004I-354J-185D01*
G01X180322D01*
G02X179968Y2589I0J400D01*
G03X177480I-1244J647D01*
G02X177126Y2004I-354J-185D01*
G01X171488D01*
G02X171134Y2589I0J400D01*
G03X168646I-1244J647D01*
G02X168292Y2004I-354J-185D01*
G01X163964D01*
G02X163610Y2589I0J400D01*
G03X161122I-1244J647D01*
G02X160768Y2004I-354J-185D01*
G01X16000D01*
G02X2004Y16000I0J13996D01*
G01Y322400D01*
G02X16000Y336396I13996J0D01*
G01X424000D01*
G37*
%LPC*%
G75*
G36*
G01X197663Y16040D02*
X179825D01*
G02Y19242I0J1601D01*
G01X185749D01*
G03X186130Y19766I0J400D01*
G02Y20634I1333J434D01*
G03X185749Y21158I-381J124D01*
G01X179825D01*
G02Y24360I0J1601D01*
G01X196362D01*
X197513Y25511D01*
G03X197537Y26050I-283J283D01*
G02X199512Y28025I1077J898D01*
G03X200051Y28049I256J307D01*
G01X207560Y35558D01*
Y37077D01*
X209210Y38727D01*
Y48861D01*
G03X208527Y49144I-400J0D01*
G01X202991Y43608D01*
X194175D01*
X185610Y35044D01*
X181334D01*
G03X180999Y34425I0J-400D01*
G02X178640Y32909I-1174J-766D01*
G03X178020Y32978I-338J-214D01*
G01X172190Y27149D01*
Y27132D01*
X170198Y25140D01*
X170181D01*
X169551Y24510D01*
G03X169602Y23901I283J-283D01*
G02X169776Y21764I-813J-1142D01*
G03Y21195I282J-285D01*
G02X167802I-987J-995D01*
G03Y21764I-282J284D01*
G02X167390Y22845I987J995D01*
G03X166990Y23270I-399J25D01*
G01X156876D01*
X150001Y30144D01*
X144343D01*
G02Y33348I0J1602D01*
G01X145991D01*
G03X146391Y33741I0J400D01*
G02X146397Y33863I1601J-18D01*
G01X146398Y33872D01*
Y34082D01*
X144343D01*
G02Y37284I0J1601D01*
G01X145991D01*
G03X146391Y37678I0J400D01*
G02X147992Y39252I1601J-27D01*
G01X149593D01*
X163979Y53638D01*
X184614D01*
X196120Y65144D01*
X198007D01*
X198811Y65948D01*
G02X201075Y63684I1132J-1132D01*
G01X200771Y63379D01*
G03X200912Y63038I141J-141D01*
G01X202502D01*
G02X202948Y62974I-2J-1602D01*
G03X203460Y63358I112J384D01*
G01Y64816D01*
G02X206662I1601J0D01*
G01Y63358D01*
G03X207174Y62974I400J0D01*
G02X209222Y61436I446J-1538D01*
G01Y57707D01*
G03X209904Y57424I400J0D01*
G01X212091Y59610D01*
G03X212014Y60236I-283J283D01*
G02X211774Y62453I725J1200D01*
G01X211776Y62455D01*
X211919Y62598D01*
X211704Y62813D01*
Y63408D01*
G03X211055Y63721I-400J0D01*
G02Y65911I-875J1095D01*
G03X211704Y66224I249J313D01*
G01Y68381D01*
X208893Y71192D01*
G03X208611I-141J-142D01*
G02X206220Y72266I-991J992D01*
G03X205821Y72690I-399J24D01*
G01X205671D01*
X203929Y74432D01*
G02X206193Y76696I1132J1132D01*
G01X206997Y75892D01*
X208722D01*
X212005Y72609D01*
X212147Y72751D01*
G02X214411Y72750I1131J-1133D01*
G01X215215Y71946D01*
X215241D01*
X218700Y68488D01*
Y62666D01*
G03X219392Y62393I400J0D01*
G02Y60479I1024J-957D01*
G03X218700Y60206I-292J-273D01*
G01Y58541D01*
X215336Y55178D01*
Y36602D01*
G03X215786Y36205I400J0D01*
G02X215359Y33548I175J-1391D01*
G01X215232Y33608D01*
X197663Y16040D01*
G37*
G36*
G01X56057Y112854D02*
X53594D01*
X43606Y122842D01*
Y164264D01*
G03X42967Y164585I-400J0D01*
G02Y171530I-2590J3473D01*
G03X43606Y171851I239J321D01*
G01Y177430D01*
X54178Y188002D01*
X55240D01*
Y188280D01*
X61360D01*
Y184520D01*
X55226D01*
X54996Y184290D01*
G03X55137Y183948I141J-142D01*
G01X61360D01*
Y180190D01*
X55226D01*
X54997Y179960D01*
G03X55138Y179618I141J-142D01*
G01X61360D01*
Y175860D01*
X58935D01*
Y175520D01*
X59066Y175472D01*
G02X59446Y175288I-765J-2064D01*
G01X61360D01*
Y171528D01*
X59446D01*
G02X59066Y171344I-1145J1880D01*
G01X58935Y171296D01*
Y170956D01*
X61360D01*
Y167198D01*
X57504D01*
X52430Y162123D01*
Y143650D01*
X54430Y141649D01*
Y139666D01*
G03X55076Y139350I400J0D01*
G02X56057Y139686I982J-1266D01*
G01X57194D01*
X59348Y141840D01*
Y149622D01*
X59096Y149874D01*
X55240D01*
Y153634D01*
X61360D01*
Y152139D01*
X62552Y150948D01*
Y148222D01*
G03X63234Y147939I400J0D01*
G01X63852Y148556D01*
X66310D01*
X70373Y144494D01*
X72005Y146126D01*
G03X71722Y146808I-283J282D01*
G01X69348D01*
X67610Y148547D01*
Y151473D01*
X68879Y152742D01*
G02X70011Y153212I1133J-1131D01*
G01X72852D01*
Y154153D01*
X71367Y155638D01*
X63577D01*
X62422Y154484D01*
X61360D01*
Y154206D01*
X55240D01*
Y157964D01*
X61374D01*
X61604Y158195D01*
G03X61463Y158536I-141J141D01*
G01X55240D01*
Y162296D01*
X61374D01*
X61842Y162764D01*
X72901D01*
X79428Y156236D01*
Y140890D01*
X68022Y129483D01*
X69580Y127924D01*
Y123860D01*
X67555Y121834D01*
X57585D01*
X57534Y121712D01*
G02X56057Y120730I-1477J620D01*
G01X54184D01*
G03X54043Y120389I0J-200D01*
G01X54436Y119996D01*
X56057D01*
G02Y116792I0J-1602D01*
G01X54668D01*
G03X54527Y116451I0J-200D01*
G01X54920Y116058D01*
X56057D01*
G02Y112854I0J-1602D01*
G37*
G36*
G01X265760Y129189D02*
G02X263784Y129541I-1160J-788D01*
G03X263833Y130149I-233J325D01*
G01X260000Y133982D01*
Y142588D01*
X270731Y153318D01*
X278114D01*
Y154530D01*
X276277D01*
X274008Y156798D01*
Y163118D01*
X276537Y165646D01*
G02X276671Y165767I1139J-1126D01*
G03X276705Y166362I-249J313D01*
G01X276537Y166531D01*
G02X276987Y169112I1132J1132D01*
G03X277037Y169808I-170J362D01*
G02X278808Y171657I715J1088D01*
G03X279470Y171675I325J234D01*
G02X281950Y171943I1348J-864D01*
G01X283558Y170336D01*
X285116D01*
G03X285516Y170751I0J400D01*
G02X287116Y172412I1600J60D01*
G01X292731D01*
X295811Y175492D01*
X301676D01*
G03X301955Y176179I0J400D01*
G02X303773I909J932D01*
G03X304052Y175492I279J-287D01*
G01X304825D01*
G03X305104Y176179I0J400D01*
G02X307306Y177267I909J932D01*
G03X307529Y177092I199J23D01*
G02X309105Y175694I174J-1391D01*
G01Y175492D01*
X310142D01*
X310872Y176222D01*
X312580D01*
Y180240D01*
X316338D01*
Y173790D01*
X318893D01*
G02Y170586I0J-1602D01*
G01X317646D01*
X316929Y169870D01*
X315654D01*
G03X315521Y169520I0J-200D01*
G02X315787Y169216I-1063J-1198D01*
G01X316338D01*
Y159552D01*
X312580D01*
Y160420D01*
X311961D01*
G03X311564Y159969I0J-400D01*
G02X311523Y159408I-1390J-180D01*
G03X311908Y158900I385J-108D01*
G01X314459D01*
G02X315787Y158193I0J-1601D01*
G01X316338D01*
Y155750D01*
X320251D01*
G02X321249Y152896I0J-1601D01*
G03Y152270I250J-313D01*
G02X321383Y149886I-998J-1252D01*
G01X318739Y147242D01*
X316338D01*
Y146954D01*
X312580D01*
Y150972D01*
X311650D01*
G03X311319Y150347I0J-400D01*
G02X309068Y148679I-1161J-787D01*
G03X308475Y148710I-310J-252D01*
G01X307162Y147397D01*
X307214Y147273D01*
G02X304731Y146997I-1201J-503D01*
G01X304734Y147014D01*
Y147232D01*
X304143D01*
Y147014D01*
X304146Y146997D01*
G02X301563Y146817I-1282J-227D01*
G03X301163Y147232I-400J15D01*
G01X290570D01*
X289449Y146110D01*
X285568D01*
Y142073D01*
X277245Y133750D01*
X272684D01*
G03X272285Y133363I0J-400D01*
G02X272261Y133135I-1601J53D01*
G03X272387Y132913I197J-35D01*
G02X271822Y129814I-565J-1498D01*
G01X266091D01*
G03X265760Y129189I0J-400D01*
G37*
G36*
G01X304923Y141183D02*
G02X304899Y139797I1090J-712D01*
G03X304222Y139808I-342J-207D01*
G02X304246Y141194I-1090J712D01*
G03X304923Y141183I342J207D01*
G37*
G36*
G01X282240Y118818D02*
G02Y120180I-1225J681D01*
G03X282940I350J194D01*
G02Y118818I1225J-681D01*
G03X282240I-350J-194D01*
G37*
G36*
G01X302875Y119343D02*
G02X301740Y120326I-1343J-403D01*
G03X302187Y120822I60J396D01*
G02X303302Y119855I1260J327D01*
G03X302875Y119343I-44J-397D01*
G37*
G36*
G01X277101Y126054D02*
X276928Y126031D01*
Y122702D01*
X273563D01*
Y126460D01*
X275297D01*
G03X275681Y126974I0J400D01*
G02X277101Y126054I1248J371D01*
G37*
G36*
G01X286278Y126361D02*
Y122801D01*
X283112D01*
Y126593D01*
G02X285112Y126952I856J981D01*
G03X285463Y126361I351J-191D01*
G01X286278D01*
G37*
G36*
G01X311741Y135300D02*
G03X311537Y135136I-7J-200D01*
G02X310018Y136784I-1379J253D01*
G01X310198Y136802D01*
Y138120D01*
X311343Y139266D01*
G03X311060Y139948I-283J282D01*
G01X310420D01*
X309026Y141343D01*
G02X311290Y143607I1132J1132D01*
G01X311746Y143152D01*
X312580D01*
Y144020D01*
X313131D01*
G02X314459Y144726I1328J-896D01*
G01X318227D01*
G02Y141524I0J-1601D01*
G01X316338D01*
Y140655D01*
X315787D01*
G02X315447Y140290I-1327J896D01*
G03Y139660I247J-315D01*
G02X315787Y139295I-987J-1261D01*
G01X316338D01*
Y138426D01*
X317237D01*
G02Y135224I0J-1601D01*
G01X314459D01*
G02X313361Y135659I-1J1601D01*
G03X312829Y135674I-274J-291D01*
G02X311741Y135300I-1030J1226D01*
G37*
G36*
G01X299809Y142321D02*
G03X299439Y141951I29J-399D01*
G02X298047Y143345I-1299J95D01*
G03X298417Y143715I-29J399D01*
G02X299809Y142321I1299J-95D01*
G37*
G36*
G01X382359Y148456D02*
X358234Y172581D01*
Y175774D01*
G02X359835Y177376I1601J1D01*
G01X366639D01*
X380028Y190764D01*
G02X382292Y188500I1132J-1132D01*
G01X367965Y174172D01*
X362137D01*
G03X361854Y173490I0J-400D01*
G01X384623Y150720D01*
G02X382359Y148456I-1132J-1132D01*
G37*
G36*
G01X86910Y188571D02*
G03X86335Y188544I-274J-291D01*
G02X86243Y190489I-1054J925D01*
G03X86818Y190516I274J291D01*
G02X86910Y188571I1054J-925D01*
G37*
G36*
G01X92815D02*
G03X92240Y188544I-274J-291D01*
G02X92149Y190489I-1053J925D01*
G03X92724Y190516I274J291D01*
G02X94823Y190525I1053J-925D01*
G03X95395Y190499I299J266D01*
G02X95308Y188543I959J-1023D01*
G03X94736Y188569I-299J-266D01*
G02X92815Y188571I-959J1022D01*
G37*
G36*
G01X105751Y207137D02*
X104704Y206090D01*
X101503D01*
G02X100175Y206796I0J1602D01*
G01X99624D01*
Y207664D01*
X98725D01*
G02X97737Y210526I0J1602D01*
G03Y211156I-247J315D01*
G02X98725Y214018I988J1260D01*
G01X99624D01*
Y214886D01*
X100175D01*
G02X101503Y215592I1328J-896D01*
G01X104281D01*
G02X105269Y212731I0J-1601D01*
G03Y212101I247J-315D01*
G02X105626Y209971I-988J-1260D01*
G03X105693Y209457I335J-218D01*
G02X105751Y207137I-1074J-1188D01*
G37*
G36*
G01X115429Y206796D02*
G02X114101Y206090I-1328J896D01*
G01X110900D01*
X109853Y207137D01*
G02X109911Y209457I1132J1132D01*
G03X109978Y209971I-268J296D01*
G02X110335Y212101I1345J870D01*
G03Y212731I-247J315D01*
G02X111323Y215592I988J1260D01*
G01X114101D01*
G02X115429Y214886I0J-1602D01*
G01X115980D01*
Y214018D01*
X116879D01*
G02X117867Y211156I0J-1602D01*
G03Y210526I247J-315D01*
G02X116879Y207664I-988J-1260D01*
G01X115980D01*
Y206796D01*
X115429D01*
G37*
G36*
G01X53659Y261020D02*
X73156Y241523D01*
Y237484D01*
G02X69954I-1601J0D01*
G01Y240197D01*
X51395Y258756D01*
G02X50970Y259512I1131J1133D01*
G03X50299Y259701I-389J-94D01*
G01X44170Y253572D01*
Y242097D01*
X47700Y238567D01*
Y219882D01*
X49436D01*
G02Y215480I0J-2201D01*
G01X45498D01*
G02X43296Y217681I-1J2201D01*
G01Y236743D01*
X39766Y240273D01*
Y255396D01*
X50074Y265704D01*
G02X53188Y262590I1557J-1557D01*
G01X52714Y262116D01*
G03X52903Y261445I283J-282D01*
G02X53659Y261020I-377J-1556D01*
G37*
G36*
G01X77410Y256759D02*
G03X77557Y257418I-136J376D01*
G01X77052Y257923D01*
Y285164D01*
G02X80256I1602J0D01*
G01Y259249D01*
X81263Y258242D01*
X82400D01*
G02X83542Y257762I-1J-1601D01*
G03X84079Y257731I286J280D01*
G02Y255549I880J-1091D01*
G03X83542Y255518I-251J-311D01*
G02X82400Y255038I-1143J1121D01*
G01X79937D01*
X79865Y255110D01*
G03X79206Y254963I-283J-283D01*
G02X77410Y256759I-1318J478D01*
G37*
G36*
G01X93945Y255653D02*
G03X93376I-285J-282D01*
G02Y257627I-995J987D01*
G03X93945I284J282D01*
G02Y255653I995J-987D01*
G37*
G36*
G01X9910Y220340D02*
G02Y226066I0J2863D01*
G01X12274D01*
G02Y220340I0J-2863D01*
G01X9910D01*
G37*
G36*
G01Y254356D02*
G02Y260082I0J2863D01*
G01X12274D01*
G02Y254356I0J-2863D01*
G01X9910D01*
G37*
G36*
G01X25974Y220340D02*
G02Y226066I0J2863D01*
G01X29124D01*
G02Y220340I0J-2863D01*
G01X25974D01*
G37*
G36*
G01Y254356D02*
G02Y260082I0J2863D01*
G01X29124D01*
G02Y254356I0J-2863D01*
G01X25974D01*
G37*
G36*
G01X266118Y9906D02*
G02X260390I-2864J0D01*
G01Y12268D01*
G02X266118I2864J0D01*
G01Y9906D01*
G37*
G36*
G01X232102D02*
G02X226374I-2864J0D01*
G01Y12268D01*
G02X232102I2864J0D01*
G01Y9906D01*
G37*
G36*
G01X312866D02*
G02X307140I-2863J0D01*
G01Y12268D01*
G02X312866I2863J0D01*
G01Y9906D01*
G37*
G36*
G01X278850D02*
G02X273124I-2863J0D01*
G01Y12268D01*
G02X278850I2863J0D01*
G01Y9906D01*
G37*
G36*
G01X295002Y325958D02*
G02X289276I-2863J0D01*
G01Y328320D01*
G02X295002I2863J0D01*
G01Y325958D01*
G37*
G36*
G01X329018D02*
G02X323292I-2863J0D01*
G01Y328320D01*
G02X329018I2863J0D01*
G01Y325958D01*
G37*
G36*
G01X96753Y154606D02*
X97896Y155750D01*
X98484D01*
Y157161D01*
G03X97801Y157444I-400J0D01*
G01X94965Y154608D01*
X88805D01*
G03X88406Y154201I1J-400D01*
G02X85630Y154452I-1402J-26D01*
G03X85494Y154683I-196J40D01*
G02X84843Y155078I481J1527D01*
G01X83941Y155980D01*
G02X83472Y157112I1132J1132D01*
G01Y158006D01*
G03X83070Y158406I-400J0D01*
G02X81853Y160510I-4J1402D01*
G01X81930Y160643D01*
X80188Y162386D01*
Y169758D01*
X81873Y171444D01*
X85129D01*
X86868Y169705D01*
Y169668D01*
G03X87209Y169526I200J0D01*
G01X88134Y170450D01*
G02X89266Y170920I1133J-1131D01*
G01X92807D01*
X93385Y171498D01*
X98484D01*
Y172525D01*
X99624Y173665D01*
Y180240D01*
X103382D01*
Y180074D01*
G03X103724Y179933I200J0D01*
G01X104764Y180972D01*
Y181511D01*
X104065Y182209D01*
G03X103382Y181926I-283J-283D01*
G01Y181600D01*
X99624D01*
Y184102D01*
G03X98969Y184410I-400J0D01*
G02Y186574I-892J1082D01*
G03X99624Y186882I255J308D01*
G01Y188114D01*
X103382D01*
Y185703D01*
G03X103954Y185342I400J0D01*
G02X105775Y185028I688J-1446D01*
G01X106911Y183893D01*
G03X107520Y183944I283J283D01*
G02X107618Y184069I1308J-924D01*
G03X107600Y184615I-301J263D01*
G01X105800Y186415D01*
Y195612D01*
G02X106802Y197097I1601J0D01*
G03X106935Y197751I-150J371D01*
G01X106269Y198418D01*
G02X108533Y200682I1132J1132D01*
G01X110930Y198286D01*
Y188802D01*
X111880Y187852D01*
G03X112222Y187993I142J141D01*
G01Y188114D01*
X115980D01*
Y186233D01*
G03X116663Y185950I400J0D01*
G01X124884Y194170D01*
G02X127331Y193952I1132J-1132D01*
G01X127391Y193866D01*
X131666D01*
X131970Y194170D01*
G02X134548Y193726I1132J-1132D01*
G02X134594Y192455I-1446J-689D01*
G03X134966Y191910I372J-145D01*
G01X135541D01*
X138271Y194640D01*
X138431D01*
G03X138821Y195129I0J400D01*
G02X141555I1367J313D01*
G03X141945Y194640I390J-89D01*
G01X143416D01*
G02Y191436I0J-1602D01*
G01X139597D01*
X136867Y188706D01*
X130069D01*
X129015Y187652D01*
X128105Y186742D01*
X122372Y181010D01*
Y176911D01*
X118481Y173020D01*
X117386D01*
Y153523D01*
X115980Y152117D01*
Y150104D01*
X112222D01*
Y152122D01*
X106006D01*
X105956Y151994D01*
G02X104463Y150972I-1493J580D01*
G01X103382D01*
Y150104D01*
X102831D01*
G02X102565Y149800I-1329J894D01*
G01X102462Y149708D01*
X102559Y149450D01*
X105503D01*
X107959Y146995D01*
G03X108642Y147277I283J283D01*
G02X109111Y148405I1601J-4D01*
G01X110156Y149450D01*
X114101D01*
G02X115429Y148744I0J-1602D01*
G01X115980D01*
Y148623D01*
G03X116322Y148482I200J0D01*
G01X118235Y150394D01*
G02X120499Y148130I1132J-1132D01*
G01X119954Y147584D01*
G03X120095Y146927I282J-283D01*
G02X119528Y143828I-567J-1498D01*
G01X118391D01*
X117661Y143098D01*
X115980D01*
Y142230D01*
X112222D01*
Y146248D01*
X111482D01*
X111375Y146141D01*
G02X109751Y145749I-1133J1132D01*
G03X109228Y145368I-123J-381D01*
G01Y138437D01*
X109319Y138347D01*
G03X109999Y138584I283J283D01*
G02X111590Y140002I1591J-184D01*
G01X112222D01*
Y140870D01*
X112773D01*
G02X114101Y141576I1328J-896D01*
G01X116879D01*
G02X117867Y138715I0J-1601D01*
G03Y138085I247J-315D01*
G02X116879Y135224I-988J-1260D01*
G01X114101D01*
G02X112773Y135930I0J1602D01*
G01X112219D01*
G03X112077Y135589I0J-200D01*
G01X113114Y134552D01*
Y129632D01*
X109844Y126362D01*
X99023D01*
G02X97707Y127052I1J1602D01*
G03X97095Y127107I-329J-228D01*
G01X88672Y118684D01*
X82038D01*
G02X80911Y121423I0J1601D01*
G03Y121708I-141J142D01*
G02X80906Y123977I1127J1137D01*
G01X81053Y124125D01*
X80911Y124267D01*
G02X80906Y124273I1222J1024D01*
G01X76484Y128695D01*
Y136962D01*
X87397Y147876D01*
X99624D01*
Y148744D01*
X100175D01*
G02X100441Y149048I1329J-894D01*
G01X100544Y149140D01*
X100447Y149398D01*
X97189D01*
G02X96286Y152322I0J1601D01*
G03X96425Y152816I-226J330D01*
G02X96753Y154606I1460J658D01*
G37*
G36*
G01X169016Y142846D02*
Y143359D01*
G02X169486Y144491I1601J-1D01*
G01X171088Y146094D01*
X173542D01*
Y147885D01*
G02X174012Y149017I1601J-1D01*
G01X175614Y150620D01*
X178070D01*
X180136Y148553D01*
X181833Y150250D01*
X195020D01*
Y151770D01*
X188497D01*
X186808Y153459D01*
Y155254D01*
G02X187277Y156386I1601J0D01*
G01X188077Y157186D01*
G02X189209Y157656I1133J-1131D01*
G01X191322D01*
Y157860D01*
G02X191791Y159010I1601J18D01*
G01X193056Y160275D01*
G03X192957Y160913I-283J283D01*
G02X192096Y162266I739J1421D01*
G03X191414Y162532I-400J-17D01*
G01X190929Y162048D01*
G02X188845Y161892I-1133J1132D01*
G01X188706Y161994D01*
X186786Y160075D01*
G02X184522Y162339I-1132J1132D01*
G01X184780Y162598D01*
G03X184639Y162940I-141J142D01*
G01X183521D01*
G02X182043Y165158I0J1601D01*
G03X181948Y165415I-184J78D01*
G02X181220Y166151I713J1434D01*
G03X180577Y166260I-360J-174D01*
G01X180158Y165841D01*
Y156005D01*
X176582Y152430D01*
X164179D01*
X160904Y155704D01*
Y160111D01*
X160914Y160121D01*
Y193269D01*
G03X160346Y193632I-400J0D01*
G02Y196174I-591J1271D01*
G03X160914Y196537I168J363D01*
G01Y205575D01*
X173962Y218622D01*
X207165D01*
G03X207448Y219305I0J400D01*
G01X201701Y225052D01*
X176453D01*
X160079Y241426D01*
X113095D01*
X111769Y242752D01*
X83939D01*
X80798Y245893D01*
Y249002D01*
G02X84002I1602J0D01*
G01Y247219D01*
X85265Y245956D01*
X92197D01*
G03X92480Y246638I0J400D01*
G01X91249Y247870D01*
G02X93513Y250134I1132J1132D01*
G01X95418Y248230D01*
X95736D01*
G03X96127Y248712I0J400D01*
G02X98871I1372J290D01*
G03X99262Y248230I391J-82D01*
G01X100396D01*
G03X100788Y248704I-1J400D01*
G02X100760Y249002I1574J298D01*
G01Y251804D01*
X103986Y255029D01*
G03X103973Y255607I-283J283D01*
G02X103926Y255653I957J1024D01*
G03X103357I-284J-282D01*
G02Y257627I-995J987D01*
G03X103926I285J282D01*
G02X105954Y257588I995J-987D01*
G03X106532Y257575I295J270D01*
G01X121584Y272628D01*
X192053D01*
G03X192451Y273058I-1J400D01*
G02X194417Y271881I1398J105D01*
G03X194296Y271233I162J-366D01*
G01X199694Y265834D01*
X224582D01*
Y266034D01*
G02X227386I1402J-1D01*
G01Y265834D01*
X233380D01*
G03X233663Y266517I0J400D01*
G01X221802Y278378D01*
X108194D01*
X106452Y280121D01*
G02X108716Y282385I1132J1132D01*
G01X109520Y281582D01*
X223128D01*
X236381Y268328D01*
X241806D01*
X242192Y267943D01*
G03X242769Y267954I283J282D01*
G02X245079Y268001I1178J-1085D01*
G01X249962Y263119D01*
G03X250601Y263218I283J282D01*
G02X251392Y261250I1246J-642D01*
G03X250862Y260872I-130J-379D01*
G01Y257690D01*
G03X251545Y257407I400J0D01*
G01X262140Y268001D01*
G02X263176Y268468I1133J-1131D01*
G03X263552Y268867I-24J399D01*
G01Y273201D01*
X265902Y275551D01*
G02X268166Y273287I1132J-1132D01*
G01X266754Y271875D01*
Y264358D01*
X254012Y251616D01*
Y248634D01*
G03X254601Y248282I400J1D01*
G02X256487Y248001I753J-1413D01*
G01X256749Y247740D01*
G03X257367Y247805I283J283D01*
G02X260290Y247193I1343J-872D01*
G03X260751Y246864I395J65D01*
G02X262325Y246204I263J-1580D01*
G03X262877Y246104I327J230D01*
G02X263277Y246302I904J-1323D01*
G01X263414Y246347D01*
Y259635D01*
X267027Y263247D01*
G02X269759Y262052I1132J-1132D01*
G03X269924Y261847I200J-8D01*
G02X270977Y261155I-282J-1577D01*
G03X271593Y261094I333J221D01*
G01X271818Y261319D01*
Y286823D01*
X288723Y303728D01*
X323835D01*
X325743Y305636D01*
G03X325545Y306309I-283J282D01*
G02X323292Y309107I611J2798D01*
G01Y312257D01*
G02X329018I2863J0D01*
G01Y309877D01*
G03X329701Y309594I400J0D01*
G01X330364Y310256D01*
Y314077D01*
X345127Y328840D01*
X354684D01*
G02Y325638I0J-1601D01*
G01X346453D01*
X333566Y312751D01*
Y308712D01*
X346965D01*
X358082Y319830D01*
Y327239D01*
G02X361286I1602J0D01*
G01Y318504D01*
X348291Y305510D01*
X333329D01*
X324190Y296370D01*
X310546D01*
X309942Y295766D01*
X310317Y295392D01*
X342068D01*
X343552Y296875D01*
G02X346279Y295602I1132J-1132D01*
G03X346961Y295284I399J-35D01*
G01X348552Y296875D01*
G02X350816Y294611I1132J-1132D01*
G01X347373Y291167D01*
G03X347656Y290484I283J-283D01*
G01X349692D01*
X359303Y280874D01*
X360788D01*
Y287508D01*
X357240D01*
G02X355977Y287958I1J2002D01*
G01X355922Y288004D01*
X355738D01*
Y288188D01*
X355692Y288243D01*
G02Y290775I1551J1266D01*
G01X355738Y290830D01*
Y291014D01*
X355922D01*
X355977Y291060D01*
G02X357240Y291510I1264J-1552D01*
G01X360788D01*
Y293456D01*
X363443D01*
G02X364243Y293670I800J-1388D01*
G01X367520D01*
X368706Y294856D01*
G03Y295138I-142J141D01*
G02X370689Y297121I992J991D01*
G01X370830Y296980D01*
X391512Y317661D01*
Y318851D01*
G02X394250Y319979I1601J0D01*
G01X394309Y319920D01*
X394592D01*
Y320306D01*
G02X397794I1601J0D01*
G01Y319771D01*
G03X398188Y319371I400J0D01*
G02X399647Y318370I-26J-1601D01*
G03X400301Y318237I371J149D01*
G01X400967Y318902D01*
G02X403231Y316638I1132J-1132D01*
G01X392872Y306279D01*
Y303457D01*
X390711Y301296D01*
X389689D01*
X382746Y294352D01*
G03X383029Y293670I283J-282D01*
G01X387077D01*
G02X387877Y293456I0J-1602D01*
G01X390532D01*
Y291510D01*
X394080D01*
G02X395343Y291060I-1J-2002D01*
G01X395398Y291014D01*
X395582D01*
Y290830D01*
X395628Y290775D01*
G02X396024Y289044I-1551J-1266D01*
G03X396413Y288552I389J-92D01*
G01X397712D01*
X405418Y280846D01*
Y265610D01*
X404233Y264426D01*
X404232Y264425D01*
G02X404204Y264397I-1146J1118D01*
G01X404203Y264396D01*
X385614Y245807D01*
Y240626D01*
X373342Y228354D01*
X349456D01*
X346858Y230952D01*
X342819D01*
Y230752D01*
G02X340015I-1402J2D01*
G01Y230952D01*
X334185D01*
X330027Y226794D01*
X299418D01*
G03X299022Y226338I0J-400D01*
G02X296246I-1388J-198D01*
G03X295850Y226794I-396J56D01*
G01X294411D01*
X292406Y228799D01*
G03X291765Y228694I-283J-283D01*
G02X289135Y229599I-1256J623D01*
G03X288744Y230078I-392J79D01*
G01X287737D01*
X286457Y228798D01*
G03X286739Y228115I283J-283D01*
G01X287952D01*
Y227563D01*
G02X288658Y226235I-896J-1328D01*
G01Y211595D01*
X291617Y208636D01*
X292754D01*
G02X294315Y207392I0J-1601D01*
G03X294988Y207199I390J90D01*
G01X303382Y215592D01*
X314459D01*
G02X315787Y214886I0J-1602D01*
G01X316338D01*
Y203647D01*
X312580D01*
Y206090D01*
X312033D01*
X310630Y204686D01*
G03X310631Y204119I283J-283D01*
G02X311045Y203185I-987J-996D01*
G01X311053Y202994D01*
X314459D01*
G02X315787Y202287I0J-1601D01*
G01X316338D01*
Y199112D01*
G03X316956Y198777I400J0D01*
G02X317829Y199036I873J-1342D01*
G01X318092D01*
G03X318460Y199592I0J400D01*
G02X318799Y201347I1474J626D01*
G01X318939Y201489D01*
X318716Y201713D01*
G02X320212Y204405I1132J1132D01*
G03X320678Y204932I90J390D01*
G02X320542Y205692I2066J762D01*
G01Y218740D01*
X323833Y222030D01*
X329599D01*
X332936Y218693D01*
Y204263D01*
X337185Y200014D01*
X349379D01*
X363893Y185501D01*
G03X364576Y185783I283J283D01*
G01Y204302D01*
X362142Y206736D01*
X358868D01*
X351630Y213974D01*
Y220440D01*
G02X354832I1601J0D01*
G01Y215300D01*
X360194Y209938D01*
X363468D01*
X367778Y205628D01*
Y191348D01*
G03X368451Y191055I400J0D01*
G02Y189001I954J-1027D01*
G03X367778Y188708I-273J-293D01*
G01Y179748D01*
G02X364576I-1601J0D01*
G01Y180509D01*
X364254D01*
X364198Y180400D01*
G02X360038Y181406I-1958J1006D01*
G01Y183129D01*
X359865Y183302D01*
G03X359524Y183160I-141J-142D01*
G01Y179048D01*
X355122Y174647D01*
Y164128D01*
G03X355710Y163775I400J0D01*
G02Y161299I658J-1238D01*
G03X355122Y160946I-188J-353D01*
G01Y154117D01*
X362082Y147158D01*
Y134621D01*
X350892Y123432D01*
Y122558D01*
G03X351511Y122223I400J0D01*
G02Y119877I768J-1173D01*
G03X350892Y119542I-219J-335D01*
G01Y118621D01*
G03X351511Y118286I400J0D01*
G02Y115940I768J-1173D01*
G03X350892Y115605I-219J-335D01*
G01Y114684D01*
G03X351511Y114349I400J0D01*
G02Y112003I768J-1173D01*
G03X350892Y111668I-219J-335D01*
G01Y109078D01*
X352246Y107724D01*
Y105667D01*
G03X352697Y105270I400J0D01*
G02Y102488I176J-1391D01*
G03X352246Y102091I-51J-397D01*
G01Y98148D01*
X354005Y96389D01*
G02X351741Y94125I-1132J-1132D01*
G01X349044Y96822D01*
Y102250D01*
G03X348473Y102612I-400J0D01*
G02Y105146I-600J1267D01*
G03X349044Y105508I171J362D01*
G01Y106398D01*
X347690Y107752D01*
Y124758D01*
X358878Y135947D01*
Y137472D01*
G03X358358Y137853I-400J0D01*
G02X356741Y138247I-485J1526D01*
G01X354394Y140594D01*
X354113D01*
G03X353958Y140267I0J-200D01*
G02X351820Y140304I-1085J-888D01*
G03X351802Y140851I-301J264D01*
G01X349082Y143571D01*
Y145895D01*
G03X348400Y146178I-400J0D01*
G01X302924Y100703D01*
Y96502D01*
X300154Y93732D01*
G02X297427Y95005I-1132J1132D01*
G03X296745Y95323I-399J35D01*
G01X295154Y93732D01*
G02X292890Y95996I-1132J1132D01*
G01X294582Y97688D01*
Y101908D01*
X315123Y122450D01*
X316821D01*
X328912Y134541D01*
G03X328629Y135224I-283J283D01*
G01X327057D01*
G02X325729Y135930I0J1602D01*
G01X325178D01*
Y136798D01*
X324279D01*
G02X323291Y139660I0J1602D01*
G03Y140290I-247J315D01*
G02X324279Y143152I988J1260D01*
G01X325178D01*
Y144020D01*
X325729D01*
G02X327057Y144726I1328J-896D01*
G01X329835D01*
G02Y141524I0J-1601D01*
G01X328936D01*
Y140655D01*
X328385D01*
G02X328045Y140290I-1327J896D01*
G03Y139660I247J-315D01*
G02X328385Y139295I-987J-1261D01*
G01X328936D01*
Y138426D01*
X329835D01*
G02X331240Y137594I0J-1602D01*
G03X331874Y137503I351J192D01*
G01X342782Y148410D01*
Y161138D01*
G03X342129Y161448I-400J0D01*
G02Y163626I-883J1089D01*
G03X342782Y163936I253J310D01*
G01Y180457D01*
X337698Y185540D01*
X334826D01*
G02X333245Y187398I0J1602D01*
G03X332902Y187858I-395J63D01*
G02X331661Y188763I208J1588D01*
G03X330974Y188826I-362J-170D01*
G02X329447Y188296I-1139J817D01*
G03X328936Y187912I-111J-385D01*
G01Y185670D01*
X329835D01*
G02Y182468I0J-1601D01*
G01X328936D01*
Y181600D01*
X328385D01*
G02X328045Y181235I-1327J896D01*
G03Y180605I247J-315D01*
G02X328385Y180240I-987J-1261D01*
G01X328936D01*
Y179372D01*
X329277D01*
X329390Y179484D01*
G02X331829Y179278I1133J-1132D01*
G03X332107Y179230I163J116D01*
G02X334161Y176788I921J-1310D01*
G01X333962Y176588D01*
G03X334029Y175969I283J-282D01*
G02X334406Y173610I-865J-1348D01*
G03X334447Y173061I310J-253D01*
G02X334684Y170961I-1077J-1185D01*
G03X334814Y170385I329J-229D01*
G02X334495Y167464I-793J-1391D01*
G03X334364Y167212I59J-191D01*
G02X334426Y166500I-1524J-491D01*
G03X334821Y166046I396J-54D01*
G01X335567D01*
G02Y162842I0J-1602D01*
G01X335311D01*
Y162617D01*
X335317Y162592D01*
Y162591D01*
G02X334898Y161060I-1551J-398D01*
G01X334386Y160548D01*
X334127D01*
G03X333738Y160054I0J-400D01*
G02X331049Y158549I-1557J-372D01*
G01X329619Y159978D01*
G03X328936Y159695I-283J-283D01*
G01Y159552D01*
X328385D01*
G02X327057Y158846I-1328J896D01*
G01X325564D01*
Y158193D01*
X328936D01*
Y154174D01*
X336806D01*
X337049Y153932D01*
X338186D01*
G02Y150728I0J-1602D01*
G01X335723D01*
X335480Y150972D01*
X328936D01*
Y146954D01*
X325178D01*
Y153828D01*
G03X324615Y154193I-400J0D01*
G02X322362Y155656I-651J1463D01*
G01Y160294D01*
X324116Y162048D01*
X325178D01*
Y169216D01*
X325729D01*
G02X327057Y169922I1328J-896D01*
G01X330293D01*
G03X330576Y170605I0J400D01*
G01X329737Y171444D01*
X328936D01*
Y170576D01*
X325178D01*
Y177744D01*
X323056D01*
G02X322334Y180774I0J1601D01*
G03X322455Y181393I-181J357D01*
G02X322533Y183575I1210J1049D01*
G01X323054Y184096D01*
X325178D01*
Y187192D01*
X321311D01*
X320400Y188104D01*
G02X319934Y189334I1132J1132D01*
G03X319772Y189543I-200J13D01*
G02X320074Y192718I302J1573D01*
G01X321437D01*
G03X321813Y193253I0J400D01*
G02X321723Y193666I1506J545D01*
G03X321325Y194032I-398J-34D01*
G01X319895D01*
G02X318294Y195633I0J1601D01*
G01X318293Y195832D01*
X317829D01*
G02X316956Y196091I0J1601D01*
G03X316338Y195756I-218J-335D01*
G01Y192623D01*
X312580D01*
Y193492D01*
X309464D01*
X303896Y187923D01*
G03X303870Y187386I283J-283D01*
G02X302037Y185553I-1006J-827D01*
G03X301500Y185527I-254J-309D01*
G01X288845Y172872D01*
X279643D01*
X276537Y175979D01*
G02X276680Y178371I1132J1133D01*
G03Y179000I-247J314D01*
G02X276537Y179128I995J1255D01*
G01X274328Y181337D01*
Y187098D01*
G03X273844Y187489I-400J0D01*
G02X273757Y187473I-297J1370D01*
G01X273586Y187448D01*
Y163089D01*
X271372Y160875D01*
X271469Y160737D01*
G02X268921Y159918I-1146J-807D01*
G01X268919Y160116D01*
X255156D01*
G03X254792Y159552I1J-400D01*
G02X252238I-1277J-578D01*
G03X251874Y160116I-365J164D01*
G01X247258D01*
X234402Y172972D01*
X232306D01*
G03X232023Y172290I0J-400D01*
G01X252377Y151936D01*
X252521Y152080D01*
X252522Y152081D01*
G02X254502Y150097I1001J-981D01*
G03X254501Y149812I140J-143D01*
G01X257162Y147150D01*
Y126461D01*
X261180D01*
Y122701D01*
X259832D01*
G03X259468Y122136I0J-400D01*
G02X256914I-1277J-580D01*
G03X256550Y122701I-364J165D01*
G01X251516D01*
Y123253D01*
G02X251151Y123593I896J1327D01*
G03X250521I-315J-247D01*
G02X250156Y123253I-1261J987D01*
G01Y122701D01*
X240492D01*
Y123253D01*
G02X240127Y123592I894J1329D01*
G03X239498I-315J-247D01*
G02X239134Y123253I-1260J988D01*
G01Y122701D01*
X229468D01*
Y123253D01*
G02X229104Y123593I898J1326D01*
G03X228474I-315J-247D01*
G02X228110Y123253I-1262J986D01*
G01Y122701D01*
X216870D01*
Y123253D01*
G02X216567Y123517I892J1330D01*
G03X216218Y123384I-149J-133D01*
G01Y120447D01*
X215282Y119511D01*
G03X215300Y118928I283J-283D01*
G02X215421Y116949I-929J-1050D01*
G03X215438Y116401I300J-265D01*
G01X216218Y115621D01*
Y111983D01*
G02X215512Y110655I-1602J0D01*
G01Y109760D01*
X216870D01*
Y113863D01*
X217587D01*
G03X217869Y114547I0J400D01*
G02X217657Y116266I988J994D01*
G03X217469Y116841I-343J206D01*
G02X219077Y119043I540J1294D01*
G03X219692Y119050I305J259D01*
G02X219713Y117259I1089J-883D01*
G03X219098Y117252I-305J-259D01*
G02X219078Y117228I-1087J885D01*
G03X219184Y116904I153J-129D01*
G02X219845Y114547I-327J-1363D01*
G03X220127Y113863I282J-284D01*
G01X221525D01*
G03X221807Y114547I0J400D01*
G02X223783I988J994D01*
G03X224065Y113863I282J-284D01*
G01X225463D01*
G03X225745Y114547I0J400D01*
G02X227721I988J994D01*
G03X228003Y113863I282J-284D01*
G01X228110D01*
Y113311D01*
G02X228474Y112971I-898J-1326D01*
G03X229104I315J247D01*
G02X229468Y113311I1262J-986D01*
G01Y113863D01*
X229809D01*
G03X230193Y114374I0J400D01*
G02X231246Y116132I1347J387D01*
G03X231555Y116598I-84J391D01*
G02X231531Y116918I1377J264D01*
G03X231064Y117328I-400J16D01*
G02X232228Y118654I-237J1382D01*
G03X232695Y118244I400J-16D01*
G02X232956Y118264I237J-1382D01*
G03X233362Y118674I6J400D01*
G02X234740Y117308I1402J36D01*
G03X234334Y116898I-6J-400D01*
G02X234311Y116607I-1402J-36D01*
G03X234655Y116138I393J-72D01*
G02X235655Y115519I-170J-1392D01*
G03X236325Y115522I334J220D01*
G02X238849Y114374I1177J-762D01*
G03X239134Y113876I384J-111D01*
G01Y113311D01*
G02X239498Y112972I-896J-1327D01*
G03X240127I314J247D01*
G02X240492Y113311I1259J-990D01*
G01Y113863D01*
X241034D01*
G03X241390Y114445I0J400D01*
G02X243886I1248J639D01*
G03X244242Y113863I356J-182D01*
G01X244971D01*
G03X245327Y114445I0J400D01*
G02X247823I1248J639D01*
G03X248179Y113863I356J-182D01*
G01X250156D01*
Y113311D01*
G02X250521Y112971I-896J-1327D01*
G03X251151I315J247D01*
G02X251516Y113311I1261J-987D01*
G01Y113863D01*
X253179D01*
G03X253461Y114547I0J400D01*
G02X255437I988J994D01*
G03X255719Y113863I282J-284D01*
G01X261180D01*
Y113311D01*
G02X261886Y111983I-896J-1328D01*
G01Y108664D01*
X261796Y108573D01*
X268632Y101736D01*
G02X269102Y100604I-1131J-1133D01*
G01Y99140D01*
G02X267617Y97543I-1601J0D01*
G03X267364Y96861I30J-399D01*
G01X268632Y95592D01*
G02X266368Y93328I-1132J-1132D01*
G01X264777Y94919D01*
G03X264095Y94601I-283J-283D01*
G02X261368Y93328I-1595J-141D01*
G01X259777Y94919D01*
G03X259095Y94601I-283J-283D01*
G02X256368Y93328I-1595J-141D01*
G01X254777Y94919D01*
G03X254095Y94601I-283J-283D01*
G02X251368Y93328I-1595J-141D01*
G01X249777Y94919D01*
G03X249095Y94601I-283J-283D01*
G02X246368Y93328I-1595J-141D01*
G01X244777Y94919D01*
G03X244095Y94601I-283J-283D01*
G02X241368Y93328I-1595J-141D01*
G01X239098Y95597D01*
Y100549D01*
X239786Y101236D01*
Y101738D01*
G03X239103Y102021I-400J0D01*
G01X236230Y99149D01*
Y95926D01*
X233632Y93328D01*
G02X230905Y94601I-1132J1132D01*
G03X230223Y94919I-399J35D01*
G01X228632Y93328D01*
G02X225905Y94601I-1132J1132D01*
G03X225223Y94919I-399J35D01*
G01X223632Y93328D01*
G02X221368Y95592I-1132J1132D01*
G01X222698Y96923D01*
Y97339D01*
G03X222498Y97539I-200J0D01*
G02X220902Y99243I2J1601D01*
G03X220503Y99668I-399J25D01*
G01X186991D01*
X185986Y98663D01*
Y95681D01*
X183632Y93328D01*
G02X180905Y94601I-1132J1132D01*
G03X180223Y94919I-399J35D01*
G01X178632Y93328D01*
G02X175905Y94601I-1132J1132D01*
G03X175223Y94919I-399J35D01*
G01X173632Y93328D01*
G02X171368Y95592I-1132J1132D01*
G01X173054Y97279D01*
Y97574D01*
X172834D01*
X172815Y97570D01*
G02X170898Y99140I-316J1570D01*
G01Y100853D01*
X179805Y109760D01*
X190517D01*
G03X190882Y110322I0J400D01*
G02X190792Y111187I1281J570D01*
G03X190401Y111670I-391J83D01*
G01X177711D01*
X162647Y96607D01*
G02X160383Y98871I-1132J1132D01*
G01X171610Y110099D01*
G03X171517Y110734I-283J283D01*
G02X170782Y112052I665J1235D01*
G03X170383Y112476I-399J24D01*
G01X161440D01*
G02X160043Y113294I0J1602D01*
G03X159365Y113326I-349J-195D01*
G02X159388Y114888I-1153J798D01*
G03X160066Y114900I335J218D01*
G02X161440Y115678I1374J-824D01*
G01X172202D01*
X172415Y115892D01*
G03X172274Y116234I-141J142D01*
G01X148488D01*
X143774Y111520D01*
X111697D01*
X100491Y100314D01*
X89742D01*
X81105Y91676D01*
X75697D01*
G03X75418Y90990I0J-400D01*
G02X73462I-978J-1004D01*
G03X73183Y91676I-279J286D01*
G01X52608D01*
X45973Y98312D01*
G02X45570Y99900I1132J1132D01*
G01X45604Y100014D01*
X43704Y101915D01*
Y105253D01*
X45482Y107032D01*
X51143D01*
X52555Y105620D01*
X67061D01*
G03X67460Y106042I0J400D01*
G02X70260I1400J79D01*
G03X70659Y105620I399J-22D01*
G01X75541D01*
X76900Y104260D01*
X77516D01*
X82487Y109232D01*
X95878D01*
X111957Y125310D01*
X142081D01*
X143167Y124224D01*
X180520D01*
G03X180803Y124907I0J400D01*
G01X180334Y125376D01*
Y127340D01*
X178801D01*
G02X177669Y127809I0J1601D01*
G01X177380Y128097D01*
G03X176698Y127814I-282J-283D01*
G01Y127732D01*
X174583Y125618D01*
X166099D01*
X163826Y127891D01*
Y130916D01*
X165977Y133068D01*
G03X165694Y133750I-283J282D01*
G01X163020D01*
X160578Y136193D01*
Y140554D01*
X162837Y142814D01*
X168565D01*
X168675Y142704D01*
G03X169016Y142846I141J142D01*
G37*
G54D51*
X306013Y143620D03*
X302864Y127874D03*
X296566D03*
X290469Y128920D03*
X306013Y124724D03*
X290419D03*
X287116Y127872D03*
X299714Y121575D03*
X306013Y180260D03*
Y183410D03*
X302864D03*
Y180260D03*
X287116Y134171D03*
X280818D03*
X299716D03*
X306013Y127874D03*
Y131023D03*
X299714D03*
X302864Y134173D03*
X296566Y124724D03*
X299714Y180260D03*
G54D45*
X433114Y179708D03*
X433107Y139394D03*
X266301Y309793D03*
Y299950D03*
X247797Y309793D03*
X258033D03*
X239529D03*
Y299950D03*
X23400Y111400D03*
Y121400D03*
Y91400D03*
Y101400D03*
X13400Y111400D03*
Y121400D03*
Y81400D03*
Y91400D03*
Y101400D03*
G54D46*
X422113Y280500D03*
Y240200D03*
X394554D03*
G54D43*
X105962Y59495D03*
X121155Y198656D03*
X159826Y217150D03*
X138277Y202615D03*
X429071Y122624D03*
X434071D03*
Y117624D03*
X429071D03*
X428770Y94613D03*
X433770D03*
Y99613D03*
X428770D03*
Y71613D03*
X433770D03*
Y76613D03*
X428770D03*
X422507Y272058D03*
X417563Y294870D03*
X422113Y288942D03*
X354684Y300096D03*
X369662Y326960D03*
X370492Y215779D03*
X345355Y220440D03*
X373263Y190028D03*
X388611Y211244D03*
X395269D03*
X359605Y223686D03*
X422507Y231758D03*
X400727Y199549D03*
X422113Y248642D03*
X417957Y266130D03*
X417563Y254570D03*
X417957Y225830D03*
X369225Y210961D03*
X383473Y203993D03*
X379573Y207637D03*
Y203993D03*
X371809Y133446D03*
X395314Y184954D03*
X395823Y144940D03*
X415091Y141788D03*
X395269Y171518D03*
X388611D03*
X372201Y175810D03*
X373263Y147664D03*
X369405D03*
X400766Y159667D03*
X415091Y145646D03*
X415093Y181752D03*
Y185610D03*
X364090Y113176D03*
X360153D03*
X356216D03*
Y117113D03*
X360153D03*
X364090D03*
Y121050D03*
X360153D03*
X356216D03*
X418770Y114385D03*
Y122613D03*
X414832D03*
X407832D03*
X424071Y122624D03*
Y117624D03*
X379573Y167711D03*
X383473Y164067D03*
X379573D03*
X362516Y95395D03*
X366453D03*
X370390D03*
Y91458D03*
X366453D03*
X362516D03*
Y87521D03*
X366453D03*
X370390D03*
X374327D03*
X378264D03*
X347873Y95257D03*
X357873D03*
X359057Y73554D03*
X362994D03*
X366931D03*
X370868D03*
Y69617D03*
X366931D03*
X362994D03*
X359057D03*
Y65680D03*
X362994D03*
X366931D03*
X370868D03*
X357873Y59257D03*
Y103879D03*
X352873Y63649D03*
X347873D03*
X368300Y52122D03*
X373300D03*
X378300D03*
X383300D03*
X388300D03*
Y47122D03*
X383300D03*
X378300D03*
X373300D03*
X368300D03*
Y42122D03*
X373300D03*
X378300D03*
X383300D03*
X388300D03*
X418770Y91385D03*
Y99613D03*
X414832D03*
X407832D03*
X418770Y68385D03*
Y76613D03*
X414832D03*
X407832D03*
X423770Y99613D03*
Y94613D03*
Y71613D03*
Y76613D03*
X308163Y312082D03*
X312100D03*
X267745Y278422D03*
X264517Y284764D03*
X335308Y223327D03*
X343476Y217374D03*
X341417Y223668D03*
X339013Y220440D03*
X341417Y227526D03*
X335014D03*
X265630Y120536D03*
X310158Y123149D03*
Y179148D03*
Y186234D03*
X332083Y146765D03*
X339106Y128263D03*
X332873Y95257D03*
X342873D03*
X337873D03*
X327873D03*
X294022Y63264D03*
X299022D03*
X304022D03*
X309022D03*
X342873Y63649D03*
X337873D03*
X332873D03*
X327873D03*
X309022Y94864D03*
X269432Y38619D03*
X265494D03*
X206053Y273163D03*
X256042Y278857D03*
X241313Y280826D03*
X214528Y275568D03*
X253694Y274560D03*
X231616Y277099D03*
X220160Y269226D03*
X257492Y153069D03*
X252647Y118528D03*
X248543Y118710D03*
X244606D03*
X240669D03*
X253828Y155052D03*
X188135Y33915D03*
X210180Y79917D03*
X215298Y75564D03*
X220416D03*
X251811Y74444D03*
X229165Y56576D03*
X253747Y80350D03*
X247493D03*
X195767Y69286D03*
X221996Y72514D03*
X233386Y78381D03*
X262222D03*
X245262Y34062D03*
X249199D03*
X187463Y28541D03*
X202502Y72145D03*
X199943Y75564D03*
X192366Y30411D03*
X217500Y94460D03*
X187500D03*
X212500D03*
X207500D03*
X202500D03*
X197500D03*
X192500D03*
X224400Y62200D03*
X239018Y74443D03*
X242693Y26059D03*
X245975D03*
X182486Y5916D03*
X236107Y18148D03*
X241107D03*
X246107D03*
X251107D03*
X256107D03*
Y13148D03*
X251107D03*
X246107D03*
X241107D03*
X236107D03*
Y8148D03*
X241107D03*
X246107D03*
X251107D03*
X256107D03*
X128150Y132131D03*
X123150D03*
X128007Y82971D03*
X144934Y65090D03*
X147888Y62593D03*
X135529Y67564D03*
X133780Y47063D03*
X130498D03*
X177282Y75752D03*
X109102Y87451D03*
Y102487D03*
X158287Y100143D03*
X105962Y43137D03*
X111810Y32776D03*
X154779Y55174D03*
X135529Y64336D03*
X129187D03*
X128007Y72971D03*
Y77971D03*
X125249Y64336D03*
X154779Y65454D03*
X144145Y82971D03*
X176850Y26779D03*
X161151Y17641D03*
X166128Y5916D03*
X148472Y17170D03*
X144534D03*
X61799Y296247D03*
X57973Y269779D03*
X83300Y304728D03*
X55457Y293019D03*
X36363Y291732D03*
X51519Y290615D03*
X65006Y191680D03*
X87518Y249002D03*
X88407Y218847D03*
X80371Y226723D03*
X77888Y229009D03*
X26149Y241195D03*
Y237258D03*
X77453Y237484D03*
Y243738D03*
X70403Y190501D03*
X71546Y252213D03*
X94867Y200406D03*
X65759Y173247D03*
X93391Y117572D03*
X67910Y115168D03*
X71391Y177185D03*
X60611Y54470D03*
X58046Y68788D03*
X64304Y54601D03*
X68634D03*
X38682Y93753D03*
X89860Y66687D03*
X85960Y63043D03*
X66447Y87591D03*
X6166Y290629D03*
X18125Y250590D03*
Y245590D03*
Y240590D03*
Y235590D03*
Y230590D03*
X13125D03*
Y235590D03*
Y240590D03*
Y245590D03*
Y250590D03*
X8125D03*
Y245590D03*
Y240590D03*
Y235590D03*
Y230590D03*
X6200Y264235D03*
X113467Y226921D03*
X138264Y173234D03*
X119218Y63918D03*
X401116Y304697D03*
X403718Y310816D03*
G54D48*
X393117Y22020D03*
X385243D03*
X377369D03*
G54D66*
X114101Y195881D03*
G54D52*
X337069Y181623D03*
X183165Y63390D03*
X165449D03*
X69796Y287321D03*
X87512D03*
G54D61*
X101503Y195880D03*
G54D59*
X40377Y187743D03*
G54D50*
X320564Y312769D03*
X297730D03*
X281578Y25457D03*
X304412D03*
X234829D03*
X257663D03*
X25462Y251628D03*
Y228794D03*
G54D54*
X136340Y287341D03*
X145355D03*
X154371D03*
X163387D03*
X172403D03*
X131832Y295136D03*
X140847D03*
X149863D03*
X158879D03*
X167895D03*
X136340Y302931D03*
X145355D03*
X154371D03*
X163387D03*
X172403D03*
G54D60*
X15426Y158487D03*
Y189983D03*
G54D58*
X301344Y322793D03*
X332840D03*
X45052Y15686D03*
X76548D03*
G54D47*
X355619Y44106D03*
Y25602D03*
X325719Y44106D03*
Y25602D03*
G54D49*
X279884Y322698D03*
X252915Y326628D03*
X225946Y322698D03*
G54D44*
X433114Y187582D03*
X433107Y147268D03*
X23400Y81400D03*
G54D63*
X279970Y124581D03*
G54D57*
X425000Y323400D03*
Y15000D03*
X15000Y323400D03*
Y15000D03*
G54D53*
X203588Y295136D03*
X105162D03*
G54D56*
X279970Y111983D03*
G54D55*
X270521Y124581D03*
X265797D03*
X284695Y111983D03*
X275245D03*
X270521D03*
X265797D03*
G54D65*
X310003Y27544D03*
X275987D03*
X292139Y310682D03*
G54D62*
X314459Y186432D03*
G54D64*
X263254Y27544D03*
X229238D03*
%LPD*%
G75*
G36*
G01X78591Y95562D02*
X85420Y102392D01*
X86325D01*
G02X86608Y101709I0J-400D01*
G01X79779Y94880D01*
X78874D01*
G02X78591Y95562I0J400D01*
G37*
G36*
G01X99624Y140002D02*
X96930D01*
X90890Y133962D01*
G02X90208Y134245I-282J283D01*
G01Y135382D01*
X88406Y137185D01*
X92744Y141524D01*
X100308D01*
G02X100441Y141174I0J-200D01*
G03X100175Y140870I1063J-1198D01*
G01X99624D01*
Y140002D01*
G37*
G36*
G01X62791Y159183D02*
X63168Y159560D01*
X71575D01*
X71952Y159183D01*
G02X71811Y158842I-141J-141D01*
G01X62932D01*
G02X62791Y159183I0J200D01*
G37*
G36*
G01X64739Y132492D02*
X67470Y135224D01*
Y137062D01*
X69146Y138737D01*
Y141194D01*
X71602D01*
X75543Y145134D01*
G02X76226Y144851I283J-283D01*
G01Y142216D01*
X65819Y131810D01*
X65022D01*
G02X64739Y132492I0J400D01*
G37*
G36*
G01X54430Y135728D02*
Y136502D01*
G02X55076Y136818I400J0D01*
G03X56057Y136482I982J1266D01*
G01X58520D01*
X62552Y140514D01*
Y142294D01*
G02X63234Y142577I400J0D01*
G01X65845Y139966D01*
X64268Y138388D01*
Y136550D01*
X62968Y135250D01*
X59017D01*
X58520Y135748D01*
X56057D01*
G03X55076Y135412I1J-1602D01*
G02X54430Y135728I-246J316D01*
G37*
G36*
G01X159044Y28649D02*
G03X157018Y30587I-1035J946D01*
G02X156735I-141J141D01*
G01X153923Y33399D01*
G02X154206Y34082I283J283D01*
G01X159349D01*
G02X159749Y33677I0J-400D01*
G03X162487Y34084I1402J-18D01*
G01X162450Y34200D01*
X162647Y34397D01*
G02X163330Y34114I283J-283D01*
G01Y29559D01*
X162970Y29200D01*
G02X162346Y29274I-283J283D01*
G03X159749Y28518I-1195J-733D01*
G01Y28314D01*
X159192D01*
G02X159044Y28649I0J200D01*
G37*
G36*
G01X169914Y29401D02*
X169772Y29541D01*
G03X169633Y29661I-984J-999D01*
G02Y29980I120J159D01*
G03X169776Y32095I-844J1119D01*
G02Y32664I282J284D01*
G03X169816Y34614I-987J996D01*
G02X169821Y34891I146J136D01*
G01X178388Y43458D01*
G02X178927Y43482I283J-283D01*
G03X180902Y45457I898J1077D01*
G02X180926Y45996I307J256D01*
G01X181112Y46182D01*
X186498D01*
G02X186786Y45505I0J-400D01*
G03X186685Y43676I1009J-973D01*
G02X186611Y43114I-317J-244D01*
G03X186475Y41005I852J-1114D01*
G02X186476Y40439I-282J-283D01*
G01X184284Y38246D01*
X183238D01*
G02X182840Y38681I1J400D01*
G03X180046I-1397J120D01*
G02X179648Y38246I-399J-35D01*
G01X178759D01*
X169914Y29401D01*
G37*
G36*
G01X153120Y37284D02*
G02X152837Y37967I0J400D01*
G01X165305Y50436D01*
X173190D01*
G02X173473Y49753I0J-400D01*
G01X171643Y47923D01*
G02X170966Y48139I-283J283D01*
G03X169351Y46524I-1383J-232D01*
G02X169567Y45847I-67J-394D01*
G01X168927Y45207D01*
G02X168302Y45283I-283J283D01*
G03X166377Y43358I-1201J-724D01*
G02X166453Y42733I-207J-342D01*
G01X161005Y37284D01*
X153120D01*
G37*
G36*
G01X167028Y129217D02*
Y129590D01*
X169221Y131782D01*
X172439D01*
G03X172964Y131871I-1J1602D01*
G02X173494Y131493I130J-378D01*
G01Y129058D01*
X173257Y128820D01*
X167425D01*
X167028Y129217D01*
G37*
G36*
G01X183377Y217321D02*
G02X183742Y216758I0J-400D01*
G03X183813Y215476I1280J-572D01*
G02X183521Y214877I-345J-203D01*
G03X184912Y214198I183J-1390D01*
G02X185204Y214797I345J203D01*
G03X186302Y216758I-182J1390D01*
G02X186667Y217321I365J163D01*
G01X187315D01*
G02X187680Y216758I0J-400D01*
G03X190240I1280J-571D01*
G02X190605Y217321I365J163D01*
G01X195562D01*
G02X195961Y216937I-1J-400D01*
G03X198763I1401J58D01*
G02X199162Y217321I400J-16D01*
G01X199499D01*
G02X199898Y216937I-1J-400D01*
G03X202700I1401J58D01*
G02X203099Y217321I400J-16D01*
G01X203436D01*
G02X203835Y216937I-1J-400D01*
G03X206637I1401J58D01*
G02X207036Y217321I400J-16D01*
G01X207277D01*
Y217112D01*
X207276Y217104D01*
G03X209849Y216221I1397J-119D01*
G02X210467Y216286I335J-218D01*
G01X210740Y216014D01*
X211708D01*
Y215814D01*
G03X214509Y215909I1402J2D01*
G01X214503Y216000D01*
X215824Y217321D01*
X220071D01*
X220538Y217788D01*
X220581D01*
X221379Y218586D01*
X269323D01*
X272285Y215624D01*
Y211168D01*
G02X271774Y210784I-400J0D01*
G03Y208090I-388J-1347D01*
G02X272285Y207706I111J-384D01*
G01Y193402D01*
X272268Y193363D01*
G03Y192233I1283J-565D01*
G01X272285Y192194D01*
Y189464D01*
X272268Y189425D01*
G03Y188295I1283J-565D01*
G01X272285Y188256D01*
Y172957D01*
X272268Y172877D01*
Y172876D01*
G03Y171742I1282J-567D01*
G01X272285Y171703D01*
Y168410D01*
X272268Y168371D01*
G03Y167241I1283J-565D01*
G01X272285Y167202D01*
Y164472D01*
X272268Y164433D01*
G03X272190Y163533I1283J-565D01*
G01X271885Y163228D01*
X271665Y163448D01*
X271690Y163555D01*
G03X270200Y162471I-1367J313D01*
G02X270447Y161790I-36J-398D01*
G01X270075Y161418D01*
X258817D01*
X258763Y161534D01*
G03X256221I-1271J-591D01*
G01X256167Y161418D01*
X247797D01*
X234941Y174274D01*
X186750D01*
X184639Y172163D01*
X184583Y172150D01*
G03X184425Y172103I320J-1365D01*
G02X183894Y172540I-136J376D01*
G03X183309Y171602I-1386J213D01*
G01X183333Y171619D01*
X183380Y171635D01*
G02X183637Y171402I61J-190D01*
G01X183631Y171375D01*
X183623Y171356D01*
G03X183538Y171105I1279J-573D01*
G01X183525Y171049D01*
X178856Y166380D01*
Y156544D01*
X176043Y153731D01*
X164718D01*
X162206Y156243D01*
Y159572D01*
X162216Y159582D01*
Y205036D01*
X174501Y217321D01*
X179439D01*
G02X179804Y216758I0J-400D01*
G03X182364I1280J-571D01*
G02X182729Y217321I365J163D01*
G01X183377D01*
G37*
G36*
G01X182858Y230426D02*
X167319Y245964D01*
X167226D01*
G02X166827Y246332I0J400D01*
G03X164458Y247226I-1397J-116D01*
G02X164178Y247229I-138J144D01*
G01X163177Y248230D01*
X159148D01*
G02X158757Y248712I0J400D01*
G03X156013I-1372J290D01*
G02X155622Y248230I-391J-82D01*
G01X154725D01*
G02X154442Y248912I0J400D01*
G01X160083Y254553D01*
G02X160742Y254407I283J-282D01*
G03X161116Y253820I1505J546D01*
G01X165463Y249472D01*
X168021D01*
Y249273D01*
G03X170315Y248192I1402J1D01*
G02X170901Y248107I254J-309D01*
G03X171097Y247870I1326J897D01*
G01X187858Y231108D01*
G02X187575Y230426I-283J-282D01*
G01X182858D01*
G37*
G36*
G01X123319Y257627D02*
G03X123316Y257631I-1112J-831D01*
G01X123175Y257772D01*
X132328Y266926D01*
X135629D01*
G02X135912Y266243I0J-400D01*
G01X128904Y259234D01*
Y257846D01*
X121192Y250134D01*
G03X120750Y248704I1132J-1133D01*
G02X120358Y248230I-393J-74D01*
G01X119224D01*
G02X118833Y248712I0J400D01*
G03X116089I-1372J290D01*
G02X115698Y248230I-391J-82D01*
G01X114801D01*
G02X114518Y248912I0J400D01*
G01X115218Y249612D01*
Y249815D01*
X121051Y255648D01*
G02X121333I141J-142D01*
G03X123319Y255653I991J992D01*
G02X123888I285J-282D01*
G03Y257627I995J987D01*
G02X123319I-284J282D01*
G37*
G36*
G01X133300D02*
G03X132882Y257918I-997J-986D01*
G02X132764Y258565I165J364D01*
G01X138129Y263930D01*
X142701D01*
G02X142984Y263248I0J-400D01*
G01X138884Y259148D01*
Y257846D01*
X131173Y250134D01*
G03X130731Y248704I1132J-1133D01*
G02X130339Y248230I-393J-74D01*
G01X129205D01*
G02X128814Y248712I0J400D01*
G03X126070I-1372J290D01*
G02X125679Y248230I-391J-82D01*
G01X124782D01*
G02X124499Y248912I0J400D01*
G01X131267Y255680D01*
X131407Y255563D01*
G03X133300Y255653I897J1077D01*
G02X133869I284J-282D01*
G03Y257627I995J987D01*
G02X133300I-285J282D01*
G37*
G36*
G01X143281D02*
G03X142909Y257896I-996J-986D01*
G02X142803Y258537I177J359D01*
G01X146180Y261914D01*
X151004D01*
G02X151287Y261232I0J-400D01*
G01X148866Y258810D01*
Y257846D01*
X141154Y250134D01*
G03X140712Y248704I1132J-1133D01*
G02X140320Y248230I-393J-74D01*
G01X139186D01*
G02X138795Y248712I0J400D01*
G03X136051I-1372J290D01*
G02X135660Y248230I-391J-82D01*
G01X134763D01*
G02X134480Y248912I0J400D01*
G01X141248Y255680D01*
X141388Y255563D01*
G03X143281Y255653I897J1077D01*
G02X143850I284J-282D01*
G03Y257627I995J987D01*
G02X143281I-285J282D01*
G37*
G36*
G01X152998Y258413D02*
X154398Y259814D01*
X158658D01*
Y259614D01*
G03X159065Y258628I1402J2D01*
G02X159063Y258063I-284J-281D01*
G01X151135Y250134D01*
G03X150693Y248704I1132J-1133D01*
G02X150301Y248230I-393J-74D01*
G01X144744D01*
G02X144461Y248912I0J400D01*
G01X151100Y255551D01*
G02X151369Y255563I141J-142D01*
G03X153262Y255653I897J1077D01*
G02X153831I284J-282D01*
G03Y257627I995J987D01*
G02X153262I-285J282D01*
G03X153056Y257799I-997J-985D01*
G02X152998Y258413I225J331D01*
G37*
G36*
G01X166789Y252676D02*
X164875Y254590D01*
G02X165080Y255265I283J283D01*
G03X166177Y256344I-273J1375D01*
G02X166851Y256542I391J-85D01*
G01X170035Y253358D01*
G02X169752Y252676I-283J-282D01*
G01X166789D01*
G37*
G36*
G01X104328Y248230D02*
G02X103936Y248704I1J400D01*
G03X103964Y249002I-1574J298D01*
G01Y250478D01*
X110264Y256778D01*
G02X110946Y256527I283J-283D01*
G03X113338Y255653I1397J113D01*
G02X113907I284J-282D01*
G03Y257627I995J987D01*
G02X113338I-284J282D01*
G03X112456Y258037I-995J-987D01*
G02X112205Y258719I32J399D01*
G01X122910Y269424D01*
X129332D01*
G02X129615Y268742I0J-400D01*
G01X112014Y251141D01*
Y250938D01*
X111211Y250134D01*
G03X110769Y248704I1132J-1133D01*
G02X110377Y248230I-393J-74D01*
G01X109243D01*
G02X108852Y248712I0J400D01*
G03X106108I-1372J290D01*
G02X105717Y248230I-391J-82D01*
G01X104328D01*
G37*
G36*
G01X191599Y50068D02*
X201365Y59834D01*
X202502D01*
G03X202948Y59898I-2J1602D01*
G02X203460Y59514I112J-384D01*
G01Y53036D01*
G02X202949Y52652I-400J0D01*
G03X201773Y50144I-390J-1347D01*
G02X201832Y49531I-224J-331D01*
G01X201687Y49386D01*
X191882D01*
G02X191599Y50068I0J400D01*
G37*
G36*
G01X188235Y52730D02*
X197446Y61942D01*
X197977D01*
G02X198260Y61259I0J-400D01*
G01X189049Y52048D01*
X188518D01*
G02X188235Y52730I0J400D01*
G37*
G36*
G01X207601Y235856D02*
X194668Y248790D01*
G02X194951Y249472I283J282D01*
G01X195508D01*
G02X195908Y249057I1J-400D01*
G03X198710I1401J-55D01*
G02X199110Y249472I399J15D01*
G01X200172D01*
G02X200571Y249058I0J-400D01*
G03X201040Y247870I1601J-55D01*
G01X206850Y242060D01*
X209465D01*
G02X209865Y241650I0J-400D01*
G03X209864Y241611I1600J-61D01*
G01Y240713D01*
X208996D01*
Y240161D01*
G03X208290Y238833I896J-1328D01*
G01Y235856D01*
X207601D01*
G37*
G36*
G01X217792D02*
Y238833D01*
G03X217086Y240161I-1602J0D01*
G01Y240713D01*
X216218D01*
Y241611D01*
G03X216217Y241650I-1601J-22D01*
G02X216617Y242060I400J10D01*
G01X223303D01*
X223966Y241396D01*
G02X223684Y240713I-283J-283D01*
G01X221594D01*
Y240161D01*
G03X220888Y238833I896J-1328D01*
G01Y236494D01*
X220251Y235856D01*
X217792D01*
G37*
G36*
G01X229655Y245785D02*
X226845Y248594D01*
X224806D01*
X224611Y248790D01*
G02X224894Y249472I283J282D01*
G01X230115D01*
G02X230514Y249058I0J-400D01*
G01Y247278D01*
X230338Y247102D01*
Y246068D01*
G02X229655Y245785I-400J0D01*
G37*
G36*
G01X191013Y232482D02*
X174706Y248790D01*
G02X174989Y249472I283J282D01*
G01X175546D01*
G02X175946Y249057I1J-400D01*
G03X178748I1401J-55D01*
G02X179148Y249472I399J15D01*
G01X180210D01*
G02X180609Y249058I0J-400D01*
G03X181078Y247870I1601J-55D01*
G01X195782Y233165D01*
G02X195499Y232482I-283J-283D01*
G01X191013D01*
G37*
G36*
G01X199222Y234254D02*
X184687Y248790D01*
G02X184970Y249472I283J282D01*
G01X185527D01*
G02X185927Y249057I1J-400D01*
G03X188729I1401J-55D01*
G02X189129Y249472I399J15D01*
G01X190191D01*
G02X190590Y249058I0J-400D01*
G03X191059Y247870I1601J-55D01*
G01X203991Y234937D01*
G02X203708Y234254I-283J-283D01*
G01X199222D01*
G37*
G36*
G01X208176Y245262D02*
X204649Y248790D01*
G02X204932Y249472I283J282D01*
G01X205489D01*
G02X205889Y249057I1J-400D01*
G03X208691I1401J-55D01*
G02X209091Y249472I399J15D01*
G01X210153D01*
G02X210552Y249058I0J-400D01*
G03X211021Y247870I1601J-55D01*
G01X212945Y245945D01*
G02X212662Y245262I-283J-283D01*
G01X208176D01*
G37*
G36*
G01X216585Y246834D02*
X214630Y248790D01*
G02X214913Y249472I283J282D01*
G01X215470D01*
G02X215870Y249057I1J-400D01*
G03X218672I1401J-55D01*
G02X219072Y249472I399J15D01*
G01X220134D01*
G02X220533Y249058I0J-400D01*
G03X221002Y247870I1601J-55D01*
G01X221354Y247517D01*
G02X221071Y246834I-283J-283D01*
G01X216585D01*
G37*
G36*
G01X274344Y190025D02*
X274214Y190096D01*
G03X273757Y190247I-662J-1236D01*
G01X273586Y190272D01*
Y191386D01*
X273757Y191411D01*
G03Y194185I-206J1387D01*
G01X273586Y194210D01*
Y216163D01*
X269862Y219888D01*
X223646D01*
G02X223363Y220570I0J400D01*
G01X225666Y222874D01*
Y224355D01*
X232834D01*
Y228115D01*
X221594D01*
Y227563D01*
G03X220974Y225719I896J-1328D01*
G01X220984Y225688D01*
Y225302D01*
X219216Y223533D01*
G02X218553Y223689I-283J283D01*
G03X217627Y224587I-1330J-445D01*
G02X217432Y225223I115J383D01*
G03X217792Y226235I-1241J1012D01*
G01Y229013D01*
G03X217791Y229072I-1601J2D01*
G01Y229280D01*
X223256D01*
X226787Y232810D01*
G02X227470Y232527I283J-283D01*
G01Y231506D01*
X229426Y229550D01*
X234937D01*
X235688Y228798D01*
G02X235406Y228115I-283J-283D01*
G01X234192D01*
Y224355D01*
X243858D01*
Y228115D01*
X239840D01*
Y229176D01*
X238509Y230507D01*
G02X238792Y231190I283J283D01*
G01X240905D01*
X242230Y232514D01*
X242583D01*
Y232246D01*
X242541Y232192D01*
G03X243804Y229606I1263J-985D01*
G01X269209D01*
G02X269609Y229213I0J-400D01*
G03X269727Y228675I1402J26D01*
G02X269360Y228115I-367J-160D01*
G01X267264D01*
Y224355D01*
X276928D01*
Y228115D01*
X272662D01*
G02X272295Y228675I0J400D01*
G03X272066Y230161I-1284J563D01*
G01X273248Y231344D01*
Y233316D01*
G03X273245Y233426I-1601J11D01*
G02X273415Y233638I199J14D01*
G03X271954Y235647I-205J1387D01*
G01X271939Y235618D01*
X271775Y235453D01*
X271510Y235718D01*
X240904D01*
X239579Y234392D01*
X235447D01*
X232834Y237005D01*
Y237505D01*
G03X233199Y237844I-894J1329D01*
G02X233828I315J-247D01*
G03X234192Y237505I1260J988D01*
G01Y236953D01*
X243858D01*
Y237505D01*
G03X244222Y237845I-898J1326D01*
G02X244852I315J-247D01*
G03X245216Y237505I1262J986D01*
G01Y236953D01*
X254882D01*
Y240713D01*
X254012D01*
Y244981D01*
G02X254695Y245264I400J0D01*
G01X255534Y244426D01*
Y238833D01*
G03X256239Y237505I1601J-1D01*
G01Y236953D01*
X265904D01*
Y240735D01*
G02X265665Y241261I133J378D01*
G03X265765Y242063I-1488J593D01*
G02X266444Y242398I396J52D01*
G01X266558Y242285D01*
Y238833D01*
G03X267264Y237505I1602J0D01*
G01Y236953D01*
X276928D01*
Y237505D01*
G03X277293Y237845I-896J1327D01*
G02X277923I315J-247D01*
G03X278288Y237505I1261J987D01*
G01Y236953D01*
X287952D01*
Y237505D01*
G03X288658Y238833I-896J1328D01*
G01Y239154D01*
X289133Y239628D01*
X308399D01*
X313456Y234572D01*
X326251D01*
G02X326647Y234117I0J-400D01*
G03X326634Y233939I1389J-191D01*
G01X326632Y233740D01*
X296513D01*
X295071Y235182D01*
X285823D01*
X280730Y230090D01*
Y228115D01*
X278288D01*
Y224355D01*
X283880D01*
Y209200D01*
X285936Y207145D01*
Y205588D01*
X284605Y204257D01*
G03X286869Y201993I1132J-1132D01*
G01X289138Y204262D01*
Y205620D01*
G02X289821Y205903I400J0D01*
G01X290291Y205434D01*
X292257D01*
G02X292540Y204751I0J-400D01*
G01X284612Y196822D01*
X281142D01*
X274344Y190025D01*
G37*
G36*
G01X184648Y263978D02*
X181027Y267598D01*
G02X181013Y268149I283J283D01*
G03X181373Y269039I-1041J939D01*
G02X181773Y269424I400J-15D01*
G01X189922D01*
Y269225D01*
G03X192269Y268190I1402J1D01*
G02X192821Y268178I270J-295D01*
G01X196339Y264660D01*
G02X196056Y263978I-283J-282D01*
G01X184648D01*
G37*
G36*
G01X297784Y96857D02*
Y100582D01*
X299039Y101836D01*
G02X299722Y101553I283J-283D01*
G01Y97828D01*
X298467Y96574D01*
G02X297784Y96857I-283J283D01*
G37*
G36*
G01X272734Y145070D02*
Y143336D01*
X269783Y140384D01*
G03X269728Y140327I1124J-1140D01*
G02X269149Y140313I-296J269D01*
G01X269040Y140421D01*
G03X266776Y138157I-1132J-1132D01*
G01X267637Y137295D01*
G02X267496Y136954I-141J-141D01*
G01X267154D01*
G03X265713Y136051I0J-1601D01*
G01X265698Y136020D01*
X265533Y135855D01*
X265320Y136068D01*
Y139873D01*
X271646Y146200D01*
X272633D01*
G03Y149402I0J1601D01*
G01X271827D01*
G02X271686Y149744I0J200D01*
G01X272057Y150116D01*
X278357D01*
X279686Y148787D01*
G03X282085Y148940I1132J1132D01*
G02X282685Y148978I317J-244D01*
G01X283026Y148637D01*
G02X282987Y148038I-283J-282D01*
G03X282364Y146770I979J-1268D01*
G01Y145261D01*
G02X281735Y144933I-400J0D01*
G03X279686Y144752I-917J-1313D01*
G01X274933Y140000D01*
G02X274394Y139975I-283J283D01*
G03X274304Y140044I-897J-1077D01*
G01X274290Y140054D01*
X274136Y140208D01*
X275938Y142010D01*
Y143744D01*
X276741Y144548D01*
G03X274477Y146812I-1132J1132D01*
G01X272734Y145070D01*
G37*
G36*
G01X282969Y159468D02*
G03X282834Y157083I997J-1253D01*
G01X284194Y155722D01*
G02X284165Y155130I-283J-283D01*
G03X286138Y153157I890J-1083D01*
G02X286730Y153186I309J-254D01*
G01X289363Y150554D01*
X288123Y149314D01*
X286879D01*
X281316Y154876D01*
Y156012D01*
X279596Y157732D01*
X277603D01*
X277212Y158124D01*
Y159663D01*
G02X277625Y160063I400J0D01*
G03X278459Y162399I44J1301D01*
G02X278419Y162999I243J318D01*
G01X278801Y163382D01*
G03X278922Y163516I-1126J1139D01*
G02X279517Y163550I313J-249D01*
G01X280068Y162999D01*
G02X280028Y162399I-283J-282D01*
G03X281853Y160574I790J-1035D01*
G02X282453Y160614I318J-243D01*
G01X283003Y160064D01*
G02X282969Y159468I-283J-283D01*
G37*
G36*
G01X297694Y156785D02*
G03X297632Y157434I-1286J205D01*
G02X298008Y157970I376J136D01*
G01X302165D01*
G02X302557Y157494I0J-400D01*
G03X302596Y156844I1278J-249D01*
G02X302215Y156322I-381J-122D01*
G01X298088D01*
G02X297694Y156785I1J400D01*
G37*
G36*
G01X304457Y197620D02*
X305232D01*
G02X305515Y196938I0J-400D01*
G01X299939Y191362D01*
G02X299320Y191429I-282J283D01*
G03X299106Y191689I-1182J-755D01*
G02X299098Y192261I275J290D01*
G01X304457Y197620D01*
G37*
G36*
G01X293720Y200501D02*
X293574Y200648D01*
X293569Y200653D01*
G03X293543Y200683I-1072J-903D01*
G02X293555Y201236I295J270D01*
G01X304708Y212390D01*
X305126D01*
G02X305267Y212048I0J-200D01*
G01X293720Y200501D01*
G37*
G36*
G01X307818Y206864D02*
Y207063D01*
G03X306917Y208372I-1402J-1D01*
G02X306777Y209028I143J373D01*
G01X308563Y210814D01*
X312580D01*
Y209292D01*
X310707D01*
X308278Y206864D01*
X307818D01*
G37*
G36*
G01X295737Y229998D02*
X295539Y230196D01*
G02X295680Y230538I141J142D01*
G01X326614D01*
X326627Y230524D01*
X328745D01*
G02X328886Y230183I0J-200D01*
G01X328701Y229998D01*
X295737D01*
G37*
G36*
G01X271300Y250730D02*
Y256271D01*
X275022Y259993D01*
Y285497D01*
X276025Y286500D01*
G02X276708Y286217I283J-283D01*
G01Y257295D01*
G02X276336Y256896I-400J0D01*
G03X275458Y254495I102J-1398D01*
G02X275461Y253926I-279J-286D01*
G01X271982Y250447D01*
G02X271300Y250730I-282J283D01*
G37*
G36*
G01X282198Y256307D02*
Y269080D01*
G02X282881Y269363I400J0D01*
G01X283590Y268654D01*
Y256733D01*
X282881Y256024D01*
G02X282198Y256307I-283J283D01*
G37*
G36*
G01X331064Y190317D02*
G03X329447Y190990I-1229J-674D01*
G02X328952Y191264I-110J385D01*
G01X328385D01*
G03X327057Y191970I-1328J-896D01*
G01X324085D01*
X323860Y192196D01*
X324024Y192359D01*
X324051Y192374D01*
G03X324451Y192666I-733J1424D01*
G01X324495Y192709D01*
G02X325126Y192623I283J-283D01*
G01X328936D01*
Y197579D01*
G02X329619Y197862I400J0D01*
G01X333752Y193729D01*
G02X333589Y193065I-283J-283D01*
G03X332523Y191122I481J-1528D01*
G02X332417Y190890I-193J-52D01*
G03X331754Y190297I694J-1443D01*
G02X331064Y190317I-339J213D01*
G37*
G36*
G01X287476Y257767D02*
G02X286794Y258050I-282J283D01*
G01Y269980D01*
X285584Y271189D01*
Y285749D01*
X286958Y287122D01*
X291202D01*
X294176Y290096D01*
X328130D01*
G02X328413Y289414I0J-400D01*
G01X323324Y284325D01*
Y282980D01*
X323046D01*
Y276858D01*
X323324D01*
Y273919D01*
G03X323410Y273403I1602J2D01*
G01X323420Y273372D01*
Y272892D01*
X322102D01*
Y273372D01*
X322112Y273403D01*
G03X322198Y273919I-1516J518D01*
G01Y276858D01*
X322476D01*
Y282980D01*
X318716D01*
Y280554D01*
X318377D01*
X318329Y280685D01*
G03X318144Y281065I-2063J-769D01*
G01Y282980D01*
X314386D01*
Y281065D01*
G03X314201Y280685I1878J-1149D01*
G01X314153Y280554D01*
X313814D01*
Y282980D01*
X310054D01*
Y276858D01*
X310332D01*
Y273919D01*
G03X310418Y273403I1602J2D01*
G01X310428Y273372D01*
Y272282D01*
G02X309746Y271999I-400J0D01*
G01X306224Y275520D01*
X304874D01*
Y276858D01*
X305152D01*
Y282980D01*
X301394D01*
Y276858D01*
X301672D01*
Y273919D01*
G03X301756Y273404I1602J-3D01*
G01X301767Y273373D01*
Y272892D01*
X300448D01*
Y273372D01*
X300458Y273403D01*
G03X300544Y273919I-1516J518D01*
G01Y276858D01*
X300822D01*
Y282980D01*
X297062D01*
Y276858D01*
X297340D01*
Y273919D01*
G03X297426Y273403I1602J2D01*
G01X297436Y273372D01*
Y272892D01*
X296116D01*
Y273372D01*
X296127Y273403D01*
G03X296212Y273919I-1516J515D01*
G01Y276858D01*
X296490D01*
Y282980D01*
X292732D01*
Y276858D01*
X293010D01*
Y273919D01*
G03X293095Y273403I1601J-1D01*
G01X293106Y273372D01*
Y272297D01*
G03X294611Y268490I1505J-1606D01*
G01X303273D01*
G03X305473Y270763I0J2201D01*
G02X306156Y271059I400J13D01*
G01X307096Y270120D01*
Y268846D01*
G02X306477Y268511I-400J0D01*
G03X306592Y266245I-765J-1175D01*
G02X307214Y266085I252J-311D01*
G03X310298Y266689I1483J604D01*
G01Y269186D01*
X311175D01*
X320688Y259672D01*
G02X320405Y258990I-283J-282D01*
G01X319194D01*
X317922Y260262D01*
X289971D01*
X287476Y257767D01*
G37*
G36*
G01X288357Y298832D02*
X290049Y300524D01*
X322849D01*
G02X323132Y299842I0J-400D01*
G01X322864Y299574D01*
X309220D01*
X307796Y298150D01*
X288640D01*
G02X288357Y298832I0J400D01*
G37*
G36*
G01X323889Y261000D02*
X313440Y271450D01*
Y273372D01*
X313450Y273403D01*
G03X313536Y273919I-1516J518D01*
G01Y276858D01*
X314064D01*
Y272206D01*
X317780Y268490D01*
X318804D01*
G02X319167Y267922I0J-400D01*
G03X321715I1274J-585D01*
G02X322078Y268490I363J168D01*
G01X334932D01*
Y267049D01*
X337940Y264040D01*
X339250D01*
Y263496D01*
X345254D01*
Y268366D01*
X345404D01*
Y270654D01*
X346152D01*
G03Y275058I0J2202D01*
G01X345254D01*
Y275602D01*
X344454D01*
Y276500D01*
G03X340050I-2202J0D01*
G01Y275602D01*
X339250D01*
Y272645D01*
G02X338586Y272344I-400J0D01*
G03X337133Y272892I-1453J-1652D01*
G01X330762D01*
Y273372D01*
X330773Y273403D01*
G03X330858Y273919I-1516J515D01*
G01Y276858D01*
X331136D01*
Y282980D01*
X327378D01*
Y276858D01*
X327656D01*
Y273919D01*
G03X327741Y273403I1601J-1D01*
G01X327752Y273372D01*
Y272892D01*
X326432D01*
Y273372D01*
X326442Y273403D01*
G03X326528Y273919I-1516J518D01*
G01Y276858D01*
X326806D01*
Y282980D01*
X326718Y283190D01*
X329396Y285867D01*
X329537Y285726D01*
G03X331924Y286845I991J992D01*
G02X332323Y287282I399J37D01*
G01X348366D01*
X357977Y277670D01*
G02X358352Y277159I-9J-400D01*
G03Y276267I1538J-446D01*
G02X357968Y275756I-384J-111D01*
G01X357277D01*
X354220Y272698D01*
Y265301D01*
G02X353684Y264925I-400J0D01*
G03X352210Y262622I-475J-1319D01*
G02X352209Y262340I-142J-140D01*
G01X350870Y261000D01*
X346735D01*
Y261201D01*
G03X343931I-1402J1D01*
G01Y261000D01*
X342797D01*
Y261201D01*
G03X339993I-1402J1D01*
G01Y261000D01*
X336455D01*
Y261201D01*
G03X333651I-1402J1D01*
G01Y261000D01*
X323889D01*
G37*
G36*
G01X358878Y145832D02*
Y141604D01*
G02X358196Y141321I-400J0D01*
G01X355720Y143796D01*
X353386D01*
X352286Y144897D01*
Y151459D01*
G02X352968Y151742I400J0D01*
G01X358878Y145832D01*
G37*
G36*
G01X354071Y259672D02*
X354603Y260204D01*
X354618D01*
X356610Y262197D01*
Y262212D01*
X357422Y263024D01*
Y271372D01*
X357628Y271578D01*
G02X358307Y271355I283J-283D01*
G03X359890Y269994I1583J240D01*
G01X364243D01*
G03X365043Y270208I0J1602D01*
G01X366764D01*
Y268472D01*
X357281Y258990D01*
X354354D01*
G02X354071Y259672I0J400D01*
G37*
%LPC*%
G75*
G36*
G01X171070Y161217D02*
G02X170242Y162341I-1393J-159D01*
G03X170801Y162752I162J366D01*
G02X171629Y161628I1393J159D01*
G03X171070Y161217I-162J-366D01*
G37*
G36*
G01X252601Y169005D02*
G02X251615Y170160I-1389J-188D01*
G03X252126Y170597I115J383D01*
G02X253112Y169442I1389J188D01*
G03X252601Y169005I-115J-383D01*
G37*
G36*
G01X171650Y202113D02*
G02X171447Y200689I1090J-882D01*
G03X170767Y200786I-369J-154D01*
G02X170970Y202210I-1090J882D01*
G03X171650Y202113I369J154D01*
G37*
G36*
G01X188774Y183014D02*
G03X188246Y182861I-183J-355D01*
G02X187681Y184815I-1210J709D01*
G03X188209Y184968I183J355D01*
G02X188774Y183014I1210J-709D01*
G37*
G54D43*
X267742Y205793D03*
X270323Y200674D03*
Y196736D03*
X211142Y213018D03*
X207205D03*
X203268D03*
X219016D03*
X225572Y201142D03*
X242638Y203356D03*
X244606Y200379D03*
X246575Y203356D03*
X248543Y200379D03*
X230301Y216187D03*
X257492Y200313D03*
X228858Y213018D03*
X191288Y213223D03*
X182508Y194407D03*
X219927Y201246D03*
X232795Y213018D03*
X257492Y194407D03*
X233035Y201680D03*
X195394Y213018D03*
X199331D03*
X257492Y184565D03*
Y180628D03*
X253515Y182596D03*
X253831Y178659D03*
X257492Y176691D03*
X253515Y174722D03*
X257492Y172754D03*
X189702Y177716D03*
X247457Y170931D03*
X182508Y184565D03*
X257492Y188502D03*
X253515Y186533D03*
X257492Y164880D03*
X169677Y197730D03*
Y190734D03*
X164045Y201668D03*
X171865Y193738D03*
X164045Y197730D03*
Y190734D03*
X170288Y176151D03*
X172225Y188502D03*
X169677Y164996D03*
X164045Y168934D03*
Y164996D03*
Y161058D03*
X172477Y158502D03*
X164045Y186796D03*
Y178583D03*
X195474Y51305D03*
X253024Y221819D03*
X256962D03*
X249086D03*
X277237Y215235D03*
X280283Y209831D03*
X281644Y205793D03*
X275446Y209950D03*
X297237Y265803D03*
X326073Y263399D03*
X349271Y263606D03*
X359715Y264447D03*
G54D68*
X261072Y226235D03*
G54D67*
X250049D03*
%LPD*%
G75*
G54D10*
X15000Y15000D03*
Y323400D03*
X425000Y15000D03*
Y323400D03*
G54D11*
X13400Y101400D03*
Y91400D03*
Y81400D03*
Y121400D03*
Y111400D03*
X23400Y101400D03*
Y91400D03*
Y121400D03*
Y111400D03*
X239529Y299950D03*
Y309793D03*
X247797D03*
X266301Y299950D03*
Y309793D03*
X258033D03*
X433107Y139394D03*
X433114Y179708D03*
G54D20*
X25462Y228794D03*
Y251628D03*
X234829Y25457D03*
X304412D03*
X281578D03*
X257663D03*
X297730Y312769D03*
X320564D03*
G54D30*
X290281Y321454D03*
X351383D03*
G54D21*
X27549Y223203D03*
Y257219D03*
G54D12*
X11249Y69613D03*
X7907Y34091D03*
X8388Y49734D03*
X7779Y171383D03*
X6045Y125316D03*
X10671Y136110D03*
X11428Y147424D03*
X6623Y193356D03*
X6045Y212438D03*
X4695Y199138D03*
X11428Y208526D03*
X8125Y230590D03*
Y235590D03*
Y240590D03*
Y245590D03*
Y250590D03*
X13125D03*
Y245590D03*
Y240590D03*
Y235590D03*
Y230590D03*
X6166Y290629D03*
X6200Y264235D03*
Y272271D03*
X6166Y298665D03*
X67530Y9063D03*
X91329Y17025D03*
X33989Y11688D03*
X30227Y17025D03*
X37751D03*
X87961Y34312D03*
X66567Y36047D03*
X55003Y81326D03*
X26476Y69420D03*
X27632Y25482D03*
X21014Y56578D03*
X29366Y40001D03*
X24226Y32934D03*
X19086Y46940D03*
X87278Y81327D03*
X79754D03*
X83516Y84007D03*
Y78647D03*
Y93683D03*
Y99043D03*
X79754Y96363D03*
X46718Y93753D03*
X33989Y22362D03*
Y51058D03*
X91784D03*
X88415Y55214D03*
X91784Y59370D03*
X30620Y55214D03*
X33989Y59370D03*
X51311Y54601D03*
X76903Y63220D03*
X80841D03*
X87278Y96363D03*
X60506Y97561D03*
X66447Y87591D03*
X85960Y63043D03*
X89860Y66687D03*
X38682Y93753D03*
X51555Y97564D03*
X47105Y99444D03*
X74440Y89986D03*
X68634Y54601D03*
X64304D03*
X58046Y68788D03*
X60611Y54470D03*
X25126Y174274D03*
X28596Y130713D03*
X30138Y137073D03*
X16765Y147424D03*
X77299Y138161D03*
X68851D03*
X63584D03*
X65759Y159258D03*
X62755Y149371D03*
X62763Y140782D03*
X82136Y149830D03*
Y144331D03*
X53203Y159590D03*
X16765Y151217D03*
Y143631D03*
X65759Y165371D03*
Y169309D03*
Y177185D03*
X93248Y171642D03*
X88248D03*
X83248D03*
Y176642D03*
X88248D03*
X93248D03*
Y181642D03*
X88248D03*
X83248D03*
X75962Y142679D03*
X67300Y149371D03*
X94880Y154176D03*
X90942D03*
X83066D03*
X72088Y106121D03*
X67910Y135641D03*
X58461Y110518D03*
Y106580D03*
X38481Y101413D03*
X65759Y181123D03*
X33859Y148372D03*
X55523Y140770D03*
X77151Y104459D03*
X94761Y148819D03*
X65691Y154684D03*
X77570Y158763D03*
X71391Y177185D03*
X67910Y115168D03*
X64150Y101461D03*
X68860Y106121D03*
X56057Y138084D03*
X89218Y163833D03*
X93076Y163786D03*
X83066Y159808D03*
X48409Y101487D03*
X52829Y126270D03*
X51029Y140240D03*
X52280Y169744D03*
X56057Y114456D03*
Y118394D03*
Y122332D03*
Y130208D03*
Y134146D03*
X87004Y154176D03*
X94880Y159808D03*
X90942D03*
X93391Y117572D03*
X47105Y103382D03*
X82038Y120286D03*
Y122845D03*
Y125405D03*
Y130523D03*
Y133082D03*
X65759Y173247D03*
X45498Y217681D03*
X49436D03*
X94867Y200406D03*
X28981Y184104D03*
X32258Y215136D03*
X27825Y195283D03*
X84959Y249002D03*
X60281Y207428D03*
X16765Y204733D03*
Y212319D03*
X91743Y241746D03*
X80371Y234599D03*
Y230661D03*
Y222785D03*
X72810Y231183D03*
X61896Y235201D03*
X56896D03*
X51896D03*
Y240201D03*
X56896D03*
X61896D03*
Y245201D03*
X56896D03*
X51896D03*
X34067Y227613D03*
X37108Y227689D03*
X57312Y217681D03*
X53374D03*
X83314Y196666D03*
X67999Y196843D03*
Y200781D03*
X41046Y227689D03*
X34067Y252809D03*
X39512Y248360D03*
X44368Y242180D03*
X69142Y255441D03*
X77888Y225781D03*
X80371Y218847D03*
X22102Y208526D03*
X33859Y207428D03*
X54954Y200122D03*
X18125Y230590D03*
Y235590D03*
Y240590D03*
Y245590D03*
Y250590D03*
X71546Y252213D03*
X84959Y256640D03*
X70403Y190501D03*
X77453Y243738D03*
X93777Y189591D03*
X87872D03*
X77453Y237484D03*
X26149Y237258D03*
Y241195D03*
X77888Y255441D03*
X91187Y189469D03*
X77888Y229009D03*
X80371Y226723D03*
X88407Y218847D03*
X85281Y189469D03*
X92381Y256640D03*
X82400D03*
X87518Y249002D03*
X71555Y237484D03*
X52527Y259888D03*
X65006Y191680D03*
X92381Y249002D03*
X82400D03*
X51519Y290615D03*
X51631Y264147D03*
X36363Y291732D03*
X31808Y318715D03*
X81242Y324149D03*
X64106Y316825D03*
X63527Y329353D03*
X35965D03*
X55457Y298651D03*
X51631Y272183D03*
X51519Y298651D03*
X45729Y279226D03*
X41967Y283776D03*
X25078Y279226D03*
X21316Y283776D03*
X45593Y305686D03*
X41831Y310236D03*
X21316D03*
X25078Y305686D03*
X57973Y266551D03*
X56591Y278290D03*
X70780Y304469D03*
X55457Y293019D03*
X83300Y304728D03*
X57973Y269779D03*
X61799Y296247D03*
X78654Y285164D03*
X120933Y3615D03*
X139898Y11618D03*
X138384Y5532D03*
X161151Y20200D03*
X148472Y11538D03*
X100602Y4355D03*
X103282Y8117D03*
X105686Y4355D03*
X144534Y11538D03*
X149435Y3543D03*
X121410Y12224D03*
X138246Y17553D03*
X144534Y17170D03*
X148472D03*
X169890Y3236D03*
X162366D03*
X166128Y5916D03*
X168789Y20200D03*
X161151Y17641D03*
X137469Y37915D03*
X122530Y22371D03*
X99874Y78647D03*
Y84007D03*
X96112Y81327D03*
X103636D03*
Y96363D03*
X96112D03*
X99874Y99043D03*
Y93683D03*
X95091Y22362D03*
X95153Y55214D03*
X160411Y55174D03*
X125249Y69968D03*
X139029Y27634D03*
X103282Y24475D03*
X105686Y20713D03*
X106178Y28838D03*
Y32776D03*
X123106Y31746D03*
X106178Y36714D03*
X144145Y87971D03*
X129187Y69968D03*
X160411Y59112D03*
X156570Y49462D03*
X160064Y44409D03*
X161151Y31100D03*
X154429Y100143D03*
X128342Y61722D03*
X103228Y63918D03*
X119218D03*
X144145Y82971D03*
X154779Y65454D03*
X105962Y59495D03*
X125249Y64336D03*
X128007Y77971D03*
Y72971D03*
X129187Y64336D03*
X135529D03*
X154779Y55174D03*
X168789Y31100D03*
X169583Y47907D03*
X111810Y32776D03*
X105962Y43137D03*
X158009Y29595D03*
X161151Y33659D03*
X168789Y28541D03*
X168719Y38801D03*
X158287Y100143D03*
X109102Y87451D03*
X161151Y28541D03*
X144343Y31746D03*
X147992Y33714D03*
X144343Y35683D03*
X147992Y37651D03*
X130498Y47063D03*
X167101Y44559D03*
X133780Y47063D03*
X135529Y67564D03*
X147888Y62593D03*
X144934Y65090D03*
X128007Y82971D03*
X172500Y94460D03*
Y99140D03*
X161515Y97739D03*
X168789Y22759D03*
Y33659D03*
X143391Y167065D03*
X154468D03*
X164045Y178583D03*
X158145Y172855D03*
X129096Y139027D03*
X139054Y148512D03*
X172477Y158502D03*
X164045Y161058D03*
Y164996D03*
X168283Y130192D03*
X160759D03*
X164521Y132872D03*
X148163D03*
X144401Y130192D03*
X151925D03*
X164521Y108689D03*
X148163D03*
X168283Y111369D03*
X151925D03*
X142468Y107163D03*
X96619Y117572D03*
X142468Y111101D03*
X154354Y114124D03*
X164045Y168934D03*
X172194Y162911D03*
X104287Y180891D03*
X108631Y180573D03*
X116879Y165172D03*
X116988Y167880D03*
X116879Y157298D03*
Y149424D03*
X97012Y140717D03*
X119140Y142082D03*
X172119Y115877D03*
X140064Y121381D03*
X142468Y115039D03*
X169677Y164996D03*
Y161058D03*
X172182Y111968D03*
X169677Y168934D03*
X110243Y147273D03*
X119367Y149262D03*
X111590Y138400D03*
X116879Y136825D03*
Y139975D03*
X161440Y114077D03*
X105604Y169144D03*
X105538Y155723D03*
X110029Y169242D03*
X107129Y162414D03*
X109862Y160862D03*
X107006Y158471D03*
X97885Y153474D03*
X104463Y152573D03*
X97189Y150999D03*
X99836Y135061D03*
X119528Y145429D03*
X138264Y173234D03*
X158212Y114124D03*
X109102Y102487D03*
X96619Y133237D03*
X99023Y127964D03*
X170288Y176151D03*
X167802Y135352D03*
X171845Y137321D03*
X172439Y133384D03*
X110008Y176967D03*
X123150Y132131D03*
X128150D03*
X104281Y213991D03*
X111323D03*
X104281Y210841D03*
X98725Y212416D03*
X111323Y210841D03*
X116879Y212416D03*
Y209266D03*
X98725D03*
X104619Y208269D03*
X110985D03*
X136330Y195442D03*
X157441Y219879D03*
X164045Y217046D03*
X157009Y194903D03*
X150642Y191673D03*
X145540Y197730D03*
X153929D03*
X158145Y202163D03*
X149512Y214746D03*
X143396Y217974D03*
X139458D03*
X149441Y185444D03*
X143383Y188586D03*
X139445D03*
X110985Y205539D03*
X117759Y195612D03*
X116879Y204542D03*
X98725D03*
X111323Y202967D03*
X104281D03*
X174788Y249002D03*
X167605Y255197D03*
X94940Y249002D03*
X104921D03*
X114902D03*
X124883D03*
X134864D03*
X144845D03*
X154826D03*
X164045Y186796D03*
Y190734D03*
Y197730D03*
X98095Y200406D03*
Y195330D03*
X108101Y241746D03*
X99442Y226723D03*
X171865Y193738D03*
X164045Y201668D03*
X172740Y201231D03*
X104729Y205796D03*
X104162Y188794D03*
X111323D03*
X117759Y199550D03*
X129244Y195442D03*
X140188D03*
X121155Y198656D03*
X144845Y256640D03*
X154826D03*
X164807D03*
X174788D03*
X94940D03*
X104921D03*
X114902D03*
X124883D03*
X134864D03*
X169677Y190734D03*
Y197730D03*
Y201668D03*
Y186796D03*
X104643Y183896D03*
X96354Y189477D03*
X143416Y193038D03*
X133102D03*
X138277Y202615D03*
X113467Y226921D03*
X98077Y185492D03*
X172229Y256640D03*
X160060Y259615D03*
X152267Y256640D03*
X142286D03*
X132305D03*
X122324D03*
X112343D03*
X102362D03*
X172229Y249002D03*
X172225Y188502D03*
X162248Y254952D03*
X97499Y249002D03*
X152267D03*
X117461D03*
X107480D03*
X142286D03*
X132305D03*
X122324D03*
X112343D03*
X102362D03*
X159755Y194903D03*
X159826Y217150D03*
X107401Y195612D03*
X126016Y193038D03*
X108825Y183016D03*
X107401Y199550D03*
X157385Y249002D03*
X165430Y246216D03*
X137423Y249002D03*
X127442D03*
X169423Y249274D03*
X120661Y314861D03*
X170694Y328662D03*
X130024Y332325D03*
X149106Y323378D03*
X102462Y312970D03*
X102655Y326655D03*
X169423Y314917D03*
X161585D03*
X153961D03*
X145055D03*
X135268D03*
X124421Y287725D03*
X120013Y283317D03*
Y276533D03*
Y271959D03*
X129561Y309210D03*
X125981Y305630D03*
Y299826D03*
X172096Y269088D03*
X107584Y281253D03*
X179825Y20200D03*
X256107Y8148D03*
X251107D03*
X246107D03*
X241107D03*
X236107D03*
Y13148D03*
X241107D03*
X246107D03*
X251107D03*
X256107D03*
Y18148D03*
X251107D03*
X246107D03*
X241107D03*
X236107D03*
X182486Y5916D03*
X186248Y3236D03*
X178724D03*
X187463Y20200D03*
X179825Y17641D03*
X229773Y48762D03*
X221464Y20739D03*
X233648Y30103D03*
X180821Y28159D03*
X179825Y42000D03*
X198702Y51305D03*
X221996Y65428D03*
X255238Y54659D03*
X250238D03*
X245238D03*
Y59659D03*
X250238D03*
X255238D03*
Y64659D03*
X250238D03*
X245238D03*
X233386Y74443D03*
X255214Y41023D03*
X235693Y37103D03*
X253747Y76413D03*
X221996Y69286D03*
X200961Y34814D03*
X182181Y56916D03*
X248277Y46873D03*
X197384Y61436D03*
X192500Y99140D03*
X197500D03*
X212500D03*
X207500D03*
X202500D03*
X187500D03*
X217500D03*
X239018Y74443D03*
X224400Y62200D03*
X192500Y94460D03*
X197500D03*
X202500D03*
X207500D03*
X212500D03*
X187500D03*
X217500D03*
X187463Y42000D03*
X192366Y30411D03*
X205061Y75564D03*
X179825Y22759D03*
X199943Y75564D03*
X207620Y72184D03*
X179825Y33659D03*
X202502Y72145D03*
X210961Y34814D03*
X187463Y28541D03*
X215961Y34814D03*
X245975Y26059D03*
X249199Y34062D03*
X245262D03*
X181443Y38801D03*
X242693Y26059D03*
X233386Y78381D03*
X221996Y72514D03*
X195767Y69286D03*
X202560Y51305D03*
X195474D03*
X198614Y26948D03*
X177282Y75752D03*
X207620Y61436D03*
X205061Y64816D03*
X202502Y61436D03*
X199943Y64816D03*
X179825Y44559D03*
X247493Y80350D03*
X252500Y99140D03*
Y94460D03*
X247500Y99140D03*
Y94460D03*
X253747Y80350D03*
X242500Y99140D03*
Y94460D03*
X232500D03*
Y99140D03*
X227500Y94460D03*
Y99140D03*
X222500Y94460D03*
Y99140D03*
X182500Y94460D03*
Y99140D03*
X177500Y94460D03*
Y99140D03*
X229165Y56576D03*
X251811Y74444D03*
X220416Y61436D03*
X215298Y64816D03*
X212739Y61436D03*
X210180Y64816D03*
X220416Y75564D03*
X215298D03*
X213279Y71618D03*
X210180Y79917D03*
X176850Y26779D03*
X188135Y33915D03*
X187795Y44532D03*
X251352Y115423D03*
X224921Y118710D03*
X189864Y110819D03*
X229137Y115251D03*
X216238Y116013D03*
X239813Y114761D03*
X180347Y111351D03*
X222795Y115541D03*
X254449D03*
X226733D03*
X200730Y159455D03*
X205784Y157645D03*
X199928Y155430D03*
X253515Y158974D03*
X253828Y155052D03*
X247457Y170931D03*
X189702Y177716D03*
X182508Y172754D03*
X184903Y170785D03*
X192163Y110892D03*
X203189Y153630D03*
X194921Y110852D03*
X205340Y150448D03*
X198070Y110687D03*
X201271Y110694D03*
X204377Y110535D03*
X251212Y168817D03*
X211676Y116035D03*
X185766Y131924D03*
X214371Y117878D03*
X218009Y118135D03*
X220781Y118167D03*
X231540Y114761D03*
X230827Y118710D03*
X232932Y116862D03*
X234764Y118710D03*
X196177Y136152D03*
X234485Y114746D03*
X201349Y135321D03*
X237502Y114761D03*
X195375Y130994D03*
X240669Y118710D03*
X191232Y132544D03*
X242638Y115084D03*
X204106Y131998D03*
X244606Y118710D03*
X207245Y134211D03*
X246575Y115084D03*
X248543Y118710D03*
X252647Y118528D03*
X209465Y128639D03*
X253523Y151100D03*
X253515Y170785D03*
X218857Y115541D03*
X206974Y110421D03*
X213975Y115599D03*
X253515Y174722D03*
X253831Y178659D03*
X182662Y166848D03*
X183521Y164541D03*
X185654Y161207D03*
X189797Y163180D03*
X193696Y162334D03*
X192923Y157878D03*
X199331Y213018D03*
X197362Y216995D03*
X195394Y213018D03*
X233035Y201680D03*
X244537Y236055D03*
Y229013D03*
X255561D03*
X255325Y241713D03*
X238795Y234751D03*
X219340Y229013D03*
X213075Y219415D03*
X213041Y229013D03*
X220915Y241611D03*
X217765D03*
X219340Y236055D03*
X213041D03*
X224693Y249002D03*
X214712D03*
X204731D03*
X194750D03*
X184769D03*
X232795Y213018D03*
X181084Y221819D03*
X185022D03*
X188960D03*
X234239D03*
X226363D03*
X219927Y201246D03*
X230301Y221819D03*
X192898D03*
X182508Y194407D03*
X183703Y213487D03*
X191288Y213223D03*
X228858Y213018D03*
X230633Y229271D03*
X234674Y256640D03*
X184769D03*
X194750D03*
X204731D03*
X214712D03*
X224693D03*
X230301Y216187D03*
X185022D03*
X188960D03*
X181084D03*
X234239D03*
X226363D03*
X216125D03*
X221244Y217250D03*
X192898Y216187D03*
X248543Y200379D03*
X246575Y203356D03*
X244606Y200379D03*
X242638Y203356D03*
X251847Y262576D03*
X209891Y236055D03*
X211466Y241611D03*
X216191Y236055D03*
X214616Y241611D03*
X209891Y229013D03*
X216191D03*
X211466Y223457D03*
X214616D03*
X217224Y223244D03*
X240625Y259615D03*
X253515Y186533D03*
X217271Y249002D03*
X207290D03*
X232115Y256640D03*
X222134D03*
X212153D03*
X202172D03*
X192191D03*
X182210D03*
X192191Y249002D03*
X182210D03*
X202172D03*
X212153D03*
X222134D03*
X253024Y221819D03*
X232115Y249002D03*
X182508Y184565D03*
X187036Y183570D03*
X189419Y184259D03*
X255355Y246869D03*
X225572Y201142D03*
X219016Y213018D03*
X203268D03*
X213110Y215815D03*
X201299Y216995D03*
X208673Y216985D03*
X205236Y216995D03*
X207205Y213018D03*
X211142D03*
X197309Y249002D03*
X253515Y182596D03*
X177347Y249002D03*
X187328D03*
X249086Y221819D03*
X243804Y231207D03*
X205728Y313711D03*
X225388Y303689D03*
X243166Y322109D03*
X210978Y333288D03*
X195751Y323073D03*
X185549Y276614D03*
Y286859D03*
Y295551D03*
Y305171D03*
X180103Y314917D03*
X183910Y269088D03*
X188096Y269226D03*
X217756Y275568D03*
X199799Y271194D03*
X238085Y283230D03*
X249788Y282794D03*
X243947Y273961D03*
X231616Y277099D03*
X253694Y274560D03*
X214528Y275568D03*
X191324Y269226D03*
X241313Y280826D03*
X220160Y269226D03*
X225984Y266033D03*
X256042Y278857D03*
X243947Y266869D03*
X193849Y273163D03*
X176034Y269088D03*
X206053Y273163D03*
X179972Y269088D03*
X265494Y38619D03*
X269432D03*
X321102Y80212D03*
X334594Y71539D03*
X281140Y69835D03*
X295917Y47960D03*
X258844Y30103D03*
X280397D03*
X305593D03*
X332873Y100889D03*
X327873D03*
X309022Y100496D03*
X304022D03*
X299022D03*
X261556Y41023D03*
X263191Y37103D03*
X268923Y51145D03*
X265450Y75977D03*
X294022Y100496D03*
Y94864D03*
X299022D03*
X309022D03*
X262222Y78381D03*
X327873Y63649D03*
X332873D03*
X309022Y63264D03*
X304022D03*
X299022D03*
X294022D03*
X267500Y99140D03*
Y94460D03*
X262500Y99140D03*
Y94460D03*
X257500Y99140D03*
Y94460D03*
X327873Y95257D03*
X332873D03*
X332083Y146765D03*
X329335Y114928D03*
X296032Y178553D03*
X296094Y176253D03*
X324279Y144699D03*
X329835Y139975D03*
Y146274D03*
Y158873D03*
X329977Y170745D03*
X330672Y180920D03*
X287116Y149919D03*
X287768Y142046D03*
X294541Y146960D03*
X317237Y139975D03*
Y146274D03*
X319701Y158108D03*
X317237Y169896D03*
X310158Y126377D03*
Y132161D03*
Y139247D03*
Y146333D03*
X273498Y133265D03*
X299600Y157834D03*
X277915Y154047D03*
X310158Y175920D03*
X283968Y180260D03*
X283967Y170812D03*
X277669Y158215D03*
Y149919D03*
X283967Y134172D03*
X277669Y121575D03*
X295373Y141664D03*
X273550Y172309D03*
X273551Y159930D03*
Y163868D03*
Y167806D03*
X257492Y160943D03*
Y164880D03*
X261860Y115636D03*
X268159Y115541D03*
X277608Y115696D03*
X287057Y115541D03*
X261860Y121771D03*
X268159Y121803D03*
X287689Y119499D03*
X275182D03*
X270323Y163868D03*
Y159930D03*
Y167806D03*
X299714Y180260D03*
X310158Y179148D03*
X310174Y159789D03*
X285055Y154047D03*
X310158Y149561D03*
X307703Y175701D03*
X292313Y152511D03*
X318227Y143125D03*
X329835D03*
X324279Y138400D03*
X329835Y136825D03*
X324279Y141550D03*
X317237Y136825D03*
X273498Y138897D03*
X310158Y142475D03*
Y135389D03*
Y123149D03*
X298140Y142046D03*
X311799Y136900D03*
X287500Y177495D03*
X287116Y170811D03*
X280818D03*
X277752Y170896D03*
X318893Y172188D03*
X288058Y165628D03*
X283966Y164514D03*
X277669Y167663D03*
X289361Y157734D03*
X283966Y158215D03*
X277669Y161364D03*
X320251Y154148D03*
X277669Y164514D03*
X317237Y150999D03*
X280818Y161364D03*
X320251Y151018D03*
X287116Y161364D03*
X296566Y124724D03*
X302864Y134173D03*
X299714Y131023D03*
X306013D03*
Y127874D03*
X299716Y134171D03*
X280818D03*
X287116D03*
X302864Y180260D03*
X306013D03*
X303447Y121149D03*
X301532Y118940D03*
X306013Y177111D03*
X299714Y121575D03*
X302864Y177111D03*
X284165Y119499D03*
X281015D03*
X287116Y127872D03*
X290419Y124724D03*
X264600Y128401D03*
X265630Y120536D03*
X283968Y127574D03*
X258191Y121556D03*
X306013Y124724D03*
X307409Y172078D03*
X290469Y128920D03*
X296566Y170811D03*
X276929Y127345D03*
X296566Y127874D03*
X302864D03*
X303421Y150702D03*
X306013Y146770D03*
X302864D03*
X306013Y143620D03*
X299716D03*
X323056Y179345D03*
X299716Y170813D03*
X306013Y140471D03*
X330522Y178352D03*
X306455Y166709D03*
X303132Y140520D03*
X333029Y177920D03*
X311008Y165421D03*
X333164Y174621D03*
X302864Y167663D03*
X333370Y171876D03*
X295879Y166862D03*
X334021Y168994D03*
X299716Y164514D03*
X332840Y166720D03*
X303835Y157244D03*
X335567Y164444D03*
X295914Y162938D03*
X333766Y162192D03*
X302864Y161364D03*
X332181Y159681D03*
X307593Y160161D03*
X323963Y155656D03*
X296408Y156991D03*
X257492Y153069D03*
Y172754D03*
Y176691D03*
Y180628D03*
X277669Y180260D03*
X280818Y149919D03*
X271822Y131415D03*
X272633Y147801D03*
X270684Y133415D03*
X283966Y146770D03*
X267154Y135352D03*
X275609Y145680D03*
X270915Y139252D03*
X280818Y143620D03*
X267908Y139289D03*
X280818Y180260D03*
Y177111D03*
X277669D03*
X334070Y191537D03*
X271011Y229238D03*
X273210Y255498D03*
X329835Y191943D03*
X266584Y229013D03*
X276310Y229065D03*
X275900Y231764D03*
X266584Y236055D03*
X317212Y184985D03*
X310158Y183006D03*
X301368Y193076D03*
X274082Y185828D03*
X283968Y186559D03*
X320333Y205094D03*
X257492Y194407D03*
X275955Y196736D03*
Y200674D03*
X257492Y200313D03*
X316526Y256129D03*
X313727Y230339D03*
X274009Y217639D03*
X310625Y235025D03*
X300648Y230235D03*
X309644Y209466D03*
X285737Y207062D03*
X295807Y203063D03*
X282314Y193076D03*
X317237Y202967D03*
Y191943D03*
X313727Y216021D03*
X322744Y205692D03*
X330735Y203351D03*
X322744Y209630D03*
X313298Y253725D03*
X306416Y207062D03*
X277237Y215235D03*
X270323Y196736D03*
Y200674D03*
X271386Y209437D03*
X267742Y205793D03*
X334826Y187142D03*
X333110Y189446D03*
X294597Y186786D03*
X329835Y189643D03*
X276438Y255498D03*
X273210Y235025D03*
X292508Y199737D03*
X309644Y203124D03*
X285542Y193076D03*
X310158Y186234D03*
X298140Y190672D03*
X257492Y188502D03*
X285737Y203125D03*
X316554Y238322D03*
X301919Y250380D03*
X292754Y207035D03*
X335014Y227526D03*
X301919Y245261D03*
X319848Y202845D03*
X319934Y200218D03*
X302864Y186559D03*
X317829Y197434D03*
X302864Y183410D03*
X319895Y195634D03*
X306013Y183410D03*
X323319Y193798D03*
X320074Y191116D03*
X321532Y189236D03*
X258710Y246933D03*
X329835Y184069D03*
X323665Y182443D03*
X261014Y245284D03*
X263780Y244781D03*
X264177Y241853D03*
X268159Y262115D03*
X269642Y260270D03*
X328036Y233926D03*
X335053Y261202D03*
X328036Y253616D03*
X318546Y249678D03*
X328036Y245740D03*
Y241802D03*
X330369Y199377D03*
X297634Y226140D03*
X335308Y223327D03*
X290509Y229318D03*
X331264Y241802D03*
X324178D03*
X257492Y184565D03*
X280283Y209831D03*
X281644Y205793D03*
X275446Y209950D03*
X277669Y183410D03*
X280818Y186559D03*
X256962Y221819D03*
X273551Y192798D03*
Y188860D03*
X280818Y183410D03*
X324178Y247274D03*
X287766Y290656D03*
X264517Y284764D03*
X287766Y294594D03*
X276658Y309856D03*
X313133Y331939D03*
X266681Y332903D03*
X290281Y316117D03*
X333195Y276323D03*
X326073Y267337D03*
X294009Y265803D03*
X287766Y286718D03*
X311116Y295590D03*
X304147Y284041D03*
X309147D03*
X314147D03*
Y288041D03*
X309147D03*
X304147D03*
X283392Y268571D03*
X267745Y287168D03*
X261788Y274693D03*
X267034Y268571D03*
X296549Y304164D03*
X321745D03*
X317296Y299888D03*
X296625Y298354D03*
X285783Y282780D03*
X306301Y264600D03*
X294043Y321454D03*
X320441Y267337D03*
X326073Y263399D03*
X267745Y278422D03*
X297237Y265803D03*
X263272Y266869D03*
X267034Y274419D03*
X330528Y286718D03*
X305712Y267336D03*
X312100Y312082D03*
X308163D03*
X320596Y273919D03*
X317655Y271728D03*
X298942Y270691D03*
X308697Y266689D03*
X412926Y7506D03*
X407832Y76613D03*
X414832D03*
X407832Y99613D03*
X414832D03*
X388300Y42122D03*
X383300D03*
X378300D03*
X373300D03*
X368300D03*
Y47122D03*
X373300D03*
X378300D03*
X383300D03*
X388300D03*
Y52122D03*
X383300D03*
X378300D03*
X373300D03*
X368300D03*
X348471Y81754D03*
X411385Y25238D03*
X412926Y53186D03*
X414832Y79841D03*
X380577Y32243D03*
X395945Y46413D03*
Y50351D03*
Y54289D03*
Y58227D03*
X375778Y90675D03*
Y67675D03*
X386006Y66613D03*
Y89613D03*
X357873Y98485D03*
X352873D03*
X347873D03*
X342873D03*
X337873Y100889D03*
X375240Y32243D03*
X400090Y77200D03*
Y70900D03*
X393790Y77200D03*
X396940Y74050D03*
X393790Y70900D03*
X400099Y93913D03*
Y100213D03*
X393799Y93913D03*
X396949Y97063D03*
X393799Y100213D03*
X367192Y82245D03*
X371130D03*
X375068D03*
X379006D03*
X380577Y37187D03*
X337873Y63649D03*
X342873D03*
X347873D03*
X352873D03*
X357873Y59257D03*
X370868Y65680D03*
X366931D03*
X362994D03*
X359057D03*
Y69617D03*
X362994D03*
X366931D03*
X370868D03*
Y73554D03*
X366931D03*
X362994D03*
X359057D03*
X352873Y95257D03*
X357873D03*
X337873D03*
X347873D03*
X342873D03*
X378264Y87521D03*
X374327D03*
X370390D03*
X366453D03*
X362516D03*
Y91458D03*
X366453D03*
X370390D03*
Y95395D03*
X366453D03*
X362516D03*
X357873Y139379D03*
X352873D03*
X379573Y164067D03*
X383473D03*
X379573Y167711D03*
X407832Y122613D03*
X414832D03*
X339106Y128263D03*
X415239Y164977D03*
X414832Y102841D03*
Y125841D03*
X337641Y145011D03*
X360277Y165859D03*
Y159071D03*
X367545Y111077D03*
X375778Y113675D03*
X386006Y112613D03*
X400088Y116931D03*
X393788D03*
X396938Y120081D03*
X400088Y123231D03*
X393788D03*
X367192Y105245D03*
X371130D03*
X375068D03*
X379006D03*
Y128245D03*
X375068D03*
X371130D03*
X347873Y145011D03*
X360277Y152319D03*
X357873Y145011D03*
X356776Y169812D03*
X367192Y128245D03*
X339524Y157220D03*
X362239Y181406D03*
X352279Y121050D03*
X356216D03*
X360153D03*
X364090D03*
Y117113D03*
X360153D03*
X356216D03*
X352279D03*
Y113176D03*
X356216D03*
X360153D03*
X364090D03*
X341246Y162537D03*
X356368D03*
X357873Y103879D03*
X352873D03*
X347873D03*
X366177Y179748D03*
X338186Y152330D03*
X415093Y181752D03*
X415091Y145646D03*
X400766Y159667D03*
X369405Y147664D03*
X373263D03*
X372201Y175810D03*
X388611Y171518D03*
X395269D03*
X415091Y141788D03*
X395823Y144940D03*
X371809Y133446D03*
X383491Y149588D03*
X359835Y175774D03*
X379573Y203993D03*
Y207637D03*
X383473Y203993D03*
X410123Y215691D03*
X413119Y198128D03*
X407530Y226654D03*
X345375Y202635D03*
X362578Y200837D03*
Y205837D03*
Y210837D03*
X359605Y220458D03*
X362578Y215837D03*
X371202Y238106D03*
X369225Y210961D03*
X371202Y234168D03*
X353231Y220440D03*
X417563Y254570D03*
X361712Y253858D03*
Y249920D03*
X371202Y253858D03*
Y249920D03*
Y245982D03*
X361712D03*
Y242044D03*
Y238106D03*
X348039Y241232D03*
X344889D03*
X341739D03*
Y244382D03*
X344889D03*
X348039D03*
Y247532D03*
X344889D03*
X341739D03*
X415093Y185610D03*
X400727Y199549D03*
X341417Y227526D03*
X339013Y220440D03*
X359605Y223686D03*
X395269Y211244D03*
X388611D03*
X369405Y190028D03*
X373263D03*
X395314Y184954D03*
X365570Y245982D03*
X358484D03*
X378819Y244358D03*
X345355Y220440D03*
X341417Y223668D03*
Y230754D03*
X365570Y249920D03*
X358484D03*
X341395Y261202D03*
X343476Y217374D03*
X345333Y261202D03*
X383705Y254570D03*
X370492Y215779D03*
X358484Y238106D03*
Y242044D03*
X371202D03*
X365570Y238106D03*
X381160Y189632D03*
X397178Y304697D03*
X393240D03*
X406036Y326983D03*
X404045Y324008D03*
X408027D03*
X406036Y321033D03*
X386373Y324008D03*
X384382Y321033D03*
Y326983D03*
X369366Y310242D03*
X412541Y280623D03*
X344707Y283265D03*
X351445D03*
X348076Y279109D03*
X347621Y321454D03*
X355145D03*
X351383Y316117D03*
X369698Y290497D03*
X344684Y322886D03*
X390288Y317770D03*
X397305Y291913D03*
X351225Y290582D03*
X337133Y276323D03*
X359890Y269036D03*
X382391Y324008D03*
X401116Y304697D03*
X357243Y289509D03*
X346152Y272856D03*
X342252Y276500D03*
X389302Y304697D03*
X403718Y310816D03*
X369662Y326960D03*
X369698Y296129D03*
X354684Y300096D03*
X394077Y289509D03*
X397305Y273343D03*
X393113Y318851D03*
X396193Y320306D03*
X402099Y317770D03*
X354684Y327239D03*
X359684D03*
X344684Y295743D03*
X349684D03*
X417563Y294870D03*
X373187Y288501D03*
Y272749D03*
X349271Y263606D03*
X353209D03*
X372185Y266581D03*
X370214Y278438D03*
X359715Y264447D03*
X359890Y276713D03*
Y271595D03*
X398162Y317770D03*
X378819Y272749D03*
X375591Y264873D03*
X378819Y284563D03*
X375591Y280625D03*
X370214Y270442D03*
X423770Y76613D03*
X428770D03*
X433770D03*
Y71613D03*
X428770D03*
X423770D03*
X428770Y99613D03*
X433770D03*
Y94613D03*
X428770D03*
X423770D03*
Y99613D03*
X418770Y76613D03*
Y68385D03*
Y99613D03*
Y91385D03*
X433068Y33830D03*
X430659Y46247D03*
X418770Y79841D03*
X424071Y117624D03*
X429071D03*
X434071D03*
Y122624D03*
X429071D03*
X424071D03*
X418770Y122613D03*
Y114385D03*
X427625Y174621D03*
X433165Y158231D03*
X418770Y102841D03*
Y125841D03*
X432514Y238150D03*
X431430Y209885D03*
X433550Y260577D03*
X417957Y225830D03*
X422113Y248642D03*
X422507Y231758D03*
X435020Y289997D03*
X432996Y302125D03*
X422113Y288942D03*
X417957Y266130D03*
X422507Y272058D03*
G54D40*
G01X285783Y282780D02*
X286268Y283265D01*
X290281D01*
G01X364243Y269036D02*
X359890D01*
G01X357243Y289509D02*
X364243D01*
G01X394077D02*
X387077D01*
G54D31*
X290281Y283265D03*
X348076D03*
G54D13*
X15426Y158487D03*
Y189983D03*
X76548Y15686D03*
X45052D03*
X172403Y302931D03*
X163387D03*
X154371D03*
X145355D03*
X136340D03*
X167895Y295136D03*
X158879D03*
X149863D03*
X140847D03*
X131832D03*
X172403Y287341D03*
X163387D03*
X154371D03*
X145355D03*
X136340D03*
X332840Y322793D03*
X301344D03*
G54D22*
X87512Y287321D03*
X69796D03*
X165449Y63390D03*
X183165D03*
X337069Y181623D03*
X354785D03*
G54D41*
G01X16000Y0D02*
X424000D01*
G03X440000Y16000I0J16000D01*
G01Y322400D01*
G03X424000Y338400I-16000J0D01*
G01X16000D01*
G03X0Y322400I0J-16000D01*
G01Y16000D01*
G03X16000Y0I16000J0D01*
G54D14*
X11092Y223203D03*
Y257219D03*
G54D32*
X294611Y279919D03*
X298942D03*
X303273D03*
X307603D03*
X311934D03*
X316265D03*
X320596D03*
X324926D03*
X329257D03*
G54D23*
X101503Y179345D03*
Y177770D03*
Y176195D03*
Y174621D03*
Y173046D03*
Y171471D03*
Y169896D03*
Y168321D03*
Y166747D03*
Y165172D03*
Y163597D03*
Y162022D03*
Y160447D03*
Y158873D03*
Y157298D03*
Y155723D03*
Y154148D03*
Y152573D03*
Y150999D03*
Y149424D03*
Y147849D03*
Y146274D03*
Y144699D03*
Y143125D03*
Y141550D03*
Y139975D03*
Y138400D03*
Y136825D03*
X114101Y179345D03*
Y177770D03*
Y176195D03*
Y174621D03*
Y173046D03*
Y171471D03*
Y169896D03*
Y168321D03*
Y166747D03*
Y165172D03*
Y163597D03*
Y162022D03*
Y160447D03*
Y158873D03*
Y157298D03*
Y155723D03*
Y154148D03*
Y152573D03*
Y150999D03*
Y149424D03*
Y147849D03*
Y146274D03*
Y144699D03*
Y143125D03*
Y141550D03*
Y139975D03*
Y138400D03*
Y136825D03*
X101503Y213991D03*
Y212416D03*
Y210841D03*
Y209266D03*
Y207691D03*
Y206117D03*
Y204542D03*
Y202967D03*
Y201392D03*
Y199817D03*
Y198243D03*
Y196668D03*
Y195093D03*
Y193518D03*
Y191943D03*
Y190369D03*
Y188794D03*
Y187219D03*
Y185644D03*
Y184069D03*
Y182495D03*
Y180920D03*
X114101Y213991D03*
Y212416D03*
Y210841D03*
Y209266D03*
Y207691D03*
Y206117D03*
Y204542D03*
Y202967D03*
Y201392D03*
Y199817D03*
Y198243D03*
Y196668D03*
Y195093D03*
Y193518D03*
Y191943D03*
Y190369D03*
Y188794D03*
Y187219D03*
Y185644D03*
Y184069D03*
Y182495D03*
Y180920D03*
X327057Y136825D03*
Y138400D03*
Y139975D03*
Y141550D03*
Y143125D03*
Y144699D03*
Y146274D03*
Y147849D03*
Y149424D03*
Y150999D03*
Y152573D03*
Y154148D03*
Y155723D03*
Y157298D03*
Y158873D03*
Y160447D03*
Y162022D03*
Y163597D03*
Y165172D03*
Y166747D03*
Y168321D03*
Y169896D03*
Y171471D03*
Y173046D03*
Y174621D03*
Y176195D03*
Y177770D03*
Y179345D03*
X314459Y136825D03*
Y138400D03*
Y139975D03*
Y141550D03*
Y143125D03*
Y144699D03*
Y146274D03*
Y147849D03*
Y149424D03*
Y150999D03*
Y152573D03*
Y154148D03*
Y155723D03*
Y157298D03*
Y158873D03*
Y160447D03*
Y162022D03*
Y163597D03*
Y165172D03*
Y166747D03*
Y168321D03*
Y169896D03*
Y171471D03*
Y173046D03*
Y174621D03*
Y176195D03*
Y177770D03*
Y179345D03*
X327057Y180920D03*
Y182495D03*
Y184069D03*
Y185644D03*
Y187219D03*
Y188794D03*
Y190369D03*
Y191943D03*
Y193518D03*
Y195093D03*
Y196668D03*
Y198243D03*
Y199817D03*
Y201392D03*
Y202967D03*
Y204542D03*
Y206117D03*
Y207691D03*
Y209266D03*
Y210841D03*
Y212416D03*
Y213991D03*
X314459Y180920D03*
Y182495D03*
Y184069D03*
Y185644D03*
Y187219D03*
Y188794D03*
Y190369D03*
Y191943D03*
Y193518D03*
Y195093D03*
Y196668D03*
Y198243D03*
Y199817D03*
Y201392D03*
Y202967D03*
Y204542D03*
Y206117D03*
Y207691D03*
Y209266D03*
Y210841D03*
Y212416D03*
Y213991D03*
G54D42*
G01X51555Y97564D02*
X53358Y95761D01*
X76525D01*
X84757Y103993D01*
X99060D01*
X112239Y117172D01*
X143819D01*
X146108Y119461D01*
X210873D01*
X213041Y121629D01*
Y124581D01*
G01X47105Y99444D02*
X53271Y93278D01*
X80442D01*
X89079Y101915D01*
X99828D01*
X111034Y113121D01*
X143111D01*
X147825Y117835D01*
X211341D01*
X214616Y121110D01*
Y124581D01*
G01X58300Y151754D02*
X59481D01*
X60950Y150285D01*
Y141177D01*
X57857Y138084D01*
X56057D01*
G01X101503Y168321D02*
X98125D01*
X97082Y167278D01*
Y158990D01*
X94302Y156210D01*
X85975D01*
X85073Y157112D01*
Y158358D01*
X85909Y159194D01*
X88637D01*
X89797Y158034D01*
X90170D01*
X90196Y158008D01*
X91688D01*
X92851Y159171D01*
Y160325D01*
X95397Y162871D01*
Y164773D01*
X94354Y165816D01*
X91201D01*
X89218Y163833D01*
G01X101503Y169896D02*
X94048D01*
X93470Y169318D01*
X89266D01*
X88466Y168518D01*
Y166520D01*
X87666Y165720D01*
X86066D01*
X85266Y166520D01*
Y169042D01*
X84466Y169842D01*
X82536D01*
X81789Y169095D01*
Y163049D01*
X82970Y161868D01*
X91158D01*
X93076Y163786D01*
G01X209891Y124581D02*
X208597D01*
X206639Y122623D01*
X142504D01*
X141418Y123709D01*
X112620D01*
X96541Y107630D01*
X83150D01*
X78179Y102659D01*
X76237D01*
X74878Y104018D01*
X51892D01*
X50480Y105430D01*
X46145D01*
X45305Y104590D01*
Y102578D01*
X46396Y101487D01*
X48409D01*
G01X52829Y126270D02*
X55604D01*
X58438Y123436D01*
X66892D01*
X67979Y124523D01*
Y127261D01*
X67081Y128159D01*
X54512D01*
X52829Y129842D01*
Y140986D01*
X50828Y142987D01*
Y162786D01*
X57119Y169077D01*
X58300D01*
G01X56057Y114456D02*
X54257D01*
X45208Y123505D01*
Y176767D01*
X54841Y186400D01*
X58300D01*
G01X56057Y118394D02*
X53773D01*
X47085Y125082D01*
Y174313D01*
X54841Y182069D01*
X58300D01*
G01Y177739D02*
X54612D01*
X49112Y172239D01*
Y126489D01*
X53269Y122332D01*
X56057D01*
G01X58300Y160416D02*
X61759D01*
X62505Y161162D01*
X72238D01*
X77827Y155573D01*
Y141553D01*
X66482Y130208D01*
X56057D01*
G01X58300Y156085D02*
X61759D01*
X62914Y157240D01*
X72030D01*
X74454Y154816D01*
Y152410D01*
X73654Y151610D01*
X70011D01*
X69211Y150810D01*
Y149210D01*
X70011Y148410D01*
X73654D01*
X74454Y147610D01*
Y146310D01*
X70939Y142795D01*
X69807D01*
X65647Y146955D01*
X64515D01*
X63384Y145824D01*
Y144692D01*
X67544Y140532D01*
Y139400D01*
X65869Y137725D01*
Y135887D01*
X63631Y133649D01*
X58354D01*
X57857Y134146D01*
X56057D01*
G01X211466Y124581D02*
Y122303D01*
X210242Y121079D01*
X144445D01*
X142947Y119581D01*
X111530D01*
X97879Y105930D01*
X84086D01*
X77650Y99494D01*
X53622D01*
X49734Y103382D01*
X47105D01*
G01X82038Y120286D02*
X88009D01*
X104158Y136435D01*
Y139175D01*
X103358Y139975D01*
X101503D01*
G01X82038Y122845D02*
X83738Y124545D01*
X84870D01*
X85875Y123540D01*
X87007D01*
X88138Y124671D01*
Y125803D01*
X87133Y126808D01*
Y127940D01*
X88264Y129071D01*
X89396D01*
X90401Y128066D01*
X91533D01*
X92664Y129197D01*
Y130329D01*
X91659Y131334D01*
Y132466D01*
X97593Y138400D01*
X101503D01*
G01X82038Y125405D02*
X78085Y129358D01*
Y136299D01*
X88060Y146274D01*
X101503D01*
G01X82038Y130523D02*
X80102Y132459D01*
Y135233D01*
X89568Y144699D01*
X101503D01*
G01X82038Y133082D02*
X83313Y134357D01*
X84443D01*
X86343Y132456D01*
X87473D01*
X88606Y133589D01*
Y134719D01*
X86706Y136620D01*
Y137750D01*
X92081Y143125D01*
X101503D01*
G01X78654Y285164D02*
Y258586D01*
X80600Y256640D01*
X82400D01*
G01X52527Y259888D02*
X71555Y240860D01*
Y237484D01*
G01X222490Y226235D02*
X222586Y226139D01*
Y224639D01*
X219402Y221455D01*
X217981D01*
X217970Y221444D01*
X216478D01*
X216467Y221455D01*
X210046D01*
X202677Y228824D01*
X182195D01*
X166656Y244363D01*
X164779D01*
X164726Y244416D01*
X164684D01*
X163630Y245470D01*
Y245512D01*
X162514Y246628D01*
X94755D01*
X92381Y249002D01*
G01X82400D02*
Y246556D01*
X84602Y244354D01*
X112432D01*
X113758Y243028D01*
X160742D01*
X177116Y226654D01*
X202364D01*
X211403Y217615D01*
X213853D01*
X215628Y219390D01*
X219918D01*
X224065Y223537D01*
Y226235D01*
G01X144343Y31746D02*
X150664D01*
X157539Y24871D01*
X167648D01*
X169518Y26741D01*
X169535D01*
X170589Y27795D01*
Y27812D01*
X179422Y36645D01*
X184947D01*
X193512Y45210D01*
X202328D01*
X207620Y50502D01*
Y61436D01*
G01X205061Y64816D02*
Y50495D01*
X202350Y47784D01*
X180449D01*
X168844Y36179D01*
X166763D01*
X164931Y34347D01*
Y28896D01*
X162748Y26713D01*
X158344D01*
X151343Y33714D01*
X147992D01*
G01X202502Y61436D02*
X200702D01*
X189712Y50446D01*
X176431D01*
X161668Y35683D01*
X144343D01*
G01X147992Y37651D02*
X150256D01*
X164642Y52037D01*
X185277D01*
X196783Y63543D01*
X198670D01*
X199943Y64816D01*
G01X172500Y94460D02*
X174656Y96616D01*
Y100648D01*
X180966Y106958D01*
X218179D01*
X220915Y109694D01*
Y111983D01*
G01X172500Y99140D02*
Y100190D01*
X180468Y108158D01*
X217681D01*
X219340Y109817D01*
Y111983D01*
G01X209891D02*
X208597D01*
X207308Y113272D01*
X177048D01*
X161515Y97739D01*
G01X114101Y165172D02*
X116879D01*
G01X114101Y157298D02*
X116879D01*
G01X114101Y149424D02*
X116879D01*
G01X101503Y141550D02*
X97845D01*
X97012Y140717D01*
G01X116988Y167880D02*
Y172437D01*
X116379Y173046D01*
X114101D01*
G01X94880Y154176D02*
X98002Y157298D01*
G01D02*
X98979Y158275D01*
Y164300D01*
X99851Y165172D01*
X101503D01*
G01X93248Y171642D02*
X94652Y173046D01*
G01X94761Y148819D02*
X98031D01*
G01X119140Y142082D02*
X116406D01*
G01X98002Y157298D02*
X101503D01*
G01X94652Y173046D02*
X101503D01*
G01X98031Y148819D02*
X98636Y149424D01*
X101503D01*
G01X116406Y142082D02*
X115874Y141550D01*
X114101D01*
G01Y147849D02*
X110819D01*
X110243Y147273D01*
G01X114101Y146274D02*
X116379D01*
X119367Y149262D01*
G01X114101Y138400D02*
X111590D01*
G01X114101Y136825D02*
X116879D01*
G01X114101Y139975D02*
X116879D01*
G01X104643Y183896D02*
X106365Y182174D01*
Y180309D01*
X103879Y177823D01*
Y172377D01*
X102973Y171471D01*
X101503D01*
G01X161440Y114077D02*
X172865D01*
X174411Y115623D01*
X209542D01*
X211466Y113699D01*
Y111983D01*
G01X105604Y169144D02*
X106877Y170417D01*
Y171407D01*
X108020Y172550D01*
Y176714D01*
X107252Y177482D01*
X106165D01*
X105396Y176713D01*
Y171754D01*
X103781Y170139D01*
Y167554D01*
X102974Y166747D01*
X101503D01*
G01Y155723D02*
X105538D01*
G01X101503Y163597D02*
X103015D01*
X108229Y168811D01*
Y170312D01*
X109673Y171756D01*
Y173710D01*
X110214Y174251D01*
X110975D01*
X111513Y173713D01*
Y170726D01*
X110029Y169242D01*
G01X107129Y162414D02*
X108929D01*
X111427Y164912D01*
Y166569D01*
X110627Y167369D01*
X109350D01*
X104003Y162022D01*
X101503D01*
G01X109862Y160862D02*
X111540Y159184D01*
Y155721D01*
X110740Y154921D01*
X109491D01*
X108847Y155565D01*
Y159176D01*
X107576Y160447D01*
X101503D01*
G01Y158873D02*
X104804D01*
X105206Y158471D01*
X107006D01*
G01X101503Y154148D02*
X98559D01*
X97885Y153474D01*
G01X101503Y152573D02*
X104463D01*
G01X101503Y150999D02*
X97189D01*
G01X99836Y135061D02*
Y136142D01*
X100519Y136825D01*
X101503D01*
G01X119528Y145429D02*
X117728D01*
X116998Y144699D01*
X114101D01*
G01X143416Y193038D02*
X138934D01*
X136204Y190308D01*
X129406D01*
X120771Y181673D01*
Y177574D01*
X117818Y174621D01*
X114101D01*
G01X133102Y193038D02*
X132329Y192265D01*
X128243D01*
X118930Y182952D01*
Y178172D01*
X116953Y176195D01*
X114101D01*
G01X99023Y127964D02*
X109181D01*
X111512Y130295D01*
Y133889D01*
X107627Y137774D01*
Y145062D01*
X104840Y147849D01*
X101503D01*
G01X167802Y135352D02*
X163683D01*
X162179Y136856D01*
Y139891D01*
X163500Y141212D01*
X167902D01*
X169583Y139531D01*
Y136310D01*
X170541Y135352D01*
X172564D01*
X183986Y146774D01*
X225084D01*
X233513Y138345D01*
Y124581D01*
G01X235088D02*
Y138998D01*
X225438Y148648D01*
X182496D01*
X180702Y146854D01*
X179571D01*
X177407Y149018D01*
X176277D01*
X175144Y147885D01*
Y146755D01*
X177647Y144253D01*
Y143123D01*
X176514Y141990D01*
X175384D01*
X172881Y144492D01*
X171751D01*
X170618Y143359D01*
Y142229D01*
X173121Y139727D01*
Y138597D01*
X171845Y137321D01*
G01X231939Y124581D02*
Y137395D01*
X224189Y145145D01*
X186265D01*
X175096Y133976D01*
Y128395D01*
X173920Y127219D01*
X166762D01*
X165427Y128554D01*
Y130253D01*
X168558Y133384D01*
X172439D01*
G01X126016Y193038D02*
X117174Y184196D01*
Y178565D01*
X116379Y177770D01*
X114101D01*
G01Y179345D02*
X112386D01*
X110008Y176967D01*
G01X101503Y213991D02*
X104281D01*
G01X114101D02*
X111323D01*
G01X101503Y210841D02*
X104281D01*
G01X101503Y212416D02*
X98725D01*
G01X114101Y210841D02*
X111323D01*
G01X114101Y212416D02*
X116879D01*
G01X114101Y209266D02*
X116879D01*
G01X101503D02*
X98725D01*
G01X101503Y207691D02*
X104041D01*
X104619Y208269D01*
G01X114101Y207691D02*
X111563D01*
X110985Y208269D01*
G01X114101Y206117D02*
X111563D01*
X110985Y205539D01*
G01X104287Y180891D02*
X104184D01*
X104155Y180920D01*
X101503D01*
G01X114101Y204542D02*
X116879D01*
G01X101503D02*
X98725D01*
G01X114101Y202967D02*
X111323D01*
G01X101503D02*
X104281D01*
G01X101503Y188794D02*
X104162D01*
G01X114101D02*
X111323D01*
G01X108631Y180573D02*
X110733D01*
X111080Y180920D01*
X114101D01*
G01X101503Y206117D02*
X104408D01*
X104729Y205796D01*
G01X172229Y249002D02*
X190350Y230881D01*
X222593D01*
X225639Y233927D01*
Y238833D01*
G01X235088D02*
Y249015D01*
X233029Y251074D01*
X166126D01*
X162248Y254952D01*
G01X236663Y238833D02*
Y250647D01*
X234425Y252885D01*
X172773D01*
X167037Y258621D01*
X161886D01*
X152267Y249002D01*
G01X142286D02*
X150467Y257183D01*
Y258147D01*
X153735Y261415D01*
X173588D01*
X180237Y254766D01*
X235335D01*
X238233Y251868D01*
Y242540D01*
X238238Y242535D01*
Y238833D01*
G01X132305Y249002D02*
X140486Y257183D01*
Y258485D01*
X145517Y263516D01*
X175737D01*
X180630Y258623D01*
X236257D01*
X239813Y255067D01*
Y238833D01*
G01X241387D02*
Y256284D01*
X236979Y260692D01*
X182352D01*
X177512Y265532D01*
X137466D01*
X130505Y258571D01*
Y257183D01*
X122324Y249002D01*
G01X242962Y238833D02*
Y259961D01*
X240547Y262376D01*
X183985D01*
X179073Y267288D01*
X171350D01*
X170111Y268527D01*
X131665D01*
X113616Y250478D01*
Y250275D01*
X112343Y249002D01*
G01X246112Y238833D02*
Y259242D01*
X241121Y264233D01*
X199031D01*
X192267Y270997D01*
X192099D01*
X192070Y271026D01*
X122247D01*
X102362Y251141D01*
Y249002D01*
G01X114101Y184069D02*
X110410D01*
X107401Y187078D01*
Y195612D01*
G01X114101Y182495D02*
X109346D01*
X108825Y183016D01*
G01X114101Y185644D02*
X111823D01*
X109328Y188139D01*
Y197623D01*
X107401Y199550D01*
G01X107584Y281253D02*
X108857Y279980D01*
X222465D01*
X235718Y266727D01*
X241143D01*
X247687Y260183D01*
Y238833D01*
G01X179825Y17641D02*
X197000D01*
X213735Y34376D01*
Y55841D01*
X217098Y59204D01*
Y67825D01*
X214578Y70345D01*
X214552D01*
X213279Y71618D01*
G01X179825Y22759D02*
X197025D01*
X209161Y34895D01*
Y36414D01*
X210811Y38064D01*
Y56066D01*
X214733Y59988D01*
Y62049D01*
X213306Y63476D01*
Y69044D01*
X208059Y74291D01*
X206334D01*
X205061Y75564D01*
G01X252500Y99140D02*
Y99580D01*
X249074Y103006D01*
Y109139D01*
X249261Y109326D01*
Y111983D01*
G01X252500Y94460D02*
X250307Y96653D01*
Y100075D01*
X247874Y102508D01*
Y109139D01*
X247687Y109326D01*
Y111983D01*
G01X247500Y99140D02*
X245924Y100716D01*
Y109139D01*
X246112Y109327D01*
Y111983D01*
G01X244537D02*
Y109326D01*
X244724Y109139D01*
Y97236D01*
X247500Y94460D01*
G01X242962Y111983D02*
Y99602D01*
X242500Y99140D01*
G01X241387Y111983D02*
Y100573D01*
X240700Y99886D01*
Y96260D01*
X242500Y94460D01*
G01X232500D02*
X234629Y96589D01*
Y99812D01*
X238051Y103234D01*
Y109139D01*
X238238Y109326D01*
Y111983D01*
G01X232500Y99140D02*
Y99381D01*
X236851Y103732D01*
Y109139D01*
X236663Y109327D01*
Y111983D01*
G01X227500Y94460D02*
X230333Y97293D01*
Y100313D01*
X234901Y104881D01*
Y109139D01*
X235088Y109326D01*
Y111983D01*
G01X227500Y99140D02*
Y99178D01*
X233701Y105379D01*
Y109139D01*
X233513Y109327D01*
Y111983D01*
G01X231939D02*
Y109326D01*
X231752Y109139D01*
Y106686D01*
X224300Y99234D01*
Y96260D01*
X222500Y94460D01*
G01X230364Y111983D02*
Y109327D01*
X230552Y109139D01*
Y107184D01*
X223100Y99732D01*
Y99184D01*
X223056Y99140D01*
X222500D01*
G01X182500Y94460D02*
X184384Y96344D01*
Y99326D01*
X186328Y101270D01*
X222002D01*
X227027Y106295D01*
Y109139D01*
X227214Y109326D01*
Y111983D01*
G01X182500Y99140D02*
X185830Y102470D01*
X221504D01*
X225827Y106793D01*
Y109139D01*
X225639Y109327D01*
Y111983D01*
G01X177500Y94460D02*
X179300Y96260D01*
Y101042D01*
X182328Y104070D01*
X220392D01*
X223854Y107532D01*
Y109115D01*
X224065Y109326D01*
Y111983D01*
G01X177500Y99140D02*
Y100940D01*
X181830Y105270D01*
X219894D01*
X222654Y108030D01*
Y109163D01*
X222490Y109327D01*
Y111983D01*
G01X239813D02*
Y114761D01*
G01X216238Y116013D02*
X216191Y115966D01*
G01X239813Y124581D02*
Y120400D01*
G01X229137Y115251D02*
X228789Y114903D01*
G01X251352Y115423D02*
X250836Y114907D01*
G01Y124581D02*
Y117739D01*
G01X228789Y124581D02*
Y117399D01*
G01X216191Y124581D02*
Y117860D01*
G01D02*
X216238Y117813D01*
Y116013D01*
G01X216191Y115966D02*
Y111983D01*
G01X239813Y120400D02*
X238869Y119456D01*
Y117964D01*
X239813Y117020D01*
Y114761D01*
G01X228789Y117399D02*
X229137Y117051D01*
Y115251D01*
G01X228789Y114903D02*
Y111983D01*
G01X250836Y114907D02*
Y111983D01*
G01Y117739D02*
X251352Y117223D01*
Y115423D01*
G01X200730Y159455D02*
X226797D01*
X244537Y141715D01*
Y124581D01*
G01X205784Y157645D02*
X226379D01*
X242962Y141062D01*
Y124581D01*
G01X241387D02*
Y139769D01*
X225726Y155430D01*
X204074D01*
X202062Y157442D01*
X195712D01*
X194324Y156054D01*
X189209D01*
X188409Y155254D01*
Y154122D01*
X189160Y153371D01*
X194354D01*
X196413Y155430D01*
X199928D01*
G01X238238Y124581D02*
Y140304D01*
X224655Y153887D01*
X218515D01*
X217715Y153087D01*
Y152648D01*
X216915Y151848D01*
X215315D01*
X214515Y152648D01*
Y153087D01*
X213715Y153887D01*
X212115D01*
X211315Y153087D01*
Y152648D01*
X210515Y151848D01*
X208915D01*
X208115Y152648D01*
Y153087D01*
X207315Y153887D01*
X206015D01*
X202286Y150158D01*
X197421D01*
X196621Y150958D01*
Y152649D01*
X197602Y153630D01*
X203189D01*
G01X205340Y150448D02*
X225866D01*
X236663Y139651D01*
Y124581D01*
G01X230364D02*
Y136292D01*
X223311Y143345D01*
X199048D01*
X188924Y133221D01*
X187464D01*
X186308Y134377D01*
Y135509D01*
X190585Y139786D01*
Y140918D01*
X189245Y142258D01*
X187973D01*
X177329Y131614D01*
Y130413D01*
X178801Y128941D01*
X179933D01*
X182916Y131924D01*
X185766D01*
G01X227214Y124581D02*
Y136755D01*
X222344Y141625D01*
X201650D01*
X196177Y136152D01*
G01X201349Y135321D02*
X204015Y137987D01*
X220266D01*
X224065Y134188D01*
Y124581D01*
G01X195375Y130994D02*
X194102Y129721D01*
X183126D01*
X181936Y128531D01*
Y126039D01*
X183126Y124849D01*
X184426D01*
X185226Y125649D01*
Y127374D01*
X186026Y128174D01*
X187626D01*
X188426Y127374D01*
Y125649D01*
X189226Y124849D01*
X190826D01*
X191626Y125649D01*
Y127374D01*
X192426Y128174D01*
X194026D01*
X194826Y127374D01*
Y125649D01*
X195626Y124849D01*
X198417D01*
X199172Y125604D01*
Y127654D01*
X199972Y128454D01*
X202223D01*
X203023Y127654D01*
Y125875D01*
X204030Y124868D01*
X206572D01*
X207400Y125696D01*
Y128661D01*
X205977Y130084D01*
X203222D01*
X202053Y131253D01*
Y132985D01*
X205112Y136044D01*
X219207D01*
X222490Y132761D01*
Y124581D01*
G01X191232Y132544D02*
X192747Y134059D01*
X196954D01*
X202639Y139744D01*
X221367D01*
X225639Y135472D01*
Y124581D01*
G01X219340D02*
Y129602D01*
X216944Y131998D01*
X204106D01*
G01X207245Y134211D02*
X218047D01*
X220915Y131343D01*
Y124581D01*
G01X217765D02*
Y127635D01*
X216761Y128639D01*
X209465D01*
G01X257500Y99140D02*
X257060D01*
X253798Y102402D01*
Y109139D01*
X253986Y109327D01*
Y111983D01*
G01X257500Y94460D02*
X254660Y97300D01*
Y99842D01*
X252598Y101904D01*
Y109139D01*
X252411Y109326D01*
Y111983D01*
G01X206974Y110421D02*
X207170D01*
X207988Y109603D01*
X212131D01*
X213041Y110513D01*
Y111983D01*
G01X213975Y115599D02*
X214616Y114958D01*
Y111983D01*
G01X255561Y124581D02*
Y146487D01*
X229837Y172211D01*
X189825D01*
X184462Y166848D01*
X182662D01*
G01X183521Y164541D02*
X185321D01*
X190876Y170096D01*
X229381D01*
X253986Y145491D01*
Y124581D01*
G01X252411D02*
Y144310D01*
X228747Y167974D01*
X191634D01*
X186927Y163267D01*
Y162480D01*
X185654Y161207D01*
G01X249261Y124581D02*
Y144573D01*
X227767Y166067D01*
X192684D01*
X189797Y163180D01*
G01X247687Y124581D02*
Y143517D01*
X227067Y164137D01*
X195499D01*
X193696Y162334D01*
G01X192923Y157878D02*
X196910Y161865D01*
X226615D01*
X246112Y142368D01*
Y124581D01*
G01X244537Y238833D02*
Y236055D01*
G01X230633Y229271D02*
X232755D01*
X233513Y228513D01*
Y226235D01*
G01X244537D02*
Y229013D01*
G01X219340Y226235D02*
Y229013D01*
G01X213041Y226235D02*
Y229013D01*
G01X220915Y238833D02*
Y241611D01*
G01X217765Y238833D02*
Y241611D01*
G01X219340Y238833D02*
Y236055D01*
G01X213041Y238833D02*
Y236055D01*
G01X219340Y229013D02*
X218728D01*
G01X219340D02*
X220114D01*
X220915Y228212D01*
G01X238795Y234751D02*
X235317D01*
X233513Y236555D01*
G01X218728Y229013D02*
X217765Y228050D01*
Y226235D01*
G01X220915Y228212D02*
Y226235D01*
G01X233513Y236555D02*
Y238833D01*
G01X209891D02*
Y236055D01*
G01X211466Y238833D02*
Y241611D01*
G01X216191Y238833D02*
Y236055D01*
G01X214616Y238833D02*
Y241611D01*
G01X209891Y226235D02*
Y229013D01*
G01X216191Y226235D02*
Y229013D01*
G01X211466Y226235D02*
Y223457D01*
G01X214616Y226235D02*
Y223457D01*
G01X222490Y238833D02*
Y235831D01*
X220914Y234255D01*
X206938D01*
X192191Y249002D01*
G01X182210D02*
X198559Y232653D01*
X222004D01*
X224065Y234714D01*
Y238833D01*
G01X202172Y249002D02*
X207513Y243661D01*
X223966D01*
X227214Y240413D01*
Y238833D01*
G01X212153Y249002D02*
X215922Y245233D01*
X224667D01*
X228789Y241111D01*
Y238833D01*
G01X230364D02*
Y242811D01*
X226182Y246993D01*
X224143D01*
X222134Y249002D01*
G01X232115D02*
Y246615D01*
X231939Y246439D01*
Y238833D01*
G01X249261D02*
Y261555D01*
X243947Y266869D01*
G01X250836Y238833D02*
Y254433D01*
X263272Y266869D01*
G01X267034Y274419D02*
X265153Y272538D01*
Y265021D01*
X252411Y252279D01*
Y238833D01*
G01X243804Y231207D02*
X270847D01*
X271647Y232007D01*
Y233316D01*
X270847Y234116D01*
X241567D01*
X240242Y232791D01*
X234784D01*
X232094Y235481D01*
X229871D01*
X229071Y234681D01*
Y232169D01*
X230089Y231151D01*
X235600D01*
X238238Y228513D01*
Y226235D01*
G01X294022Y94864D02*
X296183Y97025D01*
Y101245D01*
X315786Y120848D01*
X317484D01*
X344383Y147747D01*
Y181120D01*
X338361Y187142D01*
X334826D01*
G01X333110Y189446D02*
X339483D01*
X347557Y181372D01*
Y147600D01*
X301323Y101366D01*
Y97165D01*
X299022Y94864D01*
G01X267500Y99140D02*
Y100604D01*
X260097Y108007D01*
Y109139D01*
X260285Y109327D01*
Y111983D01*
G01X267500Y94460D02*
X264695Y97265D01*
Y101711D01*
X258897Y107509D01*
Y109139D01*
X258710Y109326D01*
Y111983D01*
G01X262500Y99140D02*
X256948Y104692D01*
Y109139D01*
X257135Y109326D01*
Y111983D01*
G01X262500Y94460D02*
X260700Y96260D01*
Y99242D01*
X255748Y104194D01*
Y109139D01*
X255561Y109326D01*
Y111983D01*
G01X275182Y119499D02*
X278579D01*
X282332Y123252D01*
Y124581D01*
G01X327057Y144699D02*
X324279D01*
G01X327057Y139975D02*
X329835D01*
G01X327057Y146274D02*
X329835D01*
G01X327057Y158873D02*
X329835D01*
G01X277608Y115696D02*
X281341D01*
X282332Y114705D01*
Y111983D01*
G01X268159Y115541D02*
X271603D01*
X272883Y114261D01*
Y111983D01*
G01X314459Y139975D02*
X317237D01*
G01X314459Y146274D02*
X317237D01*
G01X314459Y169896D02*
X317237D01*
G01X261860Y111983D02*
Y115636D01*
G01X263435Y111983D02*
Y114835D01*
X262634Y115636D01*
X261860D01*
G01X268159Y111983D02*
Y115541D01*
G01X277608Y111983D02*
Y115696D01*
G01X287057Y111983D02*
Y115541D01*
G01X261860Y124581D02*
Y121771D01*
G01X263435Y124581D02*
Y123346D01*
X261860Y121771D01*
G01X268159Y124581D02*
Y121803D01*
G01X272883Y124581D02*
Y122603D01*
X272083Y121803D01*
X268159D01*
G01X277608Y124581D02*
Y121636D01*
X277669Y121575D01*
G01X327057Y169896D02*
X329128D01*
X329977Y170745D01*
G01X287057Y124581D02*
Y121931D01*
X287689Y121299D01*
Y119499D01*
G01X314459Y158873D02*
X317136D01*
G01X317237Y146274D02*
Y145500D01*
G01X317136Y158873D02*
X317901Y158108D01*
X319701D01*
G01X317237Y145500D02*
X316436Y144699D01*
X314459D01*
G01Y143125D02*
X318227D01*
G01X327057D02*
X329835D01*
G01X327057Y138400D02*
X324279D01*
G01X327057Y136825D02*
X329835D01*
G01X327057Y141550D02*
X324279D01*
G01X314459Y136825D02*
X317237D01*
G01X314459Y141550D02*
X311083D01*
X310158Y142475D01*
G01X311799Y136900D02*
Y137457D01*
X312742Y138400D01*
X314459D01*
G01X287116Y170811D02*
X293394D01*
X296474Y173891D01*
X310805D01*
X311535Y174621D01*
X314459D01*
G01Y173046D02*
X312181D01*
X308813Y169678D01*
X300986D01*
X300042Y168734D01*
X282895D01*
X280818Y170811D01*
G01X318893Y172188D02*
X316983D01*
X316266Y171471D01*
X314459D01*
G01Y168321D02*
X310472D01*
X307160Y165009D01*
X305412D01*
X304486Y165935D01*
X301456D01*
X300577Y166814D01*
X299135D01*
X297390Y165069D01*
X290417D01*
X289858Y165628D01*
X288058D01*
G01X283966Y164514D02*
X285337Y163143D01*
X288175D01*
X290156Y161162D01*
X299407Y161189D01*
X301815Y163597D01*
X307057D01*
X307061Y163593D01*
X308462D01*
X308466Y163597D01*
X314459D01*
G01X277669Y167663D02*
X285760Y159572D01*
X304574D01*
X307024Y162022D01*
X314459D01*
G01Y157298D02*
X307812D01*
X305234Y154720D01*
X295159D01*
X292145Y157734D01*
X289361D01*
G01X283966Y158215D02*
X291419Y150762D01*
X296619D01*
X298405Y152548D01*
X306448D01*
X309623Y155723D01*
X314459D01*
G01Y154148D02*
X320251D01*
G01X277669Y164514D02*
X275610Y162455D01*
Y157461D01*
X276940Y156131D01*
X278933D01*
X279715Y155349D01*
Y154213D01*
X286216Y147712D01*
X288786D01*
X289907Y148833D01*
X306333D01*
X310073Y152573D01*
X314459D01*
G01Y150999D02*
X317237D01*
G01X320251Y151018D02*
X318076Y148843D01*
X316552D01*
X315971Y149424D01*
X314459D01*
G01X327057Y179345D02*
X323056D01*
G01X327057Y177770D02*
X329940D01*
X330522Y178352D01*
G01X333029Y177920D02*
X331304Y176195D01*
X327057D01*
G01X333164Y174621D02*
X327057D01*
G01Y173046D02*
X330400D01*
X331570Y171876D01*
X333370D01*
G01X327057Y168321D02*
X331548D01*
X332221Y168994D01*
X334021D01*
G01X332840Y166720D02*
X329737D01*
X329710Y166747D01*
X327057D01*
G01Y165172D02*
X330789D01*
X331517Y164444D01*
X335567D01*
G01X333766Y162192D02*
X333723Y162149D01*
X331973D01*
X330525Y163597D01*
X327057D01*
G01Y162022D02*
X329840D01*
X332181Y159681D01*
G01X323963Y155656D02*
Y159631D01*
X324779Y160447D01*
X327057D01*
G01Y152573D02*
X336143D01*
X336386Y152330D01*
X338186D01*
G01X271822Y131415D02*
X264832D01*
X261602Y134645D01*
Y141925D01*
X271394Y151717D01*
X279020D01*
X280818Y149919D01*
G01X270684Y133415D02*
X268884D01*
X268853Y133384D01*
X265739D01*
X263718Y135405D01*
Y140536D01*
X270983Y147801D01*
X272633D01*
G01X267154Y135352D02*
X276582D01*
X283966Y142736D01*
Y146770D01*
G01X275609Y145680D02*
X274336Y144407D01*
Y142673D01*
X270915Y139252D01*
G01X280818Y143620D02*
X274280Y137082D01*
X270115D01*
X267908Y139289D01*
G01X314459Y196668D02*
X307510D01*
X290155Y179313D01*
X286250D01*
X284048Y177111D01*
X280818D01*
G01X314459Y195093D02*
X308801D01*
X288182Y174474D01*
X280306D01*
X277669Y177111D01*
G01X334070Y191537D02*
X340714D01*
X350684Y181567D01*
Y144234D01*
X352723Y142195D01*
X355057D01*
X357873Y139379D01*
G01X327057Y191943D02*
X329835D01*
G01X255561Y226235D02*
Y229013D01*
G01X266584Y226235D02*
Y229013D01*
G01X314459Y202967D02*
X317237D01*
G01X314459Y191943D02*
X317237D01*
G01X255561Y238833D02*
Y241477D01*
X255325Y241713D01*
G01X266584Y238833D02*
Y236055D01*
G01X327057Y202967D02*
X322460D01*
X320333Y205094D01*
G01X317212Y184985D02*
Y181980D01*
X316152Y180920D01*
X314459D01*
G01X327057D02*
X330672D01*
G01X277608Y226235D02*
Y227767D01*
X276310Y229065D01*
G01X275900Y231764D02*
X277608Y233472D01*
G01D02*
Y238833D01*
G01X387077Y284391D02*
X396500D01*
X401692Y279199D01*
Y266903D01*
X382066Y247277D01*
Y242096D01*
X371872Y231902D01*
X351586D01*
X349103Y234385D01*
X332118D01*
X329872Y232139D01*
X328795D01*
X328782Y232126D01*
X327290D01*
X327277Y232139D01*
X295850D01*
X294408Y233581D01*
X286486D01*
X282332Y229427D01*
Y226235D01*
G01X387077Y286950D02*
X397049D01*
X403816Y280183D01*
Y266273D01*
X403102Y265559D01*
Y265560D01*
X384012Y246470D01*
Y241289D01*
X372679Y229956D01*
X350119D01*
X347521Y232554D01*
X333522D01*
X329364Y228396D01*
X295074D01*
X291790Y231680D01*
X287074D01*
X283907Y228513D01*
Y226235D01*
G01X285737Y203125D02*
X287537Y204925D01*
Y207808D01*
X285482Y209863D01*
Y226235D01*
G01X287057D02*
Y210932D01*
X290954Y207035D01*
X292754D01*
G01X319848Y202845D02*
X321121Y201572D01*
X322368D01*
X322548Y201392D01*
X327057D01*
G01X319934Y200218D02*
X321734D01*
X322135Y199817D01*
X327057D01*
G01X317829Y197434D02*
X321249D01*
X322058Y198243D01*
X327057D01*
G01X319895Y195634D02*
X322172D01*
X323206Y196668D01*
X327057D01*
G01X323319Y193798D02*
X324614Y195093D01*
X327057D01*
G01X320074Y191116D02*
X322675D01*
X323422Y190369D01*
X327057D01*
G01X321532Y189236D02*
X321974Y188794D01*
X327057D01*
G01X257135Y238833D02*
Y245089D01*
X255355Y246869D01*
G01X258710Y246933D02*
Y238833D01*
G01X329835Y184069D02*
X327057D01*
G01Y182495D02*
X323717D01*
X323665Y182443D01*
G01X260285Y238833D02*
Y244555D01*
X261014Y245284D01*
G01X261860Y238833D02*
Y242861D01*
X263780Y244781D01*
G01X263435Y238833D02*
Y241111D01*
X264177Y241853D01*
G01X268159Y262115D02*
X265016Y258972D01*
Y246091D01*
X268159Y242948D01*
Y238833D01*
G01X269734D02*
Y244160D01*
X266883Y247011D01*
Y257511D01*
X269642Y260270D01*
G01X271309Y238833D02*
Y245102D01*
X269698Y246713D01*
Y256934D01*
X273420Y260656D01*
Y286160D01*
X289386Y302126D01*
X324498D01*
X331965Y309593D01*
Y313414D01*
X345790Y327239D01*
X354684D01*
G01X359684D02*
Y319167D01*
X347628Y307111D01*
X332666D01*
X323527Y297972D01*
X309883D01*
X308459Y296548D01*
X287174D01*
X278309Y287683D01*
Y254509D01*
X272883Y249083D01*
Y238833D01*
G01X274458D02*
Y248113D01*
X280597Y254252D01*
Y286761D01*
X286461Y292625D01*
X289803D01*
X291796Y294618D01*
X308826D01*
X309654Y293790D01*
X342731D01*
X344684Y295743D01*
G01X276033Y238833D02*
Y246911D01*
X285192Y256070D01*
Y269317D01*
X283983Y270526D01*
Y286412D01*
X286295Y288724D01*
X290539D01*
X293513Y291698D01*
X345639D01*
X349684Y295743D01*
G01X279183Y238833D02*
Y247209D01*
X290634Y258660D01*
X317259D01*
X318531Y257388D01*
X357944D01*
X368365Y267809D01*
Y271614D01*
X373196Y276445D01*
X374269D01*
X381040Y283216D01*
Y289884D01*
X383224Y292068D01*
X387077D01*
G01Y281832D02*
X382515D01*
X375170Y274487D01*
Y272112D01*
X370385Y267327D01*
Y265929D01*
X359872Y255416D01*
X318359D01*
X317272Y254329D01*
X315240D01*
X314044Y255525D01*
X290322D01*
X280757Y245960D01*
Y238833D01*
G01X387077Y279272D02*
X382761D01*
X376971Y273479D01*
Y268821D01*
X363885Y255735D01*
Y253305D01*
X362469Y251889D01*
X328855D01*
X328782Y251816D01*
X327290D01*
X327217Y251889D01*
X312588D01*
X311823Y252654D01*
X290368D01*
X282332Y244618D01*
Y238833D01*
G01X387077Y274154D02*
X382921D01*
X379434Y270667D01*
Y265021D01*
X368610Y254197D01*
Y250341D01*
X366220Y247951D01*
X351882D01*
X350120Y249713D01*
X321604D01*
X319678Y247787D01*
X288412D01*
X283907Y243282D01*
Y238833D01*
G01X285482D02*
Y241307D01*
X287561Y243386D01*
X315038D01*
X319007Y239417D01*
X357249D01*
X357980Y240148D01*
X362822D01*
X370625Y247951D01*
X372568D01*
X381173Y256556D01*
Y269544D01*
X383224Y271595D01*
X387077D01*
G01Y276713D02*
X397366D01*
X399795Y274284D01*
Y267894D01*
X371976Y240075D01*
X370325D01*
X366423Y236173D01*
X314119D01*
X309062Y241230D01*
X288470D01*
X287057Y239817D01*
Y238833D01*
G01X352873Y95257D02*
X350645Y97485D01*
Y107061D01*
X349291Y108415D01*
Y124095D01*
X360480Y135284D01*
Y146495D01*
X353521Y153454D01*
Y175310D01*
X357922Y179711D01*
Y183079D01*
X347766Y193235D01*
X336511D01*
X330369Y199377D01*
G01X311934Y270691D02*
X323226Y259399D01*
X351533D01*
X353940Y261806D01*
X353955D01*
X355009Y262860D01*
Y262875D01*
X355821Y263687D01*
Y272035D01*
X357940Y274154D01*
X364243D01*
G01X314459Y213991D02*
X304045D01*
X285275Y195221D01*
X281805D01*
X275929Y189345D01*
Y182000D01*
X277669Y180260D01*
G01Y183410D02*
Y186633D01*
X281990Y190954D01*
X286438D01*
X307900Y212416D01*
X314459D01*
G01Y207691D02*
X311370D01*
X308941Y205262D01*
X303720D01*
X287327Y188869D01*
X283128D01*
X280818Y186559D01*
G01Y183410D02*
X282091Y184683D01*
X286055D01*
X302395Y201023D01*
X310089D01*
X310458Y201392D01*
X314459D01*
G01Y198243D02*
X312181D01*
X311202Y199222D01*
X303794D01*
X286704Y182132D01*
X282690D01*
X280818Y180260D01*
G01X320596Y279919D02*
Y273919D01*
G01X311934Y279919D02*
Y273919D01*
G01X298942Y279919D02*
Y273919D01*
G01X329257Y279919D02*
Y273919D01*
G01X308697Y266689D02*
Y270783D01*
X305561Y273919D01*
X303273D01*
G01Y279919D02*
Y273919D01*
G01X294611Y279919D02*
Y273919D01*
G01X324926Y279919D02*
Y283662D01*
X330147Y288883D01*
X349029D01*
X358640Y279272D01*
X364243D01*
G01X324926Y279919D02*
Y273919D01*
G01X366177Y179748D02*
Y204965D01*
X362805Y208337D01*
X359531D01*
X353231Y214637D01*
Y220440D01*
G01X383491Y149588D02*
X359835Y173244D01*
Y175774D01*
G01X381160Y189632D02*
X367302Y175774D01*
X359835D01*
G01X393113Y318851D02*
Y316998D01*
X368183Y292068D01*
X364243D01*
G01Y286950D02*
X369049D01*
X371612Y289513D01*
Y292649D01*
X396193Y317230D01*
Y320306D01*
G01X402099Y317770D02*
X391271Y306942D01*
Y304120D01*
X390048Y302897D01*
X389026D01*
X378241Y292112D01*
Y287458D01*
X372615Y281832D01*
X364243D01*
G01X387077Y269036D02*
X394077D01*
G01X364243Y276713D02*
X359890D01*
G01X364243Y271595D02*
X359890D01*
G01X364243Y284391D02*
X371741D01*
X376047Y288697D01*
Y294233D01*
X398162Y316348D01*
Y317770D01*
G54D24*
X105162Y295136D03*
X203588D03*
G54D15*
X23400Y81400D03*
X433107Y147268D03*
X433114Y187582D03*
G54D33*
X333195Y273919D03*
Y270691D03*
X311934Y273919D03*
Y270691D03*
X329257Y273919D03*
Y270691D03*
X324926Y273919D03*
Y270691D03*
X320596Y273919D03*
Y270691D03*
X294611Y273919D03*
Y270691D03*
X298942Y273919D03*
Y270691D03*
X303273Y273919D03*
Y270691D03*
X337133Y273919D03*
Y270691D03*
X394077Y289509D03*
X397305D03*
X354015D03*
X357243D03*
X394077Y269036D03*
X397305D03*
G54D16*
X16765Y147424D03*
Y208526D03*
G54D25*
X229238Y11087D03*
X310003D03*
X275987D03*
X263254D03*
X292139Y327139D03*
X326155D03*
G54D34*
X377369Y4304D03*
X385243D03*
X393117D03*
X377369Y22020D03*
X385243D03*
X393117D03*
G54D26*
X229238Y27544D03*
X310003D03*
X275987D03*
X263254D03*
X292139Y310682D03*
X326155D03*
G54D17*
X54954Y147424D03*
Y205219D03*
G54D35*
X394554Y240200D03*
Y280500D03*
X422113Y240200D03*
Y280500D03*
G54D36*
X364243Y292068D03*
Y289509D03*
Y286950D03*
Y284391D03*
Y281832D03*
Y279272D03*
Y276713D03*
Y274154D03*
Y271595D03*
Y269036D03*
X387077D03*
Y271595D03*
Y274154D03*
Y276713D03*
Y279272D03*
Y281832D03*
Y284391D03*
Y286950D03*
Y289509D03*
Y292068D03*
G54D18*
X58300Y151754D03*
Y156085D03*
Y160416D03*
Y164746D03*
Y169077D03*
Y173408D03*
Y177739D03*
Y182069D03*
Y186400D03*
G54D27*
X209891Y111983D03*
X211466D03*
X213041D03*
X214616D03*
X216191D03*
X217765D03*
X219340D03*
X220915D03*
X222490D03*
X224065D03*
X225639D03*
X227214D03*
X228789D03*
X230364D03*
X231939D03*
X233513D03*
X235088D03*
X236663D03*
X238238D03*
X239813D03*
X241387D03*
X242962D03*
X244537D03*
X246112D03*
X247687D03*
X249261D03*
X250836D03*
X252411D03*
X253986D03*
X209891Y124581D03*
X211466D03*
X213041D03*
X214616D03*
X216191D03*
X217765D03*
X219340D03*
X220915D03*
X222490D03*
X224065D03*
X225639D03*
X227214D03*
X228789D03*
X230364D03*
X231939D03*
X233513D03*
X235088D03*
X236663D03*
X238238D03*
X239813D03*
X241387D03*
X242962D03*
X244537D03*
X246112D03*
X247687D03*
X249261D03*
X250836D03*
X252411D03*
X253986D03*
Y238833D03*
X252411D03*
X250836D03*
X249261D03*
X247687D03*
X246112D03*
X244537D03*
X242962D03*
X241387D03*
X239813D03*
X238238D03*
X236663D03*
X235088D03*
X233513D03*
X231939D03*
X230364D03*
X228789D03*
X227214D03*
X225639D03*
X224065D03*
X222490D03*
X220915D03*
X219340D03*
X217765D03*
X216191D03*
X214616D03*
X213041D03*
X211466D03*
X209891D03*
X253986Y226235D03*
X252411D03*
X250836D03*
X249261D03*
X247687D03*
X246112D03*
X244537D03*
X242962D03*
X241387D03*
X239813D03*
X238238D03*
X236663D03*
X235088D03*
X233513D03*
X231939D03*
X230364D03*
X228789D03*
X227214D03*
X225639D03*
X224065D03*
X222490D03*
X220915D03*
X219340D03*
X217765D03*
X216191D03*
X214616D03*
X213041D03*
X211466D03*
X209891D03*
X255561Y111983D03*
X257135D03*
X258710D03*
X260285D03*
X261860D03*
X263435D03*
X265009D03*
X266584D03*
X268159D03*
X269734D03*
X271309D03*
X272883D03*
X274458D03*
X276033D03*
X277608D03*
X279183D03*
X280757D03*
X282332D03*
X283907D03*
X285482D03*
X287057D03*
X255561Y124581D03*
X257135D03*
X258710D03*
X260285D03*
X261860D03*
X263435D03*
X265009D03*
X266584D03*
X268159D03*
X269734D03*
X271309D03*
X272883D03*
X274458D03*
X276033D03*
X277608D03*
X279183D03*
X280757D03*
X282332D03*
X283907D03*
X285482D03*
X287057D03*
Y238833D03*
X285482D03*
X283907D03*
X282332D03*
X280757D03*
X279183D03*
X277608D03*
X276033D03*
X274458D03*
X272883D03*
X271309D03*
X269734D03*
X268159D03*
X266584D03*
X265009D03*
X263435D03*
X261860D03*
X260285D03*
X258710D03*
X257135D03*
X255561D03*
X287057Y226235D03*
X285482D03*
X283907D03*
X282332D03*
X280757D03*
X279183D03*
X277608D03*
X276033D03*
X274458D03*
X272883D03*
X271309D03*
X269734D03*
X268159D03*
X266584D03*
X265009D03*
X263435D03*
X261860D03*
X260285D03*
X258710D03*
X257135D03*
X255561D03*
G54D37*
X342252Y272856D03*
Y266242D03*
G54D28*
X225946Y322698D03*
X252915Y326628D03*
X279884Y322698D03*
G54D19*
X40377Y168057D03*
Y187743D03*
G54D38*
G01X16765Y147424D02*
X11428D01*
G01X16765Y208526D02*
X11428D01*
G01X16765Y147424D02*
Y151217D01*
G01Y147424D02*
Y143631D01*
G01X58300Y164746D02*
X63334D01*
X63959Y165371D01*
X65759D01*
G01X54954Y147424D02*
Y141339D01*
X55523Y140770D01*
G01X58300Y173408D02*
X55944D01*
X52280Y169744D01*
G01X49436Y217681D02*
X45498D01*
G01D02*
Y237655D01*
X41968Y241185D01*
Y254484D01*
X51631Y264147D01*
G01X16765Y208526D02*
Y204733D01*
G01Y208526D02*
X22102D01*
G01X16765D02*
Y212319D01*
G01X54954Y205219D02*
Y200122D01*
G01X322744Y209630D02*
Y205692D01*
G01Y209630D02*
Y217828D01*
X324745Y219829D01*
X328687D01*
X330735Y217781D01*
Y203351D01*
G01D02*
X336273Y197813D01*
X348467D01*
X362239Y184041D01*
Y181406D01*
G01X333195Y273919D02*
Y276323D01*
G01X290281Y321454D02*
X294043D01*
G01X290281D02*
Y316117D01*
G01X307603Y279919D02*
Y282497D01*
X309147Y284041D01*
G01X324926Y270691D02*
X320596D01*
G01X329257D02*
X324926D01*
G01X333195D02*
X329257D01*
G01X337133D02*
X333195D01*
G01X316265Y279919D02*
Y273118D01*
X317655Y271728D01*
G01D02*
X318692Y270691D01*
X320596D01*
G01X303273D02*
X298942D01*
G01D02*
X294611D01*
G01X348076Y283265D02*
X344707D01*
G01X348076D02*
Y279109D01*
G01X351383Y321454D02*
X355145D01*
G01X351383D02*
Y316117D01*
G01X397305Y289509D02*
Y291913D01*
G01X337133Y273919D02*
Y276323D01*
G01X351383Y321454D02*
X347621D01*
G01X348076Y283265D02*
X351445D01*
G01X354015Y289509D02*
X352298D01*
X351225Y290582D01*
G01X342252Y272856D02*
Y276500D01*
G01Y272856D02*
X346152D01*
G01X397305Y269036D02*
Y273343D01*
G01X337133Y270691D02*
Y267961D01*
X338852Y266242D01*
X342252D01*
G54D29*
X325719Y7098D03*
Y25602D03*
Y44106D03*
X355619Y7098D03*
Y25602D03*
Y44106D03*
G54D39*
G01X9548Y81400D02*
X13400D01*
G01X10476Y78476D02*
X13400Y81400D01*
G01X10476Y84324D02*
X13400Y81400D01*
G01X9548Y121400D02*
X13400D01*
G01X10476Y118476D02*
X13400Y121400D01*
G01X10476Y124324D02*
X13400Y121400D01*
G01X11092Y254155D02*
Y257219D01*
G01D02*
Y260283D01*
G01X6846Y257219D02*
X11092D01*
G01D02*
X15338D01*
G01X6846Y254155D02*
X11092Y257219D01*
G01D02*
X15338Y260283D01*
G01X6846D02*
X11092Y257219D01*
G01D02*
X15338Y254155D01*
G01X11092Y220139D02*
Y223203D01*
G01D02*
Y226267D01*
G01X6846Y223203D02*
X11092D01*
G01D02*
X15338D01*
G01X6846Y220139D02*
X11092Y223203D01*
G01D02*
X15338Y226267D01*
G01X6846D02*
X11092Y223203D01*
G01D02*
X15338Y220139D01*
G01X13400Y77548D02*
Y81400D01*
G01D02*
Y85252D01*
G01Y81400D02*
X17252D01*
G01X13400D02*
X16324Y84324D01*
G01X13400Y81400D02*
X16324Y78476D01*
G01X13400Y117548D02*
Y121400D01*
G01D02*
Y125252D01*
G01Y121400D02*
X17252D01*
G01X13400D02*
X16324Y124324D01*
G01X13400Y121400D02*
X16324Y118476D01*
G01X27549Y254155D02*
Y257219D01*
G01D02*
Y260283D01*
G01X22910Y257219D02*
X27549D01*
G01D02*
X32188D01*
G01X22910Y254155D02*
X27549Y257219D01*
G01D02*
X32188Y260283D01*
G01X22910D02*
X27549Y257219D01*
G01D02*
X32188Y254155D01*
G01X27549Y220139D02*
Y223203D01*
G01D02*
Y226267D01*
G01X22910Y223203D02*
X27549D01*
G01D02*
X32188D01*
G01X22910Y220139D02*
X27549Y223203D01*
G01D02*
X32188Y226267D01*
G01X22910D02*
X27549Y223203D01*
G01D02*
X32188Y220139D01*
G01X172403Y283292D02*
Y287341D01*
G01D02*
Y291390D01*
G01X168354Y287341D02*
X172403D01*
G01D02*
X176452D01*
G01X169340Y284278D02*
X172403Y287341D01*
G01D02*
X175466Y290404D01*
G01X169340D02*
X172403Y287341D01*
G01D02*
X175466Y284278D01*
G01X131832Y291087D02*
Y295136D01*
G01D02*
Y299185D01*
G01X127783Y295136D02*
X131832D01*
G01D02*
X135881D01*
G01X128769Y292073D02*
X131832Y295136D01*
G01D02*
X134895Y298199D01*
G01X128769D02*
X131832Y295136D01*
G01D02*
X134895Y292073D01*
G01X140847Y291087D02*
Y295136D01*
G01D02*
Y299185D01*
G01X136798Y295136D02*
X140847D01*
G01D02*
X144896D01*
G01X137784Y292073D02*
X140847Y295136D01*
G01D02*
X143910Y298199D01*
G01X137784D02*
X140847Y295136D01*
G01D02*
X143910Y292073D01*
G01X149863Y291087D02*
Y295136D01*
G01D02*
Y299185D01*
G01X145814Y295136D02*
X149863D01*
G01D02*
X153912D01*
G01X146800Y292073D02*
X149863Y295136D01*
G01D02*
X152926Y298199D01*
G01X146800D02*
X149863Y295136D01*
G01D02*
X152926Y292073D01*
G01X167895Y291087D02*
Y295136D01*
G01D02*
Y299185D01*
G01X163846Y295136D02*
X167895D01*
G01D02*
X171944D01*
G01X164832Y292073D02*
X167895Y295136D01*
G01D02*
X170958Y298199D01*
G01X164832D02*
X167895Y295136D01*
G01D02*
X170958Y292073D01*
G01X105162Y285772D02*
Y295136D01*
G01D02*
Y304500D01*
G01X95798Y295136D02*
X105162D01*
G01D02*
X114526D01*
G01X98341Y288315D02*
X105162Y295136D01*
G01D02*
X111983Y301957D01*
G01X98341D02*
X105162Y295136D01*
G01D02*
X111983Y288315D01*
G01X229238Y6841D02*
Y11087D01*
G01D02*
Y15333D01*
G01X226174Y11087D02*
X229238D01*
G01D02*
X232302D01*
G01X226174Y6841D02*
X229238Y11087D01*
G01D02*
X232302Y15333D01*
G01X226174D02*
X229238Y11087D01*
G01D02*
X232302Y6841D01*
G01X229238Y22905D02*
Y27544D01*
G01D02*
Y32183D01*
G01X226174Y27544D02*
X229238D01*
G01D02*
X232302D01*
G01X226174Y22905D02*
X229238Y27544D01*
G01D02*
X232302Y32183D01*
G01X226174D02*
X229238Y27544D01*
G01D02*
X232302Y22905D01*
G01X239529Y305941D02*
Y309793D01*
G01D02*
Y313645D01*
G01X235677Y309793D02*
X239529D01*
G01D02*
X243381D01*
G01X236605Y306869D02*
X239529Y309793D01*
G01D02*
X242453Y312717D01*
G01X236605D02*
X239529Y309793D01*
G01D02*
X242453Y306869D01*
G01X252915Y319823D02*
Y326628D01*
G01D02*
Y333433D01*
G01X246110Y326628D02*
X252915D01*
G01D02*
X259720D01*
G01X247903Y321616D02*
X252915Y326628D01*
G01D02*
X257927Y331640D01*
G01X247903D02*
X252915Y326628D01*
G01D02*
X257927Y321616D01*
G01X225946Y315893D02*
Y322698D01*
G01D02*
Y329503D01*
G01X219141Y322698D02*
X225946D01*
G01D02*
X232751D01*
G01X220934Y317686D02*
X225946Y322698D01*
G01D02*
X230958Y327710D01*
G01X220934D02*
X225946Y322698D01*
G01D02*
X230958Y317686D01*
G01X203588Y285772D02*
Y295136D01*
G01D02*
Y304500D01*
G01X194224Y295136D02*
X203588D01*
G01D02*
X212952D01*
G01X196767Y288315D02*
X203588Y295136D01*
G01D02*
X210409Y301957D01*
G01X196767D02*
X203588Y295136D01*
G01D02*
X210409Y288315D01*
G01X275987Y6841D02*
Y11087D01*
G01D02*
Y15333D01*
G01X272923Y11087D02*
X275987D01*
G01D02*
X279051D01*
G01X272923Y6841D02*
X275987Y11087D01*
G01D02*
X279051Y15333D01*
G01X272923D02*
X275987Y11087D01*
G01D02*
X279051Y6841D01*
G01X310003D02*
Y11087D01*
G01D02*
Y15333D01*
G01X306939Y11087D02*
X310003D01*
G01D02*
X313067D01*
G01X306939Y6841D02*
X310003Y11087D01*
G01D02*
X313067Y15333D01*
G01X306939D02*
X310003Y11087D01*
G01D02*
X313067Y6841D01*
G01X263254D02*
Y11087D01*
G01D02*
Y15333D01*
G01X260190Y11087D02*
X263254D01*
G01D02*
X266318D01*
G01X260190Y6841D02*
X263254Y11087D01*
G01D02*
X266318Y15333D01*
G01X260190D02*
X263254Y11087D01*
G01D02*
X266318Y6841D01*
G01X275987Y22905D02*
Y27544D01*
G01D02*
Y32183D01*
G01X272923Y27544D02*
X275987D01*
G01D02*
X279051D01*
G01X272923Y22905D02*
X275987Y27544D01*
G01D02*
X279051Y32183D01*
G01X272923D02*
X275987Y27544D01*
G01D02*
X279051Y22905D01*
G01X310003D02*
Y27544D01*
G01D02*
Y32183D01*
G01X306939Y27544D02*
X310003D01*
G01D02*
X313067D01*
G01X306939Y22905D02*
X310003Y27544D01*
G01D02*
X313067Y32183D01*
G01X306939D02*
X310003Y27544D01*
G01D02*
X313067Y22905D01*
G01X263254D02*
Y27544D01*
G01D02*
Y32183D01*
G01X260190Y27544D02*
X263254D01*
G01D02*
X266318D01*
G01X260190Y22905D02*
X263254Y27544D01*
G01D02*
X266318Y32183D01*
G01X260190D02*
X263254Y27544D01*
G01D02*
X266318Y22905D01*
G01X279884Y315893D02*
Y322698D01*
G01D02*
Y329503D01*
G01X273079Y322698D02*
X279884D01*
G01D02*
X286689D01*
G01X274872Y317686D02*
X279884Y322698D01*
G01D02*
X284896Y327710D01*
G01X274872D02*
X279884Y322698D01*
G01D02*
X284896Y317686D01*
G01X292139Y306043D02*
Y310682D01*
G01D02*
Y315321D01*
G01X289075Y310682D02*
X292139D01*
G01D02*
X295203D01*
G01X289075Y306043D02*
X292139Y310682D01*
G01D02*
X295203Y315321D01*
G01X289075D02*
X292139Y310682D01*
G01D02*
X295203Y306043D01*
G01X326155Y322893D02*
Y327139D01*
G01D02*
Y331385D01*
G01X323091Y327139D02*
X326155D01*
G01D02*
X329219D01*
G01X323091Y322893D02*
X326155Y327139D01*
G01D02*
X329219Y331385D01*
G01X323091D02*
X326155Y327139D01*
G01X292139Y322893D02*
Y327139D01*
G01D02*
Y331385D01*
G01X289075Y327139D02*
X292139D01*
G01D02*
X295203D01*
G01X289075Y322893D02*
X292139Y327139D01*
G01D02*
X295203Y331385D01*
G01X289075D02*
X292139Y327139D01*
G01D02*
X295203Y322893D01*
G01X326155Y310682D02*
Y315321D01*
G01X323091Y310682D02*
X326155D01*
G01D02*
X329219D01*
G01X323091Y306043D02*
X326155Y310682D01*
G01D02*
X329219Y315321D01*
G01X323091D02*
X326155Y310682D01*
M02*
