M48
INCH,LZ
T01C.02756
;EXTENTS: -39.433 -39.370 354.268 354.331 
;LEADER: 12 
;HEADER: 
;CODE  : ASCII 
;FILE  : G:/project_development/GitHub/StarrySky/PCB/V2.1/STARRYSKY.rou for board #Taaaabs14396.tmp
%
G90
F1
M16
T01
M16
G00X032616Y030871
G40
M15
G01X032616Y031265
M16
G00X029214Y030871
G40
M15
G01X029214Y031265
M16
G00X032616Y032576
G40
M15
G01X032616Y032852
M16
G00X029214Y032576
G40
M15
G01X029214Y032852
M16
G00X022924Y002558
G40
M15
G01X022924Y002951
M16
G00X026325Y002558
G40
M15
G01X026325Y002951
M16
G00X022924Y000971
G40
M15
G01X022924Y001247
M16
G00X026325Y000971
G40
M15
G01X026325Y001247
M16
G00X002558Y025722
G40
M15
G01X002952Y025722
M16
G00X002558Y02232
G40
M15
G01X002952Y02232
M16
G00X000971Y025722
G40
M15
G01X001247Y025722
M16
G00X000971Y02232
G40
M15
G01X001247Y02232
M16
G00X027599Y002558
G40
M15
G01X027599Y002951
M16
G00X031Y002558
G40
M15
G01X031Y002951
M16
G00X027599Y000971
G40
M15
G01X027599Y001247
M16
G00X031Y000971
G40
M15
G01X031Y001247
M16
G40
M30
