M48
INCH,LZ
T01C.008
T02C.02756
T03C.03543
T04C.03937
T05C.04331
T06C.05118
T07C.07087
T08C.09843
T09C.12205
T10C.13386
;LEADER: 12 
;HEADER: 
;CODE  : ASCII 
;FILE  : STARRYSKY-1-8.drl for board #Taaaabu14396.tmp ... layers TOP and BOTTOM
;T01 Holesize 1. = 8.000000 Tolerance = +0.000000/-0.000000 PLATED MILS Quantity = 1494
;T02 Holesize 2. = 27.560000 Tolerance = +0.000000/-0.000000 PLATED MILS Quantity = 8
;T03 Holesize 3. = 35.430000 Tolerance = +0.000000/-0.000000 PLATED MILS Quantity = 12
;T04 Holesize 4. = 39.370000 Tolerance = +0.000000/-0.000000 PLATED MILS Quantity = 20
;T05 Holesize 5. = 43.310000 Tolerance = +0.000000/-0.000000 PLATED MILS Quantity = 21
;T06 Holesize 6. = 51.180000 Tolerance = +0.000000/-0.000000 PLATED MILS Quantity = 6
;T07 Holesize 7. = 70.870000 Tolerance = +0.000000/-0.000000 PLATED MILS Quantity = 6
;T08 Holesize 8. = 98.430000 Tolerance = +0.000000/-0.000000 PLATED MILS Quantity = 3
;T09 Holesize 9. = 122.050000 Tolerance = +0.000000/-0.000000 PLATED MILS Quantity = 4
;T10 Holesize 10. = 133.860000 Tolerance = +0.000000/-0.000000 PLATED MILS Quantity = 2
%
G90
T01
X003023Y001703
X003399Y001169
X003775Y001703
X006753Y000906
X009133Y001703
X01006Y000436
X010328Y000812
X010569Y000436
X012093Y000362
X012141Y001222
X013825Y001755
X013838Y000553
X01399Y001162
X014453Y001154
X014453Y001717
X014847Y001154
X014847Y001717
X014943Y000354
X016115Y001764
X016237Y000324
X016613Y000592
X016989Y000324
X017872Y000324
X017983Y001764
X018249Y000592
X018625Y000324
X023611Y000815
X023611Y001315
X023611Y001815
X024111Y000815
X024111Y001315
X024111Y001815
X024611Y000815
X024611Y001315
X024611Y001815
X025111Y000815
X025111Y001315
X025111Y001815
X025611Y000815
X025611Y001315
X025611Y001815
X041293Y000751
X043307Y003383
X041138Y002524
X038058Y003719
X038058Y003224
X037524Y003224
X030559Y00301
X02804Y00301
X026943Y003862
X026549Y003862
X026319Y00371
X025884Y00301
X02492Y003406
X024598Y002606
X024526Y003406
X024269Y002606
X023569Y00371
X023365Y00301
X022146Y002074
X021596Y003481
X021096Y003481
X020096Y003481
X019861Y002695
X019237Y003041
X018814Y003392
X018746Y002854
X018746Y00202
X018144Y00388
X018082Y002816
X017983Y003366
X017983Y002276
X017983Y00202
X017685Y002678
X016879Y003366
X016879Y00311
X016879Y002854
X016879Y002276
X016879Y00202
X016872Y00388
X016115Y003366
X016115Y00311
X016115Y002854
X016115Y00202
X015801Y00296
X014799Y003765
X014799Y003371
X014434Y003568
X014434Y003175
X013903Y002763
X013747Y003792
X012311Y003175
X012253Y002237
X011181Y003278
X010618Y003671
X010618Y003278
X010618Y002884
X010569Y002071
X010328Y002447
X009509Y002236
X008796Y003431
X006657Y003605
X003399Y002236
X002763Y002548
X002423Y003293
X000791Y003409
X000839Y004973
X001909Y004694
X002101Y005658
X002937Y004
X003062Y005521
X003399Y005106
X003399Y005937
X005131Y00546
X006061Y005447
X00643Y00546
X006863Y00546
X008841Y005521
X009178Y005106
X009178Y005937
X009515Y005521
X010596Y004314
X010596Y00595
X01305Y004706
X013378Y004706
X015478Y005517
X015657Y004946
X016006Y004441
X016041Y005517
X016041Y005911
X01671Y004456
X016958Y004791
X017983Y0042
X017983Y004456
X018218Y005692
X018746Y0042
X01878Y004453
X019547Y00513
X01987Y00513
X020256Y00513
X022916Y005658
X022977Y004876
X024524Y005466
X024524Y005966
X024828Y004687
X025024Y005466
X025024Y005966
X025521Y004102
X025524Y005466
X025524Y005966
X026156Y004102
X026892Y005114
X029592Y004796
X035787Y005926
X03683Y004212
X03683Y004712
X03683Y005212
X03733Y004212
X03733Y004712
X03733Y005212
X03783Y004212
X03783Y004712
X03783Y005212
X03833Y004212
X03833Y004712
X03833Y005212
X03883Y004212
X03883Y004712
X03883Y005212
X039594Y004641
X039594Y005035
X039594Y005429
X039594Y005823
X041293Y005319
X043066Y004625
X043377Y007661
X043377Y007161
X042877Y007661
X042877Y007161
X042377Y007661
X042377Y007161
X041877Y007984
X041877Y007661
X041877Y006838
X041483Y007984
X041483Y007661
X040783Y007661
X040009Y00772
X040009Y00709
X039694Y007405
X039379Y00772
X039379Y00709
X038601Y006661
X037578Y006768
X037087Y007355
X037087Y006962
X037087Y006568
X036693Y007355
X036693Y006962
X036693Y006568
X036299Y007355
X036299Y006962
X036299Y006568
X035906Y007355
X035906Y006962
X035906Y006568
X035287Y006365
X034787Y006365
X034287Y006365
X033787Y006365
X033459Y007154
X033287Y006365
X032787Y006365
X030902Y006326
X030402Y006326
X029902Y006326
X029402Y006326
X028114Y006984
X026545Y007598
X026222Y007838
X025524Y006466
X025375Y007641
X025181Y007444
X025024Y006466
X024524Y006466
X023902Y007444
X023339Y007838
X023339Y007444
X02244Y00622
X0222Y007251
X0222Y006929
X0222Y006543
X022042Y007556
X022042Y006144
X02153Y007556
X02153Y006482
X021328Y007162
X021274Y006144
X021018Y007992
X021018Y006482
X020762Y007218
X020762Y006144
X020506Y007556
X020506Y006482
X02025Y007214
X02025Y006144
X019994Y007556
X019994Y006482
X019738Y006144
X019577Y006929
X017728Y007575
X015478Y006545
X014789Y006259
X014493Y006509
X013553Y006756
X013553Y006434
X012919Y006997
X012919Y006434
X012834Y006172
X012801Y007797
X012801Y007297
X012525Y006997
X012525Y006434
X011922Y006392
X010323Y006392
X009987Y007865
X008986Y006669
X008596Y006304
X008352Y007865
X008084Y006322
X00769Y006322
X005805Y006879
X002648Y006942
X001125Y006961
X003868Y009375
X004672Y009375
X004711Y009944
X005156Y009756
X0055Y008133
X006051Y009756
X006645Y008759
X007444Y008999
X007975Y008133
X007975Y009636
X008352Y008401
X008352Y009368
X008352Y009904
X008728Y008133
X008728Y009636
X009611Y008133
X009611Y009636
X009987Y008401
X009987Y009368
X009987Y009904
X010364Y008133
X010364Y009636
X01091Y008745
X012801Y008297
X014414Y008297
X014414Y008797
X016152Y009774
X01725Y009446
X01725Y009914
X01775Y009446
X01775Y009914
X01825Y009446
X01825Y009914
X01875Y009446
X01875Y009914
X01925Y009446
X01925Y009914
X01975Y009446
X01975Y009914
X02025Y009446
X02025Y009914
X02075Y009446
X02075Y009914
X02125Y009446
X02125Y009914
X02175Y009446
X02175Y009914
X02225Y009446
X02225Y009914
X02275Y009446
X02275Y009914
X02325Y009446
X02325Y009914
X02425Y009446
X02425Y009914
X024749Y008035
X02475Y009446
X02475Y009914
X02525Y009446
X02525Y009914
X025375Y008035
X02575Y009446
X02575Y009914
X02625Y009446
X02625Y009914
X02675Y009446
X02675Y009914
X029402Y009486
X029902Y009486
X030902Y009486
X03211Y008021
X032787Y009526
X033287Y009526
X033787Y009526
X034287Y009526
X034287Y009848
X034787Y009526
X034787Y009848
X034847Y008175
X035287Y009526
X035287Y009848
X035787Y009526
X035787Y009848
X036252Y008752
X036252Y009146
X036252Y00954
X036645Y008752
X036645Y009146
X036645Y00954
X036719Y008224
X037039Y008752
X037039Y009146
X037039Y00954
X037113Y008224
X037433Y008752
X037507Y008224
X037578Y009068
X037826Y008752
X037901Y008224
X038601Y008961
X03938Y009391
X039695Y009706
X04001Y009391
X040783Y009961
X041483Y009961
X041877Y009138
X041877Y009961
X042377Y009461
X042377Y009961
X042877Y009461
X042877Y009961
X043377Y009461
X043377Y009961
X043407Y011762
X042907Y011762
X042407Y011762
X041877Y011439
X041877Y010284
X041483Y010284
X040009Y011693
X04001Y010021
X039379Y011693
X03938Y010021
X038601Y011261
X037901Y010525
X037578Y011368
X037507Y010525
X037113Y010525
X036754Y011108
X036719Y010525
X036409Y011711
X036409Y011318
X036015Y011711
X036015Y011318
X035787Y010388
X035622Y011711
X035622Y011318
X035287Y010388
X035228Y011711
X035228Y011318
X034787Y010388
X033787Y010089
X033287Y010089
X032933Y011493
X032787Y010089
X030902Y01005
X030402Y01005
X030153Y011894
X029902Y01005
X029402Y01005
X028769Y01195
X028706Y011554
X028416Y01195
X028101Y01195
X027761Y01157
X027518Y01195
X026816Y011554
X026186Y011564
X025445Y011554
X025265Y011853
X025135Y011542
X024854Y011871
X024658Y011508
X024461Y011871
X024264Y011508
X024067Y011871
X023981Y011476
X02375Y011476
X023476Y011871
X023449Y011475
X023293Y011686
X023154Y011476
X023083Y011871
X022914Y011525
X022673Y011554
X022492Y011871
X02228Y011554
X022078Y011817
X021886Y011554
X021801Y011814
X021624Y011601
X021437Y011788
X021398Y01156
X021168Y011604
X020697Y011042
X020438Y011054
X020127Y011069
X019807Y011069
X019492Y011085
X019216Y011089
X018986Y011082
X018035Y011135
X017218Y011197
X017212Y011588
X016828Y011137
X016452Y010869
X016144Y011408
X015829Y010014
X015821Y011412
X015435Y011412
X015443Y010014
X015192Y011137
X014816Y010869
X014247Y011504
X014247Y01111
X014247Y010716
X01091Y010249
X009662Y011757
X009339Y011757
X007715Y010446
X007209Y010612
X006886Y010612
X006791Y011517
X006415Y010146
X005846Y011052
X005846Y010658
X005606Y011839
X005606Y011446
X004841Y010149
X004711Y010338
X003848Y010141
X000604Y012532
X001067Y013611
X00286Y013071
X003014Y013707
X005283Y012627
X005606Y012233
X005606Y013021
X005606Y013415
X005606Y013808
X006358Y013816
X006791Y013564
X006885Y013816
X00773Y013816
X008204Y012029
X008204Y012284
X008204Y01254
X008204Y013052
X008204Y013308
X009662Y013324
X009902Y012796
X009984Y013506
X011159Y01384
X011688Y013682
X012315Y013213
X012815Y013213
X01291Y013903
X014006Y012138
X01444Y013019
X014816Y013287
X015192Y013019
X016076Y013019
X016452Y013287
X01678Y013535
X016828Y013019
X017184Y013732
X017244Y013338
X018577Y013192
X019123Y013254
X019538Y013099
X019618Y013615
X020135Y013532
X020411Y0132
X020724Y013421
X020946Y012864
X025819Y012156
X026186Y012177
X02646Y01284
X026563Y012054
X026715Y013535
X026791Y013929
X026816Y01218
X027068Y013342
X027092Y013925
X027182Y013142
X02735Y013326
X02735Y01389
X027693Y012734
X027767Y012158
X028082Y013417
X028397Y012757
X028397Y013417
X028712Y012787
X028712Y013417
X029042Y012472
X029047Y012892
X029657Y012472
X029657Y012787
X029971Y012158
X029971Y013102
X029972Y013417
X030286Y012787
X030286Y013417
X030345Y012115
X030601Y012472
X030601Y012787
X030601Y013102
X031016Y012315
X031016Y012638
X031016Y013216
X031016Y013539
X031016Y013925
X03118Y01369
X031724Y013682
X032428Y01384
X032984Y013682
X033911Y012826
X035228Y012105
X035287Y013938
X035622Y012105
X035787Y013938
X036015Y012105
X036409Y012105
X036719Y012824
X037113Y012824
X037181Y013345
X037507Y012824
X037901Y012824
X039379Y012323
X039694Y012008
X040009Y012323
X040783Y012261
X041483Y012261
X041483Y012584
X041877Y012261
X041877Y012584
X042407Y012262
X042907Y012262
X043407Y012262
X043316Y015823
X041509Y014565
X041509Y014179
X040077Y015967
X039582Y014494
X038349Y014959
X037326Y014766
X03694Y014766
X036028Y015907
X036028Y015232
X035787Y014501
X034787Y014501
X033952Y015722
X033819Y015233
X033764Y014501
X033218Y015968
X033208Y014676
X032984Y015887
X032984Y014627
X032984Y014313
X032984Y013998
X032428Y01447
X032428Y014155
X032396Y015566
X032025Y015415
X032025Y015102
X03197Y015811
X031823Y014313
X031724Y0151
X031724Y014627
X031724Y013998
X031017Y015979
X031016Y014956
X031016Y014633
X031016Y014248
X030601Y014677
X030601Y014362
X030601Y014047
X030384Y015724
X030342Y01507
X030313Y014052
X030286Y014677
X029972Y014362
X02996Y015783
X029814Y014205
X029641Y015699
X029537Y014166
X029454Y014696
X029231Y015251
X028936Y015773
X028777Y014205
X028712Y014992
X028506Y015405
X028397Y015822
X028397Y014677
X028082Y014992
X028082Y014362
X027791Y015405
X027767Y015822
X027767Y014992
X027561Y014568
X027355Y015993
X027263Y01478
X027032Y015993
X025749Y015307
X025383Y015505
X025352Y015897
X025352Y01511
X020578Y015764
X020534Y015045
X020319Y015363
X020073Y015945
X019993Y015543
X019292Y015788
X017248Y01585
X013905Y014851
X011953Y014543
X011937Y014926
X011914Y014208
X011688Y01573
X011688Y014942
X011688Y013998
X011024Y014727
X010701Y015847
X010554Y015572
X010446Y015257
X009788Y015347
X009719Y0151
X009701Y014072
X009488Y015981
X009488Y015418
X009476Y014882
X009094Y015981
X009094Y015418
X0087Y015418
X008307Y015981
X008307Y015418
X008214Y014983
X008214Y014433
X007757Y015876
X007596Y014268
X00673Y014937
X006576Y015926
X006569Y015468
X006276Y014937
X006276Y014078
X005552Y014077
X00532Y015959
X005103Y014024
X003386Y014837
X001677Y015122
X001677Y014742
X001677Y014363
X001143Y014742
X000778Y017138
X002513Y017427
X005228Y016974
X006576Y016537
X006576Y016931
X006576Y017325
X006576Y017718
X007139Y017718
X008325Y017164
X008325Y017664
X008825Y017164
X008825Y017664
X008922Y016383
X009308Y016379
X009325Y017164
X009325Y017664
X01056Y016914
X010713Y016241
X010986Y016086
X011003Y016924
X011001Y017697
X011688Y016517
X011699Y016788
X013826Y017323
X014339Y016707
X015447Y016707
X015814Y017286
X016405Y016106
X016405Y0165
X016405Y016893
X016405Y017858
X016968Y016106
X016968Y0165
X016968Y016893
X017029Y017615
X017219Y016291
X018251Y017275
X018266Y016685
X018352Y016454
X01849Y017078
X018565Y016121
X01897Y017772
X01898Y016318
X01937Y016233
X024746Y017093
X025121Y016882
X025352Y017078
X025352Y017472
X025383Y017866
X025749Y016094
X025749Y016488
X025749Y017275
X025749Y017669
X027032Y016387
X027032Y016781
X027355Y016387
X027355Y016781
X027355Y017231
X027767Y016136
X027767Y016451
X027767Y016766
X027767Y017711
X027775Y01709
X028082Y016136
X028082Y017081
X028082Y017711
X028397Y016451
X028397Y017081
X028712Y016136
X028712Y017081
X02875Y01775
X028806Y016563
X029591Y016294
X029588Y016686
X029603Y017855
X029609Y017625
X029657Y017081
X029972Y016451
X029972Y017081
X030286Y016136
X030286Y016766
X030286Y017711
X030601Y017711
X030646Y016671
X030741Y017208
X030759Y016016
X03077Y01757
X031016Y017592
X031016Y017915
X031101Y016542
X031724Y01699
X031889Y017219
X032306Y017934
X032998Y017074
X033052Y017835
X033284Y016672
X033303Y017792
X033316Y017462
X033337Y017188
X033377Y016219
X033402Y016899
X033557Y016444
X034125Y016254
X035637Y016254
X035678Y016981
X035984Y017577
X036028Y016586
X036618Y017975
X03722Y017581
X037957Y016407
X037957Y016771
X038347Y016407
X038861Y017152
X039527Y017152
X041524Y016498
X042762Y017462
X041509Y018561
X041509Y018175
X041312Y019813
X040073Y019955
X039531Y018495
X038116Y018963
X037326Y019003
X03694Y019003
X036224Y018141
X033483Y018714
X033407Y019154
X033311Y018945
X033067Y018092
X033037Y019938
X032984Y019194
X032984Y018964
X032984Y018407
X032366Y018244
X032332Y01938
X032153Y018924
X032007Y019112
X03199Y019563
X031783Y019743
X031724Y019194
X031721Y018498
X031016Y018623
X031016Y018301
X030601Y018341
X030601Y018026
X030286Y018656
X030286Y018341
X030286Y018026
X030137Y019308
X029971Y018026
X029814Y019067
X02946Y018679
X029251Y019974
X028554Y019308
X028397Y018656
X028397Y018026
X028231Y019308
X028082Y018656
X028082Y018341
X028082Y018026
X027767Y018341
X027767Y018026
X027596Y019674
X027408Y018583
X027355Y01928
X027355Y018886
X027032Y019674
X025749Y019441
X025749Y01885
X025749Y018457
X025749Y018063
X025352Y018653
X025352Y01826
X018942Y018426
X018704Y018357
X018251Y019441
X018251Y018457
X017222Y01885
X017186Y019374
X016968Y019773
X016968Y019073
X016968Y01868
X016405Y019773
X016405Y019073
X016405Y01868
X015976Y01949
X015701Y01949
X015393Y019773
X015064Y019167
X014944Y018544
X014554Y019773
X014342Y019304
X014338Y018859
X014019Y019544
X013944Y018859
X013633Y019544
X01331Y019304
X012924Y019544
X012602Y019304
X012116Y019866
X011776Y019955
X011776Y019561
X011132Y018879
X010882Y018302
X010863Y018057
X01074Y019955
X01074Y019561
X010464Y01839
X010429Y018089
X010416Y018879
X00981Y019533
X009808Y018549
X009635Y018948
X009378Y018959
X009325Y018164
X009119Y018947
X008825Y018164
X008787Y018959
X008528Y018947
X008331Y019667
X008325Y018164
X00704Y01905
X0068Y019684
X006576Y018112
X006501Y019168
X002898Y01841
X002782Y019528
X000662Y019336
X00047Y019914
X000604Y021244
X001143Y020853
X001677Y020473
X001677Y021232
X00221Y020853
X003226Y021514
X003386Y020743
X00455Y021768
X004944Y021768
X005337Y021768
X005495Y020012
X005731Y021768
X006028Y020743
X0068Y020078
X008037Y021885
X008841Y021885
X009487Y020041
X00981Y020041
X009873Y020454
X009873Y020927
X009873Y021242
X010428Y020297
X010428Y021084
X010428Y021399
X010462Y020827
X010473Y02058
X011098Y020554
X011098Y020827
X011132Y020297
X011132Y021084
X011132Y021399
X011688Y020454
X011688Y020927
X011688Y021242
X013828Y020262
X013946Y021797
X01434Y021797
X014951Y021475
X015744Y021988
X015814Y020216
X015983Y021715
X016405Y020167
X016405Y021705
X016968Y020167
X017274Y020123
X018108Y021619
X01837Y021349
X018502Y021619
X018896Y021619
X019129Y021322
X01929Y021619
X019539Y021302
X019736Y0217
X019933Y021302
X02013Y0217
X020327Y021302
X020524Y0217
X02072Y021302
X020867Y021698
X021114Y021302
X021311Y021582
X021308Y021942
X021612Y021619
X021902Y021302
X021993Y020125
X022124Y021725
X022557Y020114
X022636Y021619
X022886Y021302
X02303Y021619
X02328Y021302
X023304Y020168
X023424Y021619
X024264Y020336
X024461Y020038
X024658Y020336
X024854Y020038
X025749Y020031
X026774Y020579
X027032Y020067
X027139Y020944
X027401Y021764
X027545Y020995
X027596Y020067
X027724Y021524
X028028Y020983
X028164Y020579
X028574Y020312
X028574Y020706
X029275Y020703
X029581Y020306
X030642Y020706
X030964Y020312
X030964Y020947
X031373Y021602
X031724Y020297
X031985Y020285
X031993Y020022
X032033Y020509
X032274Y020569
X032274Y020963
X033074Y020335
X034348Y021737
X034538Y020264
X036258Y020084
X036258Y020584
X036258Y021084
X036258Y021584
X036922Y021096
X037049Y021578
X037957Y020399
X037957Y020764
X038347Y020399
X038861Y021124
X039527Y021124
X041012Y021569
X043143Y020989
X043251Y023815
X042251Y023176
X041796Y022583
X040753Y022665
X03712Y023811
X03712Y023417
X036557Y023811
X036171Y023811
X03596Y022369
X03596Y022046
X035848Y023811
X035323Y022044
X034536Y022044
X034142Y023075
X034142Y022753
X034142Y022367
X033901Y022044
X033531Y022333
X033501Y022753
X032804Y023393
X031655Y023832
X031373Y023034
X031062Y023502
X030065Y023024
X029763Y022614
X029051Y022932
X027631Y022906
X02759Y023176
X027321Y023502
X027101Y022924
X026658Y023606
X026658Y022901
X025696Y022182
X025556Y022901
X025302Y022182
X024909Y022182
X024454Y023606
X024454Y022901
X02438Y023121
X02388Y023475
X023424Y022182
X023063Y022927
X02303Y022182
X022636Y022182
X021934Y023606
X021934Y022901
X021722Y022324
X021619Y023606
X021619Y022901
X021462Y022346
X021304Y023606
X021304Y022901
X021147Y022346
X020989Y023606
X020989Y022901
X01929Y022182
X018896Y022182
X018502Y022182
X018108Y022182
X011347Y022692
X009944Y022672
X008037Y02346
X008037Y023066
X008037Y022672
X008037Y022279
X007789Y022901
X007789Y022578
X007745Y023748
X007281Y023118
X007156Y023748
X00619Y02352
X00569Y02352
X00519Y02352
X004105Y022769
X003711Y022769
X003407Y022761
X002615Y023726
X001812Y023559
X001812Y023059
X001312Y023559
X001312Y023059
X000812Y023559
X000812Y023059
X000812Y024059
X000812Y024559
X000812Y025059
X001312Y024059
X001312Y024559
X001312Y025059
X001812Y024059
X001812Y024559
X001812Y025059
X002615Y02412
X003407Y025281
X003951Y024836
X004437Y024218
X00519Y02402
X00519Y02452
X005253Y025989
X00569Y02402
X00569Y02452
X00619Y02402
X00619Y02452
X006914Y025544
X007155Y025221
X007745Y024374
X007789Y025544
X00824Y0249
X00824Y025664
X008496Y0249
X008496Y025664
X008752Y0249
X009174Y024175
X009238Y0249
X009238Y025664
X009494Y0249
X009494Y025664
X00975Y0249
X010236Y0249
X010236Y025664
X010492Y0249
X010492Y025664
X010748Y0249
X01081Y024175
X011234Y0249
X011234Y025664
X01149Y0249
X01149Y025664
X011746Y0249
X012232Y0249
X012232Y025664
X012488Y0249
X012488Y025664
X012744Y0249
X013231Y0249
X013231Y025664
X013486Y0249
X013486Y025664
X013742Y0249
X014229Y0249
X014229Y025664
X014484Y0249
X014484Y025664
X015227Y0249
X015227Y025664
X015483Y0249
X015483Y025664
X015738Y0249
X016006Y025962
X016225Y025495
X016481Y025664
X016543Y024622
X01676Y02552
X016942Y024927
X017223Y0249
X017223Y025664
X017479Y0249
X017479Y025664
X017735Y0249
X018221Y0249
X018221Y025664
X018477Y0249
X018477Y025664
X018733Y0249
X019219Y0249
X019219Y025664
X019475Y0249
X019475Y025664
X019731Y0249
X020217Y0249
X020217Y025664
X020473Y0249
X020473Y025664
X020729Y0249
X021147Y024161
X021215Y0249
X021215Y025664
X021462Y024161
X021471Y0249
X021471Y025664
X021727Y0249
X021776Y024161
X022092Y024161
X022213Y0249
X022213Y025664
X022469Y0249
X022469Y025664
X023212Y0249
X023212Y025664
X023467Y025664
X024062Y025962
X025532Y024171
X025536Y024687
X025871Y024693
X026101Y024528
X026378Y024478
X026418Y024185
X027321Y02555
X027644Y02555
X030192Y024526
X030192Y025038
X03133Y025372
X031653Y025613
X031855Y024968
X032418Y02418
X032418Y024727
X032804Y02418
X032804Y024574
X032804Y025362
X033126Y02418
X034174Y024123
X034174Y024438
X034174Y024753
X034489Y024123
X034489Y024438
X034489Y024753
X034804Y024123
X034804Y024438
X034804Y024753
X035848Y024204
X035848Y024598
X035848Y024992
X036171Y024204
X036171Y024598
X036171Y024992
X036171Y025386
X036557Y024598
X036557Y024992
X03712Y024204
X03712Y024598
X03712Y024992
X03712Y025386
X037882Y024436
X03837Y025457
X041756Y025457
X042211Y024864
X043355Y026058
X042251Y027206
X041796Y026613
X03973Y027334
X037882Y027275
X037559Y026487
X037319Y027275
X037218Y026658
X037021Y027844
X037021Y027044
X035989Y027671
X035989Y02716
X035989Y026904
X035972Y026445
X035321Y026361
X034927Y026361
X034808Y027911
X034615Y027286
X034533Y02612
X034225Y02765
X03414Y02612
X033713Y027632
X033505Y02612
X03332Y027632
X032607Y026734
X032607Y02634
X03206Y027392
X032044Y026734
X031766Y027173
X03087Y026669
X03063Y02646
X030571Y026734
X029894Y027069
X029724Y02658
X029401Y02658
X028339Y026857
X026964Y026027
X026816Y026212
X026774Y027842
X026703Y027442
X026703Y026857
X026327Y026687
X026179Y027469
X025604Y027886
X025369Y027456
X025185Y026258
X024395Y027396
X024395Y026687
X023162Y02771
X022598Y026603
X022016Y026923
X021776Y027557
X021453Y027557
X020605Y027316
X01998Y027119
X019385Y027316
X019132Y026923
X01881Y026923
X018555Y027661
X018391Y026909
X017997Y026909
X017603Y026909
X01721Y026909
X012001Y027653
X012001Y027196
X005797Y026978
X005797Y026655
X005659Y027829
X005163Y027218
X005163Y026415
X004573Y027923
X002508Y027923
X00062Y027227
X00062Y026424
X000617Y029063
X000617Y029866
X002132Y028378
X003636Y029173
X004197Y028378
X005152Y029062
X005152Y029865
X005546Y029302
X005546Y029865
X00618Y029625
X007865Y028516
X010758Y028125
X012001Y028332
X012442Y028772
X012598Y029983
X018555Y028686
X018555Y029555
X023809Y028323
X024131Y028083
X024979Y028279
X026452Y028476
X026774Y028717
X028578Y028278
X028777Y028672
X028777Y029066
X028777Y029459
X029662Y029835
X030415Y028404
X030415Y028804
X030915Y028404
X030915Y028804
X031112Y029559
X031415Y028404
X031415Y028804
X03173Y029989
X033053Y028672
X034471Y028327
X034468Y029574
X034968Y029574
X035122Y029058
X035144Y028327
X035724Y028951
X03697Y02905
X03697Y029613
X037319Y02885
X037559Y028062
X037882Y028456
X039408Y028951
X03973Y029191
X041254Y028062
X041756Y029487
X042211Y028894
X043502Y029
X0433Y030212
X040372Y031082
X04021Y031777
X040112Y03047
X039816Y031777
X039718Y03047
X039324Y03047
X039311Y031885
X039029Y031777
X03893Y03047
X036937Y031024
X035468Y03001
X035138Y031612
X032174Y030416
X03121Y031208
X030816Y031208
X029655Y030416
X029028Y031612
X027666Y030986
X022539Y030369
X020573Y031371
X018555Y030517
X01801Y031492
X016942Y031492
X016159Y031492
X015396Y031492
X014506Y031492
X013527Y031492
X012956Y030921
X012598Y030563
X012066Y031486
X010246Y031297
X00833Y030473
X007078Y030447
X006411Y031682
X004559Y030569
X004183Y031024
X003181Y031872
X002508Y030569
X002132Y031024
X003596Y032935
X006353Y032935
X008124Y032415
X010266Y032666
X013002Y033233
X014911Y032338
X017069Y032866
X019575Y032307
X021098Y033329
X024317Y032211
X026668Y03329
X029404Y032145
X031313Y033194
X034468Y032289
X034762Y032145
X035468Y032724
X035514Y032145
X035968Y032724
X036966Y032696
X038239Y032401
X038438Y032103
X038438Y032698
X038637Y032401
X039619Y032031
X040404Y032401
X040604Y032103
X040604Y032698
X040803Y032401
T02
X002546Y022879
X002546Y025163
X023483Y002546
X025766Y002546
X028158Y002546
X030441Y002546
X029773Y031277
X032056Y031277
T03
X00698Y028732
X008751Y028732
X016545Y006339
X018316Y006339
X033707Y018162
X035478Y018162
X039312Y002202
X038524Y002202
X037737Y002202
X039312Y00043
X038524Y00043
X037737Y00043
T04
X00134Y00814
X00134Y00914
X00134Y01014
X00134Y01114
X00134Y01214
X00234Y01214
X00234Y01114
X00234Y01014
X00234Y00914
X00234Y00814
X023953Y029995
X023953Y030979
X02478Y030979
X025803Y030979
X02663Y030979
X02663Y029995
X043311Y018758
X043311Y017971
X043311Y014727
X043311Y013939
T05
X004505Y001569
X007655Y001569
X001543Y015849
X001543Y018998
X013634Y028734
X014536Y028734
X015437Y028734
X016339Y028734
X01724Y028734
X01679Y029514
X015888Y029514
X014986Y029514
X014085Y029514
X013183Y029514
X013634Y030293
X014536Y030293
X015437Y030293
X016339Y030293
X01724Y030293
X030134Y032279
X033284Y032279
T06
X004038Y016806
X004038Y018774
X039455Y02402
X042211Y02402
X042211Y02805
X039455Y02805
T07
X032572Y00071
X032572Y00256
X032572Y004411
X035562Y004411
X035562Y00256
X035562Y00071
T08
X022595Y03227
X025292Y032663
X027988Y03227
T09
X0015Y0015
X0015Y03234
X0425Y03234
X0425Y0015
T10
X010516Y029514
X020359Y029514
M30
