G04 ================== begin FILE IDENTIFICATION RECORD ==================*
G04 Layout Name:  G:/project_development/GitHub/ysyx3_pcb/PCB/V1.1/ysyx3_pcb.brd*
G04 Film Name:    ART03*
G04 File Format:  Gerber RS274X*
G04 File Origin:  Cadence Allegro 16.6-2015-S066*
G04 Origin Date:  Fri Mar 24 09:30:01 2023*
G04 *
G04 Layer:  VIA CLASS/ART03*
G04 Layer:  PIN/ART03*
G04 Layer:  ETCH/ART03*
G04 Layer:  BOARD GEOMETRY/OUTLINE*
G04 *
G04 Offset:    (0.00 0.00)*
G04 Mirror:    No*
G04 Mode:      Positive*
G04 Rotation:  0*
G04 FullContactRelief:  No*
G04 UndefLineWidth:     0.01*
G04 ================== end FILE IDENTIFICATION RECORD ====================*
%FSLAX55Y55*MOIN*%
%IR0*IPPOS*OFA0.00000B0.00000*MIA0B0*SFA1.00000B1.00000*%
%ADD11C,.018*%
%ADD13C,.04331*%
%ADD12C,.05157*%
%ADD21C,.09055*%
%ADD14C,.0748*%
%ADD26C,.05906*%
%ADD15C,.02795*%
%ADD20C,.06693*%
%ADD27C,.09449*%
%ADD19C,.06299*%
%ADD18R,.06299X.06299*%
%ADD25C,.12205*%
%ADD10C,.16142*%
%ADD22C,.17323*%
%ADD23O,.04724X.07087*%
%ADD16O,.07087X.04724*%
%ADD24O,.04724X.07874*%
%ADD17O,.07874X.04724*%
%ADD28C,.02*%
%ADD29C,.03*%
%ADD30C,.04*%
%ADD31C,.014*%
%ADD32C,.016*%
%ADD33C,.006*%
%ADD34C,.008*%
%ADD38C,.07302*%
%ADD36C,.0616*%
%ADD35C,.02804*%
%ADD37R,.07302X.07302*%
G75*
%LPD*%
G75*
G36*
G01X24298Y56094D02*
X20148Y60244D01*
X20135Y60301D01*
G03X18703Y62113I-2602J-585D01*
G02Y62831I176J359D01*
G03X15953Y67377I-1171J2396D01*
G02X15316Y67699I-237J322D01*
G01Y95470D01*
G02X15991Y95761I400J1D01*
G03Y100235I2117J2237D01*
G02X15316Y100526I-275J290D01*
G01Y137211D01*
G02X15991Y137502I400J1D01*
G03Y141976I2117J2237D01*
G02X15316Y142267I-275J290D01*
G01Y148672D01*
X19445Y152801D01*
X67507D01*
X67522Y152618D01*
G03X70316I1397J116D01*
G01X70331Y152801D01*
X73065D01*
X93343Y132523D01*
X102122D01*
G02X102502Y132001I-1J-400D01*
G03X105172I1335J-430D01*
G02X105552Y132523I381J122D01*
G01X118810D01*
X122021Y129312D01*
Y110159D01*
X122001Y110118D01*
G03Y108896I1262J-611D01*
G01X122021Y108855D01*
Y103176D01*
X121857Y103146D01*
G03Y100388I252J-1379D01*
G01X122021Y100358D01*
Y80990D01*
X121904Y80936D01*
G03Y78388I585J-1274D01*
G01X122021Y78334D01*
Y75990D01*
X121904Y75936D01*
G03Y73388I585J-1274D01*
G01X122021Y73334D01*
Y63472D01*
X114643Y56094D01*
X114192D01*
Y56379D01*
X114253Y56438D01*
G03X112090Y56706I-973J1009D01*
G02X111751Y56094I-339J-212D01*
G01X109449D01*
G02X109110Y56706I0J400D01*
G03X106730I-1190J741D01*
G02X106391Y56094I-339J-212D01*
G01X105067D01*
G03X103097I-985J-998D01*
G01X98329D01*
G03X96359I-985J-998D01*
G01X40534D01*
G03X38564I-985J-998D01*
G01X24298D01*
G37*
G36*
G01X274726Y101422D02*
X271622Y104526D01*
Y124529D01*
X276536Y129443D01*
G02X277218Y129131I283J-283D01*
G03X279787Y129801I1398J-100D01*
G02X280122Y130421I334J220D01*
G01X347274D01*
G03X349366I1046J933D01*
G01X380198D01*
X381782Y128837D01*
Y102800D01*
X380404Y101422D01*
X280996D01*
X280941Y101532D01*
G03X278439I-1251J-634D01*
G01X278384Y101422D01*
X274726D01*
G37*
G36*
G01X344883Y62993D02*
Y74747D01*
X345883Y75747D01*
X366426D01*
X367426Y74747D01*
Y62993D01*
X366426Y61993D01*
X345883D01*
X344883Y62993D01*
G37*
G36*
G01X351432Y84823D02*
Y96577D01*
X352432Y97577D01*
X372975D01*
X373975Y96577D01*
Y84823D01*
X372975Y83823D01*
X352432D01*
X351432Y84823D01*
G37*
%LPC*%
G75*
G36*
G01X84812Y124079D02*
X79928Y119194D01*
X71365D01*
G02Y122398I0J1602D01*
G01X78602D01*
X82548Y126343D01*
G02X84812Y124079I1132J-1132D01*
G37*
G36*
G01X80854Y112291D02*
X82014Y111130D01*
Y107673D01*
G02X78812I-1601J0D01*
G01Y109804D01*
X77650Y110965D01*
Y113428D01*
G02X80854I1602J0D01*
G01Y112291D01*
G37*
G36*
G01X89815Y83181D02*
G02X87551Y80917I-1132J-1132D01*
G01X83997Y84470D01*
X78148D01*
G03X77860Y83794I1J-400D01*
G02X75836I-1012J-971D01*
G03X75548Y84470I-289J276D01*
G01X75424D01*
X72428Y81474D01*
X42224D01*
X35552Y88147D01*
Y88208D01*
X35104Y88655D01*
Y111597D01*
X28393Y118309D01*
G02X30657Y120573I1132J1132D01*
G01X38308Y112923D01*
Y91542D01*
G03X38757Y91145I400J0D01*
G02X38953Y91158I204J-1588D01*
G01X43928D01*
X55884Y103114D01*
Y105249D01*
G03X55543Y105390I-200J0D01*
G01X55460Y105308D01*
G02X53196Y107572I-1132J1132D01*
G01X54938Y109314D01*
X70158D01*
X85862Y93610D01*
X103981D01*
G02Y90408I0J-1601D01*
G01X84536D01*
X68832Y106112D01*
X59483D01*
G03X59084Y105684I0J-400D01*
G02X59088Y105575I-1598J-113D01*
G01Y101788D01*
X45254Y87954D01*
X41239D01*
G03X40956Y87272I0J-400D01*
G01X43550Y84678D01*
X71102D01*
X74098Y87674D01*
X85323D01*
X89815Y83181D01*
G37*
G36*
G01X275895Y113634D02*
G03X276349Y113363I381J122D01*
G02X275272Y111555I257J-1378D01*
G03X274818Y111826I-381J-122D01*
G02X275895Y113634I-257J1378D01*
G37*
G54D38*
X75165Y128593D03*
Y138435D03*
X291920Y122769D03*
X301920D03*
X311920D03*
X321920D03*
X331920D03*
G54D36*
X45667Y97998D03*
Y139739D03*
G54D35*
X62167Y68670D03*
X60240Y62401D03*
X42918Y59252D03*
X31489Y139727D03*
X95211Y62846D03*
X99111Y66490D03*
X90092Y63023D03*
X86154D03*
X100713Y59252D03*
X114354Y63788D03*
X110985Y67157D03*
X79252Y93103D03*
X116558Y113334D03*
X118478Y108552D03*
X119116Y120298D03*
Y125298D03*
X96559Y82049D03*
X108373D03*
X104435D03*
X107532Y96822D03*
X116249Y82049D03*
X71216Y89165D03*
X101433Y125229D03*
X103837Y118887D03*
X107065D03*
X94946Y127391D03*
X114354Y70526D03*
X276606Y104185D03*
X280250Y108085D03*
X274561Y117142D03*
X290891Y114119D03*
X295891D03*
X375424Y110606D03*
X366838Y127580D03*
X370776D03*
X374714D03*
X366838Y104580D03*
X370776D03*
X374714D03*
X345180Y114048D03*
X340180D03*
X335180D03*
X330180D03*
X325180D03*
X305891Y114119D03*
X300891D03*
X378652Y127580D03*
Y104580D03*
X364197Y64428D03*
G54D37*
X65165Y128593D03*
Y138435D03*
X341920Y122769D03*
%LPD*%
G75*
G54D10*
X15000Y15000D03*
Y323400D03*
X425000Y15000D03*
Y323400D03*
G54D20*
X85477Y15568D03*
X53981D03*
X195528Y302395D03*
X186512D03*
X177496D03*
X168480D03*
X159465D03*
X191020Y294600D03*
X182004D03*
X172988D03*
X163972D03*
X154957D03*
X195528Y286805D03*
X186512D03*
X177496D03*
X168480D03*
X159465D03*
X351496Y230000D03*
X424408Y146449D03*
Y177945D03*
G54D11*
G01X96608Y230942D02*
Y225942D01*
G01Y230942D02*
Y234745D01*
X91693Y239660D01*
X79965D01*
X68019Y227714D01*
X64237D01*
G01X85003Y209033D02*
X90909D01*
G01X164888Y60256D02*
X166515Y58629D01*
X167360D01*
X171971Y54018D01*
X172531D01*
X172610Y53939D01*
G01X286905Y283963D02*
X279157D01*
X275749Y280555D01*
G01X259826Y309118D02*
X253878Y303170D01*
Y286135D01*
X265376Y274637D01*
X272141D01*
X273941Y276437D01*
Y278747D01*
X275749Y280555D01*
G01X315050Y224214D02*
Y229715D01*
X313295Y231470D01*
Y256039D01*
X286905Y282429D01*
Y283963D01*
G01X315050Y224214D02*
Y210824D01*
X325076Y200798D01*
X331554D01*
G01X371816Y319569D02*
Y315919D01*
X374186Y313549D01*
X389464D01*
X392267Y316352D01*
X7148Y28589D03*
X36830Y38996D03*
X19153Y40272D03*
X42918Y11570D03*
Y22244D03*
X39156Y16907D03*
X46680D03*
X42918Y50940D03*
X39549Y55096D03*
X32384Y57992D03*
X6047Y63787D03*
X9516Y100601D03*
X6625Y131632D03*
X31489Y139727D03*
X42918Y59252D03*
X38953Y89556D03*
X29525Y119441D03*
X17714Y118296D03*
Y106440D03*
X22264Y112368D03*
X22658Y83628D03*
X18108Y77700D03*
Y89556D03*
X22658Y125369D03*
X18108Y131297D03*
X32384Y66738D03*
X50773Y211078D03*
X7589Y181167D03*
X13756Y209115D03*
X34238Y167770D03*
X47449Y175076D03*
X50773Y183518D03*
X47449Y219520D03*
X34238Y226826D03*
X22264Y154109D03*
X13164D03*
X17714Y148181D03*
Y160037D03*
X38884Y235168D03*
X46228Y235186D03*
X42290D03*
X47620Y305969D03*
X31440Y306996D03*
X42227Y313545D03*
X7170Y291458D03*
X32724Y318809D03*
X39273Y301872D03*
X34400Y242366D03*
X50166Y235186D03*
X38845Y263113D03*
X50940Y262266D03*
Y257266D03*
Y252266D03*
X43203Y259236D03*
X12830Y283135D03*
X9934Y278743D03*
X17830Y283135D03*
X20726Y278743D03*
X34400Y267562D03*
X40379Y245576D03*
X19104Y258827D03*
X15167D03*
X11230D03*
X7293D03*
X19104Y250953D03*
X15167D03*
X11230D03*
X7293D03*
Y254890D03*
X11230D03*
X15167D03*
X19104D03*
X32122Y296464D03*
Y284650D03*
X42290Y243222D03*
X26065Y252011D03*
Y255948D03*
X46978Y331394D03*
X33523Y330016D03*
X73233Y54483D03*
X76920Y24219D03*
X76590Y8855D03*
X55003Y28130D03*
X133043Y5754D03*
X137980Y21715D03*
X114196Y35864D03*
Y31926D03*
Y27988D03*
X130590Y33506D03*
X118792Y20779D03*
X124152D03*
Y4421D03*
X118792D03*
X134702Y55334D03*
X107782Y16907D03*
X100258D03*
X104020Y22244D03*
Y11570D03*
X100713Y50940D03*
X104082Y55096D03*
X97344D03*
X60240Y54483D03*
X134030Y18632D03*
X133043Y13522D03*
X107920Y41089D03*
X113280D03*
X107920Y57447D03*
X113280D03*
X122232Y31926D03*
X110819Y35248D03*
X117060Y52864D03*
X94946Y127391D03*
X136671Y71728D03*
X132733D03*
X116558Y113334D03*
X103837Y118887D03*
X107532Y96822D03*
X131004Y135298D03*
Y130298D03*
Y125298D03*
Y120298D03*
X119116Y125298D03*
X103919Y139525D03*
X110985Y67157D03*
X114354Y63788D03*
Y70526D03*
X100713Y59252D03*
X86154Y63023D03*
X90092D03*
X60240Y62401D03*
X119116Y120298D03*
X107147Y139525D03*
X107065Y118887D03*
X103837Y131571D03*
X101433Y125229D03*
X71216Y89165D03*
X116249Y82049D03*
X122489Y79662D03*
Y74662D03*
X132733Y63692D03*
X136671D03*
X127944Y70526D03*
Y63788D03*
X99111Y66490D03*
X95211Y62846D03*
X62167Y68670D03*
X57486Y105575D03*
X126974Y111826D03*
X122109Y101767D03*
X118478Y108552D03*
X88683Y82049D03*
X71216Y97041D03*
Y93103D03*
Y85227D03*
X112311Y82049D03*
X100497D03*
X98889Y99711D03*
X93889D03*
X88889D03*
Y104711D03*
X93889D03*
X98889D03*
Y109711D03*
X93889D03*
X88889D03*
X116558Y98622D03*
Y94684D03*
X80807Y82049D03*
X68013Y112703D03*
X91008Y127391D03*
X87070D03*
X71216Y117517D03*
X118478Y115926D03*
X60902Y117007D03*
X104435Y82049D03*
X87588Y140915D03*
X123263Y109507D03*
X134147Y84662D03*
X119419Y135298D03*
X83680Y125211D03*
X71365Y120796D03*
X108373Y82049D03*
X79252Y93103D03*
Y113428D03*
X80413Y107673D03*
X96559Y82049D03*
X76848Y82823D03*
X54328Y106440D03*
X103981Y92009D03*
X65481Y192273D03*
X65385Y211078D03*
X58079Y214447D03*
X87969Y191191D03*
X128543Y170066D03*
X121223Y185475D03*
X63494Y171861D03*
Y165752D03*
Y160271D03*
Y155762D03*
X68919Y152734D03*
X75428D03*
X81309D03*
X86917Y154060D03*
X88045Y160214D03*
X82969Y196191D03*
X87969D03*
X92969D03*
Y201191D03*
X87969D03*
X82969D03*
X101890Y208521D03*
X106614Y205719D03*
X111339D03*
X108976Y208521D03*
X118425D03*
X130912Y156929D03*
X83728Y163487D03*
X65645Y176144D03*
X79750Y170539D03*
X67885Y202553D03*
X65481Y196211D03*
Y188335D03*
X83801Y172082D03*
X87739Y172032D03*
X105494Y179959D03*
X114544Y202972D03*
X105588Y201980D03*
X64237Y217120D03*
X74641Y213302D03*
X60660Y167770D03*
X58079Y186887D03*
Y180149D03*
X65385Y183518D03*
X60660Y226826D03*
X96040Y171861D03*
X113436Y188162D03*
X69296Y157721D03*
X75988D03*
X83728Y160259D03*
X79863Y173740D03*
X96608Y230942D03*
X64237Y227714D03*
X96608Y225942D03*
X64237Y220348D03*
X75138Y195231D03*
X126364Y150626D03*
X101501Y201136D03*
X102772Y178458D03*
X130236Y221997D03*
X100325Y183754D03*
X137323Y205719D03*
X104505Y191294D03*
X101501Y189325D03*
X134961Y208521D03*
X101501Y193262D03*
X104505Y195231D03*
X132598Y205719D03*
X101501Y197199D03*
X104505Y199168D03*
X96540Y208442D03*
X93377Y209033D03*
X120787Y219195D03*
X115935Y227511D03*
X80470Y230942D03*
Y225942D03*
X96608Y220942D03*
X93340Y215942D03*
X119419Y156929D03*
X127874Y219195D03*
X75925Y182365D03*
X103005Y203105D03*
X90909Y209033D03*
X85003D03*
X100498Y186372D03*
X99444Y181017D03*
X92151Y172029D03*
X94785Y261887D03*
Y266887D03*
X99785D03*
Y261887D03*
X88904Y305787D03*
X102772Y311566D03*
X133913Y308536D03*
X114009Y307124D03*
X91152Y298520D03*
X55453Y301859D03*
X98514Y288333D03*
X101853Y302202D03*
X126679Y317098D03*
X100709Y254281D03*
X105433D03*
X107795Y251479D03*
X110157Y254281D03*
X138504Y240805D03*
X117244D03*
X73564Y256974D03*
X70884Y260736D03*
X87208Y253076D03*
Y260600D03*
X89888Y256838D03*
X84528D03*
X87208Y236718D03*
X70884Y236854D03*
Y244378D03*
X73564Y240616D03*
X68204D03*
X82245Y278277D03*
Y283637D03*
X78483Y280957D03*
X86007D03*
X112530Y268871D03*
Y262133D03*
X107783Y265502D03*
X131021Y252381D03*
X121759D03*
X54104Y235186D03*
X65887Y278277D03*
Y283637D03*
X69649Y280957D03*
X55940Y262266D03*
X60940D03*
Y257266D03*
X55940D03*
Y252266D03*
X60940D03*
X121759Y265969D03*
X131021D03*
X82240Y289194D03*
X76071Y293034D03*
X65985D03*
X69701Y290449D03*
X72355D03*
X107586Y294771D03*
X60654Y276944D03*
X58042Y235186D03*
X56094Y288588D03*
X112520Y251479D03*
X56094Y292526D03*
X129055Y238003D03*
X131417Y240805D03*
X136142D03*
X133780Y238003D03*
X65643Y286790D03*
X124318Y252381D03*
X133580D03*
X114882Y254281D03*
X54312Y279348D03*
X89295Y272429D03*
X73981Y301069D03*
X70044D03*
X68075Y298912D03*
X119200Y260019D03*
X128462D03*
X137724D03*
X72012Y298912D03*
X119200Y252381D03*
X128462D03*
X137724D03*
X92050Y331651D03*
X101039Y325744D03*
X117604Y324331D03*
X73523Y330016D03*
X113523D03*
X133523D03*
X170041Y24712D03*
X141520Y2919D03*
X146202D03*
X152409Y8935D03*
X156347Y13000D03*
X152409D03*
X146513Y29394D03*
X157310Y4911D03*
X172924Y56318D03*
X154974Y49594D03*
X170514Y39226D03*
X183238Y29108D03*
X170514D03*
X199884Y46611D03*
X202158Y43598D03*
X184684Y37269D03*
X183238Y49344D03*
X167499Y44066D03*
X149152Y18632D03*
X150085Y6611D03*
X156347Y21036D03*
X152409D03*
X190876Y29108D03*
X196656Y46611D03*
X203742D03*
X207158Y43598D03*
X190876Y39226D03*
X168267Y34167D03*
X172610Y53939D03*
X192454Y53586D03*
X212158Y12102D03*
X217158D03*
X177964Y8183D03*
X180644Y20779D03*
X175284D03*
X183293Y35344D03*
X170514Y36667D03*
X183238Y26549D03*
X183414Y45989D03*
X170690D03*
X194198Y55585D03*
X170514Y51903D03*
X148179Y53666D03*
X183238Y51903D03*
X148179Y50384D03*
X157550Y26535D03*
X152418Y29394D03*
X183238Y31667D03*
X156530Y35474D03*
X184857Y39842D03*
X154723Y37443D03*
X224326Y32339D03*
X190876Y31667D03*
Y41785D03*
X172202D03*
Y31667D03*
X199118Y66622D03*
X222676Y69305D03*
X213631Y77471D03*
X165439Y114320D03*
Y118258D03*
Y133618D03*
Y137556D03*
X214305Y87851D03*
X196771D03*
X219558D03*
X188025D03*
X222369Y102278D03*
X207921Y102056D03*
X189691Y102030D03*
X182030Y118340D03*
Y137238D03*
X150285Y89662D03*
X147528Y98981D03*
X156362D03*
X155342Y121626D03*
X160439Y119366D03*
X172924Y60256D03*
X192163Y79540D03*
X195532Y74793D03*
X188794D03*
X192163Y70046D03*
X205559Y87851D03*
X152246Y127302D03*
X150573Y113358D03*
X157211Y110620D03*
X164888Y60256D03*
X183133Y80123D03*
X150285Y84662D03*
X140609Y63692D03*
X157211Y119366D03*
X219558Y91079D03*
X205559D03*
X188025D03*
X171071Y120662D03*
Y139960D03*
X214305Y91079D03*
X196771D03*
X171071Y111916D03*
Y131214D03*
Y144573D03*
X194198Y58867D03*
X139623Y116372D03*
X152418Y62858D03*
X150285Y74662D03*
X140609Y71728D03*
X185528Y120090D03*
X188908Y122115D03*
X186029Y123915D03*
X188833Y125715D03*
X186033Y127515D03*
X188833Y129315D03*
X186033Y131115D03*
Y142813D03*
X186028Y138987D03*
X188833Y132915D03*
X184323Y105974D03*
X187942Y104489D03*
X194239Y104876D03*
X197839D03*
X201439D03*
X188833Y144613D03*
Y141013D03*
X186033Y134715D03*
X192439Y109176D03*
X196039D03*
X199639D03*
X203239D03*
X205265Y104871D03*
X182163Y60598D03*
X210213Y109272D03*
X212013Y104972D03*
X213813Y109272D03*
X215613Y104972D03*
X217413Y109272D03*
X219438Y104967D03*
X224161Y104972D03*
X225961Y107772D03*
X220611Y196153D03*
X211602Y186122D03*
X216673Y204189D03*
Y196153D03*
X213589Y175076D03*
X197165Y196532D03*
X162913Y196324D03*
X212735Y196153D03*
X211789Y176876D03*
X208797Y196153D03*
X209989Y175076D03*
X204859Y196153D03*
X208189Y176876D03*
X139714Y168396D03*
X149602Y183549D03*
X157668Y229350D03*
X152875Y220362D03*
X172720Y190456D03*
X195284Y198139D03*
X139685Y208521D03*
X212913D03*
X191654D03*
X160945Y219195D03*
X176676Y200250D03*
X165439Y146977D03*
Y150915D03*
Y154853D03*
Y158791D03*
Y162729D03*
X216003Y192157D03*
X210063D03*
X182030Y156935D03*
X203865Y177970D03*
X216063D03*
X156690Y196619D03*
X142973Y147561D03*
X165439Y166667D03*
X182030Y152986D03*
X183574Y154961D03*
X172776Y196606D03*
X205256Y175557D03*
X188054Y174378D03*
X163394Y175686D03*
Y167886D03*
X182976Y200250D03*
X186876Y196606D03*
X173596Y152339D03*
X173475Y154853D03*
Y159332D03*
X216003Y188929D03*
X210063D03*
X224749D03*
X220611Y204189D03*
X212735D03*
X208797D03*
X204859D03*
X156434Y208150D03*
X208955Y164928D03*
X207155Y163110D03*
X208955Y161328D03*
X207155Y159510D03*
X208955Y157728D03*
X144409Y208521D03*
X207155Y155910D03*
X146772Y205719D03*
X208937Y154128D03*
X142047Y205719D03*
X158583D03*
X163307Y208521D03*
X165669Y205719D03*
X168031Y208521D03*
X170394Y205719D03*
X172756Y208521D03*
X175118Y205719D03*
X208189Y221997D03*
X186033Y150013D03*
X188833Y148213D03*
X210551Y219195D03*
X215276Y221997D03*
X186033Y146413D03*
X220000Y221997D03*
X224724D03*
X176676Y186348D03*
X187123Y186422D03*
X217638Y219195D03*
X222362D03*
X178567Y224385D03*
X149450Y233492D03*
X166711Y233235D03*
X141103Y288259D03*
X142088Y301688D03*
X149964Y316841D03*
X222045Y315386D03*
X215750Y292735D03*
Y298958D03*
X214015Y306851D03*
X209384Y311482D03*
X204663Y316203D03*
X194416D03*
X184939D03*
X175574D03*
X167753D03*
X160089Y313843D03*
X155093Y308847D03*
X151528Y301985D03*
X148312Y292339D03*
X215750Y277401D03*
Y285401D03*
Y270401D03*
X146350Y277401D03*
Y285401D03*
Y270401D03*
X211732Y240805D03*
X190472D03*
X159764D03*
X206193Y266902D03*
X202255D03*
X223641Y252381D03*
X214379D03*
X205117D03*
X195855D03*
X186593D03*
X177331D03*
X168069D03*
X158807D03*
X149545D03*
X140283D03*
X223641Y265969D03*
X214379D03*
X149545Y260019D03*
X158807D03*
X168069D03*
X177331D03*
X186593D03*
X195855D03*
X205117D03*
X140283D03*
X198414Y252381D03*
X216938D03*
X170628D03*
X161366D03*
X207676Y260019D03*
X214094Y240805D03*
X207676Y252381D03*
X216938Y260019D03*
X216457Y238003D03*
X218819Y240805D03*
X221181Y238003D03*
X223543Y240805D03*
X225906Y238003D03*
X186512Y311810D03*
X143228Y240805D03*
X210131Y266902D03*
X140866Y238003D03*
X198317Y266902D03*
X152104Y252381D03*
X142842D03*
X157402Y238003D03*
X162126D03*
X142842Y260019D03*
X164488Y240805D03*
X152104Y260019D03*
X166850Y238003D03*
X161366Y260019D03*
X169213Y240805D03*
X170628Y260019D03*
X171575Y238003D03*
X179890Y260019D03*
X173937Y240805D03*
X189152Y260019D03*
X176299Y238003D03*
X198414Y260019D03*
X178661Y240805D03*
X146986Y260019D03*
X156248D03*
X165510D03*
X174772D03*
X184034D03*
X193296D03*
X202558D03*
X211820D03*
X221082D03*
X151061Y266902D03*
X154999D03*
X158937D03*
X162875D03*
X146986Y252381D03*
X166813Y266902D03*
X156248Y252381D03*
X170751Y266902D03*
X165510Y252381D03*
X193296D03*
X182565Y266902D03*
X202558Y252381D03*
X186503Y266902D03*
X211820Y252381D03*
X190441Y266902D03*
X221082Y252381D03*
X194379Y266902D03*
X211687Y323543D03*
X160729Y322534D03*
X139948Y323047D03*
X171365Y319923D03*
X196876Y323604D03*
X153523Y330016D03*
X173523D03*
X193523D03*
X213523D03*
X272016Y56082D03*
Y52144D03*
X303898Y33967D03*
X253680Y40461D03*
X266364D03*
X264040Y37888D03*
X246938Y46958D03*
X236595Y33956D03*
X261791D03*
X278702Y33967D03*
X254944Y55150D03*
X249944D03*
X244944D03*
X241044Y38401D03*
X255810Y12385D03*
Y8448D03*
X251873D03*
X247936D03*
X243999D03*
Y4511D03*
X247936D03*
X251873D03*
X255810D03*
X243999Y12385D03*
X247936D03*
X251873D03*
X227854Y56602D03*
X252146Y33956D03*
X248209D03*
X247438Y26038D03*
X227608Y32339D03*
X250720Y26038D03*
X290891Y98587D03*
X279690Y100898D03*
X240878Y77159D03*
X312706Y73931D03*
X282767Y59026D03*
X264392Y79199D03*
X291694Y132734D03*
X302659Y143356D03*
X299576Y135304D03*
X272157Y144097D03*
Y131512D03*
Y140258D03*
X258034Y87851D03*
X244314D03*
X228304D03*
X249288D03*
X235568D03*
X251109Y102030D03*
X236935D03*
X257970Y136063D03*
X274561Y117142D03*
X300891Y114119D03*
X305891D03*
X295891D03*
X290891D03*
X244944Y60150D03*
X249944D03*
X254944D03*
Y65150D03*
X249944D03*
X244944D03*
X274561Y113204D03*
X257970Y118740D03*
X276606Y126161D03*
X280250Y122261D03*
X276606Y118361D03*
Y104185D03*
X280250Y108085D03*
X276606Y111985D03*
X300891Y60855D03*
X305891D03*
X290891D03*
X295891D03*
X268929Y140258D03*
X266348Y122261D03*
X278616Y129031D03*
X249288Y91079D03*
X235568D03*
X266092Y108085D03*
X269992Y104185D03*
X266525Y113204D03*
X268929Y131512D03*
Y144097D03*
X258034Y91079D03*
X244314D03*
X228304D03*
X301475Y97661D03*
X243623Y131909D03*
X243504Y128617D03*
Y125280D03*
Y121790D03*
Y118367D03*
X251163Y144613D03*
X252963Y142813D03*
X251163Y141013D03*
X253963Y139213D03*
X250460Y134490D03*
X253260Y132690D03*
X250460Y130890D03*
X253260Y129090D03*
X250460Y127290D03*
X253265Y125490D03*
X250460Y123690D03*
X253265Y121665D03*
X249359Y104967D03*
X247334Y107772D03*
X230258Y62944D03*
X227761Y104972D03*
X229561Y107772D03*
X231361Y104972D03*
X233161Y107772D03*
X234961Y105972D03*
X240134Y107772D03*
X241934Y104972D03*
X243734Y107772D03*
X245534Y104972D03*
X286444Y227302D03*
X294764Y224214D03*
Y197710D03*
X286444Y200798D03*
X309535Y198354D03*
Y179086D03*
X234348Y194561D03*
X311474Y207114D03*
X288504Y208521D03*
X271969Y226046D03*
X255433Y208521D03*
X234173D03*
X242841Y192157D03*
X228006D03*
X251587D03*
X274561Y157313D03*
X272157Y163655D03*
Y152843D03*
X229216Y177618D03*
X257421Y163848D03*
X257970Y149161D03*
X309535Y204844D03*
X291252Y204026D03*
X241125Y186720D03*
X268929Y152843D03*
Y163655D03*
X228006Y188929D03*
X242841D03*
X243577Y198217D03*
X236752Y188929D03*
X266467Y154851D03*
X251587Y188929D03*
X253281Y146913D03*
X300028Y228276D03*
X229449Y221997D03*
X231811Y219195D03*
X251163Y157775D03*
X256895Y155728D03*
X227087Y219195D03*
X276693Y205719D03*
X279055Y208521D03*
X281417Y205719D03*
X283780Y208521D03*
X286142Y205719D03*
X290866Y206557D03*
X293228D03*
X312126Y225975D03*
X286905Y283963D03*
X275749Y280555D03*
X262528Y289181D03*
X231548Y311386D03*
X285373Y290780D03*
X297701Y286329D03*
X296245Y298142D03*
X248466Y294423D03*
X251548Y273236D03*
X242880Y283252D03*
X242495Y303914D03*
X241050Y310592D03*
X267160Y316156D03*
X300289Y307767D03*
X311946Y314598D03*
X304595Y290862D03*
X310114Y273844D03*
X304595Y298736D03*
Y302673D03*
X308532D03*
X312469D03*
X308062Y276468D03*
Y279618D03*
Y282768D03*
Y285918D03*
X251350Y252381D03*
X247179D03*
X242764Y258630D03*
X249468Y263688D03*
X253826Y265057D03*
X259141D03*
X262544Y263251D03*
X288848Y232934D03*
X308583Y251936D03*
X287323Y251479D03*
X270787D03*
X254252D03*
X232992Y240805D03*
X308062Y289068D03*
X304595Y294799D03*
X307756Y233618D03*
X307215Y258474D03*
X299691D03*
X303453Y261154D03*
Y255794D03*
X270675Y280555D03*
X290133Y283963D03*
X257291Y275574D03*
X306964Y273844D03*
X299440D03*
X303202Y276524D03*
X232903Y252381D03*
X242165D03*
X232903Y265969D03*
X242165D03*
X270675Y277995D03*
X260519Y275574D03*
X294225Y252350D03*
X293974Y262912D03*
X290133Y275217D03*
X226200Y252381D03*
Y260019D03*
X235462D03*
X244724Y265969D03*
X228268Y240805D03*
X230630Y238003D03*
X235354D03*
X237717Y240805D03*
X240079Y238003D03*
X242441Y240805D03*
X256614Y237791D03*
X259039Y251479D03*
X261339D03*
X263701Y238003D03*
X239606Y252381D03*
X266063Y240805D03*
X230344Y252381D03*
X268425Y238003D03*
X273150D03*
X275512Y240805D03*
X277874Y238003D03*
X280236Y240805D03*
X282598Y238003D03*
X284961Y240805D03*
X287860Y240644D03*
X290405Y239307D03*
X294409Y233298D03*
X296772Y254281D03*
X301496Y240805D03*
X306220Y254281D03*
X310945Y252015D03*
X235462Y252381D03*
X232407Y272429D03*
X247165Y238003D03*
X249528Y240805D03*
X251890D03*
X239606Y260019D03*
X230344D03*
X262363Y283114D03*
X227664Y322405D03*
X286592Y320008D03*
X233523Y330016D03*
X253523D03*
X346938Y53698D03*
X317074Y56713D03*
X397332Y32297D03*
X391995Y37241D03*
X386658Y32297D03*
X391995Y27353D03*
X374788Y58492D03*
Y54554D03*
Y50616D03*
Y46678D03*
X342260Y88210D03*
X348320Y131354D03*
X355801Y142507D03*
X389036Y135386D03*
X378652Y81580D03*
Y104580D03*
Y127580D03*
X392916Y92849D03*
X396549Y96454D03*
X392872Y100081D03*
X392958Y115877D03*
X396591Y119482D03*
X392914Y123109D03*
X385652Y86367D03*
Y109367D03*
X325180Y114048D03*
X330180D03*
X335180D03*
X340180D03*
X345180D03*
X362242Y144431D03*
X374714Y81580D03*
X370776D03*
X366838D03*
X374714Y104580D03*
X370776D03*
X366838D03*
X374714Y127580D03*
X370776D03*
X366838D03*
X375424Y87606D03*
Y110606D03*
X385652Y63367D03*
X392888Y77075D03*
X392932Y69843D03*
X396565Y73448D03*
X364197Y64428D03*
X375424Y64606D03*
X367916Y117407D03*
X371853D03*
Y113470D03*
X367916D03*
X371853Y109533D03*
X367916D03*
X363979D03*
X360042D03*
Y113470D03*
X363979D03*
Y117407D03*
X360042D03*
X360197Y135412D03*
X325180Y60784D03*
X330180D03*
X335180D03*
X340180D03*
X345180D03*
X357449Y72323D03*
X353512D03*
X349575D03*
X357449Y64449D03*
X353512D03*
X349575D03*
Y68386D03*
X353512D03*
X357449D03*
X361386Y72323D03*
Y64449D03*
Y68386D03*
X330180Y98516D03*
X335180D03*
X340180D03*
X345180D03*
X366811Y135412D03*
X385493Y144047D03*
X363979Y94407D03*
X367916D03*
X371853D03*
Y90470D03*
X367916D03*
X363979D03*
X360042D03*
Y86533D03*
X363979D03*
X367916D03*
X371853D03*
X360042Y94407D03*
X385493Y139716D03*
X315050Y197710D03*
Y224214D03*
X331554Y200798D03*
Y227302D03*
X343911Y224214D03*
X340399Y227302D03*
X364197Y224214D03*
X388737Y221727D03*
X380701Y200798D03*
Y227302D03*
X364197Y197710D03*
X343911D03*
X340399Y200798D03*
X353099Y223709D03*
X314745Y170091D03*
X346907Y207114D03*
X324589D03*
X349134Y172301D03*
X380701Y230530D03*
X331554D03*
X340399D03*
X388737Y224955D03*
X385493Y152708D03*
X380701Y204026D03*
X389036Y193181D03*
X366253Y172401D03*
X351672Y149524D03*
X322963Y167593D03*
X356903Y206940D03*
X377189D03*
X340399Y204026D03*
X331554D03*
X328042Y207114D03*
X362242Y148369D03*
X357424Y182756D03*
X363025Y172401D03*
X319213Y221135D03*
X328661Y224902D03*
X333180Y222938D03*
X333386Y219195D03*
X328838Y172556D03*
X327528Y165033D03*
X338152Y221138D03*
X374733Y161370D03*
X385493D03*
X360378Y164879D03*
X385493Y174362D03*
X363343Y162320D03*
X385493Y170031D03*
X360378Y159760D03*
X385493Y165701D03*
X360378Y154642D03*
X385493Y148378D03*
X363343Y152083D03*
X340509Y164879D03*
X339171Y162320D03*
X328838Y159760D03*
X322963Y159605D03*
X325873Y154642D03*
X328838Y152083D03*
X344500Y286600D03*
X357700Y295100D03*
X335160Y310113D03*
X347359Y306902D03*
X361613Y305105D03*
X341771Y295917D03*
X346877Y300623D03*
X355324Y303762D03*
X341740Y310896D03*
X341341Y303191D03*
X359833Y311581D03*
X350035Y311538D03*
X395478Y316886D03*
X367849Y310648D03*
X371167Y242654D03*
X378534D03*
X366383Y243246D03*
X382557Y242654D03*
X383357Y253354D03*
X382431Y265745D03*
X379711Y272577D03*
X382431Y269857D03*
X367309Y264307D03*
X377388Y274900D03*
X364939Y266677D03*
X383357Y247058D03*
X323143Y290862D03*
X313264Y273844D03*
X316406Y302673D03*
X320343D03*
X323280Y298736D03*
Y302673D03*
X322618Y281275D03*
X319676Y285131D03*
X326707Y269959D03*
X331051Y265615D03*
X340920Y267862D03*
X378653Y317769D03*
X399269Y304678D03*
X346105Y246142D03*
X325118Y251479D03*
X387355Y316515D03*
X397520Y313755D03*
X381723Y306971D03*
X370370Y307026D03*
X323143Y294799D03*
X319676Y289068D03*
X323992Y314081D03*
Y306994D03*
X340920Y277544D03*
X333833D03*
X372024Y240533D03*
X353035Y242036D03*
X328042Y233618D03*
X323573Y258474D03*
X316049D03*
X319811Y261154D03*
X350937Y266191D03*
X367309Y259060D03*
X382431D03*
X366383Y253750D03*
X350053Y256965D03*
X350138Y251649D03*
X313307Y260403D03*
X315669Y233618D03*
X337084Y258497D03*
X341234Y259525D03*
X345706Y260733D03*
X350239Y244566D03*
X399269Y289323D03*
X370370Y285766D03*
X367405Y289309D03*
X396304Y291882D03*
X399269Y294442D03*
X370370Y292852D03*
X369379Y296396D03*
X396304Y297001D03*
X399269Y299560D03*
X370370Y299939D03*
X367405Y303482D03*
X396304Y302119D03*
X367405Y282223D03*
X396304Y281646D03*
Y286764D03*
X370370Y278679D03*
X387668Y268563D03*
X384951Y274975D03*
X356569Y263787D03*
Y259862D03*
X374723Y316693D03*
X370370Y314112D03*
X387500Y307351D03*
X397596Y261031D03*
X394227Y265778D03*
X399269Y284205D03*
X362180Y277544D03*
X392267Y316352D03*
X338915Y238173D03*
X332205Y252312D03*
X334784Y238174D03*
X323760Y321960D03*
X313523Y330016D03*
X333523D03*
X353523D03*
X395722Y333901D03*
X389708D03*
X384028D03*
X371453Y328694D03*
X376322Y321369D03*
X373394Y324102D03*
X368978D03*
X363230Y324369D03*
X364981Y328694D03*
X379207D03*
X333802Y323922D03*
X340888D03*
X371816Y319569D03*
X427068Y51762D03*
X422068D03*
Y56762D03*
X427068D03*
X402400Y21700D03*
X406100Y8200D03*
X415500Y28100D03*
X432700Y39600D03*
X434600Y58700D03*
X427068Y61762D03*
X422068D03*
Y66762D03*
X427068D03*
Y71762D03*
X422068D03*
Y76762D03*
X427068D03*
Y81762D03*
X422068D03*
Y86762D03*
X427068D03*
Y91762D03*
X422068D03*
Y96762D03*
X427068D03*
Y101762D03*
X422068D03*
Y106762D03*
X427068D03*
Y111762D03*
X422068D03*
Y116762D03*
X427068D03*
Y121762D03*
X422068D03*
X435000Y74500D03*
X434600Y95100D03*
X434000Y128200D03*
X423069Y139148D03*
Y131624D03*
X417732Y135386D03*
X428406D03*
X414478Y104580D03*
X418416D03*
Y81580D03*
X414478D03*
Y127580D03*
X418416D03*
X400218Y92785D03*
X400171Y100098D03*
X400260Y115813D03*
X400213Y123126D03*
X400187Y77092D03*
X400234Y69779D03*
X415700Y151400D03*
X433100Y160400D03*
X415600Y175000D03*
X434000Y182100D03*
X418100Y209100D03*
X433600Y206000D03*
X414567Y230939D03*
X403085Y225939D03*
X423069Y200250D03*
Y192726D03*
X417732Y196488D03*
X428406D03*
X422378Y291953D03*
X411772Y247990D03*
X401477Y237739D03*
X420272Y243126D03*
X429510Y252892D03*
X429749Y272146D03*
Y288749D03*
X425013Y281801D03*
X407268Y276788D03*
X434031Y248396D03*
Y256396D03*
Y264396D03*
Y272396D03*
Y280396D03*
Y288396D03*
X404227Y256330D03*
X410965D03*
X407596Y251583D03*
Y261077D03*
X410432Y281646D03*
Y294442D03*
Y289323D03*
X425013Y294597D03*
X407467Y291882D03*
Y286764D03*
Y299560D03*
X410432Y302119D03*
X400965Y265778D03*
X400967Y329088D03*
X399990Y323806D03*
G54D30*
G01X92151Y172029D02*
Y168259D01*
X98227Y162183D01*
X130467D01*
X134312Y158338D01*
Y158029D01*
X134459Y157882D01*
Y104267D01*
X143575Y95151D01*
X189089D01*
X193015Y91225D01*
Y84405D01*
X226892Y50528D01*
X256913D01*
X287206Y80821D01*
X354330D01*
X360042Y86533D01*
G01X85003Y209033D02*
X79569Y203599D01*
Y190799D01*
X92151Y178217D01*
Y172029D01*
G01X434031Y248396D02*
Y243281D01*
X408311Y217561D01*
Y93385D01*
X404311Y89385D01*
X399978D01*
X378979Y68386D01*
X361386D01*
G01X434031Y288396D02*
Y280396D01*
G01D02*
Y272396D01*
G01D02*
Y264396D01*
G01D02*
Y256396D01*
G01D02*
Y248396D01*
G54D21*
X88504Y230000D03*
G54D12*
X45667Y97998D03*
X18108D03*
X45667Y139739D03*
X18108D03*
G54D31*
G01X236752Y188929D02*
X238237Y190414D01*
Y190777D01*
X243577Y196117D01*
Y198217D01*
G54D22*
X128287Y294600D03*
X226713D03*
G54D13*
X17533Y65228D03*
Y59716D03*
G54D32*
G01X268929Y140258D02*
X272997Y136190D01*
X274129D01*
G01D02*
X274929Y136990D01*
Y146021D01*
X268929Y152021D01*
Y152843D01*
G01X274129Y136190D02*
X274826Y135493D01*
Y130739D01*
X266348Y122261D01*
G01X266525Y113204D02*
X263307Y116422D01*
Y123908D01*
X268929Y129530D01*
Y131512D01*
G01X266467Y154851D02*
Y146559D01*
X268929Y144097D01*
G01Y131512D02*
X266543Y133898D01*
Y141711D01*
X268929Y144097D01*
G01X266525Y113204D02*
Y111004D01*
X266092Y110571D01*
Y108085D01*
G01X268929Y163655D02*
Y152843D01*
G01X328042Y207114D02*
X336183Y215255D01*
X392401D01*
X403085Y225939D01*
G01X353099Y223709D02*
X355454Y221354D01*
X385136D01*
X388737Y224955D01*
G01X411772Y247990D02*
X388737Y224955D01*
G01X420272Y243126D02*
X403085Y225939D01*
G01X425013Y281801D02*
X422378Y284436D01*
Y291953D01*
G01X429749Y288749D02*
Y272146D01*
G01X425013Y281801D02*
Y261231D01*
X411772Y247990D01*
G01X429749Y272146D02*
Y252603D01*
X420272Y243126D01*
G01X422378Y291953D02*
Y298249D01*
X415949Y304678D01*
X399269D01*
G54D23*
X308308Y10992D03*
X274292D03*
X266201Y10981D03*
X232185D03*
G54D14*
X40756Y187455D03*
Y207141D03*
G54D33*
G01X16000Y0D02*
X424000D01*
G03X440000Y16000I0J16000D01*
G01Y322400D01*
G03X424000Y338400I-16000J0D01*
G01X16000D01*
G03X0Y322400I0J-16000D01*
G01Y16000D01*
G03X16000Y0I16000J0D01*
G54D24*
X308308Y27449D03*
X274292D03*
X266201Y27438D03*
X232185D03*
G54D15*
X25795Y243547D03*
Y266381D03*
X302717Y25362D03*
X279883D03*
X260610Y25351D03*
X237776D03*
G54D34*
G01X38953Y89556D02*
X44591D01*
X57486Y102451D01*
Y105575D01*
G01X29525Y119441D02*
X36706Y112260D01*
Y89318D01*
X37153Y88871D01*
Y88810D01*
X42887Y83076D01*
X71765D01*
X74761Y86072D01*
X84660D01*
X88683Y82049D01*
G01X42290Y243222D02*
X50006D01*
X58042Y235186D01*
G01X152418Y62858D02*
X153691Y64131D01*
Y74680D01*
X151519Y76852D01*
X141957D01*
X134147Y84662D01*
G01X119419Y156929D02*
Y135298D01*
G01X71365Y120796D02*
X79265D01*
X83680Y125211D01*
G01X80413Y107673D02*
Y110467D01*
X79252Y111628D01*
Y113428D01*
G01X54328Y106440D02*
X55601Y107713D01*
X69495D01*
X85199Y92009D01*
X103981D01*
G01X100325Y183754D02*
X101945Y182134D01*
X109985D01*
X111184Y183333D01*
Y184694D01*
X110384Y185494D01*
X104207D01*
X103407Y186294D01*
Y187894D01*
X104207Y188694D01*
X110384D01*
X111184Y189494D01*
Y192813D01*
X115598Y197227D01*
Y200994D01*
X118873Y204269D01*
X124329D01*
X127864Y200734D01*
X142351D01*
X143151Y201534D01*
Y202960D01*
X142351Y203760D01*
X139282D01*
X137323Y205719D01*
G01X134961Y208521D02*
X133343Y210139D01*
Y213973D01*
X134210Y214840D01*
X147321D01*
X148296Y213865D01*
Y211713D01*
X147495Y210912D01*
X138528D01*
X137595Y209979D01*
Y208574D01*
X134857Y205836D01*
Y204122D01*
X134057Y203322D01*
X128281D01*
X125331Y206272D01*
X115298D01*
X112744Y203718D01*
Y198785D01*
X107221Y193262D01*
X101501D01*
G01X131417Y240805D02*
X125494D01*
X120864Y236175D01*
X119732D01*
X118804Y237103D01*
X117672D01*
X116541Y235972D01*
Y234840D01*
X117469Y233912D01*
Y232780D01*
X116338Y231649D01*
X115206D01*
X114278Y232577D01*
X113146D01*
X112015Y231446D01*
Y230314D01*
X112943Y229386D01*
Y228254D01*
X111812Y227123D01*
X110680D01*
X109752Y228051D01*
X108620D01*
X107489Y226920D01*
Y225788D01*
X108417Y224860D01*
Y223728D01*
X107286Y222597D01*
X106154D01*
X105226Y223525D01*
X104094D01*
X102963Y222394D01*
Y221262D01*
X103891Y220334D01*
Y219202D01*
X102760Y218071D01*
X101628D01*
X100700Y218999D01*
X99568D01*
X98437Y217868D01*
Y216736D01*
X99365Y215808D01*
Y207199D01*
X96804Y204638D01*
Y198223D01*
X99796Y195231D01*
X104505D01*
G01X132598Y205719D02*
X130874Y207443D01*
Y213950D01*
X141072Y224148D01*
Y225281D01*
X139666Y226687D01*
X138534D01*
X122553Y210706D01*
X113743D01*
X109930Y206893D01*
Y206856D01*
X109229Y206155D01*
Y198980D01*
X107448Y197199D01*
X101501D01*
G01X140866Y238003D02*
Y235703D01*
X137624Y232461D01*
X136492D01*
X134863Y234090D01*
X133731D01*
X132600Y232959D01*
Y231827D01*
X134229Y230198D01*
Y229066D01*
X133098Y227935D01*
X131966D01*
X130337Y229564D01*
X129205D01*
X128074Y228433D01*
Y227301D01*
X129703Y225672D01*
Y224540D01*
X128572Y223409D01*
X127440D01*
X125811Y225038D01*
X124679D01*
X123548Y223907D01*
Y222775D01*
X125177Y221146D01*
Y220014D01*
X117810Y212647D01*
X109650D01*
X99701Y202698D01*
Y200180D01*
X100713Y199168D01*
X104505D01*
G01X115935Y227511D02*
X120787Y222659D01*
Y219195D01*
G01X96608Y220942D02*
Y222742D01*
X119259Y245393D01*
X145116D01*
X152104Y252381D01*
G01X112520Y251479D02*
Y258127D01*
X101077Y269570D01*
X87181D01*
X80397Y276354D01*
X70568D01*
X60048Y286874D01*
Y288572D01*
X56094Y292526D01*
G01X65643Y286790D02*
X85459D01*
X92768Y279481D01*
X231043D01*
X237534Y272990D01*
Y259545D01*
X242898Y254181D01*
X242911D01*
X243965Y253127D01*
Y251106D01*
X243165Y250306D01*
X237537D01*
X235462Y252381D01*
G01X114882Y254281D02*
Y250187D01*
X113094Y248399D01*
X88243D01*
X67115Y269527D01*
X64133D01*
X54312Y279348D01*
G01X89295Y272429D02*
X232407D01*
G01X151061Y266902D02*
X138018D01*
X127548Y256432D01*
X121284D01*
X119200Y254348D01*
Y252381D01*
G01X154999Y266902D02*
X153159Y265062D01*
X139160D01*
X128462Y254364D01*
Y252381D01*
G01X183414Y45989D02*
X178452D01*
X177652Y45189D01*
Y44057D01*
X178789Y42920D01*
X183708D01*
X189454Y48666D01*
Y55753D01*
X191527Y57826D01*
X193157D01*
X194198Y58867D01*
G01X170690Y45989D02*
X175652D01*
X176452Y45189D01*
Y43559D01*
X178291Y41720D01*
X184206D01*
X190654Y48168D01*
Y55255D01*
X192025Y56626D01*
X193157D01*
X194198Y55585D01*
G01X170514Y51903D02*
X175476D01*
X176276Y51103D01*
Y49971D01*
X175476Y49171D01*
X168616D01*
X165162Y52625D01*
X161062D01*
X160120Y53567D01*
X157862D01*
X156920Y52625D01*
X154662D01*
X153720Y53567D01*
X151462D01*
X150520Y52625D01*
X149220D01*
X148179Y53666D01*
G01X183238Y51903D02*
X178276D01*
X177476Y51103D01*
Y49473D01*
X175974Y47971D01*
X168118D01*
X164664Y51425D01*
X149220D01*
X148179Y50384D01*
G01X152418Y29394D02*
X154691D01*
X157550Y26535D01*
G01X156530Y35474D02*
X165205Y26799D01*
X178370D01*
X183238Y31667D01*
G01X154723Y37443D02*
X163990D01*
X170121Y43574D01*
X171445D01*
X171456Y43585D01*
X172948D01*
X172959Y43574D01*
X173162D01*
X176894Y39842D01*
X184857D01*
G01X247438Y26038D02*
X248479Y24997D01*
Y18442D01*
X247261Y17224D01*
X245194D01*
X243935Y18483D01*
X241994D01*
X240735Y17224D01*
X238794D01*
X237535Y18483D01*
X235594D01*
X234335Y17224D01*
X232394D01*
X231135Y18483D01*
X229194D01*
X227935Y17224D01*
X225994D01*
X224735Y18483D01*
X222794D01*
X221535Y17224D01*
X219594D01*
X218335Y18483D01*
X216394D01*
X215135Y17224D01*
X213194D01*
X211935Y18483D01*
X209994D01*
X208735Y17224D01*
X206794D01*
X205535Y18483D01*
X203594D01*
X202335Y17224D01*
X200934D01*
X198863Y19295D01*
Y29948D01*
X200054Y31139D01*
X201439D01*
X202476Y30102D01*
X204639D01*
X205676Y31139D01*
X207839D01*
X208876Y30102D01*
X211039D01*
X212076Y31139D01*
X214239D01*
X215276Y30102D01*
X217439D01*
X218476Y31139D01*
X222980D01*
X223580Y30539D01*
X225808D01*
X227608Y32339D01*
G01X224326D02*
X199556D01*
X197663Y30446D01*
Y18797D01*
X200436Y16024D01*
X247759D01*
X249679Y17944D01*
Y24997D01*
X250720Y26038D01*
G01X190876Y31667D02*
X188999Y33544D01*
X181531D01*
X179654Y31667D01*
X172202D01*
G01D02*
X173475Y32940D01*
Y40512D01*
X172202Y41785D01*
G01X190876D02*
X192763Y39898D01*
Y33554D01*
X190876Y31667D01*
G01Y41785D02*
Y45380D01*
X196707Y51211D01*
Y59414D01*
X194250Y61871D01*
X183436D01*
X182163Y60598D01*
G01X216938Y252381D02*
X194010Y229453D01*
X167699D01*
X154634Y216388D01*
Y164966D01*
X139623Y149955D01*
Y116372D01*
G01X140609Y71728D02*
X147351D01*
X150285Y74662D01*
G01X158583Y205719D02*
Y203919D01*
X158490Y203826D01*
Y160797D01*
X157690Y159997D01*
X153571D01*
X152771Y159197D01*
Y157597D01*
X153571Y156797D01*
X157690D01*
X158490Y155997D01*
Y154397D01*
X157690Y153597D01*
X153571D01*
X152771Y152797D01*
Y151197D01*
X153571Y150397D01*
X157690D01*
X158490Y149597D01*
Y147997D01*
X157690Y147197D01*
X153571D01*
X152771Y146397D01*
Y144797D01*
X153571Y143997D01*
X157690D01*
X158490Y143197D01*
Y141597D01*
X157690Y140797D01*
X153571D01*
X152771Y139997D01*
Y138397D01*
X153571Y137597D01*
X157690D01*
X158490Y136797D01*
Y135197D01*
X157690Y134397D01*
X153571D01*
X152771Y133597D01*
Y131997D01*
X153571Y131197D01*
X157690D01*
X172429Y116458D01*
X184634D01*
X185528Y117352D01*
Y120090D01*
G01X188908Y122115D02*
X190922D01*
X191761Y122954D01*
Y127654D01*
X193817Y129710D01*
X200972D01*
X202982Y127700D01*
Y120675D01*
X202182Y119875D01*
X188602D01*
X186587Y121890D01*
X175930D01*
X172292Y125528D01*
X166544D01*
X161113Y130959D01*
Y154868D01*
X161913Y155668D01*
X162839D01*
X163639Y156468D01*
Y158068D01*
X162839Y158868D01*
X161913D01*
X161113Y159668D01*
Y161268D01*
X161913Y162068D01*
X162839D01*
X163639Y162868D01*
Y164468D01*
X162839Y165268D01*
X161913D01*
X161113Y166068D01*
Y177472D01*
X161913Y178272D01*
X162218D01*
X163018Y179072D01*
Y180672D01*
X162218Y181472D01*
X161913D01*
X161113Y182272D01*
Y183872D01*
X161913Y184672D01*
X162218D01*
X163018Y185472D01*
Y187072D01*
X162218Y187872D01*
X161913D01*
X161113Y188672D01*
Y190272D01*
X161913Y191072D01*
X162218D01*
X163018Y191872D01*
Y193472D01*
X162218Y194272D01*
X161913D01*
X161113Y195072D01*
Y204527D01*
X163307Y206721D01*
Y208521D01*
G01X186029Y123915D02*
X177821D01*
X173448Y128288D01*
X168223D01*
X163639Y132872D01*
Y147723D01*
X164693Y148777D01*
X166186D01*
X167239Y149830D01*
Y168301D01*
X165669Y169871D01*
Y205719D01*
G01X168031Y208521D02*
X166231D01*
X162499Y212253D01*
Y214683D01*
X163420Y215604D01*
X164552D01*
X166332Y213824D01*
X167464D01*
X168595Y214955D01*
Y216087D01*
X166815Y217867D01*
Y218999D01*
X167946Y220130D01*
X169078D01*
X170858Y218350D01*
X171990D01*
X173121Y219481D01*
Y220613D01*
X171341Y222393D01*
Y223525D01*
X172662Y224846D01*
X175347D01*
X177897Y222296D01*
Y219879D01*
X170343Y212325D01*
Y208287D01*
X168031Y205975D01*
Y188038D01*
X169639Y186430D01*
Y148426D01*
X168064Y146851D01*
Y137152D01*
X179501Y125715D01*
X188833D01*
G01X186033Y127515D02*
X180885D01*
X174007Y134393D01*
Y150204D01*
X175396Y151593D01*
Y156205D01*
X174519Y157082D01*
X172587D01*
X171675Y157994D01*
Y188547D01*
X170394Y189828D01*
Y205719D01*
G01X172756Y208521D02*
Y211567D01*
X183657Y222468D01*
X190104D01*
X191770Y220802D01*
Y218729D01*
X189796Y216755D01*
X188666D01*
X185498Y219924D01*
X184368D01*
X183235Y218791D01*
Y217661D01*
X186403Y214492D01*
Y213362D01*
X185270Y212229D01*
X184140D01*
X180972Y215398D01*
X179842D01*
X178709Y214265D01*
Y213135D01*
X181877Y209966D01*
Y208836D01*
X180955Y207914D01*
X174695D01*
X172967Y206186D01*
Y203566D01*
X174876Y201657D01*
Y160477D01*
X177582Y157771D01*
Y134397D01*
X182664Y129315D01*
X188833D01*
G01X186033Y131115D02*
X184233D01*
X180230Y135118D01*
Y139367D01*
X181030Y140167D01*
X183094D01*
X183894Y140967D01*
Y142567D01*
X183094Y143367D01*
X181030D01*
X180230Y144167D01*
Y145767D01*
X181030Y146567D01*
X182916D01*
X183716Y147367D01*
Y148967D01*
X182916Y149767D01*
X181030D01*
X180230Y150567D01*
Y157681D01*
X182977Y160428D01*
Y165916D01*
X182177Y166716D01*
X179276D01*
X178476Y167516D01*
Y169116D01*
X179276Y169916D01*
X182177D01*
X182977Y170716D01*
Y172316D01*
X182177Y173116D01*
X179276D01*
X178476Y173916D01*
Y175516D01*
X179276Y176316D01*
X182177D01*
X182977Y177116D01*
Y178716D01*
X182177Y179516D01*
X179276D01*
X178476Y180316D01*
Y181916D01*
X179276Y182716D01*
X182177D01*
X182977Y183516D01*
Y185116D01*
X182177Y185916D01*
X179276D01*
X178476Y186716D01*
Y188316D01*
X179276Y189116D01*
X182177D01*
X182977Y189916D01*
Y191516D01*
X182177Y192316D01*
X179276D01*
X178476Y193116D01*
Y194716D01*
X179276Y195516D01*
X182177D01*
X182977Y196316D01*
Y197616D01*
X180839Y199754D01*
Y200960D01*
X183033Y203154D01*
Y204918D01*
X182232Y205719D01*
X175118D01*
G01X186033Y142813D02*
X196979D01*
X201561Y147395D01*
Y186371D01*
X210597Y195407D01*
Y197619D01*
X214845Y201867D01*
Y212946D01*
X220000Y218101D01*
Y221997D01*
G01X224724D02*
Y214010D01*
X223009Y212295D01*
Y196443D01*
X224495Y194957D01*
Y191221D01*
X222949Y189675D01*
Y183851D01*
X218755Y179657D01*
Y157558D01*
X200184Y138987D01*
X186028D01*
G01X229449Y221997D02*
Y199783D01*
X231696Y197536D01*
Y175818D01*
X230896Y175018D01*
X227001D01*
X226201Y174218D01*
Y172618D01*
X227001Y171818D01*
X230896D01*
X231696Y171018D01*
Y169418D01*
X230896Y168618D01*
X227001D01*
X226201Y167818D01*
Y166218D01*
X227001Y165418D01*
X230896D01*
X231696Y164618D01*
Y158979D01*
X208725Y136008D01*
Y119304D01*
X207925Y118504D01*
X206412D01*
X205612Y119304D01*
Y130498D01*
X203195Y132915D01*
X188833D01*
G01X184323Y105974D02*
X192009Y113660D01*
X209505D01*
X211724Y115879D01*
Y135007D01*
X233698Y156981D01*
Y191059D01*
X236148Y193509D01*
Y194574D01*
X236948Y195374D01*
X239110D01*
X240062Y196326D01*
Y197774D01*
X239262Y198574D01*
X236948D01*
X236148Y199374D01*
Y200974D01*
X236948Y201774D01*
X239986D01*
X240786Y202574D01*
Y204174D01*
X239986Y204974D01*
X236948D01*
X236148Y205774D01*
Y207374D01*
X236948Y208174D01*
X240008D01*
X240913Y209079D01*
Y210807D01*
X240346Y211374D01*
X236948D01*
X236148Y212174D01*
Y214858D01*
X231811Y219195D01*
G01X222362D02*
Y216039D01*
X218706Y212383D01*
Y195028D01*
X217901Y194223D01*
X214809D01*
X212768Y192182D01*
Y187959D01*
X214389Y186338D01*
X217895D01*
X218695Y185538D01*
Y184008D01*
X217894Y183207D01*
X213568D01*
X211794Y181433D01*
Y179417D01*
X216188Y175023D01*
Y170067D01*
X215388Y169267D01*
X214292D01*
X213492Y168467D01*
Y166867D01*
X214292Y166067D01*
X215388D01*
X216188Y165267D01*
Y163667D01*
X215388Y162867D01*
X214292D01*
X213492Y162067D01*
Y160467D01*
X214292Y159667D01*
X215388D01*
X216188Y158867D01*
Y157567D01*
X214989Y156368D01*
X212289D01*
X211126Y157531D01*
Y172476D01*
X210326Y173276D01*
X205348D01*
X204310Y172238D01*
Y146338D01*
X198985Y141013D01*
X188833D01*
G01X227087Y219195D02*
Y198382D01*
X229806Y195663D01*
Y187887D01*
X224059Y182140D01*
Y179912D01*
X223259Y179112D01*
X221697D01*
X220897Y178312D01*
Y176712D01*
X221697Y175912D01*
X223259D01*
X224059Y175112D01*
Y173512D01*
X223259Y172712D01*
X221697D01*
X220897Y171912D01*
Y170312D01*
X221697Y169512D01*
X223259D01*
X224059Y168712D01*
Y167112D01*
X223259Y166312D01*
X221697D01*
X220897Y165512D01*
Y163912D01*
X221697Y163112D01*
X223259D01*
X224059Y162312D01*
Y160712D01*
X223259Y159912D01*
X221697D01*
X220897Y159112D01*
Y157512D01*
X221697Y156712D01*
X223259D01*
X224059Y155912D01*
Y154612D01*
X222055Y152608D01*
X220925D01*
X219513Y154019D01*
X218383D01*
X217250Y152886D01*
Y151756D01*
X218662Y150345D01*
Y149215D01*
X217529Y148082D01*
X216399D01*
X214987Y149493D01*
X213857D01*
X212724Y148360D01*
Y147230D01*
X214136Y145819D01*
Y144689D01*
X213003Y143556D01*
X211873D01*
X210461Y144967D01*
X209331D01*
X208198Y143834D01*
Y142704D01*
X209610Y141293D01*
Y140163D01*
X208477Y139030D01*
X207347D01*
X205935Y140441D01*
X204805D01*
X203672Y139308D01*
Y138178D01*
X205084Y136767D01*
Y135637D01*
X204162Y134715D01*
X200144D01*
X199344Y135515D01*
Y136580D01*
X198544Y137380D01*
X196944D01*
X196144Y136580D01*
Y135515D01*
X195344Y134715D01*
X193744D01*
X192944Y135515D01*
Y136580D01*
X192144Y137380D01*
X190544D01*
X189744Y136580D01*
Y135515D01*
X188944Y134715D01*
X186033D01*
G01X276693Y205719D02*
X271158D01*
X270358Y206519D01*
Y216825D01*
X269557Y217626D01*
X268208D01*
X267408Y216826D01*
Y203125D01*
X265709Y201426D01*
X249477D01*
X245804Y197753D01*
Y188590D01*
X239297Y182083D01*
X239184D01*
X235697Y178596D01*
Y155742D01*
X214764Y134809D01*
Y116169D01*
X224161Y106772D01*
Y104972D01*
G01X225961Y107772D02*
X217162Y116571D01*
Y134237D01*
X237696Y154771D01*
Y176487D01*
X247802Y186593D01*
Y194791D01*
X252153Y199142D01*
X270590D01*
X275367Y203919D01*
X277819D01*
X278698Y204798D01*
Y206310D01*
X277032Y207976D01*
X273906D01*
X273022Y208860D01*
Y216624D01*
X273822Y217424D01*
X275574D01*
X276374Y216624D01*
Y211202D01*
X279055Y208521D01*
G01X281417Y205719D02*
X280144Y204446D01*
Y203694D01*
X273537Y197087D01*
X253971D01*
X249787Y192903D01*
Y185478D01*
X239637Y175328D01*
Y153894D01*
X224682Y138939D01*
Y119024D01*
X223882Y118224D01*
X222827D01*
X222179Y118872D01*
Y130408D01*
X221379Y131208D01*
X220086D01*
X219286Y130408D01*
Y117665D01*
X227761Y109190D01*
Y104972D01*
G01X226200Y252381D02*
X220804Y246985D01*
X214926D01*
X194846Y226905D01*
X171329D01*
X156434Y212010D01*
Y208150D01*
G01X208189Y221997D02*
X198203D01*
X186708Y210502D01*
Y198984D01*
X185076Y197352D01*
Y156852D01*
X186033Y155895D01*
Y150013D01*
G01X210551Y219195D02*
X213132Y221776D01*
Y223464D01*
X214197Y224529D01*
X231207D01*
X232349Y225671D01*
Y229188D01*
X231297Y230240D01*
X229727D01*
X228927Y229440D01*
Y227899D01*
X228127Y227099D01*
X226527D01*
X225727Y227899D01*
Y229440D01*
X224927Y230240D01*
X223327D01*
X222527Y229440D01*
Y227899D01*
X221727Y227099D01*
X220127D01*
X219327Y227899D01*
Y229440D01*
X218527Y230240D01*
X216927D01*
X216127Y229440D01*
Y227899D01*
X215327Y227099D01*
X213727D01*
X212927Y227899D01*
Y229440D01*
X212127Y230240D01*
X210827D01*
X210142Y229555D01*
Y221383D01*
X207064Y218305D01*
X197727D01*
X189854Y210432D01*
Y151034D01*
X188833Y150013D01*
Y148213D01*
G01X215276Y221997D02*
Y219593D01*
X210645Y214962D01*
X202669D01*
X192832Y205125D01*
Y148666D01*
X190579Y146413D01*
X186033D01*
G01X188833Y144613D02*
X194742D01*
X198965Y148836D01*
Y150136D01*
X198165Y150936D01*
X195425D01*
X194625Y151736D01*
Y153336D01*
X195425Y154136D01*
X198165D01*
X198965Y154936D01*
Y156536D01*
X198165Y157336D01*
X195425D01*
X194625Y158136D01*
Y159736D01*
X195425Y160536D01*
X198165D01*
X198965Y161336D01*
Y162936D01*
X198165Y163736D01*
X195425D01*
X194625Y164536D01*
Y166136D01*
X195425Y166936D01*
X198165D01*
X198965Y167736D01*
Y169336D01*
X198165Y170136D01*
X195425D01*
X194625Y170936D01*
Y172536D01*
X195425Y173336D01*
X198165D01*
X198965Y174136D01*
Y175736D01*
X198165Y176536D01*
X195425D01*
X194625Y177336D01*
Y178936D01*
X195425Y179736D01*
X198165D01*
X198965Y180536D01*
Y182136D01*
X198165Y182936D01*
X195425D01*
X194625Y183736D01*
Y185336D01*
X195425Y186136D01*
X198165D01*
X198965Y186936D01*
Y188536D01*
X198165Y189336D01*
X195425D01*
X194625Y190136D01*
Y191736D01*
X195425Y192536D01*
X198808D01*
X203059Y196787D01*
Y201079D01*
X200725Y203413D01*
Y204545D01*
X202323Y206143D01*
X209904D01*
X210704Y206943D01*
Y208851D01*
X209904Y209651D01*
X203337D01*
X202537Y210451D01*
Y211896D01*
X203337Y212696D01*
X211139D01*
X217638Y219195D01*
G01X178567Y224385D02*
X198622D01*
X209303Y235066D01*
X269041D01*
X270787Y236812D01*
Y240070D01*
X273436Y242719D01*
X291387D01*
X304873Y229233D01*
Y205562D01*
X311335Y199100D01*
Y197625D01*
X358791Y150169D01*
X375040D01*
X385493Y139716D01*
G01X186512Y311810D02*
Y302395D01*
G01X210131Y266902D02*
X211404Y268175D01*
X226956D01*
X232903Y262228D01*
Y259084D01*
X239606Y252381D01*
G01X230344D02*
X223641Y259084D01*
Y261646D01*
X221214Y264073D01*
X202498D01*
X200942Y265629D01*
X199590D01*
X198317Y266902D01*
G01X158937D02*
X155395Y263360D01*
X147508D01*
X144642Y260494D01*
Y256771D01*
X142894Y255023D01*
X140366D01*
X137724Y252381D01*
G01X162875Y266902D02*
X157818Y261845D01*
X155528D01*
X154176Y260493D01*
Y256895D01*
X151462Y254181D01*
X148799D01*
X148272Y253654D01*
X148259D01*
X146986Y252381D01*
G01X156248D02*
X160733Y256866D01*
X162482D01*
X163438Y257822D01*
Y263527D01*
X166813Y266902D01*
G01X165510Y252381D02*
X171348Y258219D01*
X171374D01*
X172428Y259273D01*
Y259299D01*
X172700Y259571D01*
Y264953D01*
X170751Y266902D01*
G01X182565D02*
X181962Y266299D01*
Y257976D01*
X183326Y256612D01*
X189065D01*
X193296Y252381D01*
G01X186503Y266902D02*
X191224Y262181D01*
Y259223D01*
X194942Y255505D01*
X199434D01*
X202558Y252381D01*
G01X190441Y266902D02*
X195418Y261925D01*
X199084D01*
X200303Y260706D01*
Y258908D01*
X202803Y256408D01*
X207793D01*
X211820Y252381D01*
G01X194379Y266902D02*
X197457Y263824D01*
X200028D01*
X201847Y262005D01*
X208780D01*
X209748Y261037D01*
Y258092D01*
X213031Y254809D01*
X218654D01*
X221082Y252381D01*
G01X251163Y157775D02*
Y151025D01*
X236802Y136664D01*
Y104443D01*
X230376Y98017D01*
Y65608D01*
X227854Y63086D01*
Y56602D01*
G01X248209Y33956D02*
X252146D01*
G01X243504Y128617D02*
X244777Y127344D01*
Y126827D01*
X251514Y120090D01*
X251541D01*
X276408Y95223D01*
X326887D01*
X330180Y98516D01*
G01X243504Y125280D02*
X275920Y92864D01*
X329528D01*
X335180Y98516D01*
G01X243504Y121790D02*
X274897Y90397D01*
X332061D01*
X340180Y98516D01*
G01X243504Y118367D02*
X273894Y87977D01*
X334641D01*
X345180Y98516D01*
G01X250460Y127290D02*
X254313D01*
X259926Y132903D01*
Y137863D01*
X259126Y138663D01*
X256642D01*
X255842Y139463D01*
Y141063D01*
X256642Y141863D01*
X259126D01*
X259926Y142663D01*
Y172758D01*
X269350Y182182D01*
X289383D01*
X296614Y189413D01*
Y207901D01*
X284644Y219871D01*
Y233637D01*
X287860Y236853D01*
Y240644D01*
G01X290405Y239307D02*
X291836Y237876D01*
Y231924D01*
X289096Y229184D01*
Y218531D01*
X290017Y217610D01*
X291149D01*
X291915Y218376D01*
X293047D01*
X294178Y217245D01*
Y216113D01*
X293412Y215347D01*
Y214215D01*
X294543Y213084D01*
X295675D01*
X296441Y213850D01*
X297573D01*
X298704Y212719D01*
Y211587D01*
X297938Y210821D01*
Y209689D01*
X298927Y208700D01*
Y187988D01*
X290532Y179593D01*
X270073D01*
X262039Y171559D01*
Y132464D01*
X255065Y125490D01*
X253265D01*
G01X294409Y233298D02*
Y230228D01*
X292742Y228561D01*
Y223271D01*
X301177Y214836D01*
Y186812D01*
X291617Y177252D01*
X271158D01*
X264261Y170355D01*
Y132146D01*
X255805Y123690D01*
X250460D01*
G01X230258Y62944D02*
X233682Y66368D01*
Y95512D01*
X239162Y100992D01*
Y102349D01*
X238334Y103177D01*
Y135309D01*
X256895Y153870D01*
Y155728D01*
G01X229561Y107772D02*
Y110900D01*
X226998Y113463D01*
Y138209D01*
X241542Y152753D01*
Y173135D01*
X263152Y194745D01*
X274354D01*
X283444Y203835D01*
Y206311D01*
X281653Y208102D01*
Y209042D01*
X278628Y212067D01*
Y216795D01*
X279428Y217595D01*
X283707D01*
X287856Y213446D01*
Y211315D01*
X286335Y209794D01*
X285053D01*
X283780Y208521D01*
G01X286142Y205719D02*
Y203603D01*
X273797Y191258D01*
X263375D01*
X243692Y171575D01*
Y152161D01*
X229705Y138174D01*
Y114373D01*
X231361Y112717D01*
Y104972D01*
G01X233161Y107772D02*
Y114532D01*
X232247Y115446D01*
Y137900D01*
X245941Y151594D01*
Y170726D01*
X246862Y171647D01*
X247994D01*
X249457Y170184D01*
X250589D01*
X251720Y171315D01*
Y172447D01*
X250257Y173910D01*
Y175042D01*
X251388Y176173D01*
X252520D01*
X253983Y174710D01*
X255115D01*
X256246Y175841D01*
Y176973D01*
X254783Y178436D01*
Y179568D01*
X255914Y180699D01*
X257046D01*
X258509Y179236D01*
X259641D01*
X260772Y180367D01*
Y181499D01*
X259309Y182962D01*
Y184094D01*
X263594Y188379D01*
X280785D01*
X281708Y189302D01*
Y190432D01*
X279410Y192729D01*
Y193859D01*
X280543Y194992D01*
X281673D01*
X283971Y192695D01*
X285101D01*
X289250Y196844D01*
Y204941D01*
X290866Y206557D01*
G01X293228D02*
Y198720D01*
X292223Y197715D01*
Y196415D01*
X291423Y195615D01*
X290757D01*
X289957Y194815D01*
Y193215D01*
X290757Y192415D01*
X291423D01*
X292223Y191615D01*
Y188485D01*
X288147Y184409D01*
X285712D01*
X284912Y185209D01*
Y185886D01*
X284112Y186686D01*
X282512D01*
X281712Y185886D01*
Y185209D01*
X280912Y184409D01*
X279312D01*
X278512Y185209D01*
Y185886D01*
X277712Y186686D01*
X276112D01*
X275312Y185886D01*
Y185209D01*
X274512Y184409D01*
X272912D01*
X272112Y185209D01*
Y185886D01*
X271312Y186686D01*
X269712D01*
X268912Y185886D01*
Y185209D01*
X249113Y165410D01*
Y164278D01*
X249913Y163478D01*
X254996D01*
X256386Y162088D01*
Y160733D01*
X255433Y159780D01*
X253384D01*
X252089Y161075D01*
X250180D01*
X248656Y159551D01*
Y151501D01*
X234961Y137806D01*
Y105972D01*
G01X262363Y283114D02*
X278524Y299275D01*
X286598D01*
G01X410432Y281646D02*
Y275241D01*
X402769Y267578D01*
X400219D01*
X399165Y266524D01*
Y266404D01*
X381168Y248407D01*
X340127D01*
X319213Y227493D01*
Y221135D01*
G01X410432Y294442D02*
Y292301D01*
X408157Y290026D01*
Y288836D01*
X414330Y282663D01*
Y274611D01*
X384173Y244454D01*
X381811D01*
X380757Y243400D01*
Y241038D01*
X378452Y238733D01*
X359690D01*
X358890Y239533D01*
Y242418D01*
X358090Y243218D01*
X356490D01*
X355690Y242418D01*
Y239588D01*
X354835Y238733D01*
X344858D01*
X337523Y231398D01*
Y228482D01*
X333943Y224902D01*
X328661D01*
G01X333180Y222938D02*
X339466D01*
X344604Y228076D01*
Y231802D01*
X348587Y235785D01*
X355473D01*
X356273Y234985D01*
Y231965D01*
X357073Y231165D01*
X358673D01*
X359473Y231965D01*
Y234985D01*
X360273Y235785D01*
X361873D01*
X362673Y234985D01*
Y231965D01*
X363473Y231165D01*
X365073D01*
X365873Y231965D01*
Y234985D01*
X366673Y235785D01*
X379468D01*
X417284Y273601D01*
Y282471D01*
X410432Y289323D01*
G01X425013Y294597D02*
X427600Y292010D01*
Y257345D01*
X388177Y217922D01*
X334659D01*
X333386Y219195D01*
G01X407467Y291882D02*
Y295471D01*
X408608Y296612D01*
X411679D01*
X419783Y288508D01*
Y269127D01*
X384436Y233780D01*
X371217D01*
X363035Y225598D01*
X350405D01*
X345945Y221138D01*
X338152D01*
G01X360378Y164879D02*
X366626D01*
X376109Y174362D01*
X385493D01*
G01X363343Y162320D02*
X367950D01*
X375661Y170031D01*
X385493D01*
G01X360378Y159760D02*
X369802D01*
X375743Y165701D01*
X385493D01*
G01X360378Y154642D02*
X379229D01*
X385493Y148378D01*
G01X363343Y152083D02*
X377457D01*
X385493Y144047D01*
G01X399269Y289323D02*
X396304D01*
X392747Y285766D01*
X370370D01*
G01X367405Y289309D02*
X391919D01*
X394492Y291882D01*
X396304D01*
G01X399269Y294442D02*
X393474D01*
X391884Y292852D01*
X370370D01*
G01X369379Y296396D02*
X390215D01*
X390820Y297001D01*
X396304D01*
G01X370370Y299939D02*
X371643Y301212D01*
X392852D01*
X394504Y299560D01*
X399269D01*
G01X367405Y303482D02*
X394941D01*
X396304Y302119D01*
G01X367405Y282223D02*
X393927D01*
X394504Y281646D01*
X396304D01*
G54D16*
X11425Y237956D03*
Y271972D03*
G54D25*
X246243Y322023D03*
X300181D03*
X273212Y325953D03*
G54D17*
X27882Y237956D03*
Y271972D03*
G54D26*
X378061Y4340D03*
X385935D03*
X393809D03*
X378061Y22056D03*
X385935D03*
X393809D03*
G54D18*
X51028Y315115D03*
X65165Y138435D03*
Y128593D03*
X252544Y258626D03*
X341920Y122769D03*
X434450Y228817D03*
G54D27*
X357389Y7000D03*
Y25504D03*
Y44008D03*
X327464Y7000D03*
Y25504D03*
Y44008D03*
G54D28*
G01X100498Y186372D02*
X98370D01*
X97569Y185571D01*
Y182892D01*
X99444Y181017D01*
G01X92151Y172029D02*
X97746Y177624D01*
Y179319D01*
X99444Y181017D01*
G01X385493Y161370D02*
X389848Y157015D01*
Y139593D01*
X385557Y135302D01*
X368721D01*
X368611Y135412D01*
X366811D01*
G54D19*
X51028Y325115D03*
X75165Y138435D03*
Y128593D03*
X120161Y199437D03*
Y169437D03*
X91028Y315115D03*
X81028D03*
X71028D03*
X61028D03*
X91028Y325115D03*
X81028D03*
X71028D03*
X61028D03*
X150161Y199437D03*
Y169437D03*
X291920Y122769D03*
X301920D03*
X311920D03*
X262544Y258626D03*
X286598Y299275D03*
X259826D03*
X286598Y309118D03*
X259826D03*
X278330D03*
X268094D03*
X321920Y122769D03*
X331920D03*
X434450Y218817D03*
G54D29*
G01X164888Y60256D02*
Y67792D01*
X169321Y72225D01*
X179510D01*
X183133Y75848D01*
Y80123D01*
G01X150285Y84662D02*
X178594D01*
X183133Y80123D01*
M02*
