G04 ================== begin FILE IDENTIFICATION RECORD ==================*
G04 Layout Name:  G:/project_development/GitHub/ysyx3_pcb/PCB/V1.1/ysyx3_pcb.brd*
G04 Film Name:    GND02*
G04 File Format:  Gerber RS274X*
G04 File Origin:  Cadence Allegro 16.6-2015-S066*
G04 Origin Date:  Fri Mar 24 09:30:01 2023*
G04 *
G04 Layer:  VIA CLASS/GND02*
G04 Layer:  PIN/GND02*
G04 Layer:  ETCH/GND02*
G04 Layer:  BOARD GEOMETRY/OUTLINE*
G04 *
G04 Offset:    (0.00 0.00)*
G04 Mirror:    No*
G04 Mode:      Positive*
G04 Rotation:  0*
G04 FullContactRelief:  No*
G04 UndefLineWidth:     0.01*
G04 ================== end FILE IDENTIFICATION RECORD ====================*
%FSLAX55Y55*MOIN*%
%IR0*IPPOS*OFA0.00000B0.00000*MIA0B0*SFA1.00000B1.00000*%
%ADD11C,.018*%
%ADD13C,.04331*%
%ADD12C,.05157*%
%ADD21C,.09055*%
%ADD14C,.0748*%
%ADD26C,.05906*%
%ADD15C,.02795*%
%ADD20C,.06693*%
%ADD27C,.09449*%
%ADD19C,.06299*%
%ADD18R,.06299X.06299*%
%ADD25C,.12205*%
%ADD10C,.16142*%
%ADD22C,.17323*%
%ADD23O,.04724X.07087*%
%ADD16O,.07087X.04724*%
%ADD24O,.04724X.07874*%
%ADD17O,.07874X.04724*%
%ADD28C,.014*%
%ADD29C,.006*%
%ADD42C,.07302*%
%ADD39C,.0616*%
%ADD38C,.02804*%
%ADD48C,.0691*%
%ADD34C,.08666*%
%ADD41C,.03798*%
%ADD45C,.07696*%
%ADD37C,.07878*%
%ADD32C,.07879*%
%ADD47C,.10452*%
%ADD46C,.13208*%
%ADD44C,.10058*%
%ADD36R,.10238X.10238*%
%ADD40R,.07302X.07302*%
%ADD43C,.18326*%
%ADD33C,.18902*%
%ADD35R,.23626X.23626*%
%ADD31O,.05726X.08876*%
%ADD30O,.05728X.08878*%
G75*
%LPD*%
G75*
G36*
G01X16000Y2004D02*
G02X2004Y16000I0J13996D01*
G01Y322400D01*
G02X16000Y336396I13996J0D01*
G01X424000D01*
G02X437996Y322400I0J-13996D01*
G01Y232468D01*
X430799D01*
Y225166D01*
X437996D01*
Y221369D01*
G02X437285Y221117I-400J0D01*
G03Y216517I-2835J-2300D01*
G02X437996Y216265I311J-252D01*
G01Y16000D01*
G02X424000Y2004I-13996J0D01*
G01X397143D01*
G02X396797Y2605I0J400D01*
G03X390821I-2988J1735D01*
G02X390475Y2004I-346J-201D01*
G01X389269D01*
G02X388923Y2605I0J400D01*
G03X382947I-2988J1735D01*
G02X382601Y2004I-346J-201D01*
G01X381395D01*
G02X381049Y2605I0J400D01*
G03X375073I-2988J1735D01*
G02X374727Y2004I-346J-201D01*
G01X360634D01*
G02X360403Y2731I0J400D01*
G03X354375I-3014J4269D01*
G02X354144Y2004I-231J-327D01*
G01X330709D01*
G02X330478Y2731I0J400D01*
G03X324450I-3014J4269D01*
G02X324219Y2004I-231J-327D01*
G01X16000D01*
G37*
%LPC*%
G75*
G36*
G01X311172Y9810D02*
G02X305444I-2864J0D01*
G01Y12174D01*
G02X311172I2864J0D01*
G01Y9810D01*
G37*
G36*
G01X235048Y9800D02*
G02X229322I-2863J0D01*
G01Y12162D01*
G02X235048I2863J0D01*
G01Y9800D01*
G37*
G36*
G01X269064D02*
G02X263338I-2863J0D01*
G01Y12162D01*
G02X269064I2863J0D01*
G01Y9800D01*
G37*
G36*
G01X277156Y9810D02*
G02X271428I-2864J0D01*
G01Y12174D01*
G02X277156I2864J0D01*
G01Y9810D01*
G37*
G36*
G01X26307Y235092D02*
G02Y240820I0J2864D01*
G01X29457D01*
G02Y235092I0J-2864D01*
G01X26307D01*
G37*
G36*
G01X10244D02*
G02Y240820I0J2864D01*
G01X12606D01*
G02Y235092I0J-2864D01*
G01X10244D01*
G37*
G36*
G01Y269108D02*
G02Y274836I0J2864D01*
G01X12606D01*
G02Y269108I0J-2864D01*
G01X10244D01*
G37*
G36*
G01X26307D02*
G02Y274836I0J2864D01*
G01X29457D01*
G02Y269108I0J-2864D01*
G01X26307D01*
G37*
G36*
G01X71323Y289501D02*
G03X70733I-295J-271D01*
G02Y291397I-1032J948D01*
G03X71323I295J271D01*
G02Y289501I1032J-948D01*
G37*
G36*
G01X243729Y264982D02*
G03X243160I-284J-282D01*
G02Y266956I-995J987D01*
G03X243729I285J282D01*
G02Y264982I995J-987D01*
G37*
G36*
G01X204122Y259032D02*
G03X203553I-285J-282D01*
G02Y261006I-995J987D01*
G03X204122I284J282D01*
G02X206112I995J-987D01*
G03X206681I285J282D01*
G02Y259032I995J-987D01*
G03X206112I-284J-282D01*
G02X204122I-995J987D01*
G37*
G36*
G01X194860D02*
G03X194291I-284J-282D01*
G02Y261006I-995J987D01*
G03X194860I284J282D01*
G02X196850I995J-987D01*
G03X197419I284J282D01*
G02Y259032I995J-987D01*
G03X196850I-284J-282D01*
G02X194860I-995J987D01*
G37*
G36*
G01X185598D02*
G03X185029I-284J-282D01*
G02Y261006I-995J987D01*
G03X185598I284J282D01*
G02X187588I995J-987D01*
G03X188157I284J282D01*
G02Y259032I995J-987D01*
G03X187588I-284J-282D01*
G02X185598I-995J987D01*
G37*
G36*
G01X176336D02*
G03X175767I-284J-282D01*
G02Y261006I-995J987D01*
G03X176336I284J282D01*
G02X178326I995J-987D01*
G03X178895I284J282D01*
G02Y259032I995J-987D01*
G03X178326I-284J-282D01*
G02X176336I-995J987D01*
G37*
G36*
G01X167074D02*
G03X166505I-284J-282D01*
G02Y261006I-995J987D01*
G03X167074I285J282D01*
G02X169064I995J-987D01*
G03X169633I284J282D01*
G02Y259032I995J-987D01*
G03X169064I-284J-282D01*
G02X167074I-995J987D01*
G37*
G36*
G01X157812D02*
G03X157243I-284J-282D01*
G02Y261006I-995J987D01*
G03X157812I285J282D01*
G02X159802I995J-987D01*
G03X160371I284J282D01*
G02Y259032I995J-987D01*
G03X159802I-284J-282D01*
G02X157812I-995J987D01*
G37*
G36*
G01X148550D02*
G03X147981I-284J-282D01*
G02Y261006I-995J987D01*
G03X148550I284J282D01*
G02X150540I995J-987D01*
G03X151109I284J282D01*
G02Y259032I995J-987D01*
G03X150540I-285J-282D01*
G02X148550I-995J987D01*
G37*
G36*
G01X139288D02*
G03X138719I-284J-282D01*
G02Y261006I-995J987D01*
G03X139288I284J282D01*
G02X141278I995J-987D01*
G03X141847I285J282D01*
G02Y259032I995J-987D01*
G03X141278I-284J-282D01*
G02X139288I-995J987D01*
G37*
G36*
G01X260444Y250400D02*
G03X259934I-255J-308D01*
G02Y252558I-895J1079D01*
G03X260444I255J308D01*
G02Y250400I895J-1079D01*
G37*
G36*
G01X250971Y239746D02*
G03X250447I-262J-302D01*
G02Y241864I-919J1059D01*
G03X250971I262J302D01*
G02Y239746I919J-1059D01*
G37*
G36*
G01X92417Y208011D02*
G03X91869I-274J-291D01*
G02Y210055I-960J1022D01*
G03X92417I274J291D01*
G02Y208011I960J-1022D01*
G37*
G36*
G01X292309Y205498D02*
G03X291785I-262J-302D01*
G02Y207616I-919J1059D01*
G03X292309I262J302D01*
G02Y205498I919J-1059D01*
G37*
G36*
G01X103229Y201721D02*
G03X102895Y201284I64J-395D01*
G02X101277Y202520I-1394J-148D01*
G03X101611Y202957I-64J395D01*
G02X103229Y201721I1394J148D01*
G37*
G36*
G01X211603Y175486D02*
G03X211379Y175262I-26J-198D01*
G02X208587Y175074I-1390J-185D01*
G03X208187Y175474I-400J0D01*
G02X209591Y176878I2J1402D01*
G03X209991Y176478I400J0D01*
G02X210175Y176466I1J-1402D01*
G03X210399Y176690I26J198D01*
G02X213191Y176878I1390J185D01*
G03X213591Y176478I400J0D01*
G02X212187Y175074I-2J-1402D01*
G03X211787Y175474I-400J0D01*
G02X211603Y175486I-1J1402D01*
G37*
G36*
G01X208547Y155742D02*
G03X208769Y155520I198J-24D01*
G02X207535Y154113I168J-1392D01*
G03X207140Y154508I-400J-5D01*
G02X207154Y157312I15J1402D01*
G03X207553Y157716I-1J400D01*
G02X207563Y157898I1402J14D01*
G03X207339Y158120I-198J24D01*
G02X207154Y160912I-184J1390D01*
G03X207553Y161316I-1J400D01*
G02X207563Y161498I1402J14D01*
G03X207339Y161720I-198J24D01*
G02X207154Y164512I-184J1390D01*
G03X207553Y164916I-1J400D01*
G02X208956Y163526I1402J12D01*
G03X208557Y163122I1J-400D01*
G02X208547Y162940I-1402J-14D01*
G03X208771Y162718I198J-24D01*
G02X208956Y159926I184J-1390D01*
G03X208557Y159522I1J-400D01*
G02X208547Y159340I-1402J-14D01*
G03X208771Y159118I198J-24D01*
G02X208956Y156326I184J-1390D01*
G03X208557Y155922I1J-400D01*
G02X208547Y155742I-1402J-12D01*
G37*
G36*
G01X174524Y153923D02*
G03X174551Y153365I300J-265D01*
G02X172547Y153269I-955J-1026D01*
G03X172520Y153827I-300J265D01*
G02X174524Y153923I955J1026D01*
G37*
G36*
G01X234563Y107774D02*
G03X234963Y107374I400J0D01*
G02X233559Y105970I-2J-1402D01*
G03X233159Y106370I-400J0D01*
G02X234563Y107774I2J1402D01*
G37*
G36*
G01X194235Y54183D02*
G03X193848Y53740I10J-400D01*
G02X192417Y54988I-1394J-154D01*
G03X192804Y55431I-10J400D01*
G02X194235Y54183I1394J154D01*
G37*
G36*
G01X191863Y40790D02*
G03Y40221I282J-284D01*
G02X189889I-987J-995D01*
G03Y40790I-282J284D01*
G02X191863I987J995D01*
G37*
G36*
G01X156119Y37313D02*
G03X156520Y36876I398J-37D01*
G02X155134Y35604I10J-1402D01*
G03X154733Y36041I-398J37D01*
G02X156119Y37313I-10J1402D01*
G37*
G36*
G01X191863Y30672D02*
G03Y30103I282J-285D01*
G02X189889I-987J-995D01*
G03Y30672I-282J285D01*
G02X191863I987J995D01*
G37*
G36*
G01X69448Y299197D02*
G02X68234Y300305I-1373J-285D01*
G03X68671Y300784I46J397D01*
G02X71417I1373J285D01*
G03X71854Y300305I391J-82D01*
G02X72171I159J-1393D01*
G03X72608Y300784I46J397D01*
G02X73822Y299676I1373J285D01*
G03X73385Y299197I-46J-397D01*
G02X70639I-1373J-285D01*
G03X70202Y299676I-391J82D01*
G02X69885I-159J1393D01*
G03X69448Y299197I-46J-397D01*
G37*
G36*
G01X295607Y252585D02*
G02X294825Y253617I-1382J-235D01*
G03X295390Y254046I171J362D01*
G02X296172Y253014I1382J235D01*
G03X295607Y252585I-171J-362D01*
G37*
G36*
G01X289808Y240576D02*
G02X289022Y239079I597J-1268D01*
G03X288457Y239375I-394J-66D01*
G02X286686Y239877I-597J1269D01*
G03X286043Y239913I-335J-219D01*
G02X286135Y241572I-1082J892D01*
G03X286778Y241536I335J219D01*
G02X289243Y240872I1082J-892D01*
G03X289808Y240576I394J66D01*
G37*
G36*
G01X211568Y187524D02*
G02X210439Y186904I35J-1402D01*
G03X210097Y187527I-332J223D01*
G02X211226Y188147I-35J1402D01*
G03X211568Y187524I332J-223D01*
G37*
G36*
G01X100591Y181823D02*
G02X98982Y182341I-1147J-806D01*
G03X99178Y182948I-132J378D01*
G02X99433Y184836I1147J806D01*
G03X99472Y185417I-254J309D01*
G02X100223Y187747I1026J955D01*
G03X100446Y188402I-79J392D01*
G02X101776Y187950I1055J923D01*
G03X101553Y187295I79J-392D01*
G02X101390Y185290I-1055J-923D01*
G03X101351Y184709I254J-309D01*
G02X100787Y182430I-1026J-955D01*
G03X100591Y181823I132J-378D01*
G37*
G36*
G01X340435Y162927D02*
G02X338948Y163704I-1264J-607D01*
G03X339245Y164272I-64J395D01*
G02X340732Y163495I1264J607D01*
G03X340435Y162927I64J-395D01*
G37*
G36*
G01X268390Y154137D02*
G02X267553Y153111I539J-1294D01*
G03X267006Y153557I-393J77D01*
G02X267843Y154583I-539J1294D01*
G03X268390Y154137I393J-77D01*
G37*
G36*
G01X252565Y141011D02*
G02X251161Y142415I-1402J2D01*
G03X251561Y142815I0J400D01*
G02X251573Y142999I1402J1D01*
G03X251349Y143223I-198J26D01*
G02X251474Y145980I-186J1390D01*
G03X251944Y146491I89J390D01*
G02X252970Y145546I1337J422D01*
G03X252500Y145035I-89J-390D01*
G02X252565Y144615I-1337J-422D01*
G03X252965Y144215I400J0D01*
G02Y141411I-2J-1402D01*
G03X252565Y141011I0J-400D01*
G37*
G36*
G01X18703Y62113D02*
G02X16363I-1170J-2397D01*
G03Y62831I-176J359D01*
G02X18703I1170J2397D01*
G03Y62113I176J-359D01*
G37*
G36*
G01X171901Y52106D02*
G02X170758Y53284I-1387J-203D01*
G03X171223Y53736I69J394D01*
G02X172366Y52558I1387J203D01*
G03X171901Y52106I-69J-394D01*
G37*
G54D42*
X61028Y325115D03*
X51028D03*
X61028Y315115D03*
X75165Y128593D03*
Y138435D03*
X120161Y199437D03*
Y169437D03*
X91028Y325115D03*
X81028D03*
X71028D03*
X91028Y315115D03*
X81028D03*
X71028D03*
X150161Y199437D03*
Y169437D03*
X291920Y122769D03*
X259826Y299275D03*
X286598D03*
X262544Y258626D03*
X268094Y309118D03*
X278330D03*
X259826D03*
X286598D03*
X301920Y122769D03*
X311920D03*
X321920D03*
X331920D03*
G54D39*
X45667Y97998D03*
X18108D03*
X45667Y139739D03*
X18108D03*
G54D38*
X62167Y68670D03*
X32384Y57992D03*
Y66738D03*
X22658Y125369D03*
X18108Y131297D03*
X38953Y89556D03*
X29525Y119441D03*
X17714Y148181D03*
X22658Y83628D03*
X18108Y77700D03*
Y89556D03*
X17714Y118296D03*
Y106440D03*
X22264Y112368D03*
X57486Y105575D03*
X54328Y106440D03*
X60902Y117007D03*
X58079Y214447D03*
X50773Y211078D03*
X22264Y154109D03*
X13164D03*
X17714Y160037D03*
X38884Y235168D03*
X19104Y258827D03*
Y254890D03*
X15167D03*
X11230D03*
X7293D03*
Y250953D03*
X11230D03*
X15167D03*
X19104D03*
X7293Y258827D03*
X11230D03*
X15167D03*
X54312Y279348D03*
X56094Y288588D03*
Y292526D03*
X26065Y252011D03*
Y255948D03*
X32122Y284650D03*
Y296464D03*
X60654Y276944D03*
X42290Y243222D03*
X58042Y235186D03*
X42290D03*
X46228D03*
X110819Y35248D03*
X117060Y52864D03*
X122232Y31926D03*
X73233Y54483D03*
X95211Y62846D03*
X99111Y66490D03*
X127944Y63788D03*
X140609Y63692D03*
X136671D03*
X132733D03*
X107920Y57447D03*
X113280D03*
X107920Y41089D03*
X113280D03*
X79252Y113428D03*
Y93103D03*
X139623Y116372D03*
X87588Y140915D03*
X126974Y111826D03*
X118478Y115926D03*
X71365Y120796D03*
X71216Y117517D03*
X83680Y125211D03*
X122109Y101767D03*
X123263Y109507D03*
X118478Y108552D03*
X119419Y135298D03*
X107147Y139525D03*
X119116Y120298D03*
X87070Y127391D03*
X91008D03*
X134147Y84662D03*
X140609Y71728D03*
X122489Y74662D03*
Y79662D03*
X103981Y92009D03*
X68013Y112703D03*
X80413Y107673D03*
X96559Y82049D03*
X80807D03*
X76848Y82823D03*
X88683Y82049D03*
X108373D03*
X104435D03*
X116558Y94684D03*
Y98622D03*
X88889Y109711D03*
X93889D03*
X98889D03*
Y104711D03*
X93889D03*
X88889D03*
Y99711D03*
X93889D03*
X98889D03*
X100497Y82049D03*
X112311D03*
X116249D03*
X71216Y85227D03*
Y89165D03*
Y93103D03*
Y97041D03*
X101433Y125229D03*
X103837Y131571D03*
X107065Y118887D03*
X94946Y127391D03*
X127944Y70526D03*
X75138Y195231D03*
X75925Y182365D03*
X126364Y150626D03*
X119419Y156929D03*
X96540Y208442D03*
X104505Y191294D03*
Y195231D03*
Y199168D03*
X127874Y219195D03*
X130236Y221997D03*
X132598Y205719D03*
X134961Y208521D03*
X137323Y205719D03*
X142047D03*
X120787Y219195D03*
X93340Y215942D03*
X96608Y220942D03*
X80470Y225942D03*
X85003Y209033D03*
X64237Y220348D03*
X96608Y225942D03*
X113436Y188162D03*
X92151Y172029D03*
X102772Y178458D03*
X101501Y193262D03*
Y197199D03*
X65385Y211078D03*
X65481Y192273D03*
X79863Y173740D03*
X83728Y160259D03*
X75988Y157721D03*
X69296D03*
X99785Y261887D03*
Y266887D03*
X94785D03*
Y261887D03*
X89295Y272429D03*
X128462Y260019D03*
X119200D03*
X115935Y227511D03*
X112520Y251479D03*
X114882Y254281D03*
X140866Y238003D03*
X133780D03*
X136142Y240805D03*
X129055Y238003D03*
X131417Y240805D03*
X65643Y286790D03*
X119200Y252381D03*
X128462D03*
X137724D03*
X133580D03*
X124318D03*
X131021Y265969D03*
X121759D03*
X107586Y294771D03*
X80470Y230942D03*
X65985Y293034D03*
X76071D03*
X82240Y289194D03*
X64237Y227714D03*
X96608Y230942D03*
X183293Y35344D03*
X182163Y60598D03*
X177964Y8183D03*
X217158Y12102D03*
X212158D03*
X152418Y62858D03*
X168267Y34167D03*
X172202Y41785D03*
X183238Y26549D03*
X170041Y24712D03*
X172202Y31667D03*
X170514Y36667D03*
X184857Y39842D03*
X183238Y31667D03*
X207158Y43598D03*
X203742Y46611D03*
X196656D03*
X164888Y60256D03*
X180644Y20779D03*
X175284D03*
X152418Y29394D03*
X157550Y26535D03*
X152409Y21036D03*
X156347D03*
X183414Y45989D03*
X194198Y58867D03*
X170690Y45989D03*
X183238Y51903D03*
X148179Y50384D03*
Y53666D03*
X210213Y109272D03*
X213813D03*
X217413D03*
X203239Y109176D03*
X199639D03*
X196039D03*
X192439D03*
X184323Y105974D03*
X185528Y120090D03*
X188908Y122115D03*
X219438Y104967D03*
X215613Y104972D03*
X212013D03*
X205265Y104871D03*
X201439Y104876D03*
X197839D03*
X194239D03*
X187942Y104489D03*
X186029Y123915D03*
X186033Y127515D03*
Y131115D03*
Y134715D03*
X186028Y138987D03*
X186033Y142813D03*
Y146413D03*
X188833Y141013D03*
Y144613D03*
Y148213D03*
Y132915D03*
Y129315D03*
Y125715D03*
X171071Y144573D03*
Y139960D03*
Y131214D03*
Y111916D03*
Y120662D03*
X214305Y91079D03*
X196771D03*
X219558D03*
X188025D03*
X205559D03*
X157211Y119366D03*
Y110620D03*
X150573Y113358D03*
X152246Y127302D03*
X150285Y74662D03*
X183133Y80123D03*
X150285Y84662D03*
X188054Y174378D03*
X216003Y188929D03*
X220611Y196153D03*
X162913Y196324D03*
X197165Y196532D03*
X187123Y186422D03*
X186033Y150013D03*
X178567Y224385D03*
X156434Y208150D03*
X205256Y175557D03*
X144409Y208521D03*
X146772Y205719D03*
X158583D03*
X175118D03*
X165669D03*
X172756Y208521D03*
X170394Y205719D03*
X168031Y208521D03*
X163307D03*
X220000Y221997D03*
X217638Y219195D03*
X215276Y221997D03*
X208189D03*
X210551Y219195D03*
X216673Y196153D03*
X212735D03*
X208797D03*
X204859D03*
X220611Y204189D03*
X216673D03*
X212735D03*
X208797D03*
X204859D03*
X186876Y196606D03*
X176676Y186348D03*
X182976Y200250D03*
X173475Y159332D03*
X163394Y167886D03*
Y175686D03*
X214094Y240805D03*
X218819D03*
X216457Y238003D03*
X178661Y240805D03*
X169213D03*
X157402Y238003D03*
X164488Y240805D03*
X162126Y238003D03*
X166850D03*
X173937Y240805D03*
X171575Y238003D03*
X176299D03*
X143228Y240805D03*
X210131Y266902D03*
X146986Y252381D03*
X152104D03*
X156248D03*
X211820Y260019D03*
X216938D03*
X221082D03*
Y252381D03*
X216938D03*
X211820D03*
X207676D03*
X202558D03*
X198414D03*
X193296D03*
X151061Y266902D03*
X154999D03*
X158937D03*
X198317D03*
X194379D03*
X190441D03*
X186503D03*
X182565D03*
X170751D03*
X166813D03*
X162875D03*
X170628Y252381D03*
X165510D03*
X161366D03*
X142842D03*
X214379Y265969D03*
X186512Y311810D03*
X251873Y12385D03*
X247936D03*
X243999D03*
X255810Y4511D03*
X251873D03*
X247936D03*
X243999D03*
Y8448D03*
X247936D03*
X251873D03*
X255810D03*
Y12385D03*
X252146Y33956D03*
X247438Y26038D03*
X250720D03*
X248209Y33956D03*
X224326Y32339D03*
X227608D03*
X227854Y56602D03*
X230258Y62944D03*
X295891Y60855D03*
X290891D03*
X272016Y52144D03*
Y56082D03*
X278616Y129031D03*
X276606Y111985D03*
Y104185D03*
X253963Y139213D03*
X253265Y125490D03*
X253260Y132690D03*
Y129090D03*
X253265Y121665D03*
X249359Y104967D03*
X245534Y104972D03*
X241934D03*
X231361D03*
X227761D03*
X224161D03*
X243504Y125280D03*
Y128617D03*
Y121790D03*
Y118367D03*
X243623Y131909D03*
X290891Y98587D03*
X279690Y100898D03*
X250460Y134490D03*
Y130890D03*
Y127290D03*
Y123690D03*
X247334Y107772D03*
X243734D03*
X240134D03*
X229561D03*
X225961D03*
X266092Y108085D03*
X266348Y122261D03*
X276606Y126161D03*
X280250Y122261D03*
Y108085D03*
X268929Y144097D03*
Y131512D03*
Y140258D03*
X258034Y91079D03*
X244314D03*
X228304D03*
X249288D03*
X235568D03*
X266525Y113204D03*
X276606Y118361D03*
X269992Y104185D03*
X243577Y198217D03*
X236752Y188929D03*
X251163Y157775D03*
X256895Y155728D03*
X251587Y188929D03*
X283780Y208521D03*
X286142Y205719D03*
X279055Y208521D03*
X281417Y205719D03*
X276693D03*
X227087Y219195D03*
X231811D03*
X229449Y221997D03*
X224724D03*
X222362Y219195D03*
X242841Y188929D03*
X228006D03*
X224749D03*
X268929Y163655D03*
X294764Y197710D03*
Y224214D03*
X286444Y200798D03*
Y227302D03*
X256614Y237791D03*
X232407Y272429D03*
X293974Y262912D03*
X223543Y240805D03*
X221181Y238003D03*
X294409Y233298D03*
X282598Y238003D03*
X277874D03*
X280236Y240805D03*
X273150Y238003D03*
X268425D03*
X263701D03*
X275512Y240805D03*
X266063D03*
X235354Y238003D03*
X247165D03*
X242441Y240805D03*
X240079Y238003D03*
X237717Y240805D03*
X225906Y238003D03*
X228268Y240805D03*
X230630Y238003D03*
X262363Y283114D03*
X230344Y260019D03*
X235462D03*
X239606D03*
Y252381D03*
X235462D03*
X230344D03*
X226200Y260019D03*
Y252381D03*
X232903Y265969D03*
X223641D03*
X260519Y275574D03*
X290133Y275217D03*
X286905Y283963D03*
X275749Y280555D03*
X270675Y277995D03*
X361386Y68386D03*
X357449D03*
X353512D03*
X349575D03*
Y64449D03*
X353512D03*
X357449D03*
X361386D03*
X345180Y60784D03*
X340180D03*
X335180D03*
X330180D03*
X325180D03*
X305891Y60855D03*
X300891D03*
X366811Y135412D03*
X301475Y97661D03*
X349575Y72323D03*
X353512D03*
X357449D03*
X361386D03*
X371853Y109533D03*
X367916D03*
X363979D03*
X360042D03*
Y113470D03*
X363979D03*
X367916D03*
X371853D03*
Y117407D03*
X367916D03*
X363979D03*
X360042D03*
Y94407D03*
X363979D03*
X367916D03*
X371853D03*
Y90470D03*
X367916D03*
X363979D03*
X360042D03*
Y86533D03*
X363979D03*
X367916D03*
X371853D03*
X345180Y98516D03*
X340180D03*
X335180D03*
X330180D03*
X360197Y135412D03*
X374733Y161370D03*
X328661Y224902D03*
X322963Y159605D03*
X338152Y221138D03*
X319213Y221135D03*
X333180Y222938D03*
X333386Y219195D03*
X328838Y159760D03*
X325873Y154642D03*
X360378D03*
X363343Y152083D03*
X360378Y159760D03*
Y164879D03*
X363343Y162320D03*
X328838Y152083D03*
X327528Y165033D03*
X328838Y172556D03*
X312126Y225975D03*
X315050Y197710D03*
X364197D03*
X343911D03*
X340399Y227302D03*
X331554D03*
X315050Y224214D03*
X343911D03*
X364197D03*
X331554Y200798D03*
X340399D03*
X363025Y172401D03*
X356569Y259862D03*
Y263787D03*
X334784Y238174D03*
X338915Y238173D03*
X369379Y296396D03*
X300028Y228276D03*
X345706Y260733D03*
X341234Y259525D03*
X337084Y258497D03*
X332205Y252312D03*
X370370Y278679D03*
X367405Y282223D03*
Y289309D03*
Y303482D03*
X350239Y244566D03*
X362180Y277544D03*
X315669Y233618D03*
X313307Y260403D03*
X310945Y252015D03*
X306220Y254281D03*
X301496Y240805D03*
X350138Y251649D03*
X350053Y256965D03*
X370370Y285766D03*
Y292852D03*
Y299939D03*
Y314112D03*
X374723Y316693D03*
X371816Y319569D03*
X427068Y51762D03*
X422068D03*
Y56762D03*
X427068D03*
Y61762D03*
X422068D03*
Y66762D03*
X427068D03*
Y71762D03*
X422068D03*
Y76762D03*
X427068D03*
Y81762D03*
X422068D03*
Y86762D03*
X427068D03*
Y91762D03*
X422068D03*
Y96762D03*
X427068D03*
Y101762D03*
X422068D03*
Y106762D03*
X427068D03*
Y111762D03*
X422068D03*
Y116762D03*
X427068D03*
Y121762D03*
X422068D03*
X385493Y139716D03*
Y144047D03*
Y148378D03*
Y161370D03*
X380701Y227302D03*
Y200798D03*
X385493Y165701D03*
Y170031D03*
Y174362D03*
X388737Y221727D03*
X434031Y248396D03*
Y256396D03*
Y264396D03*
Y272396D03*
Y280396D03*
Y288396D03*
X387668Y268563D03*
X384951Y274975D03*
X410432Y281646D03*
X425013Y294597D03*
X410432Y294442D03*
X407467Y286764D03*
X410432Y289323D03*
X407467Y291882D03*
X410432Y302119D03*
X407467Y299560D03*
X397596Y261031D03*
X394227Y265778D03*
X400965D03*
X399269Y284205D03*
Y289323D03*
Y294442D03*
Y299560D03*
X396304Y281646D03*
Y286764D03*
Y291882D03*
Y297001D03*
Y302119D03*
X407596Y251583D03*
Y261077D03*
X410965Y256330D03*
X404227D03*
X387500Y307351D03*
X392267Y316352D03*
G54D48*
X378061Y22056D03*
X385935D03*
X393809D03*
G54D34*
X40756Y187455D03*
Y207141D03*
G54D41*
X25795Y243547D03*
Y266381D03*
X279883Y25362D03*
X260610Y25351D03*
X237776D03*
X302717Y25362D03*
G54D45*
X195528Y302395D03*
X186512D03*
X177496D03*
X168480D03*
X159465D03*
X191020Y294600D03*
X182004D03*
X172988D03*
X163972D03*
X154957D03*
X195528Y286805D03*
X186512D03*
X177496D03*
X168480D03*
X159465D03*
X351496Y230000D03*
G54D37*
X424408Y146449D03*
Y177945D03*
G54D32*
X53981Y15568D03*
X85477D03*
G54D47*
X357389Y25504D03*
Y44008D03*
X327464Y25504D03*
Y44008D03*
G54D46*
X273212Y325953D03*
X300181Y322023D03*
X246243D03*
G54D44*
X88504Y230000D03*
G54D36*
X313869Y294799D03*
G54D40*
X65165Y128593D03*
Y138435D03*
X51028Y315115D03*
X252544Y258626D03*
X341920Y122769D03*
G54D43*
X128287Y294600D03*
X226713D03*
G54D33*
X15000Y15000D03*
Y323400D03*
X425000Y15000D03*
Y323400D03*
G54D35*
X135161Y184437D03*
G54D31*
X232185Y27438D03*
X266201D03*
G54D30*
X308308Y27449D03*
X274292D03*
%LPD*%
G75*
G54D10*
X15000Y15000D03*
Y323400D03*
X425000Y15000D03*
Y323400D03*
G54D20*
X85477Y15568D03*
X53981D03*
X195528Y302395D03*
X186512D03*
X177496D03*
X168480D03*
X159465D03*
X191020Y294600D03*
X182004D03*
X172988D03*
X163972D03*
X154957D03*
X195528Y286805D03*
X186512D03*
X177496D03*
X168480D03*
X159465D03*
X351496Y230000D03*
X424408Y146449D03*
Y177945D03*
G54D11*
X7148Y28589D03*
X36830Y38996D03*
X19153Y40272D03*
X42918Y11570D03*
Y22244D03*
X39156Y16907D03*
X46680D03*
X42918Y50940D03*
X39549Y55096D03*
X32384Y57992D03*
X6047Y63787D03*
X9516Y100601D03*
X6625Y131632D03*
X31489Y139727D03*
X42918Y59252D03*
X38953Y89556D03*
X29525Y119441D03*
X17714Y118296D03*
Y106440D03*
X22264Y112368D03*
X22658Y83628D03*
X18108Y77700D03*
Y89556D03*
X22658Y125369D03*
X18108Y131297D03*
X32384Y66738D03*
X50773Y211078D03*
X7589Y181167D03*
X13756Y209115D03*
X34238Y167770D03*
X47449Y175076D03*
X50773Y183518D03*
X47449Y219520D03*
X34238Y226826D03*
X22264Y154109D03*
X13164D03*
X17714Y148181D03*
Y160037D03*
X38884Y235168D03*
X46228Y235186D03*
X42290D03*
X47620Y305969D03*
X31440Y306996D03*
X42227Y313545D03*
X7170Y291458D03*
X32724Y318809D03*
X39273Y301872D03*
X34400Y242366D03*
X50166Y235186D03*
X38845Y263113D03*
X50940Y262266D03*
Y257266D03*
Y252266D03*
X43203Y259236D03*
X12830Y283135D03*
X9934Y278743D03*
X17830Y283135D03*
X20726Y278743D03*
X34400Y267562D03*
X40379Y245576D03*
X19104Y258827D03*
X15167D03*
X11230D03*
X7293D03*
X19104Y250953D03*
X15167D03*
X11230D03*
X7293D03*
Y254890D03*
X11230D03*
X15167D03*
X19104D03*
X32122Y296464D03*
Y284650D03*
X42290Y243222D03*
X26065Y252011D03*
Y255948D03*
X46978Y331394D03*
X33523Y330016D03*
X73233Y54483D03*
X76920Y24219D03*
X76590Y8855D03*
X55003Y28130D03*
X133043Y5754D03*
X137980Y21715D03*
X114196Y35864D03*
Y31926D03*
Y27988D03*
X130590Y33506D03*
X118792Y20779D03*
X124152D03*
Y4421D03*
X118792D03*
X134702Y55334D03*
X107782Y16907D03*
X100258D03*
X104020Y22244D03*
Y11570D03*
X100713Y50940D03*
X104082Y55096D03*
X97344D03*
X60240Y54483D03*
X134030Y18632D03*
X133043Y13522D03*
X107920Y41089D03*
X113280D03*
X107920Y57447D03*
X113280D03*
X122232Y31926D03*
X110819Y35248D03*
X117060Y52864D03*
X94946Y127391D03*
X136671Y71728D03*
X132733D03*
X116558Y113334D03*
X103837Y118887D03*
X107532Y96822D03*
X131004Y135298D03*
Y130298D03*
Y125298D03*
Y120298D03*
X119116Y125298D03*
X103919Y139525D03*
X110985Y67157D03*
X114354Y63788D03*
Y70526D03*
X100713Y59252D03*
X86154Y63023D03*
X90092D03*
X60240Y62401D03*
X119116Y120298D03*
X107147Y139525D03*
X107065Y118887D03*
X103837Y131571D03*
X101433Y125229D03*
X71216Y89165D03*
X116249Y82049D03*
X122489Y79662D03*
Y74662D03*
X132733Y63692D03*
X136671D03*
X127944Y70526D03*
Y63788D03*
X99111Y66490D03*
X95211Y62846D03*
X62167Y68670D03*
X57486Y105575D03*
X126974Y111826D03*
X122109Y101767D03*
X118478Y108552D03*
X88683Y82049D03*
X71216Y97041D03*
Y93103D03*
Y85227D03*
X112311Y82049D03*
X100497D03*
X98889Y99711D03*
X93889D03*
X88889D03*
Y104711D03*
X93889D03*
X98889D03*
Y109711D03*
X93889D03*
X88889D03*
X116558Y98622D03*
Y94684D03*
X80807Y82049D03*
X68013Y112703D03*
X91008Y127391D03*
X87070D03*
X71216Y117517D03*
X118478Y115926D03*
X60902Y117007D03*
X104435Y82049D03*
X87588Y140915D03*
X123263Y109507D03*
X134147Y84662D03*
X119419Y135298D03*
X83680Y125211D03*
X71365Y120796D03*
X108373Y82049D03*
X79252Y93103D03*
Y113428D03*
X80413Y107673D03*
X96559Y82049D03*
X76848Y82823D03*
X54328Y106440D03*
X103981Y92009D03*
X65481Y192273D03*
X65385Y211078D03*
X58079Y214447D03*
X87969Y191191D03*
X128543Y170066D03*
X121223Y185475D03*
X63494Y171861D03*
Y165752D03*
Y160271D03*
Y155762D03*
X68919Y152734D03*
X75428D03*
X81309D03*
X86917Y154060D03*
X88045Y160214D03*
X82969Y196191D03*
X87969D03*
X92969D03*
Y201191D03*
X87969D03*
X82969D03*
X101890Y208521D03*
X106614Y205719D03*
X111339D03*
X108976Y208521D03*
X118425D03*
X130912Y156929D03*
X83728Y163487D03*
X65645Y176144D03*
X79750Y170539D03*
X67885Y202553D03*
X65481Y196211D03*
Y188335D03*
X83801Y172082D03*
X87739Y172032D03*
X105494Y179959D03*
X114544Y202972D03*
X105588Y201980D03*
X64237Y217120D03*
X74641Y213302D03*
X60660Y167770D03*
X58079Y186887D03*
Y180149D03*
X65385Y183518D03*
X60660Y226826D03*
X96040Y171861D03*
X113436Y188162D03*
X69296Y157721D03*
X75988D03*
X83728Y160259D03*
X79863Y173740D03*
X96608Y230942D03*
X64237Y227714D03*
X96608Y225942D03*
X64237Y220348D03*
X75138Y195231D03*
X126364Y150626D03*
X101501Y201136D03*
X102772Y178458D03*
X130236Y221997D03*
X100325Y183754D03*
X137323Y205719D03*
X104505Y191294D03*
X101501Y189325D03*
X134961Y208521D03*
X101501Y193262D03*
X104505Y195231D03*
X132598Y205719D03*
X101501Y197199D03*
X104505Y199168D03*
X96540Y208442D03*
X93377Y209033D03*
X120787Y219195D03*
X115935Y227511D03*
X80470Y230942D03*
Y225942D03*
X96608Y220942D03*
X93340Y215942D03*
X119419Y156929D03*
X127874Y219195D03*
X75925Y182365D03*
X103005Y203105D03*
X90909Y209033D03*
X85003D03*
X100498Y186372D03*
X99444Y181017D03*
X92151Y172029D03*
X94785Y261887D03*
Y266887D03*
X99785D03*
Y261887D03*
X88904Y305787D03*
X102772Y311566D03*
X133913Y308536D03*
X114009Y307124D03*
X91152Y298520D03*
X55453Y301859D03*
X98514Y288333D03*
X101853Y302202D03*
X126679Y317098D03*
X100709Y254281D03*
X105433D03*
X107795Y251479D03*
X110157Y254281D03*
X138504Y240805D03*
X117244D03*
X73564Y256974D03*
X70884Y260736D03*
X87208Y253076D03*
Y260600D03*
X89888Y256838D03*
X84528D03*
X87208Y236718D03*
X70884Y236854D03*
Y244378D03*
X73564Y240616D03*
X68204D03*
X82245Y278277D03*
Y283637D03*
X78483Y280957D03*
X86007D03*
X112530Y268871D03*
Y262133D03*
X107783Y265502D03*
X131021Y252381D03*
X121759D03*
X54104Y235186D03*
X65887Y278277D03*
Y283637D03*
X69649Y280957D03*
X55940Y262266D03*
X60940D03*
Y257266D03*
X55940D03*
Y252266D03*
X60940D03*
X121759Y265969D03*
X131021D03*
X82240Y289194D03*
X76071Y293034D03*
X65985D03*
X69701Y290449D03*
X72355D03*
X107586Y294771D03*
X60654Y276944D03*
X58042Y235186D03*
X56094Y288588D03*
X112520Y251479D03*
X56094Y292526D03*
X129055Y238003D03*
X131417Y240805D03*
X136142D03*
X133780Y238003D03*
X65643Y286790D03*
X124318Y252381D03*
X133580D03*
X114882Y254281D03*
X54312Y279348D03*
X89295Y272429D03*
X73981Y301069D03*
X70044D03*
X68075Y298912D03*
X119200Y260019D03*
X128462D03*
X137724D03*
X72012Y298912D03*
X119200Y252381D03*
X128462D03*
X137724D03*
X92050Y331651D03*
X101039Y325744D03*
X117604Y324331D03*
X73523Y330016D03*
X113523D03*
X133523D03*
X170041Y24712D03*
X141520Y2919D03*
X146202D03*
X152409Y8935D03*
X156347Y13000D03*
X152409D03*
X146513Y29394D03*
X157310Y4911D03*
X172924Y56318D03*
X154974Y49594D03*
X170514Y39226D03*
X183238Y29108D03*
X170514D03*
X199884Y46611D03*
X202158Y43598D03*
X184684Y37269D03*
X183238Y49344D03*
X167499Y44066D03*
X149152Y18632D03*
X150085Y6611D03*
X156347Y21036D03*
X152409D03*
X190876Y29108D03*
X196656Y46611D03*
X203742D03*
X207158Y43598D03*
X190876Y39226D03*
X168267Y34167D03*
X172610Y53939D03*
X192454Y53586D03*
X212158Y12102D03*
X217158D03*
X177964Y8183D03*
X180644Y20779D03*
X175284D03*
X183293Y35344D03*
X170514Y36667D03*
X183238Y26549D03*
X183414Y45989D03*
X170690D03*
X194198Y55585D03*
X170514Y51903D03*
X148179Y53666D03*
X183238Y51903D03*
X148179Y50384D03*
X157550Y26535D03*
X152418Y29394D03*
X183238Y31667D03*
X156530Y35474D03*
X184857Y39842D03*
X154723Y37443D03*
X224326Y32339D03*
X190876Y31667D03*
Y41785D03*
X172202D03*
Y31667D03*
X199118Y66622D03*
X222676Y69305D03*
X213631Y77471D03*
X165439Y114320D03*
Y118258D03*
Y133618D03*
Y137556D03*
X214305Y87851D03*
X196771D03*
X219558D03*
X188025D03*
X222369Y102278D03*
X207921Y102056D03*
X189691Y102030D03*
X182030Y118340D03*
Y137238D03*
X150285Y89662D03*
X147528Y98981D03*
X156362D03*
X155342Y121626D03*
X160439Y119366D03*
X172924Y60256D03*
X192163Y79540D03*
X195532Y74793D03*
X188794D03*
X192163Y70046D03*
X205559Y87851D03*
X152246Y127302D03*
X150573Y113358D03*
X157211Y110620D03*
X164888Y60256D03*
X183133Y80123D03*
X150285Y84662D03*
X140609Y63692D03*
X157211Y119366D03*
X219558Y91079D03*
X205559D03*
X188025D03*
X171071Y120662D03*
Y139960D03*
X214305Y91079D03*
X196771D03*
X171071Y111916D03*
Y131214D03*
Y144573D03*
X194198Y58867D03*
X139623Y116372D03*
X152418Y62858D03*
X150285Y74662D03*
X140609Y71728D03*
X185528Y120090D03*
X188908Y122115D03*
X186029Y123915D03*
X188833Y125715D03*
X186033Y127515D03*
X188833Y129315D03*
X186033Y131115D03*
Y142813D03*
X186028Y138987D03*
X188833Y132915D03*
X184323Y105974D03*
X187942Y104489D03*
X194239Y104876D03*
X197839D03*
X201439D03*
X188833Y144613D03*
Y141013D03*
X186033Y134715D03*
X192439Y109176D03*
X196039D03*
X199639D03*
X203239D03*
X205265Y104871D03*
X182163Y60598D03*
X210213Y109272D03*
X212013Y104972D03*
X213813Y109272D03*
X215613Y104972D03*
X217413Y109272D03*
X219438Y104967D03*
X224161Y104972D03*
X225961Y107772D03*
X220611Y196153D03*
X211602Y186122D03*
X216673Y204189D03*
Y196153D03*
X213589Y175076D03*
X197165Y196532D03*
X162913Y196324D03*
X212735Y196153D03*
X211789Y176876D03*
X208797Y196153D03*
X209989Y175076D03*
X204859Y196153D03*
X208189Y176876D03*
X139714Y168396D03*
X149602Y183549D03*
X157668Y229350D03*
X152875Y220362D03*
X172720Y190456D03*
X195284Y198139D03*
X139685Y208521D03*
X212913D03*
X191654D03*
X160945Y219195D03*
X176676Y200250D03*
X165439Y146977D03*
Y150915D03*
Y154853D03*
Y158791D03*
Y162729D03*
X216003Y192157D03*
X210063D03*
X182030Y156935D03*
X203865Y177970D03*
X216063D03*
X156690Y196619D03*
X142973Y147561D03*
X165439Y166667D03*
X182030Y152986D03*
X183574Y154961D03*
X172776Y196606D03*
X205256Y175557D03*
X188054Y174378D03*
X163394Y175686D03*
Y167886D03*
X182976Y200250D03*
X186876Y196606D03*
X173596Y152339D03*
X173475Y154853D03*
Y159332D03*
X216003Y188929D03*
X210063D03*
X224749D03*
X220611Y204189D03*
X212735D03*
X208797D03*
X204859D03*
X156434Y208150D03*
X208955Y164928D03*
X207155Y163110D03*
X208955Y161328D03*
X207155Y159510D03*
X208955Y157728D03*
X144409Y208521D03*
X207155Y155910D03*
X146772Y205719D03*
X208937Y154128D03*
X142047Y205719D03*
X158583D03*
X163307Y208521D03*
X165669Y205719D03*
X168031Y208521D03*
X170394Y205719D03*
X172756Y208521D03*
X175118Y205719D03*
X208189Y221997D03*
X186033Y150013D03*
X188833Y148213D03*
X210551Y219195D03*
X215276Y221997D03*
X186033Y146413D03*
X220000Y221997D03*
X224724D03*
X176676Y186348D03*
X187123Y186422D03*
X217638Y219195D03*
X222362D03*
X178567Y224385D03*
X149450Y233492D03*
X166711Y233235D03*
X141103Y288259D03*
X142088Y301688D03*
X149964Y316841D03*
X222045Y315386D03*
X215750Y292735D03*
Y298958D03*
X214015Y306851D03*
X209384Y311482D03*
X204663Y316203D03*
X194416D03*
X184939D03*
X175574D03*
X167753D03*
X160089Y313843D03*
X155093Y308847D03*
X151528Y301985D03*
X148312Y292339D03*
X215750Y277401D03*
Y285401D03*
Y270401D03*
X146350Y277401D03*
Y285401D03*
Y270401D03*
X211732Y240805D03*
X190472D03*
X159764D03*
X206193Y266902D03*
X202255D03*
X223641Y252381D03*
X214379D03*
X205117D03*
X195855D03*
X186593D03*
X177331D03*
X168069D03*
X158807D03*
X149545D03*
X140283D03*
X223641Y265969D03*
X214379D03*
X149545Y260019D03*
X158807D03*
X168069D03*
X177331D03*
X186593D03*
X195855D03*
X205117D03*
X140283D03*
X198414Y252381D03*
X216938D03*
X170628D03*
X161366D03*
X207676Y260019D03*
X214094Y240805D03*
X207676Y252381D03*
X216938Y260019D03*
X216457Y238003D03*
X218819Y240805D03*
X221181Y238003D03*
X223543Y240805D03*
X225906Y238003D03*
X186512Y311810D03*
X143228Y240805D03*
X210131Y266902D03*
X140866Y238003D03*
X198317Y266902D03*
X152104Y252381D03*
X142842D03*
X157402Y238003D03*
X162126D03*
X142842Y260019D03*
X164488Y240805D03*
X152104Y260019D03*
X166850Y238003D03*
X161366Y260019D03*
X169213Y240805D03*
X170628Y260019D03*
X171575Y238003D03*
X179890Y260019D03*
X173937Y240805D03*
X189152Y260019D03*
X176299Y238003D03*
X198414Y260019D03*
X178661Y240805D03*
X146986Y260019D03*
X156248D03*
X165510D03*
X174772D03*
X184034D03*
X193296D03*
X202558D03*
X211820D03*
X221082D03*
X151061Y266902D03*
X154999D03*
X158937D03*
X162875D03*
X146986Y252381D03*
X166813Y266902D03*
X156248Y252381D03*
X170751Y266902D03*
X165510Y252381D03*
X193296D03*
X182565Y266902D03*
X202558Y252381D03*
X186503Y266902D03*
X211820Y252381D03*
X190441Y266902D03*
X221082Y252381D03*
X194379Y266902D03*
X211687Y323543D03*
X160729Y322534D03*
X139948Y323047D03*
X171365Y319923D03*
X196876Y323604D03*
X153523Y330016D03*
X173523D03*
X193523D03*
X213523D03*
X272016Y56082D03*
Y52144D03*
X303898Y33967D03*
X253680Y40461D03*
X266364D03*
X264040Y37888D03*
X246938Y46958D03*
X236595Y33956D03*
X261791D03*
X278702Y33967D03*
X254944Y55150D03*
X249944D03*
X244944D03*
X241044Y38401D03*
X255810Y12385D03*
Y8448D03*
X251873D03*
X247936D03*
X243999D03*
Y4511D03*
X247936D03*
X251873D03*
X255810D03*
X243999Y12385D03*
X247936D03*
X251873D03*
X227854Y56602D03*
X252146Y33956D03*
X248209D03*
X247438Y26038D03*
X227608Y32339D03*
X250720Y26038D03*
X290891Y98587D03*
X279690Y100898D03*
X240878Y77159D03*
X312706Y73931D03*
X282767Y59026D03*
X264392Y79199D03*
X291694Y132734D03*
X302659Y143356D03*
X299576Y135304D03*
X272157Y144097D03*
Y131512D03*
Y140258D03*
X258034Y87851D03*
X244314D03*
X228304D03*
X249288D03*
X235568D03*
X251109Y102030D03*
X236935D03*
X257970Y136063D03*
X274561Y117142D03*
X300891Y114119D03*
X305891D03*
X295891D03*
X290891D03*
X244944Y60150D03*
X249944D03*
X254944D03*
Y65150D03*
X249944D03*
X244944D03*
X274561Y113204D03*
X257970Y118740D03*
X276606Y126161D03*
X280250Y122261D03*
X276606Y118361D03*
Y104185D03*
X280250Y108085D03*
X276606Y111985D03*
X300891Y60855D03*
X305891D03*
X290891D03*
X295891D03*
X268929Y140258D03*
X266348Y122261D03*
X278616Y129031D03*
X249288Y91079D03*
X235568D03*
X266092Y108085D03*
X269992Y104185D03*
X266525Y113204D03*
X268929Y131512D03*
Y144097D03*
X258034Y91079D03*
X244314D03*
X228304D03*
X301475Y97661D03*
X243623Y131909D03*
X243504Y128617D03*
Y125280D03*
Y121790D03*
Y118367D03*
X251163Y144613D03*
X252963Y142813D03*
X251163Y141013D03*
X253963Y139213D03*
X250460Y134490D03*
X253260Y132690D03*
X250460Y130890D03*
X253260Y129090D03*
X250460Y127290D03*
X253265Y125490D03*
X250460Y123690D03*
X253265Y121665D03*
X249359Y104967D03*
X247334Y107772D03*
X230258Y62944D03*
X227761Y104972D03*
X229561Y107772D03*
X231361Y104972D03*
X233161Y107772D03*
X234961Y105972D03*
X240134Y107772D03*
X241934Y104972D03*
X243734Y107772D03*
X245534Y104972D03*
X286444Y227302D03*
X294764Y224214D03*
Y197710D03*
X286444Y200798D03*
X309535Y198354D03*
Y179086D03*
X234348Y194561D03*
X311474Y207114D03*
X288504Y208521D03*
X271969Y226046D03*
X255433Y208521D03*
X234173D03*
X242841Y192157D03*
X228006D03*
X251587D03*
X274561Y157313D03*
X272157Y163655D03*
Y152843D03*
X229216Y177618D03*
X257421Y163848D03*
X257970Y149161D03*
X309535Y204844D03*
X291252Y204026D03*
X241125Y186720D03*
X268929Y152843D03*
Y163655D03*
X228006Y188929D03*
X242841D03*
X243577Y198217D03*
X236752Y188929D03*
X266467Y154851D03*
X251587Y188929D03*
X253281Y146913D03*
X300028Y228276D03*
X229449Y221997D03*
X231811Y219195D03*
X251163Y157775D03*
X256895Y155728D03*
X227087Y219195D03*
X276693Y205719D03*
X279055Y208521D03*
X281417Y205719D03*
X283780Y208521D03*
X286142Y205719D03*
X290866Y206557D03*
X293228D03*
X312126Y225975D03*
X286905Y283963D03*
X275749Y280555D03*
X262528Y289181D03*
X231548Y311386D03*
X285373Y290780D03*
X297701Y286329D03*
X296245Y298142D03*
X248466Y294423D03*
X251548Y273236D03*
X242880Y283252D03*
X242495Y303914D03*
X241050Y310592D03*
X267160Y316156D03*
X300289Y307767D03*
X311946Y314598D03*
X304595Y290862D03*
X310114Y273844D03*
X304595Y298736D03*
Y302673D03*
X308532D03*
X312469D03*
X308062Y276468D03*
Y279618D03*
Y282768D03*
Y285918D03*
X251350Y252381D03*
X247179D03*
X242764Y258630D03*
X249468Y263688D03*
X253826Y265057D03*
X259141D03*
X262544Y263251D03*
X288848Y232934D03*
X308583Y251936D03*
X287323Y251479D03*
X270787D03*
X254252D03*
X232992Y240805D03*
X308062Y289068D03*
X304595Y294799D03*
X307756Y233618D03*
X307215Y258474D03*
X299691D03*
X303453Y261154D03*
Y255794D03*
X270675Y280555D03*
X290133Y283963D03*
X257291Y275574D03*
X306964Y273844D03*
X299440D03*
X303202Y276524D03*
X232903Y252381D03*
X242165D03*
X232903Y265969D03*
X242165D03*
X270675Y277995D03*
X260519Y275574D03*
X294225Y252350D03*
X293974Y262912D03*
X290133Y275217D03*
X226200Y252381D03*
Y260019D03*
X235462D03*
X244724Y265969D03*
X228268Y240805D03*
X230630Y238003D03*
X235354D03*
X237717Y240805D03*
X240079Y238003D03*
X242441Y240805D03*
X256614Y237791D03*
X259039Y251479D03*
X261339D03*
X263701Y238003D03*
X239606Y252381D03*
X266063Y240805D03*
X230344Y252381D03*
X268425Y238003D03*
X273150D03*
X275512Y240805D03*
X277874Y238003D03*
X280236Y240805D03*
X282598Y238003D03*
X284961Y240805D03*
X287860Y240644D03*
X290405Y239307D03*
X294409Y233298D03*
X296772Y254281D03*
X301496Y240805D03*
X306220Y254281D03*
X310945Y252015D03*
X235462Y252381D03*
X232407Y272429D03*
X247165Y238003D03*
X249528Y240805D03*
X251890D03*
X239606Y260019D03*
X230344D03*
X262363Y283114D03*
X227664Y322405D03*
X286592Y320008D03*
X233523Y330016D03*
X253523D03*
X346938Y53698D03*
X317074Y56713D03*
X397332Y32297D03*
X391995Y37241D03*
X386658Y32297D03*
X391995Y27353D03*
X374788Y58492D03*
Y54554D03*
Y50616D03*
Y46678D03*
X342260Y88210D03*
X348320Y131354D03*
X355801Y142507D03*
X389036Y135386D03*
X378652Y81580D03*
Y104580D03*
Y127580D03*
X392916Y92849D03*
X396549Y96454D03*
X392872Y100081D03*
X392958Y115877D03*
X396591Y119482D03*
X392914Y123109D03*
X385652Y86367D03*
Y109367D03*
X325180Y114048D03*
X330180D03*
X335180D03*
X340180D03*
X345180D03*
X362242Y144431D03*
X374714Y81580D03*
X370776D03*
X366838D03*
X374714Y104580D03*
X370776D03*
X366838D03*
X374714Y127580D03*
X370776D03*
X366838D03*
X375424Y87606D03*
Y110606D03*
X385652Y63367D03*
X392888Y77075D03*
X392932Y69843D03*
X396565Y73448D03*
X364197Y64428D03*
X375424Y64606D03*
X367916Y117407D03*
X371853D03*
Y113470D03*
X367916D03*
X371853Y109533D03*
X367916D03*
X363979D03*
X360042D03*
Y113470D03*
X363979D03*
Y117407D03*
X360042D03*
X360197Y135412D03*
X325180Y60784D03*
X330180D03*
X335180D03*
X340180D03*
X345180D03*
X357449Y72323D03*
X353512D03*
X349575D03*
X357449Y64449D03*
X353512D03*
X349575D03*
Y68386D03*
X353512D03*
X357449D03*
X361386Y72323D03*
Y64449D03*
Y68386D03*
X330180Y98516D03*
X335180D03*
X340180D03*
X345180D03*
X366811Y135412D03*
X385493Y144047D03*
X363979Y94407D03*
X367916D03*
X371853D03*
Y90470D03*
X367916D03*
X363979D03*
X360042D03*
Y86533D03*
X363979D03*
X367916D03*
X371853D03*
X360042Y94407D03*
X385493Y139716D03*
X315050Y197710D03*
Y224214D03*
X331554Y200798D03*
Y227302D03*
X343911Y224214D03*
X340399Y227302D03*
X364197Y224214D03*
X388737Y221727D03*
X380701Y200798D03*
Y227302D03*
X364197Y197710D03*
X343911D03*
X340399Y200798D03*
X353099Y223709D03*
X314745Y170091D03*
X346907Y207114D03*
X324589D03*
X349134Y172301D03*
X380701Y230530D03*
X331554D03*
X340399D03*
X388737Y224955D03*
X385493Y152708D03*
X380701Y204026D03*
X389036Y193181D03*
X366253Y172401D03*
X351672Y149524D03*
X322963Y167593D03*
X356903Y206940D03*
X377189D03*
X340399Y204026D03*
X331554D03*
X328042Y207114D03*
X362242Y148369D03*
X357424Y182756D03*
X363025Y172401D03*
X319213Y221135D03*
X328661Y224902D03*
X333180Y222938D03*
X333386Y219195D03*
X328838Y172556D03*
X327528Y165033D03*
X338152Y221138D03*
X374733Y161370D03*
X385493D03*
X360378Y164879D03*
X385493Y174362D03*
X363343Y162320D03*
X385493Y170031D03*
X360378Y159760D03*
X385493Y165701D03*
X360378Y154642D03*
X385493Y148378D03*
X363343Y152083D03*
X340509Y164879D03*
X339171Y162320D03*
X328838Y159760D03*
X322963Y159605D03*
X325873Y154642D03*
X328838Y152083D03*
X344500Y286600D03*
X357700Y295100D03*
X335160Y310113D03*
X347359Y306902D03*
X361613Y305105D03*
X341771Y295917D03*
X346877Y300623D03*
X355324Y303762D03*
X341740Y310896D03*
X341341Y303191D03*
X359833Y311581D03*
X350035Y311538D03*
X395478Y316886D03*
X367849Y310648D03*
X371167Y242654D03*
X378534D03*
X366383Y243246D03*
X382557Y242654D03*
X383357Y253354D03*
X382431Y265745D03*
X379711Y272577D03*
X382431Y269857D03*
X367309Y264307D03*
X377388Y274900D03*
X364939Y266677D03*
X383357Y247058D03*
X323143Y290862D03*
X313264Y273844D03*
X316406Y302673D03*
X320343D03*
X323280Y298736D03*
Y302673D03*
X322618Y281275D03*
X319676Y285131D03*
X326707Y269959D03*
X331051Y265615D03*
X340920Y267862D03*
X378653Y317769D03*
X399269Y304678D03*
X346105Y246142D03*
X325118Y251479D03*
X387355Y316515D03*
X397520Y313755D03*
X381723Y306971D03*
X370370Y307026D03*
X323143Y294799D03*
X319676Y289068D03*
X323992Y314081D03*
Y306994D03*
X340920Y277544D03*
X333833D03*
X372024Y240533D03*
X353035Y242036D03*
X328042Y233618D03*
X323573Y258474D03*
X316049D03*
X319811Y261154D03*
X350937Y266191D03*
X367309Y259060D03*
X382431D03*
X366383Y253750D03*
X350053Y256965D03*
X350138Y251649D03*
X313307Y260403D03*
X315669Y233618D03*
X337084Y258497D03*
X341234Y259525D03*
X345706Y260733D03*
X350239Y244566D03*
X399269Y289323D03*
X370370Y285766D03*
X367405Y289309D03*
X396304Y291882D03*
X399269Y294442D03*
X370370Y292852D03*
X369379Y296396D03*
X396304Y297001D03*
X399269Y299560D03*
X370370Y299939D03*
X367405Y303482D03*
X396304Y302119D03*
X367405Y282223D03*
X396304Y281646D03*
Y286764D03*
X370370Y278679D03*
X387668Y268563D03*
X384951Y274975D03*
X356569Y263787D03*
Y259862D03*
X374723Y316693D03*
X370370Y314112D03*
X387500Y307351D03*
X397596Y261031D03*
X394227Y265778D03*
X399269Y284205D03*
X362180Y277544D03*
X392267Y316352D03*
X338915Y238173D03*
X332205Y252312D03*
X334784Y238174D03*
X323760Y321960D03*
X313523Y330016D03*
X333523D03*
X353523D03*
X395722Y333901D03*
X389708D03*
X384028D03*
X371453Y328694D03*
X376322Y321369D03*
X373394Y324102D03*
X368978D03*
X363230Y324369D03*
X364981Y328694D03*
X379207D03*
X333802Y323922D03*
X340888D03*
X371816Y319569D03*
X427068Y51762D03*
X422068D03*
Y56762D03*
X427068D03*
X402400Y21700D03*
X406100Y8200D03*
X415500Y28100D03*
X432700Y39600D03*
X434600Y58700D03*
X427068Y61762D03*
X422068D03*
Y66762D03*
X427068D03*
Y71762D03*
X422068D03*
Y76762D03*
X427068D03*
Y81762D03*
X422068D03*
Y86762D03*
X427068D03*
Y91762D03*
X422068D03*
Y96762D03*
X427068D03*
Y101762D03*
X422068D03*
Y106762D03*
X427068D03*
Y111762D03*
X422068D03*
Y116762D03*
X427068D03*
Y121762D03*
X422068D03*
X435000Y74500D03*
X434600Y95100D03*
X434000Y128200D03*
X423069Y139148D03*
Y131624D03*
X417732Y135386D03*
X428406D03*
X414478Y104580D03*
X418416D03*
Y81580D03*
X414478D03*
Y127580D03*
X418416D03*
X400218Y92785D03*
X400171Y100098D03*
X400260Y115813D03*
X400213Y123126D03*
X400187Y77092D03*
X400234Y69779D03*
X415700Y151400D03*
X433100Y160400D03*
X415600Y175000D03*
X434000Y182100D03*
X418100Y209100D03*
X433600Y206000D03*
X414567Y230939D03*
X403085Y225939D03*
X423069Y200250D03*
Y192726D03*
X417732Y196488D03*
X428406D03*
X422378Y291953D03*
X411772Y247990D03*
X401477Y237739D03*
X420272Y243126D03*
X429510Y252892D03*
X429749Y272146D03*
Y288749D03*
X425013Y281801D03*
X407268Y276788D03*
X434031Y248396D03*
Y256396D03*
Y264396D03*
Y272396D03*
Y280396D03*
Y288396D03*
X404227Y256330D03*
X410965D03*
X407596Y251583D03*
Y261077D03*
X410432Y281646D03*
Y294442D03*
Y289323D03*
X425013Y294597D03*
X407467Y291882D03*
Y286764D03*
Y299560D03*
X410432Y302119D03*
X400965Y265778D03*
X400967Y329088D03*
X399990Y323806D03*
G54D21*
X88504Y230000D03*
G54D12*
X45667Y97998D03*
X18108D03*
X45667Y139739D03*
X18108D03*
G54D22*
X128287Y294600D03*
X226713D03*
G54D13*
X17533Y65228D03*
Y59716D03*
G54D23*
X308308Y10992D03*
X274292D03*
X266201Y10981D03*
X232185D03*
G54D14*
X40756Y187455D03*
Y207141D03*
G54D24*
X308308Y27449D03*
X274292D03*
X266201Y27438D03*
X232185D03*
G54D15*
X25795Y243547D03*
Y266381D03*
X302717Y25362D03*
X279883D03*
X260610Y25351D03*
X237776D03*
G54D16*
X11425Y237956D03*
Y271972D03*
G54D25*
X246243Y322023D03*
X300181D03*
X273212Y325953D03*
G54D17*
X27882Y237956D03*
Y271972D03*
G54D26*
X378061Y4340D03*
X385935D03*
X393809D03*
X378061Y22056D03*
X385935D03*
X393809D03*
G54D18*
X51028Y315115D03*
X65165Y138435D03*
Y128593D03*
X252544Y258626D03*
X341920Y122769D03*
X434450Y228817D03*
G54D27*
X357389Y7000D03*
Y25504D03*
Y44008D03*
X327464Y7000D03*
Y25504D03*
Y44008D03*
G54D28*
G01X27882Y234892D02*
Y237956D01*
G01D02*
Y241020D01*
G01X23243Y237956D02*
X27882D01*
G01D02*
X32521D01*
G01X23243Y234892D02*
X27882Y237956D01*
G01D02*
X32521Y241020D01*
G01X23243D02*
X27882Y237956D01*
G01D02*
X32521Y234892D01*
G01X11425D02*
Y237956D01*
G01D02*
Y241020D01*
G01X7179Y237956D02*
X11425D01*
G01D02*
X15671D01*
G01X7179Y234892D02*
X11425Y237956D01*
G01D02*
X15671Y241020D01*
G01X7179D02*
X11425Y237956D01*
G01D02*
X15671Y234892D01*
G01X11425Y268908D02*
Y271972D01*
G01D02*
Y275036D01*
G01X7179Y271972D02*
X11425D01*
G01D02*
X15671D01*
G01X7179Y268908D02*
X11425Y271972D01*
G01D02*
X15671Y275036D01*
G01X7179D02*
X11425Y271972D01*
G01D02*
X15671Y268908D01*
G01X27882D02*
Y271972D01*
G01D02*
Y275036D01*
G01X23243Y271972D02*
X27882D01*
G01D02*
X32521D01*
G01X23243Y268908D02*
X27882Y271972D01*
G01D02*
X32521Y275036D01*
G01X23243D02*
X27882Y271972D01*
G01D02*
X32521Y268908D01*
G01X47176Y325115D02*
X51028D01*
G01X48104Y322191D02*
X51028Y325115D01*
G01D02*
X53952Y328039D01*
G01X48104D02*
X51028Y325115D01*
G01D02*
X53952Y322191D01*
G01X88504Y224770D02*
Y230000D01*
G01D02*
Y235230D01*
G01X83274Y230000D02*
X88504D01*
G01D02*
X93734D01*
G01X84606Y226102D02*
X88504Y230000D01*
G01D02*
X92402Y233898D01*
G01X84606D02*
X88504Y230000D01*
G01D02*
X92402Y226102D01*
G01X128287Y285236D02*
Y294600D01*
G01D02*
Y303964D01*
G01X118923Y294600D02*
X128287D01*
G01D02*
X137651D01*
G01X121466Y287779D02*
X128287Y294600D01*
G01D02*
X135108Y301421D01*
G01X121466D02*
X128287Y294600D01*
G01D02*
X135108Y287779D01*
G01X91028Y321263D02*
Y325115D01*
G01D02*
Y328967D01*
G01X87176Y325115D02*
X91028D01*
G01D02*
X94880D01*
G01X88104Y322191D02*
X91028Y325115D01*
G01D02*
X93952Y328039D01*
G01X88104D02*
X91028Y325115D01*
G01D02*
X93952Y322191D01*
G01X51028Y321263D02*
Y325115D01*
G01D02*
Y328967D01*
G01Y325115D02*
X54880D01*
G01X150161Y165585D02*
Y169437D01*
G01D02*
Y173289D01*
G01X146309Y169437D02*
X150161D01*
G01D02*
X154013D01*
G01X147237Y166513D02*
X150161Y169437D01*
G01D02*
X153085Y172361D01*
G01X150161Y169437D02*
X153085Y166513D01*
G01X195528Y282756D02*
Y286805D01*
G01D02*
Y290854D01*
G01X191479Y286805D02*
X195528D01*
G01D02*
X199577D01*
G01X192465Y283742D02*
X195528Y286805D01*
G01D02*
X198591Y289868D01*
G01X192465D02*
X195528Y286805D01*
G01D02*
X198591Y283742D01*
G01X154957Y290551D02*
Y294600D01*
G01D02*
Y298649D01*
G01X150908Y294600D02*
X154957D01*
G01D02*
X159006D01*
G01X151894Y291537D02*
X154957Y294600D01*
G01D02*
X158020Y297663D01*
G01X151894D02*
X154957Y294600D01*
G01D02*
X158020Y291537D01*
G01X163972Y290551D02*
Y294600D01*
G01D02*
Y298649D01*
G01X159923Y294600D02*
X163972D01*
G01D02*
X168021D01*
G01X160909Y291537D02*
X163972Y294600D01*
G01D02*
X167035Y297663D01*
G01X160909D02*
X163972Y294600D01*
G01D02*
X167035Y291537D01*
G01X172988Y290551D02*
Y294600D01*
G01D02*
Y298649D01*
G01X168939Y294600D02*
X172988D01*
G01D02*
X177037D01*
G01X169925Y291537D02*
X172988Y294600D01*
G01D02*
X176051Y297663D01*
G01X169925D02*
X172988Y294600D01*
G01D02*
X176051Y291537D01*
G01X191020Y290551D02*
Y294600D01*
G01D02*
Y298649D01*
G01X186971Y294600D02*
X191020D01*
G01D02*
X195069D01*
G01X187957Y291537D02*
X191020Y294600D01*
G01D02*
X194083Y297663D01*
G01X187957D02*
X191020Y294600D01*
G01D02*
X194083Y291537D01*
G01X217349Y294600D02*
X226713D01*
G01X219892Y287779D02*
X226713Y294600D01*
G01X219892Y301421D02*
X226713Y294600D01*
G01X308308Y22810D02*
Y27449D01*
G01D02*
Y32088D01*
G01X305244Y27449D02*
X308308D01*
G01D02*
X311372D01*
G01X305244Y22810D02*
X308308Y27449D01*
G01D02*
X311372Y32088D01*
G01X305244D02*
X308308Y27449D01*
G01D02*
X311372Y22810D01*
G01X308308Y6746D02*
Y10992D01*
G01D02*
Y15238D01*
G01X305244Y10992D02*
X308308D01*
G01D02*
X311372D01*
G01X305244Y6746D02*
X308308Y10992D01*
G01D02*
X311372Y15238D01*
G01X305244D02*
X308308Y10992D01*
G01D02*
X311372Y6746D01*
G01X232185Y22799D02*
Y27438D01*
G01D02*
Y32077D01*
G01X229121Y27438D02*
X232185D01*
G01D02*
X235249D01*
G01X229121Y22799D02*
X232185Y27438D01*
G01D02*
X235249Y32077D01*
G01X232185Y27438D02*
X235249Y22799D01*
G01X266201D02*
Y27438D01*
G01D02*
Y32077D01*
G01X263137Y27438D02*
X266201D01*
G01D02*
X269265D01*
G01X263137Y22799D02*
X266201Y27438D01*
G01D02*
X269265Y32077D01*
G01X263137D02*
X266201Y27438D01*
G01D02*
X269265Y22799D01*
G01X232185Y6735D02*
Y10981D01*
G01D02*
Y15227D01*
G01X229121Y10981D02*
X232185D01*
G01D02*
X235249D01*
G01X229121Y6735D02*
X232185Y10981D01*
G01D02*
X235249Y15227D01*
G01X229121D02*
X232185Y10981D01*
G01D02*
X235249Y6735D01*
G01X266201D02*
Y10981D01*
G01D02*
Y15227D01*
G01X263137Y10981D02*
X266201D01*
G01D02*
X269265D01*
G01X263137Y6735D02*
X266201Y10981D01*
G01D02*
X269265Y15227D01*
G01X263137D02*
X266201Y10981D01*
G01D02*
X269265Y6735D01*
G01X274292Y22810D02*
Y27449D01*
G01D02*
Y32088D01*
G01X271228Y27449D02*
X274292D01*
G01D02*
X277356D01*
G01X271228Y22810D02*
X274292Y27449D01*
G01D02*
X277356Y32088D01*
G01X271228D02*
X274292Y27449D01*
G01D02*
X277356Y22810D01*
G01X274292Y6746D02*
Y10992D01*
G01D02*
Y15238D01*
G01X271228Y10992D02*
X274292D01*
G01D02*
X277356D01*
G01X271228Y6746D02*
X274292Y10992D01*
G01D02*
X277356Y15238D01*
G01X271228D02*
X274292Y10992D01*
G01D02*
X277356Y6746D01*
G01X246243Y315218D02*
Y322023D01*
G01X241231Y317011D02*
X246243Y322023D01*
G01D02*
X251255Y317011D01*
G01X300181Y315218D02*
Y322023D01*
G01X295169Y317011D02*
X300181Y322023D01*
G01D02*
X305193Y317011D01*
G01X286598Y305266D02*
Y309118D01*
G01D02*
Y312970D01*
G01X282746Y309118D02*
X286598D01*
G01D02*
X290450D01*
G01X283674Y306194D02*
X286598Y309118D01*
G01D02*
X289522Y312042D01*
G01X283674D02*
X286598Y309118D01*
G01D02*
X289522Y306194D01*
G01X262544Y254774D02*
Y258626D01*
G01D02*
Y262478D01*
G01X258692Y258626D02*
X262544D01*
G01D02*
X266396D01*
G01X259620Y255702D02*
X262544Y258626D01*
G01D02*
X265468Y261550D01*
G01X259620D02*
X262544Y258626D01*
G01D02*
X265468Y255702D01*
G01X226713Y285236D02*
Y294600D01*
G01D02*
Y303964D01*
G01Y294600D02*
X236077D01*
G01X226713D02*
X233534Y301421D01*
G01X226713Y294600D02*
X233534Y287779D01*
G01X246243Y322023D02*
Y328828D01*
G01X239438Y322023D02*
X246243D01*
G01D02*
X253048D01*
G01X246243D02*
X251255Y327035D01*
G01X241231D02*
X246243Y322023D01*
G01X300181D02*
Y328828D01*
G01X293376Y322023D02*
X300181D01*
G01D02*
X306986D01*
G01X300181D02*
X305193Y327035D01*
G01X295169D02*
X300181Y322023D01*
G01X273212Y319148D02*
Y325953D01*
G01D02*
Y332758D01*
G01X266407Y325953D02*
X273212D01*
G01D02*
X280017D01*
G01X268200Y320941D02*
X273212Y325953D01*
G01D02*
X278224Y330965D01*
G01X268200D02*
X273212Y325953D01*
G01D02*
X278224Y320941D01*
G01X351496Y225951D02*
Y230000D01*
G01D02*
Y234049D01*
G01X347447Y230000D02*
X351496D01*
G01D02*
X355545D01*
G01X348433Y226937D02*
X351496Y230000D01*
G01D02*
X354559Y233063D01*
G01X348433D02*
X351496Y230000D01*
G01D02*
X354559Y226937D01*
G54D19*
X51028Y325115D03*
X75165Y138435D03*
Y128593D03*
X120161Y199437D03*
Y169437D03*
X91028Y315115D03*
X81028D03*
X71028D03*
X61028D03*
X91028Y325115D03*
X81028D03*
X71028D03*
X61028D03*
X150161Y199437D03*
Y169437D03*
X291920Y122769D03*
X301920D03*
X311920D03*
X262544Y258626D03*
X286598Y299275D03*
X259826D03*
X286598Y309118D03*
X259826D03*
X278330D03*
X268094D03*
X321920Y122769D03*
X331920D03*
X434450Y218817D03*
G54D29*
G01X16000Y0D02*
X424000D01*
G03X440000Y16000I0J16000D01*
G01Y322400D01*
G03X424000Y338400I-16000J0D01*
G01X16000D01*
G03X0Y322400I0J-16000D01*
G01Y16000D01*
G03X16000Y0I16000J0D01*
M02*
