G04 ================== begin FILE IDENTIFICATION RECORD ==================*
G04 Layout Name:  G:/project_development/GitHub/ysyx3-pcb/PCB/ysyx3_pcb.brd*
G04 Film Name:    ART03*
G04 File Format:  Gerber RS274X*
G04 File Origin:  Cadence Allegro 16.6-2015-S066*
G04 Origin Date:  Fri Jan 06 10:04:32 2023*
G04 *
G04 Layer:  VIA CLASS/ART03*
G04 Layer:  PIN/ART03*
G04 Layer:  ETCH/ART03*
G04 Layer:  BOARD GEOMETRY/OUTLINE*
G04 *
G04 Offset:    (0.00 0.00)*
G04 Mirror:    No*
G04 Mode:      Positive*
G04 Rotation:  0*
G04 FullContactRelief:  No*
G04 UndefLineWidth:     6.00*
G04 ================== end FILE IDENTIFICATION RECORD ====================*
%FSLAX55Y55*MOIN*%
%IR0*IPPOS*OFA0.00000B0.00000*MIA0B0*SFA1.00000B1.00000*%
%ADD11C,.018*%
%ADD14C,.02008*%
%ADD13C,.09055*%
%ADD10C,.06693*%
%ADD12C,.06299*%
%ADD15C,.02*%
%ADD16C,.006*%
%ADD17C,.008*%
%ADD20C,.03012*%
%ADD19C,.02804*%
%ADD18C,.07879*%
G75*
%LPD*%
G75*
G36*
G01X5331Y2260D02*
X2490Y5101D01*
Y142266D01*
X5473Y145249D01*
X67866D01*
X70746Y142369D01*
Y123145D01*
X67452Y119852D01*
X50314D01*
X47612Y117150D01*
Y62495D01*
X49650Y60457D01*
X49627Y60350D01*
G03X51295Y58682I1370J-298D01*
G01X51402Y58705D01*
X62817Y47290D01*
X119898D01*
X127206Y39982D01*
G02X126909Y39299I-282J-283D01*
G03X128110Y38527I-52J-1401D01*
G01X128045Y38656D01*
X128289Y38899D01*
X128691Y38497D01*
Y23801D01*
X131786Y20706D01*
X171194D01*
X173792Y23304D01*
X281058D01*
X283312Y21050D01*
Y4088D01*
X281484Y2260D01*
X5331D01*
G37*
G36*
G01X132393Y45242D02*
X171433D01*
X175138Y41537D01*
Y25600D01*
X170917Y21379D01*
X132281D01*
X129386Y24274D01*
Y42235D01*
X132393Y45242D01*
G37*
G36*
G01X182968Y96304D02*
X179112Y100160D01*
X156117D01*
G02X155733Y100673I0J400D01*
G03X153045I-1344J398D01*
G02X152661Y100160I-384J-113D01*
G01X142018D01*
G02X141634Y100673I0J400D01*
G03X138946I-1344J398D01*
G02X138562Y100160I-384J-113D01*
G01X126195D01*
G02X125811Y100673I0J400D01*
G03X123123I-1344J398D01*
G02X122739Y100160I-384J-113D01*
G01X101159D01*
X100309Y101010D01*
Y104391D01*
G02X100789Y104783I400J0D01*
G03Y107529I282J1373D01*
G02X100309Y107921I-80J392D01*
G01Y140802D01*
G02X100777Y141197I400J1D01*
G03Y143959I239J1381D01*
G02X100309Y144354I-68J394D01*
G01Y144433D01*
X100305Y144437D01*
Y151749D01*
X100700Y152144D01*
X103595D01*
X106365Y149374D01*
X120863D01*
X122882Y151393D01*
Y174235D01*
X115828Y181290D01*
Y211324D01*
X117813Y213309D01*
X161804D01*
X164582Y210530D01*
Y206708D01*
X163697Y205822D01*
X163594Y205841D01*
G03X162975Y205813I-248J-1380D01*
G01X162949Y205806D01*
X162830D01*
X162758Y205734D01*
X162728Y205720D01*
G03X162087Y205079I618J-1259D01*
G01X162073Y205049D01*
X161783Y204759D01*
Y199316D01*
X147828Y185361D01*
Y181695D01*
X147826Y181681D01*
G03Y181273I1387J-204D01*
G01X147828Y181259D01*
Y154202D01*
X168131Y133899D01*
X168147D01*
X177048Y124998D01*
X184985D01*
X196383Y136396D01*
Y145801D01*
X196676Y146094D01*
X199348D01*
Y146092D01*
X199734Y145706D01*
Y129971D01*
X195555Y125792D01*
Y96866D01*
X194993Y96304D01*
X182968D01*
G37*
G36*
G01X95947Y89348D02*
X94097Y91198D01*
Y144275D01*
X94586Y144764D01*
X99310D01*
X99688Y144386D01*
Y143029D01*
X99679Y142999D01*
G03Y142157I1337J-421D01*
G01X99688Y142127D01*
Y138905D01*
X99686Y138889D01*
G03Y138459I1385J-215D01*
G01X99688Y138443D01*
Y114933D01*
X99686Y114917D01*
G03Y114487I1385J-215D01*
G01X99688Y114471D01*
Y106387D01*
X99686Y106371D01*
G03Y105941I1385J-215D01*
G01X99688Y105925D01*
Y100924D01*
X99808Y100804D01*
Y100802D01*
X100951Y99658D01*
X100954D01*
X101003Y99609D01*
X131838D01*
G02X132099Y98906I0J-400D01*
G03X133927I914J-1063D01*
G02X134188Y99609I261J303D01*
G01X147661D01*
G02X147922Y98906I0J-400D01*
G03X149750I914J-1063D01*
G02X150011Y99609I261J303D01*
G01X161760D01*
G02X162021Y98906I0J-400D01*
G03X163849I914J-1063D01*
G02X164110Y99609I261J303D01*
G01X175783D01*
G02X176044Y98906I0J-400D01*
G03X177872I914J-1063D01*
G02X178133Y99609I261J303D01*
G01X178888D01*
X182722Y95775D01*
X195198D01*
X196088Y96665D01*
Y125594D01*
X200314Y129820D01*
Y131284D01*
X200316Y131298D01*
G03Y131706I-1387J204D01*
G01X200314Y131720D01*
Y142980D01*
X200316Y142994D01*
G03Y143402I-1387J204D01*
G01X200314Y143416D01*
Y147615D01*
X201544Y148845D01*
X207068D01*
X208376Y147537D01*
Y129375D01*
X203408Y124407D01*
Y92247D01*
X200509Y89348D01*
X169902D01*
G03X167420I-1241J-653D01*
G01X165895D01*
G03X163413I-1241J-653D01*
G01X95947D01*
G37*
%LPC*%
G75*
G36*
G01X120180Y198028D02*
G02X120124Y199893I-1074J901D01*
G01X120183Y199830D01*
X120433D01*
X128365Y207762D01*
X149140D01*
G02X151272Y205941I1075J-900D01*
G03X151279Y205408I302J-263D01*
G02X149303Y205499I-1034J-947D01*
G03X149299Y205799I-134J148D01*
G02X149140Y205960I915J1062D01*
G01X147735D01*
G03X147418Y205316I0J-400D01*
G02X145196I-1111J-855D01*
G03X144879Y205960I-317J244D01*
G01X129111D01*
X127394Y204242D01*
G03X127671Y203559I282J-283D01*
G02X126250Y202138I-19J-1402D01*
G03X125567Y202415I-400J-5D01*
G01X121179Y198028D01*
X120180D01*
G37*
G54D20*
X142126Y17319D03*
X157874D03*
G54D19*
X46757Y17807D03*
X55237D03*
X50997Y23622D03*
Y11992D03*
X39585Y14945D03*
X47728Y55996D03*
X50997Y51940D03*
X13526Y109408D03*
X12994Y116490D03*
X57571Y124664D03*
Y128602D03*
X115761Y17807D03*
X108437D03*
X112099Y23044D03*
Y12570D03*
X123057Y34354D03*
X201829Y6407D03*
X194897D03*
X198363Y11644D03*
X204160Y17394D03*
X131976Y24373D03*
X135914D03*
X147681Y27456D03*
X150778Y31646D03*
X156210Y26677D03*
X154968Y42045D03*
X149995Y42326D03*
X144968Y42045D03*
X125228Y135039D03*
X127506Y137366D03*
X125228Y139693D03*
X127506Y142020D03*
X125228Y144347D03*
X127506Y146674D03*
X128740Y112508D03*
X112508Y119291D03*
X112749Y131450D03*
X113390Y146795D03*
X137000Y175832D03*
X125228Y149001D03*
X138634Y180282D03*
X133980D03*
X129470Y178475D03*
X125883Y180797D03*
X128740Y188070D03*
X119106Y202157D03*
X180134Y103863D03*
X165806Y117424D03*
X162095Y117437D03*
X169078Y124368D03*
X164424D03*
X146063Y112508D03*
X158661D03*
X169685D03*
X187532Y124852D03*
X157443Y126646D03*
X159770Y124368D03*
X162097Y126646D03*
X171405D03*
X166751D03*
X145508Y180186D03*
X145466Y172295D03*
X159408Y204461D03*
X155470D03*
X143019Y187046D03*
X97843Y114702D03*
Y138674D03*
X202157Y143250D03*
Y131502D03*
G54D18*
X62060Y16468D03*
X93556D03*
%LPD*%
G75*
G54D10*
X62060Y16468D03*
X93556D03*
X281496Y235000D03*
G54D11*
X50997Y51940D03*
Y60052D03*
X47728Y55996D03*
X39585Y14945D03*
X50997Y11992D03*
Y23622D03*
X55237Y17807D03*
X46757D03*
X28526Y69406D03*
X39643Y34217D03*
X23526Y69406D03*
X50648Y69126D03*
X50578Y65625D03*
X57571Y128602D03*
Y124664D03*
X12994Y116490D03*
X13526Y109408D03*
X63079Y133816D03*
X59535Y137616D03*
X20830Y116490D03*
X20866Y177401D03*
X12676Y187756D03*
X27165Y224095D03*
X41339D03*
X34252D03*
X48425D03*
X55512D03*
X62598D03*
X20866Y198111D03*
X60236Y213621D03*
X29528Y224095D03*
X31890D03*
X57874Y213621D03*
X28346Y256379D03*
X40157D03*
X35433D03*
X47244D03*
X54331D03*
X61417D03*
X30709Y245905D03*
X33071D03*
X63780D03*
X59055D03*
X56693D03*
X81312Y55606D03*
X68319Y63201D03*
X123057Y34354D03*
X126857Y37898D03*
X106265Y66027D03*
X112061Y55996D03*
X108792Y51940D03*
X105523Y55996D03*
X108792Y60052D03*
X112099Y12570D03*
Y23044D03*
X108437Y17807D03*
X115761D03*
X135914Y24373D03*
X131976D03*
X139852Y32787D03*
X135914D03*
X131976D03*
X74908Y54541D03*
X85642Y54591D03*
X70346Y68570D03*
X80149Y128622D03*
X97843Y138674D03*
X113390Y146795D03*
X101016Y142578D03*
X112749Y131450D03*
X112508Y119291D03*
X79571Y124684D03*
X102386Y70358D03*
X133013Y97843D03*
X128740Y112508D03*
X97843Y114702D03*
X140290Y101071D03*
X124467D03*
X101071Y106156D03*
X108075Y75477D03*
X127506Y146674D03*
X125228Y144347D03*
X127506Y142020D03*
X125228Y139693D03*
X127506Y137366D03*
X125228Y135039D03*
X101071Y138674D03*
X133013Y101071D03*
X101071Y114702D03*
X140290Y97843D03*
X124467D03*
X97843Y106156D03*
Y129829D03*
Y142578D03*
X101071Y156751D03*
X127652Y202157D03*
X119106D03*
X128740Y188070D03*
X112508Y163386D03*
X88583Y224095D03*
X102756D03*
X111930Y180709D03*
X97843Y151124D03*
Y184619D03*
Y165297D03*
X109843Y224095D03*
X95669D03*
X81496D03*
X69685D03*
X105118Y213621D03*
X107480D03*
X125883Y180797D03*
X129470Y178475D03*
X133980Y180282D03*
X137000Y175832D03*
X138634Y180282D03*
X120218Y173516D03*
X117940Y171189D03*
X120218Y168862D03*
X117552Y166035D03*
X120198Y162422D03*
X117920Y160095D03*
X120198Y157768D03*
X117920Y155441D03*
X120198Y153114D03*
X117920Y150787D03*
X125228Y149001D03*
X74409Y213621D03*
X72047D03*
X67323D03*
X64961D03*
X127652Y198929D03*
X101071Y184619D03*
Y165297D03*
Y151124D03*
X97843Y176073D03*
Y156751D03*
X119106Y198929D03*
X89764Y256379D03*
X68504D03*
X75591D03*
X82677D03*
X96850D03*
X92126Y280933D03*
X141732Y282924D03*
X139370Y282995D03*
X134646Y282948D03*
X129578Y282883D03*
X125168Y282994D03*
X121387Y282715D03*
X117478Y282647D03*
X113887Y282308D03*
X106299Y282184D03*
X101575Y266484D03*
X99213Y282229D03*
X94488Y282167D03*
X87402Y245905D03*
X85039D03*
X80315D03*
X73228D03*
X70866D03*
X66142D03*
X103937D03*
X218481Y44266D03*
X204160Y17394D03*
X144968Y47045D03*
Y42045D03*
X149995Y42326D03*
X154968Y42045D03*
Y47045D03*
Y52045D03*
X149968D03*
X144968D03*
X150000Y47000D03*
X156210Y26677D03*
X184162Y44241D03*
Y39517D03*
X195757Y25776D03*
X188041Y47820D03*
X187863Y52235D03*
X219982Y60598D03*
X198363Y11644D03*
X194897Y6407D03*
X201829D03*
X150778Y31646D03*
X147681Y27456D03*
X171361Y43063D03*
X167667Y30257D03*
X163830Y34005D03*
X167667Y37753D03*
X143790Y32787D03*
X160402Y34168D03*
X163700Y37439D03*
X176899Y34005D03*
X180069Y37175D03*
Y30835D03*
X195746Y21332D03*
X174812Y17394D03*
X220043Y5534D03*
X166751Y126646D03*
X171405D03*
X162097D03*
X159770Y124368D03*
X157443Y126646D03*
X187532Y124852D03*
X169685Y112508D03*
X202157Y131502D03*
X187355Y140584D03*
X220427Y124918D03*
Y74791D03*
Y97644D03*
X158661Y112508D03*
X176958Y97843D03*
X162935D03*
X202157Y143250D03*
X148836Y97843D03*
X146063Y112508D03*
X154389Y101071D03*
X180134Y103863D03*
X164424Y124368D03*
X208304Y88202D03*
Y83202D03*
X213304D03*
Y88202D03*
X203304Y83202D03*
Y88202D03*
X205328Y123623D03*
X181746Y127165D03*
X179468Y129492D03*
X181746Y131819D03*
X179468Y134146D03*
X182622Y136473D03*
X179468Y138800D03*
X181746Y141127D03*
X177116Y80618D03*
X169078Y124368D03*
X198929Y131502D03*
Y143198D03*
X148836Y101071D03*
X176958D03*
X193213Y100847D03*
X190063D03*
Y97697D03*
X193213D03*
X162935Y101071D03*
X202157Y147301D03*
X198958Y122883D03*
X193313Y91547D03*
X190163D03*
Y94697D03*
X193313D03*
X154389Y97843D03*
X168412D03*
X202157Y134704D03*
X164654Y88695D03*
X162095Y117437D03*
X168661Y88695D03*
X165806Y117424D03*
X177917Y144175D03*
X175639Y146502D03*
X177917Y148829D03*
X215305Y150467D03*
X182433Y155512D03*
X215305Y154405D03*
X180155Y157839D03*
X215305Y158343D03*
X182433Y160166D03*
X215305Y162281D03*
X180379Y162493D03*
X182779Y164981D03*
X215305Y166219D03*
X150245Y204461D03*
X163346D03*
X143019Y187046D03*
X170038Y187231D03*
X162974Y186982D03*
X165857Y184341D03*
X186746Y152213D03*
X202157Y155847D03*
X198929Y159901D03*
X218504Y224095D03*
X211417D03*
X204331D03*
X185433D03*
X192520D03*
X197244D03*
X186279Y165747D03*
X202157Y168447D03*
X210150Y186836D03*
X175160Y204461D03*
X171222D03*
X155470D03*
X159408D03*
X146307D03*
X167284D03*
X180279Y211080D03*
X145466Y172295D03*
X145508Y180186D03*
X149392Y176427D03*
X187795Y211438D03*
X190157Y213621D03*
X199606D03*
X201969D03*
X206693D03*
X216142D03*
X213780D03*
X209055D03*
X149213Y181477D03*
X151540Y179199D03*
X153867Y181477D03*
X156194Y179199D03*
X160848D03*
X163175Y181477D03*
X158521D03*
X163436Y207248D03*
X157439Y207237D03*
X152454Y196426D03*
X150214Y206861D03*
X202157Y159901D03*
X175639Y151156D03*
X177917Y153483D03*
X184252Y256379D03*
X191339D03*
X198425D03*
X205512D03*
X212598D03*
X217323D03*
X146457Y245905D03*
X148819D03*
X153543D03*
X155906D03*
X162992D03*
X167717D03*
X160630D03*
X165310Y256558D03*
X233481Y44266D03*
X228481D03*
X223481D03*
X259969Y70282D03*
X228323Y69258D03*
X259851Y60598D03*
X263789D03*
X271665D03*
X267727D03*
X223920D03*
X234100Y58294D03*
X255913Y60598D03*
X271495Y5534D03*
X267557D03*
X263619D03*
X259681D03*
X231857D03*
X227919D03*
X223981D03*
X255743D03*
X254079Y43688D03*
X259079D03*
X264079D03*
X269079D03*
X274079D03*
X259969Y92557D03*
X244541Y78413D03*
X244529Y101266D03*
X227711Y119944D03*
X224365Y124918D03*
X259969Y120409D03*
X255638Y124288D03*
X224365Y74791D03*
X224054Y97347D03*
X228326Y92092D03*
X255638Y74161D03*
X255621Y97014D03*
X244529Y129118D03*
X223141Y154405D03*
X279134Y177401D03*
Y198111D03*
X287324Y187756D03*
X237402Y224095D03*
X232677D03*
X225591D03*
X244488D03*
X251575D03*
X258661D03*
X265748D03*
X270472Y213621D03*
X268110D03*
X263386D03*
X261024D03*
X253937D03*
X249213D03*
X246850D03*
X242126D03*
X223141Y150467D03*
Y158343D03*
Y162281D03*
Y166219D03*
X224409Y256379D03*
X231496D03*
X238583D03*
X245669D03*
X252756D03*
X257480D03*
X264567D03*
G54D12*
X52039Y115801D03*
Y85801D03*
X82039Y115801D03*
Y85801D03*
G54D13*
X18504Y235000D03*
G54D14*
X142126Y17319D03*
X157874D03*
G54D15*
G01X205328Y123623D02*
Y90226D01*
X203304Y88202D01*
G54D16*
G01X4500Y0D02*
X295500D01*
G03X300000Y4500I0J4500D01*
G01Y295500D01*
G03X295500Y300000I-4500J0D01*
G01X4500D01*
G03X0Y295500I0J-4500D01*
G01Y4500D01*
G03X4500Y0I4500J0D01*
G54D17*
G01X50648Y69126D02*
X53039Y71517D01*
X71032D01*
X72740Y69809D01*
Y53641D01*
X73734Y52647D01*
X106953D01*
X108502Y54196D01*
X206472D01*
X230348Y78072D01*
Y155074D01*
X223141Y162281D01*
G01X59055Y245905D02*
Y244205D01*
X53680Y238830D01*
Y206743D01*
X54733Y205690D01*
X55865D01*
X57005Y206830D01*
X58137D01*
X59268Y205699D01*
Y204567D01*
X58128Y203427D01*
Y202295D01*
X59259Y201164D01*
X60391D01*
X61531Y202304D01*
X62663D01*
X63794Y201173D01*
Y200041D01*
X62654Y198901D01*
Y197769D01*
X63785Y196638D01*
X64917D01*
X66057Y197778D01*
X67189D01*
X68320Y196647D01*
Y195515D01*
X67180Y194375D01*
Y193243D01*
X68311Y192112D01*
X69443D01*
X70583Y193252D01*
X71715D01*
X72846Y192121D01*
Y190989D01*
X71706Y189849D01*
Y188717D01*
X104982Y155441D01*
X117920D01*
G01X56693Y245905D02*
X51111Y240323D01*
Y200951D01*
X78991Y173071D01*
Y171939D01*
X78325Y171273D01*
Y170141D01*
X79456Y169010D01*
X80588D01*
X81254Y169676D01*
X82386D01*
X83517Y168545D01*
Y167413D01*
X82851Y166747D01*
Y165615D01*
X83982Y164484D01*
X85114D01*
X85780Y165150D01*
X86912D01*
X88043Y164019D01*
Y162887D01*
X87377Y162221D01*
Y161089D01*
X88508Y159958D01*
X89640D01*
X90138Y160456D01*
X91270D01*
X98580Y153146D01*
X118466D01*
X118498Y153114D01*
X120198D01*
G01X81312Y55606D02*
X89341Y63635D01*
X202362D01*
X222227Y83500D01*
Y125664D01*
X222162Y125729D01*
Y146445D01*
X224999Y149282D01*
Y152547D01*
X223141Y154405D01*
G01Y150467D02*
X217577Y144903D01*
Y81842D01*
X203760Y68025D01*
X88392D01*
X74908Y54541D01*
G01X85642Y54591D02*
X89204Y58153D01*
X199946D01*
X225911Y84118D01*
Y122898D01*
X226512Y123499D01*
Y154972D01*
X223141Y158343D01*
G01Y166219D02*
X232149Y157211D01*
Y76870D01*
X204935Y49656D01*
X74082D01*
X70346Y53392D01*
Y68570D01*
G01X149213Y181477D02*
Y184972D01*
X165484Y201243D01*
Y211700D01*
X162385Y214799D01*
X130902D01*
X125262Y220439D01*
Y221739D01*
X124462Y222539D01*
X123056D01*
X122256Y223339D01*
Y224939D01*
X123056Y225739D01*
X124462D01*
X125262Y226539D01*
Y228139D01*
X124462Y228939D01*
X123056D01*
X122256Y229739D01*
Y231339D01*
X123056Y232139D01*
X124462D01*
X125262Y232939D01*
Y234539D01*
X124462Y235339D01*
X123056D01*
X122256Y236139D01*
Y237739D01*
X123056Y238539D01*
X124462D01*
X125262Y239339D01*
Y245105D01*
X126062Y245905D01*
X127571D01*
X128371Y246705D01*
Y248155D01*
X129171Y248955D01*
X130771D01*
X131571Y248155D01*
Y246705D01*
X132371Y245905D01*
X133971D01*
X134771Y246705D01*
Y248155D01*
X135571Y248955D01*
X137171D01*
X137971Y248155D01*
Y246705D01*
X138771Y245905D01*
X146457D01*
G01X151540Y179199D02*
Y185012D01*
X169253Y202725D01*
Y212345D01*
X164467Y217131D01*
X159338D01*
X158538Y217931D01*
Y219084D01*
X157738Y219884D01*
X156138D01*
X155338Y219084D01*
Y217931D01*
X154538Y217131D01*
X152938D01*
X152138Y217931D01*
Y219084D01*
X151338Y219884D01*
X149738D01*
X148938Y219084D01*
Y217931D01*
X148138Y217131D01*
X146538D01*
X145738Y217931D01*
Y219084D01*
X144938Y219884D01*
X143338D01*
X142538Y219084D01*
Y217931D01*
X141738Y217131D01*
X140138D01*
X139338Y217931D01*
Y219084D01*
X138538Y219884D01*
X136938D01*
X136138Y219084D01*
Y217931D01*
X135338Y217131D01*
X134038D01*
X128656Y222513D01*
Y240107D01*
X131382Y242833D01*
X147447D01*
X148819Y244205D01*
Y245905D01*
G01X153867Y181477D02*
Y184560D01*
X154894Y185587D01*
Y185589D01*
X161946Y192641D01*
X161948D01*
X173022Y203715D01*
Y203793D01*
X173191Y203962D01*
Y212727D01*
X162744Y223174D01*
Y224673D01*
X161944Y225473D01*
X160344D01*
X159544Y224673D01*
Y223174D01*
X158744Y222374D01*
X157144D01*
X156344Y223174D01*
Y224673D01*
X155544Y225473D01*
X153944D01*
X153144Y224673D01*
Y223174D01*
X152344Y222374D01*
X150744D01*
X149944Y223174D01*
Y224673D01*
X149144Y225473D01*
X147544D01*
X146744Y224673D01*
Y223174D01*
X145944Y222374D01*
X144344D01*
X143544Y223174D01*
Y224673D01*
X142744Y225473D01*
X141144D01*
X140344Y224673D01*
Y223174D01*
X139544Y222374D01*
X137026D01*
X134549Y224851D01*
Y226151D01*
X135349Y226951D01*
X136523D01*
X137323Y227751D01*
Y229351D01*
X136523Y230151D01*
X135349D01*
X134549Y230951D01*
Y237043D01*
X137393Y239887D01*
X138693D01*
X139493Y239087D01*
Y237842D01*
X140293Y237042D01*
X141893D01*
X142693Y237842D01*
Y239087D01*
X143493Y239887D01*
X149225D01*
X153543Y244205D01*
Y245905D01*
G01X165310Y256558D02*
X117571D01*
X114077Y253064D01*
Y169510D01*
X117552Y166035D01*
G01X70866Y245905D02*
Y239185D01*
X89239Y220812D01*
X90369D01*
X91880Y222324D01*
X93010D01*
X94143Y221191D01*
Y220061D01*
X92632Y218549D01*
Y217419D01*
X93765Y216286D01*
X94895D01*
X96406Y217798D01*
X97536D01*
X98669Y216665D01*
Y215535D01*
X97158Y214023D01*
Y212893D01*
X98291Y211760D01*
X99421D01*
X100932Y213272D01*
X102062D01*
X103195Y212139D01*
Y211009D01*
X101684Y209497D01*
Y208367D01*
X102817Y207234D01*
X103947D01*
X105458Y208746D01*
X106588D01*
X107721Y207613D01*
Y206483D01*
X106210Y204971D01*
Y203841D01*
X110089Y199962D01*
Y197723D01*
X109289Y196923D01*
X107565D01*
X106765Y196123D01*
Y194523D01*
X107565Y193723D01*
X109289D01*
X110089Y192923D01*
Y191323D01*
X109289Y190523D01*
X107565D01*
X106765Y189723D01*
Y188123D01*
X107565Y187323D01*
X109289D01*
X110089Y186523D01*
Y184923D01*
X109289Y184123D01*
X107565D01*
X106765Y183323D01*
Y181723D01*
X107565Y180923D01*
X109289D01*
X110089Y180123D01*
Y169633D01*
X117300Y162422D01*
X120198D01*
G01X66142Y245905D02*
Y236056D01*
X67491Y234707D01*
Y233577D01*
X66386Y232473D01*
Y231343D01*
X67519Y230210D01*
X68649D01*
X69754Y231314D01*
X70884D01*
X72017Y230181D01*
Y229051D01*
X70912Y227947D01*
Y226817D01*
X72045Y225684D01*
X73175D01*
X74280Y226788D01*
X75410D01*
X76543Y225655D01*
Y224525D01*
X75438Y223421D01*
Y222291D01*
X76571Y221158D01*
X77701D01*
X78806Y222262D01*
X79936D01*
X81069Y221129D01*
Y219999D01*
X79964Y218895D01*
Y217765D01*
X81097Y216632D01*
X82227D01*
X83332Y217736D01*
X84462D01*
X85595Y216603D01*
Y215473D01*
X84490Y214369D01*
Y213239D01*
X85623Y212106D01*
X86753D01*
X87858Y213210D01*
X88988D01*
X90121Y212077D01*
Y210947D01*
X89016Y209843D01*
Y208713D01*
X90149Y207580D01*
X91279D01*
X92384Y208684D01*
X93514D01*
X94647Y207551D01*
Y206421D01*
X93542Y205317D01*
Y204187D01*
X94675Y203054D01*
X95805D01*
X96910Y204158D01*
X98040D01*
X99173Y203025D01*
Y201895D01*
X98068Y200791D01*
Y199661D01*
X99201Y198528D01*
X100331D01*
X101436Y199632D01*
X102566D01*
X103488Y198710D01*
Y169535D01*
X112928Y160095D01*
X117920D01*
G01X63780Y245905D02*
Y227454D01*
X69402Y221832D01*
Y202363D01*
X70202Y201563D01*
X71334D01*
X72495Y202724D01*
X73627D01*
X74758Y201593D01*
Y200461D01*
X73339Y199042D01*
Y197910D01*
X74470Y196779D01*
X75602D01*
X77021Y198198D01*
X78153D01*
X79284Y197067D01*
Y195935D01*
X77865Y194516D01*
Y193384D01*
X78996Y192253D01*
X80128D01*
X81547Y193672D01*
X82679D01*
X83810Y192541D01*
Y191409D01*
X82391Y189990D01*
Y188858D01*
X83522Y187727D01*
X84654D01*
X86073Y189146D01*
X87205D01*
X88336Y188015D01*
Y186883D01*
X86917Y185464D01*
Y184332D01*
X88048Y183201D01*
X89180D01*
X90599Y184620D01*
X91731D01*
X92862Y183489D01*
Y182357D01*
X91443Y180938D01*
Y178466D01*
X112141Y157768D01*
X120198D01*
G01X150214Y206861D02*
X128738D01*
X120806Y198929D01*
X119106D01*
G01X253937Y213621D02*
Y209202D01*
X248592Y203857D01*
Y202725D01*
X249601Y201716D01*
Y200584D01*
X248470Y199453D01*
X247338D01*
X246329Y200462D01*
X245197D01*
X244066Y199331D01*
Y198199D01*
X245075Y197190D01*
Y196058D01*
X243944Y194927D01*
X242812D01*
X241803Y195936D01*
X240671D01*
X239540Y194805D01*
Y193673D01*
X240549Y192664D01*
Y191532D01*
X239418Y190401D01*
X238286D01*
X237277Y191410D01*
X236145D01*
X235014Y190279D01*
Y189147D01*
X236023Y188138D01*
Y187006D01*
X234892Y185875D01*
X233760D01*
X232751Y186884D01*
X231619D01*
X230488Y185753D01*
Y184621D01*
X231497Y183612D01*
Y182480D01*
X230366Y181349D01*
X229234D01*
X228225Y182358D01*
X227093D01*
X225962Y181227D01*
Y180095D01*
X226971Y179086D01*
Y177954D01*
X225840Y176823D01*
X224708D01*
X223699Y177832D01*
X222567D01*
X221436Y176701D01*
Y175569D01*
X222445Y174560D01*
Y173428D01*
X221314Y172297D01*
X220182D01*
X219173Y173306D01*
X218041D01*
X205070Y160335D01*
Y156060D01*
X195000Y145990D01*
Y137593D01*
X184572Y127165D01*
X181746D01*
G01X179468Y129492D02*
X184106D01*
X192857Y138243D01*
Y156618D01*
X200964Y164725D01*
X202480D01*
X202986Y164219D01*
X204118D01*
X205249Y165350D01*
Y166482D01*
X204743Y166988D01*
Y168120D01*
X205874Y169251D01*
X207006D01*
X207512Y168745D01*
X208644D01*
X209775Y169876D01*
Y171008D01*
X209269Y171514D01*
Y172646D01*
X210400Y173777D01*
X211532D01*
X212038Y173271D01*
X213170D01*
X214301Y174402D01*
Y175534D01*
X213795Y176040D01*
Y177172D01*
X214926Y178303D01*
X216058D01*
X216564Y177797D01*
X217696D01*
X218827Y178928D01*
Y180060D01*
X218321Y180566D01*
Y181698D01*
X219452Y182829D01*
X220584D01*
X221090Y182323D01*
X222222D01*
X223353Y183454D01*
Y184586D01*
X222847Y185092D01*
Y186224D01*
X223978Y187355D01*
X225110D01*
X225616Y186849D01*
X226748D01*
X227879Y187980D01*
Y189112D01*
X227373Y189618D01*
Y190750D01*
X228504Y191881D01*
X229636D01*
X230142Y191375D01*
X231274D01*
X232405Y192506D01*
Y193638D01*
X231899Y194144D01*
Y195276D01*
X233030Y196407D01*
X234162D01*
X234668Y195901D01*
X235800D01*
X236931Y197032D01*
Y198164D01*
X236425Y198670D01*
Y199802D01*
X237556Y200933D01*
X238688D01*
X239194Y200427D01*
X240326D01*
X241457Y201558D01*
Y202690D01*
X240951Y203196D01*
Y204328D01*
X242082Y205459D01*
X243214D01*
X243720Y204953D01*
X244852D01*
X245983Y206084D01*
Y207216D01*
X245477Y207722D01*
Y208854D01*
X249213Y212590D01*
Y213621D01*
G01X246850D02*
X244994Y211765D01*
X239574D01*
X237889Y210080D01*
X236759D01*
X235709Y211129D01*
X234579D01*
X233446Y209996D01*
Y208866D01*
X234496Y207817D01*
Y206687D01*
X233363Y205554D01*
X232233D01*
X231183Y206603D01*
X230053D01*
X228920Y205470D01*
Y204340D01*
X229970Y203291D01*
Y202161D01*
X228837Y201028D01*
X227707D01*
X226657Y202077D01*
X225527D01*
X224394Y200944D01*
Y199814D01*
X225444Y198765D01*
Y197635D01*
X224311Y196502D01*
X223181D01*
X222131Y197551D01*
X221001D01*
X219868Y196418D01*
Y195288D01*
X220918Y194239D01*
Y193109D01*
X219785Y191976D01*
X218655D01*
X217605Y193025D01*
X216475D01*
X215342Y191892D01*
Y190762D01*
X216392Y189713D01*
Y188583D01*
X209550Y181741D01*
Y180611D01*
X209969Y180193D01*
Y179063D01*
X208836Y177930D01*
X207705D01*
X207287Y178348D01*
X206157D01*
X205024Y177215D01*
Y176085D01*
X205443Y175667D01*
Y174537D01*
X204310Y173404D01*
X203179D01*
X202761Y173822D01*
X201631D01*
X198700Y170891D01*
Y169759D01*
X199315Y169144D01*
Y168012D01*
X198184Y166881D01*
X197052D01*
X196437Y167496D01*
X195305D01*
X194174Y166365D01*
Y165233D01*
X194789Y164618D01*
Y163486D01*
X193658Y162355D01*
X192526D01*
X191911Y162970D01*
X190779D01*
X189858Y162049D01*
Y137892D01*
X183785Y131819D01*
X181746D01*
G01X179468Y134146D02*
X183452D01*
X184579Y135273D01*
Y162994D01*
X185532Y163947D01*
X187279D01*
X188259Y164927D01*
Y166313D01*
X186690Y167882D01*
Y170693D01*
X187256Y171259D01*
X187822D01*
X189374Y169707D01*
X190506D01*
X191637Y170838D01*
Y171970D01*
X190085Y173522D01*
Y174654D01*
X191216Y175785D01*
X192348D01*
X193900Y174233D01*
X195032D01*
X196163Y175364D01*
Y176496D01*
X194611Y178048D01*
Y179180D01*
X195742Y180311D01*
X196874D01*
X198426Y178759D01*
X199558D01*
X200689Y179890D01*
Y181022D01*
X199137Y182574D01*
Y183706D01*
X200268Y184837D01*
X201400D01*
X202952Y183285D01*
X204084D01*
X205215Y184416D01*
Y185548D01*
X203663Y187100D01*
Y188232D01*
X207645Y192215D01*
X208775D01*
X209947Y191043D01*
X211079D01*
X212210Y192174D01*
Y193306D01*
X211038Y194478D01*
Y195608D01*
X229052Y213621D01*
X242126D01*
G01X216142D02*
Y211921D01*
X213176Y208955D01*
Y207823D01*
X214448Y206551D01*
Y205419D01*
X213317Y204288D01*
X212185D01*
X210913Y205560D01*
X209781D01*
X208650Y204429D01*
Y203297D01*
X209922Y202025D01*
Y200893D01*
X208791Y199762D01*
X207659D01*
X206387Y201034D01*
X205255D01*
X204124Y199903D01*
Y198771D01*
X205396Y197499D01*
Y196367D01*
X204265Y195236D01*
X203133D01*
X201861Y196508D01*
X200729D01*
X199598Y195377D01*
Y194245D01*
X200870Y192973D01*
Y191841D01*
X199739Y190710D01*
X198607D01*
X197335Y191982D01*
X196203D01*
X195072Y190851D01*
Y189719D01*
X196344Y188447D01*
Y187315D01*
X195213Y186184D01*
X194081D01*
X192809Y187456D01*
X191677D01*
X190546Y186325D01*
Y185193D01*
X191818Y183921D01*
Y182789D01*
X190687Y181658D01*
X189555D01*
X188283Y182930D01*
X187151D01*
X186020Y181799D01*
Y180667D01*
X187292Y179395D01*
Y178263D01*
X186161Y177132D01*
X185029D01*
X183757Y178404D01*
X182625D01*
X181494Y177273D01*
Y176141D01*
X182766Y174869D01*
Y173737D01*
X181635Y172606D01*
X180503D01*
X179231Y173878D01*
X178099D01*
X176968Y172747D01*
Y171615D01*
X178240Y170343D01*
Y169211D01*
X177109Y168080D01*
X175977D01*
X174705Y169352D01*
X173573D01*
X172652Y168431D01*
Y140059D01*
X176238Y136473D01*
X182622D01*
G01X156194Y179199D02*
Y184890D01*
X162645Y191341D01*
X166029D01*
X177419Y202731D01*
Y217550D01*
X166854Y228115D01*
X160090D01*
X159290Y228915D01*
Y231487D01*
X158490Y232287D01*
X156890D01*
X156090Y231487D01*
Y228915D01*
X155290Y228115D01*
X153690D01*
X152890Y228915D01*
Y231487D01*
X152090Y232287D01*
X150490D01*
X149690Y231487D01*
Y228915D01*
X148890Y228115D01*
X142683D01*
X141883Y228915D01*
Y234122D01*
X142683Y234922D01*
X148285D01*
X153196Y239833D01*
X155831D01*
X158638Y242640D01*
Y248853D01*
X157838Y249653D01*
X156706D01*
X155906Y248853D01*
Y245905D01*
G01X162992D02*
X168299Y240598D01*
X172903D01*
X174034Y240597D01*
X175818Y242380D01*
X176948D01*
X178081Y241247D01*
Y240117D01*
X176297Y238334D01*
Y237204D01*
X177430Y236071D01*
X178560D01*
X180344Y237854D01*
X181474D01*
X182607Y236721D01*
Y235591D01*
X180823Y233808D01*
Y232678D01*
X181956Y231545D01*
X183086D01*
X184870Y233328D01*
X186000D01*
X187133Y232195D01*
Y231065D01*
X185349Y229282D01*
Y228152D01*
X192105Y221396D01*
Y201074D01*
X190012Y198981D01*
X188880D01*
X187102Y200759D01*
X185970D01*
X184839Y199628D01*
Y198496D01*
X186617Y196718D01*
Y195586D01*
X185486Y194455D01*
X184354D01*
X182576Y196233D01*
X181444D01*
X180313Y195102D01*
Y193970D01*
X182091Y192192D01*
Y191060D01*
X180960Y189929D01*
X179828D01*
X178050Y191707D01*
X176918D01*
X175787Y190576D01*
Y189444D01*
X177565Y187666D01*
Y186534D01*
X176077Y185046D01*
X168490D01*
X167395Y186141D01*
X164740D01*
X160848Y182249D01*
Y179199D01*
G01X167717Y245905D02*
Y253732D01*
X169042Y255057D01*
X181318D01*
X182529Y253846D01*
Y253830D01*
X183329Y253030D01*
X184612D01*
X185412Y252230D01*
Y250630D01*
X184612Y249830D01*
X183329D01*
X182529Y249030D01*
Y247430D01*
X183329Y246630D01*
X184612D01*
X185412Y245830D01*
Y244230D01*
X184612Y243430D01*
X183329D01*
X182529Y242630D01*
Y240115D01*
X194696Y227948D01*
Y198551D01*
X177622Y181477D01*
X176075D01*
X175275Y180677D01*
Y177390D01*
X174475Y176590D01*
X172875D01*
X172075Y177390D01*
Y180677D01*
X171275Y181477D01*
X169675D01*
X168875Y180677D01*
Y177390D01*
X168075Y176590D01*
X166475D01*
X165675Y177390D01*
Y180677D01*
X164875Y181477D01*
X163175D01*
G01X158521D02*
Y185094D01*
X162974Y189547D01*
X171153D01*
X176737Y195131D01*
Y196263D01*
X175755Y197245D01*
Y198377D01*
X176886Y199508D01*
X178018D01*
X179000Y198526D01*
X180132D01*
X181263Y199657D01*
Y200789D01*
X180281Y201771D01*
Y202903D01*
X181412Y204034D01*
X182544D01*
X183526Y203052D01*
X184658D01*
X185750Y204144D01*
Y205646D01*
X184950Y206446D01*
X182779D01*
X181979Y207246D01*
Y208846D01*
X182779Y209646D01*
X184950D01*
X185750Y210446D01*
Y212046D01*
X184950Y212846D01*
X182779D01*
X181979Y213646D01*
Y215246D01*
X182779Y216046D01*
X184950D01*
X185750Y216846D01*
Y219085D01*
X184469Y220366D01*
X183339D01*
X181508Y218536D01*
X180378D01*
X179245Y219669D01*
Y220799D01*
X181076Y222629D01*
Y223759D01*
X179943Y224892D01*
X178813D01*
X176982Y223062D01*
X175852D01*
X174719Y224195D01*
Y225325D01*
X176550Y227155D01*
Y228285D01*
X175417Y229418D01*
X174287D01*
X172456Y227588D01*
X171326D01*
X170193Y228721D01*
Y229851D01*
X172024Y231681D01*
Y232811D01*
X170891Y233944D01*
X169761D01*
X167930Y232114D01*
X166800D01*
X165667Y233247D01*
Y234377D01*
X167498Y236207D01*
Y237337D01*
X166365Y238470D01*
X165235D01*
X163404Y236640D01*
X162274D01*
X161141Y237773D01*
Y238903D01*
X162972Y240733D01*
Y241863D01*
X160630Y244205D01*
Y245905D01*
M02*
