G04 ================== begin FILE IDENTIFICATION RECORD ==================*
G04 Layout Name:  G:/project_development/GitHub/ysyx3-pcb/PCB/ysyx3_pcb.brd*
G04 Film Name:    BOTTOM*
G04 File Format:  Gerber RS274X*
G04 File Origin:  Cadence Allegro 16.6-2015-S066*
G04 Origin Date:  Fri Jan 06 10:04:32 2023*
G04 *
G04 Layer:  VIA CLASS/BOTTOM*
G04 Layer:  PIN/BOTTOM*
G04 Layer:  ETCH/BOTTOM*
G04 Layer:  BOARD GEOMETRY/OUTLINE*
G04 *
G04 Offset:    (0.00 0.00)*
G04 Mirror:    No*
G04 Mode:      Positive*
G04 Rotation:  0*
G04 FullContactRelief:  No*
G04 UndefLineWidth:     6.00*
G04 ================== end FILE IDENTIFICATION RECORD ====================*
%FSLAX55Y55*MOIN*%
%IR0*IPPOS*OFA0.00000B0.00000*MIA0B0*SFA1.00000B1.00000*%
%ADD11C,.018*%
%ADD16C,.02008*%
%ADD15C,.09055*%
%ADD10C,.06693*%
%ADD12C,.06299*%
%ADD13R,.1378X.1811*%
%ADD14R,.01378X.07874*%
%ADD17C,.02*%
%ADD18C,.006*%
%ADD19C,.008*%
%ADD26R,.04745X.08878*%
%ADD27R,.09469X.08878*%
%ADD23C,.03012*%
%ADD29C,.07302*%
%ADD20C,.02804*%
%ADD31C,.07696*%
%ADD21C,.07879*%
%ADD22C,.10058*%
%ADD24R,.23626X.23626*%
%ADD30R,.0238X.08876*%
%ADD28R,.02382X.08876*%
%ADD25R,.04744X.08878*%
G75*
%LPD*%
G75*
G36*
G01X3180Y258843D02*
X32516D01*
X33954Y257404D01*
Y227813D01*
X32895Y226754D01*
Y224450D01*
X32889Y224426D01*
G03Y223764I1363J-331D01*
G01X32895Y223740D01*
Y208531D01*
X47945Y193481D01*
Y84333D01*
X51047Y81231D01*
X83306D01*
X85168Y79370D01*
Y55917D01*
X85052Y55863D01*
G03Y53319I590J-1272D01*
G01X85168Y53265D01*
Y47665D01*
X91417Y41416D01*
X143715D01*
G03X146221I1253J629D01*
G01X148928D01*
G03X151062I1067J910D01*
G01X153715D01*
G03X156221I1253J629D01*
G01X178283D01*
X182172Y37527D01*
Y30361D01*
X179777Y27966D01*
X173333D01*
X159907Y14540D01*
Y4098D01*
X158011Y2202D01*
X4176D01*
X2048Y4330D01*
Y255141D01*
X2050Y255142D01*
Y257713D01*
X3180Y258843D01*
G37*
G36*
G01X277280Y2004D02*
G02X276982Y2671I0J400D01*
G01Y17696D01*
X235722Y58956D01*
Y59804D01*
G02X236405Y60087I400J0D01*
G01X252680Y43812D01*
X252678Y43726D01*
G03X254041Y45089I1401J-38D01*
G01X253955Y45087D01*
X237262Y61780D01*
Y63265D01*
G02X237944Y63548I400J0D01*
G01X257680Y43812D01*
X257678Y43726D01*
G03X259041Y45089I1401J-38D01*
G01X258955Y45087D01*
X239328Y64714D01*
Y66199D01*
G02X240010Y66482I400J0D01*
G01X262680Y43812D01*
X262678Y43726D01*
G03X264041Y45089I1401J-38D01*
G01X263955Y45087D01*
X241468Y67574D01*
Y69059D01*
G02X242150Y69342I400J0D01*
G01X267680Y43812D01*
X267678Y43726D01*
G03X270432Y43320I1401J-38D01*
G02X271101Y43498I386J-105D01*
G01X271812Y42786D01*
X273005D01*
G03Y44590I1074J902D01*
G01X272558D01*
X258784Y58364D01*
Y62335D01*
X248274Y72844D01*
Y115098D01*
X221488Y141884D01*
X200482D01*
G02X200137Y142487I0J400D01*
G03X200195Y143801I-1208J712D01*
G02X200556Y144374I361J173D01*
G01X210486D01*
X215181Y149068D01*
X215267Y149066D01*
G03X213904Y150429I38J1401D01*
G01X213906Y150343D01*
X209740Y146176D01*
X204122D01*
G02X203839Y146859I0J400D01*
G01X207408Y150428D01*
Y156774D01*
X203219Y160963D01*
G03X201095Y158839I-1062J-1062D01*
G01X204404Y155530D01*
Y151672D01*
X201095Y148363D01*
G03X200769Y146729I1062J-1061D01*
G02X200399Y146176I-370J-153D01*
G01X198824D01*
X188587Y156414D01*
X183507D01*
G03X182668Y156894I-1073J-902D01*
G01X182502Y156922D01*
Y158756D01*
X182668Y158784D01*
G03X183834Y160204I-235J1382D01*
G01X183832Y160290D01*
X185901Y162360D01*
X210014D01*
X213906Y158467D01*
X213904Y158381D01*
G03X215267Y159744I1401J-38D01*
G01X215181Y159742D01*
X210760Y164162D01*
X185155D01*
X183184Y162192D01*
G02X182502Y162475I-282J283D01*
G01Y163183D01*
G02X182874Y163582I400J0D01*
G03X183680Y166055I-95J1399D01*
G01Y168945D01*
X188025Y173290D01*
X206960D01*
X213906Y166343D01*
X213904Y166257D01*
G03X215961Y164980I1401J-38D01*
G01X216005Y165003D01*
X216254D01*
Y164505D01*
X215429Y163680D01*
X215343Y163682D01*
G03X216706Y162319I-38J-1401D01*
G01X216704Y162405D01*
X217354Y163055D01*
G02X218036Y162772I282J-283D01*
G01Y158411D01*
X215429Y155804D01*
X215343Y155806D01*
G03X216706Y154443I-38J-1401D01*
G01X216704Y154529D01*
X219840Y157665D01*
Y168684D01*
X209610Y178914D01*
X191281D01*
G02X190998Y179596I0J400D01*
G01X213902Y202499D01*
Y206601D01*
X211818Y208684D01*
X214682Y211548D01*
Y212547D01*
G03X214814Y212674I-904J1072D01*
G02X215108I147J-135D01*
G03X217333Y214361I1034J947D01*
G01Y223297D01*
X212589D01*
Y214361D01*
G03X212816Y212603I1191J-740D01*
G01X212878Y212544D01*
Y212294D01*
X210543Y209959D01*
X209694Y210808D01*
X209956Y211071D01*
Y212547D01*
G03X210246Y214361I-901J1074D01*
G01Y223297D01*
X205502D01*
Y214361D01*
G03X207727Y212674I1191J-740D01*
G02X208021I147J-135D01*
G03X208154Y212547I1033J948D01*
G01Y211817D01*
X207638Y211302D01*
X199099D01*
X184519Y196721D01*
G02X183836Y197004I-283J283D01*
G01Y205369D01*
G02X184519Y205652I400J0D01*
G01X185453Y204718D01*
X190555D01*
X191884Y206047D01*
Y208624D01*
X189194Y211314D01*
X189196Y211400D01*
G03X188455Y212675I-1401J38D01*
G02X188360Y213311I188J353D01*
G01X188595Y213546D01*
X188777Y213364D01*
X188790Y213308D01*
G03X191348Y214361I1367J313D01*
G01Y223297D01*
X186604D01*
Y214419D01*
X186696Y214197D01*
X182956Y210456D01*
Y207831D01*
G02X182273Y207549I-400J1D01*
G01X180688Y209133D01*
G02X180817Y209785I283J283D01*
G03X178984Y211618I-538J1295D01*
G02X178332Y211489I-369J154D01*
G01X177976Y211846D01*
X151526D01*
X147526Y207845D01*
Y198280D01*
X145614D01*
X145468Y198135D01*
X143814Y199788D01*
Y214419D01*
X184262D01*
Y223297D01*
X122556D01*
Y235789D01*
X121227Y237118D01*
X117158D01*
X115830Y235789D01*
Y226385D01*
G02X115488Y226244I-200J0D01*
G01X115202Y226530D01*
Y226539D01*
X110766Y230975D01*
Y231359D01*
X119188Y239783D01*
Y241659D01*
X117527Y243320D01*
X115651D01*
X107228Y234896D01*
X106844D01*
X106240Y235501D01*
Y235885D01*
X114662Y244309D01*
Y246185D01*
X113001Y247846D01*
X111125D01*
X102702Y239422D01*
X102318D01*
X97770Y243970D01*
X97761D01*
X97010Y244722D01*
X89860D01*
X88801Y245781D01*
X88803Y245867D01*
G03X88593Y246645I-1401J39D01*
G01Y255581D01*
X83848D01*
Y246645D01*
G03X83638Y245867I1191J-739D01*
G01X83640Y245781D01*
X81899Y244040D01*
G02X81216Y244323I-283J283D01*
G01Y244831D01*
G03X81506Y246645I-901J1074D01*
G01Y255581D01*
X76762D01*
Y246703D01*
X78558D01*
G02X78948Y246215I0J-400D01*
G03X79351Y244887I1367J-310D01*
G01X79414Y244828D01*
Y244578D01*
X78790Y243954D01*
X73174D01*
X69394Y240175D01*
Y229030D01*
X71253Y227172D01*
X79080D01*
X80408Y228500D01*
Y229775D01*
X80680Y230046D01*
X81534D01*
X81806Y229775D01*
Y228500D01*
X83134Y227172D01*
X85480D01*
X86808Y228500D01*
Y229775D01*
X87080Y230046D01*
X87934D01*
X88206Y229775D01*
Y228500D01*
X89534Y227172D01*
X91880D01*
X93208Y228500D01*
Y229775D01*
X93480Y230046D01*
X94334D01*
X94606Y229775D01*
Y228500D01*
X95934Y227172D01*
X98280D01*
X99608Y228500D01*
Y229775D01*
X99880Y230046D01*
X100734D01*
X101006Y229775D01*
Y228500D01*
X102334Y227172D01*
X108202D01*
X110642Y224732D01*
Y224568D01*
X110742Y224468D01*
Y215132D01*
X110011Y214402D01*
X108671D01*
Y223297D01*
X103927D01*
Y214402D01*
X101585D01*
Y223297D01*
X96840D01*
Y214402D01*
X94498D01*
Y223297D01*
X89754D01*
Y214402D01*
X87411D01*
Y223297D01*
X82667D01*
Y214402D01*
X80325D01*
Y223297D01*
X70856D01*
Y214402D01*
X69249D01*
X68802Y213954D01*
X68632Y214123D01*
X68617Y214160D01*
G03X68514Y214361I-1295J-537D01*
G01Y223297D01*
X63770D01*
Y214361D01*
G03X65880Y212562I1191J-740D01*
G02X66404I262J-302D01*
G03X66583Y212430I919J1059D01*
G02X66655Y211807I-211J-340D01*
G01X57448Y202601D01*
Y157798D01*
X57799D01*
X83299Y132298D01*
X129601D01*
X151419Y154117D01*
G02X152102Y153834I283J-283D01*
G01Y144284D01*
X168536Y127850D01*
X169792D01*
G02X170150Y127271I0J-400D01*
G03X170441Y125628I1255J-625D01*
G01X170504Y125569D01*
Y125200D01*
X170210D01*
X170151Y125271D01*
G03X168176Y123294I-1073J-903D01*
G01Y122856D01*
G02X167494Y122573I-400J0D01*
G01X165823Y124244D01*
X165825Y124330D01*
G03X163351Y125271I-1401J38D01*
G01X163292Y125200D01*
X162998D01*
Y125569D01*
X163061Y125628D01*
G03X161133I-964J1018D01*
G01X161196Y125569D01*
Y125200D01*
X160902D01*
X160843Y125271D01*
G03X158868Y123294I-1073J-903D01*
G01Y114248D01*
X159688Y113429D01*
Y87806D01*
G02X159005Y87523I-400J0D01*
G01X157142Y89386D01*
Y125070D01*
X157319Y125247D01*
X157405Y125245D01*
G03X156042Y126608I38J1401D01*
G01X156044Y126522D01*
X155338Y125816D01*
Y99559D01*
G02X154817Y99178I-400J0D01*
G03Y96508I-428J-1335D01*
G02X155338Y96127I121J-381D01*
G01Y88640D01*
X187637Y56342D01*
X210131D01*
X222082Y44390D01*
X222080Y44304D01*
G03X224861Y44021I1401J-38D01*
G02X225538Y44234I394J-70D01*
G01X226408Y43364D01*
X227407D01*
G03X229209Y43068I1073J902D01*
G02X229482Y43003I103J-171D01*
G03X229820Y42816I338J213D01*
G01X232142D01*
G03X232480Y43003I0J400D01*
G02X232753Y43068I170J-106D01*
G03X234778Y43735I728J1198D01*
G01X234829Y43859D01*
X235164D01*
Y43088D01*
X233202Y41126D01*
X222895D01*
X219880Y44142D01*
X219882Y44228D01*
G03X218519Y42865I-1401J38D01*
G01X218605Y42867D01*
X221522Y39950D01*
G02X221239Y39268I-283J-282D01*
G01X219533D01*
X203151Y55650D01*
X186122D01*
X154099Y87672D01*
X88891D01*
X86355Y85136D01*
G02X85674Y85457I-283J283D01*
G03X84620Y83219I-3635J345D01*
G02X85302Y82936I282J-283D01*
G01Y80910D01*
G02X84620Y80627I-400J0D01*
G01X83514Y81732D01*
X51255D01*
X50952Y82035D01*
X51171Y82253D01*
X51277Y82230D01*
G03X49162Y88048I762J3571D01*
G02X48446Y88295I-316J246D01*
G01Y113307D01*
G02X49162Y113554I400J1D01*
G03Y118048I2877J2247D01*
G02X48446Y118295I-316J246D01*
G01Y193689D01*
X33396Y208739D01*
Y226546D01*
X34456Y227605D01*
Y245684D01*
X34458Y245698D01*
G03Y246112I-1387J207D01*
G01X34456Y246126D01*
Y257611D01*
X32724Y259344D01*
X2972D01*
X2687Y259059D01*
G02X2004Y259342I-283J283D01*
G01Y295500D01*
G02X4500Y297996I2496J0D01*
G01X295500D01*
G02X297996Y295500I0J-2496D01*
G01Y4500D01*
G02X295500Y2004I-2496J0D01*
G01X277280D01*
G37*
G36*
G01X185914Y55148D02*
X202943D01*
X219325Y38766D01*
X235226D01*
X237702Y41242D01*
Y44987D01*
X224112Y58577D01*
G02X224289Y59246I283J283D01*
G03X222568Y60967I-369J1352D01*
G02X221899Y60790I-386J106D01*
G01X218772Y63917D01*
X212586D01*
X212532Y63972D01*
X201800D01*
X198566Y67206D01*
Y88192D01*
X200894Y90520D01*
X221974D01*
X221976Y90518D01*
X231867D01*
X235221Y87164D01*
Y59945D01*
G02X234661Y59579I-400J0D01*
G03X235403Y57776I-561J-1285D01*
G02X236057Y57912I372J-147D01*
G01X276481Y17488D01*
Y2880D01*
X275854Y2253D01*
X161986D01*
X160487Y3752D01*
Y14386D01*
X173442Y27341D01*
X180131D01*
X182908Y30118D01*
Y37747D01*
X178156Y42499D01*
X173155D01*
G02X172757Y42935I0J400D01*
G03X169965I-1396J128D01*
G02X169567Y42499I-398J-36D01*
G01X156301D01*
X156248Y42617D01*
G03X153688I-1280J-572D01*
G01X153635Y42499D01*
X151395D01*
X151358Y42652D01*
G03X148632I-1363J-326D01*
G01X148595Y42499D01*
X146301D01*
X146248Y42617D01*
G03X143688I-1280J-572D01*
G01X143635Y42499D01*
X91760D01*
X85804Y48455D01*
Y53189D01*
X85959Y53225D01*
G03Y55957I-317J1366D01*
G01X85804Y55993D01*
Y83876D01*
X89099Y87171D01*
X153891D01*
X185914Y55148D01*
G37*
G36*
G01X227720Y51034D02*
X216022Y62733D01*
G02X216305Y63416I283J283D01*
G01X218564D01*
X230262Y51717D01*
G02X229980Y51034I-283J-283D01*
G01X227720D01*
G37*
G36*
G01X191184Y63764D02*
X185276Y69672D01*
Y90440D01*
G02X185959Y90722I400J-1D01*
G01X186821Y89860D01*
X196003D01*
X207086Y100944D01*
Y116785D01*
G02X207769Y117068I400J0D01*
G01X235458Y89379D01*
Y88601D01*
G02X234776Y88319I-400J1D01*
G01X232075Y91020D01*
X222184D01*
X222182Y91022D01*
X200686D01*
X198064Y88400D01*
Y66998D01*
X200615Y64447D01*
G02X200333Y63764I-283J-283D01*
G01X191184D01*
G37*
G36*
G01X185529Y151172D02*
X183039Y153662D01*
G02X183125Y154292I283J282D01*
G03X183507Y154610I-692J1220D01*
G01X187841D01*
X197823Y144628D01*
G02X197848Y144091I-283J-282D01*
G03X197658Y143789I1082J-891D01*
G02X197012Y143675I-363J169D01*
G01X189515Y151172D01*
X185529D01*
G37*
G36*
G01X175328Y81767D02*
Y99755D01*
G02X176001Y100047I400J0D01*
G03Y102095I957J1024D01*
G02X175328Y102387I-273J292D01*
G01Y111224D01*
G02X176010Y111507I400J0D01*
G01X179232Y108285D01*
Y104937D01*
G03X180933Y102711I902J-1074D01*
G02X181560Y102382I227J-329D01*
G01Y86337D01*
X177240Y82017D01*
X177154Y82019D01*
G03X176036Y81512I-38J-1401D01*
G02X175328Y81767I-308J255D01*
G37*
G36*
G01X172842Y76413D02*
X161490Y87764D01*
Y99603D01*
G02X162122Y99929I400J0D01*
G03Y102213I813J1142D01*
G02X161490Y102539I-232J326D01*
G01Y114175D01*
X160672Y114994D01*
Y116403D01*
X161024Y116532D01*
G03X161127Y116423I1069J907D01*
G01X161189Y116363D01*
X161184Y115080D01*
X162435Y113821D01*
X162428Y111805D01*
Y106869D01*
X170352Y98946D01*
Y94291D01*
X169861Y93800D01*
X167186D01*
X165156Y91770D01*
Y90471D01*
X164778Y90094D01*
X164692Y90096D01*
G03X166055Y88733I-38J-1401D01*
G01X166053Y88819D01*
X166658Y89424D01*
X167262Y88819D01*
X167260Y88733D01*
G03X168623Y90096I1401J-38D01*
G01X168537Y90094D01*
X168158Y90472D01*
Y90526D01*
X168430Y90798D01*
X171105D01*
X172842Y92534D01*
G02X173524Y92251I282J-283D01*
G01Y76696D01*
G02X172842Y76413I-400J0D01*
G37*
G36*
G01Y100703D02*
X165432Y108113D01*
Y111798D01*
X165438Y113810D01*
X166698Y115061D01*
X166703Y116343D01*
X166766Y116402D01*
G03X167177Y117130I-960J1022D01*
G02X167851Y117328I391J-84D01*
G01X173524Y111655D01*
Y100986D01*
G02X172842Y100703I-400J0D01*
G37*
G36*
G01X238982Y94899D02*
X203368Y130512D01*
X200632D01*
G02X200254Y131043I0J400D01*
G03X197709Y130811I-1325J459D01*
G02X197535Y130512I-174J-99D01*
G01X197331D01*
X190128Y137715D01*
Y141204D01*
G02X190811Y141487I400J0D01*
G01X196253Y136046D01*
X200621D01*
G02X200962Y135437I0J-400D01*
G03X203352I1195J-733D01*
G02X203693Y136046I341J209D01*
G01X218115D01*
X239664Y114496D01*
Y95182D01*
G02X238982Y94899I-400J0D01*
G37*
G36*
G01X187643Y137226D02*
X186332Y138536D01*
Y141750D01*
X184708Y143375D01*
G02X184991Y144058I283J283D01*
G01X185556D01*
X188326Y141288D01*
Y137509D01*
G02X187643Y137226I-400J0D01*
G37*
G36*
G01X187029Y90362D02*
X185955Y91436D01*
Y114087D01*
X171691Y128351D01*
X168744D01*
X152603Y144492D01*
Y178285D01*
G03X152645Y180061I-1063J914D01*
G01X152603Y180116D01*
Y180479D01*
X152879D01*
X152936Y180429D01*
G03X153539Y182840I931J1048D01*
G02X153045Y183229I-94J389D01*
G01Y193305D01*
X152001Y194349D01*
G02X152321Y195030I283J283D01*
G03X151058Y196293I133J1396D01*
G02X150377Y195973I-398J-37D01*
G01X148027Y198323D01*
Y207637D01*
X151734Y211344D01*
X177768D01*
X183335Y205777D01*
Y191368D01*
X165816Y173849D01*
Y144887D01*
X176641Y134062D01*
X178059D01*
X178088Y133897D01*
G03X180848I1380J249D01*
G01X180877Y134062D01*
X184550D01*
X194701Y123911D01*
X200854D01*
X206585Y118180D01*
Y101152D01*
X195795Y90362D01*
X187029D01*
G37*
G36*
G01X256980Y58027D02*
G02X256298Y57744I-400J0D01*
G01X243626Y70415D01*
Y116498D01*
X220385Y139740D01*
G02X220526Y140082I141J142D01*
G01X220742D01*
X246472Y114352D01*
Y72098D01*
X256980Y61589D01*
Y58027D01*
G37*
%LPC*%
G75*
G36*
G01X154102Y26599D02*
X153401Y25898D01*
X146699D01*
X145798Y26799D01*
Y33401D01*
X146599Y34202D01*
X153301D01*
X154102Y33401D01*
Y26599D01*
G37*
G36*
G01X29537Y255639D02*
Y246703D01*
X24793D01*
Y255581D01*
X26589D01*
G03X26979Y256069I0J400D01*
G02X29537Y255639I1367J310D01*
G37*
G36*
G01X28356Y223355D02*
Y214420D01*
X25974D01*
Y223355D01*
G02X28356I1191J740D01*
G37*
G36*
G01X22368Y178200D02*
Y177401D01*
G02X19364I-1502J0D01*
G01Y178200D01*
X13474D01*
Y186254D01*
X12676D01*
G02Y189258I0J1502D01*
G01X13474D01*
Y197312D01*
X19364D01*
Y198111D01*
G02X22368I1502J0D01*
G01Y197312D01*
X28258D01*
Y178200D01*
X22368D01*
G37*
G36*
G01X59377Y64724D02*
X51652D01*
G02Y66526I-1074J901D01*
G01X58631D01*
X61576Y69472D01*
X69272D01*
G02Y67668I1074J-902D01*
G01X62322D01*
X59377Y64724D01*
G37*
G36*
G01X95679Y255581D02*
Y246703D01*
X90935D01*
Y255581D01*
X91224D01*
Y279859D01*
G02X92608Y282250I901J1074D01*
G03X93132Y282524I137J375D01*
G02X95390Y281093I1356J-357D01*
G01Y255581D01*
X95679D01*
G37*
G36*
G01X115286Y282184D02*
X121374Y276096D01*
Y255581D01*
X121934D01*
Y276917D01*
X117602Y281248D01*
X117516Y281246D01*
G02X118879Y282609I-38J1401D01*
G01X118877Y282523D01*
X123736Y277663D01*
Y255581D01*
X124296D01*
Y278532D01*
X121511Y281316D01*
X121425Y281314D01*
G02X122788Y282677I-38J1401D01*
G01X122786Y282591D01*
X126098Y279278D01*
Y255581D01*
X126658D01*
Y280230D01*
X125292Y281595D01*
X125206Y281593D01*
G02X126569Y282956I-38J1401D01*
G01X126567Y282870D01*
X128460Y280976D01*
Y255581D01*
X131382D01*
Y279805D01*
X129702Y281484D01*
X129616Y281482D01*
G02X130979Y282845I-38J1401D01*
G01X130977Y282759D01*
X133184Y280551D01*
Y255581D01*
X133744D01*
Y281874D01*
G02X135548I902J1074D01*
G01Y255581D01*
X138468D01*
Y281921D01*
G02X140321Y284025I902J1074D01*
G03X140845Y284010I271J294D01*
G02X142634Y281850I887J-1086D01*
G01Y255581D01*
X163603D01*
G03X163982Y256109I0J400D01*
G02X166384Y257460I1328J449D01*
G01X169873D01*
X170980Y256352D01*
Y255581D01*
X183081D01*
Y246703D01*
X169474D01*
G03X169084Y246215I0J-400D01*
G02X166350I-1367J-310D01*
G03X165960Y246703I-390J88D01*
G01X164749D01*
G03X164359Y246215I0J-400D01*
G02X162073Y244846I-1367J-310D01*
G03X161549I-262J-302D01*
G02X159263Y246215I-919J1059D01*
G03X158873Y246703I-390J88D01*
G01X157663D01*
G03X157273Y246215I0J-400D01*
G02X154987Y244846I-1367J-310D01*
G03X154462I-262J-302D01*
G02X152176Y246215I-919J1059D01*
G03X151786Y246703I-390J88D01*
G01X150576D01*
G03X150186Y246215I0J-400D01*
G02X147900Y244846I-1367J-310D01*
G03X147376I-262J-302D01*
G02X145090Y246215I-919J1059D01*
G03X144700Y246703I-390J88D01*
G01X119281D01*
Y255581D01*
X119570D01*
Y275350D01*
X114011Y280909D01*
X113925Y280907D01*
G02X115288Y282270I-38J1401D01*
G01X115286Y282184D01*
G37*
G36*
G01X105694Y246703D02*
G03X105304Y246215I0J-400D01*
G02X102570I-1367J-310D01*
G03X102180Y246703I-390J88D01*
G01X98022D01*
Y255581D01*
X98312D01*
Y281155D01*
G02X100114I901J1074D01*
G01Y267941D01*
G03X100750Y267617I400J0D01*
G02X102476Y265410I825J-1133D01*
G01Y255581D01*
X105398D01*
Y281110D01*
G02X107200I901J1074D01*
G01Y255581D01*
X107490D01*
Y246703D01*
X105694D01*
G37*
G36*
G01X72309Y244846D02*
G03X71785I-262J-302D01*
G02X69675Y246645I-919J1059D01*
G01Y255581D01*
X74419D01*
Y246645D01*
G02X72309Y244846I-1191J-740D01*
G37*
G36*
G01X65223D02*
G03X64699I-262J-302D01*
G02X62589Y246645I-919J1059D01*
G01Y255581D01*
X67333D01*
Y246645D01*
G02X65223Y244846I-1191J-740D01*
G37*
G36*
G01X58136D02*
G03X57612I-262J-302D01*
G02X55502Y246645I-919J1059D01*
G01Y255581D01*
X60246D01*
Y246645D01*
G02X58136Y244846I-1191J-740D01*
G37*
G36*
G01X269553Y212562D02*
G03X269029I-262J-302D01*
G02X266919Y214361I-919J1059D01*
G01Y223297D01*
X276388D01*
Y214419D01*
X272229D01*
G03X271839Y213931I0J-400D01*
G02X269553Y212562I-1367J-310D01*
G37*
G36*
G01X262467D02*
G03X261943I-262J-302D01*
G02X259833Y214361I-919J1059D01*
G01Y223297D01*
X264577D01*
Y214361D01*
G02X262467Y212562I-1191J-740D01*
G37*
G36*
G01X255694Y214419D02*
G03X255304Y213931I0J-400D01*
G02X252746Y214361I-1367J-310D01*
G01Y223297D01*
X257490D01*
Y214419D01*
X255694D01*
G37*
G36*
G01X248294Y212562D02*
G03X247769I-263J-302D01*
G02X245659Y214361I-919J1059D01*
G01Y223297D01*
X250404D01*
Y214361D01*
G02X248294Y212562I-1191J-740D01*
G37*
G36*
G01X243317Y223297D02*
Y214361D01*
G02X240759Y213931I-1191J-740D01*
G03X240369Y214419I-390J88D01*
G01X238573D01*
Y223297D01*
X243317D01*
G37*
G36*
G01X201050Y212562D02*
G03X200525I-263J-302D01*
G02X198415Y214361I-919J1059D01*
G01Y223297D01*
X203160D01*
Y214361D01*
G02X201050Y212562I-1191J-740D01*
G37*
G36*
G01X59317D02*
G03X58793I-262J-302D01*
G02X56683Y214361I-919J1059D01*
G01Y223297D01*
X61427D01*
Y214361D01*
G02X59317Y212562I-1191J-740D01*
G37*
G36*
G01X166627Y128045D02*
X166713Y128047D01*
G02X165350Y126684I38J-1401D01*
G01X165352Y126770D01*
X162923Y129200D01*
X155611D01*
X152929Y126518D01*
X80979D01*
X80273Y127223D01*
X80187Y127221D01*
G02X81550Y128584I-38J1401D01*
G01X81548Y128498D01*
X81725Y128320D01*
X96422D01*
G03X96738Y128967I1J400D01*
G02X98948I1105J862D01*
G03X99264Y128320I315J-247D01*
G01X152183D01*
X154865Y131002D01*
X163669D01*
X166627Y128045D01*
G37*
G36*
G01X162493Y205574D02*
G03X162513Y206192I-243J317D01*
G02X164289Y206135I923J1056D01*
G03X164269Y205517I243J-317D01*
G02X162493Y205574I-923J-1056D01*
G37*
G36*
G01X191288Y97016D02*
G02X189382Y98922I-1225J681D01*
G03Y99622I-194J350D01*
G02X191288Y101528I681J1225D01*
G03X191988I350J194D01*
G02X193894Y99622I1225J-681D01*
G03Y98922I194J-350D01*
G02X191988Y97016I-681J-1225D01*
G03X191288I-350J-194D01*
G37*
G54D26*
X51968Y218858D03*
X50788Y251142D03*
X201968D03*
X249213D03*
G54D27*
X270472D03*
G54D23*
X142126Y17319D03*
X157874D03*
G54D29*
X82039Y115801D03*
G54D20*
X68319Y63201D03*
X23526Y69406D03*
X39643Y34217D03*
X28526Y69406D03*
X46757Y17807D03*
X55237D03*
X50997Y23622D03*
Y11992D03*
X39585Y14945D03*
X47728Y55996D03*
X50997Y60052D03*
Y51940D03*
X20830Y116490D03*
X13526Y109408D03*
X12994Y116490D03*
X74908Y54541D03*
X131976Y32787D03*
X135914D03*
X139852D03*
X131976Y24373D03*
X135914D03*
X115761Y17807D03*
X108437D03*
X112099Y23044D03*
Y12570D03*
X126857Y37898D03*
X123057Y34354D03*
X81312Y55606D03*
X163700Y37439D03*
X160402Y34168D03*
X143790Y32787D03*
X167667Y37753D03*
X163830Y34005D03*
X167667Y30257D03*
X156210Y26677D03*
X50648Y69126D03*
X59535Y137616D03*
X63079Y133816D03*
X97843Y106156D03*
X124467Y97843D03*
X140290D03*
X101071Y114702D03*
X133013Y101071D03*
X148836D03*
X223141Y166219D03*
Y162281D03*
Y158343D03*
Y150467D03*
Y154405D03*
X108792Y60052D03*
X105523Y55996D03*
X108792Y51940D03*
X112061Y55996D03*
X106265Y66027D03*
X102386Y70358D03*
X187863Y52235D03*
X201829Y6407D03*
X194897D03*
X198363Y11644D03*
X188041Y47820D03*
X195757Y25776D03*
X184162Y39517D03*
Y44241D03*
X150000Y47000D03*
X144968Y52045D03*
X149968D03*
X154968D03*
Y47045D03*
X144968D03*
X204160Y17394D03*
X220427Y74791D03*
X228323Y69258D03*
X224365Y74791D03*
X168412Y97843D03*
X181746Y131819D03*
X179468Y129492D03*
X181746Y127165D03*
X187532Y124852D03*
X162974Y186982D03*
X157439Y207237D03*
X158521Y181477D03*
X163175D03*
X160848Y179199D03*
X156194D03*
X167284Y204461D03*
X159408D03*
X155470D03*
X171222D03*
X175160D03*
X165857Y184341D03*
X170038Y187231D03*
X150245Y204461D03*
G54D31*
X281496Y235000D03*
G54D21*
X62060Y16468D03*
X93556D03*
G54D22*
X18504Y235000D03*
G54D24*
X67039Y100801D03*
G54D30*
X194882Y218858D03*
X255118Y251142D03*
G54D28*
X37795D03*
X214961D03*
X235039Y218858D03*
G54D25*
X37795D03*
X44882D03*
X222047D03*
X229134D03*
X43701Y251142D03*
X187795D03*
X194882D03*
X209055D03*
X220866D03*
X227953D03*
X235039D03*
X242126D03*
X261024D03*
%LPD*%
G75*
G54D10*
X62060Y16468D03*
X93556D03*
X281496Y235000D03*
G54D11*
X50997Y51940D03*
Y60052D03*
X47728Y55996D03*
X39585Y14945D03*
X50997Y11992D03*
Y23622D03*
X55237Y17807D03*
X46757D03*
X28526Y69406D03*
X39643Y34217D03*
X23526Y69406D03*
X50648Y69126D03*
X50578Y65625D03*
X57571Y128602D03*
Y124664D03*
X12994Y116490D03*
X13526Y109408D03*
X63079Y133816D03*
X59535Y137616D03*
X20830Y116490D03*
X20866Y177401D03*
X12676Y187756D03*
X27165Y224095D03*
X41339D03*
X34252D03*
X48425D03*
X55512D03*
X62598D03*
X20866Y198111D03*
X60236Y213621D03*
X29528Y224095D03*
X31890D03*
X57874Y213621D03*
X28346Y256379D03*
X40157D03*
X35433D03*
X47244D03*
X54331D03*
X61417D03*
X30709Y245905D03*
X33071D03*
X63780D03*
X59055D03*
X56693D03*
X81312Y55606D03*
X68319Y63201D03*
X123057Y34354D03*
X126857Y37898D03*
X106265Y66027D03*
X112061Y55996D03*
X108792Y51940D03*
X105523Y55996D03*
X108792Y60052D03*
X112099Y12570D03*
Y23044D03*
X108437Y17807D03*
X115761D03*
X135914Y24373D03*
X131976D03*
X139852Y32787D03*
X135914D03*
X131976D03*
X74908Y54541D03*
X85642Y54591D03*
X70346Y68570D03*
X80149Y128622D03*
X97843Y138674D03*
X113390Y146795D03*
X101016Y142578D03*
X112749Y131450D03*
X112508Y119291D03*
X79571Y124684D03*
X102386Y70358D03*
X133013Y97843D03*
X128740Y112508D03*
X97843Y114702D03*
X140290Y101071D03*
X124467D03*
X101071Y106156D03*
X108075Y75477D03*
X127506Y146674D03*
X125228Y144347D03*
X127506Y142020D03*
X125228Y139693D03*
X127506Y137366D03*
X125228Y135039D03*
X101071Y138674D03*
X133013Y101071D03*
X101071Y114702D03*
X140290Y97843D03*
X124467D03*
X97843Y106156D03*
Y129829D03*
Y142578D03*
X101071Y156751D03*
X127652Y202157D03*
X119106D03*
X128740Y188070D03*
X112508Y163386D03*
X88583Y224095D03*
X102756D03*
X111930Y180709D03*
X97843Y151124D03*
Y184619D03*
Y165297D03*
X109843Y224095D03*
X95669D03*
X81496D03*
X69685D03*
X105118Y213621D03*
X107480D03*
X125883Y180797D03*
X129470Y178475D03*
X133980Y180282D03*
X137000Y175832D03*
X138634Y180282D03*
X120218Y173516D03*
X117940Y171189D03*
X120218Y168862D03*
X117552Y166035D03*
X120198Y162422D03*
X117920Y160095D03*
X120198Y157768D03*
X117920Y155441D03*
X120198Y153114D03*
X117920Y150787D03*
X125228Y149001D03*
X74409Y213621D03*
X72047D03*
X67323D03*
X64961D03*
X127652Y198929D03*
X101071Y184619D03*
Y165297D03*
Y151124D03*
X97843Y176073D03*
Y156751D03*
X119106Y198929D03*
X89764Y256379D03*
X68504D03*
X75591D03*
X82677D03*
X96850D03*
X92126Y280933D03*
X141732Y282924D03*
X139370Y282995D03*
X134646Y282948D03*
X129578Y282883D03*
X125168Y282994D03*
X121387Y282715D03*
X117478Y282647D03*
X113887Y282308D03*
X106299Y282184D03*
X101575Y266484D03*
X99213Y282229D03*
X94488Y282167D03*
X87402Y245905D03*
X85039D03*
X80315D03*
X73228D03*
X70866D03*
X66142D03*
X103937D03*
X218481Y44266D03*
X204160Y17394D03*
X144968Y47045D03*
Y42045D03*
X149995Y42326D03*
X154968Y42045D03*
Y47045D03*
Y52045D03*
X149968D03*
X144968D03*
X150000Y47000D03*
X156210Y26677D03*
X184162Y44241D03*
Y39517D03*
X195757Y25776D03*
X188041Y47820D03*
X187863Y52235D03*
X219982Y60598D03*
X198363Y11644D03*
X194897Y6407D03*
X201829D03*
X150778Y31646D03*
X147681Y27456D03*
X171361Y43063D03*
X167667Y30257D03*
X163830Y34005D03*
X167667Y37753D03*
X143790Y32787D03*
X160402Y34168D03*
X163700Y37439D03*
X176899Y34005D03*
X180069Y37175D03*
Y30835D03*
X195746Y21332D03*
X174812Y17394D03*
X220043Y5534D03*
X166751Y126646D03*
X171405D03*
X162097D03*
X159770Y124368D03*
X157443Y126646D03*
X187532Y124852D03*
X169685Y112508D03*
X202157Y131502D03*
X187355Y140584D03*
X220427Y124918D03*
Y74791D03*
Y97644D03*
X158661Y112508D03*
X176958Y97843D03*
X162935D03*
X202157Y143250D03*
X148836Y97843D03*
X146063Y112508D03*
X154389Y101071D03*
X180134Y103863D03*
X164424Y124368D03*
X208304Y88202D03*
Y83202D03*
X213304D03*
Y88202D03*
X203304Y83202D03*
Y88202D03*
X205328Y123623D03*
X181746Y127165D03*
X179468Y129492D03*
X181746Y131819D03*
X179468Y134146D03*
X182622Y136473D03*
X179468Y138800D03*
X181746Y141127D03*
X177116Y80618D03*
X169078Y124368D03*
X198929Y131502D03*
Y143198D03*
X148836Y101071D03*
X176958D03*
X193213Y100847D03*
X190063D03*
Y97697D03*
X193213D03*
X162935Y101071D03*
X202157Y147301D03*
X198958Y122883D03*
X193313Y91547D03*
X190163D03*
Y94697D03*
X193313D03*
X154389Y97843D03*
X168412D03*
X202157Y134704D03*
X164654Y88695D03*
X162095Y117437D03*
X168661Y88695D03*
X165806Y117424D03*
X177917Y144175D03*
X175639Y146502D03*
X177917Y148829D03*
X215305Y150467D03*
X182433Y155512D03*
X215305Y154405D03*
X180155Y157839D03*
X215305Y158343D03*
X182433Y160166D03*
X215305Y162281D03*
X180379Y162493D03*
X182779Y164981D03*
X215305Y166219D03*
X150245Y204461D03*
X163346D03*
X143019Y187046D03*
X170038Y187231D03*
X162974Y186982D03*
X165857Y184341D03*
X186746Y152213D03*
X202157Y155847D03*
X198929Y159901D03*
X218504Y224095D03*
X211417D03*
X204331D03*
X185433D03*
X192520D03*
X197244D03*
X186279Y165747D03*
X202157Y168447D03*
X210150Y186836D03*
X175160Y204461D03*
X171222D03*
X155470D03*
X159408D03*
X146307D03*
X167284D03*
X180279Y211080D03*
X145466Y172295D03*
X145508Y180186D03*
X149392Y176427D03*
X187795Y211438D03*
X190157Y213621D03*
X199606D03*
X201969D03*
X206693D03*
X216142D03*
X213780D03*
X209055D03*
X149213Y181477D03*
X151540Y179199D03*
X153867Y181477D03*
X156194Y179199D03*
X160848D03*
X163175Y181477D03*
X158521D03*
X163436Y207248D03*
X157439Y207237D03*
X152454Y196426D03*
X150214Y206861D03*
X202157Y159901D03*
X175639Y151156D03*
X177917Y153483D03*
X184252Y256379D03*
X191339D03*
X198425D03*
X205512D03*
X212598D03*
X217323D03*
X146457Y245905D03*
X148819D03*
X153543D03*
X155906D03*
X162992D03*
X167717D03*
X160630D03*
X165310Y256558D03*
X233481Y44266D03*
X228481D03*
X223481D03*
X259969Y70282D03*
X228323Y69258D03*
X259851Y60598D03*
X263789D03*
X271665D03*
X267727D03*
X223920D03*
X234100Y58294D03*
X255913Y60598D03*
X271495Y5534D03*
X267557D03*
X263619D03*
X259681D03*
X231857D03*
X227919D03*
X223981D03*
X255743D03*
X254079Y43688D03*
X259079D03*
X264079D03*
X269079D03*
X274079D03*
X259969Y92557D03*
X244541Y78413D03*
X244529Y101266D03*
X227711Y119944D03*
X224365Y124918D03*
X259969Y120409D03*
X255638Y124288D03*
X224365Y74791D03*
X224054Y97347D03*
X228326Y92092D03*
X255638Y74161D03*
X255621Y97014D03*
X244529Y129118D03*
X223141Y154405D03*
X279134Y177401D03*
Y198111D03*
X287324Y187756D03*
X237402Y224095D03*
X232677D03*
X225591D03*
X244488D03*
X251575D03*
X258661D03*
X265748D03*
X270472Y213621D03*
X268110D03*
X263386D03*
X261024D03*
X253937D03*
X249213D03*
X246850D03*
X242126D03*
X223141Y150467D03*
Y158343D03*
Y162281D03*
Y166219D03*
X224409Y256379D03*
X231496D03*
X238583D03*
X245669D03*
X252756D03*
X257480D03*
X264567D03*
G54D12*
X52039Y115801D03*
Y85801D03*
X82039Y115801D03*
Y85801D03*
G54D13*
X20866Y187756D03*
X279134D03*
G54D14*
X60236Y218858D03*
X57874D03*
X55512D03*
X53150D03*
X50787D03*
X48425D03*
X46063D03*
X43701D03*
X41339D03*
X38976D03*
X36614D03*
X34252D03*
X31890D03*
X29528D03*
X27165D03*
X61417Y251142D03*
X59055D03*
X56693D03*
X54331D03*
X51969D03*
X49606D03*
X47244D03*
X44882D03*
X42520D03*
X40157D03*
X37795D03*
X35433D03*
X33071D03*
X30709D03*
X28346D03*
X25984D03*
X140551Y218858D03*
X138189D03*
X135827D03*
X133465D03*
X131102D03*
X128740D03*
X126378D03*
X124016D03*
X121654D03*
X109843D03*
X107480D03*
X105118D03*
X102756D03*
X100394D03*
X98031D03*
X95669D03*
X93307D03*
X90945D03*
X88583D03*
X86220D03*
X83858D03*
X81496D03*
X79134D03*
X76772D03*
X74409D03*
X72047D03*
X69685D03*
X67323D03*
X64961D03*
X62598D03*
X139370Y251142D03*
X137008D03*
X134646D03*
X132283D03*
X129921D03*
X127559D03*
X125197D03*
X122835D03*
X120472D03*
X108661D03*
X106299D03*
X103937D03*
X101575D03*
X99213D03*
X96850D03*
X94488D03*
X92126D03*
X89764D03*
X87402D03*
X85039D03*
X82677D03*
X80315D03*
X77953D03*
X75591D03*
X73228D03*
X70866D03*
X68504D03*
X66142D03*
X63780D03*
X218504Y218858D03*
X216142D03*
X213780D03*
X211417D03*
X209055D03*
X206693D03*
X204331D03*
X201969D03*
X199606D03*
X197244D03*
X194882D03*
X192520D03*
X190157D03*
X187795D03*
X185433D03*
X183071D03*
X180709D03*
X178346D03*
X175984D03*
X173622D03*
X171260D03*
X168898D03*
X166535D03*
X164173D03*
X161811D03*
X159449D03*
X157087D03*
X154724D03*
X152362D03*
X150000D03*
X147638D03*
X145276D03*
X142913D03*
X217323Y251142D03*
X214961D03*
X212598D03*
X210236D03*
X207874D03*
X205512D03*
X203150D03*
X200787D03*
X198425D03*
X196063D03*
X193701D03*
X191339D03*
X188976D03*
X186614D03*
X184252D03*
X181890D03*
X179528D03*
X177165D03*
X174803D03*
X172441D03*
X170079D03*
X167717D03*
X165354D03*
X162992D03*
X160630D03*
X158268D03*
X155906D03*
X153543D03*
X151181D03*
X148819D03*
X146457D03*
X144094D03*
X141732D03*
X275197Y218858D03*
X272835D03*
X270472D03*
X268110D03*
X265748D03*
X263386D03*
X261024D03*
X258661D03*
X256299D03*
X253937D03*
X251575D03*
X249213D03*
X246850D03*
X244488D03*
X242126D03*
X239764D03*
X237402D03*
X235039D03*
X232677D03*
X230315D03*
X227953D03*
X225591D03*
X223228D03*
X220866D03*
X274016Y251142D03*
X271654D03*
X269291D03*
X266929D03*
X264567D03*
X262205D03*
X259843D03*
X257480D03*
X255118D03*
X252756D03*
X250394D03*
X248031D03*
X245669D03*
X243307D03*
X240945D03*
X238583D03*
X236220D03*
X233858D03*
X231496D03*
X229134D03*
X226772D03*
X224409D03*
X222047D03*
X219685D03*
G54D15*
X18504Y235000D03*
G54D16*
X142126Y17319D03*
X157874D03*
G54D17*
G01X20866Y187756D02*
Y198111D01*
G01Y187756D02*
X12676D01*
G01X20866D02*
Y177401D01*
G01X101071Y165297D02*
Y184619D01*
G01Y151124D02*
X103770Y153823D01*
Y162598D01*
X101071Y165297D01*
G01X97843Y176073D02*
X94339Y172569D01*
Y165056D01*
X97843Y161552D01*
Y156751D01*
G01X202157Y159901D02*
X205906Y156152D01*
Y151050D01*
X202157Y147301D01*
G01X279134Y187756D02*
Y177401D01*
G01Y187756D02*
Y198111D01*
G01Y187756D02*
X287324D01*
G54D18*
G01X4500Y0D02*
X295500D01*
G03X300000Y4500I0J4500D01*
G01Y295500D01*
G03X295500Y300000I-4500J0D01*
G01X4500D01*
G03X0Y295500I0J-4500D01*
G01Y4500D01*
G03X4500Y0I4500J0D01*
G54D19*
G01X70346Y68570D02*
X61949D01*
X59004Y65625D01*
X50578D01*
G01X27165Y218858D02*
Y224095D01*
G01X41339Y218858D02*
Y224095D01*
G01X34252Y218858D02*
Y224095D01*
G01X55512D02*
Y218858D01*
G01X48425Y224095D02*
Y218858D01*
G01X60236Y213621D02*
Y218858D01*
G01X29528D02*
Y224095D01*
G01X31890Y218858D02*
Y224095D01*
G01X76772Y218858D02*
Y213405D01*
X60865Y197498D01*
Y159479D01*
X87077Y133267D01*
X123456D01*
X125228Y135039D01*
G01X57874Y213621D02*
Y218858D01*
G01X28346Y251142D02*
Y256379D01*
G01X40157Y251142D02*
Y256379D01*
G01X35433Y251142D02*
Y256379D01*
G01X47244Y251142D02*
Y256379D01*
G01X54331Y251142D02*
Y256379D01*
G01X61417Y251142D02*
Y256379D01*
G01X30709Y251142D02*
Y245905D01*
G01X33071Y251142D02*
Y245905D01*
G01X59055Y251142D02*
Y245905D01*
G01X56693Y251142D02*
Y245905D01*
G01X166751Y126646D02*
X163296Y130101D01*
X155238D01*
X152556Y127419D01*
X81352D01*
X80149Y128622D01*
G01X82039Y85801D02*
Y89653D01*
G01X78187Y85801D02*
X82039D01*
G01D02*
X85891D01*
G01X127506Y146674D02*
X117881D01*
X115406Y144199D01*
X111710D01*
X109068Y146841D01*
X94409D01*
X86525Y154725D01*
Y157455D01*
X85725Y158255D01*
X84582D01*
X83782Y159055D01*
Y160655D01*
X84582Y161455D01*
X85725D01*
X86525Y162255D01*
Y163855D01*
X85725Y164655D01*
X84582D01*
X83782Y165455D01*
Y167055D01*
X84582Y167855D01*
X85725D01*
X86525Y168655D01*
Y170255D01*
X85725Y171055D01*
X84582D01*
X83782Y171855D01*
Y173455D01*
X84582Y174255D01*
X85725D01*
X86525Y175055D01*
Y176655D01*
X85725Y177455D01*
X84582D01*
X83782Y178255D01*
Y179855D01*
X84582Y180655D01*
X85725D01*
X86525Y181455D01*
Y183055D01*
X85725Y183855D01*
X84582D01*
X83782Y184655D01*
Y186255D01*
X84582Y187055D01*
X85725D01*
X86525Y187855D01*
Y189455D01*
X85725Y190255D01*
X84582D01*
X83782Y191055D01*
Y192655D01*
X84582Y193455D01*
X85725D01*
X86525Y194255D01*
Y195855D01*
X85725Y196655D01*
X84582D01*
X83782Y197455D01*
Y199055D01*
X84582Y199855D01*
X85725D01*
X86525Y200655D01*
Y204236D01*
X93307Y211018D01*
Y218858D01*
G01X125228Y144347D02*
X119066D01*
X117090Y142371D01*
X107914D01*
X105713Y144572D01*
X93221D01*
X81648Y156145D01*
Y160046D01*
X80848Y160846D01*
X79705D01*
X78905Y161646D01*
Y163246D01*
X79705Y164046D01*
X80848D01*
X81648Y164846D01*
Y166446D01*
X80848Y167246D01*
X79705D01*
X78905Y168046D01*
Y169646D01*
X79705Y170446D01*
X80848D01*
X81648Y171246D01*
Y172846D01*
X80848Y173646D01*
X79705D01*
X78905Y174446D01*
Y176046D01*
X79705Y176846D01*
X80848D01*
X81648Y177646D01*
Y179246D01*
X80848Y180046D01*
X79705D01*
X78905Y180846D01*
Y182446D01*
X79705Y183246D01*
X80848D01*
X81648Y184046D01*
Y185646D01*
X80848Y186446D01*
X79705D01*
X78905Y187246D01*
Y188846D01*
X79705Y189646D01*
X80848D01*
X81648Y190446D01*
Y192046D01*
X80848Y192846D01*
X79705D01*
X78905Y193646D01*
Y195246D01*
X79705Y196046D01*
X80848D01*
X81648Y196846D01*
Y198446D01*
X80848Y199246D01*
X79705D01*
X78905Y200046D01*
Y201646D01*
X79705Y202446D01*
X80848D01*
X81648Y203246D01*
Y204724D01*
X90945Y214021D01*
Y218858D01*
G01X127506Y142020D02*
X123786D01*
X122194Y140428D01*
X101863D01*
X101817Y140474D01*
X97097D01*
X97051Y140428D01*
X93105D01*
X75868Y157665D01*
Y160108D01*
X75068Y160908D01*
X73492D01*
X72692Y161708D01*
Y163308D01*
X73492Y164108D01*
X75068D01*
X75868Y164908D01*
Y166508D01*
X75068Y167308D01*
X73492D01*
X72692Y168108D01*
Y169708D01*
X73492Y170508D01*
X75068D01*
X75868Y171308D01*
Y172908D01*
X75068Y173708D01*
X73492D01*
X72692Y174508D01*
Y176108D01*
X73492Y176908D01*
X75068D01*
X75868Y177708D01*
Y179308D01*
X75068Y180108D01*
X73492D01*
X72692Y180908D01*
Y182508D01*
X73492Y183308D01*
X75068D01*
X75868Y184108D01*
Y202733D01*
X86220Y213085D01*
Y218858D01*
G01X83858D02*
Y214021D01*
X70586Y200749D01*
Y199449D01*
X69786Y198649D01*
X68512D01*
X67712Y197849D01*
Y196249D01*
X68512Y195449D01*
X69786D01*
X70586Y194649D01*
Y193049D01*
X69786Y192249D01*
X68512D01*
X67712Y191449D01*
Y189849D01*
X68512Y189049D01*
X69786D01*
X70586Y188249D01*
Y186649D01*
X69786Y185849D01*
X68512D01*
X67712Y185049D01*
Y183449D01*
X68512Y182649D01*
X69786D01*
X70586Y181849D01*
Y157696D01*
X91437Y136845D01*
X119998D01*
X121573Y138420D01*
X123955D01*
X125228Y139693D01*
G01X127506Y137366D02*
X125706D01*
X125460Y137120D01*
X123278D01*
X121063Y134905D01*
X89626D01*
X64236Y160295D01*
Y197908D01*
X79134Y212806D01*
Y218858D01*
G01X88583Y224095D02*
Y218858D01*
G01X102756D02*
Y224095D01*
G01X109843Y218858D02*
Y224095D01*
G01X95669Y218858D02*
Y224095D01*
G01X62598D02*
Y218858D01*
G01X69685Y224095D02*
Y218858D01*
G01X81496Y224095D02*
Y218858D01*
G01X105118Y213621D02*
Y218858D01*
G01X107480Y213621D02*
Y218858D01*
G01X125883Y180797D02*
X118459D01*
X116731Y182525D01*
Y235416D01*
X117531Y236216D01*
X120854D01*
X121654Y235416D01*
Y218858D01*
G01X124016D02*
Y214021D01*
X121000Y211005D01*
Y197565D01*
X118426Y194991D01*
Y184624D01*
X120425Y182625D01*
X126883D01*
X127780Y181728D01*
Y179862D01*
X123557Y175639D01*
Y164778D01*
X124416Y163919D01*
X128670D01*
X129470Y164719D01*
Y178475D01*
G01X126378Y218858D02*
Y213753D01*
X122917Y210292D01*
Y208992D01*
X123717Y208192D01*
X125147D01*
X125947Y207392D01*
Y205792D01*
X125147Y204992D01*
X123717D01*
X122917Y204192D01*
Y202592D01*
X123717Y201792D01*
X125147D01*
X125947Y200992D01*
Y199536D01*
X125003Y198592D01*
X123717D01*
X122917Y197792D01*
Y196665D01*
X120433Y194181D01*
Y192881D01*
X121233Y192081D01*
X123387D01*
X124187Y191281D01*
Y189681D01*
X123387Y188881D01*
X121233D01*
X120433Y188081D01*
Y186457D01*
X122375Y184515D01*
X127529D01*
X131681Y180363D01*
Y169211D01*
X132248Y168644D01*
X134263D01*
X135064Y169445D01*
Y174636D01*
X133980Y175720D01*
Y180282D01*
G01X128740Y218858D02*
Y214021D01*
X129540Y213221D01*
X131092D01*
X131912Y212401D01*
Y210841D01*
X131092Y210021D01*
X129540D01*
X128740Y209221D01*
Y203758D01*
X130440Y202058D01*
Y197236D01*
X129640Y196436D01*
X128615D01*
X127815Y195636D01*
Y194036D01*
X128615Y193236D01*
X129640D01*
X130540Y192336D01*
Y187654D01*
X136307Y181887D01*
Y179273D01*
X136351D01*
X138858Y176766D01*
Y163307D01*
X137571Y162020D01*
X132529D01*
X131620Y162929D01*
Y164061D01*
X137000Y169441D01*
Y175832D01*
G01X138634Y180282D02*
Y188964D01*
X137600Y189998D01*
X136468D01*
X135137Y188667D01*
X134005D01*
X132874Y189798D01*
Y190930D01*
X133488Y191544D01*
Y197906D01*
X131828Y199566D01*
Y201007D01*
X133465Y202644D01*
Y204329D01*
X131674Y206120D01*
Y207253D01*
X133465Y209044D01*
Y218858D01*
G01X145466Y172295D02*
X142925Y169754D01*
Y156770D01*
X142124Y155969D01*
X137898D01*
X137098Y156769D01*
Y158716D01*
X140774Y162392D01*
Y190458D01*
X135827Y195405D01*
Y202557D01*
X136627Y203357D01*
X138451D01*
X139251Y204157D01*
Y205757D01*
X138451Y206557D01*
X136627D01*
X135827Y207357D01*
Y208957D01*
X136627Y209757D01*
X138451D01*
X139251Y210557D01*
Y212157D01*
X138451Y212957D01*
X136627D01*
X135827Y213757D01*
Y218858D01*
G01X140551D02*
Y195112D01*
X146137Y189526D01*
Y185930D01*
X143600Y183393D01*
Y176758D01*
X147508Y172850D01*
Y162408D01*
X148308Y161608D01*
X150130D01*
X150930Y162408D01*
Y171956D01*
X145510Y177376D01*
Y178484D01*
X145508Y178486D01*
Y180186D01*
G01X87402Y245905D02*
X89487Y243820D01*
X96637D01*
X97388Y243069D01*
X97397D01*
X101945Y238521D01*
X103075D01*
X111498Y246945D01*
X112628D01*
X113761Y245812D01*
Y244682D01*
X105338Y236258D01*
Y235128D01*
X106471Y233995D01*
X107601D01*
X116024Y242419D01*
X117154D01*
X118287Y241286D01*
Y240156D01*
X109864Y231732D01*
Y230602D01*
X114300Y226166D01*
Y226157D01*
X115167Y225290D01*
Y176601D01*
X118252Y173516D01*
X120218D01*
G01X117940Y171189D02*
X113810Y175319D01*
Y224808D01*
X113000Y225618D01*
Y225627D01*
X105752Y232875D01*
X99837D01*
X99037Y233675D01*
Y236027D01*
X98237Y236827D01*
X96637D01*
X95837Y236027D01*
Y233675D01*
X95037Y232875D01*
X93437D01*
X92637Y233675D01*
Y236027D01*
X91837Y236827D01*
X90237D01*
X89437Y236027D01*
Y233675D01*
X88637Y232875D01*
X87037D01*
X86237Y233675D01*
Y236027D01*
X85437Y236827D01*
X83837D01*
X83037Y236027D01*
Y233675D01*
X82237Y232875D01*
X80637D01*
X79837Y233675D01*
Y236027D01*
X79037Y236827D01*
X77437D01*
X76637Y236027D01*
Y233675D01*
X75837Y232875D01*
X74537D01*
X72819Y234593D01*
Y237931D01*
X75949Y241061D01*
X80195D01*
X85039Y245905D01*
G01X80315D02*
Y244205D01*
X79163Y243053D01*
X73547D01*
X70296Y239802D01*
Y229403D01*
X71626Y228073D01*
X78707D01*
X79507Y228873D01*
Y230148D01*
X80307Y230948D01*
X81907D01*
X82707Y230148D01*
Y228873D01*
X83507Y228073D01*
X85107D01*
X85907Y228873D01*
Y230148D01*
X86707Y230948D01*
X88307D01*
X89107Y230148D01*
Y228873D01*
X89907Y228073D01*
X91507D01*
X92307Y228873D01*
Y230148D01*
X93107Y230948D01*
X94707D01*
X95507Y230148D01*
Y228873D01*
X96307Y228073D01*
X97907D01*
X98707Y228873D01*
Y230148D01*
X99507Y230948D01*
X101107D01*
X101907Y230148D01*
Y228873D01*
X102707Y228073D01*
X108575D01*
X111543Y225105D01*
Y224941D01*
X111643Y224841D01*
Y214759D01*
X110028Y213144D01*
Y174626D01*
X115792Y168862D01*
X120218D01*
G01X100394Y218858D02*
Y210830D01*
X101194Y210030D01*
X107452D01*
X108252Y209230D01*
Y207630D01*
X107452Y206830D01*
X101194D01*
X100394Y206030D01*
Y204430D01*
X101194Y203630D01*
X107452D01*
X108252Y202830D01*
Y201230D01*
X107452Y200430D01*
X101194D01*
X100394Y199630D01*
Y198030D01*
X101194Y197230D01*
X107452D01*
X108252Y196430D01*
Y194830D01*
X107452Y194030D01*
X101194D01*
X100394Y193230D01*
Y189427D01*
X108473Y181348D01*
Y171925D01*
X116063Y164335D01*
X116706D01*
X116806Y164235D01*
X118298D01*
X118398Y164335D01*
X121092D01*
X123231Y162196D01*
X128320D01*
X129241Y161275D01*
Y160143D01*
X128027Y158929D01*
Y157797D01*
X129158Y156666D01*
X130290D01*
X131504Y157880D01*
X132636D01*
X135650Y154866D01*
Y151601D01*
X134850Y150801D01*
X124482D01*
X124468Y150787D01*
X117920D01*
G01X125228Y149001D02*
X123428D01*
X123213Y148786D01*
X96129D01*
X89421Y155494D01*
Y176910D01*
X90221Y177710D01*
X94107D01*
X94907Y178510D01*
Y180110D01*
X94107Y180910D01*
X90221D01*
X89421Y181710D01*
Y183310D01*
X90221Y184110D01*
X94107D01*
X94907Y184910D01*
Y186510D01*
X94107Y187310D01*
X90221D01*
X89421Y188110D01*
Y189710D01*
X90221Y190510D01*
X94107D01*
X94907Y191310D01*
Y192910D01*
X94107Y193710D01*
X90221D01*
X89421Y194510D01*
Y196110D01*
X90221Y196910D01*
X94107D01*
X94907Y197710D01*
Y199310D01*
X94107Y200110D01*
X90221D01*
X89421Y200910D01*
Y202210D01*
X98031Y210820D01*
Y218858D01*
G01X74409Y213621D02*
Y218858D01*
G01X72047Y213621D02*
Y218858D01*
G01X67323Y213621D02*
Y218858D01*
G01X64961Y213621D02*
Y218858D01*
G01X89764Y251142D02*
Y256379D01*
G01X68504Y251142D02*
Y256379D01*
G01X75591Y251142D02*
Y256379D01*
G01X82677Y251142D02*
Y256379D01*
G01X96850Y251142D02*
Y256379D01*
G01X108661Y251142D02*
Y246305D01*
X106421Y244065D01*
X99090D01*
X96850Y246305D01*
Y251142D01*
G01X92126D02*
Y280933D01*
G01X139370Y251142D02*
Y282995D01*
G01X134646Y251142D02*
Y282948D01*
G01X129578Y282883D02*
X132283Y280178D01*
Y251142D01*
G01X125168Y282994D02*
X127559Y280603D01*
Y251142D01*
G01X121387Y282715D02*
X125197Y278905D01*
Y251142D01*
G01X117478Y282647D02*
X122835Y277290D01*
Y251142D01*
G01X113887Y282308D02*
X120472Y275723D01*
Y251142D01*
G01X106299D02*
Y282184D01*
G01X101575Y251142D02*
Y266484D01*
G01X99213Y251142D02*
Y282229D01*
G01X94488Y251142D02*
Y282167D01*
G01X87402Y251142D02*
Y245905D01*
G01X85039Y251142D02*
Y245905D01*
G01X80315Y251142D02*
Y245905D01*
G01X73228Y251142D02*
Y245905D01*
G01X70866Y251142D02*
Y245905D01*
G01X66142Y251142D02*
Y245905D01*
G01X63780Y251142D02*
Y245905D01*
G01X103937Y251142D02*
Y245905D01*
G01X218481Y44266D02*
X222522Y40225D01*
X233575D01*
X236065Y42715D01*
Y44622D01*
X230554Y50133D01*
X227347D01*
X214617Y62863D01*
X190811D01*
X184375Y69299D01*
Y110688D01*
X171405Y123658D01*
Y126646D01*
G01X233481Y44266D02*
X229782Y47965D01*
X226222D01*
X213219Y60968D01*
X190033D01*
X174426Y76575D01*
Y112028D01*
X164364Y122090D01*
X162980D01*
X162097Y122973D01*
Y126646D01*
G01X228481Y44266D02*
X226781D01*
X211941Y59106D01*
X188874D01*
X160589Y87391D01*
Y113802D01*
X159770Y114621D01*
Y124368D01*
G01X223481Y44266D02*
X210504Y57243D01*
X188010D01*
X156240Y89013D01*
Y125443D01*
X157443Y126646D01*
G01X147681Y27456D02*
X149292Y29067D01*
Y30160D01*
X150778Y31646D01*
G01X182433Y155512D02*
X188214D01*
X198451Y145275D01*
X210113D01*
X215305Y150467D01*
G01X180134Y103863D02*
Y108658D01*
X164424Y124368D01*
G01X213780Y213621D02*
Y211921D01*
X210652Y208793D01*
Y207661D01*
X212974Y205339D01*
Y204207D01*
X211843Y203076D01*
X210711D01*
X208389Y205398D01*
X207257D01*
X206126Y204267D01*
Y203135D01*
X208448Y200813D01*
Y199681D01*
X207317Y198550D01*
X206185D01*
X203863Y200872D01*
X202731D01*
X201600Y199741D01*
Y198609D01*
X203922Y196287D01*
Y195155D01*
X202791Y194024D01*
X201659D01*
X199337Y196346D01*
X198205D01*
X197074Y195215D01*
Y194083D01*
X199396Y191761D01*
Y190629D01*
X198265Y189498D01*
X197133D01*
X194811Y191820D01*
X193679D01*
X192548Y190689D01*
Y189557D01*
X194870Y187235D01*
Y186103D01*
X193739Y184972D01*
X192607D01*
X190285Y187294D01*
X189153D01*
X188022Y186163D01*
Y185031D01*
X190344Y182709D01*
Y181577D01*
X189213Y180446D01*
X188081D01*
X185759Y182768D01*
X184627D01*
X171237Y169378D01*
Y145331D01*
X177768Y138800D01*
X179468D01*
G01X209055Y213621D02*
Y211444D01*
X204879Y207268D01*
X203749D01*
X200959Y210059D01*
X199829D01*
X198696Y208926D01*
Y207796D01*
X201486Y205005D01*
Y203875D01*
X200353Y202742D01*
X199223D01*
X196433Y205533D01*
X195303D01*
X194170Y204400D01*
Y203270D01*
X196960Y200479D01*
Y199349D01*
X195827Y198216D01*
X194697D01*
X191907Y201007D01*
X190777D01*
X189644Y199874D01*
Y198744D01*
X192434Y195953D01*
Y194823D01*
X191301Y193690D01*
X190171D01*
X187381Y196481D01*
X186251D01*
X185118Y195348D01*
Y194218D01*
X187908Y191427D01*
Y190273D01*
X169158Y171523D01*
Y144290D01*
X176627Y136821D01*
X180322D01*
X181746Y138245D01*
Y141127D01*
G01X169078Y124368D02*
Y122668D01*
X182462Y109284D01*
Y85964D01*
X177116Y80618D01*
G01X162095Y117437D02*
X162087Y115450D01*
X163338Y114192D01*
X163337Y114191D01*
X163338D01*
X163330Y111803D01*
Y107242D01*
X171253Y99319D01*
Y93918D01*
X170234Y92899D01*
X167559D01*
X166057Y91397D01*
Y90098D01*
X164654Y88695D01*
G01X165806Y117424D02*
X165798Y115438D01*
X164538Y114187D01*
X164530Y111800D01*
Y107740D01*
X172453Y99817D01*
Y93420D01*
X170732Y91699D01*
X168057D01*
X167257Y90899D01*
Y90099D01*
X168661Y88695D01*
G01X254079Y43688D02*
X236360Y61407D01*
Y89752D01*
X200310Y125802D01*
X197792D01*
X185431Y138163D01*
Y141377D01*
X183875Y142933D01*
X179159D01*
X177917Y144175D01*
G01X259079Y43688D02*
X238426Y64341D01*
Y94180D01*
X202995Y129611D01*
X196958D01*
X189227Y137342D01*
Y141661D01*
X185929Y144959D01*
X180504D01*
X178961Y146502D01*
X175639D01*
G01X177917Y148829D02*
X179617D01*
X181539Y146907D01*
X186666D01*
X196626Y136947D01*
X218488D01*
X240566Y114869D01*
Y67201D01*
X264079Y43688D01*
G01X175639Y151156D02*
X181382D01*
X183703Y148835D01*
X187690D01*
X197608Y138917D01*
X219933D01*
X242725Y116125D01*
Y70042D01*
X269079Y43688D01*
G01X274079D02*
X272185D01*
X257882Y57991D01*
Y61962D01*
X247373Y72471D01*
Y114725D01*
X221115Y140983D01*
X198429D01*
X189142Y150270D01*
X185156D01*
X181943Y153483D01*
X177917D01*
G01X215305Y154405D02*
X218938Y158038D01*
Y168311D01*
X209237Y178012D01*
X186392D01*
X177877Y169497D01*
Y160117D01*
X180155Y157839D01*
G01X182433Y160166D02*
X185528Y163261D01*
X210387D01*
X215305Y158343D01*
G01Y162281D02*
X217156Y164132D01*
Y167382D01*
X208403Y176135D01*
X186892D01*
X180379Y169622D01*
Y162493D01*
G01X182779Y164981D02*
Y169318D01*
X187652Y174191D01*
X207333D01*
X215305Y166219D01*
G01X218504Y218858D02*
Y224095D01*
G01X211417Y218858D02*
Y224095D01*
G01X204331Y218858D02*
Y224095D01*
G01X185433Y218858D02*
Y224095D01*
G01X192520Y218858D02*
Y224095D01*
G01X197244Y218858D02*
Y224095D01*
G01X149392Y176427D02*
Y178752D01*
X147283Y180861D01*
Y182388D01*
X151092Y186197D01*
Y189100D01*
X147229Y192963D01*
Y194095D01*
X148250Y195116D01*
Y196248D01*
X147119Y197379D01*
X145987D01*
X144966Y196358D01*
X143834D01*
X142913Y197279D01*
Y218858D01*
G01X187795Y211438D02*
X190982Y208251D01*
Y206420D01*
X190182Y205620D01*
X185826D01*
X183857Y207589D01*
Y210083D01*
X187795Y214021D01*
Y218858D01*
G01X190157D02*
Y213621D01*
G01X199606Y218858D02*
Y213621D01*
G01X201969Y218858D02*
Y213621D01*
G01X206693Y218858D02*
Y213621D01*
G01X216142Y218858D02*
Y213621D01*
G01X213780Y218858D02*
Y213621D01*
G01X209055Y218858D02*
Y213621D01*
G01X184252Y251142D02*
Y256379D01*
G01X191339Y251142D02*
Y256379D01*
G01X198425Y251142D02*
Y256379D01*
G01X205512Y251142D02*
Y256379D01*
G01X212598Y251142D02*
Y256379D01*
G01X217323Y251142D02*
Y256379D01*
G01X146457Y251142D02*
Y245905D01*
G01X148819Y251142D02*
Y245905D01*
G01X153543Y251142D02*
Y245905D01*
G01X155906Y251142D02*
Y245905D01*
G01X162992Y251142D02*
Y245905D01*
G01X167717Y251142D02*
Y245905D01*
G01X160630Y251142D02*
Y245905D01*
G01X141732Y251142D02*
Y282924D01*
G01X165310Y256558D02*
X169500D01*
X170079Y255979D01*
Y251142D01*
G01X237402Y218858D02*
Y224095D01*
G01X232677Y218858D02*
Y224095D01*
G01X225591Y218858D02*
Y224095D01*
G01X244488Y218858D02*
Y224095D01*
G01X251575Y218858D02*
Y224095D01*
G01X258661Y218858D02*
Y224095D01*
G01X265748Y218858D02*
Y224095D01*
G01X270472Y218858D02*
Y213621D01*
G01X268110Y218858D02*
Y213621D01*
G01X263386Y218858D02*
Y213621D01*
G01X261024Y218858D02*
Y213621D01*
G01X253937Y218858D02*
Y213621D01*
G01X249213Y218858D02*
Y213621D01*
G01X246850Y218858D02*
Y213621D01*
G01X242126Y218858D02*
Y213621D01*
G01X224409Y251142D02*
Y256379D01*
G01X231496Y251142D02*
Y256379D01*
G01X238583Y251142D02*
Y256379D01*
G01X245669Y251142D02*
Y256379D01*
G01X252756Y251142D02*
Y256379D01*
G01X257480Y251142D02*
Y256379D01*
G01X264567Y251142D02*
Y256379D01*
G01X281496Y230951D02*
Y235000D01*
G01D02*
Y239049D01*
G01X277447Y235000D02*
X281496D01*
G01D02*
X285545D01*
M02*
