G04 ================== begin FILE IDENTIFICATION RECORD ==================*
G04 Layout Name:  G:/project_development/GitHub/ysyx3-pcb/PCB/ysyx3_pcb.brd*
G04 Film Name:    DRILL*
G04 File Format:  Gerber RS274X*
G04 File Origin:  Cadence Allegro 16.6-2015-S066*
G04 Origin Date:  Fri Jan 06 10:04:33 2023*
G04 *
G04 Layer:  MANUFACTURING/NCLEGEND-1-4*
G04 Layer:  MANUFACTURING/NCDRILL_LEGEND*
G04 Layer:  MANUFACTURING/NCDRILL_FIGURE*
G04 Layer:  BOARD GEOMETRY/OUTLINE*
G04 Layer:  BOARD GEOMETRY/DIMENSION*
G04 *
G04 Offset:    (0.00 0.00)*
G04 Mirror:    No*
G04 Mode:      Positive*
G04 Rotation:  0*
G04 FullContactRelief:  No*
G04 UndefLineWidth:     6.00*
G04 ================== end FILE IDENTIFICATION RECORD ====================*
%FSLAX55Y55*MOIN*%
%IR0*IPPOS*OFA0.00000B0.00000*MIA0B0*SFA1.00000B1.00000*%
%AMMACRO12*
1,1,.006,-.0101,-.02165*
20,1,.006,-.0101,-.02165,-.0101,.00722,0.0*
1,1,.006,-.0101,.00722*
1,1,.006,-.0101,.00145*
20,1,.006,-.0101,.00145,-.00649,.00434,0.0*
1,1,.006,-.00649,.00434*
20,1,.006,-.00649,.00434,-.00288,.0065,0.0*
1,1,.006,-.00288,.0065*
20,1,.006,-.00288,.0065,.00217,.00722,0.0*
1,1,.006,.00217,.00722*
20,1,.006,.00217,.00722,.00578,.0065,0.0*
1,1,.006,.00578,.0065*
20,1,.006,.00578,.0065,.01011,.00434,0.0*
1,1,.006,.01011,.00434*
%
%ADD12MACRO12*%
%AMMACRO13*
1,1,.006,0.0,.025*
20,1,.006,0.0,.025,.021655,-.025,0.0*
1,1,.006,.021655,-.025*
20,1,.006,.021655,-.025,-.021655,-.025,0.0*
1,1,.006,-.021655,-.025*
20,1,.006,-.021655,-.025,0.0,.025,0.0*
1,1,.006,0.0,.025*
1,1,.006,.0065,-.01082*
20,1,.006,.0065,-.01082,.0065,.00361,0.0*
1,1,.006,.0065,.00361*
1,1,.006,.0065,.00109*
20,1,.006,.0065,.00109,.00506,.00253,0.0*
1,1,.006,.00506,.00253*
20,1,.006,.00506,.00253,.00289,.00325,0.0*
1,1,.006,.00289,.00325*
20,1,.006,.00289,.00325,.00037,.00361,0.0*
1,1,.006,.00037,.00361*
20,1,.006,.00037,.00361,-.00216,.00289,0.0*
1,1,.006,-.00216,.00289*
20,1,.006,-.00216,.00289,-.00433,.00145,0.0*
1,1,.006,-.00433,.00145*
20,1,.006,-.00433,.00145,-.00577,-.00072,0.0*
1,1,.006,-.00577,-.00072*
20,1,.006,-.00577,-.00072,-.00649,-.0036,0.0*
1,1,.006,-.00649,-.0036*
20,1,.006,-.00649,-.0036,-.00577,-.00649,0.0*
1,1,.006,-.00577,-.00649*
20,1,.006,-.00577,-.00649,-.00433,-.00866,0.0*
1,1,.006,-.00433,-.00866*
20,1,.006,-.00433,-.00866,-.00216,-.0101,0.0*
1,1,.006,-.00216,-.0101*
20,1,.006,-.00216,-.0101,.00037,-.01082,0.0*
1,1,.006,.00037,-.01082*
20,1,.006,.00037,-.01082,.00289,-.01046,0.0*
1,1,.006,.00289,-.01046*
20,1,.006,.00289,-.01046,.00506,-.00938,0.0*
1,1,.006,.00506,-.00938*
20,1,.006,.00506,-.00938,.0065,-.00793,0.0*
1,1,.006,.0065,-.00793*
%
%ADD13MACRO13*%
%AMMACRO14*
1,1,.006,0.0,.025*
20,1,.006,0.0,.025,.021655,-.025,0.0*
1,1,.006,.021655,-.025*
20,1,.006,.021655,-.025,-.021655,-.025,0.0*
1,1,.006,-.021655,-.025*
20,1,.006,-.021655,-.025,0.0,.025,0.0*
1,1,.006,0.0,.025*
1,1,.006,-.00505,-.01623*
20,1,.006,-.00505,-.01623,-.00252,-.01768,0.0*
1,1,.006,-.00252,-.01768*
20,1,.006,-.00252,-.01768,.00037,-.01804,0.0*
1,1,.006,.00037,-.01804*
20,1,.006,.00037,-.01804,.00289,-.01768,0.0*
1,1,.006,.00289,-.01768*
20,1,.006,.00289,-.01768,.00506,-.01587,0.0*
1,1,.006,.00506,-.01587*
20,1,.006,.00506,-.01587,.0065,-.01335,0.0*
1,1,.006,.0065,-.01335*
20,1,.006,.0065,-.01335,.0065,.00361,0.0*
1,1,.006,.0065,.00361*
1,1,.006,.0065,.00073*
20,1,.006,.0065,.00073,.00506,.00217,0.0*
1,1,.006,.00506,.00217*
20,1,.006,.00506,.00217,.00289,.00325,0.0*
1,1,.006,.00289,.00325*
20,1,.006,.00289,.00325,.00037,.00361,0.0*
1,1,.006,.00037,.00361*
20,1,.006,.00037,.00361,-.00252,.00289,0.0*
1,1,.006,-.00252,.00289*
20,1,.006,-.00252,.00289,-.00433,.00145,0.0*
1,1,.006,-.00433,.00145*
20,1,.006,-.00433,.00145,-.00577,-.00108,0.0*
1,1,.006,-.00577,-.00108*
20,1,.006,-.00577,-.00108,-.00649,-.0036,0.0*
1,1,.006,-.00649,-.0036*
20,1,.006,-.00649,-.0036,-.00613,-.00577,0.0*
1,1,.006,-.00613,-.00577*
20,1,.006,-.00613,-.00577,-.00469,-.00829,0.0*
1,1,.006,-.00469,-.00829*
20,1,.006,-.00469,-.00829,-.00252,-.0101,0.0*
1,1,.006,-.00252,-.0101*
20,1,.006,-.00252,-.0101,.00037,-.01082,0.0*
1,1,.006,.00037,-.01082*
20,1,.006,.00037,-.01082,.00253,-.01046,0.0*
1,1,.006,.00253,-.01046*
20,1,.006,.00253,-.01046,.00506,-.00902,0.0*
1,1,.006,.00506,-.00902*
20,1,.006,.00506,-.00902,.0065,-.00757,0.0*
1,1,.006,.0065,-.00757*
%
%ADD14MACRO14*%
%AMMACRO10*
1,1,.006,-.0101,-.03248*
20,1,.006,-.0101,-.03248,-.00505,-.03536,0.0*
1,1,.006,-.00505,-.03536*
20,1,.006,-.00505,-.03536,.00073,-.03609,0.0*
1,1,.006,.00073,-.03609*
20,1,.006,.00073,-.03609,.00578,-.03536,0.0*
1,1,.006,.00578,-.03536*
20,1,.006,.00578,-.03536,.01011,-.03176,0.0*
1,1,.006,.01011,-.03176*
20,1,.006,.01011,-.03176,.013,-.0267,0.0*
1,1,.006,.013,-.0267*
20,1,.006,.013,-.0267,.013,.00722,0.0*
1,1,.006,.013,.00722*
1,1,.006,.013,.00145*
20,1,.006,.013,.00145,.01011,.00434,0.0*
1,1,.006,.01011,.00434*
20,1,.006,.01011,.00434,.00578,.0065,0.0*
1,1,.006,.00578,.0065*
20,1,.006,.00578,.0065,.00073,.00722,0.0*
1,1,.006,.00073,.00722*
20,1,.006,.00073,.00722,-.00505,.00578,0.0*
1,1,.006,-.00505,.00578*
20,1,.006,-.00505,.00578,-.00866,.00289,0.0*
1,1,.006,-.00866,.00289*
20,1,.006,-.00866,.00289,-.01155,-.00216,0.0*
1,1,.006,-.01155,-.00216*
20,1,.006,-.01155,-.00216,-.01299,-.00721,0.0*
1,1,.006,-.01299,-.00721*
20,1,.006,-.01299,-.00721,-.01227,-.01155,0.0*
1,1,.006,-.01227,-.01155*
20,1,.006,-.01227,-.01155,-.00938,-.0166,0.0*
1,1,.006,-.00938,-.0166*
20,1,.006,-.00938,-.0166,-.00505,-.02021,0.0*
1,1,.006,-.00505,-.02021*
20,1,.006,-.00505,-.02021,.00073,-.02165,0.0*
1,1,.006,.00073,-.02165*
20,1,.006,.00073,-.02165,.00506,-.02093,0.0*
1,1,.006,.00506,-.02093*
20,1,.006,.00506,-.02093,.01011,-.01804,0.0*
1,1,.006,.01011,-.01804*
20,1,.006,.01011,-.01804,.013,-.01515,0.0*
1,1,.006,.013,-.01515*
%
%ADD10MACRO10*%
%AMMACRO11*
1,1,.006,-.01227,-.02165*
20,1,.006,-.01227,-.02165,-.01227,.02166,0.0*
1,1,.006,-.01227,.02166*
1,1,.006,-.01227,.00073*
20,1,.006,-.01227,.00073,-.00866,.00434,0.0*
1,1,.006,-.00866,.00434*
20,1,.006,-.00866,.00434,-.00505,.0065,0.0*
1,1,.006,-.00505,.0065*
20,1,.006,-.00505,.0065,.00073,.00722,0.0*
1,1,.006,.00073,.00722*
20,1,.006,.00073,.00722,.00506,.0065,0.0*
1,1,.006,.00506,.0065*
20,1,.006,.00506,.0065,.01011,.00361,0.0*
1,1,.006,.01011,.00361*
20,1,.006,.01011,.00361,.01228,-.00072,0.0*
1,1,.006,.01228,-.00072*
20,1,.006,.01228,-.00072,.01228,-.02165,0.0*
1,1,.006,.01228,-.02165*
%
%ADD11MACRO11*%
%ADD15C,.006*%
G75*
%LPD*%
G75*
G54D10*
X24017Y-92738D03*
X52039Y115801D03*
Y85801D03*
X82039Y115801D03*
Y85801D03*
G54D11*
X24017Y-105738D03*
X62060Y16468D03*
X93556D03*
X281496Y235000D03*
G54D12*
X24017Y-118738D03*
X18504Y235000D03*
G54D13*
X24017Y-66738D03*
X50997Y51940D03*
Y60052D03*
X47728Y55996D03*
X39585Y14945D03*
X50997Y11992D03*
Y23622D03*
X55237Y17807D03*
X46757D03*
X28526Y69406D03*
X39643Y34217D03*
X23526Y69406D03*
X50648Y69126D03*
X50578Y65625D03*
X57571Y128602D03*
Y124664D03*
X12994Y116490D03*
X13526Y109408D03*
X63079Y133816D03*
X59535Y137616D03*
X20830Y116490D03*
X20866Y177401D03*
X12676Y187756D03*
X27165Y224095D03*
X41339D03*
X34252D03*
X48425D03*
X55512D03*
X62598D03*
X20866Y198111D03*
X60236Y213621D03*
X29528Y224095D03*
X31890D03*
X57874Y213621D03*
X28346Y256379D03*
X40157D03*
X35433D03*
X47244D03*
X54331D03*
X61417D03*
X30709Y245905D03*
X33071D03*
X63780D03*
X59055D03*
X56693D03*
X81312Y55606D03*
X68319Y63201D03*
X123057Y34354D03*
X126857Y37898D03*
X106265Y66027D03*
X112061Y55996D03*
X108792Y51940D03*
X105523Y55996D03*
X108792Y60052D03*
X112099Y12570D03*
Y23044D03*
X108437Y17807D03*
X115761D03*
X135914Y24373D03*
X131976D03*
X139852Y32787D03*
X135914D03*
X131976D03*
X74908Y54541D03*
X85642Y54591D03*
X70346Y68570D03*
X80149Y128622D03*
X97843Y138674D03*
X113390Y146795D03*
X101016Y142578D03*
X112749Y131450D03*
X112508Y119291D03*
X79571Y124684D03*
X102386Y70358D03*
X133013Y97843D03*
X128740Y112508D03*
X97843Y114702D03*
X140290Y101071D03*
X124467D03*
X101071Y106156D03*
X108075Y75477D03*
X127506Y146674D03*
X125228Y144347D03*
X127506Y142020D03*
X125228Y139693D03*
X127506Y137366D03*
X125228Y135039D03*
X101071Y138674D03*
X133013Y101071D03*
X101071Y114702D03*
X140290Y97843D03*
X124467D03*
X97843Y106156D03*
Y129829D03*
Y142578D03*
X101071Y156751D03*
X127652Y202157D03*
X119106D03*
X128740Y188070D03*
X112508Y163386D03*
X88583Y224095D03*
X102756D03*
X111930Y180709D03*
X97843Y151124D03*
Y184619D03*
Y165297D03*
X109843Y224095D03*
X95669D03*
X81496D03*
X69685D03*
X105118Y213621D03*
X107480D03*
X125883Y180797D03*
X129470Y178475D03*
X133980Y180282D03*
X137000Y175832D03*
X138634Y180282D03*
X120218Y173516D03*
X117940Y171189D03*
X120218Y168862D03*
X117552Y166035D03*
X120198Y162422D03*
X117920Y160095D03*
X120198Y157768D03*
X117920Y155441D03*
X120198Y153114D03*
X117920Y150787D03*
X125228Y149001D03*
X74409Y213621D03*
X72047D03*
X67323D03*
X64961D03*
X127652Y198929D03*
X101071Y184619D03*
Y165297D03*
Y151124D03*
X97843Y176073D03*
Y156751D03*
X119106Y198929D03*
X89764Y256379D03*
X68504D03*
X75591D03*
X82677D03*
X96850D03*
X92126Y280933D03*
X141732Y282924D03*
X139370Y282995D03*
X134646Y282948D03*
X129578Y282883D03*
X125168Y282994D03*
X121387Y282715D03*
X117478Y282647D03*
X113887Y282308D03*
X106299Y282184D03*
X101575Y266484D03*
X99213Y282229D03*
X94488Y282167D03*
X87402Y245905D03*
X85039D03*
X80315D03*
X73228D03*
X70866D03*
X66142D03*
X103937D03*
X218481Y44266D03*
X204160Y17394D03*
X144968Y47045D03*
Y42045D03*
X149995Y42326D03*
X154968Y42045D03*
Y47045D03*
Y52045D03*
X149968D03*
X144968D03*
X150000Y47000D03*
X156210Y26677D03*
X184162Y44241D03*
Y39517D03*
X195757Y25776D03*
X188041Y47820D03*
X187863Y52235D03*
X219982Y60598D03*
X198363Y11644D03*
X194897Y6407D03*
X201829D03*
X150778Y31646D03*
X147681Y27456D03*
X171361Y43063D03*
X167667Y30257D03*
X163830Y34005D03*
X167667Y37753D03*
X143790Y32787D03*
X160402Y34168D03*
X163700Y37439D03*
X176899Y34005D03*
X180069Y37175D03*
Y30835D03*
X195746Y21332D03*
X174812Y17394D03*
X220043Y5534D03*
X166751Y126646D03*
X171405D03*
X162097D03*
X159770Y124368D03*
X157443Y126646D03*
X187532Y124852D03*
X169685Y112508D03*
X202157Y131502D03*
X187355Y140584D03*
X220427Y124918D03*
Y74791D03*
Y97644D03*
X158661Y112508D03*
X176958Y97843D03*
X162935D03*
X202157Y143250D03*
X148836Y97843D03*
X146063Y112508D03*
X154389Y101071D03*
X180134Y103863D03*
X164424Y124368D03*
X208304Y88202D03*
Y83202D03*
X213304D03*
Y88202D03*
X203304Y83202D03*
Y88202D03*
X205328Y123623D03*
X181746Y127165D03*
X179468Y129492D03*
X181746Y131819D03*
X179468Y134146D03*
X182622Y136473D03*
X179468Y138800D03*
X181746Y141127D03*
X177116Y80618D03*
X169078Y124368D03*
X198929Y131502D03*
Y143198D03*
X148836Y101071D03*
X176958D03*
X193213Y100847D03*
X190063D03*
Y97697D03*
X193213D03*
X162935Y101071D03*
X202157Y147301D03*
X198958Y122883D03*
X193313Y91547D03*
X190163D03*
Y94697D03*
X193313D03*
X154389Y97843D03*
X168412D03*
X202157Y134704D03*
X164654Y88695D03*
X162095Y117437D03*
X168661Y88695D03*
X165806Y117424D03*
X177917Y144175D03*
X175639Y146502D03*
X177917Y148829D03*
X215305Y150467D03*
X182433Y155512D03*
X215305Y154405D03*
X180155Y157839D03*
X215305Y158343D03*
X182433Y160166D03*
X215305Y162281D03*
X180379Y162493D03*
X182779Y164981D03*
X215305Y166219D03*
X150245Y204461D03*
X163346D03*
X143019Y187046D03*
X170038Y187231D03*
X162974Y186982D03*
X165857Y184341D03*
X186746Y152213D03*
X202157Y155847D03*
X198929Y159901D03*
X218504Y224095D03*
X211417D03*
X204331D03*
X185433D03*
X192520D03*
X197244D03*
X186279Y165747D03*
X202157Y168447D03*
X210150Y186836D03*
X175160Y204461D03*
X171222D03*
X155470D03*
X159408D03*
X146307D03*
X167284D03*
X180279Y211080D03*
X145466Y172295D03*
X145508Y180186D03*
X149392Y176427D03*
X187795Y211438D03*
X190157Y213621D03*
X199606D03*
X201969D03*
X206693D03*
X216142D03*
X213780D03*
X209055D03*
X149213Y181477D03*
X151540Y179199D03*
X153867Y181477D03*
X156194Y179199D03*
X160848D03*
X163175Y181477D03*
X158521D03*
X163436Y207248D03*
X157439Y207237D03*
X152454Y196426D03*
X150214Y206861D03*
X202157Y159901D03*
X175639Y151156D03*
X177917Y153483D03*
X184252Y256379D03*
X191339D03*
X198425D03*
X205512D03*
X212598D03*
X217323D03*
X146457Y245905D03*
X148819D03*
X153543D03*
X155906D03*
X162992D03*
X167717D03*
X160630D03*
X165310Y256558D03*
X233481Y44266D03*
X228481D03*
X223481D03*
X259969Y70282D03*
X228323Y69258D03*
X259851Y60598D03*
X263789D03*
X271665D03*
X267727D03*
X223920D03*
X234100Y58294D03*
X255913Y60598D03*
X271495Y5534D03*
X267557D03*
X263619D03*
X259681D03*
X231857D03*
X227919D03*
X223981D03*
X255743D03*
X254079Y43688D03*
X259079D03*
X264079D03*
X269079D03*
X274079D03*
X259969Y92557D03*
X244541Y78413D03*
X244529Y101266D03*
X227711Y119944D03*
X224365Y124918D03*
X259969Y120409D03*
X255638Y124288D03*
X224365Y74791D03*
X224054Y97347D03*
X228326Y92092D03*
X255638Y74161D03*
X255621Y97014D03*
X244529Y129118D03*
X223141Y154405D03*
X279134Y177401D03*
Y198111D03*
X287324Y187756D03*
X237402Y224095D03*
X232677D03*
X225591D03*
X244488D03*
X251575D03*
X258661D03*
X265748D03*
X270472Y213621D03*
X268110D03*
X263386D03*
X261024D03*
X253937D03*
X249213D03*
X246850D03*
X242126D03*
X223141Y150467D03*
Y158343D03*
Y162281D03*
Y166219D03*
X224409Y256379D03*
X231496D03*
X238583D03*
X245669D03*
X252756D03*
X257480D03*
X264567D03*
G54D14*
X24017Y-79738D03*
X142126Y17319D03*
X157874D03*
G54D15*
G01X1017Y-125238D02*
Y-9238D01*
X250017D01*
Y-125238D01*
X1017D01*
G01X47017Y-47238D02*
Y-125238D01*
G01X1017Y-99238D02*
X250017D01*
G01X1017Y-112238D02*
X250017D01*
G01X1017Y-34238D02*
X250017D01*
G01X1017Y-47238D02*
X250017D01*
G01X1017Y-60238D02*
X250017D01*
G01X1017Y-73238D02*
X250017D01*
G01X1017Y-86238D02*
X250017D01*
G01X145017Y-47238D02*
Y-125238D01*
G01X210517Y-47238D02*
Y-125238D01*
G01X42067Y-18988D02*
Y-12488D01*
X44067D01*
X44867Y-12813D01*
X45467Y-13246D01*
X45967Y-13896D01*
X46367Y-14655D01*
X46467Y-15738D01*
X46367Y-16821D01*
X45967Y-17580D01*
X45467Y-18230D01*
X44867Y-18663D01*
X44067Y-18988D01*
X42067D01*
G01X48767D02*
Y-12488D01*
X51267D01*
X52067Y-12813D01*
X52567Y-13246D01*
X52767Y-14113D01*
X52567Y-14980D01*
X51967Y-15521D01*
X51267Y-15846D01*
X48767D01*
G01X51267D02*
X52767Y-18988D01*
G01X56067Y-12488D02*
X58467D01*
G01X57267D02*
Y-18988D01*
G01X56067D02*
X58467D01*
G01X61767Y-12488D02*
Y-18988D01*
X65767D01*
G01X68267Y-12488D02*
Y-18988D01*
X72267D01*
G01X85467Y-13030D02*
X84867Y-12705D01*
X84167Y-12488D01*
X83367D01*
X82467Y-12813D01*
X81767Y-13355D01*
X81267Y-14005D01*
X80867Y-15088D01*
X80767Y-16063D01*
X80967Y-17038D01*
X81267Y-17688D01*
X81867Y-18338D01*
X82567Y-18771D01*
X83267Y-18988D01*
X83967D01*
X84667Y-18771D01*
X85267Y-18446D01*
X85767Y-18013D01*
G01X87667Y-18988D02*
Y-12488D01*
G01X91867D02*
Y-18988D01*
G01Y-15738D02*
X87667D01*
G01X93767Y-18988D02*
X96267Y-12488D01*
X98767Y-18988D01*
G01X97867Y-16713D02*
X94667D01*
G01X100767Y-18988D02*
Y-12488D01*
X103267D01*
X104067Y-12813D01*
X104567Y-13246D01*
X104767Y-14113D01*
X104567Y-14980D01*
X103967Y-15521D01*
X103267Y-15846D01*
X100767D01*
G01X103267D02*
X104767Y-18988D01*
G01X109267Y-12488D02*
Y-18988D01*
G01X106967Y-12488D02*
X111567D01*
G01X115767Y-19205D02*
X115567Y-19096D01*
Y-18880D01*
X115767Y-18771D01*
X115967Y-18880D01*
Y-19096D01*
X115767Y-19205D01*
G01Y-16280D02*
X115567Y-16171D01*
Y-15955D01*
X115767Y-15846D01*
X115967Y-15955D01*
Y-16171D01*
X115767Y-16280D01*
G01X128767Y-12488D02*
Y-18988D01*
G01X126467Y-12488D02*
X131067D01*
G01X135267Y-18988D02*
X134467Y-18880D01*
X133767Y-18446D01*
X133167Y-17796D01*
X132767Y-17038D01*
X132567Y-16171D01*
Y-15305D01*
X132767Y-14438D01*
X133167Y-13680D01*
X133767Y-13030D01*
X134467Y-12596D01*
X135267Y-12488D01*
X136067Y-12596D01*
X136767Y-13030D01*
X137367Y-13680D01*
X137767Y-14438D01*
X137967Y-15305D01*
Y-16171D01*
X137767Y-17038D01*
X137367Y-17796D01*
X136767Y-18446D01*
X136067Y-18880D01*
X135267Y-18988D01*
G01X139767D02*
Y-12488D01*
X142167D01*
X142967Y-12813D01*
X143567Y-13571D01*
X143767Y-14438D01*
X143567Y-15305D01*
X143067Y-15955D01*
X142167Y-16280D01*
X139767D01*
G01X154767Y-12488D02*
Y-18988D01*
G01X153367Y-14655D02*
X156167D01*
G01X161267Y-18988D02*
X160667Y-18880D01*
X160067Y-18446D01*
X159667Y-17688D01*
X159467Y-16821D01*
X159667Y-15955D01*
X160067Y-15196D01*
X160667Y-14763D01*
X161267Y-14655D01*
X161867Y-14763D01*
X162467Y-15196D01*
X162867Y-15955D01*
X162967Y-16821D01*
X162867Y-17688D01*
X162467Y-18446D01*
X161867Y-18880D01*
X161267Y-18988D01*
G01X175067Y-15521D02*
X175467Y-15196D01*
X175767Y-14655D01*
X175967Y-13896D01*
X175767Y-13246D01*
X175367Y-12813D01*
X174667Y-12488D01*
X171967D01*
Y-18988D01*
X175267D01*
X175967Y-18555D01*
X176367Y-17905D01*
X176567Y-17146D01*
X176367Y-16388D01*
X175767Y-15738D01*
X175067Y-15521D01*
X171967D01*
G01X180767Y-18988D02*
X179967Y-18880D01*
X179267Y-18446D01*
X178667Y-17796D01*
X178267Y-17038D01*
X178067Y-16171D01*
Y-15305D01*
X178267Y-14438D01*
X178667Y-13680D01*
X179267Y-13030D01*
X179967Y-12596D01*
X180767Y-12488D01*
X181567Y-12596D01*
X182267Y-13030D01*
X182867Y-13680D01*
X183267Y-14438D01*
X183467Y-15305D01*
Y-16171D01*
X183267Y-17038D01*
X182867Y-17796D01*
X182267Y-18446D01*
X181567Y-18880D01*
X180767Y-18988D01*
G01X187267Y-12488D02*
Y-18988D01*
G01X184967Y-12488D02*
X189567D01*
G01X193767D02*
Y-18988D01*
G01X191467Y-12488D02*
X196067D01*
G01X200267Y-18988D02*
X199467Y-18880D01*
X198767Y-18446D01*
X198167Y-17796D01*
X197767Y-17038D01*
X197567Y-16171D01*
Y-15305D01*
X197767Y-14438D01*
X198167Y-13680D01*
X198767Y-13030D01*
X199467Y-12596D01*
X200267Y-12488D01*
X201067Y-12596D01*
X201767Y-13030D01*
X202367Y-13680D01*
X202767Y-14438D01*
X202967Y-15305D01*
Y-16171D01*
X202767Y-17038D01*
X202367Y-17796D01*
X201767Y-18446D01*
X201067Y-18880D01*
X200267Y-18988D01*
G01X204167D02*
Y-12488D01*
X206767Y-17905D01*
X209367Y-12488D01*
Y-18988D01*
G01X58017Y-43988D02*
X60517Y-37488D01*
X63017Y-43988D01*
G01X62117Y-41713D02*
X58917D01*
G01X65017Y-37488D02*
Y-43988D01*
X69017D01*
G01X71517Y-37488D02*
Y-43988D01*
X75517D01*
G01X84317Y-37488D02*
Y-42146D01*
X84717Y-43122D01*
X85517Y-43771D01*
X86517Y-43988D01*
X87517Y-43771D01*
X88317Y-43122D01*
X88717Y-42146D01*
Y-37488D01*
G01X90717Y-43988D02*
Y-37488D01*
X95317Y-43988D01*
Y-37488D01*
G01X98317D02*
X100717D01*
G01X99517D02*
Y-43988D01*
G01X98317D02*
X100717D01*
G01X106017Y-37488D02*
Y-43988D01*
G01X103717Y-37488D02*
X108317D01*
G01X110417Y-43122D02*
X111217Y-43663D01*
X112117Y-43988D01*
X112917D01*
X113717Y-43663D01*
X114317Y-43122D01*
X114617Y-42363D01*
X114417Y-41605D01*
X113917Y-40955D01*
X113017Y-40521D01*
X111817Y-40305D01*
X111117Y-39871D01*
X110817Y-39113D01*
X111017Y-38355D01*
X111517Y-37813D01*
X112217Y-37488D01*
X112917D01*
X113617Y-37705D01*
X114217Y-38246D01*
G01X123017Y-43988D02*
X125517Y-37488D01*
X128017Y-43988D01*
G01X127117Y-41713D02*
X123917D01*
G01X130017Y-43988D02*
Y-37488D01*
X132517D01*
X133317Y-37813D01*
X133817Y-38246D01*
X134017Y-39113D01*
X133817Y-39980D01*
X133217Y-40521D01*
X132517Y-40846D01*
X130017D01*
G01X132517D02*
X134017Y-43988D01*
G01X140517D02*
X136517D01*
Y-37488D01*
X140517D01*
G01X138917Y-40630D02*
X136517D01*
G01X150317Y-37488D02*
X152717D01*
G01X151517D02*
Y-43988D01*
G01X150317D02*
X152717D01*
G01X155717D02*
Y-37488D01*
X160317Y-43988D01*
Y-37488D01*
G01X168417Y-43988D02*
Y-37488D01*
X171017Y-42905D01*
X173617Y-37488D01*
Y-43988D01*
G01X176317Y-37488D02*
X178717D01*
G01X177517D02*
Y-43988D01*
G01X176317D02*
X178717D01*
G01X182017Y-37488D02*
Y-43988D01*
X186017D01*
G01X188417Y-43122D02*
X189217Y-43663D01*
X190117Y-43988D01*
X190917D01*
X191717Y-43663D01*
X192317Y-43122D01*
X192617Y-42363D01*
X192417Y-41605D01*
X191917Y-40955D01*
X191017Y-40521D01*
X189817Y-40305D01*
X189117Y-39871D01*
X188817Y-39113D01*
X189017Y-38355D01*
X189517Y-37813D01*
X190217Y-37488D01*
X190917D01*
X191617Y-37705D01*
X192217Y-38246D01*
G01X5867Y-56988D02*
Y-50488D01*
X9667D01*
G01X8267Y-53630D02*
X5867D01*
G01X13067Y-50488D02*
X15467D01*
G01X14267D02*
Y-56988D01*
G01X13067D02*
X15467D01*
G01X21367Y-53738D02*
X23367D01*
Y-55688D01*
X22767Y-56338D01*
X22067Y-56771D01*
X21067Y-56988D01*
X20067Y-56771D01*
X19367Y-56338D01*
X18767Y-55688D01*
X18367Y-54930D01*
X18167Y-54063D01*
Y-53305D01*
X18367Y-52655D01*
X18767Y-51896D01*
X19367Y-51246D01*
X19967Y-50813D01*
X20767Y-50488D01*
X21467D01*
X22267Y-50705D01*
X22867Y-51138D01*
G01X25067Y-50488D02*
Y-55146D01*
X25467Y-56122D01*
X26267Y-56771D01*
X27267Y-56988D01*
X28267Y-56771D01*
X29067Y-56122D01*
X29467Y-55146D01*
Y-50488D01*
G01X31767Y-56988D02*
Y-50488D01*
X34267D01*
X35067Y-50813D01*
X35567Y-51246D01*
X35767Y-52113D01*
X35567Y-52980D01*
X34967Y-53521D01*
X34267Y-53846D01*
X31767D01*
G01X34267D02*
X35767Y-56988D01*
G01X42267D02*
X38267D01*
Y-50488D01*
X42267D01*
G01X40667Y-53630D02*
X38267D01*
G01X4500Y0D02*
X295500D01*
G03X300000Y4500I0J4500D01*
G01Y295500D01*
G03X295500Y300000I-4500J0D01*
G01X4500D01*
G03X0Y295500I0J-4500D01*
G01Y4500D01*
G03X4500Y0I4500J0D01*
G01X80817Y-94688D02*
X81417Y-95446D01*
X82217Y-95880D01*
X83117Y-95988D01*
X83917Y-95880D01*
X84717Y-95338D01*
X85217Y-94688D01*
X85317Y-94038D01*
X85117Y-93280D01*
X84417Y-92738D01*
X83717Y-92521D01*
X82817D01*
G01X83717D02*
X84317Y-92196D01*
X84817Y-91655D01*
X85017Y-91005D01*
X84817Y-90355D01*
X84317Y-89813D01*
X83417Y-89488D01*
X82517Y-89596D01*
X81617Y-90030D01*
G01X87817Y-95230D02*
X88517Y-95771D01*
X89317Y-95988D01*
X90117Y-95771D01*
X90817Y-95122D01*
X91317Y-94146D01*
X91517Y-93171D01*
Y-91980D01*
X91317Y-91005D01*
X90817Y-90138D01*
X90217Y-89705D01*
X89517Y-89488D01*
X88717Y-89705D01*
X88117Y-90138D01*
X87717Y-90788D01*
X87517Y-91655D01*
X87717Y-92413D01*
X88217Y-93171D01*
X88817Y-93605D01*
X89517Y-93713D01*
X90317Y-93496D01*
X90917Y-92955D01*
X91517Y-91980D01*
G01X96017Y-96205D02*
X95817Y-96096D01*
Y-95880D01*
X96017Y-95771D01*
X96217Y-95880D01*
Y-96096D01*
X96017Y-96205D01*
G01X100317Y-94688D02*
X100917Y-95446D01*
X101717Y-95880D01*
X102617Y-95988D01*
X103417Y-95880D01*
X104217Y-95338D01*
X104717Y-94688D01*
X104817Y-94038D01*
X104617Y-93280D01*
X103917Y-92738D01*
X103217Y-92521D01*
X102317D01*
G01X103217D02*
X103817Y-92196D01*
X104317Y-91655D01*
X104517Y-91005D01*
X104317Y-90355D01*
X103817Y-89813D01*
X102917Y-89488D01*
X102017Y-89596D01*
X101117Y-90030D01*
G01X108817Y-95988D02*
X109017Y-94580D01*
X109317Y-93388D01*
X109717Y-92305D01*
X110217Y-91113D01*
X111017Y-89488D01*
X107017D01*
G01X84217Y-108988D02*
Y-102488D01*
X80517Y-107146D01*
X85517D01*
G01X87317Y-107688D02*
X87917Y-108446D01*
X88717Y-108880D01*
X89617Y-108988D01*
X90417Y-108880D01*
X91217Y-108338D01*
X91717Y-107688D01*
X91817Y-107038D01*
X91617Y-106280D01*
X90917Y-105738D01*
X90217Y-105521D01*
X89317D01*
G01X90217D02*
X90817Y-105196D01*
X91317Y-104655D01*
X91517Y-104005D01*
X91317Y-103355D01*
X90817Y-102813D01*
X89917Y-102488D01*
X89017Y-102596D01*
X88117Y-103030D01*
G01X96017Y-109205D02*
X95817Y-109096D01*
Y-108880D01*
X96017Y-108771D01*
X96217Y-108880D01*
Y-109096D01*
X96017Y-109205D01*
G01X100317Y-107688D02*
X100917Y-108446D01*
X101717Y-108880D01*
X102617Y-108988D01*
X103417Y-108880D01*
X104217Y-108338D01*
X104717Y-107688D01*
X104817Y-107038D01*
X104617Y-106280D01*
X103917Y-105738D01*
X103217Y-105521D01*
X102317D01*
G01X103217D02*
X103817Y-105196D01*
X104317Y-104655D01*
X104517Y-104005D01*
X104317Y-103355D01*
X103817Y-102813D01*
X102917Y-102488D01*
X102017Y-102596D01*
X101117Y-103030D01*
G01X109017Y-108988D02*
Y-102488D01*
X107817Y-103788D01*
G01Y-108988D02*
X110217D01*
G01X81117Y-119280D02*
X81817Y-118521D01*
X82417Y-118088D01*
X83217Y-117871D01*
X83917Y-118088D01*
X84417Y-118521D01*
X84817Y-119171D01*
X84917Y-119930D01*
X84817Y-120580D01*
X84417Y-121230D01*
X83817Y-121771D01*
X83117Y-121988D01*
X82317Y-121771D01*
X81617Y-121122D01*
X81217Y-120146D01*
X81117Y-119063D01*
X81317Y-117655D01*
X81617Y-116896D01*
X82117Y-116138D01*
X82817Y-115596D01*
X83517Y-115488D01*
X84217Y-115705D01*
X84717Y-116246D01*
G01X87617Y-119280D02*
X88317Y-118521D01*
X88917Y-118088D01*
X89717Y-117871D01*
X90417Y-118088D01*
X90917Y-118521D01*
X91317Y-119171D01*
X91417Y-119930D01*
X91317Y-120580D01*
X90917Y-121230D01*
X90317Y-121771D01*
X89617Y-121988D01*
X88817Y-121771D01*
X88117Y-121122D01*
X87717Y-120146D01*
X87617Y-119063D01*
X87817Y-117655D01*
X88117Y-116896D01*
X88617Y-116138D01*
X89317Y-115596D01*
X90017Y-115488D01*
X90717Y-115705D01*
X91217Y-116246D01*
G01X96017Y-122205D02*
X95817Y-122096D01*
Y-121880D01*
X96017Y-121771D01*
X96217Y-121880D01*
Y-122096D01*
X96017Y-122205D01*
G01X100817Y-121230D02*
X101517Y-121771D01*
X102317Y-121988D01*
X103117Y-121771D01*
X103817Y-121122D01*
X104317Y-120146D01*
X104517Y-119171D01*
Y-117980D01*
X104317Y-117005D01*
X103817Y-116138D01*
X103217Y-115705D01*
X102517Y-115488D01*
X101717Y-115705D01*
X101117Y-116138D01*
X100717Y-116788D01*
X100517Y-117655D01*
X100717Y-118413D01*
X101217Y-119171D01*
X101817Y-119605D01*
X102517Y-119713D01*
X103317Y-119496D01*
X103917Y-118955D01*
X104517Y-117980D01*
G01X106817Y-120688D02*
X107417Y-121446D01*
X108217Y-121880D01*
X109117Y-121988D01*
X109917Y-121880D01*
X110717Y-121338D01*
X111217Y-120688D01*
X111317Y-120038D01*
X111117Y-119280D01*
X110417Y-118738D01*
X109717Y-118521D01*
X108817D01*
G01X109717D02*
X110317Y-118196D01*
X110817Y-117655D01*
X111017Y-117005D01*
X110817Y-116355D01*
X110317Y-115813D01*
X109417Y-115488D01*
X108517Y-115596D01*
X107617Y-116030D01*
G01X84167Y-56122D02*
X84967Y-56663D01*
X85867Y-56988D01*
X86667D01*
X87467Y-56663D01*
X88067Y-56122D01*
X88367Y-55363D01*
X88167Y-54605D01*
X87667Y-53955D01*
X86767Y-53521D01*
X85567Y-53305D01*
X84867Y-52871D01*
X84567Y-52113D01*
X84767Y-51355D01*
X85267Y-50813D01*
X85967Y-50488D01*
X86667D01*
X87367Y-50705D01*
X87967Y-51246D01*
G01X91567Y-50488D02*
X93967D01*
G01X92767D02*
Y-56988D01*
G01X91567D02*
X93967D01*
G01X97367Y-50488D02*
X101167D01*
X97367Y-56988D01*
X101167D01*
G01X107767D02*
X103767D01*
Y-50488D01*
X107767D01*
G01X106167Y-53630D02*
X103767D01*
G01X89517Y-69988D02*
X90217Y-69880D01*
X91017Y-69555D01*
X91517Y-69013D01*
X91717Y-68255D01*
X91517Y-67496D01*
X90917Y-66846D01*
X90017Y-66521D01*
X89017D01*
X88417Y-66305D01*
X87917Y-65763D01*
X87717Y-65005D01*
X88017Y-64246D01*
X88717Y-63705D01*
X89517Y-63488D01*
X90317Y-63705D01*
X91017Y-64246D01*
X91317Y-65005D01*
X91117Y-65763D01*
X90617Y-66305D01*
X90017Y-66521D01*
X89017D01*
X88117Y-66846D01*
X87517Y-67496D01*
X87317Y-68255D01*
X87517Y-69013D01*
X88017Y-69555D01*
X88817Y-69880D01*
X89517Y-69988D01*
G01X96017Y-70205D02*
X95817Y-70096D01*
Y-69880D01*
X96017Y-69771D01*
X96217Y-69880D01*
Y-70096D01*
X96017Y-70205D01*
G01X102517Y-63488D02*
X101717Y-63705D01*
X101117Y-64246D01*
X100717Y-64896D01*
X100417Y-65763D01*
X100317Y-66738D01*
X100417Y-67713D01*
X100717Y-68580D01*
X101117Y-69230D01*
X101717Y-69771D01*
X102517Y-69988D01*
X103317Y-69771D01*
X103917Y-69230D01*
X104317Y-68580D01*
X104617Y-67713D01*
X104717Y-66738D01*
X104617Y-65763D01*
X104317Y-64896D01*
X103917Y-64246D01*
X103317Y-63705D01*
X102517Y-63488D01*
G01X83017Y-82988D02*
Y-76488D01*
X81817Y-77788D01*
G01Y-82988D02*
X84217D01*
G01X87817Y-82230D02*
X88517Y-82771D01*
X89317Y-82988D01*
X90117Y-82771D01*
X90817Y-82122D01*
X91317Y-81146D01*
X91517Y-80171D01*
Y-78980D01*
X91317Y-78005D01*
X90817Y-77138D01*
X90217Y-76705D01*
X89517Y-76488D01*
X88717Y-76705D01*
X88117Y-77138D01*
X87717Y-77788D01*
X87517Y-78655D01*
X87717Y-79413D01*
X88217Y-80171D01*
X88817Y-80605D01*
X89517Y-80713D01*
X90317Y-80496D01*
X90917Y-79955D01*
X91517Y-78980D01*
G01X96017Y-83205D02*
X95817Y-83096D01*
Y-82880D01*
X96017Y-82771D01*
X96217Y-82880D01*
Y-83096D01*
X96017Y-83205D01*
G01X100617Y-80280D02*
X101317Y-79521D01*
X101917Y-79088D01*
X102717Y-78871D01*
X103417Y-79088D01*
X103917Y-79521D01*
X104317Y-80171D01*
X104417Y-80930D01*
X104317Y-81580D01*
X103917Y-82230D01*
X103317Y-82771D01*
X102617Y-82988D01*
X101817Y-82771D01*
X101117Y-82122D01*
X100717Y-81146D01*
X100617Y-80063D01*
X100817Y-78655D01*
X101117Y-77896D01*
X101617Y-77138D01*
X102317Y-76596D01*
X103017Y-76488D01*
X103717Y-76705D01*
X104217Y-77246D01*
G01X107317Y-82230D02*
X108017Y-82771D01*
X108817Y-82988D01*
X109617Y-82771D01*
X110317Y-82122D01*
X110817Y-81146D01*
X111017Y-80171D01*
Y-78980D01*
X110817Y-78005D01*
X110317Y-77138D01*
X109717Y-76705D01*
X109017Y-76488D01*
X108217Y-76705D01*
X107617Y-77138D01*
X107217Y-77788D01*
X107017Y-78655D01*
X107217Y-79413D01*
X107717Y-80171D01*
X108317Y-80605D01*
X109017Y-80713D01*
X109817Y-80496D01*
X110417Y-79955D01*
X111017Y-78980D01*
G01X159517Y-95988D02*
Y-89488D01*
X161917D01*
X162717Y-89813D01*
X163317Y-90571D01*
X163517Y-91438D01*
X163317Y-92305D01*
X162817Y-92955D01*
X161917Y-93280D01*
X159517D01*
G01X166017Y-89488D02*
Y-95988D01*
X170017D01*
G01X172017D02*
X174517Y-89488D01*
X177017Y-95988D01*
G01X176117Y-93713D02*
X172917D01*
G01X181017Y-89488D02*
Y-95988D01*
G01X178717Y-89488D02*
X183317D01*
G01X189517Y-95988D02*
X185517D01*
Y-89488D01*
X189517D01*
G01X187917Y-92630D02*
X185517D01*
G01X191817Y-95988D02*
Y-89488D01*
X193817D01*
X194617Y-89813D01*
X195217Y-90246D01*
X195717Y-90896D01*
X196117Y-91655D01*
X196217Y-92738D01*
X196117Y-93821D01*
X195717Y-94580D01*
X195217Y-95230D01*
X194617Y-95663D01*
X193817Y-95988D01*
X191817D01*
G01X159517Y-108988D02*
Y-102488D01*
X161917D01*
X162717Y-102813D01*
X163317Y-103571D01*
X163517Y-104438D01*
X163317Y-105305D01*
X162817Y-105955D01*
X161917Y-106280D01*
X159517D01*
G01X166017Y-102488D02*
Y-108988D01*
X170017D01*
G01X172017D02*
X174517Y-102488D01*
X177017Y-108988D01*
G01X176117Y-106713D02*
X172917D01*
G01X181017Y-102488D02*
Y-108988D01*
G01X178717Y-102488D02*
X183317D01*
G01X189517Y-108988D02*
X185517D01*
Y-102488D01*
X189517D01*
G01X187917Y-105630D02*
X185517D01*
G01X191817Y-108988D02*
Y-102488D01*
X193817D01*
X194617Y-102813D01*
X195217Y-103246D01*
X195717Y-103896D01*
X196117Y-104655D01*
X196217Y-105738D01*
X196117Y-106821D01*
X195717Y-107580D01*
X195217Y-108230D01*
X194617Y-108663D01*
X193817Y-108988D01*
X191817D01*
G01X159517Y-121988D02*
Y-115488D01*
X161917D01*
X162717Y-115813D01*
X163317Y-116571D01*
X163517Y-117438D01*
X163317Y-118305D01*
X162817Y-118955D01*
X161917Y-119280D01*
X159517D01*
G01X166017Y-115488D02*
Y-121988D01*
X170017D01*
G01X172017D02*
X174517Y-115488D01*
X177017Y-121988D01*
G01X176117Y-119713D02*
X172917D01*
G01X181017Y-115488D02*
Y-121988D01*
G01X178717Y-115488D02*
X183317D01*
G01X189517Y-121988D02*
X185517D01*
Y-115488D01*
X189517D01*
G01X187917Y-118630D02*
X185517D01*
G01X191817Y-121988D02*
Y-115488D01*
X193817D01*
X194617Y-115813D01*
X195217Y-116246D01*
X195717Y-116896D01*
X196117Y-117655D01*
X196217Y-118738D01*
X196117Y-119821D01*
X195717Y-120580D01*
X195217Y-121230D01*
X194617Y-121663D01*
X193817Y-121988D01*
X191817D01*
G01X159517Y-56988D02*
Y-50488D01*
X161917D01*
X162717Y-50813D01*
X163317Y-51571D01*
X163517Y-52438D01*
X163317Y-53305D01*
X162817Y-53955D01*
X161917Y-54280D01*
X159517D01*
G01X166017Y-50488D02*
Y-56988D01*
X170017D01*
G01X172017D02*
X174517Y-50488D01*
X177017Y-56988D01*
G01X176117Y-54713D02*
X172917D01*
G01X181017Y-50488D02*
Y-56988D01*
G01X178717Y-50488D02*
X183317D01*
G01X189517Y-56988D02*
X185517D01*
Y-50488D01*
X189517D01*
G01X187917Y-53630D02*
X185517D01*
G01X191817Y-56988D02*
Y-50488D01*
X193817D01*
X194617Y-50813D01*
X195217Y-51246D01*
X195717Y-51896D01*
X196117Y-52655D01*
X196217Y-53738D01*
X196117Y-54821D01*
X195717Y-55580D01*
X195217Y-56230D01*
X194617Y-56663D01*
X193817Y-56988D01*
X191817D01*
G01X159517Y-69988D02*
Y-63488D01*
X161917D01*
X162717Y-63813D01*
X163317Y-64571D01*
X163517Y-65438D01*
X163317Y-66305D01*
X162817Y-66955D01*
X161917Y-67280D01*
X159517D01*
G01X166017Y-63488D02*
Y-69988D01*
X170017D01*
G01X172017D02*
X174517Y-63488D01*
X177017Y-69988D01*
G01X176117Y-67713D02*
X172917D01*
G01X181017Y-63488D02*
Y-69988D01*
G01X178717Y-63488D02*
X183317D01*
G01X189517Y-69988D02*
X185517D01*
Y-63488D01*
X189517D01*
G01X187917Y-66630D02*
X185517D01*
G01X191817Y-69988D02*
Y-63488D01*
X193817D01*
X194617Y-63813D01*
X195217Y-64246D01*
X195717Y-64896D01*
X196117Y-65655D01*
X196217Y-66738D01*
X196117Y-67821D01*
X195717Y-68580D01*
X195217Y-69230D01*
X194617Y-69663D01*
X193817Y-69988D01*
X191817D01*
G01X159517Y-82988D02*
Y-76488D01*
X161917D01*
X162717Y-76813D01*
X163317Y-77571D01*
X163517Y-78438D01*
X163317Y-79305D01*
X162817Y-79955D01*
X161917Y-80280D01*
X159517D01*
G01X166017Y-76488D02*
Y-82988D01*
X170017D01*
G01X172017D02*
X174517Y-76488D01*
X177017Y-82988D01*
G01X176117Y-80713D02*
X172917D01*
G01X181017Y-76488D02*
Y-82988D01*
G01X178717Y-76488D02*
X183317D01*
G01X189517Y-82988D02*
X185517D01*
Y-76488D01*
X189517D01*
G01X187917Y-79630D02*
X185517D01*
G01X191817Y-82988D02*
Y-76488D01*
X193817D01*
X194617Y-76813D01*
X195217Y-77246D01*
X195717Y-77896D01*
X196117Y-78655D01*
X196217Y-79738D01*
X196117Y-80821D01*
X195717Y-81580D01*
X195217Y-82230D01*
X194617Y-82663D01*
X193817Y-82988D01*
X191817D01*
G01X231467Y-95988D02*
Y-89488D01*
X227767Y-94146D01*
X232767D01*
G01X228067Y-107688D02*
X228667Y-108446D01*
X229467Y-108880D01*
X230367Y-108988D01*
X231167Y-108880D01*
X231967Y-108338D01*
X232467Y-107688D01*
X232567Y-107038D01*
X232367Y-106280D01*
X231667Y-105738D01*
X230967Y-105521D01*
X230067D01*
G01X230967D02*
X231567Y-105196D01*
X232067Y-104655D01*
X232267Y-104005D01*
X232067Y-103355D01*
X231567Y-102813D01*
X230667Y-102488D01*
X229767Y-102596D01*
X228867Y-103030D01*
G01X230267Y-121988D02*
Y-115488D01*
X229067Y-116788D01*
G01Y-121988D02*
X231467D01*
G01X223767Y-56988D02*
X222967Y-56880D01*
X222267Y-56446D01*
X221667Y-55796D01*
X221267Y-55038D01*
X221067Y-54171D01*
Y-53305D01*
X221267Y-52438D01*
X221667Y-51680D01*
X222267Y-51030D01*
X222967Y-50596D01*
X223767Y-50488D01*
X224567Y-50596D01*
X225267Y-51030D01*
X225867Y-51680D01*
X226267Y-52438D01*
X226467Y-53305D01*
Y-54171D01*
X226267Y-55038D01*
X225867Y-55796D01*
X225267Y-56446D01*
X224567Y-56880D01*
X223767Y-56988D01*
G01X224567Y-55255D02*
X225767Y-56988D01*
G01X230267Y-50488D02*
Y-56988D01*
G01X227967Y-50488D02*
X232567D01*
G01X236767Y-56988D02*
Y-54063D01*
X234767Y-50488D01*
G01X238767D02*
X236767Y-54063D01*
G01X224967Y-69988D02*
Y-63488D01*
X221267Y-68146D01*
X226267D01*
G01X230267Y-63488D02*
X229467Y-63705D01*
X228867Y-64246D01*
X228467Y-64896D01*
X228167Y-65763D01*
X228067Y-66738D01*
X228167Y-67713D01*
X228467Y-68580D01*
X228867Y-69230D01*
X229467Y-69771D01*
X230267Y-69988D01*
X231067Y-69771D01*
X231667Y-69230D01*
X232067Y-68580D01*
X232367Y-67713D01*
X232467Y-66738D01*
X232367Y-65763D01*
X232067Y-64896D01*
X231667Y-64246D01*
X231067Y-63705D01*
X230267Y-63488D01*
G01X234567Y-68688D02*
X235167Y-69446D01*
X235967Y-69880D01*
X236867Y-69988D01*
X237667Y-69880D01*
X238467Y-69338D01*
X238967Y-68688D01*
X239067Y-68038D01*
X238867Y-67280D01*
X238167Y-66738D01*
X237467Y-66521D01*
X236567D01*
G01X237467D02*
X238067Y-66196D01*
X238567Y-65655D01*
X238767Y-65005D01*
X238567Y-64355D01*
X238067Y-63813D01*
X237167Y-63488D01*
X236267Y-63596D01*
X235367Y-64030D01*
G01X228367Y-77571D02*
X228967Y-76921D01*
X229667Y-76596D01*
X230467Y-76488D01*
X231467Y-76705D01*
X232167Y-77246D01*
X232367Y-77896D01*
X232267Y-78546D01*
X231867Y-79088D01*
X229867Y-80171D01*
X228967Y-80930D01*
X228367Y-82013D01*
X228167Y-82988D01*
X232367D01*
M02*
