G04 ================== begin FILE IDENTIFICATION RECORD ==================*
G04 Layout Name:  G:/project_development/GitHub/ysyx3-pcb/PCB/ysyx3_pcb.brd*
G04 Film Name:    GND02*
G04 File Format:  Gerber RS274X*
G04 File Origin:  Cadence Allegro 16.6-2015-S066*
G04 Origin Date:  Fri Jan 06 10:04:32 2023*
G04 *
G04 Layer:  VIA CLASS/GND02*
G04 Layer:  PIN/GND02*
G04 Layer:  ETCH/GND02*
G04 Layer:  BOARD GEOMETRY/OUTLINE*
G04 *
G04 Offset:    (0.00 0.00)*
G04 Mirror:    No*
G04 Mode:      Positive*
G04 Rotation:  0*
G04 FullContactRelief:  No*
G04 UndefLineWidth:     6.00*
G04 ================== end FILE IDENTIFICATION RECORD ====================*
%FSLAX55Y55*MOIN*%
%IR0*IPPOS*OFA0.00000B0.00000*MIA0B0*SFA1.00000B1.00000*%
%ADD11C,.018*%
%ADD14C,.02008*%
%ADD13C,.09055*%
%ADD10C,.06693*%
%ADD12C,.06299*%
%ADD15C,.006*%
%ADD16C,.008*%
%ADD19C,.03012*%
%ADD20C,.07302*%
%ADD17C,.02804*%
%ADD18C,.07696*%
%ADD22C,.07879*%
%ADD21C,.10058*%
%ADD23R,.23626X.23626*%
G75*
%LPD*%
G75*
G36*
G01X297996Y4500D02*
G02X295500Y2004I-2496J0D01*
G01X4500D01*
G02X2004Y4500I0J2496D01*
G01Y295500D01*
G02X4500Y297996I2496J0D01*
G01X295500D01*
G02X297996Y295500I0J-2496D01*
G01Y4500D01*
G37*
%LPC*%
G75*
G36*
G01X182168Y161543D02*
G02X181100Y160600I265J-1377D01*
G03X180644Y161116I-380J123D01*
G02X181712Y162059I-265J1377D01*
G03X182168Y161543I380J-123D01*
G37*
G36*
G01X140321Y284025D02*
G03X140845Y284010I271J294D01*
G02X140781Y281894I887J-1086D01*
G03X140257Y281909I-271J-294D01*
G02X140321Y284025I-887J1086D01*
G37*
G36*
G01X94006Y280850D02*
G03X93482Y280576I-137J-375D01*
G02X92608Y282250I-1356J357D01*
G03X93132Y282524I137J375D01*
G02X94006Y280850I1356J-357D01*
G37*
G36*
G01X162073Y244846D02*
G03X161549I-262J-302D01*
G02Y246964I-919J1059D01*
G03X162073I262J302D01*
G02Y244846I919J-1059D01*
G37*
G36*
G01X154987D02*
G03X154462I-262J-302D01*
G02Y246964I-919J1059D01*
G03X154987I263J302D01*
G02Y244846I919J-1059D01*
G37*
G36*
G01X147900D02*
G03X147376I-262J-302D01*
G02Y246964I-919J1059D01*
G03X147900I262J302D01*
G02Y244846I919J-1059D01*
G37*
G36*
G01X86483D02*
G03X85958I-262J-302D01*
G02Y246964I-919J1059D01*
G03X86483I263J302D01*
G02Y244846I919J-1059D01*
G37*
G36*
G01X72309D02*
G03X71785I-262J-302D01*
G02Y246964I-919J1059D01*
G03X72309I262J302D01*
G02Y244846I919J-1059D01*
G37*
G36*
G01X65223D02*
G03X64699I-262J-302D01*
G02Y246964I-919J1059D01*
G03X65223I262J302D01*
G02Y244846I919J-1059D01*
G37*
G36*
G01X58136D02*
G03X57612I-262J-302D01*
G02Y246964I-919J1059D01*
G03X58136I262J302D01*
G02Y244846I919J-1059D01*
G37*
G36*
G01X32152D02*
G03X31628I-262J-302D01*
G02Y246964I-919J1059D01*
G03X32152I262J302D01*
G02Y244846I919J-1059D01*
G37*
G36*
G01X30971Y223036D02*
G03X30447I-262J-302D01*
G02Y225154I-919J1059D01*
G03X30971I262J302D01*
G02Y223036I919J-1059D01*
G37*
G36*
G01X269553Y212562D02*
G03X269029I-262J-302D01*
G02Y214680I-919J1059D01*
G03X269553I262J302D01*
G02Y212562I919J-1059D01*
G37*
G36*
G01X262467D02*
G03X261943I-262J-302D01*
G02Y214680I-919J1059D01*
G03X262467I262J302D01*
G02Y212562I919J-1059D01*
G37*
G36*
G01X248294D02*
G03X247769I-263J-302D01*
G02Y214680I-919J1059D01*
G03X248294I263J302D01*
G02Y212562I919J-1059D01*
G37*
G36*
G01X215223D02*
G03X214699I-262J-302D01*
G02Y214680I-919J1059D01*
G03X215223I262J302D01*
G02Y212562I919J-1059D01*
G37*
G36*
G01X208136D02*
G03X207612I-262J-302D01*
G02Y214680I-919J1059D01*
G03X208136I262J302D01*
G02Y212562I919J-1059D01*
G37*
G36*
G01X201050D02*
G03X200525I-263J-302D01*
G02Y214680I-919J1059D01*
G03X201050I262J302D01*
G02Y212562I919J-1059D01*
G37*
G36*
G01X106561D02*
G03X106037I-262J-302D01*
G02Y214680I-919J1059D01*
G03X106561I262J302D01*
G02Y212562I919J-1059D01*
G37*
G36*
G01X73490D02*
G03X72966I-262J-302D01*
G02Y214680I-919J1059D01*
G03X73490I262J302D01*
G02Y212562I919J-1059D01*
G37*
G36*
G01X66404D02*
G03X65880I-262J-302D01*
G02Y214680I-919J1059D01*
G03X66404I262J302D01*
G02Y212562I919J-1059D01*
G37*
G36*
G01X59317D02*
G03X58793I-262J-302D01*
G02Y214680I-919J1059D01*
G03X59317I262J302D01*
G02Y212562I919J-1059D01*
G37*
G36*
G01X191388Y90866D02*
G02X189482Y92772I-1225J681D01*
G03Y93472I-194J350D01*
G02X189349Y95838I681J1225D01*
G03X189326Y96504I-233J325D01*
G02X189382Y98922I737J1193D01*
G03Y99622I-194J350D01*
G02X191288Y101528I681J1225D01*
G03X191988I350J194D01*
G02X193894Y99622I1225J-681D01*
G03Y98922I194J-350D01*
G02X194027Y96556I-681J-1225D01*
G03X194050Y95890I233J-325D01*
G02X193994Y93472I-737J-1193D01*
G03Y92772I194J-350D01*
G02X192088Y90866I-681J-1225D01*
G03X191388I-350J-194D01*
G37*
G54D19*
X142126Y17319D03*
X157874D03*
G54D20*
X82039Y85801D03*
Y115801D03*
X52039Y85801D03*
Y115801D03*
G54D17*
X150214Y206861D03*
X180155Y157839D03*
X182779Y164981D03*
X176958Y101071D03*
X180134Y103863D03*
X28526Y69406D03*
X39643Y34217D03*
X23526Y69406D03*
X50578Y65625D03*
X50648Y69126D03*
X59535Y137616D03*
X63079Y133816D03*
X20830Y116490D03*
X81312Y55606D03*
X135914Y32787D03*
X139852D03*
X143790D03*
X131976D03*
X74908Y54541D03*
X85642Y54591D03*
X70346Y68570D03*
X80149Y128622D03*
X97843Y142578D03*
X101071Y138674D03*
X133013Y101071D03*
X101071Y114702D03*
X140290Y97843D03*
X124467D03*
X97843Y106156D03*
X108075Y75477D03*
X125228Y144347D03*
X127506Y146674D03*
X125228Y149001D03*
X127506Y142020D03*
X125228Y139693D03*
X127506Y137366D03*
X125228Y135039D03*
X97843Y129829D03*
Y156751D03*
X127652Y198929D03*
X119106D03*
X101071Y151124D03*
Y184619D03*
Y165297D03*
X129470Y178475D03*
X125883Y180797D03*
X117940Y171189D03*
X120218Y173516D03*
Y168862D03*
X117552Y166035D03*
X120198Y162422D03*
X117920Y160095D03*
X120198Y157768D03*
X117920Y155441D03*
X120198Y153114D03*
X117920Y150787D03*
X97843Y176073D03*
X134646Y282948D03*
X129578Y282883D03*
X121387Y282715D03*
X125168Y282994D03*
X117478Y282647D03*
X113887Y282308D03*
X106299Y282184D03*
X101575Y266484D03*
X99213Y282229D03*
X80315Y245905D03*
X103937D03*
X218481Y44266D03*
X180069Y37175D03*
X150778Y31646D03*
X147681Y27456D03*
X171361Y43063D03*
X163830Y34005D03*
X167667Y30257D03*
X163700Y37439D03*
X160402Y34168D03*
X167667Y37753D03*
X180069Y30835D03*
X176899Y34005D03*
X195746Y21332D03*
X174812Y17394D03*
X220043Y5534D03*
X223981D03*
X169078Y124368D03*
X164424D03*
X166751Y126646D03*
X171405D03*
X159770Y124368D03*
X162097Y126646D03*
X157443D03*
X202157Y134704D03*
X198929Y131502D03*
X162935Y101071D03*
X202157Y147301D03*
X198929Y143198D03*
X148836Y101071D03*
X154389Y97843D03*
X208304Y88202D03*
Y83202D03*
X213304D03*
Y88202D03*
X203304Y83202D03*
Y88202D03*
X205328Y123623D03*
X179468Y129492D03*
X181746Y127165D03*
Y131819D03*
X179468Y134146D03*
X182622Y136473D03*
X179468Y138800D03*
X181746Y141127D03*
X177917Y144175D03*
X177116Y80618D03*
X198958Y122883D03*
X168412Y97843D03*
X168661Y88695D03*
X164654D03*
X165806Y117424D03*
X162095Y117437D03*
X175639Y146502D03*
X177917Y148829D03*
X175639Y151156D03*
X215305Y154405D03*
Y150467D03*
X182433Y155512D03*
X215305Y158343D03*
Y162281D03*
Y166219D03*
X163436Y207248D03*
X163175Y181477D03*
X202157Y159901D03*
X157439Y207237D03*
X180279Y211080D03*
X149392Y176427D03*
X145466Y172295D03*
X149213Y181477D03*
X145508Y180186D03*
X151540Y179199D03*
X190157Y213621D03*
X187795Y211438D03*
X153867Y181477D03*
X156194Y179199D03*
X158521Y181477D03*
X160848Y179199D03*
X152454Y196426D03*
X177917Y153483D03*
X167717Y245905D03*
X233481Y44266D03*
X228481D03*
X223481D03*
X267557Y5534D03*
X271495D03*
X263619D03*
X259681D03*
X255743D03*
X227919D03*
X231857D03*
X254079Y43688D03*
X259079D03*
X264079D03*
X269079D03*
X274079D03*
X223141Y158343D03*
Y150467D03*
Y154405D03*
X253937Y213621D03*
X242126D03*
X223141Y162281D03*
Y166219D03*
X137000Y175832D03*
X133980Y180282D03*
X138634D03*
X165310Y256558D03*
G54D18*
X281496Y235000D03*
G54D22*
X93556Y16468D03*
X62060D03*
G54D21*
X18504Y235000D03*
G54D23*
X67039Y100801D03*
%LPD*%
G75*
G54D10*
X62060Y16468D03*
X93556D03*
X281496Y235000D03*
G54D11*
X50997Y51940D03*
Y60052D03*
X47728Y55996D03*
X39585Y14945D03*
X50997Y11992D03*
Y23622D03*
X55237Y17807D03*
X46757D03*
X28526Y69406D03*
X39643Y34217D03*
X23526Y69406D03*
X50648Y69126D03*
X50578Y65625D03*
X57571Y128602D03*
Y124664D03*
X12994Y116490D03*
X13526Y109408D03*
X63079Y133816D03*
X59535Y137616D03*
X20830Y116490D03*
X20866Y177401D03*
X12676Y187756D03*
X27165Y224095D03*
X41339D03*
X34252D03*
X48425D03*
X55512D03*
X62598D03*
X20866Y198111D03*
X60236Y213621D03*
X29528Y224095D03*
X31890D03*
X57874Y213621D03*
X28346Y256379D03*
X40157D03*
X35433D03*
X47244D03*
X54331D03*
X61417D03*
X30709Y245905D03*
X33071D03*
X63780D03*
X59055D03*
X56693D03*
X81312Y55606D03*
X68319Y63201D03*
X123057Y34354D03*
X126857Y37898D03*
X106265Y66027D03*
X112061Y55996D03*
X108792Y51940D03*
X105523Y55996D03*
X108792Y60052D03*
X112099Y12570D03*
Y23044D03*
X108437Y17807D03*
X115761D03*
X135914Y24373D03*
X131976D03*
X139852Y32787D03*
X135914D03*
X131976D03*
X74908Y54541D03*
X85642Y54591D03*
X70346Y68570D03*
X80149Y128622D03*
X97843Y138674D03*
X113390Y146795D03*
X101016Y142578D03*
X112749Y131450D03*
X112508Y119291D03*
X79571Y124684D03*
X102386Y70358D03*
X133013Y97843D03*
X128740Y112508D03*
X97843Y114702D03*
X140290Y101071D03*
X124467D03*
X101071Y106156D03*
X108075Y75477D03*
X127506Y146674D03*
X125228Y144347D03*
X127506Y142020D03*
X125228Y139693D03*
X127506Y137366D03*
X125228Y135039D03*
X101071Y138674D03*
X133013Y101071D03*
X101071Y114702D03*
X140290Y97843D03*
X124467D03*
X97843Y106156D03*
Y129829D03*
Y142578D03*
X101071Y156751D03*
X127652Y202157D03*
X119106D03*
X128740Y188070D03*
X112508Y163386D03*
X88583Y224095D03*
X102756D03*
X111930Y180709D03*
X97843Y151124D03*
Y184619D03*
Y165297D03*
X109843Y224095D03*
X95669D03*
X81496D03*
X69685D03*
X105118Y213621D03*
X107480D03*
X125883Y180797D03*
X129470Y178475D03*
X133980Y180282D03*
X137000Y175832D03*
X138634Y180282D03*
X120218Y173516D03*
X117940Y171189D03*
X120218Y168862D03*
X117552Y166035D03*
X120198Y162422D03*
X117920Y160095D03*
X120198Y157768D03*
X117920Y155441D03*
X120198Y153114D03*
X117920Y150787D03*
X125228Y149001D03*
X74409Y213621D03*
X72047D03*
X67323D03*
X64961D03*
X127652Y198929D03*
X101071Y184619D03*
Y165297D03*
Y151124D03*
X97843Y176073D03*
Y156751D03*
X119106Y198929D03*
X89764Y256379D03*
X68504D03*
X75591D03*
X82677D03*
X96850D03*
X92126Y280933D03*
X141732Y282924D03*
X139370Y282995D03*
X134646Y282948D03*
X129578Y282883D03*
X125168Y282994D03*
X121387Y282715D03*
X117478Y282647D03*
X113887Y282308D03*
X106299Y282184D03*
X101575Y266484D03*
X99213Y282229D03*
X94488Y282167D03*
X87402Y245905D03*
X85039D03*
X80315D03*
X73228D03*
X70866D03*
X66142D03*
X103937D03*
X218481Y44266D03*
X204160Y17394D03*
X144968Y47045D03*
Y42045D03*
X149995Y42326D03*
X154968Y42045D03*
Y47045D03*
Y52045D03*
X149968D03*
X144968D03*
X150000Y47000D03*
X156210Y26677D03*
X184162Y44241D03*
Y39517D03*
X195757Y25776D03*
X188041Y47820D03*
X187863Y52235D03*
X219982Y60598D03*
X198363Y11644D03*
X194897Y6407D03*
X201829D03*
X150778Y31646D03*
X147681Y27456D03*
X171361Y43063D03*
X167667Y30257D03*
X163830Y34005D03*
X167667Y37753D03*
X143790Y32787D03*
X160402Y34168D03*
X163700Y37439D03*
X176899Y34005D03*
X180069Y37175D03*
Y30835D03*
X195746Y21332D03*
X174812Y17394D03*
X220043Y5534D03*
X166751Y126646D03*
X171405D03*
X162097D03*
X159770Y124368D03*
X157443Y126646D03*
X187532Y124852D03*
X169685Y112508D03*
X202157Y131502D03*
X187355Y140584D03*
X220427Y124918D03*
Y74791D03*
Y97644D03*
X158661Y112508D03*
X176958Y97843D03*
X162935D03*
X202157Y143250D03*
X148836Y97843D03*
X146063Y112508D03*
X154389Y101071D03*
X180134Y103863D03*
X164424Y124368D03*
X208304Y88202D03*
Y83202D03*
X213304D03*
Y88202D03*
X203304Y83202D03*
Y88202D03*
X205328Y123623D03*
X181746Y127165D03*
X179468Y129492D03*
X181746Y131819D03*
X179468Y134146D03*
X182622Y136473D03*
X179468Y138800D03*
X181746Y141127D03*
X177116Y80618D03*
X169078Y124368D03*
X198929Y131502D03*
Y143198D03*
X148836Y101071D03*
X176958D03*
X193213Y100847D03*
X190063D03*
Y97697D03*
X193213D03*
X162935Y101071D03*
X202157Y147301D03*
X198958Y122883D03*
X193313Y91547D03*
X190163D03*
Y94697D03*
X193313D03*
X154389Y97843D03*
X168412D03*
X202157Y134704D03*
X164654Y88695D03*
X162095Y117437D03*
X168661Y88695D03*
X165806Y117424D03*
X177917Y144175D03*
X175639Y146502D03*
X177917Y148829D03*
X215305Y150467D03*
X182433Y155512D03*
X215305Y154405D03*
X180155Y157839D03*
X215305Y158343D03*
X182433Y160166D03*
X215305Y162281D03*
X180379Y162493D03*
X182779Y164981D03*
X215305Y166219D03*
X150245Y204461D03*
X163346D03*
X143019Y187046D03*
X170038Y187231D03*
X162974Y186982D03*
X165857Y184341D03*
X186746Y152213D03*
X202157Y155847D03*
X198929Y159901D03*
X218504Y224095D03*
X211417D03*
X204331D03*
X185433D03*
X192520D03*
X197244D03*
X186279Y165747D03*
X202157Y168447D03*
X210150Y186836D03*
X175160Y204461D03*
X171222D03*
X155470D03*
X159408D03*
X146307D03*
X167284D03*
X180279Y211080D03*
X145466Y172295D03*
X145508Y180186D03*
X149392Y176427D03*
X187795Y211438D03*
X190157Y213621D03*
X199606D03*
X201969D03*
X206693D03*
X216142D03*
X213780D03*
X209055D03*
X149213Y181477D03*
X151540Y179199D03*
X153867Y181477D03*
X156194Y179199D03*
X160848D03*
X163175Y181477D03*
X158521D03*
X163436Y207248D03*
X157439Y207237D03*
X152454Y196426D03*
X150214Y206861D03*
X202157Y159901D03*
X175639Y151156D03*
X177917Y153483D03*
X184252Y256379D03*
X191339D03*
X198425D03*
X205512D03*
X212598D03*
X217323D03*
X146457Y245905D03*
X148819D03*
X153543D03*
X155906D03*
X162992D03*
X167717D03*
X160630D03*
X165310Y256558D03*
X233481Y44266D03*
X228481D03*
X223481D03*
X259969Y70282D03*
X228323Y69258D03*
X259851Y60598D03*
X263789D03*
X271665D03*
X267727D03*
X223920D03*
X234100Y58294D03*
X255913Y60598D03*
X271495Y5534D03*
X267557D03*
X263619D03*
X259681D03*
X231857D03*
X227919D03*
X223981D03*
X255743D03*
X254079Y43688D03*
X259079D03*
X264079D03*
X269079D03*
X274079D03*
X259969Y92557D03*
X244541Y78413D03*
X244529Y101266D03*
X227711Y119944D03*
X224365Y124918D03*
X259969Y120409D03*
X255638Y124288D03*
X224365Y74791D03*
X224054Y97347D03*
X228326Y92092D03*
X255638Y74161D03*
X255621Y97014D03*
X244529Y129118D03*
X223141Y154405D03*
X279134Y177401D03*
Y198111D03*
X287324Y187756D03*
X237402Y224095D03*
X232677D03*
X225591D03*
X244488D03*
X251575D03*
X258661D03*
X265748D03*
X270472Y213621D03*
X268110D03*
X263386D03*
X261024D03*
X253937D03*
X249213D03*
X246850D03*
X242126D03*
X223141Y150467D03*
Y158343D03*
Y162281D03*
Y166219D03*
X224409Y256379D03*
X231496D03*
X238583D03*
X245669D03*
X252756D03*
X257480D03*
X264567D03*
G54D12*
X52039Y115801D03*
Y85801D03*
X82039Y115801D03*
Y85801D03*
G54D13*
X18504Y235000D03*
G54D14*
X142126Y17319D03*
X157874D03*
G54D15*
G01X4500Y0D02*
X295500D01*
G03X300000Y4500I0J4500D01*
G01Y295500D01*
G03X295500Y300000I-4500J0D01*
G01X4500D01*
G03X0Y295500I0J-4500D01*
G01Y4500D01*
G03X4500Y0I4500J0D01*
G54D16*
G01X18504Y229770D02*
Y235000D01*
G01D02*
Y240230D01*
G01X13274Y235000D02*
X18504D01*
G01D02*
X23734D01*
G01X82039Y81949D02*
Y85801D01*
G01D02*
Y89653D01*
G01X78187Y85801D02*
X82039D01*
G01D02*
X85891D01*
G01X281496Y230951D02*
Y235000D01*
G01D02*
Y239049D01*
G01X277447Y235000D02*
X281496D01*
G01D02*
X285545D01*
M02*
