G04 ================== begin FILE IDENTIFICATION RECORD ==================*
G04 Layout Name:  G:/project_development/GitHub/ysyx3-pcb/PCB/ysyx3_pcb.brd*
G04 Film Name:    SILKTOP*
G04 File Format:  Gerber RS274X*
G04 File Origin:  Cadence Allegro 16.6-2015-S066*
G04 Origin Date:  Fri Jan 06 10:04:32 2023*
G04 *
G04 Layer:  REF DES/SILKSCREEN_TOP*
G04 Layer:  PACKAGE GEOMETRY/SILKSCREEN_TOP*
G04 Layer:  BOARD GEOMETRY/SILKSCREEN_TOP*
G04 Layer:  BOARD GEOMETRY/OUTLINE*
G04 *
G04 Offset:    (0.00 0.00)*
G04 Mirror:    No*
G04 Mode:      Positive*
G04 Rotation:  0*
G04 FullContactRelief:  No*
G04 UndefLineWidth:     6.00*
G04 ================== end FILE IDENTIFICATION RECORD ====================*
%FSLAX55Y55*MOIN*%
%IR0*IPPOS*OFA0.00000B0.00000*MIA0B0*SFA1.00000B1.00000*%
%ADD10C,.006*%
%ADD11C,.00591*%
G75*
%LPD*%
G75*
G54D10*
G01X4500Y0D02*
X295500D01*
G03X300000Y4500I0J4500D01*
G01Y295500D01*
G03X295500Y300000I-4500J0D01*
G01X4500D01*
G03X0Y295500I0J-4500D01*
G01Y4500D01*
G03X4500Y0I4500J0D01*
G01X31700Y15300D02*
X35200D01*
Y17300D01*
G01Y20600D02*
Y18600D01*
X31700D01*
Y20600D01*
G01X33392Y19800D02*
Y18600D01*
G01X35200Y21800D02*
X31700D01*
Y22800D01*
X31875Y23200D01*
X32108Y23500D01*
X32458Y23750D01*
X32867Y23950D01*
X33450Y24000D01*
X34033Y23950D01*
X34442Y23750D01*
X34792Y23500D01*
X35025Y23200D01*
X35200Y22800D01*
Y21800D01*
G01Y26200D02*
X31700D01*
X32400Y25600D01*
G01X35200D02*
Y26800D01*
G01Y29000D02*
X31700D01*
Y30250D01*
X31875Y30650D01*
X32108Y30900D01*
X32575Y31000D01*
X33042Y30900D01*
X33333Y30600D01*
X33508Y30250D01*
Y29000D01*
G01Y30250D02*
X35200Y31000D01*
G01X32283Y32350D02*
X31933Y32650D01*
X31758Y33000D01*
X31700Y33400D01*
X31817Y33900D01*
X32108Y34250D01*
X32458Y34350D01*
X32808Y34300D01*
X33100Y34100D01*
X33683Y33100D01*
X34092Y32650D01*
X34675Y32350D01*
X35200Y32250D01*
Y34350D01*
G01X49400Y63400D02*
X45900D01*
Y64650D01*
X46075Y65050D01*
X46308Y65300D01*
X46775Y65400D01*
X47242Y65300D01*
X47533Y65000D01*
X47708Y64650D01*
Y63400D01*
G01Y64650D02*
X49400Y65400D01*
G01Y68300D02*
X45900D01*
X48408Y66450D01*
Y68950D01*
G01X48875Y69900D02*
X49167Y70200D01*
X49342Y70550D01*
X49400Y71000D01*
X49283Y71450D01*
X49050Y71800D01*
X48642Y72050D01*
X48175Y72100D01*
X47708Y72000D01*
X47417Y71750D01*
X47183Y71400D01*
X47125Y71050D01*
X47183Y70700D01*
X47417Y70250D01*
X45900Y70400D01*
Y71750D01*
G01X30900Y116800D02*
Y114292D01*
X31100Y113767D01*
X31500Y113417D01*
X32000Y113300D01*
X32500Y113417D01*
X32900Y113767D01*
X33100Y114292D01*
Y116800D01*
G01X35200Y113300D02*
X35300Y114058D01*
X35450Y114700D01*
X35650Y115283D01*
X35900Y115925D01*
X36300Y116800D01*
X34300D01*
G01X45600Y126108D02*
X45300Y126283D01*
X44950Y126400D01*
X44550D01*
X44100Y126225D01*
X43750Y125933D01*
X43500Y125583D01*
X43300Y125000D01*
X43250Y124475D01*
X43350Y123950D01*
X43500Y123600D01*
X43800Y123250D01*
X44150Y123017D01*
X44500Y122900D01*
X44850D01*
X45200Y123017D01*
X45500Y123192D01*
X45750Y123425D01*
G01X47800Y122900D02*
X48150Y122958D01*
X48550Y123133D01*
X48800Y123425D01*
X48900Y123833D01*
X48800Y124242D01*
X48500Y124592D01*
X48050Y124767D01*
X47550D01*
X47250Y124883D01*
X47000Y125175D01*
X46900Y125583D01*
X47050Y125992D01*
X47400Y126283D01*
X47800Y126400D01*
X48200Y126283D01*
X48550Y125992D01*
X48700Y125583D01*
X48600Y125175D01*
X48350Y124883D01*
X48050Y124767D01*
X47550D01*
X47100Y124592D01*
X46800Y124242D01*
X46700Y123833D01*
X46800Y123425D01*
X47050Y123133D01*
X47450Y122958D01*
X47800Y122900D01*
G01X45700Y130408D02*
X45400Y130583D01*
X45050Y130700D01*
X44650D01*
X44200Y130525D01*
X43850Y130233D01*
X43600Y129883D01*
X43400Y129300D01*
X43350Y128775D01*
X43450Y128250D01*
X43600Y127900D01*
X43900Y127550D01*
X44250Y127317D01*
X44600Y127200D01*
X44950D01*
X45300Y127317D01*
X45600Y127492D01*
X45850Y127725D01*
G01X47050Y127608D02*
X47400Y127317D01*
X47800Y127200D01*
X48200Y127317D01*
X48550Y127667D01*
X48800Y128192D01*
X48900Y128717D01*
Y129358D01*
X48800Y129883D01*
X48550Y130350D01*
X48250Y130583D01*
X47900Y130700D01*
X47500Y130583D01*
X47200Y130350D01*
X47000Y130000D01*
X46900Y129533D01*
X47000Y129125D01*
X47250Y128717D01*
X47550Y128483D01*
X47900Y128425D01*
X48300Y128542D01*
X48600Y128833D01*
X48900Y129358D01*
G01X14900Y122708D02*
X14600Y122883D01*
X14250Y123000D01*
X13850D01*
X13400Y122825D01*
X13050Y122533D01*
X12800Y122183D01*
X12600Y121600D01*
X12550Y121075D01*
X12650Y120550D01*
X12800Y120200D01*
X13100Y119850D01*
X13450Y119617D01*
X13800Y119500D01*
X14150D01*
X14500Y119617D01*
X14800Y119792D01*
X15050Y120025D01*
G01X16150Y120958D02*
X16500Y121367D01*
X16800Y121600D01*
X17200Y121717D01*
X17550Y121600D01*
X17800Y121367D01*
X18000Y121017D01*
X18050Y120608D01*
X18000Y120258D01*
X17800Y119908D01*
X17500Y119617D01*
X17150Y119500D01*
X16750Y119617D01*
X16400Y119967D01*
X16200Y120492D01*
X16150Y121075D01*
X16250Y121833D01*
X16400Y122242D01*
X16650Y122650D01*
X17000Y122942D01*
X17350Y123000D01*
X17700Y122883D01*
X17950Y122592D01*
G01X20300Y119500D02*
X20400Y120258D01*
X20550Y120900D01*
X20750Y121483D01*
X21000Y122125D01*
X21400Y123000D01*
X19400D01*
G01X43900Y135600D02*
Y132100D01*
X45900D01*
G01X48200D02*
Y135600D01*
X47600Y134900D01*
G01Y132100D02*
X48800D01*
G01X61300Y71300D02*
X57800D01*
Y72550D01*
X57975Y72950D01*
X58208Y73200D01*
X58675Y73300D01*
X59142Y73200D01*
X59433Y72900D01*
X59608Y72550D01*
Y71300D01*
G01Y72550D02*
X61300Y73300D01*
G01Y76200D02*
X57800D01*
X60308Y74350D01*
Y76850D01*
G01X61300Y78900D02*
X57800D01*
X58500Y78300D01*
G01X61300D02*
Y79500D01*
G01X40300Y75500D02*
Y79000D01*
X41550D01*
X41950Y78825D01*
X42200Y78592D01*
X42300Y78125D01*
X42200Y77658D01*
X41900Y77367D01*
X41550Y77192D01*
X40300D01*
G01X41550D02*
X42300Y75500D01*
G01X43650Y76958D02*
X44000Y77367D01*
X44300Y77600D01*
X44700Y77717D01*
X45050Y77600D01*
X45300Y77367D01*
X45500Y77017D01*
X45550Y76608D01*
X45500Y76258D01*
X45300Y75908D01*
X45000Y75617D01*
X44650Y75500D01*
X44250Y75617D01*
X43900Y75967D01*
X43700Y76492D01*
X43650Y77075D01*
X43750Y77833D01*
X43900Y78242D01*
X44150Y78650D01*
X44500Y78942D01*
X44850Y79000D01*
X45200Y78883D01*
X45450Y78592D01*
G01X39500Y115900D02*
X39750Y115550D01*
X40050Y115317D01*
X40400Y115200D01*
X40800Y115317D01*
X41100Y115550D01*
X41400Y115900D01*
X41500Y116367D01*
Y118700D01*
G01X42850Y118117D02*
X43150Y118467D01*
X43500Y118642D01*
X43900Y118700D01*
X44400Y118583D01*
X44750Y118292D01*
X44850Y117942D01*
X44800Y117592D01*
X44600Y117300D01*
X43600Y116717D01*
X43150Y116308D01*
X42850Y115725D01*
X42750Y115200D01*
X44850D01*
G01X133600Y60900D02*
Y58392D01*
X133800Y57867D01*
X134200Y57517D01*
X134700Y57400D01*
X135200Y57517D01*
X135600Y57867D01*
X135800Y58392D01*
Y60900D01*
G01X137050Y58858D02*
X137400Y59267D01*
X137700Y59500D01*
X138100Y59617D01*
X138450Y59500D01*
X138700Y59267D01*
X138900Y58917D01*
X138950Y58508D01*
X138900Y58158D01*
X138700Y57808D01*
X138400Y57517D01*
X138050Y57400D01*
X137650Y57517D01*
X137300Y57867D01*
X137100Y58392D01*
X137050Y58975D01*
X137150Y59733D01*
X137300Y60142D01*
X137550Y60550D01*
X137900Y60842D01*
X138250Y60900D01*
X138600Y60783D01*
X138850Y60492D01*
G01X114700Y58500D02*
X114950Y58150D01*
X115250Y57917D01*
X115600Y57800D01*
X116000Y57917D01*
X116300Y58150D01*
X116600Y58500D01*
X116700Y58967D01*
Y61300D01*
G01X119600Y57800D02*
Y61300D01*
X117750Y58792D01*
X120250D01*
G01X121092Y16800D02*
X120917Y16500D01*
X120800Y16150D01*
Y15750D01*
X120975Y15300D01*
X121267Y14950D01*
X121617Y14700D01*
X122200Y14500D01*
X122725Y14450D01*
X123250Y14550D01*
X123600Y14700D01*
X123950Y15000D01*
X124183Y15350D01*
X124300Y15700D01*
Y16050D01*
X124183Y16400D01*
X124008Y16700D01*
X123775Y16950D01*
G01X122842Y18050D02*
X122433Y18400D01*
X122200Y18700D01*
X122083Y19100D01*
X122200Y19450D01*
X122433Y19700D01*
X122783Y19900D01*
X123192Y19950D01*
X123542Y19900D01*
X123892Y19700D01*
X124183Y19400D01*
X124300Y19050D01*
X124183Y18650D01*
X123833Y18300D01*
X123308Y18100D01*
X122725Y18050D01*
X121967Y18150D01*
X121558Y18300D01*
X121150Y18550D01*
X120858Y18900D01*
X120800Y19250D01*
X120917Y19600D01*
X121208Y19850D01*
G01X123775Y21200D02*
X124067Y21500D01*
X124242Y21850D01*
X124300Y22300D01*
X124183Y22750D01*
X123950Y23100D01*
X123542Y23350D01*
X123075Y23400D01*
X122608Y23300D01*
X122317Y23050D01*
X122083Y22700D01*
X122025Y22350D01*
X122083Y22000D01*
X122317Y21550D01*
X120800Y21700D01*
Y23050D01*
G01X110700Y71708D02*
X110400Y71883D01*
X110050Y72000D01*
X109650D01*
X109200Y71825D01*
X108850Y71533D01*
X108600Y71183D01*
X108400Y70600D01*
X108350Y70075D01*
X108450Y69550D01*
X108600Y69200D01*
X108900Y68850D01*
X109250Y68617D01*
X109600Y68500D01*
X109950D01*
X110300Y68617D01*
X110600Y68792D01*
X110850Y69025D01*
G01X111950Y69958D02*
X112300Y70367D01*
X112600Y70600D01*
X113000Y70717D01*
X113350Y70600D01*
X113600Y70367D01*
X113800Y70017D01*
X113850Y69608D01*
X113800Y69258D01*
X113600Y68908D01*
X113300Y68617D01*
X112950Y68500D01*
X112550Y68617D01*
X112200Y68967D01*
X112000Y69492D01*
X111950Y70075D01*
X112050Y70833D01*
X112200Y71242D01*
X112450Y71650D01*
X112800Y71942D01*
X113150Y72000D01*
X113500Y71883D01*
X113750Y71592D01*
G01X116200Y68500D02*
X116550Y68558D01*
X116950Y68733D01*
X117200Y69025D01*
X117300Y69433D01*
X117200Y69842D01*
X116900Y70192D01*
X116450Y70367D01*
X115950D01*
X115650Y70483D01*
X115400Y70775D01*
X115300Y71183D01*
X115450Y71592D01*
X115800Y71883D01*
X116200Y72000D01*
X116600Y71883D01*
X116950Y71592D01*
X117100Y71183D01*
X117000Y70775D01*
X116750Y70483D01*
X116450Y70367D01*
X115950D01*
X115500Y70192D01*
X115200Y69842D01*
X115100Y69433D01*
X115200Y69025D01*
X115450Y68733D01*
X115850Y68558D01*
X116200Y68500D01*
G01X125192Y16800D02*
X125017Y16500D01*
X124900Y16150D01*
Y15750D01*
X125075Y15300D01*
X125367Y14950D01*
X125717Y14700D01*
X126300Y14500D01*
X126825Y14450D01*
X127350Y14550D01*
X127700Y14700D01*
X128050Y15000D01*
X128283Y15350D01*
X128400Y15700D01*
Y16050D01*
X128283Y16400D01*
X128108Y16700D01*
X127875Y16950D01*
G01X126942Y18050D02*
X126533Y18400D01*
X126300Y18700D01*
X126183Y19100D01*
X126300Y19450D01*
X126533Y19700D01*
X126883Y19900D01*
X127292Y19950D01*
X127642Y19900D01*
X127992Y19700D01*
X128283Y19400D01*
X128400Y19050D01*
X128283Y18650D01*
X127933Y18300D01*
X127408Y18100D01*
X126825Y18050D01*
X126067Y18150D01*
X125658Y18300D01*
X125250Y18550D01*
X124958Y18900D01*
X124900Y19250D01*
X125017Y19600D01*
X125308Y19850D01*
G01X126942Y21350D02*
X126533Y21700D01*
X126300Y22000D01*
X126183Y22400D01*
X126300Y22750D01*
X126533Y23000D01*
X126883Y23200D01*
X127292Y23250D01*
X127642Y23200D01*
X127992Y23000D01*
X128283Y22700D01*
X128400Y22350D01*
X128283Y21950D01*
X127933Y21600D01*
X127408Y21400D01*
X126825Y21350D01*
X126067Y21450D01*
X125658Y21600D01*
X125250Y21850D01*
X124958Y22200D01*
X124900Y22550D01*
X125017Y22900D01*
X125308Y23150D01*
G01X116200Y32500D02*
Y29000D01*
X118200D01*
G01X119650Y29408D02*
X120000Y29117D01*
X120400Y29000D01*
X120800Y29117D01*
X121150Y29467D01*
X121400Y29992D01*
X121500Y30517D01*
Y31158D01*
X121400Y31683D01*
X121150Y32150D01*
X120850Y32383D01*
X120500Y32500D01*
X120100Y32383D01*
X119800Y32150D01*
X119600Y31800D01*
X119500Y31333D01*
X119600Y30925D01*
X119850Y30517D01*
X120150Y30283D01*
X120500Y30225D01*
X120900Y30342D01*
X121200Y30633D01*
X121500Y31158D01*
G01X132500Y14900D02*
X129000D01*
Y16150D01*
X129175Y16550D01*
X129408Y16800D01*
X129875Y16900D01*
X130342Y16800D01*
X130633Y16500D01*
X130808Y16150D01*
Y14900D01*
G01Y16150D02*
X132500Y16900D01*
G01X129583Y18250D02*
X129233Y18550D01*
X129058Y18900D01*
X129000Y19300D01*
X129117Y19800D01*
X129408Y20150D01*
X129758Y20250D01*
X130108Y20200D01*
X130400Y20000D01*
X130983Y19000D01*
X131392Y18550D01*
X131975Y18250D01*
X132500Y18150D01*
Y20250D01*
G01Y22500D02*
X129000D01*
X129700Y21900D01*
G01X132500D02*
Y23100D01*
G01X120100Y14700D02*
X116600D01*
Y15950D01*
X116775Y16350D01*
X117008Y16600D01*
X117475Y16700D01*
X117942Y16600D01*
X118233Y16300D01*
X118408Y15950D01*
Y14700D01*
G01Y15950D02*
X120100Y16700D01*
G01X117183Y18050D02*
X116833Y18350D01*
X116658Y18700D01*
X116600Y19100D01*
X116717Y19600D01*
X117008Y19950D01*
X117358Y20050D01*
X117708Y20000D01*
X118000Y19800D01*
X118583Y18800D01*
X118992Y18350D01*
X119575Y18050D01*
X120100Y17950D01*
Y20050D01*
G01X117183Y21350D02*
X116833Y21650D01*
X116658Y22000D01*
X116600Y22400D01*
X116717Y22900D01*
X117008Y23250D01*
X117358Y23350D01*
X117708Y23300D01*
X118000Y23100D01*
X118583Y22100D01*
X118992Y21650D01*
X119575Y21350D01*
X120100Y21250D01*
Y23350D01*
G01X119200Y46200D02*
Y49700D01*
X120450D01*
X120850Y49525D01*
X121100Y49292D01*
X121200Y48825D01*
X121100Y48358D01*
X120800Y48067D01*
X120450Y47892D01*
X119200D01*
G01X120450D02*
X121200Y46200D01*
G01X122400Y46900D02*
X122700Y46492D01*
X123100Y46258D01*
X123550Y46200D01*
X123950Y46258D01*
X124350Y46550D01*
X124600Y46900D01*
X124650Y47250D01*
X124550Y47658D01*
X124200Y47950D01*
X123850Y48067D01*
X123400D01*
G01X123850D02*
X124150Y48242D01*
X124400Y48533D01*
X124500Y48883D01*
X124400Y49233D01*
X124150Y49525D01*
X123700Y49700D01*
X123250Y49642D01*
X122800Y49408D01*
G01X125700Y46725D02*
X126000Y46433D01*
X126350Y46258D01*
X126800Y46200D01*
X127250Y46317D01*
X127600Y46550D01*
X127850Y46958D01*
X127900Y47425D01*
X127800Y47892D01*
X127550Y48183D01*
X127200Y48417D01*
X126850Y48475D01*
X126500Y48417D01*
X126050Y48183D01*
X126200Y49700D01*
X127550D01*
G01X119300Y41800D02*
Y45300D01*
X120550D01*
X120950Y45125D01*
X121200Y44892D01*
X121300Y44425D01*
X121200Y43958D01*
X120900Y43667D01*
X120550Y43492D01*
X119300D01*
G01X120550D02*
X121300Y41800D01*
G01X122500Y42500D02*
X122800Y42092D01*
X123200Y41858D01*
X123650Y41800D01*
X124050Y41858D01*
X124450Y42150D01*
X124700Y42500D01*
X124750Y42850D01*
X124650Y43258D01*
X124300Y43550D01*
X123950Y43667D01*
X123500D01*
G01X123950D02*
X124250Y43842D01*
X124500Y44133D01*
X124600Y44483D01*
X124500Y44833D01*
X124250Y45125D01*
X123800Y45300D01*
X123350Y45242D01*
X122900Y45008D01*
G01X125950Y43258D02*
X126300Y43667D01*
X126600Y43900D01*
X127000Y44017D01*
X127350Y43900D01*
X127600Y43667D01*
X127800Y43317D01*
X127850Y42908D01*
X127800Y42558D01*
X127600Y42208D01*
X127300Y41917D01*
X126950Y41800D01*
X126550Y41917D01*
X126200Y42267D01*
X126000Y42792D01*
X125950Y43375D01*
X126050Y44133D01*
X126200Y44542D01*
X126450Y44950D01*
X126800Y45242D01*
X127150Y45300D01*
X127500Y45183D01*
X127750Y44892D01*
G01X110700Y67008D02*
X110400Y67183D01*
X110050Y67300D01*
X109650D01*
X109200Y67125D01*
X108850Y66833D01*
X108600Y66483D01*
X108400Y65900D01*
X108350Y65375D01*
X108450Y64850D01*
X108600Y64500D01*
X108900Y64150D01*
X109250Y63917D01*
X109600Y63800D01*
X109950D01*
X110300Y63917D01*
X110600Y64092D01*
X110850Y64325D01*
G01X112800Y63800D02*
X112900Y64558D01*
X113050Y65200D01*
X113250Y65783D01*
X113500Y66425D01*
X113900Y67300D01*
X111900D01*
G01X116200D02*
X115800Y67183D01*
X115500Y66892D01*
X115300Y66542D01*
X115150Y66075D01*
X115100Y65550D01*
X115150Y65025D01*
X115300Y64558D01*
X115500Y64208D01*
X115800Y63917D01*
X116200Y63800D01*
X116600Y63917D01*
X116900Y64208D01*
X117100Y64558D01*
X117250Y65025D01*
X117300Y65550D01*
X117250Y66075D01*
X117100Y66542D01*
X116900Y66892D01*
X116600Y67183D01*
X116200Y67300D01*
G01X140592Y88600D02*
X140417Y88300D01*
X140300Y87950D01*
Y87550D01*
X140475Y87100D01*
X140767Y86750D01*
X141117Y86500D01*
X141700Y86300D01*
X142225Y86250D01*
X142750Y86350D01*
X143100Y86500D01*
X143450Y86800D01*
X143683Y87150D01*
X143800Y87500D01*
Y87850D01*
X143683Y88200D01*
X143508Y88500D01*
X143275Y88750D01*
G01X143100Y89700D02*
X143508Y90000D01*
X143742Y90400D01*
X143800Y90850D01*
X143742Y91250D01*
X143450Y91650D01*
X143100Y91900D01*
X142750Y91950D01*
X142342Y91850D01*
X142050Y91500D01*
X141933Y91150D01*
Y90700D01*
G01Y91150D02*
X141758Y91450D01*
X141467Y91700D01*
X141117Y91800D01*
X140767Y91700D01*
X140475Y91450D01*
X140300Y91000D01*
X140358Y90550D01*
X140592Y90100D01*
G01X143800Y94100D02*
X140300D01*
X141000Y93500D01*
G01X143800D02*
Y94700D01*
G01X98000Y100208D02*
X97700Y100383D01*
X97350Y100500D01*
X96950D01*
X96500Y100325D01*
X96150Y100033D01*
X95900Y99683D01*
X95700Y99100D01*
X95650Y98575D01*
X95750Y98050D01*
X95900Y97700D01*
X96200Y97350D01*
X96550Y97117D01*
X96900Y97000D01*
X97250D01*
X97600Y97117D01*
X97900Y97292D01*
X98150Y97525D01*
G01X99100Y97700D02*
X99400Y97292D01*
X99800Y97058D01*
X100250Y97000D01*
X100650Y97058D01*
X101050Y97350D01*
X101300Y97700D01*
X101350Y98050D01*
X101250Y98458D01*
X100900Y98750D01*
X100550Y98867D01*
X100100D01*
G01X100550D02*
X100850Y99042D01*
X101100Y99333D01*
X101200Y99683D01*
X101100Y100033D01*
X100850Y100325D01*
X100400Y100500D01*
X99950Y100442D01*
X99500Y100208D01*
G01X102400Y97700D02*
X102700Y97292D01*
X103100Y97058D01*
X103550Y97000D01*
X103950Y97058D01*
X104350Y97350D01*
X104600Y97700D01*
X104650Y98050D01*
X104550Y98458D01*
X104200Y98750D01*
X103850Y98867D01*
X103400D01*
G01X103850D02*
X104150Y99042D01*
X104400Y99333D01*
X104500Y99683D01*
X104400Y100033D01*
X104150Y100325D01*
X103700Y100500D01*
X103250Y100442D01*
X102800Y100208D01*
G01X124892Y88400D02*
X124717Y88100D01*
X124600Y87750D01*
Y87350D01*
X124775Y86900D01*
X125067Y86550D01*
X125417Y86300D01*
X126000Y86100D01*
X126525Y86050D01*
X127050Y86150D01*
X127400Y86300D01*
X127750Y86600D01*
X127983Y86950D01*
X128100Y87300D01*
Y87650D01*
X127983Y88000D01*
X127808Y88300D01*
X127575Y88550D01*
G01X127400Y89500D02*
X127808Y89800D01*
X128042Y90200D01*
X128100Y90650D01*
X128042Y91050D01*
X127750Y91450D01*
X127400Y91700D01*
X127050Y91750D01*
X126642Y91650D01*
X126350Y91300D01*
X126233Y90950D01*
Y90500D01*
G01Y90950D02*
X126058Y91250D01*
X125767Y91500D01*
X125417Y91600D01*
X125067Y91500D01*
X124775Y91250D01*
X124600Y90800D01*
X124658Y90350D01*
X124892Y89900D01*
G01X128100Y94500D02*
X124600D01*
X127108Y92650D01*
Y95150D01*
G01X88500Y137608D02*
X88200Y137783D01*
X87850Y137900D01*
X87450D01*
X87000Y137725D01*
X86650Y137433D01*
X86400Y137083D01*
X86200Y136500D01*
X86150Y135975D01*
X86250Y135450D01*
X86400Y135100D01*
X86700Y134750D01*
X87050Y134517D01*
X87400Y134400D01*
X87750D01*
X88100Y134517D01*
X88400Y134692D01*
X88650Y134925D01*
G01X89600Y135100D02*
X89900Y134692D01*
X90300Y134458D01*
X90750Y134400D01*
X91150Y134458D01*
X91550Y134750D01*
X91800Y135100D01*
X91850Y135450D01*
X91750Y135858D01*
X91400Y136150D01*
X91050Y136267D01*
X90600D01*
G01X91050D02*
X91350Y136442D01*
X91600Y136733D01*
X91700Y137083D01*
X91600Y137433D01*
X91350Y137725D01*
X90900Y137900D01*
X90450Y137842D01*
X90000Y137608D01*
G01X94000Y134400D02*
X94350Y134458D01*
X94750Y134633D01*
X95000Y134925D01*
X95100Y135333D01*
X95000Y135742D01*
X94700Y136092D01*
X94250Y136267D01*
X93750D01*
X93450Y136383D01*
X93200Y136675D01*
X93100Y137083D01*
X93250Y137492D01*
X93600Y137783D01*
X94000Y137900D01*
X94400Y137783D01*
X94750Y137492D01*
X94900Y137083D01*
X94800Y136675D01*
X94550Y136383D01*
X94250Y136267D01*
X93750D01*
X93300Y136092D01*
X93000Y135742D01*
X92900Y135333D01*
X93000Y134925D01*
X93250Y134633D01*
X93650Y134458D01*
X94000Y134400D01*
G01X88500Y150608D02*
X88200Y150783D01*
X87850Y150900D01*
X87450D01*
X87000Y150725D01*
X86650Y150433D01*
X86400Y150083D01*
X86200Y149500D01*
X86150Y148975D01*
X86250Y148450D01*
X86400Y148100D01*
X86700Y147750D01*
X87050Y147517D01*
X87400Y147400D01*
X87750D01*
X88100Y147517D01*
X88400Y147692D01*
X88650Y147925D01*
G01X89600Y148100D02*
X89900Y147692D01*
X90300Y147458D01*
X90750Y147400D01*
X91150Y147458D01*
X91550Y147750D01*
X91800Y148100D01*
X91850Y148450D01*
X91750Y148858D01*
X91400Y149150D01*
X91050Y149267D01*
X90600D01*
G01X91050D02*
X91350Y149442D01*
X91600Y149733D01*
X91700Y150083D01*
X91600Y150433D01*
X91350Y150725D01*
X90900Y150900D01*
X90450Y150842D01*
X90000Y150608D01*
G01X93150Y147808D02*
X93500Y147517D01*
X93900Y147400D01*
X94300Y147517D01*
X94650Y147867D01*
X94900Y148392D01*
X95000Y148917D01*
Y149558D01*
X94900Y150083D01*
X94650Y150550D01*
X94350Y150783D01*
X94000Y150900D01*
X93600Y150783D01*
X93300Y150550D01*
X93100Y150200D01*
X93000Y149733D01*
X93100Y149325D01*
X93350Y148917D01*
X93650Y148683D01*
X94000Y148625D01*
X94400Y148742D01*
X94700Y149033D01*
X95000Y149558D01*
G01X129592Y88400D02*
X129417Y88100D01*
X129300Y87750D01*
Y87350D01*
X129475Y86900D01*
X129767Y86550D01*
X130117Y86300D01*
X130700Y86100D01*
X131225Y86050D01*
X131750Y86150D01*
X132100Y86300D01*
X132450Y86600D01*
X132683Y86950D01*
X132800Y87300D01*
Y87650D01*
X132683Y88000D01*
X132508Y88300D01*
X132275Y88550D01*
G01X132800Y91200D02*
X129300D01*
X131808Y89350D01*
Y91850D01*
G01X132100Y92800D02*
X132508Y93100D01*
X132742Y93500D01*
X132800Y93950D01*
X132742Y94350D01*
X132450Y94750D01*
X132100Y95000D01*
X131750Y95050D01*
X131342Y94950D01*
X131050Y94600D01*
X130933Y94250D01*
Y93800D01*
G01Y94250D02*
X130758Y94550D01*
X130467Y94800D01*
X130117Y94900D01*
X129767Y94800D01*
X129475Y94550D01*
X129300Y94100D01*
X129358Y93650D01*
X129592Y93200D01*
G01X97900Y104608D02*
X97600Y104783D01*
X97250Y104900D01*
X96850D01*
X96400Y104725D01*
X96050Y104433D01*
X95800Y104083D01*
X95600Y103500D01*
X95550Y102975D01*
X95650Y102450D01*
X95800Y102100D01*
X96100Y101750D01*
X96450Y101517D01*
X96800Y101400D01*
X97150D01*
X97500Y101517D01*
X97800Y101692D01*
X98050Y101925D01*
G01X99150Y102858D02*
X99500Y103267D01*
X99800Y103500D01*
X100200Y103617D01*
X100550Y103500D01*
X100800Y103267D01*
X101000Y102917D01*
X101050Y102508D01*
X101000Y102158D01*
X100800Y101808D01*
X100500Y101517D01*
X100150Y101400D01*
X99750Y101517D01*
X99400Y101867D01*
X99200Y102392D01*
X99150Y102975D01*
X99250Y103733D01*
X99400Y104142D01*
X99650Y104550D01*
X100000Y104842D01*
X100350Y104900D01*
X100700Y104783D01*
X100950Y104492D01*
G01X103400Y104900D02*
X103000Y104783D01*
X102700Y104492D01*
X102500Y104142D01*
X102350Y103675D01*
X102300Y103150D01*
X102350Y102625D01*
X102500Y102158D01*
X102700Y101808D01*
X103000Y101517D01*
X103400Y101400D01*
X103800Y101517D01*
X104100Y101808D01*
X104300Y102158D01*
X104450Y102625D01*
X104500Y103150D01*
X104450Y103675D01*
X104300Y104142D01*
X104100Y104492D01*
X103800Y104783D01*
X103400Y104900D01*
G01X67600Y126008D02*
X67300Y126183D01*
X66950Y126300D01*
X66550D01*
X66100Y126125D01*
X65750Y125833D01*
X65500Y125483D01*
X65300Y124900D01*
X65250Y124375D01*
X65350Y123850D01*
X65500Y123500D01*
X65800Y123150D01*
X66150Y122917D01*
X66500Y122800D01*
X66850D01*
X67200Y122917D01*
X67500Y123092D01*
X67750Y123325D01*
G01X69700Y122800D02*
X69800Y123558D01*
X69950Y124200D01*
X70150Y124783D01*
X70400Y125425D01*
X70800Y126300D01*
X68800D01*
G01X88500Y133408D02*
X88200Y133583D01*
X87850Y133700D01*
X87450D01*
X87000Y133525D01*
X86650Y133233D01*
X86400Y132883D01*
X86200Y132300D01*
X86150Y131775D01*
X86250Y131250D01*
X86400Y130900D01*
X86700Y130550D01*
X87050Y130317D01*
X87400Y130200D01*
X87750D01*
X88100Y130317D01*
X88400Y130492D01*
X88650Y130725D01*
G01X89750Y133117D02*
X90050Y133467D01*
X90400Y133642D01*
X90800Y133700D01*
X91300Y133583D01*
X91650Y133292D01*
X91750Y132942D01*
X91700Y132592D01*
X91500Y132300D01*
X90500Y131717D01*
X90050Y131308D01*
X89750Y130725D01*
X89650Y130200D01*
X91750D01*
G01X94000D02*
X94350Y130258D01*
X94750Y130433D01*
X95000Y130725D01*
X95100Y131133D01*
X95000Y131542D01*
X94700Y131892D01*
X94250Y132067D01*
X93750D01*
X93450Y132183D01*
X93200Y132475D01*
X93100Y132883D01*
X93250Y133292D01*
X93600Y133583D01*
X94000Y133700D01*
X94400Y133583D01*
X94750Y133292D01*
X94900Y132883D01*
X94800Y132475D01*
X94550Y132183D01*
X94250Y132067D01*
X93750D01*
X93300Y131892D01*
X93000Y131542D01*
X92900Y131133D01*
X93000Y130725D01*
X93250Y130433D01*
X93650Y130258D01*
X94000Y130200D01*
G01X88400Y146308D02*
X88100Y146483D01*
X87750Y146600D01*
X87350D01*
X86900Y146425D01*
X86550Y146133D01*
X86300Y145783D01*
X86100Y145200D01*
X86050Y144675D01*
X86150Y144150D01*
X86300Y143800D01*
X86600Y143450D01*
X86950Y143217D01*
X87300Y143100D01*
X87650D01*
X88000Y143217D01*
X88300Y143392D01*
X88550Y143625D01*
G01X89650Y146017D02*
X89950Y146367D01*
X90300Y146542D01*
X90700Y146600D01*
X91200Y146483D01*
X91550Y146192D01*
X91650Y145842D01*
X91600Y145492D01*
X91400Y145200D01*
X90400Y144617D01*
X89950Y144208D01*
X89650Y143625D01*
X89550Y143100D01*
X91650D01*
G01X92950Y144558D02*
X93300Y144967D01*
X93600Y145200D01*
X94000Y145317D01*
X94350Y145200D01*
X94600Y144967D01*
X94800Y144617D01*
X94850Y144208D01*
X94800Y143858D01*
X94600Y143508D01*
X94300Y143217D01*
X93950Y143100D01*
X93550Y143217D01*
X93200Y143567D01*
X93000Y144092D01*
X92950Y144675D01*
X93050Y145433D01*
X93200Y145842D01*
X93450Y146250D01*
X93800Y146542D01*
X94150Y146600D01*
X94500Y146483D01*
X94750Y146192D01*
G01X110300Y77200D02*
Y73700D01*
X112300D01*
G01X114600D02*
X114950Y73758D01*
X115350Y73933D01*
X115600Y74225D01*
X115700Y74633D01*
X115600Y75042D01*
X115300Y75392D01*
X114850Y75567D01*
X114350D01*
X114050Y75683D01*
X113800Y75975D01*
X113700Y76383D01*
X113850Y76792D01*
X114200Y77083D01*
X114600Y77200D01*
X115000Y77083D01*
X115350Y76792D01*
X115500Y76383D01*
X115400Y75975D01*
X115150Y75683D01*
X114850Y75567D01*
X114350D01*
X113900Y75392D01*
X113600Y75042D01*
X113500Y74633D01*
X113600Y74225D01*
X113850Y73933D01*
X114250Y73758D01*
X114600Y73700D01*
G01X65800Y127100D02*
Y130600D01*
X67050D01*
X67450Y130425D01*
X67700Y130192D01*
X67800Y129725D01*
X67700Y129258D01*
X67400Y128967D01*
X67050Y128792D01*
X65800D01*
G01X67050D02*
X67800Y127100D01*
G01X69000Y127800D02*
X69300Y127392D01*
X69700Y127158D01*
X70150Y127100D01*
X70550Y127158D01*
X70950Y127450D01*
X71200Y127800D01*
X71250Y128150D01*
X71150Y128558D01*
X70800Y128850D01*
X70450Y128967D01*
X70000D01*
G01X70450D02*
X70750Y129142D01*
X71000Y129433D01*
X71100Y129783D01*
X71000Y130133D01*
X70750Y130425D01*
X70300Y130600D01*
X69850Y130542D01*
X69400Y130308D01*
G01X74400Y71300D02*
X70900D01*
Y72550D01*
X71075Y72950D01*
X71308Y73200D01*
X71775Y73300D01*
X72242Y73200D01*
X72533Y72900D01*
X72708Y72550D01*
Y71300D01*
G01Y72550D02*
X74400Y73300D01*
G01X73700Y74500D02*
X74108Y74800D01*
X74342Y75200D01*
X74400Y75650D01*
X74342Y76050D01*
X74050Y76450D01*
X73700Y76700D01*
X73350Y76750D01*
X72942Y76650D01*
X72650Y76300D01*
X72533Y75950D01*
Y75500D01*
G01Y75950D02*
X72358Y76250D01*
X72067Y76500D01*
X71717Y76600D01*
X71367Y76500D01*
X71075Y76250D01*
X70900Y75800D01*
X70958Y75350D01*
X71192Y74900D01*
G01X74400Y79500D02*
X70900D01*
X73408Y77650D01*
Y80150D01*
G01X91800Y71200D02*
X88300D01*
Y72450D01*
X88475Y72850D01*
X88708Y73100D01*
X89175Y73200D01*
X89642Y73100D01*
X89933Y72800D01*
X90108Y72450D01*
Y71200D01*
G01Y72450D02*
X91800Y73200D01*
G01X88883Y74550D02*
X88533Y74850D01*
X88358Y75200D01*
X88300Y75600D01*
X88417Y76100D01*
X88708Y76450D01*
X89058Y76550D01*
X89408Y76500D01*
X89700Y76300D01*
X90283Y75300D01*
X90692Y74850D01*
X91275Y74550D01*
X91800Y74450D01*
Y76550D01*
G01X91275Y77700D02*
X91567Y78000D01*
X91742Y78350D01*
X91800Y78800D01*
X91683Y79250D01*
X91450Y79600D01*
X91042Y79850D01*
X90575Y79900D01*
X90108Y79800D01*
X89817Y79550D01*
X89583Y79200D01*
X89525Y78850D01*
X89583Y78500D01*
X89817Y78050D01*
X88300Y78200D01*
Y79550D01*
G01X87400Y71300D02*
X83900D01*
Y72550D01*
X84075Y72950D01*
X84308Y73200D01*
X84775Y73300D01*
X85242Y73200D01*
X85533Y72900D01*
X85708Y72550D01*
Y71300D01*
G01Y72550D02*
X87400Y73300D01*
G01X84483Y74650D02*
X84133Y74950D01*
X83958Y75300D01*
X83900Y75700D01*
X84017Y76200D01*
X84308Y76550D01*
X84658Y76650D01*
X85008Y76600D01*
X85300Y76400D01*
X85883Y75400D01*
X86292Y74950D01*
X86875Y74650D01*
X87400Y74550D01*
Y76650D01*
G01Y78800D02*
X86642Y78900D01*
X86000Y79050D01*
X85417Y79250D01*
X84775Y79500D01*
X83900Y79900D01*
Y77900D01*
G01X83200Y71300D02*
X79700D01*
Y72550D01*
X79875Y72950D01*
X80108Y73200D01*
X80575Y73300D01*
X81042Y73200D01*
X81333Y72900D01*
X81508Y72550D01*
Y71300D01*
G01Y72550D02*
X83200Y73300D01*
G01X80283Y74650D02*
X79933Y74950D01*
X79758Y75300D01*
X79700Y75700D01*
X79817Y76200D01*
X80108Y76550D01*
X80458Y76650D01*
X80808Y76600D01*
X81100Y76400D01*
X81683Y75400D01*
X82092Y74950D01*
X82675Y74650D01*
X83200Y74550D01*
Y76650D01*
G01X82792Y78050D02*
X83083Y78400D01*
X83200Y78800D01*
X83083Y79200D01*
X82733Y79550D01*
X82208Y79800D01*
X81683Y79900D01*
X81042D01*
X80517Y79800D01*
X80050Y79550D01*
X79817Y79250D01*
X79700Y78900D01*
X79817Y78500D01*
X80050Y78200D01*
X80400Y78000D01*
X80867Y77900D01*
X81275Y78000D01*
X81683Y78250D01*
X81917Y78550D01*
X81975Y78900D01*
X81858Y79300D01*
X81567Y79600D01*
X81042Y79900D01*
G01X65900Y71300D02*
X62400D01*
Y72550D01*
X62575Y72950D01*
X62808Y73200D01*
X63275Y73300D01*
X63742Y73200D01*
X64033Y72900D01*
X64208Y72550D01*
Y71300D01*
G01Y72550D02*
X65900Y73300D01*
G01X65200Y74500D02*
X65608Y74800D01*
X65842Y75200D01*
X65900Y75650D01*
X65842Y76050D01*
X65550Y76450D01*
X65200Y76700D01*
X64850Y76750D01*
X64442Y76650D01*
X64150Y76300D01*
X64033Y75950D01*
Y75500D01*
G01Y75950D02*
X63858Y76250D01*
X63567Y76500D01*
X63217Y76600D01*
X62867Y76500D01*
X62575Y76250D01*
X62400Y75800D01*
X62458Y75350D01*
X62692Y74900D01*
G01X65900Y78800D02*
X65142Y78900D01*
X64500Y79050D01*
X63917Y79250D01*
X63275Y79500D01*
X62400Y79900D01*
Y77900D01*
G01X105600Y197400D02*
Y194892D01*
X105800Y194367D01*
X106200Y194017D01*
X106700Y193900D01*
X107200Y194017D01*
X107600Y194367D01*
X107800Y194892D01*
Y197400D01*
G01X108900Y194600D02*
X109200Y194192D01*
X109600Y193958D01*
X110050Y193900D01*
X110450Y193958D01*
X110850Y194250D01*
X111100Y194600D01*
X111150Y194950D01*
X111050Y195358D01*
X110700Y195650D01*
X110350Y195767D01*
X109900D01*
G01X110350D02*
X110650Y195942D01*
X110900Y196233D01*
X111000Y196583D01*
X110900Y196933D01*
X110650Y197225D01*
X110200Y197400D01*
X109750Y197342D01*
X109300Y197108D01*
G01X88400Y164508D02*
X88100Y164683D01*
X87750Y164800D01*
X87350D01*
X86900Y164625D01*
X86550Y164333D01*
X86300Y163983D01*
X86100Y163400D01*
X86050Y162875D01*
X86150Y162350D01*
X86300Y162000D01*
X86600Y161650D01*
X86950Y161417D01*
X87300Y161300D01*
X87650D01*
X88000Y161417D01*
X88300Y161592D01*
X88550Y161825D01*
G01X91200Y161300D02*
Y164800D01*
X89350Y162292D01*
X91850D01*
G01X93900Y164800D02*
X93500Y164683D01*
X93200Y164392D01*
X93000Y164042D01*
X92850Y163575D01*
X92800Y163050D01*
X92850Y162525D01*
X93000Y162058D01*
X93200Y161708D01*
X93500Y161417D01*
X93900Y161300D01*
X94300Y161417D01*
X94600Y161708D01*
X94800Y162058D01*
X94950Y162525D01*
X95000Y163050D01*
X94950Y163575D01*
X94800Y164042D01*
X94600Y164392D01*
X94300Y164683D01*
X93900Y164800D01*
G01X88300Y184008D02*
X88000Y184183D01*
X87650Y184300D01*
X87250D01*
X86800Y184125D01*
X86450Y183833D01*
X86200Y183483D01*
X86000Y182900D01*
X85950Y182375D01*
X86050Y181850D01*
X86200Y181500D01*
X86500Y181150D01*
X86850Y180917D01*
X87200Y180800D01*
X87550D01*
X87900Y180917D01*
X88200Y181092D01*
X88450Y181325D01*
G01X91100Y180800D02*
Y184300D01*
X89250Y181792D01*
X91750D01*
G01X92850Y183717D02*
X93150Y184067D01*
X93500Y184242D01*
X93900Y184300D01*
X94400Y184183D01*
X94750Y183892D01*
X94850Y183542D01*
X94800Y183192D01*
X94600Y182900D01*
X93600Y182317D01*
X93150Y181908D01*
X92850Y181325D01*
X92750Y180800D01*
X94850D01*
G01X119492Y207300D02*
X119317Y207000D01*
X119200Y206650D01*
Y206250D01*
X119375Y205800D01*
X119667Y205450D01*
X120017Y205200D01*
X120600Y205000D01*
X121125Y204950D01*
X121650Y205050D01*
X122000Y205200D01*
X122350Y205500D01*
X122583Y205850D01*
X122700Y206200D01*
Y206550D01*
X122583Y206900D01*
X122408Y207200D01*
X122175Y207450D01*
G01Y208400D02*
X122467Y208700D01*
X122642Y209050D01*
X122700Y209500D01*
X122583Y209950D01*
X122350Y210300D01*
X121942Y210550D01*
X121475Y210600D01*
X121008Y210500D01*
X120717Y210250D01*
X120483Y209900D01*
X120425Y209550D01*
X120483Y209200D01*
X120717Y208750D01*
X119200Y208900D01*
Y210250D01*
G01X122700Y212800D02*
X119200D01*
X119900Y212200D01*
G01X122700D02*
Y213400D01*
G01X123992Y207200D02*
X123817Y206900D01*
X123700Y206550D01*
Y206150D01*
X123875Y205700D01*
X124167Y205350D01*
X124517Y205100D01*
X125100Y204900D01*
X125625Y204850D01*
X126150Y204950D01*
X126500Y205100D01*
X126850Y205400D01*
X127083Y205750D01*
X127200Y206100D01*
Y206450D01*
X127083Y206800D01*
X126908Y207100D01*
X126675Y207350D01*
G01Y208300D02*
X126967Y208600D01*
X127142Y208950D01*
X127200Y209400D01*
X127083Y209850D01*
X126850Y210200D01*
X126442Y210450D01*
X125975Y210500D01*
X125508Y210400D01*
X125217Y210150D01*
X124983Y209800D01*
X124925Y209450D01*
X124983Y209100D01*
X125217Y208650D01*
X123700Y208800D01*
Y210150D01*
G01X126792Y211850D02*
X127083Y212200D01*
X127200Y212600D01*
X127083Y213000D01*
X126733Y213350D01*
X126208Y213600D01*
X125683Y213700D01*
X125042D01*
X124517Y213600D01*
X124050Y213350D01*
X123817Y213050D01*
X123700Y212700D01*
X123817Y212300D01*
X124050Y212000D01*
X124400Y211800D01*
X124867Y211700D01*
X125275Y211800D01*
X125683Y212050D01*
X125917Y212350D01*
X125975Y212700D01*
X125858Y213100D01*
X125567Y213400D01*
X125042Y213700D01*
G01X88300Y179508D02*
X88000Y179683D01*
X87650Y179800D01*
X87250D01*
X86800Y179625D01*
X86450Y179333D01*
X86200Y178983D01*
X86000Y178400D01*
X85950Y177875D01*
X86050Y177350D01*
X86200Y177000D01*
X86500Y176650D01*
X86850Y176417D01*
X87200Y176300D01*
X87550D01*
X87900Y176417D01*
X88200Y176592D01*
X88450Y176825D01*
G01X89550Y179217D02*
X89850Y179567D01*
X90200Y179742D01*
X90600Y179800D01*
X91100Y179683D01*
X91450Y179392D01*
X91550Y179042D01*
X91500Y178692D01*
X91300Y178400D01*
X90300Y177817D01*
X89850Y177408D01*
X89550Y176825D01*
X89450Y176300D01*
X91550D01*
G01X93700D02*
X93800Y177058D01*
X93950Y177700D01*
X94150Y178283D01*
X94400Y178925D01*
X94800Y179800D01*
X92800D01*
G01X88400Y160108D02*
X88100Y160283D01*
X87750Y160400D01*
X87350D01*
X86900Y160225D01*
X86550Y159933D01*
X86300Y159583D01*
X86100Y159000D01*
X86050Y158475D01*
X86150Y157950D01*
X86300Y157600D01*
X86600Y157250D01*
X86950Y157017D01*
X87300Y156900D01*
X87650D01*
X88000Y157017D01*
X88300Y157192D01*
X88550Y157425D01*
G01X89500Y157600D02*
X89800Y157192D01*
X90200Y156958D01*
X90650Y156900D01*
X91050Y156958D01*
X91450Y157250D01*
X91700Y157600D01*
X91750Y157950D01*
X91650Y158358D01*
X91300Y158650D01*
X90950Y158767D01*
X90500D01*
G01X90950D02*
X91250Y158942D01*
X91500Y159233D01*
X91600Y159583D01*
X91500Y159933D01*
X91250Y160225D01*
X90800Y160400D01*
X90350Y160342D01*
X89900Y160108D01*
G01X93900Y160400D02*
X93500Y160283D01*
X93200Y159992D01*
X93000Y159642D01*
X92850Y159175D01*
X92800Y158650D01*
X92850Y158125D01*
X93000Y157658D01*
X93200Y157308D01*
X93500Y157017D01*
X93900Y156900D01*
X94300Y157017D01*
X94600Y157308D01*
X94800Y157658D01*
X94950Y158125D01*
X95000Y158650D01*
X94950Y159175D01*
X94800Y159642D01*
X94600Y159992D01*
X94300Y160283D01*
X93900Y160400D01*
G01X161400Y22300D02*
X161650Y21950D01*
X161950Y21717D01*
X162300Y21600D01*
X162700Y21717D01*
X163000Y21950D01*
X163300Y22300D01*
X163400Y22767D01*
Y25100D01*
G01X164600Y22300D02*
X164900Y21892D01*
X165300Y21658D01*
X165750Y21600D01*
X166150Y21658D01*
X166550Y21950D01*
X166800Y22300D01*
X166850Y22650D01*
X166750Y23058D01*
X166400Y23350D01*
X166050Y23467D01*
X165600D01*
G01X166050D02*
X166350Y23642D01*
X166600Y23933D01*
X166700Y24283D01*
X166600Y24633D01*
X166350Y24925D01*
X165900Y25100D01*
X165450Y25042D01*
X165000Y24808D01*
G01X197000Y32200D02*
Y29692D01*
X197200Y29167D01*
X197600Y28817D01*
X198100Y28700D01*
X198600Y28817D01*
X199000Y29167D01*
X199200Y29692D01*
Y32200D01*
G01X200300Y29225D02*
X200600Y28933D01*
X200950Y28758D01*
X201400Y28700D01*
X201850Y28817D01*
X202200Y29050D01*
X202450Y29458D01*
X202500Y29925D01*
X202400Y30392D01*
X202150Y30683D01*
X201800Y30917D01*
X201450Y30975D01*
X201100Y30917D01*
X200650Y30683D01*
X200800Y32200D01*
X202150D01*
G01X157892Y26100D02*
X157717Y25800D01*
X157600Y25450D01*
Y25050D01*
X157775Y24600D01*
X158067Y24250D01*
X158417Y24000D01*
X159000Y23800D01*
X159525Y23750D01*
X160050Y23850D01*
X160400Y24000D01*
X160750Y24300D01*
X160983Y24650D01*
X161100Y25000D01*
Y25350D01*
X160983Y25700D01*
X160808Y26000D01*
X160575Y26250D01*
G01X159642Y27350D02*
X159233Y27700D01*
X159000Y28000D01*
X158883Y28400D01*
X159000Y28750D01*
X159233Y29000D01*
X159583Y29200D01*
X159992Y29250D01*
X160342Y29200D01*
X160692Y29000D01*
X160983Y28700D01*
X161100Y28350D01*
X160983Y27950D01*
X160633Y27600D01*
X160108Y27400D01*
X159525Y27350D01*
X158767Y27450D01*
X158358Y27600D01*
X157950Y27850D01*
X157658Y28200D01*
X157600Y28550D01*
X157717Y28900D01*
X158008Y29150D01*
G01X160692Y30750D02*
X160983Y31100D01*
X161100Y31500D01*
X160983Y31900D01*
X160633Y32250D01*
X160108Y32500D01*
X159583Y32600D01*
X158942D01*
X158417Y32500D01*
X157950Y32250D01*
X157717Y31950D01*
X157600Y31600D01*
X157717Y31200D01*
X157950Y30900D01*
X158300Y30700D01*
X158767Y30600D01*
X159175Y30700D01*
X159583Y30950D01*
X159817Y31250D01*
X159875Y31600D01*
X159758Y32000D01*
X159467Y32300D01*
X158942Y32600D01*
G01X208100Y18808D02*
X207800Y18983D01*
X207450Y19100D01*
X207050D01*
X206600Y18925D01*
X206250Y18633D01*
X206000Y18283D01*
X205800Y17700D01*
X205750Y17175D01*
X205850Y16650D01*
X206000Y16300D01*
X206300Y15950D01*
X206650Y15717D01*
X207000Y15600D01*
X207350D01*
X207700Y15717D01*
X208000Y15892D01*
X208250Y16125D01*
G01X209200D02*
X209500Y15833D01*
X209850Y15658D01*
X210300Y15600D01*
X210750Y15717D01*
X211100Y15950D01*
X211350Y16358D01*
X211400Y16825D01*
X211300Y17292D01*
X211050Y17583D01*
X210700Y17817D01*
X210350Y17875D01*
X210000Y17817D01*
X209550Y17583D01*
X209700Y19100D01*
X211050D01*
G01X213600D02*
X213200Y18983D01*
X212900Y18692D01*
X212700Y18342D01*
X212550Y17875D01*
X212500Y17350D01*
X212550Y16825D01*
X212700Y16358D01*
X212900Y16008D01*
X213200Y15717D01*
X213600Y15600D01*
X214000Y15717D01*
X214300Y16008D01*
X214500Y16358D01*
X214650Y16825D01*
X214700Y17350D01*
X214650Y17875D01*
X214500Y18342D01*
X214300Y18692D01*
X214000Y18983D01*
X213600Y19100D01*
G01X198900Y49908D02*
X198600Y50083D01*
X198250Y50200D01*
X197850D01*
X197400Y50025D01*
X197050Y49733D01*
X196800Y49383D01*
X196600Y48800D01*
X196550Y48275D01*
X196650Y47750D01*
X196800Y47400D01*
X197100Y47050D01*
X197450Y46817D01*
X197800Y46700D01*
X198150D01*
X198500Y46817D01*
X198800Y46992D01*
X199050Y47225D01*
G01X200150Y49617D02*
X200450Y49967D01*
X200800Y50142D01*
X201200Y50200D01*
X201700Y50083D01*
X202050Y49792D01*
X202150Y49442D01*
X202100Y49092D01*
X201900Y48800D01*
X200900Y48217D01*
X200450Y47808D01*
X200150Y47225D01*
X200050Y46700D01*
X202150D01*
G01X205000D02*
Y50200D01*
X203150Y47692D01*
X205650D01*
G01X198822Y54118D02*
X198522Y54293D01*
X198172Y54410D01*
X197772D01*
X197322Y54235D01*
X196972Y53943D01*
X196722Y53593D01*
X196522Y53010D01*
X196472Y52485D01*
X196572Y51960D01*
X196722Y51610D01*
X197022Y51260D01*
X197372Y51027D01*
X197722Y50910D01*
X198072D01*
X198422Y51027D01*
X198722Y51202D01*
X198972Y51435D01*
G01X200072Y53827D02*
X200372Y54177D01*
X200722Y54352D01*
X201122Y54410D01*
X201622Y54293D01*
X201972Y54002D01*
X202072Y53652D01*
X202022Y53302D01*
X201822Y53010D01*
X200822Y52427D01*
X200372Y52018D01*
X200072Y51435D01*
X199972Y50910D01*
X202072D01*
G01X203222Y51610D02*
X203522Y51202D01*
X203922Y50968D01*
X204372Y50910D01*
X204772Y50968D01*
X205172Y51260D01*
X205422Y51610D01*
X205472Y51960D01*
X205372Y52368D01*
X205022Y52660D01*
X204672Y52777D01*
X204222D01*
G01X204672D02*
X204972Y52952D01*
X205222Y53243D01*
X205322Y53593D01*
X205222Y53943D01*
X204972Y54235D01*
X204522Y54410D01*
X204072Y54352D01*
X203622Y54118D01*
G01X172400Y38100D02*
Y41600D01*
X173400D01*
X173800Y41425D01*
X174100Y41192D01*
X174350Y40842D01*
X174550Y40433D01*
X174600Y39850D01*
X174550Y39267D01*
X174350Y38858D01*
X174100Y38508D01*
X173800Y38275D01*
X173400Y38100D01*
X172400D01*
G01X176800D02*
Y41600D01*
X176200Y40900D01*
G01Y38100D02*
X177400D01*
G01X197050Y33100D02*
Y36600D01*
X198950D01*
G01X198250Y34908D02*
X197050D01*
G01X201300Y33100D02*
Y36600D01*
X200700Y35900D01*
G01Y33100D02*
X201900D01*
G01X169600Y10900D02*
Y14400D01*
X170850D01*
X171250Y14225D01*
X171500Y13992D01*
X171600Y13525D01*
X171500Y13058D01*
X171200Y12767D01*
X170850Y12592D01*
X169600D01*
G01X170850D02*
X171600Y10900D01*
G01X173900D02*
Y14400D01*
X173300Y13700D01*
G01Y10900D02*
X174500D01*
G01X176100Y11600D02*
X176400Y11192D01*
X176800Y10958D01*
X177250Y10900D01*
X177650Y10958D01*
X178050Y11250D01*
X178300Y11600D01*
X178350Y11950D01*
X178250Y12358D01*
X177900Y12650D01*
X177550Y12767D01*
X177100D01*
G01X177550D02*
X177850Y12942D01*
X178100Y13233D01*
X178200Y13583D01*
X178100Y13933D01*
X177850Y14225D01*
X177400Y14400D01*
X176950Y14342D01*
X176500Y14108D01*
G01X197200Y24300D02*
Y27800D01*
X198450D01*
X198850Y27625D01*
X199100Y27392D01*
X199200Y26925D01*
X199100Y26458D01*
X198800Y26167D01*
X198450Y25992D01*
X197200D01*
G01X198450D02*
X199200Y24300D01*
G01X200550Y27217D02*
X200850Y27567D01*
X201200Y27742D01*
X201600Y27800D01*
X202100Y27683D01*
X202450Y27392D01*
X202550Y27042D01*
X202500Y26692D01*
X202300Y26400D01*
X201300Y25817D01*
X200850Y25408D01*
X200550Y24825D01*
X200450Y24300D01*
X202550D01*
G01X204800Y27800D02*
X204400Y27683D01*
X204100Y27392D01*
X203900Y27042D01*
X203750Y26575D01*
X203700Y26050D01*
X203750Y25525D01*
X203900Y25058D01*
X204100Y24708D01*
X204400Y24417D01*
X204800Y24300D01*
X205200Y24417D01*
X205500Y24708D01*
X205700Y25058D01*
X205850Y25525D01*
X205900Y26050D01*
X205850Y26575D01*
X205700Y27042D01*
X205500Y27392D01*
X205200Y27683D01*
X204800Y27800D01*
G01X174400Y24500D02*
Y28000D01*
X175650D01*
X176050Y27825D01*
X176300Y27592D01*
X176400Y27125D01*
X176300Y26658D01*
X176000Y26367D01*
X175650Y26192D01*
X174400D01*
G01X175650D02*
X176400Y24500D01*
G01X178700D02*
Y28000D01*
X178100Y27300D01*
G01Y24500D02*
X179300D01*
G01X181150Y24908D02*
X181500Y24617D01*
X181900Y24500D01*
X182300Y24617D01*
X182650Y24967D01*
X182900Y25492D01*
X183000Y26017D01*
Y26658D01*
X182900Y27183D01*
X182650Y27650D01*
X182350Y27883D01*
X182000Y28000D01*
X181600Y27883D01*
X181300Y27650D01*
X181100Y27300D01*
X181000Y26833D01*
X181100Y26425D01*
X181350Y26017D01*
X181650Y25783D01*
X182000Y25725D01*
X182400Y25842D01*
X182700Y26133D01*
X183000Y26658D01*
G01X212500Y5700D02*
X209000D01*
Y6950D01*
X209175Y7350D01*
X209408Y7600D01*
X209875Y7700D01*
X210342Y7600D01*
X210633Y7300D01*
X210808Y6950D01*
Y5700D01*
G01Y6950D02*
X212500Y7700D01*
G01X209583Y9050D02*
X209233Y9350D01*
X209058Y9700D01*
X209000Y10100D01*
X209117Y10600D01*
X209408Y10950D01*
X209758Y11050D01*
X210108Y11000D01*
X210400Y10800D01*
X210983Y9800D01*
X211392Y9350D01*
X211975Y9050D01*
X212500Y8950D01*
Y11050D01*
G01X211800Y12200D02*
X212208Y12500D01*
X212442Y12900D01*
X212500Y13350D01*
X212442Y13750D01*
X212150Y14150D01*
X211800Y14400D01*
X211450Y14450D01*
X211042Y14350D01*
X210750Y14000D01*
X210633Y13650D01*
Y13200D01*
G01Y13650D02*
X210458Y13950D01*
X210167Y14200D01*
X209817Y14300D01*
X209467Y14200D01*
X209175Y13950D01*
X209000Y13500D01*
X209058Y13050D01*
X209292Y12600D01*
G01X216981Y5689D02*
X213481D01*
Y6939D01*
X213656Y7339D01*
X213889Y7589D01*
X214356Y7689D01*
X214823Y7589D01*
X215114Y7289D01*
X215289Y6939D01*
Y5689D01*
G01Y6939D02*
X216981Y7689D01*
G01X216281Y8889D02*
X216689Y9189D01*
X216923Y9589D01*
X216981Y10039D01*
X216923Y10439D01*
X216631Y10839D01*
X216281Y11089D01*
X215931Y11139D01*
X215523Y11039D01*
X215231Y10689D01*
X215114Y10339D01*
Y9889D01*
G01Y10339D02*
X214939Y10639D01*
X214648Y10889D01*
X214298Y10989D01*
X213948Y10889D01*
X213656Y10639D01*
X213481Y10189D01*
X213539Y9739D01*
X213773Y9289D01*
G01X216981Y13289D02*
X213481D01*
X214181Y12689D01*
G01X216981D02*
Y13889D01*
G01X212000Y53200D02*
X208500D01*
Y54450D01*
X208675Y54850D01*
X208908Y55100D01*
X209375Y55200D01*
X209842Y55100D01*
X210133Y54800D01*
X210308Y54450D01*
Y53200D01*
G01Y54450D02*
X212000Y55200D01*
G01X211300Y56400D02*
X211708Y56700D01*
X211942Y57100D01*
X212000Y57550D01*
X211942Y57950D01*
X211650Y58350D01*
X211300Y58600D01*
X210950Y58650D01*
X210542Y58550D01*
X210250Y58200D01*
X210133Y57850D01*
Y57400D01*
G01Y57850D02*
X209958Y58150D01*
X209667Y58400D01*
X209317Y58500D01*
X208967Y58400D01*
X208675Y58150D01*
X208500Y57700D01*
X208558Y57250D01*
X208792Y56800D01*
G01X208500Y60800D02*
X208617Y60400D01*
X208908Y60100D01*
X209258Y59900D01*
X209725Y59750D01*
X210250Y59700D01*
X210775Y59750D01*
X211242Y59900D01*
X211592Y60100D01*
X211883Y60400D01*
X212000Y60800D01*
X211883Y61200D01*
X211592Y61500D01*
X211242Y61700D01*
X210775Y61850D01*
X210250Y61900D01*
X209725Y61850D01*
X209258Y61700D01*
X208908Y61500D01*
X208617Y61200D01*
X208500Y60800D01*
G01X216520Y53217D02*
X213020D01*
Y54467D01*
X213195Y54867D01*
X213428Y55117D01*
X213895Y55217D01*
X214362Y55117D01*
X214653Y54817D01*
X214828Y54467D01*
Y53217D01*
G01Y54467D02*
X216520Y55217D01*
G01X213603Y56567D02*
X213253Y56867D01*
X213078Y57217D01*
X213020Y57617D01*
X213137Y58117D01*
X213428Y58467D01*
X213778Y58567D01*
X214128Y58517D01*
X214420Y58317D01*
X215003Y57317D01*
X215412Y56867D01*
X215995Y56567D01*
X216520Y56467D01*
Y58567D01*
G01Y61417D02*
X213020D01*
X215528Y59567D01*
Y62067D01*
G01X163100Y46000D02*
Y49500D01*
X164350D01*
X164750Y49325D01*
X165000Y49092D01*
X165100Y48625D01*
X165000Y48158D01*
X164700Y47867D01*
X164350Y47692D01*
X163100D01*
G01X164350D02*
X165100Y46000D01*
G01X166300Y46525D02*
X166600Y46233D01*
X166950Y46058D01*
X167400Y46000D01*
X167850Y46117D01*
X168200Y46350D01*
X168450Y46758D01*
X168500Y47225D01*
X168400Y47692D01*
X168150Y47983D01*
X167800Y48217D01*
X167450Y48275D01*
X167100Y48217D01*
X166650Y47983D01*
X166800Y49500D01*
X168150D01*
G01X170700D02*
X170300Y49383D01*
X170000Y49092D01*
X169800Y48742D01*
X169650Y48275D01*
X169600Y47750D01*
X169650Y47225D01*
X169800Y46758D01*
X170000Y46408D01*
X170300Y46117D01*
X170700Y46000D01*
X171100Y46117D01*
X171400Y46408D01*
X171600Y46758D01*
X171750Y47225D01*
X171800Y47750D01*
X171750Y48275D01*
X171600Y48742D01*
X171400Y49092D01*
X171100Y49383D01*
X170700Y49500D01*
G01X169250Y5467D02*
X169650Y5175D01*
X170100Y5000D01*
X170500D01*
X170900Y5175D01*
X171200Y5467D01*
X171350Y5875D01*
X171250Y6283D01*
X171000Y6633D01*
X170550Y6867D01*
X169950Y6983D01*
X169600Y7217D01*
X169450Y7625D01*
X169550Y8033D01*
X169800Y8325D01*
X170150Y8500D01*
X170500D01*
X170850Y8383D01*
X171150Y8092D01*
G01X172100Y8500D02*
X172800Y5000D01*
X173600Y8500D01*
X174400Y5000D01*
X175100Y8500D01*
G01X176900Y5000D02*
Y8500D01*
X176300Y7800D01*
G01Y5000D02*
X177500D01*
G01X198700Y45708D02*
X198400Y45883D01*
X198050Y46000D01*
X197650D01*
X197200Y45825D01*
X196850Y45533D01*
X196600Y45183D01*
X196400Y44600D01*
X196350Y44075D01*
X196450Y43550D01*
X196600Y43200D01*
X196900Y42850D01*
X197250Y42617D01*
X197600Y42500D01*
X197950D01*
X198300Y42617D01*
X198600Y42792D01*
X198850Y43025D01*
G01X199950Y45417D02*
X200250Y45767D01*
X200600Y45942D01*
X201000Y46000D01*
X201500Y45883D01*
X201850Y45592D01*
X201950Y45242D01*
X201900Y44892D01*
X201700Y44600D01*
X200700Y44017D01*
X200250Y43608D01*
X199950Y43025D01*
X199850Y42500D01*
X201950D01*
G01X203100Y43025D02*
X203400Y42733D01*
X203750Y42558D01*
X204200Y42500D01*
X204650Y42617D01*
X205000Y42850D01*
X205250Y43258D01*
X205300Y43725D01*
X205200Y44192D01*
X204950Y44483D01*
X204600Y44717D01*
X204250Y44775D01*
X203900Y44717D01*
X203450Y44483D01*
X203600Y46000D01*
X204950D01*
G01X198700Y41408D02*
X198400Y41583D01*
X198050Y41700D01*
X197650D01*
X197200Y41525D01*
X196850Y41233D01*
X196600Y40883D01*
X196400Y40300D01*
X196350Y39775D01*
X196450Y39250D01*
X196600Y38900D01*
X196900Y38550D01*
X197250Y38317D01*
X197600Y38200D01*
X197950D01*
X198300Y38317D01*
X198600Y38492D01*
X198850Y38725D01*
G01X199950Y41117D02*
X200250Y41467D01*
X200600Y41642D01*
X201000Y41700D01*
X201500Y41583D01*
X201850Y41292D01*
X201950Y40942D01*
X201900Y40592D01*
X201700Y40300D01*
X200700Y39717D01*
X200250Y39308D01*
X199950Y38725D01*
X199850Y38200D01*
X201950D01*
G01X203250Y41117D02*
X203550Y41467D01*
X203900Y41642D01*
X204300Y41700D01*
X204800Y41583D01*
X205150Y41292D01*
X205250Y40942D01*
X205200Y40592D01*
X205000Y40300D01*
X204000Y39717D01*
X203550Y39308D01*
X203250Y38725D01*
X203150Y38200D01*
X205250D01*
G01X154992Y88600D02*
X154817Y88300D01*
X154700Y87950D01*
Y87550D01*
X154875Y87100D01*
X155167Y86750D01*
X155517Y86500D01*
X156100Y86300D01*
X156625Y86250D01*
X157150Y86350D01*
X157500Y86500D01*
X157850Y86800D01*
X158083Y87150D01*
X158200Y87500D01*
Y87850D01*
X158083Y88200D01*
X157908Y88500D01*
X157675Y88750D01*
G01X157500Y89700D02*
X157908Y90000D01*
X158142Y90400D01*
X158200Y90850D01*
X158142Y91250D01*
X157850Y91650D01*
X157500Y91900D01*
X157150Y91950D01*
X156742Y91850D01*
X156450Y91500D01*
X156333Y91150D01*
Y90700D01*
G01Y91150D02*
X156158Y91450D01*
X155867Y91700D01*
X155517Y91800D01*
X155167Y91700D01*
X154875Y91450D01*
X154700Y91000D01*
X154758Y90550D01*
X154992Y90100D01*
G01X155283Y93150D02*
X154933Y93450D01*
X154758Y93800D01*
X154700Y94200D01*
X154817Y94700D01*
X155108Y95050D01*
X155458Y95150D01*
X155808Y95100D01*
X156100Y94900D01*
X156683Y93900D01*
X157092Y93450D01*
X157675Y93150D01*
X158200Y93050D01*
Y95150D01*
G01X208600Y126608D02*
X208300Y126783D01*
X207950Y126900D01*
X207550D01*
X207100Y126725D01*
X206750Y126433D01*
X206500Y126083D01*
X206300Y125500D01*
X206250Y124975D01*
X206350Y124450D01*
X206500Y124100D01*
X206800Y123750D01*
X207150Y123517D01*
X207500Y123400D01*
X207850D01*
X208200Y123517D01*
X208500Y123692D01*
X208750Y123925D01*
G01X209700Y124100D02*
X210000Y123692D01*
X210400Y123458D01*
X210850Y123400D01*
X211250Y123458D01*
X211650Y123750D01*
X211900Y124100D01*
X211950Y124450D01*
X211850Y124858D01*
X211500Y125150D01*
X211150Y125267D01*
X210700D01*
G01X211150D02*
X211450Y125442D01*
X211700Y125733D01*
X211800Y126083D01*
X211700Y126433D01*
X211450Y126725D01*
X211000Y126900D01*
X210550Y126842D01*
X210100Y126608D01*
G01X213000Y123925D02*
X213300Y123633D01*
X213650Y123458D01*
X214100Y123400D01*
X214550Y123517D01*
X214900Y123750D01*
X215150Y124158D01*
X215200Y124625D01*
X215100Y125092D01*
X214850Y125383D01*
X214500Y125617D01*
X214150Y125675D01*
X213800Y125617D01*
X213350Y125383D01*
X213500Y126900D01*
X214850D01*
G01X207500Y150908D02*
X207200Y151083D01*
X206850Y151200D01*
X206450D01*
X206000Y151025D01*
X205650Y150733D01*
X205400Y150383D01*
X205200Y149800D01*
X205150Y149275D01*
X205250Y148750D01*
X205400Y148400D01*
X205700Y148050D01*
X206050Y147817D01*
X206400Y147700D01*
X206750D01*
X207100Y147817D01*
X207400Y147992D01*
X207650Y148225D01*
G01X208600Y148400D02*
X208900Y147992D01*
X209300Y147758D01*
X209750Y147700D01*
X210150Y147758D01*
X210550Y148050D01*
X210800Y148400D01*
X210850Y148750D01*
X210750Y149158D01*
X210400Y149450D01*
X210050Y149567D01*
X209600D01*
G01X210050D02*
X210350Y149742D01*
X210600Y150033D01*
X210700Y150383D01*
X210600Y150733D01*
X210350Y151025D01*
X209900Y151200D01*
X209450Y151142D01*
X209000Y150908D01*
G01X212050Y149158D02*
X212400Y149567D01*
X212700Y149800D01*
X213100Y149917D01*
X213450Y149800D01*
X213700Y149567D01*
X213900Y149217D01*
X213950Y148808D01*
X213900Y148458D01*
X213700Y148108D01*
X213400Y147817D01*
X213050Y147700D01*
X212650Y147817D01*
X212300Y148167D01*
X212100Y148692D01*
X212050Y149275D01*
X212150Y150033D01*
X212300Y150442D01*
X212550Y150850D01*
X212900Y151142D01*
X213250Y151200D01*
X213600Y151083D01*
X213850Y150792D01*
G01X208200Y138308D02*
X207900Y138483D01*
X207550Y138600D01*
X207150D01*
X206700Y138425D01*
X206350Y138133D01*
X206100Y137783D01*
X205900Y137200D01*
X205850Y136675D01*
X205950Y136150D01*
X206100Y135800D01*
X206400Y135450D01*
X206750Y135217D01*
X207100Y135100D01*
X207450D01*
X207800Y135217D01*
X208100Y135392D01*
X208350Y135625D01*
G01X209300Y135800D02*
X209600Y135392D01*
X210000Y135158D01*
X210450Y135100D01*
X210850Y135158D01*
X211250Y135450D01*
X211500Y135800D01*
X211550Y136150D01*
X211450Y136558D01*
X211100Y136850D01*
X210750Y136967D01*
X210300D01*
G01X210750D02*
X211050Y137142D01*
X211300Y137433D01*
X211400Y137783D01*
X211300Y138133D01*
X211050Y138425D01*
X210600Y138600D01*
X210150Y138542D01*
X209700Y138308D01*
G01X213600Y135100D02*
X213700Y135858D01*
X213850Y136500D01*
X214050Y137083D01*
X214300Y137725D01*
X214700Y138600D01*
X212700D01*
G01X145492Y88400D02*
X145317Y88100D01*
X145200Y87750D01*
Y87350D01*
X145375Y86900D01*
X145667Y86550D01*
X146017Y86300D01*
X146600Y86100D01*
X147125Y86050D01*
X147650Y86150D01*
X148000Y86300D01*
X148350Y86600D01*
X148583Y86950D01*
X148700Y87300D01*
Y87650D01*
X148583Y88000D01*
X148408Y88300D01*
X148175Y88550D01*
G01X148700Y91200D02*
X145200D01*
X147708Y89350D01*
Y91850D01*
G01X148700Y94500D02*
X145200D01*
X147708Y92650D01*
Y95150D01*
G01X159792Y88600D02*
X159617Y88300D01*
X159500Y87950D01*
Y87550D01*
X159675Y87100D01*
X159967Y86750D01*
X160317Y86500D01*
X160900Y86300D01*
X161425Y86250D01*
X161950Y86350D01*
X162300Y86500D01*
X162650Y86800D01*
X162883Y87150D01*
X163000Y87500D01*
Y87850D01*
X162883Y88200D01*
X162708Y88500D01*
X162475Y88750D01*
G01X163000Y91400D02*
X159500D01*
X162008Y89550D01*
Y92050D01*
G01X162475Y93000D02*
X162767Y93300D01*
X162942Y93650D01*
X163000Y94100D01*
X162883Y94550D01*
X162650Y94900D01*
X162242Y95150D01*
X161775Y95200D01*
X161308Y95100D01*
X161017Y94850D01*
X160783Y94500D01*
X160725Y94150D01*
X160783Y93800D01*
X161017Y93350D01*
X159500Y93500D01*
Y94850D01*
G01X174492Y88500D02*
X174317Y88200D01*
X174200Y87850D01*
Y87450D01*
X174375Y87000D01*
X174667Y86650D01*
X175017Y86400D01*
X175600Y86200D01*
X176125Y86150D01*
X176650Y86250D01*
X177000Y86400D01*
X177350Y86700D01*
X177583Y87050D01*
X177700Y87400D01*
Y87750D01*
X177583Y88100D01*
X177408Y88400D01*
X177175Y88650D01*
G01X177700Y91300D02*
X174200D01*
X176708Y89450D01*
Y91950D01*
G01X176242Y93050D02*
X175833Y93400D01*
X175600Y93700D01*
X175483Y94100D01*
X175600Y94450D01*
X175833Y94700D01*
X176183Y94900D01*
X176592Y94950D01*
X176942Y94900D01*
X177292Y94700D01*
X177583Y94400D01*
X177700Y94050D01*
X177583Y93650D01*
X177233Y93300D01*
X176708Y93100D01*
X176125Y93050D01*
X175367Y93150D01*
X174958Y93300D01*
X174550Y93550D01*
X174258Y93900D01*
X174200Y94250D01*
X174317Y94600D01*
X174608Y94850D01*
G01X208400Y131208D02*
X208100Y131383D01*
X207750Y131500D01*
X207350D01*
X206900Y131325D01*
X206550Y131033D01*
X206300Y130683D01*
X206100Y130100D01*
X206050Y129575D01*
X206150Y129050D01*
X206300Y128700D01*
X206600Y128350D01*
X206950Y128117D01*
X207300Y128000D01*
X207650D01*
X208000Y128117D01*
X208300Y128292D01*
X208550Y128525D01*
G01X211200Y128000D02*
Y131500D01*
X209350Y128992D01*
X211850D01*
G01X213800Y128000D02*
X213900Y128758D01*
X214050Y129400D01*
X214250Y129983D01*
X214500Y130625D01*
X214900Y131500D01*
X212900D01*
G01X208100Y142808D02*
X207800Y142983D01*
X207450Y143100D01*
X207050D01*
X206600Y142925D01*
X206250Y142633D01*
X206000Y142283D01*
X205800Y141700D01*
X205750Y141175D01*
X205850Y140650D01*
X206000Y140300D01*
X206300Y139950D01*
X206650Y139717D01*
X207000Y139600D01*
X207350D01*
X207700Y139717D01*
X208000Y139892D01*
X208250Y140125D01*
G01X210900Y139600D02*
Y143100D01*
X209050Y140592D01*
X211550D01*
G01X213600Y139600D02*
X213950Y139658D01*
X214350Y139833D01*
X214600Y140125D01*
X214700Y140533D01*
X214600Y140942D01*
X214300Y141292D01*
X213850Y141467D01*
X213350D01*
X213050Y141583D01*
X212800Y141875D01*
X212700Y142283D01*
X212850Y142692D01*
X213200Y142983D01*
X213600Y143100D01*
X214000Y142983D01*
X214350Y142692D01*
X214500Y142283D01*
X214400Y141875D01*
X214150Y141583D01*
X213850Y141467D01*
X213350D01*
X212900Y141292D01*
X212600Y140942D01*
X212500Y140533D01*
X212600Y140125D01*
X212850Y139833D01*
X213250Y139658D01*
X213600Y139600D01*
G01X170092Y88500D02*
X169917Y88200D01*
X169800Y87850D01*
Y87450D01*
X169975Y87000D01*
X170267Y86650D01*
X170617Y86400D01*
X171200Y86200D01*
X171725Y86150D01*
X172250Y86250D01*
X172600Y86400D01*
X172950Y86700D01*
X173183Y87050D01*
X173300Y87400D01*
Y87750D01*
X173183Y88100D01*
X173008Y88400D01*
X172775Y88650D01*
G01X170383Y89750D02*
X170033Y90050D01*
X169858Y90400D01*
X169800Y90800D01*
X169917Y91300D01*
X170208Y91650D01*
X170558Y91750D01*
X170908Y91700D01*
X171200Y91500D01*
X171783Y90500D01*
X172192Y90050D01*
X172775Y89750D01*
X173300Y89650D01*
Y91750D01*
G01X172892Y93150D02*
X173183Y93500D01*
X173300Y93900D01*
X173183Y94300D01*
X172833Y94650D01*
X172308Y94900D01*
X171783Y95000D01*
X171142D01*
X170617Y94900D01*
X170150Y94650D01*
X169917Y94350D01*
X169800Y94000D01*
X169917Y93600D01*
X170150Y93300D01*
X170500Y93100D01*
X170967Y93000D01*
X171375Y93100D01*
X171783Y93350D01*
X172017Y93650D01*
X172075Y94000D01*
X171958Y94400D01*
X171667Y94700D01*
X171142Y95000D01*
G01X214292Y99900D02*
X214117Y99600D01*
X214000Y99250D01*
Y98850D01*
X214175Y98400D01*
X214467Y98050D01*
X214817Y97800D01*
X215400Y97600D01*
X215925Y97550D01*
X216450Y97650D01*
X216800Y97800D01*
X217150Y98100D01*
X217383Y98450D01*
X217500Y98800D01*
Y99150D01*
X217383Y99500D01*
X217208Y99800D01*
X216975Y100050D01*
G01X217500Y102100D02*
X214000D01*
X214700Y101500D01*
G01X217500D02*
Y102700D01*
G01X214583Y104450D02*
X214233Y104750D01*
X214058Y105100D01*
X214000Y105500D01*
X214117Y106000D01*
X214408Y106350D01*
X214758Y106450D01*
X215108Y106400D01*
X215400Y106200D01*
X215983Y105200D01*
X216392Y104750D01*
X216975Y104450D01*
X217500Y104350D01*
Y106450D01*
G01X200492Y77800D02*
X200317Y77500D01*
X200200Y77150D01*
Y76750D01*
X200375Y76300D01*
X200667Y75950D01*
X201017Y75700D01*
X201600Y75500D01*
X202125Y75450D01*
X202650Y75550D01*
X203000Y75700D01*
X203350Y76000D01*
X203583Y76350D01*
X203700Y76700D01*
Y77050D01*
X203583Y77400D01*
X203408Y77700D01*
X203175Y77950D01*
G01X200783Y79050D02*
X200433Y79350D01*
X200258Y79700D01*
X200200Y80100D01*
X200317Y80600D01*
X200608Y80950D01*
X200958Y81050D01*
X201308Y81000D01*
X201600Y80800D01*
X202183Y79800D01*
X202592Y79350D01*
X203175Y79050D01*
X203700Y78950D01*
Y81050D01*
G01X218692Y136500D02*
X218517Y136200D01*
X218400Y135850D01*
Y135450D01*
X218575Y135000D01*
X218867Y134650D01*
X219217Y134400D01*
X219800Y134200D01*
X220325Y134150D01*
X220850Y134250D01*
X221200Y134400D01*
X221550Y134700D01*
X221783Y135050D01*
X221900Y135400D01*
Y135750D01*
X221783Y136100D01*
X221608Y136400D01*
X221375Y136650D01*
G01X221900Y138700D02*
X218400D01*
X219100Y138100D01*
G01X221900D02*
Y139300D01*
G01X220442Y141050D02*
X220033Y141400D01*
X219800Y141700D01*
X219683Y142100D01*
X219800Y142450D01*
X220033Y142700D01*
X220383Y142900D01*
X220792Y142950D01*
X221142Y142900D01*
X221492Y142700D01*
X221783Y142400D01*
X221900Y142050D01*
X221783Y141650D01*
X221433Y141300D01*
X220908Y141100D01*
X220325Y141050D01*
X219567Y141150D01*
X219158Y141300D01*
X218750Y141550D01*
X218458Y141900D01*
X218400Y142250D01*
X218517Y142600D01*
X218808Y142850D01*
G01X205192Y78100D02*
X205017Y77800D01*
X204900Y77450D01*
Y77050D01*
X205075Y76600D01*
X205367Y76250D01*
X205717Y76000D01*
X206300Y75800D01*
X206825Y75750D01*
X207350Y75850D01*
X207700Y76000D01*
X208050Y76300D01*
X208283Y76650D01*
X208400Y77000D01*
Y77350D01*
X208283Y77700D01*
X208108Y78000D01*
X207875Y78250D01*
G01X208400Y80300D02*
X204900D01*
X205600Y79700D01*
G01X208400D02*
Y80900D01*
G01X209592Y99900D02*
X209417Y99600D01*
X209300Y99250D01*
Y98850D01*
X209475Y98400D01*
X209767Y98050D01*
X210117Y97800D01*
X210700Y97600D01*
X211225Y97550D01*
X211750Y97650D01*
X212100Y97800D01*
X212450Y98100D01*
X212683Y98450D01*
X212800Y98800D01*
Y99150D01*
X212683Y99500D01*
X212508Y99800D01*
X212275Y100050D01*
G01X212800Y102100D02*
X209300D01*
X210000Y101500D01*
G01X212800D02*
Y102700D01*
G01Y105400D02*
X209300D01*
X210000Y104800D01*
G01X212800D02*
Y106000D01*
G01X183000Y95600D02*
Y92100D01*
X185000D01*
G01X186350Y95017D02*
X186650Y95367D01*
X187000Y95542D01*
X187400Y95600D01*
X187900Y95483D01*
X188250Y95192D01*
X188350Y94842D01*
X188300Y94492D01*
X188100Y94200D01*
X187100Y93617D01*
X186650Y93208D01*
X186350Y92625D01*
X186250Y92100D01*
X188350D01*
G01X182900Y101200D02*
Y97700D01*
X184900D01*
G01X186100Y98400D02*
X186400Y97992D01*
X186800Y97758D01*
X187250Y97700D01*
X187650Y97758D01*
X188050Y98050D01*
X188300Y98400D01*
X188350Y98750D01*
X188250Y99158D01*
X187900Y99450D01*
X187550Y99567D01*
X187100D01*
G01X187550D02*
X187850Y99742D01*
X188100Y100033D01*
X188200Y100383D01*
X188100Y100733D01*
X187850Y101025D01*
X187400Y101200D01*
X186950Y101142D01*
X186500Y100908D01*
G01X217900Y113600D02*
Y117100D01*
X219150D01*
X219550Y116925D01*
X219800Y116692D01*
X219900Y116225D01*
X219800Y115758D01*
X219500Y115467D01*
X219150Y115292D01*
X217900D01*
G01X219150D02*
X219900Y113600D01*
G01X222200D02*
Y117100D01*
X221600Y116400D01*
G01Y113600D02*
X222800D01*
G01X225500Y117100D02*
X225100Y116983D01*
X224800Y116692D01*
X224600Y116342D01*
X224450Y115875D01*
X224400Y115350D01*
X224450Y114825D01*
X224600Y114358D01*
X224800Y114008D01*
X225100Y113717D01*
X225500Y113600D01*
X225900Y113717D01*
X226200Y114008D01*
X226400Y114358D01*
X226550Y114825D01*
X226600Y115350D01*
X226550Y115875D01*
X226400Y116342D01*
X226200Y116692D01*
X225900Y116983D01*
X225500Y117100D01*
G01X217900Y117900D02*
Y121400D01*
X219150D01*
X219550Y121225D01*
X219800Y120992D01*
X219900Y120525D01*
X219800Y120058D01*
X219500Y119767D01*
X219150Y119592D01*
X217900D01*
G01X219150D02*
X219900Y117900D01*
G01X222200D02*
Y121400D01*
X221600Y120700D01*
G01Y117900D02*
X222800D01*
G01X224550Y120817D02*
X224850Y121167D01*
X225200Y121342D01*
X225600Y121400D01*
X226100Y121283D01*
X226450Y120992D01*
X226550Y120642D01*
X226500Y120292D01*
X226300Y120000D01*
X225300Y119417D01*
X224850Y119008D01*
X224550Y118425D01*
X224450Y117900D01*
X226550D01*
G01X214392Y77800D02*
X214217Y77500D01*
X214100Y77150D01*
Y76750D01*
X214275Y76300D01*
X214567Y75950D01*
X214917Y75700D01*
X215500Y75500D01*
X216025Y75450D01*
X216550Y75550D01*
X216900Y75700D01*
X217250Y76000D01*
X217483Y76350D01*
X217600Y76700D01*
Y77050D01*
X217483Y77400D01*
X217308Y77700D01*
X217075Y77950D01*
G01X217600Y80600D02*
X214100D01*
X216608Y78750D01*
Y81250D01*
G01X209792Y77900D02*
X209617Y77600D01*
X209500Y77250D01*
Y76850D01*
X209675Y76400D01*
X209967Y76050D01*
X210317Y75800D01*
X210900Y75600D01*
X211425Y75550D01*
X211950Y75650D01*
X212300Y75800D01*
X212650Y76100D01*
X212883Y76450D01*
X213000Y76800D01*
Y77150D01*
X212883Y77500D01*
X212708Y77800D01*
X212475Y78050D01*
G01X212300Y79000D02*
X212708Y79300D01*
X212942Y79700D01*
X213000Y80150D01*
X212942Y80550D01*
X212650Y80950D01*
X212300Y81200D01*
X211950Y81250D01*
X211542Y81150D01*
X211250Y80800D01*
X211133Y80450D01*
Y80000D01*
G01Y80450D02*
X210958Y80750D01*
X210667Y81000D01*
X210317Y81100D01*
X209967Y81000D01*
X209675Y80750D01*
X209500Y80300D01*
X209558Y79850D01*
X209792Y79400D01*
G01X220300Y110508D02*
X220000Y110683D01*
X219650Y110800D01*
X219250D01*
X218800Y110625D01*
X218450Y110333D01*
X218200Y109983D01*
X218000Y109400D01*
X217950Y108875D01*
X218050Y108350D01*
X218200Y108000D01*
X218500Y107650D01*
X218850Y107417D01*
X219200Y107300D01*
X219550D01*
X219900Y107417D01*
X220200Y107592D01*
X220450Y107825D01*
G01X222500Y107300D02*
Y110800D01*
X221900Y110100D01*
G01Y107300D02*
X223100D01*
G01X224700Y108000D02*
X225000Y107592D01*
X225400Y107358D01*
X225850Y107300D01*
X226250Y107358D01*
X226650Y107650D01*
X226900Y108000D01*
X226950Y108350D01*
X226850Y108758D01*
X226500Y109050D01*
X226150Y109167D01*
X225700D01*
G01X226150D02*
X226450Y109342D01*
X226700Y109633D01*
X226800Y109983D01*
X226700Y110333D01*
X226450Y110625D01*
X226000Y110800D01*
X225550Y110742D01*
X225100Y110508D01*
G01X200700Y114000D02*
Y110500D01*
G01X199550Y114000D02*
X201850D01*
G01X203000Y110500D02*
Y114000D01*
X204200D01*
X204600Y113825D01*
X204900Y113417D01*
X205000Y112950D01*
X204900Y112483D01*
X204650Y112133D01*
X204200Y111958D01*
X203000D01*
G01X207300Y110500D02*
Y114000D01*
X206700Y113300D01*
G01Y110500D02*
X207900D01*
G01X200700Y108500D02*
Y105000D01*
G01X199550Y108500D02*
X201850D01*
G01X203000Y105000D02*
Y108500D01*
X204200D01*
X204600Y108325D01*
X204900Y107917D01*
X205000Y107450D01*
X204900Y106983D01*
X204650Y106633D01*
X204200Y106458D01*
X203000D01*
G01X206350Y107917D02*
X206650Y108267D01*
X207000Y108442D01*
X207400Y108500D01*
X207900Y108383D01*
X208250Y108092D01*
X208350Y107742D01*
X208300Y107392D01*
X208100Y107100D01*
X207100Y106517D01*
X206650Y106108D01*
X206350Y105525D01*
X206250Y105000D01*
X208350D01*
G01X207400Y167708D02*
X207100Y167883D01*
X206750Y168000D01*
X206350D01*
X205900Y167825D01*
X205550Y167533D01*
X205300Y167183D01*
X205100Y166600D01*
X205050Y166075D01*
X205150Y165550D01*
X205300Y165200D01*
X205600Y164850D01*
X205950Y164617D01*
X206300Y164500D01*
X206650D01*
X207000Y164617D01*
X207300Y164792D01*
X207550Y165025D01*
G01X210200Y164500D02*
Y168000D01*
X208350Y165492D01*
X210850D01*
G01X212900Y164500D02*
Y168000D01*
X212300Y167300D01*
G01Y164500D02*
X213500D01*
G01X207500Y155608D02*
X207200Y155783D01*
X206850Y155900D01*
X206450D01*
X206000Y155725D01*
X205650Y155433D01*
X205400Y155083D01*
X205200Y154500D01*
X205150Y153975D01*
X205250Y153450D01*
X205400Y153100D01*
X205700Y152750D01*
X206050Y152517D01*
X206400Y152400D01*
X206750D01*
X207100Y152517D01*
X207400Y152692D01*
X207650Y152925D01*
G01X210300Y152400D02*
Y155900D01*
X208450Y153392D01*
X210950D01*
G01X212150Y152808D02*
X212500Y152517D01*
X212900Y152400D01*
X213300Y152517D01*
X213650Y152867D01*
X213900Y153392D01*
X214000Y153917D01*
Y154558D01*
X213900Y155083D01*
X213650Y155550D01*
X213350Y155783D01*
X213000Y155900D01*
X212600Y155783D01*
X212300Y155550D01*
X212100Y155200D01*
X212000Y154733D01*
X212100Y154325D01*
X212350Y153917D01*
X212650Y153683D01*
X213000Y153625D01*
X213400Y153742D01*
X213700Y154033D01*
X214000Y154558D01*
G01X151592Y211000D02*
X151417Y210700D01*
X151300Y210350D01*
Y209950D01*
X151475Y209500D01*
X151767Y209150D01*
X152117Y208900D01*
X152700Y208700D01*
X153225Y208650D01*
X153750Y208750D01*
X154100Y208900D01*
X154450Y209200D01*
X154683Y209550D01*
X154800Y209900D01*
Y210250D01*
X154683Y210600D01*
X154508Y210900D01*
X154275Y211150D01*
G01Y212100D02*
X154567Y212400D01*
X154742Y212750D01*
X154800Y213200D01*
X154683Y213650D01*
X154450Y214000D01*
X154042Y214250D01*
X153575Y214300D01*
X153108Y214200D01*
X152817Y213950D01*
X152583Y213600D01*
X152525Y213250D01*
X152583Y212900D01*
X152817Y212450D01*
X151300Y212600D01*
Y213950D01*
G01X151883Y215550D02*
X151533Y215850D01*
X151358Y216200D01*
X151300Y216600D01*
X151417Y217100D01*
X151708Y217450D01*
X152058Y217550D01*
X152408Y217500D01*
X152700Y217300D01*
X153283Y216300D01*
X153692Y215850D01*
X154275Y215550D01*
X154800Y215450D01*
Y217550D01*
G01X142792Y211200D02*
X142617Y210900D01*
X142500Y210550D01*
Y210150D01*
X142675Y209700D01*
X142967Y209350D01*
X143317Y209100D01*
X143900Y208900D01*
X144425Y208850D01*
X144950Y208950D01*
X145300Y209100D01*
X145650Y209400D01*
X145883Y209750D01*
X146000Y210100D01*
Y210450D01*
X145883Y210800D01*
X145708Y211100D01*
X145475Y211350D01*
G01Y212300D02*
X145767Y212600D01*
X145942Y212950D01*
X146000Y213400D01*
X145883Y213850D01*
X145650Y214200D01*
X145242Y214450D01*
X144775Y214500D01*
X144308Y214400D01*
X144017Y214150D01*
X143783Y213800D01*
X143725Y213450D01*
X143783Y213100D01*
X144017Y212650D01*
X142500Y212800D01*
Y214150D01*
G01X145300Y215600D02*
X145708Y215900D01*
X145942Y216300D01*
X146000Y216750D01*
X145942Y217150D01*
X145650Y217550D01*
X145300Y217800D01*
X144950Y217850D01*
X144542Y217750D01*
X144250Y217400D01*
X144133Y217050D01*
Y216600D01*
G01Y217050D02*
X143958Y217350D01*
X143667Y217600D01*
X143317Y217700D01*
X142967Y217600D01*
X142675Y217350D01*
X142500Y216900D01*
X142558Y216450D01*
X142792Y216000D01*
G01X207400Y163108D02*
X207100Y163283D01*
X206750Y163400D01*
X206350D01*
X205900Y163225D01*
X205550Y162933D01*
X205300Y162583D01*
X205100Y162000D01*
X205050Y161475D01*
X205150Y160950D01*
X205300Y160600D01*
X205600Y160250D01*
X205950Y160017D01*
X206300Y159900D01*
X206650D01*
X207000Y160017D01*
X207300Y160192D01*
X207550Y160425D01*
G01X208500D02*
X208800Y160133D01*
X209150Y159958D01*
X209600Y159900D01*
X210050Y160017D01*
X210400Y160250D01*
X210650Y160658D01*
X210700Y161125D01*
X210600Y161592D01*
X210350Y161883D01*
X210000Y162117D01*
X209650Y162175D01*
X209300Y162117D01*
X208850Y161883D01*
X209000Y163400D01*
X210350D01*
G01X213500Y159900D02*
Y163400D01*
X211650Y160892D01*
X214150D01*
G01X147092Y211000D02*
X146917Y210700D01*
X146800Y210350D01*
Y209950D01*
X146975Y209500D01*
X147267Y209150D01*
X147617Y208900D01*
X148200Y208700D01*
X148725Y208650D01*
X149250Y208750D01*
X149600Y208900D01*
X149950Y209200D01*
X150183Y209550D01*
X150300Y209900D01*
Y210250D01*
X150183Y210600D01*
X150008Y210900D01*
X149775Y211150D01*
G01Y212100D02*
X150067Y212400D01*
X150242Y212750D01*
X150300Y213200D01*
X150183Y213650D01*
X149950Y214000D01*
X149542Y214250D01*
X149075Y214300D01*
X148608Y214200D01*
X148317Y213950D01*
X148083Y213600D01*
X148025Y213250D01*
X148083Y212900D01*
X148317Y212450D01*
X146800Y212600D01*
Y213950D01*
G01X149775Y215400D02*
X150067Y215700D01*
X150242Y216050D01*
X150300Y216500D01*
X150183Y216950D01*
X149950Y217300D01*
X149542Y217550D01*
X149075Y217600D01*
X148608Y217500D01*
X148317Y217250D01*
X148083Y216900D01*
X148025Y216550D01*
X148083Y216200D01*
X148317Y215750D01*
X146800Y215900D01*
Y217250D01*
G01X156192Y211100D02*
X156017Y210800D01*
X155900Y210450D01*
Y210050D01*
X156075Y209600D01*
X156367Y209250D01*
X156717Y209000D01*
X157300Y208800D01*
X157825Y208750D01*
X158350Y208850D01*
X158700Y209000D01*
X159050Y209300D01*
X159283Y209650D01*
X159400Y210000D01*
Y210350D01*
X159283Y210700D01*
X159108Y211000D01*
X158875Y211250D01*
G01Y212200D02*
X159167Y212500D01*
X159342Y212850D01*
X159400Y213300D01*
X159283Y213750D01*
X159050Y214100D01*
X158642Y214350D01*
X158175Y214400D01*
X157708Y214300D01*
X157417Y214050D01*
X157183Y213700D01*
X157125Y213350D01*
X157183Y213000D01*
X157417Y212550D01*
X155900Y212700D01*
Y214050D01*
G01X157942Y215650D02*
X157533Y216000D01*
X157300Y216300D01*
X157183Y216700D01*
X157300Y217050D01*
X157533Y217300D01*
X157883Y217500D01*
X158292Y217550D01*
X158642Y217500D01*
X158992Y217300D01*
X159283Y217000D01*
X159400Y216650D01*
X159283Y216250D01*
X158933Y215900D01*
X158408Y215700D01*
X157825Y215650D01*
X157067Y215750D01*
X156658Y215900D01*
X156250Y216150D01*
X155958Y216500D01*
X155900Y216850D01*
X156017Y217200D01*
X156308Y217450D01*
G01X160592Y211000D02*
X160417Y210700D01*
X160300Y210350D01*
Y209950D01*
X160475Y209500D01*
X160767Y209150D01*
X161117Y208900D01*
X161700Y208700D01*
X162225Y208650D01*
X162750Y208750D01*
X163100Y208900D01*
X163450Y209200D01*
X163683Y209550D01*
X163800Y209900D01*
Y210250D01*
X163683Y210600D01*
X163508Y210900D01*
X163275Y211150D01*
G01Y212100D02*
X163567Y212400D01*
X163742Y212750D01*
X163800Y213200D01*
X163683Y213650D01*
X163450Y214000D01*
X163042Y214250D01*
X162575Y214300D01*
X162108Y214200D01*
X161817Y213950D01*
X161583Y213600D01*
X161525Y213250D01*
X161583Y212900D01*
X161817Y212450D01*
X160300Y212600D01*
Y213950D01*
G01X163800Y216400D02*
X163042Y216500D01*
X162400Y216650D01*
X161817Y216850D01*
X161175Y217100D01*
X160300Y217500D01*
Y215500D01*
G01X165092Y210800D02*
X164917Y210500D01*
X164800Y210150D01*
Y209750D01*
X164975Y209300D01*
X165267Y208950D01*
X165617Y208700D01*
X166200Y208500D01*
X166725Y208450D01*
X167250Y208550D01*
X167600Y208700D01*
X167950Y209000D01*
X168183Y209350D01*
X168300Y209700D01*
Y210050D01*
X168183Y210400D01*
X168008Y210700D01*
X167775Y210950D01*
G01Y211900D02*
X168067Y212200D01*
X168242Y212550D01*
X168300Y213000D01*
X168183Y213450D01*
X167950Y213800D01*
X167542Y214050D01*
X167075Y214100D01*
X166608Y214000D01*
X166317Y213750D01*
X166083Y213400D01*
X166025Y213050D01*
X166083Y212700D01*
X166317Y212250D01*
X164800Y212400D01*
Y213750D01*
G01X168300Y216300D02*
X168242Y216650D01*
X168067Y217050D01*
X167775Y217300D01*
X167367Y217400D01*
X166958Y217300D01*
X166608Y217000D01*
X166433Y216550D01*
Y216050D01*
X166317Y215750D01*
X166025Y215500D01*
X165617Y215400D01*
X165208Y215550D01*
X164917Y215900D01*
X164800Y216300D01*
X164917Y216700D01*
X165208Y217050D01*
X165617Y217200D01*
X166025Y217100D01*
X166317Y216850D01*
X166433Y216550D01*
Y216050D01*
X166608Y215600D01*
X166958Y215300D01*
X167367Y215200D01*
X167775Y215300D01*
X168067Y215550D01*
X168242Y215950D01*
X168300Y216300D01*
G01X169392Y210800D02*
X169217Y210500D01*
X169100Y210150D01*
Y209750D01*
X169275Y209300D01*
X169567Y208950D01*
X169917Y208700D01*
X170500Y208500D01*
X171025Y208450D01*
X171550Y208550D01*
X171900Y208700D01*
X172250Y209000D01*
X172483Y209350D01*
X172600Y209700D01*
Y210050D01*
X172483Y210400D01*
X172308Y210700D01*
X172075Y210950D01*
G01X171142Y212050D02*
X170733Y212400D01*
X170500Y212700D01*
X170383Y213100D01*
X170500Y213450D01*
X170733Y213700D01*
X171083Y213900D01*
X171492Y213950D01*
X171842Y213900D01*
X172192Y213700D01*
X172483Y213400D01*
X172600Y213050D01*
X172483Y212650D01*
X172133Y212300D01*
X171608Y212100D01*
X171025Y212050D01*
X170267Y212150D01*
X169858Y212300D01*
X169450Y212550D01*
X169158Y212900D01*
X169100Y213250D01*
X169217Y213600D01*
X169508Y213850D01*
G01X169683Y215350D02*
X169333Y215650D01*
X169158Y216000D01*
X169100Y216400D01*
X169217Y216900D01*
X169508Y217250D01*
X169858Y217350D01*
X170208Y217300D01*
X170500Y217100D01*
X171083Y216100D01*
X171492Y215650D01*
X172075Y215350D01*
X172600Y215250D01*
Y217350D01*
G01X173592Y210800D02*
X173417Y210500D01*
X173300Y210150D01*
Y209750D01*
X173475Y209300D01*
X173767Y208950D01*
X174117Y208700D01*
X174700Y208500D01*
X175225Y208450D01*
X175750Y208550D01*
X176100Y208700D01*
X176450Y209000D01*
X176683Y209350D01*
X176800Y209700D01*
Y210050D01*
X176683Y210400D01*
X176508Y210700D01*
X176275Y210950D01*
G01X175342Y212050D02*
X174933Y212400D01*
X174700Y212700D01*
X174583Y213100D01*
X174700Y213450D01*
X174933Y213700D01*
X175283Y213900D01*
X175692Y213950D01*
X176042Y213900D01*
X176392Y213700D01*
X176683Y213400D01*
X176800Y213050D01*
X176683Y212650D01*
X176333Y212300D01*
X175808Y212100D01*
X175225Y212050D01*
X174467Y212150D01*
X174058Y212300D01*
X173650Y212550D01*
X173358Y212900D01*
X173300Y213250D01*
X173417Y213600D01*
X173708Y213850D01*
G01X176800Y216300D02*
X173300D01*
X174000Y215700D01*
G01X176800D02*
Y216900D01*
G01X213900Y178808D02*
X213600Y178983D01*
X213250Y179100D01*
X212850D01*
X212400Y178925D01*
X212050Y178633D01*
X211800Y178283D01*
X211600Y177700D01*
X211550Y177175D01*
X211650Y176650D01*
X211800Y176300D01*
X212100Y175950D01*
X212450Y175717D01*
X212800Y175600D01*
X213150D01*
X213500Y175717D01*
X213800Y175892D01*
X214050Y176125D01*
G01X215150Y177058D02*
X215500Y177467D01*
X215800Y177700D01*
X216200Y177817D01*
X216550Y177700D01*
X216800Y177467D01*
X217000Y177117D01*
X217050Y176708D01*
X217000Y176358D01*
X216800Y176008D01*
X216500Y175717D01*
X216150Y175600D01*
X215750Y175717D01*
X215400Y176067D01*
X215200Y176592D01*
X215150Y177175D01*
X215250Y177933D01*
X215400Y178342D01*
X215650Y178750D01*
X216000Y179042D01*
X216350Y179100D01*
X216700Y178983D01*
X216950Y178692D01*
G01X220000Y175600D02*
Y179100D01*
X218150Y176592D01*
X220650D01*
G01X213800Y183608D02*
X213500Y183783D01*
X213150Y183900D01*
X212750D01*
X212300Y183725D01*
X211950Y183433D01*
X211700Y183083D01*
X211500Y182500D01*
X211450Y181975D01*
X211550Y181450D01*
X211700Y181100D01*
X212000Y180750D01*
X212350Y180517D01*
X212700Y180400D01*
X213050D01*
X213400Y180517D01*
X213700Y180692D01*
X213950Y180925D01*
G01X215050Y181858D02*
X215400Y182267D01*
X215700Y182500D01*
X216100Y182617D01*
X216450Y182500D01*
X216700Y182267D01*
X216900Y181917D01*
X216950Y181508D01*
X216900Y181158D01*
X216700Y180808D01*
X216400Y180517D01*
X216050Y180400D01*
X215650Y180517D01*
X215300Y180867D01*
X215100Y181392D01*
X215050Y181975D01*
X215150Y182733D01*
X215300Y183142D01*
X215550Y183550D01*
X215900Y183842D01*
X216250Y183900D01*
X216600Y183783D01*
X216850Y183492D01*
G01X218200Y181100D02*
X218500Y180692D01*
X218900Y180458D01*
X219350Y180400D01*
X219750Y180458D01*
X220150Y180750D01*
X220400Y181100D01*
X220450Y181450D01*
X220350Y181858D01*
X220000Y182150D01*
X219650Y182267D01*
X219200D01*
G01X219650D02*
X219950Y182442D01*
X220200Y182733D01*
X220300Y183083D01*
X220200Y183433D01*
X219950Y183725D01*
X219500Y183900D01*
X219050Y183842D01*
X218600Y183608D01*
G01X178500Y212900D02*
X182000D01*
Y214900D01*
G01X181475Y216100D02*
X181767Y216400D01*
X181942Y216750D01*
X182000Y217200D01*
X181883Y217650D01*
X181650Y218000D01*
X181242Y218250D01*
X180775Y218300D01*
X180308Y218200D01*
X180017Y217950D01*
X179783Y217600D01*
X179725Y217250D01*
X179783Y216900D01*
X180017Y216450D01*
X178500Y216600D01*
Y217950D01*
G01X212800Y188900D02*
Y185400D01*
X214800D01*
G01X216150Y186858D02*
X216500Y187267D01*
X216800Y187500D01*
X217200Y187617D01*
X217550Y187500D01*
X217800Y187267D01*
X218000Y186917D01*
X218050Y186508D01*
X218000Y186158D01*
X217800Y185808D01*
X217500Y185517D01*
X217150Y185400D01*
X216750Y185517D01*
X216400Y185867D01*
X216200Y186392D01*
X216150Y186975D01*
X216250Y187733D01*
X216400Y188142D01*
X216650Y188550D01*
X217000Y188842D01*
X217350Y188900D01*
X217700Y188783D01*
X217950Y188492D01*
G01X213000Y174000D02*
Y170500D01*
X215000D01*
G01X217200D02*
X217300Y171258D01*
X217450Y171900D01*
X217650Y172483D01*
X217900Y173125D01*
X218300Y174000D01*
X216300D01*
G01X278250Y17467D02*
X278650Y17175D01*
X279100Y17000D01*
X279500D01*
X279900Y17175D01*
X280200Y17467D01*
X280350Y17875D01*
X280250Y18283D01*
X280000Y18633D01*
X279550Y18867D01*
X278950Y18983D01*
X278600Y19217D01*
X278450Y19625D01*
X278550Y20033D01*
X278800Y20325D01*
X279150Y20500D01*
X279500D01*
X279850Y20383D01*
X280150Y20092D01*
G01X281100Y20500D02*
X281800Y17000D01*
X282600Y20500D01*
X283400Y17000D01*
X284100Y20500D01*
G01X284800Y17700D02*
X285100Y17292D01*
X285500Y17058D01*
X285950Y17000D01*
X286350Y17058D01*
X286750Y17350D01*
X287000Y17700D01*
X287050Y18050D01*
X286950Y18458D01*
X286600Y18750D01*
X286250Y18867D01*
X285800D01*
G01X286250D02*
X286550Y19042D01*
X286800Y19333D01*
X286900Y19683D01*
X286800Y20033D01*
X286550Y20325D01*
X286100Y20500D01*
X285650Y20442D01*
X285200Y20208D01*
G01X236050Y16167D02*
X236450Y15875D01*
X236900Y15700D01*
X237300D01*
X237700Y15875D01*
X238000Y16167D01*
X238150Y16575D01*
X238050Y16983D01*
X237800Y17333D01*
X237350Y17567D01*
X236750Y17683D01*
X236400Y17917D01*
X236250Y18325D01*
X236350Y18733D01*
X236600Y19025D01*
X236950Y19200D01*
X237300D01*
X237650Y19083D01*
X237950Y18792D01*
G01X238900Y19200D02*
X239600Y15700D01*
X240400Y19200D01*
X241200Y15700D01*
X241900Y19200D01*
G01X242750Y18617D02*
X243050Y18967D01*
X243400Y19142D01*
X243800Y19200D01*
X244300Y19083D01*
X244650Y18792D01*
X244750Y18442D01*
X244700Y18092D01*
X244500Y17800D01*
X243500Y17217D01*
X243050Y16808D01*
X242750Y16225D01*
X242650Y15700D01*
X244750D01*
G01X221300Y62600D02*
Y66100D01*
X222550D01*
X222950Y65925D01*
X223200Y65692D01*
X223300Y65225D01*
X223200Y64758D01*
X222900Y64467D01*
X222550Y64292D01*
X221300D01*
G01X222550D02*
X223300Y62600D01*
G01X225600D02*
Y66100D01*
X225000Y65400D01*
G01Y62600D02*
X226200D01*
G01X249500Y68100D02*
Y71600D01*
X250750D01*
X251150Y71425D01*
X251400Y71192D01*
X251500Y70725D01*
X251400Y70258D01*
X251100Y69967D01*
X250750Y69792D01*
X249500D01*
G01X250750D02*
X251500Y68100D01*
G01X254400D02*
Y71600D01*
X252550Y69092D01*
X255050D01*
G01X221300Y66900D02*
Y70400D01*
X222550D01*
X222950Y70225D01*
X223200Y69992D01*
X223300Y69525D01*
X223200Y69058D01*
X222900Y68767D01*
X222550Y68592D01*
X221300D01*
G01X222550D02*
X223300Y66900D01*
G01X224500Y67425D02*
X224800Y67133D01*
X225150Y66958D01*
X225600Y66900D01*
X226050Y67017D01*
X226400Y67250D01*
X226650Y67658D01*
X226700Y68125D01*
X226600Y68592D01*
X226350Y68883D01*
X226000Y69117D01*
X225650Y69175D01*
X225300Y69117D01*
X224850Y68883D01*
X225000Y70400D01*
X226350D01*
G01X238300Y5600D02*
X234800D01*
Y6850D01*
X234975Y7250D01*
X235208Y7500D01*
X235675Y7600D01*
X236142Y7500D01*
X236433Y7200D01*
X236608Y6850D01*
Y5600D01*
G01Y6850D02*
X238300Y7600D01*
G01X235383Y8950D02*
X235033Y9250D01*
X234858Y9600D01*
X234800Y10000D01*
X234917Y10500D01*
X235208Y10850D01*
X235558Y10950D01*
X235908Y10900D01*
X236200Y10700D01*
X236783Y9700D01*
X237192Y9250D01*
X237775Y8950D01*
X238300Y8850D01*
Y10950D01*
G01X236842Y12250D02*
X236433Y12600D01*
X236200Y12900D01*
X236083Y13300D01*
X236200Y13650D01*
X236433Y13900D01*
X236783Y14100D01*
X237192Y14150D01*
X237542Y14100D01*
X237892Y13900D01*
X238183Y13600D01*
X238300Y13250D01*
X238183Y12850D01*
X237833Y12500D01*
X237308Y12300D01*
X236725Y12250D01*
X235967Y12350D01*
X235558Y12500D01*
X235150Y12750D01*
X234858Y13100D01*
X234800Y13450D01*
X234917Y13800D01*
X235208Y14050D01*
G01X242900Y5500D02*
X239400D01*
Y6750D01*
X239575Y7150D01*
X239808Y7400D01*
X240275Y7500D01*
X240742Y7400D01*
X241033Y7100D01*
X241208Y6750D01*
Y5500D01*
G01Y6750D02*
X242900Y7500D01*
G01X242200Y8700D02*
X242608Y9000D01*
X242842Y9400D01*
X242900Y9850D01*
X242842Y10250D01*
X242550Y10650D01*
X242200Y10900D01*
X241850Y10950D01*
X241442Y10850D01*
X241150Y10500D01*
X241033Y10150D01*
Y9700D01*
G01Y10150D02*
X240858Y10450D01*
X240567Y10700D01*
X240217Y10800D01*
X239867Y10700D01*
X239575Y10450D01*
X239400Y10000D01*
X239458Y9550D01*
X239692Y9100D01*
G01X242200Y12000D02*
X242608Y12300D01*
X242842Y12700D01*
X242900Y13150D01*
X242842Y13550D01*
X242550Y13950D01*
X242200Y14200D01*
X241850Y14250D01*
X241442Y14150D01*
X241150Y13800D01*
X241033Y13450D01*
Y13000D01*
G01Y13450D02*
X240858Y13750D01*
X240567Y14000D01*
X240217Y14100D01*
X239867Y14000D01*
X239575Y13750D01*
X239400Y13300D01*
X239458Y12850D01*
X239692Y12400D01*
G01X247900Y5400D02*
X244400D01*
Y6650D01*
X244575Y7050D01*
X244808Y7300D01*
X245275Y7400D01*
X245742Y7300D01*
X246033Y7000D01*
X246208Y6650D01*
Y5400D01*
G01Y6650D02*
X247900Y7400D01*
G01X247200Y8600D02*
X247608Y8900D01*
X247842Y9300D01*
X247900Y9750D01*
X247842Y10150D01*
X247550Y10550D01*
X247200Y10800D01*
X246850Y10850D01*
X246442Y10750D01*
X246150Y10400D01*
X246033Y10050D01*
Y9600D01*
G01Y10050D02*
X245858Y10350D01*
X245567Y10600D01*
X245217Y10700D01*
X244867Y10600D01*
X244575Y10350D01*
X244400Y9900D01*
X244458Y9450D01*
X244692Y9000D01*
G01X247900Y13000D02*
X247842Y13350D01*
X247667Y13750D01*
X247375Y14000D01*
X246967Y14100D01*
X246558Y14000D01*
X246208Y13700D01*
X246033Y13250D01*
Y12750D01*
X245917Y12450D01*
X245625Y12200D01*
X245217Y12100D01*
X244808Y12250D01*
X244517Y12600D01*
X244400Y13000D01*
X244517Y13400D01*
X244808Y13750D01*
X245217Y13900D01*
X245625Y13800D01*
X245917Y13550D01*
X246033Y13250D01*
Y12750D01*
X246208Y12300D01*
X246558Y12000D01*
X246967Y11900D01*
X247375Y12000D01*
X247667Y12250D01*
X247842Y12650D01*
X247900Y13000D01*
G01X252500Y5400D02*
X249000D01*
Y6650D01*
X249175Y7050D01*
X249408Y7300D01*
X249875Y7400D01*
X250342Y7300D01*
X250633Y7000D01*
X250808Y6650D01*
Y5400D01*
G01Y6650D02*
X252500Y7400D01*
G01X251800Y8600D02*
X252208Y8900D01*
X252442Y9300D01*
X252500Y9750D01*
X252442Y10150D01*
X252150Y10550D01*
X251800Y10800D01*
X251450Y10850D01*
X251042Y10750D01*
X250750Y10400D01*
X250633Y10050D01*
Y9600D01*
G01Y10050D02*
X250458Y10350D01*
X250167Y10600D01*
X249817Y10700D01*
X249467Y10600D01*
X249175Y10350D01*
X249000Y9900D01*
X249058Y9450D01*
X249292Y9000D01*
G01X252092Y12150D02*
X252383Y12500D01*
X252500Y12900D01*
X252383Y13300D01*
X252033Y13650D01*
X251508Y13900D01*
X250983Y14000D01*
X250342D01*
X249817Y13900D01*
X249350Y13650D01*
X249117Y13350D01*
X249000Y13000D01*
X249117Y12600D01*
X249350Y12300D01*
X249700Y12100D01*
X250167Y12000D01*
X250575Y12100D01*
X250983Y12350D01*
X251217Y12650D01*
X251275Y13000D01*
X251158Y13400D01*
X250867Y13700D01*
X250342Y14000D01*
G01X278700Y6000D02*
X275200D01*
Y7250D01*
X275375Y7650D01*
X275608Y7900D01*
X276075Y8000D01*
X276542Y7900D01*
X276833Y7600D01*
X277008Y7250D01*
Y6000D01*
G01Y7250D02*
X278700Y8000D01*
G01Y10900D02*
X275200D01*
X277708Y9050D01*
Y11550D01*
G01X278000Y12500D02*
X278408Y12800D01*
X278642Y13200D01*
X278700Y13650D01*
X278642Y14050D01*
X278350Y14450D01*
X278000Y14700D01*
X277650Y14750D01*
X277242Y14650D01*
X276950Y14300D01*
X276833Y13950D01*
Y13500D01*
G01Y13950D02*
X276658Y14250D01*
X276367Y14500D01*
X276017Y14600D01*
X275667Y14500D01*
X275375Y14250D01*
X275200Y13800D01*
X275258Y13350D01*
X275492Y12900D01*
G01X283357Y5989D02*
X279857D01*
Y7239D01*
X280032Y7639D01*
X280265Y7889D01*
X280732Y7989D01*
X281199Y7889D01*
X281490Y7589D01*
X281665Y7239D01*
Y5989D01*
G01Y7239D02*
X283357Y7989D01*
G01Y10889D02*
X279857D01*
X282365Y9039D01*
Y11539D01*
G01X281899Y12639D02*
X281490Y12989D01*
X281257Y13289D01*
X281140Y13689D01*
X281257Y14039D01*
X281490Y14289D01*
X281840Y14489D01*
X282249Y14539D01*
X282599Y14489D01*
X282949Y14289D01*
X283240Y13989D01*
X283357Y13639D01*
X283240Y13239D01*
X282890Y12889D01*
X282365Y12689D01*
X281782Y12639D01*
X281024Y12739D01*
X280615Y12889D01*
X280207Y13139D01*
X279915Y13489D01*
X279857Y13839D01*
X279974Y14189D01*
X280265Y14439D01*
G01X288000Y6000D02*
X284500D01*
Y7250D01*
X284675Y7650D01*
X284908Y7900D01*
X285375Y8000D01*
X285842Y7900D01*
X286133Y7600D01*
X286308Y7250D01*
Y6000D01*
G01Y7250D02*
X288000Y8000D01*
G01Y10900D02*
X284500D01*
X287008Y9050D01*
Y11550D01*
G01X288000Y13600D02*
X287942Y13950D01*
X287767Y14350D01*
X287475Y14600D01*
X287067Y14700D01*
X286658Y14600D01*
X286308Y14300D01*
X286133Y13850D01*
Y13350D01*
X286017Y13050D01*
X285725Y12800D01*
X285317Y12700D01*
X284908Y12850D01*
X284617Y13200D01*
X284500Y13600D01*
X284617Y14000D01*
X284908Y14350D01*
X285317Y14500D01*
X285725Y14400D01*
X286017Y14150D01*
X286133Y13850D01*
Y13350D01*
X286308Y12900D01*
X286658Y12600D01*
X287067Y12500D01*
X287475Y12600D01*
X287767Y12850D01*
X287942Y13250D01*
X288000Y13600D01*
G01X243100Y53200D02*
X239600D01*
Y54450D01*
X239775Y54850D01*
X240008Y55100D01*
X240475Y55200D01*
X240942Y55100D01*
X241233Y54800D01*
X241408Y54450D01*
Y53200D01*
G01Y54450D02*
X243100Y55200D01*
G01X240183Y56550D02*
X239833Y56850D01*
X239658Y57200D01*
X239600Y57600D01*
X239717Y58100D01*
X240008Y58450D01*
X240358Y58550D01*
X240708Y58500D01*
X241000Y58300D01*
X241583Y57300D01*
X241992Y56850D01*
X242575Y56550D01*
X243100Y56450D01*
Y58550D01*
G01Y60800D02*
X243042Y61150D01*
X242867Y61550D01*
X242575Y61800D01*
X242167Y61900D01*
X241758Y61800D01*
X241408Y61500D01*
X241233Y61050D01*
Y60550D01*
X241117Y60250D01*
X240825Y60000D01*
X240417Y59900D01*
X240008Y60050D01*
X239717Y60400D01*
X239600Y60800D01*
X239717Y61200D01*
X240008Y61550D01*
X240417Y61700D01*
X240825Y61600D01*
X241117Y61350D01*
X241233Y61050D01*
Y60550D01*
X241408Y60100D01*
X241758Y59800D01*
X242167Y59700D01*
X242575Y59800D01*
X242867Y60050D01*
X243042Y60450D01*
X243100Y60800D01*
G01X238600Y53200D02*
X235100D01*
Y54450D01*
X235275Y54850D01*
X235508Y55100D01*
X235975Y55200D01*
X236442Y55100D01*
X236733Y54800D01*
X236908Y54450D01*
Y53200D01*
G01Y54450D02*
X238600Y55200D01*
G01X237900Y56400D02*
X238308Y56700D01*
X238542Y57100D01*
X238600Y57550D01*
X238542Y57950D01*
X238250Y58350D01*
X237900Y58600D01*
X237550Y58650D01*
X237142Y58550D01*
X236850Y58200D01*
X236733Y57850D01*
Y57400D01*
G01Y57850D02*
X236558Y58150D01*
X236267Y58400D01*
X235917Y58500D01*
X235567Y58400D01*
X235275Y58150D01*
X235100Y57700D01*
X235158Y57250D01*
X235392Y56800D01*
G01X235683Y59850D02*
X235333Y60150D01*
X235158Y60500D01*
X235100Y60900D01*
X235217Y61400D01*
X235508Y61750D01*
X235858Y61850D01*
X236208Y61800D01*
X236500Y61600D01*
X237083Y60600D01*
X237492Y60150D01*
X238075Y59850D01*
X238600Y59750D01*
Y61850D01*
G01X248600Y53100D02*
X245100D01*
Y54350D01*
X245275Y54750D01*
X245508Y55000D01*
X245975Y55100D01*
X246442Y55000D01*
X246733Y54700D01*
X246908Y54350D01*
Y53100D01*
G01Y54350D02*
X248600Y55100D01*
G01Y58000D02*
X245100D01*
X247608Y56150D01*
Y58650D01*
G01X245100Y60700D02*
X245217Y60300D01*
X245508Y60000D01*
X245858Y59800D01*
X246325Y59650D01*
X246850Y59600D01*
X247375Y59650D01*
X247842Y59800D01*
X248192Y60000D01*
X248483Y60300D01*
X248600Y60700D01*
X248483Y61100D01*
X248192Y61400D01*
X247842Y61600D01*
X247375Y61750D01*
X246850Y61800D01*
X246325Y61750D01*
X245858Y61600D01*
X245508Y61400D01*
X245217Y61100D01*
X245100Y60700D01*
G01X252951Y53117D02*
X249451D01*
Y54367D01*
X249626Y54767D01*
X249859Y55017D01*
X250326Y55117D01*
X250793Y55017D01*
X251084Y54717D01*
X251259Y54367D01*
Y53117D01*
G01Y54367D02*
X252951Y55117D01*
G01Y58017D02*
X249451D01*
X251959Y56167D01*
Y58667D01*
G01X250034Y59767D02*
X249684Y60067D01*
X249509Y60417D01*
X249451Y60817D01*
X249568Y61317D01*
X249859Y61667D01*
X250209Y61767D01*
X250559Y61717D01*
X250851Y61517D01*
X251434Y60517D01*
X251843Y60067D01*
X252426Y59767D01*
X252951Y59667D01*
Y61767D01*
G01X278700Y53100D02*
X275200D01*
Y54350D01*
X275375Y54750D01*
X275608Y55000D01*
X276075Y55100D01*
X276542Y55000D01*
X276833Y54700D01*
X277008Y54350D01*
Y53100D01*
G01Y54350D02*
X278700Y55100D01*
G01Y58000D02*
X275200D01*
X277708Y56150D01*
Y58650D01*
G01X278700Y61300D02*
X275200D01*
X277708Y59450D01*
Y61950D01*
G01X283200Y53000D02*
X279700D01*
Y54250D01*
X279875Y54650D01*
X280108Y54900D01*
X280575Y55000D01*
X281042Y54900D01*
X281333Y54600D01*
X281508Y54250D01*
Y53000D01*
G01Y54250D02*
X283200Y55000D01*
G01Y57900D02*
X279700D01*
X282208Y56050D01*
Y58550D01*
G01X283200Y60500D02*
X282442Y60600D01*
X281800Y60750D01*
X281217Y60950D01*
X280575Y61200D01*
X279700Y61600D01*
Y59600D01*
G01X287665Y52917D02*
X284165D01*
Y54167D01*
X284340Y54567D01*
X284573Y54817D01*
X285040Y54917D01*
X285507Y54817D01*
X285798Y54517D01*
X285973Y54167D01*
Y52917D01*
G01Y54167D02*
X287665Y54917D01*
G01Y57817D02*
X284165D01*
X286673Y55967D01*
Y58467D01*
G01X287257Y59667D02*
X287548Y60017D01*
X287665Y60417D01*
X287548Y60817D01*
X287198Y61167D01*
X286673Y61417D01*
X286148Y61517D01*
X285507D01*
X284982Y61417D01*
X284515Y61167D01*
X284282Y60867D01*
X284165Y60517D01*
X284282Y60117D01*
X284515Y59817D01*
X284865Y59617D01*
X285332Y59517D01*
X285740Y59617D01*
X286148Y59867D01*
X286382Y60167D01*
X286440Y60517D01*
X286323Y60917D01*
X286032Y61217D01*
X285507Y61517D01*
G01X248700Y88900D02*
Y86392D01*
X248900Y85867D01*
X249300Y85517D01*
X249800Y85400D01*
X250300Y85517D01*
X250700Y85867D01*
X250900Y86392D01*
Y88900D01*
G01X253100Y85400D02*
Y88900D01*
X252500Y88200D01*
G01Y85400D02*
X253700D01*
G01X246000Y139500D02*
Y136992D01*
X246200Y136467D01*
X246600Y136117D01*
X247100Y136000D01*
X247600Y136117D01*
X248000Y136467D01*
X248200Y136992D01*
Y139500D01*
G01X251000Y136000D02*
Y139500D01*
X249150Y136992D01*
X251650D01*
G01X247200Y111700D02*
Y109192D01*
X247400Y108667D01*
X247800Y108317D01*
X248300Y108200D01*
X248800Y108317D01*
X249200Y108667D01*
X249400Y109192D01*
Y111700D01*
G01X250650Y111117D02*
X250950Y111467D01*
X251300Y111642D01*
X251700Y111700D01*
X252200Y111583D01*
X252550Y111292D01*
X252650Y110942D01*
X252600Y110592D01*
X252400Y110300D01*
X251400Y109717D01*
X250950Y109308D01*
X250650Y108725D01*
X250550Y108200D01*
X252650D01*
G01X263992Y96800D02*
X263817Y96500D01*
X263700Y96150D01*
Y95750D01*
X263875Y95300D01*
X264167Y94950D01*
X264517Y94700D01*
X265100Y94500D01*
X265625Y94450D01*
X266150Y94550D01*
X266500Y94700D01*
X266850Y95000D01*
X267083Y95350D01*
X267200Y95700D01*
Y96050D01*
X267083Y96400D01*
X266908Y96700D01*
X266675Y96950D01*
G01X267200Y99000D02*
X263700D01*
X264400Y98400D01*
G01X267200D02*
Y99600D01*
G01X263700Y102300D02*
X263817Y101900D01*
X264108Y101600D01*
X264458Y101400D01*
X264925Y101250D01*
X265450Y101200D01*
X265975Y101250D01*
X266442Y101400D01*
X266792Y101600D01*
X267083Y101900D01*
X267200Y102300D01*
X267083Y102700D01*
X266792Y103000D01*
X266442Y103200D01*
X265975Y103350D01*
X265450Y103400D01*
X264925Y103350D01*
X264458Y103200D01*
X264108Y103000D01*
X263817Y102700D01*
X263700Y102300D01*
G01X270392Y124100D02*
X270217Y123800D01*
X270100Y123450D01*
Y123050D01*
X270275Y122600D01*
X270567Y122250D01*
X270917Y122000D01*
X271500Y121800D01*
X272025Y121750D01*
X272550Y121850D01*
X272900Y122000D01*
X273250Y122300D01*
X273483Y122650D01*
X273600Y123000D01*
Y123350D01*
X273483Y123700D01*
X273308Y124000D01*
X273075Y124250D01*
G01X270683Y125350D02*
X270333Y125650D01*
X270158Y126000D01*
X270100Y126400D01*
X270217Y126900D01*
X270508Y127250D01*
X270858Y127350D01*
X271208Y127300D01*
X271500Y127100D01*
X272083Y126100D01*
X272492Y125650D01*
X273075Y125350D01*
X273600Y125250D01*
Y127350D01*
G01Y129600D02*
X270100D01*
X270800Y129000D01*
G01X273600D02*
Y130200D01*
G01X263892Y76000D02*
X263717Y75700D01*
X263600Y75350D01*
Y74950D01*
X263775Y74500D01*
X264067Y74150D01*
X264417Y73900D01*
X265000Y73700D01*
X265525Y73650D01*
X266050Y73750D01*
X266400Y73900D01*
X266750Y74200D01*
X266983Y74550D01*
X267100Y74900D01*
Y75250D01*
X266983Y75600D01*
X266808Y75900D01*
X266575Y76150D01*
G01Y77100D02*
X266867Y77400D01*
X267042Y77750D01*
X267100Y78200D01*
X266983Y78650D01*
X266750Y79000D01*
X266342Y79250D01*
X265875Y79300D01*
X265408Y79200D01*
X265117Y78950D01*
X264883Y78600D01*
X264825Y78250D01*
X264883Y77900D01*
X265117Y77450D01*
X263600Y77600D01*
Y78950D01*
G01X222992Y136600D02*
X222817Y136300D01*
X222700Y135950D01*
Y135550D01*
X222875Y135100D01*
X223167Y134750D01*
X223517Y134500D01*
X224100Y134300D01*
X224625Y134250D01*
X225150Y134350D01*
X225500Y134500D01*
X225850Y134800D01*
X226083Y135150D01*
X226200Y135500D01*
Y135850D01*
X226083Y136200D01*
X225908Y136500D01*
X225675Y136750D01*
G01X226200Y138800D02*
X222700D01*
X223400Y138200D01*
G01X226200D02*
Y139400D01*
G01Y142100D02*
X226142Y142450D01*
X225967Y142850D01*
X225675Y143100D01*
X225267Y143200D01*
X224858Y143100D01*
X224508Y142800D01*
X224333Y142350D01*
Y141850D01*
X224217Y141550D01*
X223925Y141300D01*
X223517Y141200D01*
X223108Y141350D01*
X222817Y141700D01*
X222700Y142100D01*
X222817Y142500D01*
X223108Y142850D01*
X223517Y143000D01*
X223925Y142900D01*
X224217Y142650D01*
X224333Y142350D01*
Y141850D01*
X224508Y141400D01*
X224858Y141100D01*
X225267Y141000D01*
X225675Y141100D01*
X225967Y141350D01*
X226142Y141750D01*
X226200Y142100D01*
G01X280500Y123600D02*
X284000D01*
Y125600D01*
G01Y128500D02*
X280500D01*
X283008Y126650D01*
Y129150D01*
G01X221000Y86000D02*
Y89500D01*
X222250D01*
X222650Y89325D01*
X222900Y89092D01*
X223000Y88625D01*
X222900Y88158D01*
X222600Y87867D01*
X222250Y87692D01*
X221000D01*
G01X222250D02*
X223000Y86000D01*
G01X225300D02*
X225650Y86058D01*
X226050Y86233D01*
X226300Y86525D01*
X226400Y86933D01*
X226300Y87342D01*
X226000Y87692D01*
X225550Y87867D01*
X225050D01*
X224750Y87983D01*
X224500Y88275D01*
X224400Y88683D01*
X224550Y89092D01*
X224900Y89383D01*
X225300Y89500D01*
X225700Y89383D01*
X226050Y89092D01*
X226200Y88683D01*
X226100Y88275D01*
X225850Y87983D01*
X225550Y87867D01*
X225050D01*
X224600Y87692D01*
X224300Y87342D01*
X224200Y86933D01*
X224300Y86525D01*
X224550Y86233D01*
X224950Y86058D01*
X225300Y86000D01*
G01X249200Y118700D02*
Y122200D01*
X250450D01*
X250850Y122025D01*
X251100Y121792D01*
X251200Y121325D01*
X251100Y120858D01*
X250800Y120567D01*
X250450Y120392D01*
X249200D01*
G01X250450D02*
X251200Y118700D01*
G01X253500D02*
Y122200D01*
X252900Y121500D01*
G01Y118700D02*
X254100D01*
G01X256800D02*
Y122200D01*
X256200Y121500D01*
G01Y118700D02*
X257400D01*
G01X249600Y90900D02*
Y94400D01*
X250850D01*
X251250Y94225D01*
X251500Y93992D01*
X251600Y93525D01*
X251500Y93058D01*
X251200Y92767D01*
X250850Y92592D01*
X249600D01*
G01X250850D02*
X251600Y90900D01*
G01X253800D02*
X253900Y91658D01*
X254050Y92300D01*
X254250Y92883D01*
X254500Y93525D01*
X254900Y94400D01*
X252900D01*
G01X221000Y90200D02*
Y93700D01*
X222250D01*
X222650Y93525D01*
X222900Y93292D01*
X223000Y92825D01*
X222900Y92358D01*
X222600Y92067D01*
X222250Y91892D01*
X221000D01*
G01X222250D02*
X223000Y90200D01*
G01X224450Y90608D02*
X224800Y90317D01*
X225200Y90200D01*
X225600Y90317D01*
X225950Y90667D01*
X226200Y91192D01*
X226300Y91717D01*
Y92358D01*
X226200Y92883D01*
X225950Y93350D01*
X225650Y93583D01*
X225300Y93700D01*
X224900Y93583D01*
X224600Y93350D01*
X224400Y93000D01*
X224300Y92533D01*
X224400Y92125D01*
X224650Y91717D01*
X224950Y91483D01*
X225300Y91425D01*
X225700Y91542D01*
X226000Y91833D01*
X226300Y92358D01*
G01X224700Y147800D02*
Y151300D01*
X225950D01*
X226350Y151125D01*
X226600Y150892D01*
X226700Y150425D01*
X226600Y149958D01*
X226300Y149667D01*
X225950Y149492D01*
X224700D01*
G01X225950D02*
X226700Y147800D01*
G01X229000D02*
Y151300D01*
X228400Y150600D01*
G01Y147800D02*
X229600D01*
G01X232900D02*
Y151300D01*
X231050Y148792D01*
X233550D01*
G01X268592Y76000D02*
X268417Y75700D01*
X268300Y75350D01*
Y74950D01*
X268475Y74500D01*
X268767Y74150D01*
X269117Y73900D01*
X269700Y73700D01*
X270225Y73650D01*
X270750Y73750D01*
X271100Y73900D01*
X271450Y74200D01*
X271683Y74550D01*
X271800Y74900D01*
Y75250D01*
X271683Y75600D01*
X271508Y75900D01*
X271275Y76150D01*
G01X270342Y77250D02*
X269933Y77600D01*
X269700Y77900D01*
X269583Y78300D01*
X269700Y78650D01*
X269933Y78900D01*
X270283Y79100D01*
X270692Y79150D01*
X271042Y79100D01*
X271392Y78900D01*
X271683Y78600D01*
X271800Y78250D01*
X271683Y77850D01*
X271333Y77500D01*
X270808Y77300D01*
X270225Y77250D01*
X269467Y77350D01*
X269058Y77500D01*
X268650Y77750D01*
X268358Y78100D01*
X268300Y78450D01*
X268417Y78800D01*
X268708Y79050D01*
G01X232092Y136500D02*
X231917Y136200D01*
X231800Y135850D01*
Y135450D01*
X231975Y135000D01*
X232267Y134650D01*
X232617Y134400D01*
X233200Y134200D01*
X233725Y134150D01*
X234250Y134250D01*
X234600Y134400D01*
X234950Y134700D01*
X235183Y135050D01*
X235300Y135400D01*
Y135750D01*
X235183Y136100D01*
X235008Y136400D01*
X234775Y136650D01*
G01X232383Y137750D02*
X232033Y138050D01*
X231858Y138400D01*
X231800Y138800D01*
X231917Y139300D01*
X232208Y139650D01*
X232558Y139750D01*
X232908Y139700D01*
X233200Y139500D01*
X233783Y138500D01*
X234192Y138050D01*
X234775Y137750D01*
X235300Y137650D01*
Y139750D01*
G01X231800Y142000D02*
X231917Y141600D01*
X232208Y141300D01*
X232558Y141100D01*
X233025Y140950D01*
X233550Y140900D01*
X234075Y140950D01*
X234542Y141100D01*
X234892Y141300D01*
X235183Y141600D01*
X235300Y142000D01*
X235183Y142400D01*
X234892Y142700D01*
X234542Y142900D01*
X234075Y143050D01*
X233550Y143100D01*
X233025Y143050D01*
X232558Y142900D01*
X232208Y142700D01*
X231917Y142400D01*
X231800Y142000D01*
G01X227592Y136600D02*
X227417Y136300D01*
X227300Y135950D01*
Y135550D01*
X227475Y135100D01*
X227767Y134750D01*
X228117Y134500D01*
X228700Y134300D01*
X229225Y134250D01*
X229750Y134350D01*
X230100Y134500D01*
X230450Y134800D01*
X230683Y135150D01*
X230800Y135500D01*
Y135850D01*
X230683Y136200D01*
X230508Y136500D01*
X230275Y136750D01*
G01X230800Y138800D02*
X227300D01*
X228000Y138200D01*
G01X230800D02*
Y139400D01*
G01X230392Y141250D02*
X230683Y141600D01*
X230800Y142000D01*
X230683Y142400D01*
X230333Y142750D01*
X229808Y143000D01*
X229283Y143100D01*
X228642D01*
X228117Y143000D01*
X227650Y142750D01*
X227417Y142450D01*
X227300Y142100D01*
X227417Y141700D01*
X227650Y141400D01*
X228000Y141200D01*
X228467Y141100D01*
X228875Y141200D01*
X229283Y141450D01*
X229517Y141750D01*
X229575Y142100D01*
X229458Y142500D01*
X229167Y142800D01*
X228642Y143100D01*
G01X275592Y123900D02*
X275417Y123600D01*
X275300Y123250D01*
Y122850D01*
X275475Y122400D01*
X275767Y122050D01*
X276117Y121800D01*
X276700Y121600D01*
X277225Y121550D01*
X277750Y121650D01*
X278100Y121800D01*
X278450Y122100D01*
X278683Y122450D01*
X278800Y122800D01*
Y123150D01*
X278683Y123500D01*
X278508Y123800D01*
X278275Y124050D01*
G01X278800Y126100D02*
X275300D01*
X276000Y125500D01*
G01X278800D02*
Y126700D01*
G01Y129300D02*
X278042Y129400D01*
X277400Y129550D01*
X276817Y129750D01*
X276175Y130000D01*
X275300Y130400D01*
Y128400D01*
G01X268692Y96800D02*
X268517Y96500D01*
X268400Y96150D01*
Y95750D01*
X268575Y95300D01*
X268867Y94950D01*
X269217Y94700D01*
X269800Y94500D01*
X270325Y94450D01*
X270850Y94550D01*
X271200Y94700D01*
X271550Y95000D01*
X271783Y95350D01*
X271900Y95700D01*
Y96050D01*
X271783Y96400D01*
X271608Y96700D01*
X271375Y96950D01*
G01X271900Y99000D02*
X268400D01*
X269100Y98400D01*
G01X271900D02*
Y99600D01*
G01X271375Y101200D02*
X271667Y101500D01*
X271842Y101850D01*
X271900Y102300D01*
X271783Y102750D01*
X271550Y103100D01*
X271142Y103350D01*
X270675Y103400D01*
X270208Y103300D01*
X269917Y103050D01*
X269683Y102700D01*
X269625Y102350D01*
X269683Y102000D01*
X269917Y101550D01*
X268400Y101700D01*
Y103050D01*
G01X230100Y110508D02*
X229800Y110683D01*
X229450Y110800D01*
X229050D01*
X228600Y110625D01*
X228250Y110333D01*
X228000Y109983D01*
X227800Y109400D01*
X227750Y108875D01*
X227850Y108350D01*
X228000Y108000D01*
X228300Y107650D01*
X228650Y107417D01*
X229000Y107300D01*
X229350D01*
X229700Y107417D01*
X230000Y107592D01*
X230250Y107825D01*
G01X232300Y107300D02*
Y110800D01*
X231700Y110100D01*
G01Y107300D02*
X232900D01*
G01X236200D02*
Y110800D01*
X234350Y108292D01*
X236850D01*
G01X224660Y152205D02*
Y155705D01*
X225910D01*
X226310Y155530D01*
X226560Y155297D01*
X226660Y154830D01*
X226560Y154363D01*
X226260Y154072D01*
X225910Y153897D01*
X224660D01*
G01X225910D02*
X226660Y152205D01*
G01X228960D02*
Y155705D01*
X228360Y155005D01*
G01Y152205D02*
X229560D01*
G01X231160Y152730D02*
X231460Y152438D01*
X231810Y152263D01*
X232260Y152205D01*
X232710Y152322D01*
X233060Y152555D01*
X233310Y152963D01*
X233360Y153430D01*
X233260Y153897D01*
X233010Y154188D01*
X232660Y154422D01*
X232310Y154480D01*
X231960Y154422D01*
X231510Y154188D01*
X231660Y155705D01*
X233010D01*
G01X224660Y156543D02*
Y160043D01*
X225910D01*
X226310Y159868D01*
X226560Y159635D01*
X226660Y159168D01*
X226560Y158701D01*
X226260Y158410D01*
X225910Y158235D01*
X224660D01*
G01X225910D02*
X226660Y156543D01*
G01X228960D02*
Y160043D01*
X228360Y159343D01*
G01Y156543D02*
X229560D01*
G01X231310Y158001D02*
X231660Y158410D01*
X231960Y158643D01*
X232360Y158760D01*
X232710Y158643D01*
X232960Y158410D01*
X233160Y158060D01*
X233210Y157651D01*
X233160Y157301D01*
X232960Y156951D01*
X232660Y156660D01*
X232310Y156543D01*
X231910Y156660D01*
X231560Y157010D01*
X231360Y157535D01*
X231310Y158118D01*
X231410Y158876D01*
X231560Y159285D01*
X231810Y159693D01*
X232160Y159985D01*
X232510Y160043D01*
X232860Y159926D01*
X233110Y159635D01*
G01X224660Y160781D02*
Y164281D01*
X225910D01*
X226310Y164106D01*
X226560Y163873D01*
X226660Y163406D01*
X226560Y162939D01*
X226260Y162648D01*
X225910Y162473D01*
X224660D01*
G01X225910D02*
X226660Y160781D01*
G01X228960D02*
Y164281D01*
X228360Y163581D01*
G01Y160781D02*
X229560D01*
G01X232160D02*
X232260Y161539D01*
X232410Y162181D01*
X232610Y162764D01*
X232860Y163406D01*
X233260Y164281D01*
X231260D01*
G01X224600Y165300D02*
Y168800D01*
X225850D01*
X226250Y168625D01*
X226500Y168392D01*
X226600Y167925D01*
X226500Y167458D01*
X226200Y167167D01*
X225850Y166992D01*
X224600D01*
G01X225850D02*
X226600Y165300D01*
G01X228900D02*
Y168800D01*
X228300Y168100D01*
G01Y165300D02*
X229500D01*
G01X232200D02*
X232550Y165358D01*
X232950Y165533D01*
X233200Y165825D01*
X233300Y166233D01*
X233200Y166642D01*
X232900Y166992D01*
X232450Y167167D01*
X231950D01*
X231650Y167283D01*
X231400Y167575D01*
X231300Y167983D01*
X231450Y168392D01*
X231800Y168683D01*
X232200Y168800D01*
X232600Y168683D01*
X232950Y168392D01*
X233100Y167983D01*
X233000Y167575D01*
X232750Y167283D01*
X232450Y167167D01*
X231950D01*
X231500Y166992D01*
X231200Y166642D01*
X231100Y166233D01*
X231200Y165825D01*
X231450Y165533D01*
X231850Y165358D01*
X232200Y165300D01*
G54D11*
G01X50997Y22728D02*
Y52255D01*
G01X112020Y12885D02*
Y1468D01*
X50997D01*
Y12885D01*
G01X35987Y112360D02*
Y99427D01*
X39136Y94643D01*
Y84171D01*
X35987Y79387D01*
Y66454D01*
X6065D01*
Y79387D01*
X2916Y84171D01*
Y94643D01*
X6065Y99427D01*
Y112360D01*
X35987D01*
G01X37223Y21954D02*
Y25891D01*
X38010Y26679D01*
X41160D01*
X41947Y25891D01*
Y21954D01*
G01Y19592D02*
Y15261D01*
X37223D01*
Y19592D01*
G01X37674Y31086D02*
Y33842D01*
X41612D01*
Y31086D01*
G01X37674Y29512D02*
Y26756D01*
X41612D01*
Y29512D01*
G01X61627Y66169D02*
Y63413D01*
X57689D01*
Y66169D01*
G01X61627Y67743D02*
Y70499D01*
X57689D01*
Y67743D01*
G01X57296Y66169D02*
Y63413D01*
X53358D01*
Y66169D01*
G01X57296Y67743D02*
Y70499D01*
X53358D01*
Y67743D01*
G01X39136Y89407D02*
X30475D01*
X24963Y85470D01*
X17089D01*
X11577Y89407D01*
X2916D01*
G01X29751Y114210D02*
G03I-1245J0D01*
G01X29294D02*
G03I-788J0D01*
G01X54440Y126633D02*
X57196D01*
Y122695D01*
X54440D01*
G01X52866Y126633D02*
X50110D01*
Y122695D01*
X52866D01*
G01X54440Y130571D02*
X57196D01*
Y126633D01*
X54440D01*
G01X52866Y130571D02*
X50110D01*
Y126633D01*
X52866D01*
G01X16125Y114521D02*
X13369D01*
Y118459D01*
X16125D01*
G01X17699Y114521D02*
X20455D01*
Y118459D01*
X17699D01*
G01X57409Y130666D02*
X62527D01*
Y136966D01*
X57409D01*
G01X55047D02*
X49929D01*
Y130666D01*
X55047D01*
G01X51300Y79374D02*
X54056D01*
Y75436D01*
X51300D01*
G01X49726Y79374D02*
X46970D01*
Y75436D01*
X49726D01*
G01X74913Y92927D02*
Y108675D01*
X59165D01*
Y92927D01*
X74913D01*
G01X45872Y81510D02*
G03I-880J0D01*
G01X46567Y105525D02*
G02Y96077I0J-4724D01*
G01Y105525D02*
Y121273D01*
X87511D01*
Y80329D01*
X46567D01*
Y96077D01*
G01X140157Y54480D02*
Y56843D01*
X142520D01*
G01Y37157D02*
X140157D01*
Y39520D01*
G01X112020Y22728D02*
Y58555D01*
G01X92335D02*
X105327D01*
G01X93910Y60129D02*
G03I-394J0D01*
G01X143307Y20587D02*
X133071D01*
Y2161D01*
X166929D01*
Y20587D01*
X156693D01*
G01X133945Y27504D02*
Y24748D01*
X130007D01*
Y27504D01*
G01X133945Y29078D02*
Y31834D01*
X130007D01*
Y29078D01*
G01X137883Y27504D02*
Y24748D01*
X133945D01*
Y27504D01*
G01X137883Y29078D02*
Y31834D01*
X133945D01*
Y29078D01*
G01X123707Y29866D02*
Y24748D01*
X130007D01*
Y29866D01*
G01Y32228D02*
Y37346D01*
X123707D01*
Y32228D01*
G01X137883Y29078D02*
Y31834D01*
X141821D01*
Y29078D01*
G01X137883Y27504D02*
Y24748D01*
X141821D01*
Y27504D01*
G01X131596Y45756D02*
X128840D01*
Y49694D01*
X131596D01*
G01X133170Y45756D02*
X135926D01*
Y49694D01*
X133170D01*
G01X131596Y41818D02*
X128840D01*
Y45756D01*
X131596D01*
G01X133170Y41818D02*
X135926D01*
Y45756D01*
X133170D01*
G01X74619Y66169D02*
Y63413D01*
X70681D01*
Y66169D01*
G01X74619Y67743D02*
Y70499D01*
X70681D01*
Y67743D01*
G01X91942Y66169D02*
Y63413D01*
X88004D01*
Y66169D01*
G01X91942Y67743D02*
Y70499D01*
X88004D01*
Y67743D01*
G01X87611Y66169D02*
Y63413D01*
X83673D01*
Y66169D01*
G01X87611Y67743D02*
Y70499D01*
X83673D01*
Y67743D01*
G01X83281Y66169D02*
Y63413D01*
X79343D01*
Y66169D01*
G01X83281Y67743D02*
Y70499D01*
X79343D01*
Y67743D01*
G01X65958Y66169D02*
Y63413D01*
X62020D01*
Y66169D01*
G01X65958Y67743D02*
Y70499D01*
X62020D01*
Y67743D01*
G01X101618Y68389D02*
X105949D01*
Y63665D01*
X101618D01*
G01X99256Y68389D02*
X94925D01*
Y63665D01*
X99256D01*
G01X107874Y111811D02*
X111811Y107874D01*
G01X114567D02*
X107874D01*
Y114567D01*
G01X100244Y110429D02*
X103000D01*
Y106491D01*
X100244D01*
G01X98670Y110429D02*
X95914D01*
Y106491D01*
X98670D01*
G01X124802Y100244D02*
Y103000D01*
X128740D01*
Y100244D01*
G01X124802Y98670D02*
Y95914D01*
X128740D01*
Y98670D01*
G01X98670Y134102D02*
X95914D01*
Y138040D01*
X98670D01*
G01X100244Y134102D02*
X103000D01*
Y138040D01*
X100244D01*
G01X132678Y98670D02*
Y95914D01*
X128740D01*
Y98670D01*
G01X132678Y100244D02*
Y103000D01*
X128740D01*
Y100244D01*
G01X98670Y110429D02*
X95914D01*
Y114367D01*
X98670D01*
G01X100244Y110429D02*
X103000D01*
Y114367D01*
X100244D01*
G01X99255Y72327D02*
X102011D01*
Y68389D01*
X99255D01*
G01X97681Y72327D02*
X94925D01*
Y68389D01*
X97681D01*
G01X76440Y126653D02*
X79196D01*
Y122715D01*
X76440D01*
G01X74866Y126653D02*
X72110D01*
Y122715D01*
X74866D01*
G01X100244Y134102D02*
X103000D01*
Y130164D01*
X100244D01*
G01X98670Y134102D02*
X95914D01*
Y130164D01*
X98670D01*
G01X100244Y146851D02*
X103000D01*
Y142913D01*
X100244D01*
G01X98670Y146851D02*
X95914D01*
Y142913D01*
X98670D01*
G01X102405Y72327D02*
X107523D01*
Y78627D01*
X102405D01*
G01X100043D02*
X94925D01*
Y72327D01*
X100043D01*
G01X76440Y130591D02*
X79196D01*
Y126653D01*
X76440D01*
G01X74866Y130591D02*
X72110D01*
Y126653D01*
X74866D01*
G01X114567Y192126D02*
X107874D01*
Y185827D01*
G01X98670Y146851D02*
X95914D01*
Y150789D01*
X98670D01*
G01X100244Y146851D02*
X103000D01*
Y150789D01*
X100244D01*
G01X98670Y161024D02*
X95914D01*
Y164962D01*
X98670D01*
G01X100244Y161024D02*
X103000D01*
Y164962D01*
X100244D01*
G01X98670Y180346D02*
X95914D01*
Y184284D01*
X98670D01*
G01X100244Y180346D02*
X103000D01*
Y184284D01*
X100244D01*
G01X119441Y201330D02*
Y204086D01*
X123379D01*
Y201330D01*
G01X119441Y199756D02*
Y197000D01*
X123379D01*
Y199756D01*
G01Y201330D02*
Y204086D01*
X127317D01*
Y201330D01*
G01X123379Y199756D02*
Y197000D01*
X127317D01*
Y199756D01*
G01X100244Y180346D02*
X103000D01*
Y176408D01*
X100244D01*
G01X98670Y180346D02*
X95914D01*
Y176408D01*
X98670D01*
G01X100244Y161024D02*
X103000D01*
Y157086D01*
X100244D01*
G01X98670Y161024D02*
X95914D01*
Y157086D01*
X98670D01*
G01X159843Y39520D02*
Y37157D01*
X157480D01*
G01Y56843D02*
X159843D01*
Y54480D01*
G01X142519Y35583D02*
G03I-393J0D01*
G01X142913Y22161D02*
G03I-393J0D01*
G01X212989Y20468D02*
G03I-394J0D01*
G01X212201Y44090D02*
X239761D01*
Y22042D01*
X212201D01*
Y44090D01*
G01X190729Y21051D02*
X186791D01*
Y22233D01*
X190729D01*
Y21051D01*
G01X155875Y27504D02*
Y24748D01*
X151937D01*
Y27504D01*
G01X155875Y29078D02*
Y31834D01*
X151937D01*
Y29078D01*
G01X201029Y19363D02*
X203785D01*
Y15425D01*
X201029D01*
G01X199455Y19363D02*
X196699D01*
Y15425D01*
X199455D01*
G01X191172Y46603D02*
X188416D01*
Y50541D01*
X191172D01*
G01X192746Y46603D02*
X195502D01*
Y50541D01*
X192746D01*
G01X191172D02*
X188416D01*
Y54479D01*
X191172D01*
G01X192746Y50541D02*
X195502D01*
Y54479D01*
X192746D01*
G01X167569Y30855D02*
G03I-394J0D01*
G01X170718Y34005D02*
X177018D01*
G01X175837Y35580D02*
Y32430D01*
G01X171899Y35580D02*
Y32430D01*
X175837Y34005D01*
X171899Y35580D01*
G01X179183Y37056D02*
X168553D01*
G01Y30954D02*
X179183D01*
G01X190384Y30855D02*
X195502D01*
Y37155D01*
X190384D01*
G01X188022D02*
X182904D01*
Y30855D01*
X188022D01*
G01X179517Y19363D02*
X182273D01*
Y15425D01*
X179517D01*
G01X177943Y19363D02*
X175187D01*
Y15425D01*
X177943D01*
G01X201029Y23301D02*
X203785D01*
Y19363D01*
X201029D01*
G01X199455Y23301D02*
X196699D01*
Y19363D01*
X199455D01*
G01X141821Y29078D02*
Y31834D01*
X145759D01*
Y29078D01*
G01X141821Y27504D02*
Y24748D01*
X145759D01*
Y27504D01*
G01X179517Y23301D02*
X182273D01*
Y19363D01*
X179517D01*
G01X177943Y23301D02*
X175187D01*
Y19363D01*
X177943D01*
G01X218074Y10239D02*
Y12995D01*
X222012D01*
Y10239D01*
G01X218074Y8665D02*
Y5909D01*
X222012D01*
Y8665D01*
G01X218013Y57467D02*
Y60223D01*
X221951D01*
Y57467D01*
G01X218013Y55893D02*
Y53137D01*
X221951D01*
Y55893D01*
G01X166078Y41094D02*
X163322D01*
Y45032D01*
X166078D01*
G01X167652Y41094D02*
X170408D01*
Y45032D01*
X167652D01*
G01X187241Y8769D02*
X191965D01*
Y4045D01*
X187241D01*
Y8769D01*
G01X198264Y1683D02*
Y108D01*
X180942D01*
Y1683D01*
G01Y11131D02*
Y12706D01*
X198264D01*
Y11131D01*
G01X188809Y41879D02*
X184478D01*
Y46603D01*
X188809D01*
G01X191171Y41879D02*
X195502D01*
Y46603D01*
X191171D01*
G01X188809Y37155D02*
X184478D01*
Y41879D01*
X188809D01*
G01X191171Y37155D02*
X195502D01*
Y41879D01*
X191171D01*
G01X185433Y107874D02*
X192126D01*
Y114567D01*
G01X140625Y100244D02*
Y103000D01*
X144563D01*
Y100244D01*
G01X140625Y98670D02*
Y95914D01*
X144563D01*
Y98670D01*
G01X154724Y100244D02*
Y103000D01*
X158662D01*
Y100244D01*
G01X154724Y98670D02*
Y95914D01*
X158662D01*
Y98670D01*
G01X201330Y127229D02*
X204086D01*
Y123291D01*
X201330D01*
G01X199756Y127229D02*
X197000D01*
Y123291D01*
X199756D01*
G01Y135039D02*
X197000D01*
Y138977D01*
X199756D01*
G01X201330Y135039D02*
X204086D01*
Y138977D01*
X201330D01*
G01X148501Y98670D02*
Y95914D01*
X144563D01*
Y98670D01*
G01X148501Y100244D02*
Y103000D01*
X144563D01*
Y100244D01*
G01X162600Y98670D02*
Y95914D01*
X158662D01*
Y98670D01*
G01X162600Y100244D02*
Y103000D01*
X158662D01*
Y100244D01*
G01X176623Y98670D02*
Y95914D01*
X172685D01*
Y98670D01*
G01X176623Y100244D02*
Y103000D01*
X172685D01*
Y100244D01*
G01X201330Y131167D02*
X204086D01*
Y127229D01*
X201330D01*
G01X199756Y131167D02*
X197000D01*
Y127229D01*
X199756D01*
G01X201330Y142915D02*
X204086D01*
Y138977D01*
X201330D01*
G01X199756Y142915D02*
X197000D01*
Y138977D01*
X199756D01*
G01X168747Y100244D02*
Y103000D01*
X172685D01*
Y100244D01*
G01X168747Y98670D02*
Y95914D01*
X172685D01*
Y98670D01*
G01X222396Y77922D02*
Y75166D01*
X218458D01*
Y77922D01*
G01X222396Y79496D02*
Y82252D01*
X218458D01*
Y79496D01*
G01X222396Y128627D02*
Y125871D01*
X218458D01*
Y128627D01*
G01X222396Y130201D02*
Y132957D01*
X218458D01*
Y130201D01*
G01X222396Y100775D02*
Y98019D01*
X218458D01*
Y100775D01*
G01X222396Y102349D02*
Y105105D01*
X218458D01*
Y102349D01*
G01X199419Y96250D02*
X194301D01*
Y89950D01*
X199419D01*
G01X201781D02*
X206899D01*
Y96250D01*
X201781D01*
G01X199419Y102550D02*
X194301D01*
Y96250D01*
X199419D01*
G01X201781D02*
X206899D01*
Y102550D01*
X201781D01*
G01X185433Y192126D02*
X192126D01*
Y185827D01*
G01X199756Y147636D02*
X197000D01*
Y151574D01*
X199756D01*
G01X201330Y147636D02*
X204086D01*
Y151574D01*
X201330D01*
G01Y168112D02*
X204086D01*
Y164174D01*
X201330D01*
G01X199756Y168112D02*
X197000D01*
Y164174D01*
X199756D01*
G01X201330Y155512D02*
X204086D01*
Y151574D01*
X201330D01*
G01X199756Y155512D02*
X197000D01*
Y151574D01*
X199756D01*
G01X153501Y201330D02*
Y204086D01*
X157439D01*
Y201330D01*
G01X153501Y199756D02*
Y197000D01*
X157439D01*
Y199756D01*
G01X144338Y201330D02*
Y204086D01*
X148276D01*
Y201330D01*
G01X144338Y199756D02*
Y197000D01*
X148276D01*
Y199756D01*
G01X199756Y160236D02*
X197000D01*
Y164174D01*
X199756D01*
G01X201330Y160236D02*
X204086D01*
Y164174D01*
X201330D01*
G01X148276Y201330D02*
Y204086D01*
X152214D01*
Y201330D01*
G01X148276Y199756D02*
Y197000D01*
X152214D01*
Y199756D01*
G01X157439Y201330D02*
Y204086D01*
X161377D01*
Y201330D01*
G01X157439Y199756D02*
Y197000D01*
X161377D01*
Y199756D01*
G01Y201330D02*
Y204086D01*
X165315D01*
Y201330D01*
G01X161377Y199756D02*
Y197000D01*
X165315D01*
Y199756D01*
G01Y201330D02*
Y204086D01*
X169253D01*
Y201330D01*
G01X165315Y199756D02*
Y197000D01*
X169253D01*
Y199756D01*
G01Y201330D02*
Y204086D01*
X173191D01*
Y201330D01*
G01X169253Y199756D02*
Y197000D01*
X173191D01*
Y199756D01*
G01Y201330D02*
Y204086D01*
X177129D01*
Y201330D01*
G01X173191Y199756D02*
Y197000D01*
X177129D01*
Y199756D01*
G01X201330Y179748D02*
X204086D01*
Y175810D01*
X201330D01*
G01X199756Y179748D02*
X197000D01*
Y175810D01*
X199756D01*
G01X201330Y183686D02*
X204086D01*
Y179748D01*
X201330D01*
G01X199756Y183686D02*
X197000D01*
Y179748D01*
X199756D01*
G01X183429Y204480D02*
Y209598D01*
X177129D01*
Y204480D01*
G01Y202118D02*
Y197000D01*
X183429D01*
Y202118D01*
G01X204480Y183686D02*
X209598D01*
Y189986D01*
X204480D01*
G01X202118D02*
X197000D01*
Y183686D01*
X202118D01*
G01X204480Y169510D02*
X209598D01*
Y175810D01*
X204480D01*
G01X202118D02*
X197000D01*
Y169510D01*
X202118D01*
G01X218436Y152436D02*
X215680D01*
Y148498D01*
X218436D01*
G01Y156374D02*
X215680D01*
Y152436D01*
X218436D01*
G01Y160312D02*
X215680D01*
Y156374D01*
X218436D01*
G01Y164250D02*
X215680D01*
Y160312D01*
X218436D01*
G01Y168188D02*
X215680D01*
Y164250D01*
X218436D01*
G01X243469Y20074D02*
G03I-394J0D01*
G01X242681Y44090D02*
X280477D01*
Y22042D01*
X242681D01*
Y44090D01*
G01X233028Y67289D02*
X235784D01*
Y63351D01*
X233028D01*
G01X231454Y67289D02*
X228698D01*
Y63351D01*
X231454D01*
G01X243656Y67998D02*
X240900D01*
Y71936D01*
X243656D01*
G01X245230Y67998D02*
X247986D01*
Y71936D01*
X245230D01*
G01X231454Y67289D02*
X228698D01*
Y71227D01*
X231454D01*
G01X233028Y67289D02*
X235784D01*
Y71227D01*
X233028D01*
G01X225950Y10239D02*
Y12995D01*
X229888D01*
Y10239D01*
G01X225950Y8665D02*
Y5909D01*
X229888D01*
Y8665D01*
G01X222012Y10239D02*
Y12995D01*
X225950D01*
Y10239D01*
G01X222012Y8665D02*
Y5909D01*
X225950D01*
Y8665D01*
G01X229888Y10239D02*
Y12995D01*
X233826D01*
Y10239D01*
G01X229888Y8665D02*
Y5909D01*
X233826D01*
Y8665D01*
G01X253774Y10239D02*
Y12995D01*
X257712D01*
Y10239D01*
G01X253774Y8665D02*
Y5909D01*
X257712D01*
Y8665D01*
G01Y10239D02*
Y12995D01*
X261650D01*
Y10239D01*
G01X257712Y8665D02*
Y5909D01*
X261650D01*
Y8665D01*
G01Y10239D02*
Y12995D01*
X265588D01*
Y10239D01*
G01X261650Y8665D02*
Y5909D01*
X265588D01*
Y8665D01*
G01Y10239D02*
Y12995D01*
X269526D01*
Y10239D01*
G01X265588Y8665D02*
Y5909D01*
X269526D01*
Y8665D01*
G01Y10239D02*
Y12995D01*
X273464D01*
Y10239D01*
G01X269526Y8665D02*
Y5909D01*
X273464D01*
Y8665D01*
G01X221951Y57467D02*
Y60223D01*
X225889D01*
Y57467D01*
G01X221951Y55893D02*
Y53137D01*
X225889D01*
Y55893D01*
G01X229827Y57467D02*
Y60223D01*
X233765D01*
Y57467D01*
G01X229827Y55893D02*
Y53137D01*
X233765D01*
Y55893D01*
G01X225889Y57467D02*
Y60223D01*
X229827D01*
Y57467D01*
G01X225889Y55893D02*
Y53137D01*
X229827D01*
Y55893D01*
G01X253944Y57467D02*
Y60223D01*
X257882D01*
Y57467D01*
G01X253944Y55893D02*
Y53137D01*
X257882D01*
Y55893D01*
G01Y57467D02*
Y60223D01*
X261820D01*
Y57467D01*
G01X257882Y55893D02*
Y53137D01*
X261820D01*
Y55893D01*
G01Y57467D02*
Y60223D01*
X265758D01*
Y57467D01*
G01X261820Y55893D02*
Y53137D01*
X265758D01*
Y55893D01*
G01Y57467D02*
Y60223D01*
X269696D01*
Y57467D01*
G01X265758Y55893D02*
Y53137D01*
X269696D01*
Y55893D01*
G01Y57467D02*
Y60223D01*
X273634D01*
Y57467D01*
G01X269696Y55893D02*
Y53137D01*
X273634D01*
Y55893D01*
G01X237836Y83925D02*
G03I-394J0D01*
G01X250435Y72507D02*
X238623D01*
G01X250435Y84319D02*
X238623D01*
G01X237836Y134630D02*
G03I-394J0D01*
G01X250435Y123212D02*
X238623D01*
G01X250435Y135024D02*
X238623D01*
G01X237836Y106778D02*
G03I-394J0D01*
G01X250435Y95360D02*
X238623D01*
G01X250435Y107172D02*
X238623D01*
G01X257607Y100145D02*
Y97389D01*
X253669D01*
Y100145D01*
G01X257607Y101719D02*
Y104475D01*
X253669D01*
Y101719D01*
G01X257607Y127997D02*
Y125241D01*
X253669D01*
Y127997D01*
G01X257607Y129571D02*
Y132327D01*
X253669D01*
Y129571D01*
G01X257607Y77292D02*
Y74536D01*
X253669D01*
Y77292D01*
G01X257607Y78866D02*
Y81622D01*
X253669D01*
Y78866D01*
G01X226334Y100775D02*
Y98019D01*
X222396D01*
Y100775D01*
G01X226334Y102349D02*
Y105105D01*
X222396D01*
Y102349D01*
G01X226334Y128627D02*
Y125871D01*
X222396D01*
Y128627D01*
G01X226334Y130201D02*
Y132957D01*
X222396D01*
Y130201D01*
G01X226334Y77922D02*
Y75166D01*
X222396D01*
Y77922D01*
G01X226334Y79496D02*
Y82252D01*
X222396D01*
Y79496D01*
G01X268631Y127209D02*
Y132327D01*
X262331D01*
Y127209D01*
G01Y124847D02*
Y119729D01*
X268631D01*
Y124847D01*
G01X233031Y90123D02*
X235787D01*
Y86185D01*
X233031D01*
G01X231457Y90123D02*
X228701D01*
Y86185D01*
X231457D01*
G01X232994Y117903D02*
X235750D01*
Y113965D01*
X232994D01*
G01X231420Y117903D02*
X228664D01*
Y113965D01*
X231420D01*
G01X243803Y118702D02*
X241047D01*
Y122640D01*
X243803D01*
G01X245377Y118702D02*
X248133D01*
Y122640D01*
X245377D01*
G01X243669Y90853D02*
X240913D01*
Y94791D01*
X243669D01*
G01X245243Y90853D02*
X247999D01*
Y94791D01*
X245243D01*
G01X231420Y117903D02*
X228664D01*
Y121841D01*
X231420D01*
G01X232994Y117903D02*
X235750D01*
Y121841D01*
X232994D01*
G01X231457Y90123D02*
X228701D01*
Y94061D01*
X231457D01*
G01X233031Y90123D02*
X235787D01*
Y94061D01*
X233031D01*
G01X262331Y74929D02*
Y70598D01*
X257607D01*
Y74929D01*
G01X262331Y77291D02*
Y81622D01*
X257607D01*
Y77291D01*
G01X235782Y75559D02*
Y71228D01*
X231058D01*
Y75559D01*
G01X235782Y77921D02*
Y82252D01*
X231058D01*
Y77921D01*
G01Y75559D02*
Y71228D01*
X226334D01*
Y75559D01*
G01X231058Y77921D02*
Y82252D01*
X226334D01*
Y77921D01*
G01X235782Y126264D02*
Y121933D01*
X231058D01*
Y126264D01*
G01X235782Y128626D02*
Y132957D01*
X231058D01*
Y128626D01*
G01Y126264D02*
Y121933D01*
X226334D01*
Y126264D01*
G01X231058Y128626D02*
Y132957D01*
X226334D01*
Y128626D01*
G01X262331Y125634D02*
Y121303D01*
X257607D01*
Y125634D01*
G01X262331Y127996D02*
Y132327D01*
X257607D01*
Y127996D01*
G01X262331Y97782D02*
Y93451D01*
X257607D01*
Y97782D01*
G01X262331Y100144D02*
Y104475D01*
X257607D01*
Y100144D01*
G01X235782Y98412D02*
Y94081D01*
X231058D01*
Y98412D01*
G01X235782Y100774D02*
Y105105D01*
X231058D01*
Y100774D01*
G01Y98412D02*
Y94081D01*
X226334D01*
Y98412D01*
G01X231058Y100774D02*
Y105105D01*
X226334D01*
Y100774D01*
G01X220010Y152436D02*
X222766D01*
Y148498D01*
X220010D01*
G01Y156374D02*
X222766D01*
Y152436D01*
X220010D01*
G01Y160312D02*
X222766D01*
Y156374D01*
X220010D01*
G01Y164250D02*
X222766D01*
Y160312D01*
X220010D01*
G01Y168188D02*
X222766D01*
Y164250D01*
X220010D01*
M02*
