M48
INCH,LZ
T01C.008
T02C.01969
T03C.03937
T04C.04331
T05C.06693
;LEADER: 12 
;HEADER: 
;CODE  : ASCII 
;FILE  : ysyx3_pcb-1-4.drl for board #Taaaacq14140.tmp ... layers TOP and BOTTOM
;T01 Holesize 1. = 8.000000 Tolerance = +0.000000/-0.000000 PLATED MILS Quantity = 403
;T02 Holesize 2. = 19.690000 Tolerance = +0.000000/-0.000000 PLATED MILS Quantity = 2
;T03 Holesize 3. = 39.370000 Tolerance = +0.000000/-0.000000 PLATED MILS Quantity = 4
;T04 Holesize 4. = 43.310000 Tolerance = +0.000000/-0.000000 PLATED MILS Quantity = 3
;T05 Holesize 5. = 66.930000 Tolerance = +0.000000/-0.000000 PLATED MILS Quantity = 1
%
G90
T01
X003958Y001494
X004676Y001781
X0051Y001199
X0051Y002362
X005524Y001781
X010844Y001781
X01121Y001257
X01121Y002304
X011576Y001781
X013198Y002437
X013591Y002437
X014768Y002746
X015621Y002668
X017481Y001739
X01949Y000641
X019575Y002133
X019576Y002578
X019836Y001164
X020183Y000641
X020416Y001739
X022004Y000553
X022398Y000553
X022792Y000553
X023186Y000553
X025574Y000553
X025968Y000553
X026362Y000553
X026756Y000553
X02715Y000553
X027408Y004369
X026908Y004369
X026408Y004369
X025908Y004369
X025408Y004369
X02341Y005829
X023348Y004427
X022848Y004427
X022348Y004427
X021848Y004427
X018804Y004782
X018786Y005224
X018416Y004424
X018416Y003952
X018007Y003718
X018007Y003084
X01769Y0034
X017136Y004306
X016767Y003775
X016767Y003026
X016383Y0034
X01637Y003744
X01604Y003417
X015497Y005205
X015497Y004704
X015497Y004204
X015078Y003165
X014997Y005205
X015Y0047
X015Y004233
X014497Y005205
X014497Y004704
X014497Y004204
X014379Y003279
X013985Y003279
X013591Y003279
X013198Y003279
X012686Y00379
X012306Y003435
X011206Y0056
X010879Y005194
X010552Y0056
X008564Y005459
X008131Y005561
X007491Y005454
X0051Y005194
X004773Y0056
X003964Y003422
X002353Y006941
X002853Y006941
X005058Y006562
X005065Y006913
X0051Y006005
X006832Y00632
X007035Y006857
X010239Y007036
X010626Y006603
X010808Y007548
X010879Y006005
X016465Y00887
X016866Y00887
X017712Y008062
X02033Y00832
X02033Y00882
X02083Y00832
X02083Y00882
X02133Y00832
X02133Y00882
X021998Y00606
X022043Y007479
X022392Y00606
X022436Y007479
X022832Y006926
X024454Y007841
X025564Y007416
X025591Y00606
X025985Y00606
X025997Y007028
X026379Y00606
X026773Y00606
X027166Y00606
X025997Y009256
X025562Y009701
X024453Y010127
X022833Y009209
X022771Y011994
X022405Y009735
X022043Y009764
X019331Y00947
X019331Y009155
X019321Y010085
X019321Y00977
X019016Y00947
X019016Y009155
X019006Y010085
X019006Y00977
X018013Y010386
X017696Y010107
X017696Y009784
X016968Y011251
X016841Y009784
X016581Y011742
X016293Y010107
X016293Y009784
X01621Y011744
X015866Y011251
X015439Y010107
X015439Y009784
X014884Y010107
X014884Y009784
X014606Y011251
X014029Y010107
X014029Y009784
X013301Y010107
X013301Y009784
X012874Y011251
X012447Y010107
X012447Y009784
X011251Y011929
X010107Y01147
X010107Y010616
X009784Y01147
X009784Y010616
X002083Y011649
X001353Y010941
X001299Y011649
X005757Y012466
X005757Y01286
X005953Y013762
X006308Y013382
X007957Y012468
X008015Y012862
X009784Y012983
X009784Y013867
X009784Y014258
X010102Y014258
X010107Y013867
X011275Y013145
X011339Y01468
X012523Y013504
X012523Y013969
X012523Y014435
X012523Y0149
X012751Y013737
X012751Y014202
X012751Y014667
X015744Y012665
X015977Y012437
X01621Y012665
X016442Y012437
X016675Y012665
X016908Y012437
X01714Y012665
X017564Y01465
X017792Y014418
X017792Y014883
X017947Y012949
X017947Y013415
X017947Y01388
X018175Y012716
X018175Y013182
X018175Y014113
X018262Y013647
X018736Y014058
X018753Y012485
X019893Y01315
X019893Y01432
X019896Y012288
X020216Y01315
X020216Y01347
X020216Y014325
X020216Y01473
X020533Y012362
X022043Y012492
X022436Y012492
X024453Y012912
X025564Y012429
X025997Y012041
X027913Y01774
X022314Y016622
X022314Y016228
X022314Y015834
X022314Y01544
X022314Y015047
X02153Y016622
X02153Y016228
X02153Y015834
X02153Y01544
X02153Y015047
X020216Y016845
X020216Y01599
X020216Y015585
X019893Y01599
X018675Y015221
X018628Y016575
X018278Y016498
X018243Y016017
X018243Y015551
X018038Y016249
X018016Y015784
X017792Y015348
X017564Y015116
X016085Y01792
X015619Y01792
X015154Y01792
X014939Y017643
X014547Y01723
X0137Y017583
X012947Y017848
X012022Y017352
X012022Y016886
X01202Y016242
X01202Y015777
X01202Y015311
X011794Y017119
X011792Y01601
X011792Y015544
X011792Y015079
X011755Y016604
X011251Y016339
X010107Y01653
X010107Y015675
X010107Y015112
X009784Y017607
X009784Y01653
X009784Y015675
X009784Y015112
X002087Y01774
X001268Y018776
X002087Y019811
X009784Y018462
X010107Y018462
X011193Y018071
X011911Y019893
X011911Y020216
X012588Y01808
X012765Y019893
X012765Y020216
X012874Y018807
X013398Y018028
X013863Y018028
X014302Y018705
X014551Y018019
X014631Y020446
X014921Y018148
X015024Y020446
X015021Y020686
X015245Y019643
X015387Y018148
X015547Y020446
X015744Y020724
X015852Y018148
X015941Y020446
X016297Y018698
X016317Y018148
X016335Y020446
X016344Y020725
X016586Y018434
X016728Y020446
X017004Y018723
X017122Y020446
X017516Y020446
X021015Y018684
X027913Y019811
X028732Y018776
X027047Y021362
X026811Y021362
X026575Y02241
X026339Y021362
X026102Y021362
X025866Y02241
X025394Y021362
X025158Y02241
X024921Y021362
X024685Y021362
X024449Y02241
X024213Y021362
X02374Y02241
X023268Y02241
X022559Y02241
X02185Y02241
X021614Y021362
X021378Y021362
X021142Y02241
X020906Y021362
X020669Y021362
X020433Y02241
X020197Y021362
X019961Y021362
X019724Y02241
X019252Y02241
X019016Y021362
X01878Y021144
X018543Y02241
X018028Y021108
X010984Y02241
X010748Y021362
X010512Y021362
X010276Y02241
X009567Y02241
X008858Y02241
X00815Y02241
X007441Y021362
X007205Y021362
X006968Y02241
X006732Y021362
X006496Y021362
X00626Y02241
X006024Y021362
X005787Y021362
X005551Y02241
X004843Y02241
X004134Y02241
X003425Y02241
X003189Y02241
X002953Y02241
X002716Y02241
X002835Y025638
X003071Y024591
X003307Y024591
X003543Y025638
X004016Y025638
X004724Y025638
X005433Y025638
X005669Y024591
X005906Y024591
X006142Y025638
X006378Y024591
X006614Y024591
X00685Y025638
X007087Y024591
X007323Y024591
X007559Y025638
X008032Y024591
X008268Y025638
X008504Y024591
X00874Y024591
X008976Y025638
X009685Y025638
X010157Y026648
X010394Y024591
X014646Y024591
X014882Y024591
X015354Y024591
X015591Y024591
X016063Y024591
X016299Y024591
X016531Y025656
X016772Y024591
X018425Y025638
X019134Y025638
X019842Y025638
X020551Y025638
X02126Y025638
X021732Y025638
X022441Y025638
X02315Y025638
X023858Y025638
X024567Y025638
X025276Y025638
X025748Y025638
X026457Y025638
X014173Y028292
X013937Y0283
X013465Y028295
X012958Y028288
X012517Y028299
X012139Y028271
X011748Y028265
X011389Y028231
X01063Y028218
X009921Y028223
X009449Y028217
X009213Y028093
T02
X014213Y001732
X015787Y001732
T03
X005204Y00858
X008204Y00858
X008204Y01158
X005204Y01158
T04
X006206Y001647
X009356Y001647
X02815Y0235
T05
X00185Y0235
M30
