G04 ================== begin FILE IDENTIFICATION RECORD ==================*
G04 Layout Name:  G:/project_development/GitHub/ysyx3-pcb/PCB/ysyx3_pcb.brd*
G04 Film Name:    TOP*
G04 File Format:  Gerber RS274X*
G04 File Origin:  Cadence Allegro 16.6-2015-S066*
G04 Origin Date:  Fri Jan 06 10:04:32 2023*
G04 *
G04 Layer:  VIA CLASS/TOP*
G04 Layer:  PIN/TOP*
G04 Layer:  ETCH/TOP*
G04 Layer:  BOARD GEOMETRY/OUTLINE*
G04 *
G04 Offset:    (0.00 0.00)*
G04 Mirror:    No*
G04 Mode:      Positive*
G04 Rotation:  0*
G04 FullContactRelief:  No*
G04 UndefLineWidth:     6.00*
G04 ================== end FILE IDENTIFICATION RECORD ====================*
%FSLAX55Y55*MOIN*%
%IR0*IPPOS*OFA0.00000B0.00000*MIA0B0*SFA1.00000B1.00000*%
%ADD16C,.018*%
%ADD22C,.02008*%
%ADD14R,.0315X.0315*%
%ADD15R,.02008X.02008*%
%ADD20C,.09055*%
%ADD36C,.03937*%
%ADD10C,.06693*%
%ADD19C,.06299*%
%ADD29R,.00984X.03543*%
%ADD27R,.00787X.05118*%
%ADD21R,.03543X.00984*%
%ADD26R,.05118X.00787*%
%ADD31R,.02992X.05*%
%ADD32R,.02362X.05118*%
%ADD34R,.03543X.0374*%
%ADD18R,.04488X.05*%
%ADD25R,.05X.04488*%
%ADD38R,.02756X.01181*%
%ADD24R,.06417X.03543*%
%ADD13R,.02756X.05118*%
%ADD12R,.03937X.05512*%
%ADD35R,.04331X.07874*%
%ADD33R,.03937X.05118*%
%ADD30R,.01575X.07283*%
%ADD28R,.12795X.12795*%
%ADD23R,.06693X.05118*%
%ADD11R,.04724X.07874*%
%ADD17R,.01969X.05906*%
%ADD37R,.05787X.08661*%
%ADD39C,.01*%
%ADD40C,.02*%
%ADD41C,.032*%
%ADD42C,.015*%
%ADD43C,.036*%
%ADD44C,.028*%
%ADD45C,.006*%
%ADD46C,.008*%
%ADD56C,.03012*%
%ADD52C,.07302*%
%ADD50C,.02804*%
%ADD48R,.138X.04546*%
%ADD49C,.07696*%
%ADD54C,.07879*%
%ADD53C,.10058*%
%ADD55R,.23626X.23626*%
%ADD51R,.03994X.06004*%
%ADD47R,.03957X.04546*%
G75*
%LPD*%
G75*
G36*
G01X4500Y2004D02*
G02X2004Y4500I0J2496D01*
G01Y295500D01*
G02X4500Y297996I2496J0D01*
G01X295500D01*
G02X297996Y295500I0J-2496D01*
G01Y4500D01*
G02X295500Y2004I-2496J0D01*
G01X183510D01*
Y5506D01*
X189559D01*
X197752Y13698D01*
X206766D01*
X208094Y15027D01*
Y19785D01*
X205646Y22234D01*
X203362D01*
Y22838D01*
X197122D01*
Y22834D01*
X195746D01*
G03X194272Y21045I0J-1502D01*
G02X193880Y20568I-393J-77D01*
G01X191408D01*
Y14448D01*
X194774D01*
Y15892D01*
X196431D01*
G02X196714Y15210I0J-400D01*
G01X188813Y7308D01*
X183510D01*
Y10846D01*
X178078D01*
Y11284D01*
X178960Y12166D01*
X182921D01*
X185202Y14448D01*
X187292D01*
Y20568D01*
X183928D01*
Y15722D01*
X182175Y13970D01*
X178214D01*
X176274Y12030D01*
Y6635D01*
X177404Y5506D01*
X178176D01*
Y2004D01*
X4500D01*
G37*
G36*
G01X200134Y15502D02*
Y18900D01*
X200130D01*
Y19826D01*
X203362D01*
Y20430D01*
X204900D01*
X206292Y19039D01*
Y15773D01*
X206020Y15502D01*
X200134D01*
G37*
%LPC*%
G75*
G36*
G01X166572Y5794D02*
X164979Y4201D01*
X164605Y4574D01*
X131202D01*
X129957Y5820D01*
X129956D01*
X123282Y12494D01*
Y29832D01*
X123856Y30405D01*
Y30486D01*
X123936D01*
X124804Y31354D01*
X129071D01*
X129788Y30637D01*
G03X130470Y30919I282J283D01*
G01Y31410D01*
X130474D01*
Y32787D01*
G02X133478I1502J0D01*
G01Y31410D01*
X133482D01*
Y28400D01*
X130614D01*
Y22269D01*
X131934Y20950D01*
X137832D01*
Y27902D01*
X138346Y28416D01*
Y31410D01*
X138350D01*
Y32787D01*
G02X141354I1502J0D01*
G01Y31410D01*
X141358D01*
Y28706D01*
X142284D01*
Y31410D01*
X142288D01*
Y32787D01*
G02X145292I1502J0D01*
G01Y31410D01*
X145296D01*
Y28564D01*
X145819Y28041D01*
G03X146452Y28131I283J283D01*
G02X147558Y28853I1229J-675D01*
G03X147806Y29534I-35J398D01*
G01X147374Y29966D01*
Y33528D01*
X149006Y35160D01*
Y39824D01*
X156900D01*
Y37674D01*
X156901Y37663D01*
G02X156908Y37551I-995J-118D01*
G01Y36686D01*
X158424Y35170D01*
X159421D01*
G02Y33166I981J-1002D01*
G01X157594D01*
X155483Y35278D01*
X155296D01*
G03X155155Y34936I0J-200D01*
G01X155892Y34199D01*
Y30616D01*
X155412Y30136D01*
Y28400D01*
X152400D01*
Y30322D01*
G03X151729Y30616I-400J0D01*
G02X150642Y30251I-951J1030D01*
G03X150320Y29570I-39J-398D01*
G01X150902Y28988D01*
Y24160D01*
X153923D01*
X154221Y24458D01*
X163309D01*
X167836Y19930D01*
Y7058D01*
X166742Y5964D01*
Y5794D01*
X166572D01*
G37*
G36*
G01X181850Y15888D02*
X175610D01*
Y15892D01*
X174812D01*
G02Y18896I0J1502D01*
G01X175610D01*
Y18900D01*
X179442D01*
Y19826D01*
X175610D01*
Y21563D01*
X172390Y24784D01*
Y41268D01*
G03X171857Y41646I-400J0D01*
G02X171361Y41562I-495J1417D01*
G01X169985D01*
Y41557D01*
X164140D01*
G03X163857Y40874I0J-400D01*
G01X164702Y40030D01*
Y38420D01*
G02X162698I-1002J-981D01*
G01Y39200D01*
X161806Y40092D01*
X159449D01*
G02X159334Y40099I3J1002D01*
G01X159322Y40100D01*
X157176D01*
Y53900D01*
X161722D01*
Y43964D01*
X163745D01*
Y44569D01*
X169985D01*
Y44564D01*
X171361D01*
G02X171857Y44480I1J-1501D01*
G03X172390Y44858I133J378D01*
G01Y77166D01*
X175717Y80494D01*
X175715Y80580D01*
G02X177078Y79217I1401J38D01*
G01X176992Y79219D01*
X174192Y76420D01*
Y25530D01*
X176885Y22838D01*
X181850D01*
Y22234D01*
X182171D01*
X183928Y23990D01*
Y28836D01*
X187292D01*
Y22716D01*
X185202D01*
X182917Y20430D01*
X181850D01*
Y19826D01*
X181246D01*
Y18900D01*
X181850D01*
Y15888D01*
G37*
G36*
G01X142824Y40100D02*
X138278D01*
Y43239D01*
G03X137595Y43522I-400J0D01*
G01X136958Y42886D01*
X135503D01*
Y42281D01*
X129263D01*
Y42886D01*
X128213D01*
X124404Y46694D01*
Y60598D01*
X140749Y76942D01*
X162032D01*
X165178Y80088D01*
Y86897D01*
X164778Y87296D01*
X164692Y87294D01*
G02X166055Y88657I-38J1401D01*
G01X166053Y88571D01*
X166658Y87966D01*
X167262Y88571D01*
X167260Y88657D01*
G02X168623Y87294I1401J38D01*
G01X168537Y87296D01*
X168180Y86940D01*
Y78844D01*
X163276Y73940D01*
X141993D01*
X127408Y59354D01*
Y48898D01*
X127679Y48626D01*
X129263D01*
Y49231D01*
X135503D01*
Y48626D01*
X137527D01*
X137595Y48559D01*
G03X138278Y48842I283J283D01*
G01Y53900D01*
X142824D01*
Y40100D01*
G37*
G36*
G01X73549Y46568D02*
X33577D01*
X12624Y67521D01*
Y70204D01*
X12040D01*
Y77114D01*
X15124D01*
Y79865D01*
X22624Y87365D01*
Y101700D01*
X22040D01*
Y108610D01*
X25012D01*
Y101700D01*
X24428D01*
Y86619D01*
X16928Y79119D01*
Y77114D01*
X20012D01*
Y70204D01*
X19428D01*
Y69331D01*
X22232Y66526D01*
X49504D01*
G02Y64724I1074J-901D01*
G01X22030D01*
G03X21747Y64041I0J-400D01*
G01X35283Y50504D01*
X55058D01*
X60152Y55599D01*
G03X59869Y56282I-283J283D01*
G01X57778D01*
Y62402D01*
X58756D01*
Y63836D01*
X58152D01*
Y66528D01*
X56832D01*
Y63836D01*
X56228D01*
Y62402D01*
X57206D01*
Y56282D01*
X53448D01*
Y62402D01*
X54426D01*
Y63836D01*
X53822D01*
Y66681D01*
X53012Y67491D01*
Y74194D01*
X59237Y80420D01*
X100076D01*
X101594Y78901D01*
Y78478D01*
X107276D01*
Y76978D01*
X108075D01*
G02Y73976I0J-1501D01*
G01X107276D01*
Y72476D01*
X101786D01*
Y72937D01*
G03X101103Y73219I-400J-1D01*
G01X100662Y72779D01*
Y72476D01*
X100359D01*
X99699Y71816D01*
X99038D01*
X98964Y71742D01*
Y68522D01*
X99383Y68104D01*
X99560D01*
Y67926D01*
X100642Y66845D01*
Y63105D01*
X99803Y62266D01*
X93943D01*
X92970Y63240D01*
Y65691D01*
X92133Y66528D01*
X91478D01*
Y63836D01*
X90874D01*
Y62402D01*
X91852D01*
Y56282D01*
X88094D01*
Y62402D01*
X89072D01*
Y63836D01*
X88468D01*
Y66528D01*
X87148D01*
Y63836D01*
X86544D01*
Y62402D01*
X87522D01*
Y56282D01*
X86544D01*
Y55665D01*
G02X84740I-902J-1074D01*
G01Y56282D01*
X83762D01*
Y62402D01*
X84740D01*
Y63836D01*
X84136D01*
Y66528D01*
X82818D01*
Y63836D01*
X82214D01*
Y62402D01*
X83192D01*
Y56282D01*
X83093D01*
G03X82698Y55820I0J-400D01*
G02X81274Y54205I-1386J-214D01*
G01X81188Y54207D01*
X73549Y46568D01*
G37*
G36*
G01X41662Y21650D02*
X37508D01*
Y25802D01*
X38684D01*
Y27180D01*
X38138D01*
Y33418D01*
X38142D01*
Y34217D01*
G02X41144I1501J0D01*
G01Y33418D01*
X41148D01*
Y27180D01*
X40544D01*
Y26408D01*
X40486Y26350D01*
Y25802D01*
X41662D01*
Y21650D01*
G37*
G36*
G01X269058Y5534D02*
G02X266056I-1501J0D01*
G01Y6332D01*
X266052D01*
Y12572D01*
X266656D01*
Y13517D01*
X267520Y14382D01*
G03X267237Y15064I-283J282D01*
G01X267082D01*
Y21068D01*
X271076D01*
Y16300D01*
G03X271759Y16017I400J0D01*
G01X272082Y16339D01*
Y21068D01*
X276076D01*
Y15064D01*
X273356D01*
X272396Y14105D01*
Y12572D01*
X273000D01*
Y6332D01*
X272996D01*
Y5534D01*
G02X269994I-1501J0D01*
G01Y6332D01*
X269990D01*
Y12572D01*
X270594D01*
Y15064D01*
X269980D01*
Y14293D01*
X268942Y13254D01*
G03X269062Y12606I283J-283D01*
G01Y6332D01*
X269058D01*
Y5534D01*
G37*
G36*
G01X265120D02*
G02X262118I-1501J0D01*
G01Y6332D01*
X262114D01*
Y12572D01*
X262718D01*
Y14579D01*
X262861Y14723D01*
G03X262720Y15064I-141J141D01*
G01X262082D01*
Y21068D01*
X266076D01*
Y15064D01*
X264980D01*
Y14293D01*
X264520Y13833D01*
Y12572D01*
X265124D01*
Y6332D01*
X265120D01*
Y5534D01*
G37*
G36*
G01X261182D02*
G02X258180I-1501J0D01*
G01Y6332D01*
X258176D01*
Y12572D01*
X258780D01*
Y13691D01*
X258178Y14293D01*
Y15064D01*
X257082D01*
Y21068D01*
X261076D01*
Y15064D01*
X260921D01*
G03X260582Y14452I0J-400D01*
G01Y12572D01*
X261186D01*
Y6332D01*
X261182D01*
Y5534D01*
G37*
G36*
G01X257244D02*
G02X254242I-1501J0D01*
G01Y6332D01*
X254238D01*
Y12572D01*
X254416D01*
G03X254557Y12913I0J200D01*
G01X253178Y14293D01*
Y15064D01*
X252082D01*
Y21068D01*
X256076D01*
Y15064D01*
X255921D01*
G03X255638Y14382I0J-400D01*
G01X256644Y13375D01*
Y12572D01*
X257248D01*
Y6332D01*
X257244D01*
Y5534D01*
G37*
G36*
G01X233358D02*
G02X230356I-1501J0D01*
G01Y6332D01*
X230352D01*
Y12572D01*
X230956D01*
Y13415D01*
X231922Y14382D01*
G03X231639Y15064I-283J282D01*
G01X231484D01*
Y21068D01*
X235478D01*
Y15064D01*
X234382D01*
Y14293D01*
X233003Y12913D01*
G03X233144Y12572I141J-141D01*
G01X233362D01*
Y6332D01*
X233358D01*
Y5534D01*
G37*
G36*
G01X229420D02*
G02X226418I-1501J0D01*
G01Y6332D01*
X226414D01*
Y12572D01*
X227018D01*
Y14477D01*
X227263Y14723D01*
G03X227122Y15064I-141J141D01*
G01X226484D01*
Y21068D01*
X230478D01*
Y15064D01*
X229382D01*
Y14293D01*
X228820Y13731D01*
Y12572D01*
X229424D01*
Y6332D01*
X229420D01*
Y5534D01*
G37*
G36*
G01X225482D02*
G02X222480I-1501J0D01*
G01Y6332D01*
X222476D01*
Y12572D01*
X223080D01*
Y13793D01*
X222580Y14293D01*
Y15064D01*
X221484D01*
Y21068D01*
X225478D01*
Y15064D01*
X224840D01*
G03X224699Y14723I0J-200D01*
G01X224882Y14539D01*
Y12572D01*
X225486D01*
Y6332D01*
X225482D01*
Y5534D01*
G37*
G36*
G01X221544D02*
G02X218542I-1501J0D01*
G01Y6332D01*
X218538D01*
Y12572D01*
X218818D01*
G03X218959Y12913I0J200D01*
G01X217580Y14293D01*
Y15064D01*
X216484D01*
Y21068D01*
X220478D01*
Y15064D01*
X220323D01*
G03X220040Y14382I0J-400D01*
G01X220944Y13477D01*
Y12572D01*
X221548D01*
Y6332D01*
X221544D01*
Y5534D01*
G37*
G36*
G01X137420Y31410D02*
Y28400D01*
X134408D01*
Y31410D01*
X134412D01*
Y32787D01*
G02X137416I1502J0D01*
G01Y31410D01*
X137420D01*
G37*
G36*
G01X169168Y31634D02*
Y30257D01*
G02X166166I-1501J0D01*
G01Y31634D01*
X165394D01*
Y32504D01*
X163830D01*
G02Y35506I0J1501D01*
G01X165394D01*
Y36376D01*
X166166D01*
Y37753D01*
G02X169168I1501J0D01*
G01Y36376D01*
X169940D01*
Y31634D01*
X169168D01*
G37*
G36*
G01X181570D02*
Y30835D01*
G02X178568I-1501J0D01*
G01Y31634D01*
X177796D01*
Y32504D01*
X176899D01*
G02Y35506I0J1501D01*
G01X177796D01*
Y36376D01*
X178568D01*
Y37175D01*
G02X181570I1501J0D01*
G01Y36376D01*
X182342D01*
Y36306D01*
X183150D01*
Y37006D01*
X188642D01*
Y31004D01*
X183150D01*
Y31704D01*
X182342D01*
Y31634D01*
X181570D01*
G37*
G36*
G01X256814Y51475D02*
X256076Y50737D01*
Y45064D01*
X254980D01*
Y44765D01*
X255043Y44706D01*
G02X253115I-964J-1018D01*
G01X253178Y44765D01*
Y45064D01*
X252082D01*
Y51068D01*
X253858D01*
X255012Y52221D01*
Y53560D01*
X254408D01*
Y56572D01*
X257418D01*
Y53560D01*
X256814D01*
Y51475D01*
G37*
G36*
G01X259980Y45064D02*
Y44765D01*
X260043Y44706D01*
G02X258115I-964J-1018D01*
G01X258178Y44765D01*
Y45064D01*
X257082D01*
Y51068D01*
X258178D01*
Y52763D01*
X258633Y53219D01*
G03X258492Y53560I-141J141D01*
G01X258346D01*
Y56572D01*
X261356D01*
Y53560D01*
X260752D01*
Y52789D01*
X259980Y52017D01*
Y51068D01*
X261076D01*
Y45064D01*
X259980D01*
G37*
G36*
G01X264980D02*
Y44765D01*
X265043Y44706D01*
G02X263115I-964J-1018D01*
G01X263178Y44765D01*
Y45064D01*
X262082D01*
Y51068D01*
X263178D01*
Y52499D01*
X262888Y52789D01*
Y53560D01*
X262284D01*
Y56572D01*
X265294D01*
Y53560D01*
X265014D01*
X264912Y53314D01*
X264980Y53245D01*
Y51068D01*
X266076D01*
Y45064D01*
X264980D01*
G37*
G36*
G01X268945Y53219D02*
X269980Y52183D01*
Y51068D01*
X270764D01*
Y53560D01*
X270160D01*
Y56572D01*
X273170D01*
Y53560D01*
X272566D01*
Y51857D01*
X273356Y51068D01*
X276076D01*
Y45064D01*
X274980D01*
Y44765D01*
X275043Y44706D01*
G02X273115I-964J-1018D01*
G01X273178Y44765D01*
Y45064D01*
X272082D01*
Y49793D01*
X271759Y50115D01*
G03X271076Y49832I-283J-283D01*
G01Y45064D01*
X269980D01*
Y44765D01*
X270043Y44706D01*
G02X268115I-964J-1018D01*
G01X268178Y44765D01*
Y45064D01*
X267082D01*
Y51068D01*
X268178D01*
Y51437D01*
X266826Y52789D01*
Y53560D01*
X266222D01*
Y56572D01*
X269232D01*
Y53560D01*
X269086D01*
G03X268945Y53219I0J-200D01*
G37*
G36*
G01X41425Y70028D02*
X49574D01*
G02Y68224I1074J-902D01*
G01X40679D01*
X27624Y81279D01*
Y101700D01*
X27040D01*
Y108610D01*
X30012D01*
Y101700D01*
X29428D01*
Y82025D01*
X41425Y70028D01*
G37*
G36*
G01X25028Y73659D02*
Y69406D01*
G02X22024I-1502J0D01*
G01Y73659D01*
G02X22038Y73861I1502J-3D01*
G01X22040Y73875D01*
Y77114D01*
X25012D01*
Y73875D01*
X25014Y73861D01*
G02X25028Y73659I-1488J-205D01*
G37*
G36*
G01X30028D02*
Y69406D01*
G02X27024I-1502J0D01*
G01Y73659D01*
G02X27038Y73861I1502J-3D01*
G01X27040Y73875D01*
Y77114D01*
X30012D01*
Y73875D01*
X30014Y73861D01*
G02X30028Y73659I-1488J-205D01*
G37*
G36*
G01X20012Y104939D02*
Y101700D01*
X17040D01*
Y104939D01*
X17038Y104953D01*
G02X17024Y105155I1488J205D01*
G01Y114984D01*
X17020D01*
Y117996D01*
X20032D01*
Y117992D01*
X20830D01*
G02Y114988I0J-1502D01*
G01X20032D01*
Y114984D01*
X20028D01*
Y105155D01*
G02X20014Y104953I-1502J3D01*
G01X20012Y104939D01*
G37*
G36*
G01X248294Y212562D02*
G03X247769I-263J-302D01*
G02Y214680I-919J1059D01*
G03X248294I263J302D01*
G02Y212562I919J-1059D01*
G37*
G36*
G01X30971Y223036D02*
G03X30447I-262J-302D01*
G02Y225154I-919J1059D01*
G03X30971I262J302D01*
G02Y223036I919J-1059D01*
G37*
G36*
G01X32152Y244846D02*
G03X31628I-262J-302D01*
G02Y246964I-919J1059D01*
G03X32152I262J302D01*
G02Y244846I919J-1059D01*
G37*
G36*
G01X162073D02*
G03X161549I-262J-302D01*
G02Y246964I-919J1059D01*
G03X162073I262J302D01*
G02Y244846I919J-1059D01*
G37*
G36*
G01X58136D02*
G03X57612I-262J-302D01*
G02Y246964I-919J1059D01*
G03X58136I262J302D01*
G02Y244846I919J-1059D01*
G37*
G36*
G01X215223Y212562D02*
G03X214699I-262J-302D01*
G02Y214680I-919J1059D01*
G03X215223I262J302D01*
G02Y212562I919J-1059D01*
G37*
G36*
G01X222343Y164933D02*
Y164713D01*
X216103D01*
Y164933D01*
X215864D01*
X215828Y164918D01*
G02Y167520I-523J1301D01*
G01X215864Y167505D01*
X216103D01*
Y167725D01*
X222343D01*
Y167505D01*
X222582D01*
X222618Y167520D01*
G02Y164918I523J-1301D01*
G01X222582Y164933D01*
X222343D01*
G37*
G36*
G01Y160995D02*
Y160775D01*
X216103D01*
Y160995D01*
X215864D01*
X215828Y160980D01*
G02Y163582I-523J1301D01*
G01X215864Y163567D01*
X216103D01*
Y163787D01*
X222343D01*
Y163567D01*
X222582D01*
X222618Y163582D01*
G02Y160980I523J-1301D01*
G01X222582Y160995D01*
X222343D01*
G37*
G36*
G01Y157057D02*
Y156837D01*
X216103D01*
Y157057D01*
X215864D01*
X215828Y157042D01*
G02Y159644I-523J1301D01*
G01X215864Y159629D01*
X216103D01*
Y159849D01*
X222343D01*
Y159629D01*
X222582D01*
X222618Y159644D01*
G02Y157042I523J-1301D01*
G01X222582Y157057D01*
X222343D01*
G37*
G36*
G01Y153119D02*
Y152899D01*
X216103D01*
Y153119D01*
X215864D01*
X215828Y153104D01*
G02Y155706I-523J1301D01*
G01X215864Y155691D01*
X216103D01*
Y155911D01*
X222343D01*
Y155691D01*
X222582D01*
X222618Y155706D01*
G02Y153104I523J-1301D01*
G01X222582Y153119D01*
X222343D01*
G37*
G36*
G01Y149181D02*
Y148961D01*
X216103D01*
Y149181D01*
X215864D01*
X215828Y149166D01*
G02Y151768I-523J1301D01*
G01X215864Y151753D01*
X216103D01*
Y151973D01*
X222343D01*
Y151753D01*
X222582D01*
X222618Y151768D01*
G02Y149166I523J-1301D01*
G01X222582Y149181D01*
X222343D01*
G37*
G36*
G01X53544Y123158D02*
X52940D01*
Y119342D01*
X53083Y119299D01*
G02X50175Y112662I-1043J-3499D01*
G01X47020Y109507D01*
Y78911D01*
X47998D01*
Y83034D01*
X48898Y83935D01*
X48827Y84066D01*
G02X50304Y82589I3212J1735D01*
G01X50173Y82660D01*
X49800Y82288D01*
Y78911D01*
X53633D01*
Y75899D01*
X51896D01*
X51704Y75708D01*
Y75655D01*
X50649Y74600D01*
X47149D01*
X45216Y76532D01*
Y110253D01*
X48898Y113935D01*
X48827Y114066D01*
G02X50995Y119299I3212J1735D01*
G01X51138Y119342D01*
Y123158D01*
X50534D01*
Y126170D01*
X51138D01*
Y127096D01*
X50534D01*
Y130108D01*
X52020D01*
Y130814D01*
X50176D01*
Y136818D01*
X55666D01*
Y130814D01*
X53822D01*
Y129111D01*
X53544Y128833D01*
Y127096D01*
X52940D01*
Y126170D01*
X53544D01*
Y123158D01*
G37*
G36*
G01X243215Y29616D02*
X190103D01*
X189342Y30376D01*
Y44764D01*
X190866Y46288D01*
Y46318D01*
X190896D01*
X191780Y47201D01*
Y54378D01*
X193542Y56140D01*
X213881D01*
X215558Y54464D01*
Y43999D01*
X216595Y42962D01*
X216923D01*
G03X217268Y43562I-1J400D01*
G02X217114Y44576I1213J703D01*
G03X216724Y45064I-390J88D01*
G01X216484D01*
Y51068D01*
X217580D01*
Y52034D01*
X218764Y53219D01*
G03X218623Y53560I-141J141D01*
G01X218476D01*
Y56572D01*
X221488D01*
Y53560D01*
X220884D01*
Y52789D01*
X219845Y51750D01*
G03X220128Y51068I283J-282D01*
G01X220478D01*
Y45064D01*
X220238D01*
G03X219848Y44576I0J-400D01*
G02X219694Y43562I-1367J-311D01*
G03X220039Y42962I346J-200D01*
G01X221923D01*
G03X222268Y43562I-1J400D01*
G02X222114Y44576I1213J703D01*
G03X221724Y45064I-390J88D01*
G01X221484D01*
Y51068D01*
X222580D01*
Y53096D01*
X222702Y53219D01*
G03X222561Y53560I-141J141D01*
G01X222414D01*
Y56572D01*
X225426D01*
Y53560D01*
X224822D01*
Y52789D01*
X224382Y52350D01*
Y51068D01*
X225478D01*
Y45064D01*
X225238D01*
G03X224848Y44576I0J-400D01*
G02X224694Y43562I-1367J-311D01*
G03X225039Y42962I346J-200D01*
G01X226923D01*
G03X227268Y43562I-1J400D01*
G02X227114Y44576I1213J703D01*
G03X226724Y45064I-390J88D01*
G01X226484D01*
Y51068D01*
X227580D01*
Y52166D01*
X226956Y52789D01*
Y53560D01*
X226352D01*
Y56572D01*
X229364D01*
Y53560D01*
X229217D01*
G03X229076Y53219I0J-200D01*
G01X229382Y52912D01*
Y51068D01*
X230478D01*
Y45064D01*
X230238D01*
G03X229848Y44576I0J-400D01*
G02X229694Y43562I-1367J-311D01*
G03X230039Y42962I346J-200D01*
G01X231923D01*
G03X232268Y43562I-1J400D01*
G02X232114Y44576I1213J703D01*
G03X231724Y45064I-390J88D01*
G01X231484D01*
Y51068D01*
X231650D01*
G03X231933Y51750I0J400D01*
G01X230894Y52789D01*
Y53560D01*
X230290D01*
Y56572D01*
X233302D01*
Y53560D01*
X233155D01*
G03X233014Y53219I0J-200D01*
G01X234382Y51850D01*
Y51068D01*
X235478D01*
Y45064D01*
X235238D01*
G03X234848Y44576I0J-400D01*
G02X234883Y44245I-1367J-312D01*
G03X235566Y43957I400J-5D01*
G01X236376Y44768D01*
Y61172D01*
X242983Y67778D01*
G03X242700Y68461I-283J283D01*
G01X241323D01*
Y69066D01*
X240023D01*
X238218Y70870D01*
Y73482D01*
X236898D01*
Y69685D01*
X235570Y68356D01*
X235360D01*
Y67752D01*
X234756D01*
Y66826D01*
X235361D01*
Y63814D01*
X232204D01*
X231741Y63350D01*
X219176D01*
X200530Y81997D01*
Y89614D01*
G03X199847Y89896I-400J-1D01*
G01X199686Y89736D01*
X188939D01*
X188226Y90449D01*
Y95754D01*
X188681Y96210D01*
X188158Y96732D01*
Y102037D01*
X188400Y102279D01*
G03X188118Y102962I-283J283D01*
G01X181208D01*
G02X178822Y104357I-1074J901D01*
G03X178448Y104898I-374J141D01*
G01X173067D01*
G03X172784Y104216I0J-400D01*
G01X174423Y102576D01*
X176160D01*
Y102572D01*
X176958D01*
G02Y99570I0J-1501D01*
G01X176160D01*
Y99566D01*
X173148D01*
Y101302D01*
X170358Y104092D01*
Y104898D01*
X169012D01*
Y100218D01*
X169314Y99916D01*
Y99348D01*
X172222D01*
Y96338D01*
X169210D01*
Y96342D01*
X168412D01*
G02X167296Y98848I0J1501D01*
G03X167282Y99398I-297J268D01*
G01X167208Y99472D01*
Y104898D01*
X161573D01*
X161471Y104652D01*
X161532Y104590D01*
Y102576D01*
X162136D01*
Y102572D01*
X162935D01*
G02Y99570I0J-1501D01*
G01X162136D01*
Y99566D01*
X159126D01*
Y102576D01*
X159730D01*
Y103844D01*
X159334Y104239D01*
Y104898D01*
X157988D01*
Y104239D01*
X156316Y102566D01*
X154186D01*
X153262Y101643D01*
Y100244D01*
X154175Y99332D01*
X154267Y99340D01*
G02X154389Y99344I110J-1497D01*
G01X155188D01*
Y99348D01*
X158198D01*
Y96338D01*
X155188D01*
Y96342D01*
X154389D01*
G02X152892Y97965I0J1502D01*
G01X152900Y98057D01*
X151460Y99498D01*
Y102389D01*
X153440Y104370D01*
X155570D01*
X155757Y104557D01*
G03X155616Y104898I-141J141D01*
G01X148540D01*
Y104239D01*
X147434Y103133D01*
Y102576D01*
X148038D01*
Y102572D01*
X148836D01*
G02Y99570I0J-1501D01*
G01X148038D01*
Y99566D01*
X145026D01*
Y102576D01*
X145630D01*
Y103879D01*
X145967Y104216D01*
G03X145684Y104898I-283J282D01*
G01X145390D01*
Y104239D01*
X143956Y102806D01*
X140534D01*
X139678Y101950D01*
Y101873D01*
X139292Y101486D01*
Y100116D01*
X140076Y99332D01*
X140168Y99340D01*
G02X140290Y99344I110J-1497D01*
G01X141088D01*
Y99348D01*
X144100D01*
Y96338D01*
X141088D01*
Y96342D01*
X140290D01*
G02X138793Y97965I0J1502D01*
G01X138801Y98057D01*
X137488Y99370D01*
Y102232D01*
X137876Y102619D01*
Y102696D01*
X139395Y104216D01*
G03X139112Y104898I-283J282D01*
G01X131652D01*
X131550Y104652D01*
X131610Y104591D01*
Y102576D01*
X132214D01*
Y102572D01*
X133013D01*
G02Y99570I0J-1501D01*
G01X132214D01*
Y99566D01*
X129204D01*
Y102576D01*
X129808D01*
Y103845D01*
X129414Y104239D01*
Y104898D01*
X128066D01*
Y104626D01*
X126303Y102862D01*
X123940D01*
X123142Y102065D01*
Y100442D01*
X124253Y99332D01*
X124345Y99340D01*
G02X124467Y99344I110J-1497D01*
G01X125266D01*
Y99348D01*
X128276D01*
Y96338D01*
X125266D01*
Y96342D01*
X124467D01*
G02X122970Y97965I0J1502D01*
G01X122978Y98057D01*
X121340Y99696D01*
Y102811D01*
X122744Y104216D01*
G03X122461Y104898I-283J282D01*
G01X114599D01*
X107429Y112068D01*
X104712Y109351D01*
Y105411D01*
X102541Y103240D01*
X101720Y103234D01*
X98569D01*
X96942Y104862D01*
Y104952D01*
X96871Y105012D01*
G02X96342Y106156I972J1144D01*
G01Y106954D01*
X96338D01*
Y109966D01*
X99348D01*
Y106954D01*
X99344D01*
Y106156D01*
G02X99067Y105286I-1501J-1D01*
G01X99315Y105038D01*
X101789D01*
X102908Y106157D01*
Y110097D01*
X106154Y113343D01*
X105213Y114285D01*
G03X104530Y114002I-283J-283D01*
G01Y112679D01*
X103348Y111496D01*
X102576D01*
Y110892D01*
X99566D01*
Y113904D01*
X99570D01*
Y114702D01*
G02X102063Y115829I1501J0D01*
G03X102728Y116129I265J300D01*
G01Y116770D01*
X102259Y117238D01*
X101792Y116772D01*
X93951D01*
X82194Y128528D01*
G03X81520Y128329I-283J-283D01*
G02X79131Y127658I-1371J293D01*
G01X79072Y127720D01*
X78773D01*
Y127116D01*
X74940D01*
Y126190D01*
X75544D01*
Y123178D01*
X74940D01*
Y120124D01*
X78009Y117056D01*
G03X78661Y117187I282J283D01*
G02X78541Y114757I3378J-1385D01*
G01X78498Y114900D01*
X77616D01*
X73138Y119378D01*
Y123178D01*
X72534D01*
Y126190D01*
X73138D01*
Y127116D01*
X72533D01*
Y130330D01*
X69261D01*
X62963Y136627D01*
G03X62280Y136344I-283J-283D01*
G01Y135318D01*
X63079D01*
G02Y132314I0J-1502D01*
G01X62280D01*
Y130814D01*
X56790D01*
Y136818D01*
X58034D01*
Y137616D01*
G02X59513Y139117I1501J0D01*
G03X59790Y139800I-6J400D01*
G01X44450Y155140D01*
Y173615D01*
X44179Y173886D01*
X42524D01*
X41196Y175215D01*
Y177561D01*
X42524Y178890D01*
X44179D01*
X44450Y179161D01*
Y180015D01*
X44179Y180286D01*
X42524D01*
X41196Y181615D01*
Y183961D01*
X42524Y185290D01*
X44179D01*
X44450Y185561D01*
Y186415D01*
X44179Y186686D01*
X42524D01*
X41196Y188015D01*
Y190361D01*
X42524Y191690D01*
X44179D01*
X44450Y191961D01*
Y201472D01*
X56475Y213497D01*
X56473Y213583D01*
G02X58793Y214680I1401J38D01*
G03X59317I262J302D01*
G02X61138Y212547I919J-1059D01*
G01Y212038D01*
G03X61820Y211755I400J0D01*
G01X63562Y213497D01*
X63560Y213583D01*
G02X65880Y214680I1401J38D01*
G03X66404I262J302D01*
G02X67039Y214994I919J-1059D01*
G01X67198Y215027D01*
Y244227D01*
G03X66653Y244599I-400J0D01*
G02X65223Y244846I-511J1306D01*
G03X64699I-262J-302D01*
G02Y246964I-919J1059D01*
G03X65223I262J302D01*
G02X67526Y246126I919J-1059D01*
G03X68204Y245906I395J63D01*
G01X80498Y258201D01*
Y272701D01*
X94699Y286902D01*
X140301D01*
X153801Y273401D01*
Y247291D01*
X153944Y247248D01*
G02X154462Y246964I-400J-1344D01*
G03X154987I263J302D01*
G02Y244846I919J-1059D01*
G03X154462I-262J-302D01*
G02X153944Y244562I-918J1060D01*
G01X153802Y244519D01*
Y200434D01*
X156538D01*
Y206163D01*
G02X158340I901J1074D01*
G01Y201218D01*
X159124Y200434D01*
X160476D01*
Y205562D01*
X162037Y207124D01*
X162035Y207210D01*
G02X164837I1401J38D01*
G01X164835Y207124D01*
X166216Y205742D01*
Y201218D01*
X167000Y200434D01*
X168790D01*
Y198698D01*
X169034Y198454D01*
G03X169716Y198737I282J283D01*
G01Y200434D01*
X172728D01*
Y199830D01*
X173654D01*
Y200434D01*
X175391D01*
X175850Y200894D01*
X177278D01*
Y202738D01*
X183280D01*
Y197246D01*
X177278D01*
Y199090D01*
X176666D01*
Y197424D01*
X174929D01*
X174390Y196884D01*
G03X174673Y196202I283J-282D01*
G01X184399D01*
X184824Y196626D01*
Y199424D01*
X186152Y200752D01*
X187148D01*
X187420Y201024D01*
Y201878D01*
X187148Y202150D01*
X186152D01*
X184824Y203478D01*
Y205824D01*
X186152Y207152D01*
X187148D01*
X187420Y207424D01*
Y208278D01*
X186894Y208804D01*
Y210364D01*
G02X188761Y212454I900J1075D01*
G01X188819Y212399D01*
X189098D01*
Y212699D01*
X189056Y212753D01*
G02X191231Y214522I1102J867D01*
G01X193978D01*
X195099Y213402D01*
X198204D01*
Y213604D01*
G02X200525Y214680I1402J17D01*
G03X201050I262J302D01*
G02X203371Y213604I919J-1059D01*
G01Y213402D01*
X204701D01*
X205134Y212968D01*
X205355Y213188D01*
X205329Y213297D01*
G02X207612Y214680I1364J324D01*
G03X208136I262J302D01*
G02X208021Y212674I919J-1059D01*
G03X207727I-147J-135D01*
G02X207594Y212547I-1033J948D01*
G01Y210508D01*
X215002Y203101D01*
Y203043D01*
X216206Y201839D01*
Y194884D01*
X212358Y191036D01*
X195937D01*
X194702Y189801D01*
Y184760D01*
X196641D01*
X197246Y185365D01*
Y189838D01*
X202738D01*
Y185365D01*
X203058Y185044D01*
Y183223D01*
X203663D01*
Y180211D01*
X203058D01*
Y179285D01*
X203663D01*
Y176273D01*
X200894D01*
Y175662D01*
X202738D01*
Y169658D01*
X197246D01*
Y175662D01*
X199090D01*
Y176273D01*
X197423D01*
Y179285D01*
X198028D01*
Y180211D01*
X197423D01*
Y180816D01*
X196769D01*
X195761Y179808D01*
X194990D01*
Y167215D01*
X194702D01*
Y165862D01*
X195015D01*
X196197Y167044D01*
X197424D01*
Y167648D01*
X200434D01*
Y165076D01*
X205534D01*
X207948Y162662D01*
Y147799D01*
X204522Y144374D01*
X201379D01*
X200418Y143412D01*
X200426Y143320D01*
G02X200430Y143198I-1497J-110D01*
G01Y142452D01*
X200434D01*
Y139440D01*
X197424D01*
Y139587D01*
G03X197082Y139728I-200J0D01*
G01X196103Y138749D01*
X197164Y137688D01*
Y136612D01*
X198170Y135606D01*
X200652D01*
Y138514D01*
X203826D01*
Y140992D01*
X209534Y146699D01*
Y167353D01*
X207228Y169658D01*
X203860D01*
Y175662D01*
X205104D01*
Y177282D01*
X219540Y191718D01*
Y213383D01*
X216268Y216656D01*
X187978D01*
X181780Y210458D01*
Y209352D01*
X183280D01*
Y203860D01*
X177278D01*
Y209352D01*
X178778D01*
Y211080D01*
G02X179217Y212142I1501J1D01*
G01X186734Y219658D01*
X217512D01*
X222544Y214627D01*
Y190474D01*
X208108Y176038D01*
Y175662D01*
X209352D01*
Y171782D01*
X212536Y168597D01*
Y145455D01*
X206830Y139748D01*
Y138012D01*
G03X207512Y137729I400J0D01*
G01X218026Y148242D01*
X234083D01*
X235438Y149598D01*
Y149984D01*
X234470Y150953D01*
Y152831D01*
X236129Y154490D01*
X238007D01*
X238976Y153522D01*
X239362D01*
X239964Y154124D01*
Y154510D01*
X238996Y155479D01*
Y157357D01*
X240655Y159016D01*
X242533D01*
X243502Y158048D01*
X243888D01*
X244490Y158650D01*
Y159036D01*
X243522Y160005D01*
Y161883D01*
X245181Y163542D01*
X247059D01*
X248028Y162574D01*
X248414D01*
X249016Y163176D01*
Y163562D01*
X248048Y164531D01*
Y166409D01*
X249707Y168068D01*
X251585D01*
X252554Y167100D01*
X252940D01*
X260122Y174282D01*
Y212547D01*
G02X261943Y214680I902J1074D01*
G03X262467I262J302D01*
G02X264612Y214302I919J-1059D01*
G01X266884D01*
G02X269029Y214680I1226J-681D01*
G03X269553I262J302D01*
G02X271374Y212547I919J-1059D01*
G01Y164077D01*
X246735Y139438D01*
X220928D01*
X217024Y135534D01*
G03X217307Y134852I283J-282D01*
G01X234849D01*
X236558Y133143D01*
G03X237240Y133425I282J283D01*
G01Y134049D01*
X241000D01*
Y131736D01*
X241580Y131156D01*
Y129258D01*
X241000Y128678D01*
Y124187D01*
X240022D01*
Y122668D01*
X241117Y121572D01*
X241470D01*
Y122177D01*
X244282D01*
X244865Y122760D01*
X249907D01*
X251344Y124198D01*
Y126746D01*
X248058D01*
Y134049D01*
X251818D01*
Y132092D01*
X252223D01*
X253296Y133166D01*
X268161D01*
X269404Y131922D01*
Y127266D01*
X269391Y127253D01*
G03X269533Y126912I142J-141D01*
G01X271816D01*
X273220Y125508D01*
Y110822D01*
X268298Y105900D01*
X251818D01*
Y104206D01*
X266839D01*
X267928Y103118D01*
Y68508D01*
X263414Y63994D01*
X255316D01*
X246928Y55607D01*
Y51068D01*
X251076D01*
Y45064D01*
X246928D01*
Y33329D01*
X243215Y29616D01*
G37*
G54D52*
X82039Y85801D03*
G54D50*
X253937Y213621D03*
X242126D03*
X165310Y256558D03*
X167717Y245905D03*
G54D48*
X150000Y56449D03*
G54D49*
X281496Y235000D03*
G54D54*
X93556Y16468D03*
X62060D03*
G54D53*
X18504Y235000D03*
G54D55*
X67039Y100801D03*
G54D51*
X249079Y18066D03*
G54D47*
X145079Y37551D03*
%LPD*%
G75*
G36*
G01X67320Y69261D02*
Y67996D01*
X66354Y67029D01*
X54183D01*
X53513Y67699D01*
Y73986D01*
X59445Y79918D01*
X99868D01*
X101093Y78693D01*
Y73919D01*
X99491Y72317D01*
X98830D01*
X98463Y71950D01*
Y68314D01*
X100140Y66637D01*
Y63313D01*
X99595Y62768D01*
X94151D01*
X93471Y63448D01*
Y65899D01*
X92341Y67029D01*
X79756D01*
X79235Y66508D01*
Y56778D01*
X78388Y55931D01*
X75767D01*
X75162Y56536D01*
Y69060D01*
X74156Y70066D01*
Y70076D01*
X74146D01*
X73833Y70389D01*
X68448D01*
X67320Y69261D01*
G37*
G36*
G01X125012Y30852D02*
X128863D01*
X130113Y29602D01*
Y22061D01*
X131726Y20448D01*
X140194D01*
X140602Y20040D01*
Y15971D01*
X141661Y14912D01*
X153051D01*
X153979Y15840D01*
Y23506D01*
X154429Y23956D01*
X163101D01*
X167335Y19722D01*
Y7266D01*
X164979Y4910D01*
X164813Y5076D01*
X131410D01*
X130165Y6321D01*
X130164D01*
X123784Y12702D01*
Y29624D01*
X125012Y30852D01*
G37*
G36*
G01X67982Y55442D02*
X65868Y57556D01*
Y62402D01*
X64890D01*
Y63836D01*
X65494D01*
Y66528D01*
X66562D01*
X67822Y67788D01*
Y69053D01*
X68656Y69888D01*
X68795D01*
G02X69139Y69284I0J-400D01*
G03X70656Y67203I1207J-714D01*
G02X71144Y66813I88J-390D01*
G01Y63836D01*
X71748D01*
Y62402D01*
X70770D01*
Y56282D01*
X73704D01*
G02X73971Y55584I0J-400D01*
G03X73834Y55442I938J-1042D01*
G01X67982D01*
G37*
G36*
G01X145855Y23624D02*
Y16338D01*
X145622Y16105D01*
X144042D01*
X143793Y16354D01*
Y19137D01*
X143558Y19372D01*
X143559Y19373D01*
X142204Y20728D01*
X142198D01*
X141957Y20969D01*
X138638D01*
X138334Y21273D01*
Y27694D01*
X138845Y28205D01*
X144945D01*
X145578Y27572D01*
Y25382D01*
X145566Y25370D01*
Y23913D01*
X145855Y23624D01*
G37*
G36*
G01X190311Y30117D02*
X189844Y30584D01*
Y44556D01*
X192281Y46993D01*
Y54170D01*
X193750Y55639D01*
X213673D01*
X215056Y54256D01*
Y43791D01*
X216387Y42460D01*
X234778D01*
X236878Y44560D01*
Y60964D01*
X244377Y68463D01*
Y71646D01*
X245990Y73259D01*
X252265D01*
X252820Y73814D01*
Y77701D01*
X251853Y78668D01*
X248256D01*
X247927Y78997D01*
Y80444D01*
X248264Y80781D01*
X251988D01*
X252743Y81536D01*
Y82556D01*
X252740Y82559D01*
Y87970D01*
X250508Y90202D01*
X245561D01*
X244513Y91250D01*
Y94377D01*
X245419Y95283D01*
X251933D01*
X252766Y96116D01*
Y101279D01*
X252551Y101494D01*
X248886D01*
X248562Y101818D01*
Y103364D01*
X248903Y103705D01*
X266631D01*
X267426Y102910D01*
Y68716D01*
X263206Y64496D01*
X255108D01*
X246427Y55815D01*
Y33537D01*
X243007Y30117D01*
X190311D01*
G37*
G36*
G01X219384Y63852D02*
X201031Y82205D01*
Y95243D01*
X201742Y95954D01*
X215494D01*
X215830Y95618D01*
Y88918D01*
X219544Y85204D01*
X233217D01*
X237240Y81180D01*
Y81160D01*
X237261D01*
X237570Y80851D01*
X240545D01*
X240988Y80408D01*
Y78601D01*
X240657Y78270D01*
X237010D01*
X236063Y77323D01*
X227460D01*
X226035Y78748D01*
X219026D01*
X218674Y78396D01*
Y74082D01*
X225557Y67199D01*
X231672D01*
X232259Y66612D01*
Y64578D01*
X231533Y63852D01*
X219384D01*
G37*
G36*
G01X203418Y146485D02*
G03X203658Y147301I-1261J814D01*
G01Y148100D01*
X203662D01*
Y151110D01*
X200652D01*
Y148202D01*
X198195D01*
X197524Y148874D01*
Y149926D01*
X195875Y151574D01*
X196942Y152642D01*
X197424D01*
Y152038D01*
X200434D01*
Y155048D01*
X200288D01*
G02X200147Y155390I0J200D01*
G01X201602Y156846D01*
X203300D01*
X206144Y154001D01*
Y148545D01*
X203776Y146176D01*
X203585D01*
G02X203418Y146485I1J200D01*
G37*
G36*
G01X200720Y121768D02*
G02X200349Y122318I0J400D01*
G03X200434Y123159I-1391J565D01*
G01X200430Y123177D01*
Y123754D01*
X200434D01*
Y126766D01*
X197044D01*
Y127692D01*
X200434D01*
Y130704D01*
X200430D01*
Y131502D01*
G03X197428I-1501J0D01*
G01Y130704D01*
X197424D01*
Y130100D01*
X196652D01*
X195672Y129120D01*
G02X194990Y129403I-282J283D01*
G01Y135271D01*
G02X195672Y135554I400J0D01*
G01X197424Y133802D01*
X200956D01*
G03X203159Y133586I1201J902D01*
G02X203826Y133288I267J-298D01*
G01Y123623D01*
G03X204362Y122474I1502J1D01*
G02X204104Y121768I-257J-306D01*
G01X200720D01*
G37*
G36*
G01X219744Y85730D02*
X216372Y89102D01*
Y108278D01*
X220622Y112528D01*
X256163D01*
X262385Y118750D01*
Y125233D01*
X263562Y126410D01*
X271608D01*
X272718Y125300D01*
Y111030D01*
X268090Y106402D01*
X237435D01*
X237222Y106189D01*
Y103908D01*
X237459Y103671D01*
X240367D01*
X240492Y103546D01*
Y101496D01*
X240302Y101306D01*
X237316D01*
X235738Y99728D01*
X227554D01*
X225870Y101412D01*
Y101454D01*
X225828D01*
X225654Y101628D01*
X225647D01*
X225345Y101930D01*
X219232D01*
X218460Y101158D01*
Y96208D01*
X218527D01*
X224982Y89753D01*
X231385D01*
X232151Y88987D01*
Y86528D01*
X231353Y85730D01*
X219744D01*
G37*
G36*
G01X241078Y130948D02*
Y129466D01*
X240578Y128966D01*
X236830D01*
X235499Y127635D01*
X227575D01*
X225579Y129631D01*
X219475D01*
X219460Y129646D01*
X219224D01*
X218669Y129091D01*
Y120259D01*
X221371Y117557D01*
X231856D01*
X232300Y117113D01*
Y114411D01*
X231453Y113564D01*
X231449D01*
X230983Y113098D01*
X220404D01*
X215865Y108559D01*
Y97602D01*
X215862Y97598D01*
Y96877D01*
X215537Y96552D01*
X206578D01*
X206577Y96551D01*
X201680D01*
X200821Y97410D01*
Y101840D01*
X215839Y116858D01*
Y133261D01*
X216928Y134350D01*
X234641D01*
X237485Y131506D01*
X240520D01*
X241078Y130948D01*
G37*
G36*
G01X188660Y101829D02*
X189191Y102360D01*
X199300D01*
X199809Y101851D01*
Y96918D01*
X199411Y96520D01*
X189080D01*
X188660Y96940D01*
Y101829D01*
G37*
G36*
G01X189147Y90237D02*
X188727Y90657D01*
Y95546D01*
X189200Y96018D01*
X199426D01*
X199876Y95568D01*
Y90635D01*
X199478Y90237D01*
X189147D01*
G37*
G36*
G01X198098Y159002D02*
X197556Y159545D01*
Y162493D01*
X195875Y164174D01*
X196943Y165242D01*
X197424D01*
Y164638D01*
X198316D01*
X199681Y163272D01*
X200652D01*
Y160700D01*
X200656D01*
Y160356D01*
X199302Y159002D01*
X198098D01*
G37*
G36*
G01X162278Y201218D02*
Y204816D01*
X163312Y205849D01*
X163398Y205847D01*
G03X163474I38J1401D01*
G01X163560Y205849D01*
X164414Y204996D01*
Y200434D01*
X163062D01*
X162278Y201218D01*
G37*
G36*
G01X232008Y67572D02*
X231880Y67700D01*
X225765D01*
X219176Y74290D01*
Y78188D01*
X219234Y78246D01*
X225827D01*
X227252Y76822D01*
X235781D01*
G02X236064Y76139I0J-400D01*
G01X235096Y75170D01*
Y70764D01*
X232350D01*
Y67714D01*
G02X232008Y67572I-200J-1D01*
G37*
G36*
G01X238218Y96335D02*
Y93739D01*
X240037Y91920D01*
X241336D01*
Y91316D01*
X244012D01*
Y91042D01*
X245353Y89700D01*
X250300D01*
X252238Y87762D01*
Y82351D01*
X252242Y82348D01*
Y81744D01*
X252159Y81661D01*
G02X251818Y81803I-141J142D01*
G01Y83344D01*
X248058D01*
Y81285D01*
X247426Y80652D01*
Y78789D01*
X248048Y78166D01*
X248058D01*
Y76041D01*
X251818D01*
Y77511D01*
G02X252159Y77653I200J0D01*
G01X252318Y77493D01*
Y74022D01*
X252057Y73760D01*
X245782D01*
X243876Y71854D01*
Y71473D01*
X241323D01*
Y70868D01*
X240769D01*
X240022Y71616D01*
Y73482D01*
X241000D01*
Y77903D01*
X241490Y78393D01*
Y80616D01*
X240945Y81160D01*
X241000D01*
Y83344D01*
X237240D01*
Y82855D01*
G02X236558Y82573I-400J1D01*
G01X233425Y85706D01*
X232521D01*
G02X232379Y86047I0J200D01*
G01X232652Y86320D01*
Y86648D01*
X235364D01*
Y89660D01*
X234760D01*
Y90586D01*
X235364D01*
Y91190D01*
X236254D01*
X237582Y92519D01*
Y96335D01*
X238218D01*
G37*
G36*
G01X232187Y89660D02*
X231593Y90254D01*
X225190D01*
X218962Y96483D01*
Y100950D01*
X219440Y101428D01*
X225137D01*
X225439Y101126D01*
X225446D01*
X227346Y99226D01*
X235816D01*
G02X235957Y98885I0J-200D01*
G01X235780Y98707D01*
Y93265D01*
X235705Y93191D01*
G02X235364Y93332I-141J141D01*
G01Y93598D01*
X232352D01*
Y90586D01*
X232956D01*
Y89660D01*
X232187D01*
G37*
G36*
G01X254474Y128334D02*
X257099D01*
X259004Y126430D01*
X261908D01*
G02X262190Y125748I-1J-400D01*
G01X261884Y125441D01*
Y118958D01*
X255955Y113030D01*
X232593D01*
G02X232311Y113712I1J400D01*
G01X232802Y114203D01*
Y114428D01*
X235327D01*
Y117440D01*
X234722D01*
Y118366D01*
X235326D01*
Y120103D01*
X237718Y122494D01*
Y124187D01*
X238218D01*
Y121922D01*
X240371Y119770D01*
X241470D01*
Y119165D01*
X244086D01*
Y118949D01*
X244809Y118226D01*
X252072D01*
X253890Y120043D01*
Y127750D01*
X254474Y128334D01*
G37*
G36*
G01X240783Y93724D02*
X240022Y94485D01*
Y96335D01*
X241000D01*
Y101078D01*
X240994D01*
Y101654D01*
X241000D01*
Y105900D01*
X248058D01*
Y98894D01*
X251818D01*
Y100992D01*
X252264D01*
Y96324D01*
X251725Y95784D01*
X245211D01*
X244012Y94585D01*
Y94328D01*
X241336D01*
Y93724D01*
X240783D01*
G37*
G36*
G01X221579Y118058D02*
X219170Y120467D01*
Y128883D01*
X219417Y129130D01*
X225371D01*
X227367Y127134D01*
X235707D01*
X236899Y128326D01*
G02X237240Y128184I141J-142D01*
G01Y128020D01*
X235914Y126694D01*
Y123240D01*
X234052Y121378D01*
X232316D01*
Y118058D01*
X221579D01*
G37*
G36*
G01X253504Y132664D02*
X267953D01*
X268903Y131714D01*
Y127474D01*
X268361Y126932D01*
X259212D01*
X257307Y128836D01*
X254266D01*
X253388Y127958D01*
Y120251D01*
X251864Y118727D01*
X245017D01*
X244587Y119157D01*
Y121773D01*
X245073Y122259D01*
X250115D01*
X251846Y123990D01*
Y128914D01*
X251195Y129565D01*
X251097D01*
X251091Y129559D01*
X248789D01*
X248574Y129774D01*
Y131238D01*
X248927Y131591D01*
X252431D01*
X253504Y132664D01*
G37*
%LPC*%
G75*
G36*
G01X257140Y96409D02*
X256683Y95952D01*
G02X254135Y97226I-1062J1062D01*
G01X254136Y97240D01*
Y97812D01*
X254132D01*
Y100824D01*
X257144D01*
Y97812D01*
X257140D01*
Y96409D01*
G37*
G36*
G01X261470Y93934D02*
Y92557D01*
G02X258468I-1501J0D01*
G01Y93934D01*
X257892D01*
Y98086D01*
X262046D01*
Y93934D01*
X261470D01*
G37*
G36*
G01X257140Y74960D02*
Y74161D01*
G02X254136I-1502J0D01*
G01Y74960D01*
X254132D01*
Y77970D01*
X257144D01*
Y74960D01*
X257140D01*
G37*
G36*
G01X261470Y71080D02*
Y70282D01*
G02X258468I-1501J0D01*
G01Y71080D01*
X257892D01*
Y75234D01*
X262046D01*
Y71080D01*
X261470D01*
G37*
G54D56*
X157874Y17319D03*
%LPD*%
G75*
G54D10*
X62060Y16468D03*
X93556D03*
X281496Y235000D03*
G54D11*
X50997Y17807D03*
X112099D03*
G54D20*
X18504Y235000D03*
G54D30*
X155118Y20016D03*
X152559D03*
X150000D03*
X147441D03*
X144882D03*
G54D12*
X50997Y55996D03*
X108792D03*
G54D21*
X140551Y41094D03*
Y43063D03*
Y45031D03*
Y47000D03*
Y48969D03*
Y50937D03*
Y52906D03*
X159449D03*
Y50937D03*
Y48969D03*
Y47000D03*
Y45031D03*
Y43063D03*
Y41094D03*
G54D40*
G01X50997Y17807D02*
X46757D01*
G01X50997D02*
X55237D01*
G01X50997Y23622D02*
Y17807D01*
G01Y11992D02*
Y17807D01*
G01Y55996D02*
Y60052D01*
G01Y55996D02*
X47728D01*
G01X50997D02*
Y51940D01*
G01X39643Y31913D02*
Y34217D01*
G01X13526Y105155D02*
Y109408D01*
G01X15298Y116490D02*
X12994D01*
G01X55267Y128602D02*
X57571D01*
G01X55267Y124664D02*
X57571D01*
G01X28526Y73659D02*
Y69406D01*
G01X18526Y116490D02*
X20830D01*
G01X18526D02*
Y105155D01*
G01X23526Y73659D02*
Y69406D01*
G01X59535Y133816D02*
Y137616D01*
G01Y133816D02*
X63079D01*
G01X108792Y55996D02*
Y60052D01*
G01Y55996D02*
Y51940D01*
G01Y55996D02*
X105523D01*
G01X108792D02*
X112061D01*
G01X112099Y17807D02*
Y23044D01*
G01Y17807D02*
X108437D01*
G01X112099D02*
Y12570D01*
G01Y17807D02*
X115761D01*
G01X126857Y37898D02*
Y34354D01*
G01D02*
X123057D01*
G01X131976Y26677D02*
Y24373D01*
G01X135914Y26677D02*
Y24373D01*
G01X139852Y29905D02*
Y32787D01*
G01X135914Y29905D02*
Y32787D01*
G01X131976Y29905D02*
Y32787D01*
G01X97843Y136071D02*
Y138674D01*
G01X100082Y70358D02*
X102386D01*
G01X133013Y97843D02*
X130709D01*
G01X97843Y114702D02*
Y112398D01*
G01X142594Y101071D02*
X140290D01*
G01X126771D02*
X124467D01*
G01X101071Y108460D02*
Y106156D01*
G01X77267Y124684D02*
X79571D01*
G01X101016Y142578D02*
X101071Y142633D01*
Y144882D01*
G01X104531Y75477D02*
X108075D01*
G01X130709Y101071D02*
X133013D01*
G01X101071Y112398D02*
Y114702D01*
G01Y138674D02*
Y136071D01*
G01X142594Y97843D02*
X140290D01*
G01X126771D02*
X124467D01*
G01X97843Y108460D02*
Y106156D01*
G01Y142578D02*
Y144882D01*
G01Y129829D02*
Y132133D01*
G01X101071Y159055D02*
Y156751D01*
G01X125348Y202157D02*
X127652D01*
G01X119106D02*
X121410D01*
G01X97843Y148820D02*
Y151124D01*
G01Y165297D02*
Y162993D01*
G01Y184619D02*
Y182315D01*
G01X127652Y198929D02*
X125348D01*
G01X101071Y184619D02*
Y182315D01*
G01Y162993D02*
Y165297D01*
G01Y151124D02*
Y148820D01*
G01X97843Y159055D02*
Y156751D01*
G01X121410Y198929D02*
X119106D01*
G01X97843Y176073D02*
Y178377D01*
G01X201856Y17394D02*
X204160D01*
G01X191910Y25776D02*
X195757D01*
G01X153906Y26677D02*
X156210D01*
G01X198363Y6407D02*
X194897D01*
G01X198363D02*
X201829D01*
G01X198363D02*
Y11644D01*
G01X188041Y47820D02*
X188055D01*
X188807Y48572D01*
X190345D01*
G01X187863Y52235D02*
X188138Y52510D01*
X190345D01*
G01X168479Y43063D02*
X171361D01*
G01X167667Y34005D02*
Y37753D01*
G01Y34005D02*
X163830D01*
G01X167667D02*
Y30257D01*
G01X143790Y29905D02*
Y32787D01*
G01X180069Y34005D02*
X176899D01*
G01X180069D02*
Y37175D01*
G01Y34005D02*
Y30835D01*
G01X198628Y21332D02*
X195746D01*
G01X198628D02*
Y17394D01*
G01D02*
X195286D01*
X195172Y17508D01*
X193091D01*
G01X177116Y17394D02*
X174812D01*
G01X202157Y129198D02*
Y125260D01*
G01Y129198D02*
Y131502D01*
G01X176958Y97843D02*
X174654D01*
G01X160631D02*
X162935D01*
G01X146532D02*
X148836D01*
G01X202157Y140946D02*
Y143250D01*
G01X156693Y101071D02*
X154389D01*
G01X205328Y123623D02*
Y140370D01*
X211035Y146077D01*
Y167975D01*
X206606Y172404D01*
Y172660D01*
G01X198929Y131502D02*
Y129198D01*
G01X148836Y101071D02*
X146532D01*
G01X174654D02*
X176958D01*
G01X160631D02*
X162935D01*
G01X198929Y143198D02*
Y140946D01*
G01X156693Y97843D02*
X154389D01*
G01X202157Y137008D02*
Y134704D01*
G01X198958Y122883D02*
X198929Y122912D01*
Y125260D01*
G01X170716Y97843D02*
X168412D01*
G01X202157Y147301D02*
Y149605D01*
G01X150245Y202157D02*
Y204461D01*
G01X163346Y202157D02*
Y204461D01*
G01X202157Y153543D02*
Y155847D01*
G01X171222Y202157D02*
Y204461D01*
G01X175160Y202157D02*
Y204461D01*
G01X155470Y202157D02*
Y204461D01*
G01X202157Y166143D02*
Y168447D01*
G01X206606Y186836D02*
X210150D01*
G01X167284Y202157D02*
Y204461D01*
G01X159408Y202157D02*
Y204461D01*
G01X146307D02*
Y202157D01*
G01X180279Y206606D02*
Y211080D01*
G01D02*
X187356Y218157D01*
X216890D01*
X221042Y214005D01*
Y191096D01*
X206606Y176660D01*
Y172660D01*
G01X152454Y196426D02*
X151138D01*
X150245Y197319D01*
Y198929D01*
G01X202157Y162205D02*
Y159901D01*
G01X219982Y58294D02*
Y60598D01*
G01X223920Y58294D02*
Y60598D01*
G01X255913Y58294D02*
Y60598D01*
G01X259851Y58294D02*
Y60598D01*
G01X263789Y58294D02*
Y60598D01*
G01X267727Y58294D02*
Y60598D01*
G01X271665Y58294D02*
Y60598D01*
G01X231796Y58294D02*
X234100D01*
G01X227858D02*
X223920D01*
G01X271495Y7838D02*
Y5534D01*
G01X267557Y7838D02*
Y5534D01*
G01X263619Y7838D02*
Y5534D01*
G01X259681Y7838D02*
Y5534D01*
G01X231857Y7838D02*
Y5534D01*
G01X227919Y7838D02*
Y5534D01*
G01X223981Y7838D02*
Y5534D01*
G01X220043Y7838D02*
Y5534D01*
G01X255743Y7838D02*
Y5534D01*
G01X259969Y96010D02*
Y92557D01*
G01Y73157D02*
Y70282D01*
G01X224365Y124918D02*
Y127800D01*
G01X227711Y119944D02*
X230521D01*
X230593Y119872D01*
G01X220427Y127800D02*
Y124918D01*
G01X233420Y124492D02*
X228696D01*
G01X259969Y123862D02*
Y120409D01*
G01X255638Y127170D02*
Y124288D01*
G01X230627Y69258D02*
X228323D01*
G01X224365Y74791D02*
Y74670D01*
X225248Y73787D01*
X228696D01*
G01X220427Y77095D02*
Y74791D01*
G01X228696Y73787D02*
X233420D01*
G01X224365Y77095D02*
Y74791D01*
G01X220427Y99948D02*
Y97644D01*
G01X230630Y92092D02*
X228326D01*
G01X233420Y96640D02*
X228696D01*
G01X255638Y76465D02*
Y74161D01*
G01X255621Y97014D02*
X255638Y97031D01*
Y99318D01*
G01X228696Y96640D02*
X224931D01*
X224224Y97347D01*
X224054D01*
G01X224365Y99948D02*
Y97658D01*
X224054Y97347D01*
G01X228696Y124492D02*
X225693D01*
X225267Y124918D01*
X224365D01*
G54D13*
X55327Y59342D03*
X59658D03*
X63989D03*
X68319D03*
X72650D03*
X76981D03*
X81312D03*
X85642D03*
X89973D03*
G54D31*
X218481Y48066D03*
Y18066D03*
X249079Y48066D03*
X254079D03*
X259079D03*
X264079D03*
X269079D03*
X274079D03*
Y18066D03*
X269079D03*
X264079D03*
X259079D03*
X254079D03*
X249079D03*
X223481Y48066D03*
X228481D03*
X233481D03*
Y18066D03*
X228481D03*
X223481D03*
G54D22*
X142126Y17319D03*
X157874D03*
G54D41*
G01X39585Y17820D02*
Y14945D01*
G01X103390Y66027D02*
X106265D01*
G01X187037Y39517D02*
X184162D01*
G01X187037Y44241D02*
X184162D01*
G54D23*
X137106Y8854D03*
X162894D03*
G54D32*
X193091Y17508D03*
X185610D03*
Y25776D03*
G54D14*
X39585Y17820D03*
Y23726D03*
X103390Y66027D03*
X97484D03*
X187037Y44241D03*
X192943D03*
X187037Y39517D03*
X192943D03*
X259969Y73157D03*
Y79063D03*
X233420Y73787D03*
Y79693D03*
X228696Y73787D03*
Y79693D03*
X233420Y124492D03*
Y130398D03*
X228696Y124492D03*
Y130398D03*
X259969Y123862D03*
Y129768D03*
Y96010D03*
Y101916D03*
X233420Y96640D03*
Y102546D03*
X228696Y96640D03*
Y102546D03*
G54D42*
G01X198929Y162205D02*
Y159901D01*
G54D33*
X191910Y25776D03*
G54D24*
X137343Y18146D03*
X162657D03*
G54D15*
X39643Y31913D03*
Y28685D03*
X59658Y65342D03*
Y68570D03*
X55327Y65342D03*
Y68570D03*
X55267Y124664D03*
X52039D03*
X55267Y128602D03*
X52039D03*
X15298Y116490D03*
X18526D03*
X52127Y77405D03*
X48899D03*
X131976Y26677D03*
Y29905D03*
X135914Y26677D03*
Y29905D03*
X139852D03*
Y26677D03*
X130769Y47725D03*
X133997D03*
X130769Y43787D03*
X133997D03*
X72650Y65342D03*
Y68570D03*
X89973Y65342D03*
Y68570D03*
X85642Y65342D03*
Y68570D03*
X81312Y65342D03*
Y68570D03*
X63989Y65342D03*
Y68570D03*
X101071Y108460D03*
X97843D03*
X126771Y101071D03*
Y97843D03*
X97843Y136071D03*
X101071D03*
X130709Y97843D03*
Y101071D03*
X97843Y112398D03*
X101071D03*
X100082Y70358D03*
X96854D03*
X77267Y124684D03*
X74039D03*
X101071Y132133D03*
X97843D03*
X101071Y144882D03*
X97843D03*
X77267Y128622D03*
X74039D03*
X97843Y148820D03*
X101071D03*
X97843Y162993D03*
X101071D03*
X97843Y182315D03*
X101071D03*
X121410Y202157D03*
Y198929D03*
X125348Y202157D03*
Y198929D03*
X101071Y178377D03*
X97843D03*
X101071Y159055D03*
X97843D03*
X153906Y26677D03*
Y29905D03*
X201856Y17394D03*
X198628D03*
X190345Y48572D03*
X193573D03*
X190345Y52510D03*
X193573D03*
X180344Y17394D03*
X177116D03*
X201856Y21332D03*
X198628D03*
X143790Y29905D03*
Y26677D03*
X180344Y21332D03*
X177116D03*
X165251Y43063D03*
X168479D03*
X142594Y101071D03*
Y97843D03*
X156693Y101071D03*
Y97843D03*
X202157Y125260D03*
X198929D03*
Y137008D03*
X202157D03*
X146532Y97843D03*
Y101071D03*
X160631Y97843D03*
Y101071D03*
X174654Y97843D03*
Y101071D03*
X202157Y129198D03*
X198929D03*
X202157Y140946D03*
X198929D03*
X170716Y101071D03*
Y97843D03*
X198929Y149605D03*
X202157D03*
Y166143D03*
X198929D03*
X202157Y153543D03*
X198929D03*
X155470Y202157D03*
Y198929D03*
X146307Y202157D03*
Y198929D03*
X198929Y162205D03*
X202157D03*
X150245Y202157D03*
Y198929D03*
X159408Y202157D03*
Y198929D03*
X163346Y202157D03*
Y198929D03*
X167284Y202157D03*
Y198929D03*
X171222Y202157D03*
Y198929D03*
X175160Y202157D03*
Y198929D03*
X202157Y177779D03*
X198929D03*
X202157Y181717D03*
X198929D03*
X217609Y150467D03*
Y154405D03*
Y158343D03*
Y162281D03*
Y166219D03*
X233855Y65320D03*
X230627D03*
X220043Y11066D03*
Y7838D03*
X227919Y11066D03*
Y7838D03*
X223981Y11066D03*
Y7838D03*
X231857Y11066D03*
Y7838D03*
X255743Y11066D03*
Y7838D03*
X259681Y11066D03*
Y7838D03*
X263619Y11066D03*
Y7838D03*
X267557Y11066D03*
Y7838D03*
X271495Y11066D03*
Y7838D03*
X219982Y58294D03*
Y55066D03*
X223920Y58294D03*
Y55066D03*
X231796Y58294D03*
Y55066D03*
X227858Y58294D03*
Y55066D03*
X255913Y58294D03*
Y55066D03*
X259851Y58294D03*
Y55066D03*
X263789Y58294D03*
Y55066D03*
X267727Y58294D03*
Y55066D03*
X271665Y58294D03*
Y55066D03*
X255638Y99318D03*
Y102546D03*
Y127170D03*
Y130398D03*
Y76465D03*
Y79693D03*
X224365Y99948D03*
Y103176D03*
X220427Y77095D03*
Y80323D03*
X224365Y127800D03*
Y131028D03*
X220427Y127800D03*
Y131028D03*
X224365Y77095D03*
Y80323D03*
X220427Y99948D03*
Y103176D03*
X233858Y88154D03*
X230630D03*
X233821Y115934D03*
X230593D03*
X242976Y120671D03*
X246204D03*
X242829Y69967D03*
X246057D03*
X242842Y92822D03*
X246070D03*
X230593Y119872D03*
X233821D03*
X230627Y69258D03*
X233855D03*
X230630Y92092D03*
X233858D03*
X220837Y150467D03*
Y154405D03*
Y158343D03*
Y162281D03*
Y166219D03*
G54D43*
G01X185896Y34005D02*
X180069D01*
G54D25*
X126857Y27740D03*
Y34354D03*
X180279Y206606D03*
Y199992D03*
X265481Y129335D03*
Y122721D03*
G54D34*
X180069Y34005D03*
X167667D03*
G54D16*
X50997Y51940D03*
Y60052D03*
X47728Y55996D03*
X39585Y14945D03*
X50997Y11992D03*
Y23622D03*
X55237Y17807D03*
X46757D03*
X28526Y69406D03*
X39643Y34217D03*
X23526Y69406D03*
X50648Y69126D03*
X50578Y65625D03*
X57571Y128602D03*
Y124664D03*
X12994Y116490D03*
X13526Y109408D03*
X63079Y133816D03*
X59535Y137616D03*
X20830Y116490D03*
X20866Y177401D03*
X12676Y187756D03*
X27165Y224095D03*
X41339D03*
X34252D03*
X48425D03*
X55512D03*
X62598D03*
X20866Y198111D03*
X60236Y213621D03*
X29528Y224095D03*
X31890D03*
X57874Y213621D03*
X28346Y256379D03*
X40157D03*
X35433D03*
X47244D03*
X54331D03*
X61417D03*
X30709Y245905D03*
X33071D03*
X63780D03*
X59055D03*
X56693D03*
X81312Y55606D03*
X68319Y63201D03*
X123057Y34354D03*
X126857Y37898D03*
X106265Y66027D03*
X112061Y55996D03*
X108792Y51940D03*
X105523Y55996D03*
X108792Y60052D03*
X112099Y12570D03*
Y23044D03*
X108437Y17807D03*
X115761D03*
X135914Y24373D03*
X131976D03*
X139852Y32787D03*
X135914D03*
X131976D03*
X74908Y54541D03*
X85642Y54591D03*
X70346Y68570D03*
X80149Y128622D03*
X97843Y138674D03*
X113390Y146795D03*
X101016Y142578D03*
X112749Y131450D03*
X112508Y119291D03*
X79571Y124684D03*
X102386Y70358D03*
X133013Y97843D03*
X128740Y112508D03*
X97843Y114702D03*
X140290Y101071D03*
X124467D03*
X101071Y106156D03*
X108075Y75477D03*
X127506Y146674D03*
X125228Y144347D03*
X127506Y142020D03*
X125228Y139693D03*
X127506Y137366D03*
X125228Y135039D03*
X101071Y138674D03*
X133013Y101071D03*
X101071Y114702D03*
X140290Y97843D03*
X124467D03*
X97843Y106156D03*
Y129829D03*
Y142578D03*
X101071Y156751D03*
X127652Y202157D03*
X119106D03*
X128740Y188070D03*
X112508Y163386D03*
X88583Y224095D03*
X102756D03*
X111930Y180709D03*
X97843Y151124D03*
Y184619D03*
Y165297D03*
X109843Y224095D03*
X95669D03*
X81496D03*
X69685D03*
X105118Y213621D03*
X107480D03*
X125883Y180797D03*
X129470Y178475D03*
X133980Y180282D03*
X137000Y175832D03*
X138634Y180282D03*
X120218Y173516D03*
X117940Y171189D03*
X120218Y168862D03*
X117552Y166035D03*
X120198Y162422D03*
X117920Y160095D03*
X120198Y157768D03*
X117920Y155441D03*
X120198Y153114D03*
X117920Y150787D03*
X125228Y149001D03*
X74409Y213621D03*
X72047D03*
X67323D03*
X64961D03*
X127652Y198929D03*
X101071Y184619D03*
Y165297D03*
Y151124D03*
X97843Y176073D03*
Y156751D03*
X119106Y198929D03*
X89764Y256379D03*
X68504D03*
X75591D03*
X82677D03*
X96850D03*
X92126Y280933D03*
X141732Y282924D03*
X139370Y282995D03*
X134646Y282948D03*
X129578Y282883D03*
X125168Y282994D03*
X121387Y282715D03*
X117478Y282647D03*
X113887Y282308D03*
X106299Y282184D03*
X101575Y266484D03*
X99213Y282229D03*
X94488Y282167D03*
X87402Y245905D03*
X85039D03*
X80315D03*
X73228D03*
X70866D03*
X66142D03*
X103937D03*
X218481Y44266D03*
X204160Y17394D03*
X144968Y47045D03*
Y42045D03*
X149995Y42326D03*
X154968Y42045D03*
Y47045D03*
Y52045D03*
X149968D03*
X144968D03*
X150000Y47000D03*
X156210Y26677D03*
X184162Y44241D03*
Y39517D03*
X195757Y25776D03*
X188041Y47820D03*
X187863Y52235D03*
X219982Y60598D03*
X198363Y11644D03*
X194897Y6407D03*
X201829D03*
X150778Y31646D03*
X147681Y27456D03*
X171361Y43063D03*
X167667Y30257D03*
X163830Y34005D03*
X167667Y37753D03*
X143790Y32787D03*
X160402Y34168D03*
X163700Y37439D03*
X176899Y34005D03*
X180069Y37175D03*
Y30835D03*
X195746Y21332D03*
X174812Y17394D03*
X220043Y5534D03*
X166751Y126646D03*
X171405D03*
X162097D03*
X159770Y124368D03*
X157443Y126646D03*
X187532Y124852D03*
X169685Y112508D03*
X202157Y131502D03*
X187355Y140584D03*
X220427Y124918D03*
Y74791D03*
Y97644D03*
X158661Y112508D03*
X176958Y97843D03*
X162935D03*
X202157Y143250D03*
X148836Y97843D03*
X146063Y112508D03*
X154389Y101071D03*
X180134Y103863D03*
X164424Y124368D03*
X208304Y88202D03*
Y83202D03*
X213304D03*
Y88202D03*
X203304Y83202D03*
Y88202D03*
X205328Y123623D03*
X181746Y127165D03*
X179468Y129492D03*
X181746Y131819D03*
X179468Y134146D03*
X182622Y136473D03*
X179468Y138800D03*
X181746Y141127D03*
X177116Y80618D03*
X169078Y124368D03*
X198929Y131502D03*
Y143198D03*
X148836Y101071D03*
X176958D03*
X193213Y100847D03*
X190063D03*
Y97697D03*
X193213D03*
X162935Y101071D03*
X202157Y147301D03*
X198958Y122883D03*
X193313Y91547D03*
X190163D03*
Y94697D03*
X193313D03*
X154389Y97843D03*
X168412D03*
X202157Y134704D03*
X164654Y88695D03*
X162095Y117437D03*
X168661Y88695D03*
X165806Y117424D03*
X177917Y144175D03*
X175639Y146502D03*
X177917Y148829D03*
X215305Y150467D03*
X182433Y155512D03*
X215305Y154405D03*
X180155Y157839D03*
X215305Y158343D03*
X182433Y160166D03*
X215305Y162281D03*
X180379Y162493D03*
X182779Y164981D03*
X215305Y166219D03*
X150245Y204461D03*
X163346D03*
X143019Y187046D03*
X170038Y187231D03*
X162974Y186982D03*
X165857Y184341D03*
X186746Y152213D03*
X202157Y155847D03*
X198929Y159901D03*
X218504Y224095D03*
X211417D03*
X204331D03*
X185433D03*
X192520D03*
X197244D03*
X186279Y165747D03*
X202157Y168447D03*
X210150Y186836D03*
X175160Y204461D03*
X171222D03*
X155470D03*
X159408D03*
X146307D03*
X167284D03*
X180279Y211080D03*
X145466Y172295D03*
X145508Y180186D03*
X149392Y176427D03*
X187795Y211438D03*
X190157Y213621D03*
X199606D03*
X201969D03*
X206693D03*
X216142D03*
X213780D03*
X209055D03*
X149213Y181477D03*
X151540Y179199D03*
X153867Y181477D03*
X156194Y179199D03*
X160848D03*
X163175Y181477D03*
X158521D03*
X163436Y207248D03*
X157439Y207237D03*
X152454Y196426D03*
X150214Y206861D03*
X202157Y159901D03*
X175639Y151156D03*
X177917Y153483D03*
X184252Y256379D03*
X191339D03*
X198425D03*
X205512D03*
X212598D03*
X217323D03*
X146457Y245905D03*
X148819D03*
X153543D03*
X155906D03*
X162992D03*
X167717D03*
X160630D03*
X165310Y256558D03*
X233481Y44266D03*
X228481D03*
X223481D03*
X259969Y70282D03*
X228323Y69258D03*
X259851Y60598D03*
X263789D03*
X271665D03*
X267727D03*
X223920D03*
X234100Y58294D03*
X255913Y60598D03*
X271495Y5534D03*
X267557D03*
X263619D03*
X259681D03*
X231857D03*
X227919D03*
X223981D03*
X255743D03*
X254079Y43688D03*
X259079D03*
X264079D03*
X269079D03*
X274079D03*
X259969Y92557D03*
X244541Y78413D03*
X244529Y101266D03*
X227711Y119944D03*
X224365Y124918D03*
X259969Y120409D03*
X255638Y124288D03*
X224365Y74791D03*
X224054Y97347D03*
X228326Y92092D03*
X255638Y74161D03*
X255621Y97014D03*
X244529Y129118D03*
X223141Y154405D03*
X279134Y177401D03*
Y198111D03*
X287324Y187756D03*
X237402Y224095D03*
X232677D03*
X225591D03*
X244488D03*
X251575D03*
X258661D03*
X265748D03*
X270472Y213621D03*
X268110D03*
X263386D03*
X261024D03*
X253937D03*
X249213D03*
X246850D03*
X242126D03*
X223141Y150467D03*
Y158343D03*
Y162281D03*
Y166219D03*
X224409Y256379D03*
X231496D03*
X238583D03*
X245669D03*
X252756D03*
X257480D03*
X264567D03*
G54D44*
G01X68319Y59342D02*
Y63201D01*
G54D17*
X28526Y73659D03*
X23526D03*
X18526D03*
X13526D03*
Y105155D03*
X18526D03*
X23526D03*
X28526D03*
G54D35*
X198363Y6407D03*
X180843D03*
G54D26*
X108071Y116142D03*
Y117717D03*
Y119291D03*
Y120866D03*
Y122441D03*
Y124016D03*
Y125591D03*
Y127165D03*
Y128740D03*
Y130315D03*
Y131890D03*
Y133465D03*
Y135039D03*
Y136614D03*
Y138189D03*
Y139764D03*
Y141339D03*
Y142913D03*
Y144488D03*
Y146063D03*
Y147638D03*
Y149213D03*
Y150787D03*
Y152362D03*
Y153937D03*
Y155512D03*
Y157087D03*
Y158661D03*
Y160236D03*
Y161811D03*
Y163386D03*
Y164961D03*
Y166535D03*
Y168110D03*
Y169685D03*
Y171260D03*
Y172835D03*
Y174409D03*
Y175984D03*
Y177559D03*
Y179134D03*
Y180709D03*
Y182283D03*
Y183858D03*
X191929Y146063D03*
Y144488D03*
Y142913D03*
Y141339D03*
Y139764D03*
Y138189D03*
Y136614D03*
Y135039D03*
Y133465D03*
Y131890D03*
Y130315D03*
Y128740D03*
Y127165D03*
Y125591D03*
Y124016D03*
Y122441D03*
Y120866D03*
Y119291D03*
Y117717D03*
Y116142D03*
Y183858D03*
Y182283D03*
Y180709D03*
Y179134D03*
Y177559D03*
Y175984D03*
Y174409D03*
Y172835D03*
Y171260D03*
Y169685D03*
Y168110D03*
Y166535D03*
Y164961D03*
Y163386D03*
Y161811D03*
Y160236D03*
Y158661D03*
Y157087D03*
Y155512D03*
Y153937D03*
Y152362D03*
Y150787D03*
Y149213D03*
Y147638D03*
G54D45*
G01X4500Y0D02*
X295500D01*
G03X300000Y4500I0J4500D01*
G01Y295500D01*
G03X295500Y300000I-4500J0D01*
G01X4500D01*
G03X0Y295500I0J-4500D01*
G01Y4500D01*
G03X4500Y0I4500J0D01*
G54D18*
X59535Y133816D03*
X52921D03*
X104531Y75477D03*
X97917D03*
X192510Y34005D03*
X185896D03*
X197293Y93100D03*
X203907D03*
X197293Y99400D03*
X203907D03*
X206606Y186836D03*
X199992D03*
X206606Y172660D03*
X199992D03*
G54D27*
X139764Y108071D03*
X138189D03*
X136614D03*
X135039D03*
X133465D03*
X131890D03*
X130315D03*
X128740D03*
X127165D03*
X125591D03*
X124016D03*
X122441D03*
X120866D03*
X119291D03*
X117717D03*
X116142D03*
Y191929D03*
X117717D03*
X119291D03*
X120866D03*
X122441D03*
X124016D03*
X125591D03*
X127165D03*
X128740D03*
X130315D03*
X131890D03*
X133465D03*
X135039D03*
X136614D03*
X138189D03*
X139764D03*
X183858Y108071D03*
X182283D03*
X180709D03*
X179134D03*
X177559D03*
X175984D03*
X174409D03*
X172835D03*
X171260D03*
X169685D03*
X168110D03*
X166535D03*
X164961D03*
X163386D03*
X161811D03*
X160236D03*
X158661D03*
X157087D03*
X155512D03*
X153937D03*
X152362D03*
X150787D03*
X149213D03*
X147638D03*
X146063D03*
X144488D03*
X142913D03*
X141339D03*
Y191929D03*
X142913D03*
X144488D03*
X146063D03*
X147638D03*
X149213D03*
X150787D03*
X152362D03*
X153937D03*
X155512D03*
X157087D03*
X158661D03*
X160236D03*
X161811D03*
X163386D03*
X164961D03*
X166535D03*
X168110D03*
X169685D03*
X171260D03*
X172835D03*
X174409D03*
X175984D03*
X177559D03*
X179134D03*
X180709D03*
X182283D03*
X183858D03*
G54D36*
X197193Y111719D03*
X197214Y107206D03*
G54D46*
G01X81312Y55606D02*
X73176Y47470D01*
X33950D01*
X13526Y67894D01*
Y73659D01*
G01X55327Y59342D02*
Y65342D01*
G01X59658Y59342D02*
Y65342D01*
G01X39585Y23726D02*
Y26723D01*
X39643Y26781D01*
Y28685D01*
G01X63989Y58161D02*
X55431Y49603D01*
X34910D01*
X16026Y68487D01*
Y79492D01*
X23526Y86992D01*
Y105155D01*
G01X50578Y65625D02*
X21859D01*
X18526Y68958D01*
Y73659D01*
G01X52039Y85801D02*
X48899Y82661D01*
Y77405D01*
G01X60236Y213621D02*
Y211921D01*
X48387Y200072D01*
Y160041D01*
X52598Y155830D01*
Y154698D01*
X51740Y153840D01*
Y152708D01*
X52871Y151577D01*
X54003D01*
X54861Y152435D01*
X55993D01*
X57124Y151304D01*
Y150172D01*
X56266Y149314D01*
Y148182D01*
X57397Y147051D01*
X58529D01*
X59387Y147909D01*
X60519D01*
X61650Y146778D01*
Y145646D01*
X60792Y144788D01*
Y143656D01*
X61923Y142525D01*
X63055D01*
X63913Y143383D01*
X65045D01*
X66176Y142252D01*
Y141120D01*
X65318Y140262D01*
Y139130D01*
X66449Y137999D01*
X67581D01*
X68439Y138857D01*
X69571D01*
X70702Y137726D01*
Y136594D01*
X69844Y135736D01*
Y134604D01*
X70975Y133473D01*
X72107D01*
X72965Y134331D01*
X74097D01*
X75393Y133035D01*
X81563D01*
X94777Y119821D01*
X101728D01*
X104348Y122441D01*
X108071D01*
G01X57874Y213621D02*
X45352Y201099D01*
Y191588D01*
X44552Y190788D01*
X42897D01*
X42097Y189988D01*
Y188388D01*
X42897Y187588D01*
X44552D01*
X45352Y186788D01*
Y185188D01*
X44552Y184388D01*
X42897D01*
X42097Y183588D01*
Y181988D01*
X42897Y181188D01*
X44552D01*
X45352Y180388D01*
Y178788D01*
X44552Y177988D01*
X42897D01*
X42097Y177188D01*
Y175588D01*
X42897Y174788D01*
X44552D01*
X45352Y173988D01*
Y155513D01*
X69634Y131231D01*
X80766D01*
X94324Y117673D01*
X101419D01*
X104612Y120866D01*
X108071D01*
G01X52039Y124664D02*
Y115801D01*
G01Y128602D02*
Y124664D01*
G01X52921Y133816D02*
Y129484D01*
X52039Y128602D01*
G01Y115801D02*
X46118Y109880D01*
Y76905D01*
X47522Y75501D01*
X50276D01*
X50803Y76028D01*
Y76081D01*
X52127Y77405D01*
G01X50648Y69126D02*
X41052D01*
X28526Y81652D01*
Y105155D01*
G01X72047Y213621D02*
X65926Y207500D01*
Y206200D01*
X66726Y205400D01*
X67902D01*
X68702Y204600D01*
Y203000D01*
X67902Y202200D01*
X66726D01*
X65926Y201400D01*
Y199800D01*
X66726Y199000D01*
X67902D01*
X68702Y198200D01*
Y196600D01*
X67902Y195800D01*
X66726D01*
X65926Y195000D01*
Y179358D01*
X58653Y172085D01*
Y169093D01*
X59453Y168293D01*
X61583D01*
X62714Y167162D01*
Y166030D01*
X61625Y164941D01*
Y163809D01*
X62756Y162678D01*
X63888D01*
X64977Y163767D01*
X66109D01*
X67240Y162636D01*
Y161504D01*
X66151Y160415D01*
Y159283D01*
X67282Y158152D01*
X68414D01*
X69503Y159241D01*
X70635D01*
X71766Y158110D01*
Y156978D01*
X70677Y155889D01*
Y154757D01*
X71808Y153626D01*
X72940D01*
X74029Y154715D01*
X75161D01*
X76292Y153584D01*
Y152452D01*
X75203Y151363D01*
Y150231D01*
X76334Y149100D01*
X77466D01*
X78555Y150189D01*
X79687D01*
X80818Y149058D01*
Y147926D01*
X79729Y146837D01*
Y145705D01*
X80860Y144574D01*
X81992D01*
X83081Y145663D01*
X84213D01*
X85344Y144532D01*
Y143400D01*
X84255Y142311D01*
Y141179D01*
X85386Y140048D01*
X86518D01*
X87607Y141137D01*
X88739D01*
X90284Y139592D01*
Y132250D01*
X96527Y126007D01*
X102397D01*
X103555Y127165D01*
X108071D01*
G01X67323Y213621D02*
Y211921D01*
X62878Y207476D01*
Y192574D01*
X62078Y191774D01*
X60648D01*
X59848Y190974D01*
Y189374D01*
X60648Y188574D01*
X62078D01*
X62878Y187774D01*
Y186174D01*
X62078Y185374D01*
X60648D01*
X59848Y184574D01*
Y182974D01*
X60648Y182174D01*
X62078D01*
X62878Y181374D01*
Y180028D01*
X56112Y173262D01*
Y161091D01*
X57243Y159960D01*
X58375D01*
X59479Y161064D01*
X60611D01*
X61742Y159933D01*
Y158801D01*
X60638Y157697D01*
Y156565D01*
X61769Y155434D01*
X62901D01*
X64005Y156538D01*
X65137D01*
X66268Y155407D01*
Y154275D01*
X65164Y153171D01*
Y152039D01*
X66295Y150908D01*
X67427D01*
X68531Y152012D01*
X69663D01*
X70794Y150881D01*
Y149749D01*
X69690Y148645D01*
Y147513D01*
X70821Y146382D01*
X71953D01*
X73057Y147486D01*
X74189D01*
X75320Y146355D01*
Y145223D01*
X74216Y144119D01*
Y142987D01*
X75347Y141856D01*
X76479D01*
X77583Y142960D01*
X78715D01*
X79846Y141829D01*
Y140697D01*
X78742Y139593D01*
Y138461D01*
X79873Y137330D01*
X82765D01*
X96084Y124011D01*
X102240D01*
X103820Y125591D01*
X108071D01*
G01X64961Y213621D02*
X54013Y202673D01*
Y196115D01*
X53213Y195315D01*
X51726D01*
X50926Y194515D01*
Y192915D01*
X51726Y192115D01*
X53213D01*
X54013Y191315D01*
Y189715D01*
X53213Y188915D01*
X51726D01*
X50926Y188115D01*
Y186515D01*
X51726Y185715D01*
X53213D01*
X54013Y184915D01*
Y183315D01*
X53213Y182515D01*
X51726D01*
X50926Y181715D01*
Y180115D01*
X51726Y179315D01*
X53213D01*
X54013Y178515D01*
Y176915D01*
X53213Y176115D01*
X51726D01*
X50926Y175315D01*
Y173715D01*
X51726Y172915D01*
X53213D01*
X54013Y172115D01*
Y170515D01*
X53213Y169715D01*
X51726D01*
X50926Y168915D01*
Y167315D01*
X51726Y166515D01*
X53213D01*
X54013Y165715D01*
Y164115D01*
X53213Y163315D01*
X51726D01*
X50926Y162515D01*
Y160915D01*
X51726Y160115D01*
X53213D01*
X78432Y134896D01*
X82473D01*
X95420Y121949D01*
X102017D01*
X104084Y124016D01*
X108071D01*
G01X18504Y229770D02*
Y235000D01*
G01D02*
Y240230D01*
G01X13274Y235000D02*
X18504D01*
G01D02*
X23734D01*
G01X81312Y59342D02*
Y65342D01*
G01Y59342D02*
Y55606D01*
G01X133997Y47725D02*
X137154D01*
X137879Y47000D01*
X140551D01*
G01X72650Y59342D02*
Y65342D01*
G01X140551Y45031D02*
X137829D01*
X136585Y43787D01*
X133997D01*
G01X164654Y88695D02*
X166079Y87270D01*
Y79715D01*
X162405Y76041D01*
X141122D01*
X125306Y60225D01*
Y47067D01*
X128586Y43787D01*
X130769D01*
G01X168661Y88695D02*
X167279Y87313D01*
Y79217D01*
X162903Y74841D01*
X141620D01*
X126506Y59727D01*
Y48525D01*
X127306Y47725D01*
X130769D01*
G01X89973Y59342D02*
Y65342D01*
G01X63989Y59342D02*
Y65342D01*
G01X74908Y54541D02*
X67609D01*
X63989Y58161D01*
G01D02*
Y59342D01*
G01X85642D02*
Y65342D01*
G01Y59342D02*
Y54591D01*
G01X77267Y128622D02*
X80149D01*
G01X74039D02*
Y124684D01*
G01X82039Y115801D02*
X77989D01*
X74039Y119751D01*
Y124684D01*
G01X101071Y132133D02*
X100736Y132468D01*
Y133125D01*
X97895Y135966D01*
Y136019D01*
X97843Y136071D01*
G01X113390Y146795D02*
X110972Y149213D01*
X108071D01*
G01X112749Y131450D02*
X110734Y133465D01*
X108071D01*
G01Y119291D02*
X112508D01*
G01X128740Y108071D02*
Y112508D01*
G01X82039Y81949D02*
Y85801D01*
G01D02*
Y89653D01*
G01X78187Y85801D02*
X82039D01*
G01D02*
X85891D01*
G01X131890Y108071D02*
Y112253D01*
X129769Y114374D01*
X127823D01*
X125312Y111863D01*
X124012D01*
X123212Y112663D01*
Y113569D01*
X122412Y114369D01*
X120812D01*
X120012Y113569D01*
Y112663D01*
X119212Y111863D01*
X116203D01*
X114378Y113688D01*
Y114988D01*
X115178Y115788D01*
X115307D01*
X116107Y116588D01*
Y118188D01*
X115307Y118988D01*
X115178D01*
X114378Y119788D01*
Y121684D01*
X113578Y122484D01*
X112774D01*
X111974Y123284D01*
Y124884D01*
X112774Y125684D01*
X113845D01*
X114645Y126484D01*
Y130662D01*
X116213Y132230D01*
X125978D01*
X129861Y136113D01*
Y171046D01*
X108901Y192006D01*
Y207828D01*
X105118Y211611D01*
Y213621D01*
G01X107480D02*
X112381Y208720D01*
Y190750D01*
X132537Y170594D01*
Y126541D01*
X130219Y124223D01*
X126993D01*
X121567Y129649D01*
X120015D01*
X119215Y128849D01*
Y127095D01*
X121037Y125273D01*
Y124140D01*
X118890Y121993D01*
Y120863D01*
X120023Y119730D01*
X121153D01*
X123904Y122482D01*
X125034D01*
X126167Y121349D01*
Y120219D01*
X123416Y117467D01*
Y116337D01*
X124549Y115204D01*
X125678D01*
X128212Y117738D01*
X129778D01*
X133465Y114051D01*
Y108071D01*
G01X125883Y180797D02*
X127156Y179524D01*
Y178243D01*
X135039Y170360D01*
Y108071D01*
G01X129470Y178475D02*
X136614Y171331D01*
Y108071D01*
G01X138189D02*
Y172086D01*
X133980Y176295D01*
Y180282D01*
G01X137000Y175832D02*
X139764Y173068D01*
Y108071D01*
G01X125228Y149001D02*
X118642D01*
X114129Y144488D01*
X108071D01*
G01X127506Y146674D02*
X119421D01*
X115660Y142913D01*
X108071D01*
G01X125228Y144347D02*
X120220D01*
X117212Y141339D01*
X108071D01*
G01X127506Y142020D02*
X121085D01*
X118829Y139764D01*
X108071D01*
G01X125228Y139693D02*
X121784D01*
X120280Y138189D01*
X108071D01*
G01X127506Y137366D02*
X123537D01*
X122785Y136614D01*
X108071D01*
G01Y135039D02*
X125228D01*
G01X74409Y213621D02*
Y211921D01*
X71828Y209340D01*
Y194019D01*
X71028Y193219D01*
X69533D01*
X68733Y192419D01*
Y190819D01*
X69533Y190019D01*
X71028D01*
X71828Y189219D01*
Y187619D01*
X71028Y186819D01*
X69533D01*
X68733Y186019D01*
Y184419D01*
X69533Y183619D01*
X71028D01*
X71828Y182819D01*
Y181519D01*
X62641Y172332D01*
Y171200D01*
X63772Y170069D01*
X64904D01*
X66456Y171621D01*
X67588D01*
X68719Y170490D01*
Y169358D01*
X67167Y167806D01*
Y166674D01*
X68298Y165543D01*
X69430D01*
X70982Y167095D01*
X72114D01*
X73245Y165964D01*
Y164832D01*
X71693Y163280D01*
Y162148D01*
X72824Y161017D01*
X73956D01*
X75508Y162569D01*
X76640D01*
X77771Y161438D01*
Y160306D01*
X76219Y158754D01*
Y157622D01*
X77350Y156491D01*
X78482D01*
X80034Y158043D01*
X81166D01*
X82297Y156912D01*
Y155780D01*
X80745Y154228D01*
Y153096D01*
X81876Y151965D01*
X83008D01*
X84560Y153517D01*
X85692D01*
X86823Y152386D01*
Y151254D01*
X85271Y149702D01*
Y148570D01*
X86402Y147439D01*
X87534D01*
X89086Y148991D01*
X90218D01*
X92913Y146296D01*
Y131925D01*
X97046Y127792D01*
X101875D01*
X102823Y128740D01*
X108071D01*
G01Y131890D02*
X105252D01*
X101071Y136071D01*
G01X130709Y101071D02*
Y104218D01*
X130315Y104612D01*
Y108071D01*
G01X108071Y117717D02*
X104430D01*
X103629Y116916D01*
Y113052D01*
X102975Y112398D01*
X101071D01*
G01X108071Y146063D02*
X105343D01*
X104133Y144853D01*
Y142485D01*
X102325Y140677D01*
X99744D01*
X97843Y142578D01*
G01X108071Y130315D02*
X102518D01*
X102032Y129829D01*
X97843D01*
G01Y156751D02*
X95678Y154586D01*
Y143378D01*
X96478Y142578D01*
X97843D01*
G01X140290Y97843D02*
X138390Y99743D01*
Y101859D01*
X138777Y102246D01*
Y102323D01*
X140161Y103707D01*
X143583D01*
X144488Y104612D01*
Y108071D01*
G01X124467Y97843D02*
X122241Y100069D01*
Y102438D01*
X123567Y103764D01*
X125930D01*
X127165Y104999D01*
Y108071D01*
G01X97843Y106156D02*
Y105235D01*
X98942Y104136D01*
X101717D01*
X102165Y104139D01*
X103810Y105784D01*
Y109724D01*
X107496Y113410D01*
X111710D01*
X112510Y114210D01*
Y115342D01*
X111710Y116142D01*
X108071D01*
G01X72650Y68570D02*
X70346D01*
G01X128740Y188070D02*
Y191929D01*
G01X108071Y163386D02*
X112508D01*
G01X108071Y180709D02*
X111930D01*
G01X101071Y178377D02*
Y179034D01*
X97843Y182262D01*
Y182315D01*
G01X108071Y172835D02*
X105380D01*
X102969Y170424D01*
X93194D01*
X85762Y177856D01*
Y241618D01*
X83217Y244163D01*
Y246872D01*
X86237Y249892D01*
Y275044D01*
X92126Y280933D01*
G01X141339Y108071D02*
Y186321D01*
X139546Y188114D01*
X132009D01*
X130079Y186184D01*
X127343D01*
X126543Y185384D01*
Y183625D01*
X127343Y182825D01*
X137834D01*
X138634Y182025D01*
Y180282D01*
G01X134646Y282948D02*
Y281248D01*
X135446Y280448D01*
X136547D01*
X137347Y279648D01*
Y278048D01*
X136547Y277248D01*
X135446D01*
X134646Y276448D01*
Y274848D01*
X135446Y274048D01*
X136547D01*
X137347Y273248D01*
Y271648D01*
X136547Y270848D01*
X135446D01*
X134646Y270048D01*
Y268448D01*
X135446Y267648D01*
X136547D01*
X137347Y266848D01*
Y265248D01*
X136547Y264448D01*
X135446D01*
X134646Y263648D01*
Y251555D01*
X135446Y250755D01*
X137420D01*
X138220Y249955D01*
Y248355D01*
X137420Y247555D01*
X135446D01*
X134646Y246755D01*
Y245155D01*
X135446Y244355D01*
X137420D01*
X138220Y243555D01*
Y241955D01*
X137420Y241155D01*
X135446D01*
X134646Y240355D01*
Y238755D01*
X135446Y237955D01*
X137420D01*
X138220Y237155D01*
Y235555D01*
X137420Y234755D01*
X135446D01*
X134646Y233955D01*
Y232355D01*
X135446Y231555D01*
X137420D01*
X138220Y230755D01*
Y229155D01*
X137420Y228355D01*
X135446D01*
X134646Y227555D01*
Y225955D01*
X135446Y225155D01*
X137420D01*
X138220Y224355D01*
Y222755D01*
X137420Y221955D01*
X135446D01*
X134646Y221155D01*
Y218769D01*
X139764Y213651D01*
Y191929D01*
G01X129578Y282883D02*
Y276738D01*
X130378Y275938D01*
X131759D01*
X132559Y275138D01*
Y273538D01*
X131759Y272738D01*
X130378D01*
X129578Y271938D01*
Y270338D01*
X130378Y269538D01*
X131759D01*
X132559Y268738D01*
Y267138D01*
X131759Y266338D01*
X130378D01*
X129578Y265538D01*
Y263938D01*
X130378Y263138D01*
X131759D01*
X132559Y262338D01*
Y260738D01*
X131759Y259938D01*
X130378D01*
X129578Y259138D01*
Y257538D01*
X130378Y256738D01*
X131759D01*
X132559Y255938D01*
Y254338D01*
X131759Y253538D01*
X130378D01*
X129578Y252738D01*
Y251138D01*
X130378Y250338D01*
X131759D01*
X132559Y249538D01*
Y247938D01*
X131759Y247138D01*
X130378D01*
X129578Y246338D01*
Y244738D01*
X130378Y243938D01*
X131759D01*
X132559Y243138D01*
Y241538D01*
X131759Y240738D01*
X130378D01*
X129578Y239938D01*
Y238338D01*
X130378Y237538D01*
X131759D01*
X132559Y236738D01*
Y235138D01*
X131759Y234338D01*
X130378D01*
X129578Y233538D01*
Y231938D01*
X130378Y231138D01*
X131759D01*
X132559Y230338D01*
Y228738D01*
X131759Y227938D01*
X130378D01*
X129578Y227138D01*
Y221253D01*
X138189Y212642D01*
Y191929D01*
G01X125168Y282994D02*
Y273573D01*
X127003Y271738D01*
Y270438D01*
X126203Y269638D01*
X124677D01*
X123877Y268838D01*
Y267238D01*
X124677Y266438D01*
X126203D01*
X127003Y265638D01*
Y264038D01*
X126203Y263238D01*
X124677D01*
X123877Y262438D01*
Y260838D01*
X124677Y260038D01*
X126203D01*
X127003Y259238D01*
Y257638D01*
X126203Y256838D01*
X124677D01*
X123877Y256038D01*
Y254438D01*
X124677Y253638D01*
X126203D01*
X127003Y252838D01*
Y251238D01*
X126203Y250438D01*
X124677D01*
X123877Y249638D01*
Y248038D01*
X124677Y247238D01*
X126203D01*
X127003Y246438D01*
Y244838D01*
X126203Y244038D01*
X124677D01*
X123877Y243238D01*
Y241638D01*
X124677Y240838D01*
X126203D01*
X127003Y240038D01*
Y238438D01*
X126203Y237638D01*
X124677D01*
X123877Y236838D01*
Y235238D01*
X124677Y234438D01*
X126203D01*
X127003Y233638D01*
Y232038D01*
X126203Y231238D01*
X124677D01*
X123877Y230438D01*
Y228838D01*
X124677Y228038D01*
X126203D01*
X127003Y227238D01*
Y220264D01*
X136614Y210653D01*
Y191929D01*
G01X121387Y282715D02*
Y280849D01*
X120587Y280049D01*
X120431D01*
X119631Y279249D01*
Y277649D01*
X120431Y276849D01*
X120587D01*
X121387Y276049D01*
Y271485D01*
X120587Y270685D01*
X119441D01*
X118641Y269885D01*
Y268285D01*
X119441Y267485D01*
X120587D01*
X121387Y266685D01*
Y265085D01*
X120587Y264285D01*
X119441D01*
X118641Y263485D01*
Y261885D01*
X119441Y261085D01*
X120587D01*
X121387Y260285D01*
Y258685D01*
X120587Y257885D01*
X119441D01*
X118641Y257085D01*
Y255485D01*
X119441Y254685D01*
X120587D01*
X121387Y253885D01*
Y252285D01*
X120587Y251485D01*
X119441D01*
X118641Y250685D01*
Y249085D01*
X119441Y248285D01*
X120587D01*
X121387Y247485D01*
Y245885D01*
X120587Y245085D01*
X119441D01*
X118641Y244285D01*
Y242685D01*
X119441Y241885D01*
X120587D01*
X121387Y241085D01*
Y239485D01*
X120587Y238685D01*
X119441D01*
X118641Y237885D01*
Y236285D01*
X119441Y235485D01*
X120587D01*
X121387Y234685D01*
Y233085D01*
X120587Y232285D01*
X119441D01*
X118641Y231485D01*
Y229885D01*
X119441Y229085D01*
X120587D01*
X121387Y228285D01*
Y226685D01*
X120587Y225885D01*
X119441D01*
X118641Y225085D01*
Y223485D01*
X119441Y222685D01*
X121036D01*
X135039Y208682D01*
Y191929D01*
G01X117478Y282647D02*
X115475Y280644D01*
Y279219D01*
X114675Y278419D01*
X113437D01*
X112637Y277619D01*
Y276019D01*
X113437Y275219D01*
X114675D01*
X115475Y274419D01*
Y272819D01*
X114675Y272019D01*
X113437D01*
X112637Y271219D01*
Y269619D01*
X113437Y268819D01*
X114675D01*
X115475Y268019D01*
Y266419D01*
X114675Y265619D01*
X113437D01*
X112637Y264819D01*
Y263219D01*
X113437Y262419D01*
X114675D01*
X115475Y261619D01*
Y260019D01*
X114675Y259219D01*
X113437D01*
X112637Y258419D01*
Y256819D01*
X113437Y256019D01*
X114675D01*
X115475Y255219D01*
Y253619D01*
X114675Y252819D01*
X113437D01*
X112637Y252019D01*
Y250419D01*
X113437Y249619D01*
X114675D01*
X115475Y248819D01*
Y247219D01*
X114675Y246419D01*
X113437D01*
X112637Y245619D01*
Y244019D01*
X113437Y243219D01*
X114675D01*
X115475Y242419D01*
Y240819D01*
X114675Y240019D01*
X113437D01*
X112637Y239219D01*
Y237619D01*
X113437Y236819D01*
X114675D01*
X115475Y236019D01*
Y234419D01*
X114675Y233619D01*
X113437D01*
X112637Y232819D01*
Y231219D01*
X113437Y230419D01*
X114675D01*
X115475Y229619D01*
Y224189D01*
X133465Y206199D01*
Y191929D01*
G01X113887Y282308D02*
Y284052D01*
X113087Y284852D01*
X110939D01*
X110139Y284052D01*
Y277542D01*
X109339Y276742D01*
X107744D01*
X106944Y275942D01*
Y274342D01*
X107744Y273542D01*
X109339D01*
X110139Y272742D01*
Y271142D01*
X109339Y270342D01*
X107744D01*
X106944Y269542D01*
Y267942D01*
X107744Y267142D01*
X109339D01*
X110139Y266342D01*
Y264742D01*
X109339Y263942D01*
X107744D01*
X106944Y263142D01*
Y261542D01*
X107744Y260742D01*
X109339D01*
X110139Y259942D01*
Y258342D01*
X109339Y257542D01*
X107744D01*
X106944Y256742D01*
Y255142D01*
X107744Y254342D01*
X109339D01*
X110139Y253542D01*
Y251942D01*
X109339Y251142D01*
X107744D01*
X106944Y250342D01*
Y248742D01*
X107744Y247942D01*
X109339D01*
X110139Y247142D01*
Y226848D01*
X131890Y205097D01*
Y191929D01*
G01X130315D02*
Y203198D01*
X128835Y204678D01*
X122212D01*
X120869Y206021D01*
Y207151D01*
X122228Y208509D01*
Y209639D01*
X121095Y210772D01*
X119965D01*
X118606Y209414D01*
X117476D01*
X116343Y210547D01*
Y211677D01*
X117702Y213035D01*
Y214165D01*
X116569Y215298D01*
X115439D01*
X114080Y213940D01*
X112950D01*
X111817Y215073D01*
Y216203D01*
X113176Y217561D01*
Y218691D01*
X112043Y219824D01*
X110913D01*
X109554Y218466D01*
X108424D01*
X107579Y219311D01*
Y244912D01*
X104290Y248201D01*
Y277491D01*
X101855Y279926D01*
Y285187D01*
X102655Y285987D01*
X105499D01*
X106299Y285187D01*
Y282184D01*
G01X101575Y266484D02*
Y267647D01*
X100775Y268447D01*
X99642D01*
X98842Y267647D01*
Y260091D01*
X99642Y259291D01*
X100775D01*
X101575Y258491D01*
Y256891D01*
X100775Y256091D01*
X99566D01*
X98766Y255291D01*
Y253691D01*
X99566Y252891D01*
X100775D01*
X101575Y252091D01*
Y250491D01*
X100775Y249691D01*
X99566D01*
X98766Y248891D01*
Y247291D01*
X99566Y246491D01*
X100775D01*
X101575Y245691D01*
Y244205D01*
X100118Y242748D01*
Y236644D01*
X99318Y235844D01*
X97552D01*
X96752Y235044D01*
Y233444D01*
X97552Y232644D01*
X99318D01*
X100118Y231844D01*
Y230244D01*
X99318Y229444D01*
X97552D01*
X96752Y228644D01*
Y227044D01*
X99921Y223875D01*
Y220368D01*
X99121Y219568D01*
X96561D01*
X95761Y218768D01*
Y217168D01*
X96561Y216368D01*
X99121D01*
X99921Y215568D01*
Y213968D01*
X99121Y213168D01*
X96561D01*
X95761Y212368D01*
Y210768D01*
X96561Y209968D01*
X99121D01*
X99921Y209168D01*
Y207568D01*
X99121Y206768D01*
X96561D01*
X95761Y205968D01*
Y204368D01*
X96561Y203568D01*
X99121D01*
X99921Y202768D01*
Y201168D01*
X99121Y200368D01*
X96561D01*
X95761Y199568D01*
Y197968D01*
X96561Y197168D01*
X99121D01*
X99921Y196368D01*
Y194768D01*
X99121Y193968D01*
X96561D01*
X95761Y193168D01*
Y191568D01*
X96561Y190768D01*
X99121D01*
X99921Y189968D01*
Y188668D01*
X103767Y184822D01*
Y183128D01*
X104612Y182283D01*
X108071D01*
G01X99213Y282229D02*
X94875Y277891D01*
Y242560D01*
X93360Y241045D01*
Y190183D01*
X95359Y188184D01*
Y186080D01*
X94558Y185279D01*
X92974D01*
X92040Y184345D01*
Y178520D01*
X96544Y174016D01*
X102259D01*
X104227Y175984D01*
X108071D01*
G01Y174409D02*
X104612D01*
X102423Y172220D01*
X94793D01*
X89129Y177884D01*
Y221884D01*
X91554Y224309D01*
Y255623D01*
X91564Y255633D01*
Y257125D01*
X91554Y257135D01*
Y277293D01*
X94488Y280227D01*
Y282167D01*
G01X120218Y173516D02*
X113786D01*
X111530Y171260D01*
X108071D01*
G01X117940Y171189D02*
X115162D01*
X113658Y169685D01*
X108071D01*
G01X120218Y168862D02*
X117045D01*
X116293Y168110D01*
X108071D01*
G01X117552Y166035D02*
X114232D01*
X113732Y166535D01*
X108071D01*
G01X73228Y245905D02*
Y243370D01*
X72428Y242570D01*
X70776D01*
X69976Y241770D01*
Y240170D01*
X70776Y239370D01*
X72428D01*
X73228Y238570D01*
Y236970D01*
X72428Y236170D01*
X70776D01*
X69976Y235370D01*
Y233770D01*
X70776Y232970D01*
X72428D01*
X73228Y232170D01*
Y230570D01*
X72428Y229770D01*
X70776D01*
X69976Y228970D01*
Y227370D01*
X70776Y226570D01*
X72428D01*
X73228Y225770D01*
Y218945D01*
X77074Y215099D01*
Y211423D01*
X75238Y209587D01*
Y178124D01*
X72002Y174888D01*
Y173756D01*
X73133Y172625D01*
X74265D01*
X75223Y173583D01*
X76355D01*
X77486Y172452D01*
Y171320D01*
X75422Y169256D01*
Y168124D01*
X76343Y167203D01*
X78234D01*
X79034Y166403D01*
Y163745D01*
X79834Y162945D01*
X81434D01*
X82234Y163745D01*
Y166403D01*
X83034Y167203D01*
X84634D01*
X85434Y166403D01*
Y163745D01*
X86234Y162945D01*
X87834D01*
X88634Y163745D01*
Y166403D01*
X89434Y167203D01*
X91034D01*
X91834Y166403D01*
Y163745D01*
X92634Y162945D01*
X94234D01*
X95034Y163745D01*
Y166403D01*
X95834Y167203D01*
X101891D01*
X104133Y164961D01*
X108071D01*
G01X120198Y162422D02*
X115291D01*
X111530Y158661D01*
X108071D01*
G01X117920Y160095D02*
X115420D01*
X112412Y157087D01*
X108071D01*
G01X120198Y157768D02*
X115687D01*
X113431Y155512D01*
X108071D01*
G01X117920Y155441D02*
X116220D01*
X114716Y153937D01*
X108071D01*
G01X120198Y153114D02*
X117126D01*
X116374Y152362D01*
X108071D01*
G01Y150787D02*
X117920D01*
G01X127165Y191929D02*
Y195876D01*
X125348Y197693D01*
Y198929D01*
G01X108071Y179134D02*
X104252D01*
X101071Y182315D01*
G01X108071Y161811D02*
X104157D01*
X102975Y162993D01*
X101071D01*
G01X108071Y147638D02*
X104157D01*
X102975Y148820D01*
X101071D01*
G01X108071Y160236D02*
X105060D01*
X104062Y159238D01*
Y156724D01*
X102148Y154810D01*
X99784D01*
X97843Y156751D01*
G01X108071Y177559D02*
X103672D01*
X102186Y176073D01*
X97843D01*
G01X125591Y191929D02*
Y194748D01*
X121410Y198929D01*
G01X103937Y245905D02*
Y244205D01*
X105222Y242920D01*
Y223500D01*
X102503Y220781D01*
Y209356D01*
X103303Y208556D01*
X104734D01*
X105534Y207756D01*
Y206156D01*
X104734Y205356D01*
X103303D01*
X102503Y204556D01*
Y202956D01*
X103303Y202156D01*
X104734D01*
X105534Y201356D01*
Y199756D01*
X104734Y198956D01*
X103303D01*
X102503Y198156D01*
Y196055D01*
X125055Y173503D01*
Y152663D01*
X124255Y151863D01*
X122862D01*
X122061Y152664D01*
Y174312D01*
X120577Y175796D01*
X114673D01*
X113775Y176694D01*
Y181613D01*
X111530Y183858D01*
X108071D01*
G01X139370Y282995D02*
Y279885D01*
X141377Y277878D01*
X143145D01*
X143945Y277078D01*
Y275478D01*
X143145Y274678D01*
X141377D01*
X140577Y273878D01*
Y272278D01*
X141377Y271478D01*
X143145D01*
X143945Y270678D01*
Y269078D01*
X143145Y268278D01*
X141377D01*
X140577Y267478D01*
Y265878D01*
X141377Y265078D01*
X143145D01*
X143945Y264278D01*
Y262678D01*
X143145Y261878D01*
X141377D01*
X140577Y261078D01*
Y259478D01*
X141377Y258678D01*
X143145D01*
X143945Y257878D01*
Y256278D01*
X143145Y255478D01*
X141377D01*
X140577Y254678D01*
Y253078D01*
X141377Y252278D01*
X143145D01*
X143945Y251478D01*
Y249878D01*
X143145Y249078D01*
X141377D01*
X140577Y248278D01*
Y246678D01*
X141377Y245878D01*
X143145D01*
X143945Y245078D01*
Y243478D01*
X143145Y242678D01*
X141377D01*
X140577Y241878D01*
Y240278D01*
X141377Y239478D01*
X143145D01*
X143945Y238678D01*
Y237078D01*
X143145Y236278D01*
X141377D01*
X140577Y235478D01*
Y233878D01*
X141377Y233078D01*
X143145D01*
X143945Y232278D01*
Y230678D01*
X143145Y229878D01*
X142139D01*
X141339Y229078D01*
Y191929D01*
G01X201856Y21332D02*
X205273D01*
X207193Y19412D01*
Y15400D01*
X206393Y14600D01*
X197379D01*
X189186Y6407D01*
X180843D01*
G01D02*
X177777D01*
X177176Y7008D01*
Y11657D01*
X178587Y13068D01*
X182548D01*
X185610Y16130D01*
Y17508D01*
G01X218481Y48066D02*
Y51661D01*
X219982Y53162D01*
Y55066D01*
G01X218481Y48066D02*
Y44266D01*
G01X149995Y42326D02*
X148031Y40362D01*
Y37551D01*
G01X150000Y20016D02*
Y28615D01*
X148276Y30339D01*
Y33155D01*
X150000Y34879D01*
Y37551D01*
G01X147681Y27456D02*
Y24683D01*
X147441Y24443D01*
Y20016D01*
G01X150778Y31646D02*
X150837Y32018D01*
X151969Y33171D01*
Y37551D01*
G01X153906Y29905D02*
X154990Y30989D01*
Y33826D01*
X153937Y34879D01*
Y37551D01*
G01X159449Y43063D02*
X165251D01*
G01X180344Y21332D02*
X182544D01*
X185610Y24398D01*
Y25776D01*
G01X180344Y17394D02*
Y21332D01*
G01X177116Y80618D02*
X173291Y76793D01*
Y25157D01*
X177116Y21332D01*
G01X220043Y11066D02*
Y13104D01*
X218481Y14666D01*
Y18066D01*
G01X166751Y126646D02*
Y159158D01*
X180428Y172835D01*
X191929D01*
G01X171405Y126646D02*
Y158857D01*
X182233Y169685D01*
X191929D01*
G01X162097Y126646D02*
Y159294D01*
X178787Y175984D01*
X191929D01*
G01X159770Y124368D02*
Y159330D01*
X177999Y177559D01*
X191929D01*
G01X157443Y126646D02*
Y159464D01*
X177113Y179134D01*
X191929D01*
G01X187532Y124852D02*
X188271Y125591D01*
X191929D01*
G01X169685Y108071D02*
Y112508D01*
G01X187355Y140584D02*
X188110Y141339D01*
X191929D01*
G01X158661Y108071D02*
Y112508D01*
G01X170716Y101071D02*
X171006D01*
X174234Y97843D01*
X174654D01*
G01X146063Y108071D02*
Y112508D01*
G01X198929Y137008D02*
Y137422D01*
X202157Y140650D01*
Y140946D01*
G01X191929Y168110D02*
X183251D01*
X173393Y158252D01*
Y145526D01*
X175639Y143280D01*
Y143231D01*
X176062Y142808D01*
Y123968D01*
X188311Y111719D01*
X197193D01*
G01X164424Y124368D02*
Y159061D01*
X179772Y174409D01*
X191929D01*
G01X180134Y103863D02*
X193871D01*
X197214Y107206D01*
G01X145466Y172295D02*
X142913Y169742D01*
Y108071D01*
G01X149213D02*
Y112180D01*
X144686Y116707D01*
Y166500D01*
X147269Y169083D01*
Y176725D01*
X145508Y178486D01*
Y180186D01*
G01X149392Y176427D02*
X151314D01*
X152512Y177625D01*
X153506D01*
X154134Y176997D01*
Y175865D01*
X148569Y170300D01*
Y169206D01*
X149051Y168724D01*
X150183D01*
X156087Y174628D01*
Y176340D01*
X157215Y177468D01*
X158357D01*
X159157Y176668D01*
Y175525D01*
X149423Y165791D01*
X149392D01*
X146516Y162915D01*
Y117364D01*
X150787Y113093D01*
Y108071D01*
G01X187795Y211438D02*
Y209177D01*
X188321Y208651D01*
Y207051D01*
X187521Y206251D01*
X186525D01*
X185725Y205451D01*
Y203851D01*
X186525Y203051D01*
X187521D01*
X188321Y202251D01*
Y200651D01*
X187521Y199851D01*
X186525D01*
X185725Y199051D01*
Y189542D01*
X184450Y188267D01*
X174572D01*
X148278Y161973D01*
Y118225D01*
X152362Y114141D01*
Y108071D01*
G01X190157Y213621D02*
X193605D01*
X195662Y211564D01*
Y210125D01*
X194862Y209325D01*
X192331D01*
X191531Y208525D01*
Y206925D01*
X192331Y206125D01*
X194862D01*
X195662Y205325D01*
Y203725D01*
X194862Y202925D01*
X192331D01*
X191531Y202125D01*
Y200525D01*
X192331Y199725D01*
X194862D01*
X195662Y198925D01*
Y197625D01*
X193834Y195797D01*
X192702D01*
X190422Y198077D01*
X189290D01*
X188159Y196946D01*
Y195814D01*
X190439Y193534D01*
Y192402D01*
X184376Y186339D01*
X174774D01*
X149930Y161495D01*
Y119212D01*
X153937Y115205D01*
Y108071D01*
G01X199606Y213621D02*
Y210236D01*
X199925Y209917D01*
Y208787D01*
X198578Y207439D01*
Y206309D01*
X199711Y205176D01*
X200841D01*
X202188Y206524D01*
X203318D01*
X204451Y205391D01*
Y204261D01*
X203104Y202913D01*
Y201783D01*
X204237Y200650D01*
X205367D01*
X206714Y201998D01*
X207844D01*
X208767Y201075D01*
Y198938D01*
X207231Y197402D01*
X203394D01*
X202594Y198202D01*
Y198661D01*
X201794Y199461D01*
X200194D01*
X199394Y198661D01*
Y198202D01*
X198594Y197402D01*
X197294D01*
X184468Y184576D01*
X175503D01*
X151726Y160799D01*
Y120453D01*
X155512Y116667D01*
Y108071D01*
G01X201969Y213621D02*
Y211668D01*
X212912Y200725D01*
Y196975D01*
X209862Y193925D01*
X206803D01*
X205312Y195416D01*
X203603D01*
X202112Y193925D01*
X200403D01*
X198912Y195416D01*
X197203D01*
X184434Y182647D01*
X175838D01*
X153555Y160364D01*
Y121593D01*
X161811Y113337D01*
Y108071D01*
G01X206693Y213621D02*
Y210077D01*
X215304Y201466D01*
Y195257D01*
X211985Y191938D01*
X195564D01*
X184444Y180818D01*
X176568D01*
X155434Y159684D01*
Y123351D01*
X158296Y120489D01*
X165486D01*
X168145Y117830D01*
Y114190D01*
X166535Y112580D01*
Y108071D01*
G01X270472Y213621D02*
Y164450D01*
X246362Y140340D01*
X220555D01*
X213694Y133479D01*
Y118873D01*
X210963Y116142D01*
X191929D01*
G01X268110Y213621D02*
Y165503D01*
X249829Y147222D01*
X248697D01*
X248242Y147677D01*
X247110D01*
X245979Y146546D01*
Y145414D01*
X246434Y144959D01*
Y143827D01*
X245187Y142580D01*
X219690D01*
X212063Y134953D01*
Y120264D01*
X209516Y117717D01*
X191929D01*
G01X263386Y213621D02*
Y167942D01*
X250833Y155389D01*
X249701D01*
X248665Y156425D01*
X247533D01*
X246402Y155294D01*
Y154162D01*
X247438Y153126D01*
Y151994D01*
X246307Y150863D01*
X245175D01*
X244139Y151899D01*
X243007D01*
X241876Y150768D01*
Y149636D01*
X242912Y148600D01*
Y147468D01*
X240518Y145074D01*
X219033D01*
X209991Y136032D01*
Y121784D01*
X207498Y119291D01*
X191929D01*
G01X261024Y213621D02*
Y173909D01*
X253313Y166198D01*
X252181D01*
X251212Y167167D01*
X250080D01*
X248949Y166036D01*
Y164904D01*
X249918Y163935D01*
Y162803D01*
X248787Y161672D01*
X247655D01*
X246686Y162641D01*
X245554D01*
X244423Y161510D01*
Y160378D01*
X245392Y159409D01*
Y158277D01*
X244261Y157146D01*
X243129D01*
X242160Y158115D01*
X241028D01*
X239897Y156984D01*
Y155852D01*
X240866Y154883D01*
Y153751D01*
X239735Y152620D01*
X238603D01*
X237634Y153589D01*
X236502D01*
X235371Y152458D01*
Y151326D01*
X236340Y150357D01*
Y149225D01*
X234456Y147341D01*
X218399D01*
X207929Y136871D01*
Y122866D01*
X205929Y120866D01*
X191929D01*
G01Y127165D02*
X181746D01*
G01X179468Y129492D02*
X182072D01*
X182824Y128740D01*
X191929D01*
G01X181746Y131819D02*
X183250Y130315D01*
X191929D01*
G01X179468Y134146D02*
X182613D01*
X184869Y131890D01*
X191929D01*
G01X182622Y136473D02*
X185630Y133465D01*
X191929D01*
G01X179468Y138800D02*
X183169D01*
X186930Y135039D01*
X191929D01*
G01X181746Y141127D02*
X183934D01*
X188447Y136614D01*
X191929D01*
G01X169078Y124368D02*
Y159027D01*
X181311Y171260D01*
X191929D01*
G01Y139764D02*
X195843D01*
X197025Y140946D01*
X198929D01*
G01X146532Y101071D02*
Y103506D01*
X147638Y104612D01*
Y108071D01*
G01X171260D02*
Y104465D01*
X174654Y101071D01*
G01X160631D02*
Y104217D01*
X160236Y104612D01*
Y108071D01*
G01X207046Y154624D02*
Y148172D01*
X204149Y145275D01*
X201006D01*
X198929Y143198D01*
G01Y129198D02*
X197025D01*
X196142Y128315D01*
Y125578D01*
X194580Y124016D01*
X191929D01*
G01X198929Y125260D02*
X196110Y122441D01*
X191929D01*
G01X154389Y97843D02*
X152361Y99871D01*
Y102016D01*
X153813Y103468D01*
X155943D01*
X157087Y104612D01*
Y108071D01*
G01X168412Y97843D02*
Y99543D01*
X168110Y99845D01*
Y108071D01*
G01X202157Y134704D02*
X197797D01*
X196262Y136239D01*
Y137315D01*
X195388Y138189D01*
X191929D01*
G01X162095Y117437D02*
Y115159D01*
X163386Y113868D01*
Y108071D01*
G01X165806Y117424D02*
Y114997D01*
X164961Y114152D01*
Y108071D01*
G01X177917Y144175D02*
X181463D01*
X182725Y142913D01*
X191929D01*
G01X175639Y146502D02*
X181435D01*
X183459Y144478D01*
X188460D01*
X188470Y144488D01*
X191929D01*
G01X177917Y148829D02*
X181431D01*
X184197Y146063D01*
X191929D01*
G01Y155512D02*
X182433D01*
G01X217609Y150467D02*
X215305D01*
G01X217609Y154405D02*
X215305D01*
G01X180155Y157839D02*
X183183D01*
X183935Y157087D01*
X191929D01*
G01X217609Y158343D02*
X215305D01*
G01X182433Y160166D02*
X184247D01*
X185752Y158661D01*
X191929D01*
G01X180379Y162493D02*
X184112D01*
X186369Y160236D01*
X191929D01*
G01X217609Y162281D02*
X215305D01*
G01X182779Y164981D02*
X183002D01*
X183163Y164820D01*
X184233D01*
X187242Y161811D01*
X191929D01*
G01X217609Y166219D02*
X215305D01*
G01X162974Y186982D02*
Y187678D01*
X163386Y188090D01*
Y191929D01*
G01X143019Y187046D02*
X145560D01*
X147638Y189124D01*
Y191929D01*
G01X170038Y187231D02*
X169796Y186989D01*
X168480D01*
X166535Y188934D01*
Y191929D01*
G01X165857Y184341D02*
Y187574D01*
X164961Y188470D01*
Y191929D01*
G01X186746Y152213D02*
X188470Y153937D01*
X191929D01*
G01X198929Y149605D02*
Y149871D01*
X202157Y153099D01*
Y153543D01*
G01X186279Y165747D02*
X187067Y166535D01*
X191929D01*
G01Y183858D02*
X197014D01*
X199992Y186836D01*
G01X202157Y181717D02*
Y184671D01*
X199992Y186836D01*
G01X202157Y177779D02*
Y181717D01*
G01X191929Y182283D02*
Y183858D01*
G01X149213Y191929D02*
Y181477D01*
G01X151540Y179199D02*
Y181795D01*
X150787Y182548D01*
Y191929D01*
G01X153867Y181477D02*
X152362Y182982D01*
Y191929D01*
G01X156194Y179199D02*
Y182776D01*
X153937Y185033D01*
Y191929D01*
G01X160848Y179199D02*
Y183888D01*
X157087Y187649D01*
Y191929D01*
G01X163175Y181477D02*
Y183956D01*
X158661Y188470D01*
Y191929D01*
G01X158521Y181477D02*
Y183599D01*
X155512Y186608D01*
Y191929D01*
G01X142913D02*
Y205303D01*
X150607Y212997D01*
Y214297D01*
X149807Y215097D01*
X147741D01*
X146941Y215897D01*
Y217497D01*
X147741Y218297D01*
X149807D01*
X150607Y219097D01*
Y220697D01*
X149807Y221497D01*
X147741D01*
X146941Y222297D01*
Y223897D01*
X147741Y224697D01*
X149807D01*
X150607Y225497D01*
Y227097D01*
X149807Y227897D01*
X147741D01*
X146941Y228697D01*
Y230297D01*
X147741Y231097D01*
X149807D01*
X150607Y231897D01*
Y233497D01*
X149807Y234297D01*
X147741D01*
X146941Y235097D01*
Y236697D01*
X147741Y237497D01*
X149807D01*
X150755Y238445D01*
Y249135D01*
X149807Y250083D01*
X147741D01*
X146941Y250883D01*
Y252483D01*
X147741Y253283D01*
X149807D01*
X150607Y254083D01*
Y255683D01*
X149807Y256483D01*
X147741D01*
X146941Y257283D01*
Y258883D01*
X147741Y259683D01*
X149807D01*
X150607Y260483D01*
Y274049D01*
X141732Y282924D01*
G01X157439Y207237D02*
Y200845D01*
X159355Y198929D01*
X159408D01*
G01X198929Y153543D02*
Y155447D01*
X201229Y157747D01*
X203673D01*
X206796Y154624D01*
X207046D01*
G01X168110Y191929D02*
Y195388D01*
X167449Y196049D01*
X164146D01*
X163346Y196849D01*
Y198929D01*
G01X167284D02*
X169685Y196528D01*
Y191929D01*
G01X161811D02*
Y196526D01*
X159408Y198929D01*
G01X146063Y191929D02*
Y194747D01*
X150245Y198929D01*
G01X198929Y166143D02*
X196570D01*
X195388Y164961D01*
X191929D01*
G01X198929Y153543D02*
X196569D01*
X195388Y152362D01*
X191929D01*
G01X207046Y154624D02*
Y162289D01*
X205161Y164174D01*
X200054D01*
X198929Y165299D01*
Y166143D01*
G01X163346Y198929D02*
X163293D01*
X161377Y200845D01*
Y205189D01*
X163436Y207248D01*
G01D02*
X165315Y205369D01*
Y200845D01*
X167231Y198929D01*
X167284D01*
G01X155470D02*
X153841D01*
X152857Y199913D01*
Y206037D01*
X152133Y206761D01*
X152114D01*
X152014Y206861D01*
X150214D01*
G01X191929Y163386D02*
X195388D01*
X196654Y162120D01*
Y159172D01*
X197725Y158101D01*
X199675D01*
X201475Y159901D01*
X202157D01*
G01X144488Y191929D02*
Y197110D01*
X146307Y198929D01*
G01X160236Y191929D02*
Y195388D01*
X160225Y195399D01*
Y195538D01*
X159607Y196156D01*
X156270D01*
X155470Y196956D01*
Y198929D01*
G01X191929Y150787D02*
X195388D01*
X196622Y149553D01*
Y148501D01*
X197822Y147301D01*
X202157D01*
G01X150214Y206861D02*
X150093Y206740D01*
X149076D01*
X148276Y205940D01*
Y200845D01*
X146360Y198929D01*
X146307D01*
G01X171222D02*
Y197025D01*
X171260Y196987D01*
Y191929D01*
G01X175160Y198929D02*
X171222D01*
G01X172835Y191929D02*
Y196604D01*
X175160Y198929D01*
G01X180279Y199992D02*
X176223D01*
X175160Y198929D01*
G01X198929Y181717D02*
X196396D01*
X195388Y180709D01*
X191929D01*
G01X198929Y177779D02*
Y181717D01*
G01X199992Y172660D02*
Y176716D01*
X198929Y177779D01*
G01X175639Y151156D02*
X182141D01*
X185659Y147638D01*
X191929D01*
G01X177917Y153483D02*
X182720D01*
X186990Y149213D01*
X191929D01*
G01X223981Y11066D02*
Y14166D01*
X223481Y14666D01*
Y18066D01*
G01X227919Y11066D02*
Y14104D01*
X228481Y14666D01*
Y18066D01*
G01X231857Y11066D02*
Y13042D01*
X233481Y14666D01*
Y18066D01*
G01X255743Y11066D02*
Y13002D01*
X254079Y14666D01*
Y18066D01*
G01X259681Y11066D02*
Y14064D01*
X259079Y14666D01*
Y18066D01*
G01X263619Y11066D02*
Y14206D01*
X264079Y14666D01*
Y18066D01*
G01X233481Y48066D02*
Y51477D01*
X231796Y53162D01*
Y55066D01*
G01X233481Y48066D02*
Y44266D01*
G01X228481Y48066D02*
Y52539D01*
X227858Y53162D01*
Y55066D01*
G01X228481Y48066D02*
Y44266D01*
G01X223481Y48066D02*
Y52723D01*
X223920Y53162D01*
Y55066D01*
G01X223481Y48066D02*
Y44266D01*
G01X233855Y65320D02*
Y69258D01*
G01X267557Y11066D02*
Y13144D01*
X269079Y14666D01*
Y18066D01*
G01X271495Y11066D02*
Y14478D01*
X274079Y17062D01*
Y18066D01*
G01X254079Y48066D02*
Y43688D01*
G01Y48066D02*
Y50014D01*
X255913Y51848D01*
Y55066D01*
G01X259079Y48066D02*
Y43688D01*
G01Y48066D02*
Y52390D01*
X259851Y53162D01*
Y55066D01*
G01X264079Y48066D02*
Y43688D01*
G01Y48066D02*
Y52872D01*
X263789Y53162D01*
Y55066D01*
G01X269079Y48066D02*
Y43688D01*
G01Y48066D02*
Y51810D01*
X267727Y53162D01*
Y55066D01*
G01X274079Y48066D02*
Y43688D01*
G01Y48066D02*
Y49070D01*
X271665Y51484D01*
Y55066D01*
G01X239120Y74574D02*
Y71243D01*
X240396Y69967D01*
X242829D01*
G01X244541Y78413D02*
Y76135D01*
X246102Y74574D01*
X249938D01*
G01Y97427D02*
X246516D01*
X244529Y99414D01*
Y101266D01*
G01X249938Y125279D02*
X246356D01*
X244529Y127106D01*
Y129118D01*
G01X233858Y92092D02*
Y88154D01*
G01Y92092D02*
X235881D01*
X236681Y92892D01*
Y98334D01*
X238333Y99986D01*
X239120D01*
G01X242842Y92822D02*
X240410D01*
X239120Y94112D01*
Y97427D01*
G01X233855Y69258D02*
X235197D01*
X235997Y70058D01*
Y74797D01*
X238333Y77133D01*
X239120D01*
G01Y125279D02*
Y122295D01*
X240744Y120671D01*
X242976D01*
G01X233821Y119872D02*
Y115934D01*
G01X239120Y127838D02*
X238333D01*
X236816Y126321D01*
Y122867D01*
X233821Y119872D01*
G01X220837Y154405D02*
X223141D01*
G01X220837Y150467D02*
X223141D01*
G01X220837Y158343D02*
X223141D01*
G01X220837Y162281D02*
X223141D01*
G01X220837Y166219D02*
X223141D01*
G01X281496Y230951D02*
Y235000D01*
G01D02*
Y239049D01*
G01X277447Y235000D02*
X281496D01*
G01D02*
X285545D01*
G54D37*
X244529Y78413D03*
Y129118D03*
Y101266D03*
G54D28*
X150000Y47000D03*
G54D19*
X52039Y115801D03*
Y85801D03*
X82039Y115801D03*
Y85801D03*
G54D38*
X249938Y82252D03*
Y79693D03*
Y77133D03*
Y74574D03*
X239120D03*
Y77133D03*
Y79693D03*
Y82252D03*
X249938Y132957D03*
Y130398D03*
Y127838D03*
Y125279D03*
X239120D03*
Y127838D03*
Y130398D03*
Y132957D03*
X249938Y105105D03*
Y102546D03*
Y99986D03*
Y97427D03*
X239120D03*
Y99986D03*
Y102546D03*
Y105105D03*
G54D29*
X144094Y56449D03*
X146063D03*
X148031D03*
X150000D03*
X151969D03*
X153937D03*
X155906D03*
Y37551D03*
X153937D03*
X151969D03*
X150000D03*
X148031D03*
X146063D03*
X144094D03*
G54D39*
G01X160402Y34168D02*
X158009D01*
X155906Y36271D01*
Y37551D01*
G01X163700Y37439D02*
Y39615D01*
X162221Y41094D01*
X159449D01*
M02*
