G04 ================== begin FILE IDENTIFICATION RECORD ==================*
G04 Layout Name:  G:/project_development/GitHub/StarrySky/EXTN/PCB/V1.0/EXTN.brd*
G04 Film Name:    BOTTOM*
G04 File Format:  Gerber RS274X*
G04 File Origin:  Cadence Allegro 16.6-2015-S066*
G04 Origin Date:  Wed Jul 17 16:02:14 2024*
G04 *
G04 Layer:  VIA CLASS/BOTTOM*
G04 Layer:  PIN/BOTTOM*
G04 Layer:  ETCH/BOTTOM*
G04 Layer:  BOARD GEOMETRY/OUTLINE*
G04 *
G04 Offset:    (0.00 0.00)*
G04 Mirror:    No*
G04 Mode:      Positive*
G04 Rotation:  0*
G04 FullContactRelief:  No*
G04 UndefLineWidth:     6.00*
G04 ================== end FILE IDENTIFICATION RECORD ====================*
%FSLAX55Y55*MOIN*%
%IR0*IPPOS*OFA0.00000B0.00000*MIA0B0*SFA1.00000B1.00000*%
%ADD10C,.018*%
%ADD12C,.02795*%
%ADD15C,.06299*%
%ADD16R,.06299X.06299*%
%ADD13O,.04724X.07087*%
%ADD11R,.02992X.08071*%
%ADD14O,.04724X.07874*%
%ADD17C,.02*%
%ADD18C,.014*%
%ADD19C,.028*%
%ADD20C,.006*%
%ADD21C,.008*%
%ADD26C,.07302*%
%ADD23C,.02804*%
%ADD25C,.03798*%
%ADD27R,.07302X.07302*%
%ADD24R,.03996X.09074*%
%ADD22O,.05728X.08878*%
G75*
%LPD*%
G75*
G36*
G01X10000Y1504D02*
G02X1504Y10000I0J8496D01*
G01Y126000D01*
G02X10000Y134496I8496J0D01*
G01X130000D01*
G02X138496Y126000I0J-8496D01*
G01Y10000D01*
G02X130000Y1504I-8496J0D01*
G01X106935D01*
G02X106801Y1853I0J200D01*
G03X106861Y1910I-1072J1189D01*
G01X109102Y4150D01*
Y5478D01*
X109498D01*
Y14552D01*
X105502D01*
Y5478D01*
X105551D01*
X105653Y5231D01*
X104597Y4174D01*
G03X104460Y4019I1129J-1136D01*
G01X104102Y4141D01*
Y5478D01*
X104498D01*
Y14552D01*
X100502D01*
Y5478D01*
X100898D01*
Y4040D01*
G03X103538Y2821I1601J0D01*
G02X104184Y2621I260J-304D01*
G03X104412Y2131I1545J421D01*
G02X104083Y1504I-329J-227D01*
G01X99067D01*
G02X98754Y2153I0J400D01*
G03X99102Y3149I-1254J997D01*
G01Y5478D01*
X99498D01*
Y14552D01*
X95502D01*
Y5478D01*
X95898D01*
Y3149D01*
G03X96246Y2153I1602J1D01*
G02X95933Y1504I-313J-249D01*
G01X73609D01*
G02X73327Y2187I1J400D01*
G01X74102Y2962D01*
Y5478D01*
X74498D01*
Y14552D01*
X70502D01*
Y5478D01*
X70898D01*
Y4288D01*
X70782Y4172D01*
G02X70099Y4471I-283J282D01*
G03X70102Y4579I-2598J126D01*
G01Y10015D01*
G03X69498Y11682I-2602J0D01*
G01Y14552D01*
X65502D01*
Y11682D01*
G03X65333Y11455I1999J-1665D01*
G02X64667I-333J221D01*
G03X64498Y11682I-2168J-1438D01*
G01Y14552D01*
X60502D01*
Y11682D01*
G03X60333Y11455I1999J-1665D01*
G02X59667I-333J221D01*
G03X59498Y11682I-2168J-1438D01*
G01Y14552D01*
X55502D01*
Y11682D01*
G03X55333Y11455I1999J-1665D01*
G02X54667I-333J221D01*
G03X54498Y11682I-2168J-1438D01*
G01Y14552D01*
X50502D01*
Y12116D01*
X49498D01*
Y14552D01*
X45502D01*
Y10669D01*
X45493Y10640D01*
G03X45450Y10478I2008J-620D01*
G02X45058Y10486I-195J44D01*
G03X44498Y11682I-2559J-469D01*
G01Y14552D01*
X40502D01*
Y11682D01*
G03X40333Y11455I1999J-1665D01*
G02X39667I-333J221D01*
G03X39498Y11682I-2168J-1438D01*
G01Y14552D01*
X35502D01*
Y11682D01*
G03X34898Y10015I1998J-1667D01*
G01Y4579D01*
G03X34941Y4113I2602J5D01*
G02X34547Y3642I-394J-71D01*
G01X16286D01*
X9828Y10099D01*
Y15912D01*
G02X10511Y16195I400J0D01*
G01X18293Y8414D01*
X20502D01*
Y5478D01*
X24498D01*
Y14884D01*
X25302D01*
X25541Y14645D01*
X25502Y14552D01*
Y5478D01*
X29498D01*
Y14552D01*
X29102D01*
Y15189D01*
G02X29784Y15472I400J0D01*
G01X30502Y14754D01*
Y5478D01*
X34498D01*
Y14552D01*
X34102D01*
Y15684D01*
X29543Y20242D01*
X21961D01*
X21857Y20347D01*
G02X22139Y21030I283J283D01*
G01X24498D01*
Y30236D01*
X25216Y30954D01*
G02X25898Y30671I282J-283D01*
G01Y30104D01*
X25502D01*
Y21030D01*
X29498D01*
Y30104D01*
X29102D01*
Y33543D01*
G02X29568Y33938I400J1D01*
G03X30344Y34027I235J1382D01*
G02X30898Y33659I154J-369D01*
G01Y30104D01*
X30502D01*
Y21030D01*
X34498D01*
Y30104D01*
X34102D01*
Y43685D01*
X32072Y45715D01*
Y46852D01*
G03X30024Y48390I-1602J0D01*
G02X29512Y48774I-112J384D01*
G01Y51775D01*
G03X29146Y52795I-1601J1D01*
G02X29454Y53450I308J255D01*
G01X40766D01*
X58461Y35754D01*
X65484D01*
X70793Y30445D01*
G02X70651Y30104I-142J-141D01*
G01X70502D01*
Y21030D01*
X74498D01*
Y30104D01*
X74102D01*
Y31003D01*
G03X73632Y32135I-1601J-1D01*
G01X66810Y38958D01*
X59787D01*
X42092Y56652D01*
X27014D01*
G02X26731Y57335I0J400D01*
G01X29934Y60538D01*
X38193D01*
X45948Y68293D01*
Y80878D01*
X51038Y85968D01*
X77412D01*
X80788Y89345D01*
G03X80992Y91361I-1132J1133D01*
G01X80902Y91497D01*
X82896Y93492D01*
G03X80632Y95756I-1132J1132D01*
G01X78754Y93878D01*
X50750D01*
X39904Y83033D01*
Y70319D01*
X36604Y67018D01*
X28739D01*
X22692Y60972D01*
X15115D01*
G03X13973Y60492I1J-1601D01*
G02X13436Y60461I-286J280D01*
G03X11560Y60356I-880J-1091D01*
G01X11559D01*
X11418Y60214D01*
X11129Y60502D01*
G03X8865Y58238I-1132J-1132D01*
G01X11938Y55164D01*
X17470D01*
G02X17753Y54482I0J-400D01*
G01X13514Y50242D01*
Y45242D01*
G03X16716I1601J0D01*
G01Y48916D01*
X21250Y53450D01*
X26368D01*
G02X26676Y52795I0J-400D01*
G03X26310Y51775I1235J-1019D01*
G01Y49606D01*
G02X25798Y49222I-400J0D01*
G03X23750Y47684I-446J-1538D01*
G01Y38458D01*
G02X23239Y38074I-400J0D01*
G03X21655Y37663I-446J-1538D01*
G02X21371I-142J141D01*
G03X19101Y37668I-1137J-1127D01*
G01X18953Y37521D01*
X18812Y37663D01*
X18811D01*
G03X17674Y38138I-1138J-1126D01*
G01X15211D01*
X14333Y37260D01*
G02X13719Y37319I-283J283D01*
G03X11676Y37627I-1163J-783D01*
G02X11139Y37658I-251J311D01*
G03X8865Y37668I-1142J-1122D01*
G01X6626Y35429D01*
Y8773D01*
X13211Y2187D01*
G02X12929Y1504I-283J-283D01*
G01X10000D01*
G37*
G36*
G01X45453Y3642D02*
G02X45059Y4113I0J400D01*
G03X45102Y4579I-2559J471D01*
G01Y9534D01*
X45449D01*
X45493Y9393D01*
Y9390D01*
X45502Y9361D01*
Y5478D01*
X49498D01*
Y7914D01*
X49898D01*
Y4579D01*
G03X49941Y4113I2602J5D01*
G02X49547Y3642I-394J-71D01*
G01X45453D01*
G37*
G36*
G01X51255Y89854D02*
X52076Y90676D01*
X76624D01*
G02X76907Y89993I0J-400D01*
G01X76086Y89172D01*
X51538D01*
G02X51255Y89854I0J400D01*
G37*
%LPC*%
G75*
G36*
G01X89872Y123882D02*
G02X84144I-2864J0D01*
G01Y126246D01*
G02X89872I2864J0D01*
G01Y123882D01*
G37*
G36*
G01X55856D02*
G02X50128I-2864J0D01*
G01Y126246D01*
G02X55856I2864J0D01*
G01Y123882D01*
G37*
G36*
G01X72953Y111608D02*
G02Y108406I0J-1601D01*
G01X69016D01*
G02Y111608I0J1601D01*
G01X72953D01*
G37*
G36*
G01X31370Y87345D02*
X35523Y91498D01*
X41240D01*
G02Y88296I0J-1601D01*
G01X36849D01*
X34572Y86019D01*
Y69298D01*
G02X31370I-1601J0D01*
G01Y87345D01*
G37*
G36*
G01X61345Y68834D02*
X68082Y62097D01*
Y55869D01*
G02X63878I-2102J0D01*
G01Y60357D01*
X59605Y64630D01*
X54108D01*
X51020Y61543D01*
Y58757D01*
G02X46818I-2101J0D01*
G01Y63283D01*
X52368Y68834D01*
X61345D01*
G37*
G36*
G01X18810Y64388D02*
X15602D01*
X11842Y68148D01*
Y89897D01*
G02X13585Y91492I1601J0D01*
G03X13903Y92174I35J399D01*
G01X12312Y93765D01*
G02X14576Y96029I1132J1132D01*
G01X18690Y91916D01*
Y88330D01*
X16676Y86317D01*
Y78632D01*
G03X17072Y78232I400J0D01*
G02Y75428I-16J-1402D01*
G03X16676Y75028I4J-400D01*
G01Y71338D01*
X18806Y69208D01*
G02X18811Y69203I-1130J-1135D01*
G01X18812D01*
X18953Y69061D01*
X19101Y69208D01*
G02X21365Y66944I1132J-1132D01*
G01X18810Y64388D01*
G37*
G36*
G01X119498Y30104D02*
Y21030D01*
X115502D01*
Y30104D01*
X115898D01*
Y33878D01*
G02X119102I1602J0D01*
G01Y30104D01*
X119498D01*
G37*
G36*
G01X114498D02*
Y21030D01*
X110502D01*
Y30104D01*
X110898D01*
Y33878D01*
G02X114102I1602J0D01*
G01Y30104D01*
X114498D01*
G37*
G36*
G01X109498D02*
Y21030D01*
X105502D01*
Y30104D01*
X105898D01*
Y33878D01*
G02X109102I1602J0D01*
G01Y30104D01*
X109498D01*
G37*
G36*
G01X104498D02*
Y21030D01*
X100502D01*
Y30104D01*
X100898D01*
Y33878D01*
G02X104102I1602J0D01*
G01Y30104D01*
X104498D01*
G37*
G36*
G01X99498D02*
Y21030D01*
X95502D01*
Y30104D01*
X95898D01*
Y31003D01*
G02X99102I1602J0D01*
G01Y30104D01*
X99498D01*
G37*
G36*
G01X94498D02*
Y21030D01*
X90502D01*
Y30104D01*
X90898D01*
Y31003D01*
G02X94102I1602J0D01*
G01Y30104D01*
X94498D01*
G37*
G36*
G01X113111Y65833D02*
X84102Y36824D01*
Y30104D01*
X84498D01*
Y21030D01*
X80502D01*
Y30104D01*
X80898D01*
Y38150D01*
X110846Y68098D01*
X110811Y68213D01*
G02X113226Y65798I3489J1074D01*
G01X113111Y65833D01*
G37*
G36*
G01X79498Y30104D02*
Y21030D01*
X75502D01*
Y30104D01*
X75898D01*
Y31003D01*
G02X79102I1602J0D01*
G01Y30104D01*
X79498D01*
G37*
G36*
G01X121573Y17278D02*
X123332Y15518D01*
Y15056D01*
G03X123904Y14695I400J0D01*
G02Y12161I600J-1267D01*
G03X123332Y11800I-172J-361D01*
G01Y10152D01*
X121594Y8414D01*
X119498D01*
Y5478D01*
X115502D01*
Y14552D01*
X117244D01*
G03X117617Y15097I0J400D01*
G02X119110Y17278I1493J579D01*
G01X121573D01*
G37*
G36*
G01X84498Y14552D02*
Y5478D01*
X80502D01*
Y14552D01*
X80898D01*
Y15451D01*
G02X84102I1602J0D01*
G01Y14552D01*
X84498D01*
G37*
G36*
G01X79498D02*
Y5478D01*
X75502D01*
Y14552D01*
X75898D01*
Y15451D01*
G02X79102I1602J0D01*
G01Y14552D01*
X79498D01*
G37*
G36*
G01X94102Y5478D02*
Y4579D01*
G02X90898I-1602J0D01*
G01Y5478D01*
X90502D01*
Y14552D01*
X94498D01*
Y5478D01*
X94102D01*
G37*
G36*
G01X114102D02*
Y4325D01*
G02X110898I-1602J0D01*
G01Y5478D01*
X110502D01*
Y14552D01*
X114498D01*
Y5478D01*
X114102D01*
G37*
G36*
G01X89498D02*
X85502D01*
Y14552D01*
X85660D01*
G03X85979Y15193I0J400D01*
G02X88215I1118J846D01*
G03X88534Y14552I319J-241D01*
G01X89498D01*
Y5478D01*
G37*
G54D26*
X114300Y49287D03*
Y59287D03*
G54D23*
X91010Y17398D03*
X57122Y82760D03*
X23006Y71574D03*
X29582Y94897D03*
X48919Y54819D03*
X56955Y62695D03*
X48919Y70571D03*
X20420Y102758D03*
X24278D03*
X124504Y17286D03*
G54D25*
X58583Y110694D03*
X81417D03*
G54D27*
X114300Y79287D03*
G54D24*
X87500Y25567D03*
G54D22*
X87008Y108607D03*
X52992D03*
%LPD*%
G75*
G54D10*
G01X47500Y10015D02*
X52500D01*
G01X65980Y55869D02*
Y61227D01*
X60475Y66732D01*
X53238D01*
X48919Y62413D01*
Y58757D01*
X49151Y4023D03*
X67500Y4579D03*
X62500D03*
X57500D03*
X52500D03*
X42500D03*
X37500D03*
X59207Y90477D03*
X48919Y74509D03*
X56955Y58757D03*
Y54819D03*
Y50881D03*
Y46943D03*
X41833D03*
X67500Y31003D03*
X62500D03*
X57500D03*
X37500D03*
X51315Y32191D03*
X43974Y32133D03*
X47500Y31003D03*
X40136Y34270D03*
X65583Y42173D03*
X74417D03*
X74823Y66796D03*
X69823D03*
X64823D03*
Y71796D03*
X69823D03*
X74823D03*
Y76796D03*
X69823D03*
X64823D03*
X33029Y59370D03*
X20284Y76830D03*
X24142D03*
X7615Y77257D03*
X23006Y71574D03*
X12556Y59370D03*
X65980Y55869D03*
X87097Y16039D03*
X48919Y54819D03*
Y58757D03*
X29801Y35320D03*
X12556Y36536D03*
X17056Y76830D03*
X82500Y15451D03*
X77500D03*
Y31003D03*
X9997Y36536D03*
X72500Y31003D03*
X15115Y45242D03*
X22793Y36536D03*
X30470Y46852D03*
X20233Y36536D03*
X27911Y51775D03*
X17674Y36536D03*
X25352Y47684D03*
X79656Y90477D03*
X9997Y59370D03*
X15115D03*
X48919Y70571D03*
X56955Y62695D03*
X57122Y82760D03*
X17674Y68076D03*
X13444Y89897D03*
X20233Y68076D03*
X32971Y69298D03*
X41240Y89897D03*
X63145Y94335D03*
X51959Y101431D03*
X27506Y102758D03*
X76877Y96528D03*
X24278Y102758D03*
X20420D03*
X29582Y94897D03*
X81764Y94624D03*
X72953Y110007D03*
X69016D03*
X13444Y94897D03*
X87811Y4131D03*
X112500Y4325D03*
X105729Y3042D03*
X102500Y4040D03*
X97500Y3149D03*
X92500Y4579D03*
X124504Y20514D03*
Y10200D03*
X87207Y19213D03*
X124504Y13428D03*
Y17286D03*
X91010Y17398D03*
X117500Y33878D03*
X119110Y15676D03*
X112500Y33878D03*
X107500D03*
X102500D03*
X97500Y31003D03*
X92500D03*
X88041Y101431D03*
G54D20*
G01X10000Y0D02*
X130000D01*
G03X140000Y10000I0J10000D01*
G01Y126000D01*
G03X130000Y136000I-10000J0D01*
G01X10000D01*
G03X0Y126000I0J-10000D01*
G01Y10000D01*
G03X10000Y0I10000J0D01*
G54D11*
X22500Y25567D03*
Y10015D03*
X27500Y25567D03*
Y10015D03*
X32500Y25567D03*
Y10015D03*
X37500Y25567D03*
Y10015D03*
X42500Y25567D03*
Y10015D03*
X47500Y25567D03*
Y10015D03*
X52500Y25567D03*
Y10015D03*
X57500Y25567D03*
Y10015D03*
X62500Y25567D03*
Y10015D03*
X67500Y25567D03*
Y10015D03*
X72500Y25567D03*
Y10015D03*
X77500Y25567D03*
Y10015D03*
X82500Y25567D03*
Y10015D03*
X87500Y25567D03*
Y10015D03*
X92500Y25567D03*
Y10015D03*
X97500Y25567D03*
Y10015D03*
X102500Y25567D03*
Y10015D03*
X107500Y25567D03*
Y10015D03*
X112500Y25567D03*
Y10015D03*
X117500Y25567D03*
Y10015D03*
G54D21*
G01X9997Y36536D02*
X8227Y34766D01*
Y9436D01*
X15623Y2040D01*
X70915D01*
X72500Y3625D01*
Y10015D01*
G01X82500D02*
Y15451D01*
G01Y25567D02*
Y37487D01*
X114300Y69287D01*
G01X77500Y10015D02*
Y15451D01*
G01Y25567D02*
Y31003D01*
G01X72500D02*
X66147Y37356D01*
X59124D01*
X41429Y55051D01*
X20587D01*
X15115Y49579D01*
Y45242D01*
G01X72500Y25567D02*
Y31003D01*
G01X32500Y10015D02*
Y15021D01*
X28880Y18641D01*
X21298D01*
X18675Y21264D01*
Y30360D01*
X22793Y34478D01*
Y36536D01*
G01X32500Y25567D02*
Y43022D01*
X30470Y45052D01*
Y46852D01*
G01X27500Y10015D02*
Y14951D01*
X25965Y16486D01*
X17880D01*
X15456Y18910D01*
Y31759D01*
X20233Y36536D01*
G01X27911Y51775D02*
Y43442D01*
X27500Y43031D01*
Y25567D01*
G01X17674Y36536D02*
X15874D01*
X11684Y32346D01*
Y17287D01*
X18956Y10015D01*
X22500D01*
G01X25352Y47684D02*
Y33355D01*
X22500Y30503D01*
Y25567D01*
G01X9997Y59370D02*
X12601Y56766D01*
X23897D01*
X29271Y62140D01*
X37530D01*
X44346Y68956D01*
Y81541D01*
X50375Y87570D01*
X76749D01*
X79656Y90477D01*
G01X81764Y94624D02*
X79417Y92277D01*
X51413D01*
X41506Y82370D01*
Y69656D01*
X37267Y65417D01*
X29402D01*
X23355Y59370D01*
X15115D01*
G01X13444Y94897D02*
X17088Y91253D01*
Y88993D01*
X15075Y86980D01*
Y70675D01*
X17674Y68076D01*
G01X13444Y89897D02*
Y68811D01*
X16265Y65990D01*
X18147D01*
X20233Y68076D01*
G01X41240Y89897D02*
X36186D01*
X32971Y86682D01*
Y69298D01*
G01X69016Y110007D02*
X72953D01*
G01X112500Y10015D02*
Y4325D01*
G01X105729Y3042D02*
X107500Y4813D01*
Y10015D01*
G01X102500D02*
Y4040D01*
G01X97500Y10015D02*
Y3149D01*
G01X92500Y10015D02*
Y4579D01*
G01X117500Y25567D02*
Y33878D01*
G01X119110Y15676D02*
X120910D01*
X121731Y14855D01*
Y10815D01*
X120931Y10015D01*
X117500D01*
G01X112500Y25567D02*
Y33878D01*
G01X107500Y25567D02*
Y33878D01*
G01X102500Y25567D02*
Y33878D01*
G01X97500Y25567D02*
Y31003D01*
G01X92500Y25567D02*
Y31003D01*
G54D12*
X58583Y110694D03*
X81417D03*
G54D13*
X52992Y125064D03*
X87008D03*
G54D14*
X52992Y108607D03*
X87008D03*
G54D15*
X114300Y49287D03*
Y59287D03*
Y69287D03*
G54D16*
Y79287D03*
G54D17*
G01X47500Y25567D02*
Y31003D01*
G01X42500Y25567D02*
Y30659D01*
X43974Y32133D01*
G01X52500Y25567D02*
Y31006D01*
X51315Y32191D01*
G54D18*
G01X83944Y108607D02*
X87008D01*
G01X83944Y103968D02*
X87008Y108607D01*
G01X83944Y113246D02*
X87008Y108607D01*
G01X52992Y103968D02*
Y108607D01*
G01D02*
Y113246D01*
G01X49928Y108607D02*
X52992D01*
G01D02*
X56056D01*
G01X49928Y103968D02*
X52992Y108607D01*
G01D02*
X56056Y113246D01*
G01X49928D02*
X52992Y108607D01*
G01D02*
X56056Y103968D01*
G01X83944Y125064D02*
X87008D01*
G01X83944Y120818D02*
X87008Y125064D01*
G01X83944Y129310D02*
X87008Y125064D01*
G01X52992Y120818D02*
Y125064D01*
G01D02*
Y129310D01*
G01X49928Y125064D02*
X52992D01*
G01D02*
X56056D01*
G01X49928Y120818D02*
X52992Y125064D01*
G01D02*
X56056Y129310D01*
G01X49928D02*
X52992Y125064D01*
G01D02*
X56056Y120818D01*
G01X87008Y103968D02*
Y108607D01*
G01D02*
Y113246D01*
G01Y108607D02*
X90072D01*
G01X87008D02*
X90072Y113246D01*
G01X87008Y108607D02*
X90072Y103968D01*
G01X87008Y120818D02*
Y125064D01*
G01D02*
Y129310D01*
G01Y125064D02*
X90072D01*
G01X87008D02*
X90072Y129310D01*
G01X87008Y125064D02*
X90072Y120818D01*
G54D19*
G01X67500Y10015D02*
Y4579D01*
G01X62500Y10015D02*
Y4579D01*
G01X57500Y10015D02*
Y4579D01*
G01X52500Y10015D02*
Y4579D01*
G01X42500Y10015D02*
Y4579D01*
G01X37500Y10015D02*
Y4579D01*
G01X67500Y25567D02*
Y31003D01*
G01X62500Y25567D02*
Y31003D01*
G01X57500Y25567D02*
Y31003D01*
G01X37500Y25567D02*
Y31003D01*
M02*
