G04 ================== begin FILE IDENTIFICATION RECORD ==================*
G04 Layout Name:  G:/project_development/GitHub/StarrySky/EXTN/PCB/V1.0/EXTN.brd*
G04 Film Name:    DRILL*
G04 File Format:  Gerber RS274X*
G04 File Origin:  Cadence Allegro 16.6-2015-S066*
G04 Origin Date:  Wed Jul 17 16:02:14 2024*
G04 *
G04 Layer:  MANUFACTURING/NCLEGEND-1-4*
G04 Layer:  MANUFACTURING/NCDRILL_LEGEND*
G04 Layer:  MANUFACTURING/NCDRILL_FIGURE*
G04 Layer:  BOARD GEOMETRY/OUTLINE*
G04 Layer:  BOARD GEOMETRY/DIMENSION*
G04 *
G04 Offset:    (0.00 0.00)*
G04 Mirror:    No*
G04 Mode:      Positive*
G04 Rotation:  0*
G04 FullContactRelief:  No*
G04 UndefLineWidth:     6.00*
G04 ================== end FILE IDENTIFICATION RECORD ====================*
%FSLAX55Y55*MOIN*%
%IR0*IPPOS*OFA0.00000B0.00000*MIA0B0*SFA1.00000B1.00000*%
%AMMACRO14*
1,1,.006,0.0,.025*
20,1,.006,0.0,.025,.021655,-.025,0.0*
1,1,.006,.021655,-.025*
20,1,.006,.021655,-.025,-.021655,-.025,0.0*
1,1,.006,-.021655,-.025*
20,1,.006,-.021655,-.025,0.0,.025,0.0*
1,1,.006,0.0,.025*
1,1,.006,.0065,-.01082*
20,1,.006,.0065,-.01082,.0065,.00361,0.0*
1,1,.006,.0065,.00361*
1,1,.006,.0065,.00109*
20,1,.006,.0065,.00109,.00506,.00253,0.0*
1,1,.006,.00506,.00253*
20,1,.006,.00506,.00253,.00289,.00325,0.0*
1,1,.006,.00289,.00325*
20,1,.006,.00289,.00325,.00037,.00361,0.0*
1,1,.006,.00037,.00361*
20,1,.006,.00037,.00361,-.00216,.00289,0.0*
1,1,.006,-.00216,.00289*
20,1,.006,-.00216,.00289,-.00433,.00145,0.0*
1,1,.006,-.00433,.00145*
20,1,.006,-.00433,.00145,-.00577,-.00072,0.0*
1,1,.006,-.00577,-.00072*
20,1,.006,-.00577,-.00072,-.00649,-.0036,0.0*
1,1,.006,-.00649,-.0036*
20,1,.006,-.00649,-.0036,-.00577,-.00649,0.0*
1,1,.006,-.00577,-.00649*
20,1,.006,-.00577,-.00649,-.00433,-.00866,0.0*
1,1,.006,-.00433,-.00866*
20,1,.006,-.00433,-.00866,-.00216,-.0101,0.0*
1,1,.006,-.00216,-.0101*
20,1,.006,-.00216,-.0101,.00037,-.01082,0.0*
1,1,.006,.00037,-.01082*
20,1,.006,.00037,-.01082,.00289,-.01046,0.0*
1,1,.006,.00289,-.01046*
20,1,.006,.00289,-.01046,.00506,-.00938,0.0*
1,1,.006,.00506,-.00938*
20,1,.006,.00506,-.00938,.0065,-.00793,0.0*
1,1,.006,.0065,-.00793*
%
%ADD14MACRO14*%
%AMMACRO12*
1,1,.006,-.01378,-.01378*
20,1,.006,-.01378,-.01378,-.01378,.01378,0.0*
1,1,.006,-.01378,.01378*
20,1,.006,-.01378,.01378,-.013571,.016173,0.0*
1,1,.006,-.013571,.016173*
20,1,.006,-.013571,.016173,-.012949,.018493,0.0*
1,1,.006,-.012949,.018493*
20,1,.006,-.012949,.018493,-.011934,.02067,0.0*
1,1,.006,-.011934,.02067*
20,1,.006,-.011934,.02067,-.010556,.022638,0.0*
1,1,.006,-.010556,.022638*
20,1,.006,-.010556,.022638,-.008858,.024336,0.0*
1,1,.006,-.008858,.024336*
20,1,.006,-.008858,.024336,-.00689,.025714,0.0*
1,1,.006,-.00689,.025714*
20,1,.006,-.00689,.025714,-.004713,.026729,0.0*
1,1,.006,-.004713,.026729*
20,1,.006,-.004713,.026729,-.002393,.027351,0.0*
1,1,.006,-.002393,.027351*
20,1,.006,-.002393,.027351,0.0,.02756,0.0*
1,1,.006,0.0,.02756*
20,1,.006,0.0,.02756,.002393,.027351,0.0*
1,1,.006,.002393,.027351*
20,1,.006,.002393,.027351,.004713,.026729,0.0*
1,1,.006,.004713,.026729*
20,1,.006,.004713,.026729,.00689,.025714,0.0*
1,1,.006,.00689,.025714*
20,1,.006,.00689,.025714,.008858,.024336,0.0*
1,1,.006,.008858,.024336*
20,1,.006,.008858,.024336,.010556,.022638,0.0*
1,1,.006,.010556,.022638*
20,1,.006,.010556,.022638,.011934,.02067,0.0*
1,1,.006,.011934,.02067*
20,1,.006,.011934,.02067,.012949,.018493,0.0*
1,1,.006,.012949,.018493*
20,1,.006,.012949,.018493,.013571,.016173,0.0*
1,1,.006,.013571,.016173*
20,1,.006,.013571,.016173,.01378,.01378,0.0*
1,1,.006,.01378,.01378*
20,1,.006,.01378,.01378,.01378,-.01378,0.0*
1,1,.006,.01378,-.01378*
20,1,.006,.01378,-.01378,.013571,-.016173,0.0*
1,1,.006,.013571,-.016173*
20,1,.006,.013571,-.016173,.012949,-.018493,0.0*
1,1,.006,.012949,-.018493*
20,1,.006,.012949,-.018493,.011934,-.02067,0.0*
1,1,.006,.011934,-.02067*
20,1,.006,.011934,-.02067,.010556,-.022638,0.0*
1,1,.006,.010556,-.022638*
20,1,.006,.010556,-.022638,.008858,-.024336,0.0*
1,1,.006,.008858,-.024336*
20,1,.006,.008858,-.024336,.00689,-.025714,0.0*
1,1,.006,.00689,-.025714*
20,1,.006,.00689,-.025714,.004713,-.026729,0.0*
1,1,.006,.004713,-.026729*
20,1,.006,.004713,-.026729,.002393,-.027351,0.0*
1,1,.006,.002393,-.027351*
20,1,.006,.002393,-.027351,0.0,-.02756,0.0*
1,1,.006,0.0,-.02756*
20,1,.006,0.0,-.02756,-.002393,-.027351,0.0*
1,1,.006,-.002393,-.027351*
20,1,.006,-.002393,-.027351,-.004713,-.026729,0.0*
1,1,.006,-.004713,-.026729*
20,1,.006,-.004713,-.026729,-.00689,-.025714,0.0*
1,1,.006,-.00689,-.025714*
20,1,.006,-.00689,-.025714,-.008858,-.024336,0.0*
1,1,.006,-.008858,-.024336*
20,1,.006,-.008858,-.024336,-.010556,-.022638,0.0*
1,1,.006,-.010556,-.022638*
20,1,.006,-.010556,-.022638,-.011934,-.02067,0.0*
1,1,.006,-.011934,-.02067*
20,1,.006,-.011934,-.02067,-.012949,-.018493,0.0*
1,1,.006,-.012949,-.018493*
20,1,.006,-.012949,-.018493,-.013571,-.016173,0.0*
1,1,.006,-.013571,-.016173*
20,1,.006,-.013571,-.016173,-.01378,-.01378,0.0*
1,1,.006,-.01378,-.01378*
1,1,.006,-.00322,-.01034*
20,1,.006,-.00322,-.01034,-.00161,-.01125,0.0*
1,1,.006,-.00161,-.01125*
20,1,.006,-.00161,-.01125,.00023,-.01148,0.0*
1,1,.006,.00023,-.01148*
20,1,.006,.00023,-.01148,.00184,-.01125,0.0*
1,1,.006,.00184,-.01125*
20,1,.006,.00184,-.01125,.00322,-.01011,0.0*
1,1,.006,.00322,-.01011*
20,1,.006,.00322,-.01011,.00413,-.0085,0.0*
1,1,.006,.00413,-.0085*
20,1,.006,.00413,-.0085,.00413,.0023,0.0*
1,1,.006,.00413,.0023*
1,1,.006,.00413,.00046*
20,1,.006,.00413,.00046,.00322,.00138,0.0*
1,1,.006,.00322,.00138*
20,1,.006,.00322,.00138,.00184,.00207,0.0*
1,1,.006,.00184,.00207*
20,1,.006,.00184,.00207,.00023,.0023,0.0*
1,1,.006,.00023,.0023*
20,1,.006,.00023,.0023,-.00161,.00184,0.0*
1,1,.006,-.00161,.00184*
20,1,.006,-.00161,.00184,-.00276,.00092,0.0*
1,1,.006,-.00276,.00092*
20,1,.006,-.00276,.00092,-.00367,-.00069,0.0*
1,1,.006,-.00367,-.00069*
20,1,.006,-.00367,-.00069,-.00413,-.0023,0.0*
1,1,.006,-.00413,-.0023*
20,1,.006,-.00413,-.0023,-.0039,-.00367,0.0*
1,1,.006,-.0039,-.00367*
20,1,.006,-.0039,-.00367,-.00299,-.00528,0.0*
1,1,.006,-.00299,-.00528*
20,1,.006,-.00299,-.00528,-.00161,-.00643,0.0*
1,1,.006,-.00161,-.00643*
20,1,.006,-.00161,-.00643,.00023,-.00689,0.0*
1,1,.006,.00023,-.00689*
20,1,.006,.00023,-.00689,.00161,-.00666,0.0*
1,1,.006,.00161,-.00666*
20,1,.006,.00161,-.00666,.00322,-.00574,0.0*
1,1,.006,.00322,-.00574*
20,1,.006,.00322,-.00574,.00413,-.00482,0.0*
1,1,.006,.00413,-.00482*
%
%ADD12MACRO12*%
%AMMACRO13*
1,1,.006,-.01378,-.01968*
20,1,.006,-.01378,-.01968,-.01378,.01968,0.0*
1,1,.006,-.01378,.01968*
20,1,.006,-.01378,.01968,-.013571,.022073,0.0*
1,1,.006,-.013571,.022073*
20,1,.006,-.013571,.022073,-.012949,.024393,0.0*
1,1,.006,-.012949,.024393*
20,1,.006,-.012949,.024393,-.011934,.02657,0.0*
1,1,.006,-.011934,.02657*
20,1,.006,-.011934,.02657,-.010556,.028538,0.0*
1,1,.006,-.010556,.028538*
20,1,.006,-.010556,.028538,-.008858,.030236,0.0*
1,1,.006,-.008858,.030236*
20,1,.006,-.008858,.030236,-.00689,.031614,0.0*
1,1,.006,-.00689,.031614*
20,1,.006,-.00689,.031614,-.004713,.032629,0.0*
1,1,.006,-.004713,.032629*
20,1,.006,-.004713,.032629,-.002393,.033251,0.0*
1,1,.006,-.002393,.033251*
20,1,.006,-.002393,.033251,0.0,.03346,0.0*
1,1,.006,0.0,.03346*
20,1,.006,0.0,.03346,.002393,.033251,0.0*
1,1,.006,.002393,.033251*
20,1,.006,.002393,.033251,.004713,.032629,0.0*
1,1,.006,.004713,.032629*
20,1,.006,.004713,.032629,.00689,.031614,0.0*
1,1,.006,.00689,.031614*
20,1,.006,.00689,.031614,.008858,.030236,0.0*
1,1,.006,.008858,.030236*
20,1,.006,.008858,.030236,.010556,.028538,0.0*
1,1,.006,.010556,.028538*
20,1,.006,.010556,.028538,.011934,.02657,0.0*
1,1,.006,.011934,.02657*
20,1,.006,.011934,.02657,.012949,.024393,0.0*
1,1,.006,.012949,.024393*
20,1,.006,.012949,.024393,.013571,.022073,0.0*
1,1,.006,.013571,.022073*
20,1,.006,.013571,.022073,.01378,.01968,0.0*
1,1,.006,.01378,.01968*
20,1,.006,.01378,.01968,.01378,-.01968,0.0*
1,1,.006,.01378,-.01968*
20,1,.006,.01378,-.01968,.013571,-.022073,0.0*
1,1,.006,.013571,-.022073*
20,1,.006,.013571,-.022073,.012949,-.024393,0.0*
1,1,.006,.012949,-.024393*
20,1,.006,.012949,-.024393,.011934,-.02657,0.0*
1,1,.006,.011934,-.02657*
20,1,.006,.011934,-.02657,.010556,-.028538,0.0*
1,1,.006,.010556,-.028538*
20,1,.006,.010556,-.028538,.008858,-.030236,0.0*
1,1,.006,.008858,-.030236*
20,1,.006,.008858,-.030236,.00689,-.031614,0.0*
1,1,.006,.00689,-.031614*
20,1,.006,.00689,-.031614,.004713,-.032629,0.0*
1,1,.006,.004713,-.032629*
20,1,.006,.004713,-.032629,.002393,-.033251,0.0*
1,1,.006,.002393,-.033251*
20,1,.006,.002393,-.033251,0.0,-.03346,0.0*
1,1,.006,0.0,-.03346*
20,1,.006,0.0,-.03346,-.002393,-.033251,0.0*
1,1,.006,-.002393,-.033251*
20,1,.006,-.002393,-.033251,-.004713,-.032629,0.0*
1,1,.006,-.004713,-.032629*
20,1,.006,-.004713,-.032629,-.00689,-.031614,0.0*
1,1,.006,-.00689,-.031614*
20,1,.006,-.00689,-.031614,-.008858,-.030236,0.0*
1,1,.006,-.008858,-.030236*
20,1,.006,-.008858,-.030236,-.010556,-.028538,0.0*
1,1,.006,-.010556,-.028538*
20,1,.006,-.010556,-.028538,-.011934,-.02657,0.0*
1,1,.006,-.011934,-.02657*
20,1,.006,-.011934,-.02657,-.012949,-.024393,0.0*
1,1,.006,-.012949,-.024393*
20,1,.006,-.012949,-.024393,-.013571,-.022073,0.0*
1,1,.006,-.013571,-.022073*
20,1,.006,-.013571,-.022073,-.01378,-.01968,0.0*
1,1,.006,-.01378,-.01968*
1,1,.006,-.00322,-.01034*
20,1,.006,-.00322,-.01034,-.00161,-.01125,0.0*
1,1,.006,-.00161,-.01125*
20,1,.006,-.00161,-.01125,.00023,-.01148,0.0*
1,1,.006,.00023,-.01148*
20,1,.006,.00023,-.01148,.00184,-.01125,0.0*
1,1,.006,.00184,-.01125*
20,1,.006,.00184,-.01125,.00322,-.01011,0.0*
1,1,.006,.00322,-.01011*
20,1,.006,.00322,-.01011,.00413,-.0085,0.0*
1,1,.006,.00413,-.0085*
20,1,.006,.00413,-.0085,.00413,.0023,0.0*
1,1,.006,.00413,.0023*
1,1,.006,.00413,.00046*
20,1,.006,.00413,.00046,.00322,.00138,0.0*
1,1,.006,.00322,.00138*
20,1,.006,.00322,.00138,.00184,.00207,0.0*
1,1,.006,.00184,.00207*
20,1,.006,.00184,.00207,.00023,.0023,0.0*
1,1,.006,.00023,.0023*
20,1,.006,.00023,.0023,-.00161,.00184,0.0*
1,1,.006,-.00161,.00184*
20,1,.006,-.00161,.00184,-.00276,.00092,0.0*
1,1,.006,-.00276,.00092*
20,1,.006,-.00276,.00092,-.00367,-.00069,0.0*
1,1,.006,-.00367,-.00069*
20,1,.006,-.00367,-.00069,-.00413,-.0023,0.0*
1,1,.006,-.00413,-.0023*
20,1,.006,-.00413,-.0023,-.0039,-.00367,0.0*
1,1,.006,-.0039,-.00367*
20,1,.006,-.0039,-.00367,-.00299,-.00528,0.0*
1,1,.006,-.00299,-.00528*
20,1,.006,-.00299,-.00528,-.00161,-.00643,0.0*
1,1,.006,-.00161,-.00643*
20,1,.006,-.00161,-.00643,.00023,-.00689,0.0*
1,1,.006,.00023,-.00689*
20,1,.006,.00023,-.00689,.00161,-.00666,0.0*
1,1,.006,.00161,-.00666*
20,1,.006,.00161,-.00666,.00322,-.00574,0.0*
1,1,.006,.00322,-.00574*
20,1,.006,.00322,-.00574,.00413,-.00482,0.0*
1,1,.006,.00413,-.00482*
%
%ADD13MACRO13*%
%AMMACRO10*
1,1,.006,.013,.02166*
20,1,.006,.013,.02166,.013,-.02165,0.0*
1,1,.006,.013,-.02165*
1,1,.006,.013,-.01515*
20,1,.006,.013,-.01515,.01011,-.01876,0.0*
1,1,.006,.01011,-.01876*
20,1,.006,.01011,-.01876,.00578,-.02093,0.0*
1,1,.006,.00578,-.02093*
20,1,.006,.00578,-.02093,.00073,-.02165,0.0*
1,1,.006,.00073,-.02165*
20,1,.006,.00073,-.02165,-.00505,-.02021,0.0*
1,1,.006,-.00505,-.02021*
20,1,.006,-.00505,-.02021,-.00938,-.0166,0.0*
1,1,.006,-.00938,-.0166*
20,1,.006,-.00938,-.0166,-.01227,-.01227,0.0*
1,1,.006,-.01227,-.01227*
20,1,.006,-.01227,-.01227,-.01299,-.00721,0.0*
1,1,.006,-.01299,-.00721*
20,1,.006,-.01299,-.00721,-.01227,-.00216,0.0*
1,1,.006,-.01227,-.00216*
20,1,.006,-.01227,-.00216,-.00938,.00217,0.0*
1,1,.006,-.00938,.00217*
20,1,.006,-.00938,.00217,-.00505,.00578,0.0*
1,1,.006,-.00505,.00578*
20,1,.006,-.00505,.00578,.00073,.00722,0.0*
1,1,.006,.00073,.00722*
20,1,.006,.00073,.00722,.00578,.0065,0.0*
1,1,.006,.00578,.0065*
20,1,.006,.00578,.0065,.00939,.00506,0.0*
1,1,.006,.00939,.00506*
20,1,.006,.00939,.00506,.013,.00217,0.0*
1,1,.006,.013,.00217*
%
%ADD10MACRO10*%
%AMMACRO11*
1,1,.006,-.0101,-.03248*
20,1,.006,-.0101,-.03248,-.00505,-.03536,0.0*
1,1,.006,-.00505,-.03536*
20,1,.006,-.00505,-.03536,.00073,-.03609,0.0*
1,1,.006,.00073,-.03609*
20,1,.006,.00073,-.03609,.00578,-.03536,0.0*
1,1,.006,.00578,-.03536*
20,1,.006,.00578,-.03536,.01011,-.03176,0.0*
1,1,.006,.01011,-.03176*
20,1,.006,.01011,-.03176,.013,-.0267,0.0*
1,1,.006,.013,-.0267*
20,1,.006,.013,-.0267,.013,.00722,0.0*
1,1,.006,.013,.00722*
1,1,.006,.013,.00145*
20,1,.006,.013,.00145,.01011,.00434,0.0*
1,1,.006,.01011,.00434*
20,1,.006,.01011,.00434,.00578,.0065,0.0*
1,1,.006,.00578,.0065*
20,1,.006,.00578,.0065,.00073,.00722,0.0*
1,1,.006,.00073,.00722*
20,1,.006,.00073,.00722,-.00505,.00578,0.0*
1,1,.006,-.00505,.00578*
20,1,.006,-.00505,.00578,-.00866,.00289,0.0*
1,1,.006,-.00866,.00289*
20,1,.006,-.00866,.00289,-.01155,-.00216,0.0*
1,1,.006,-.01155,-.00216*
20,1,.006,-.01155,-.00216,-.01299,-.00721,0.0*
1,1,.006,-.01299,-.00721*
20,1,.006,-.01299,-.00721,-.01227,-.01155,0.0*
1,1,.006,-.01227,-.01155*
20,1,.006,-.01227,-.01155,-.00938,-.0166,0.0*
1,1,.006,-.00938,-.0166*
20,1,.006,-.00938,-.0166,-.00505,-.02021,0.0*
1,1,.006,-.00505,-.02021*
20,1,.006,-.00505,-.02021,.00073,-.02165,0.0*
1,1,.006,.00073,-.02165*
20,1,.006,.00073,-.02165,.00506,-.02093,0.0*
1,1,.006,.00506,-.02093*
20,1,.006,.00506,-.02093,.01011,-.01804,0.0*
1,1,.006,.01011,-.01804*
20,1,.006,.01011,-.01804,.013,-.01515,0.0*
1,1,.006,.013,-.01515*
%
%ADD11MACRO11*%
%ADD15C,.006*%
G75*
%LPD*%
G75*
G54D10*
X-24381Y-79555D03*
X58583Y110694D03*
X81417D03*
G54D11*
X-24381Y-92555D03*
X114300Y49287D03*
Y59287D03*
Y69287D03*
Y79287D03*
G54D12*
X-24381Y-105555D03*
X52992Y125064D03*
X87008D03*
G54D13*
X-24381Y-118555D03*
X52992Y108607D03*
X87008D03*
G54D14*
X-24381Y-66555D03*
X49151Y4023D03*
X67500Y4579D03*
X62500D03*
X57500D03*
X52500D03*
X42500D03*
X37500D03*
X59207Y90477D03*
X48919Y74509D03*
X56955Y58757D03*
Y54819D03*
Y50881D03*
Y46943D03*
X41833D03*
X67500Y31003D03*
X62500D03*
X57500D03*
X37500D03*
X51315Y32191D03*
X43974Y32133D03*
X47500Y31003D03*
X40136Y34270D03*
X65583Y42173D03*
X74417D03*
X74823Y66796D03*
X69823D03*
X64823D03*
Y71796D03*
X69823D03*
X74823D03*
Y76796D03*
X69823D03*
X64823D03*
X33029Y59370D03*
X20284Y76830D03*
X24142D03*
X7615Y77257D03*
X23006Y71574D03*
X12556Y59370D03*
X65980Y55869D03*
X87097Y16039D03*
X48919Y54819D03*
Y58757D03*
X29801Y35320D03*
X12556Y36536D03*
X17056Y76830D03*
X82500Y15451D03*
X77500D03*
Y31003D03*
X9997Y36536D03*
X72500Y31003D03*
X15115Y45242D03*
X22793Y36536D03*
X30470Y46852D03*
X20233Y36536D03*
X27911Y51775D03*
X17674Y36536D03*
X25352Y47684D03*
X79656Y90477D03*
X9997Y59370D03*
X15115D03*
X48919Y70571D03*
X56955Y62695D03*
X57122Y82760D03*
X17674Y68076D03*
X13444Y89897D03*
X20233Y68076D03*
X32971Y69298D03*
X41240Y89897D03*
X63145Y94335D03*
X51959Y101431D03*
X27506Y102758D03*
X76877Y96528D03*
X24278Y102758D03*
X20420D03*
X29582Y94897D03*
X81764Y94624D03*
X72953Y110007D03*
X69016D03*
X13444Y94897D03*
X87811Y4131D03*
X112500Y4325D03*
X105729Y3042D03*
X102500Y4040D03*
X97500Y3149D03*
X92500Y4579D03*
X124504Y20514D03*
Y10200D03*
X87207Y19213D03*
X124504Y13428D03*
Y17286D03*
X91010Y17398D03*
X117500Y33878D03*
X119110Y15676D03*
X112500Y33878D03*
X107500D03*
X102500D03*
X97500Y31003D03*
X92500D03*
X88041Y101431D03*
G54D15*
G01X-47381Y-125055D02*
Y-9055D01*
X201619D01*
Y-125055D01*
X-47381D01*
G01X-1381Y-47055D02*
Y-125055D01*
G01X-47381Y-86055D02*
X201619D01*
G01X-47381Y-99055D02*
X201619D01*
G01X-47381Y-112055D02*
X201619D01*
G01X-47381Y-34055D02*
X201619D01*
G01X-47381Y-47055D02*
X201619D01*
G01X-47381Y-60055D02*
X201619D01*
G01X-47381Y-73055D02*
X201619D01*
G01X96619Y-47055D02*
Y-125055D01*
G01X162119Y-47055D02*
Y-125055D01*
G01X-6331Y-18805D02*
Y-12305D01*
X-4331D01*
X-3531Y-12630D01*
X-2931Y-13063D01*
X-2431Y-13713D01*
X-2031Y-14472D01*
X-1931Y-15555D01*
X-2031Y-16638D01*
X-2431Y-17397D01*
X-2931Y-18047D01*
X-3531Y-18480D01*
X-4331Y-18805D01*
X-6331D01*
G01X369D02*
Y-12305D01*
X2869D01*
X3669Y-12630D01*
X4169Y-13063D01*
X4369Y-13930D01*
X4169Y-14797D01*
X3569Y-15338D01*
X2869Y-15663D01*
X369D01*
G01X2869D02*
X4369Y-18805D01*
G01X7669Y-12305D02*
X10069D01*
G01X8869D02*
Y-18805D01*
G01X7669D02*
X10069D01*
G01X13369Y-12305D02*
Y-18805D01*
X17369D01*
G01X19869Y-12305D02*
Y-18805D01*
X23869D01*
G01X37069Y-12847D02*
X36469Y-12522D01*
X35769Y-12305D01*
X34969D01*
X34069Y-12630D01*
X33369Y-13172D01*
X32869Y-13822D01*
X32469Y-14905D01*
X32369Y-15880D01*
X32569Y-16855D01*
X32869Y-17505D01*
X33469Y-18155D01*
X34169Y-18588D01*
X34869Y-18805D01*
X35569D01*
X36269Y-18588D01*
X36869Y-18263D01*
X37369Y-17830D01*
G01X39269Y-18805D02*
Y-12305D01*
G01X43469D02*
Y-18805D01*
G01Y-15555D02*
X39269D01*
G01X45369Y-18805D02*
X47869Y-12305D01*
X50369Y-18805D01*
G01X49469Y-16530D02*
X46269D01*
G01X52369Y-18805D02*
Y-12305D01*
X54869D01*
X55669Y-12630D01*
X56169Y-13063D01*
X56369Y-13930D01*
X56169Y-14797D01*
X55569Y-15338D01*
X54869Y-15663D01*
X52369D01*
G01X54869D02*
X56369Y-18805D01*
G01X60869Y-12305D02*
Y-18805D01*
G01X58569Y-12305D02*
X63169D01*
G01X67369Y-19022D02*
X67169Y-18913D01*
Y-18697D01*
X67369Y-18588D01*
X67569Y-18697D01*
Y-18913D01*
X67369Y-19022D01*
G01Y-16097D02*
X67169Y-15988D01*
Y-15772D01*
X67369Y-15663D01*
X67569Y-15772D01*
Y-15988D01*
X67369Y-16097D01*
G01X80369Y-12305D02*
Y-18805D01*
G01X78069Y-12305D02*
X82669D01*
G01X86869Y-18805D02*
X86069Y-18697D01*
X85369Y-18263D01*
X84769Y-17613D01*
X84369Y-16855D01*
X84169Y-15988D01*
Y-15122D01*
X84369Y-14255D01*
X84769Y-13497D01*
X85369Y-12847D01*
X86069Y-12413D01*
X86869Y-12305D01*
X87669Y-12413D01*
X88369Y-12847D01*
X88969Y-13497D01*
X89369Y-14255D01*
X89569Y-15122D01*
Y-15988D01*
X89369Y-16855D01*
X88969Y-17613D01*
X88369Y-18263D01*
X87669Y-18697D01*
X86869Y-18805D01*
G01X91369D02*
Y-12305D01*
X93769D01*
X94569Y-12630D01*
X95169Y-13388D01*
X95369Y-14255D01*
X95169Y-15122D01*
X94669Y-15772D01*
X93769Y-16097D01*
X91369D01*
G01X106369Y-12305D02*
Y-18805D01*
G01X104969Y-14472D02*
X107769D01*
G01X112869Y-18805D02*
X112269Y-18697D01*
X111669Y-18263D01*
X111269Y-17505D01*
X111069Y-16638D01*
X111269Y-15772D01*
X111669Y-15013D01*
X112269Y-14580D01*
X112869Y-14472D01*
X113469Y-14580D01*
X114069Y-15013D01*
X114469Y-15772D01*
X114569Y-16638D01*
X114469Y-17505D01*
X114069Y-18263D01*
X113469Y-18697D01*
X112869Y-18805D01*
G01X126669Y-15338D02*
X127069Y-15013D01*
X127369Y-14472D01*
X127569Y-13713D01*
X127369Y-13063D01*
X126969Y-12630D01*
X126269Y-12305D01*
X123569D01*
Y-18805D01*
X126869D01*
X127569Y-18372D01*
X127969Y-17722D01*
X128169Y-16963D01*
X127969Y-16205D01*
X127369Y-15555D01*
X126669Y-15338D01*
X123569D01*
G01X132369Y-18805D02*
X131569Y-18697D01*
X130869Y-18263D01*
X130269Y-17613D01*
X129869Y-16855D01*
X129669Y-15988D01*
Y-15122D01*
X129869Y-14255D01*
X130269Y-13497D01*
X130869Y-12847D01*
X131569Y-12413D01*
X132369Y-12305D01*
X133169Y-12413D01*
X133869Y-12847D01*
X134469Y-13497D01*
X134869Y-14255D01*
X135069Y-15122D01*
Y-15988D01*
X134869Y-16855D01*
X134469Y-17613D01*
X133869Y-18263D01*
X133169Y-18697D01*
X132369Y-18805D01*
G01X138869Y-12305D02*
Y-18805D01*
G01X136569Y-12305D02*
X141169D01*
G01X145369D02*
Y-18805D01*
G01X143069Y-12305D02*
X147669D01*
G01X151869Y-18805D02*
X151069Y-18697D01*
X150369Y-18263D01*
X149769Y-17613D01*
X149369Y-16855D01*
X149169Y-15988D01*
Y-15122D01*
X149369Y-14255D01*
X149769Y-13497D01*
X150369Y-12847D01*
X151069Y-12413D01*
X151869Y-12305D01*
X152669Y-12413D01*
X153369Y-12847D01*
X153969Y-13497D01*
X154369Y-14255D01*
X154569Y-15122D01*
Y-15988D01*
X154369Y-16855D01*
X153969Y-17613D01*
X153369Y-18263D01*
X152669Y-18697D01*
X151869Y-18805D01*
G01X155769D02*
Y-12305D01*
X158369Y-17722D01*
X160969Y-12305D01*
Y-18805D01*
G01X-42531Y-56805D02*
Y-50305D01*
X-38731D01*
G01X-40131Y-53447D02*
X-42531D01*
G01X-35331Y-50305D02*
X-32931D01*
G01X-34131D02*
Y-56805D01*
G01X-35331D02*
X-32931D01*
G01X-27031Y-53555D02*
X-25031D01*
Y-55505D01*
X-25631Y-56155D01*
X-26331Y-56588D01*
X-27331Y-56805D01*
X-28331Y-56588D01*
X-29031Y-56155D01*
X-29631Y-55505D01*
X-30031Y-54747D01*
X-30231Y-53880D01*
Y-53122D01*
X-30031Y-52472D01*
X-29631Y-51713D01*
X-29031Y-51063D01*
X-28431Y-50630D01*
X-27631Y-50305D01*
X-26931D01*
X-26131Y-50522D01*
X-25531Y-50955D01*
G01X-23331Y-50305D02*
Y-54963D01*
X-22931Y-55939D01*
X-22131Y-56588D01*
X-21131Y-56805D01*
X-20131Y-56588D01*
X-19331Y-55939D01*
X-18931Y-54963D01*
Y-50305D01*
G01X-16631Y-56805D02*
Y-50305D01*
X-14131D01*
X-13331Y-50630D01*
X-12831Y-51063D01*
X-12631Y-51930D01*
X-12831Y-52797D01*
X-13431Y-53338D01*
X-14131Y-53663D01*
X-16631D01*
G01X-14131D02*
X-12631Y-56805D01*
G01X-6131D02*
X-10131D01*
Y-50305D01*
X-6131D01*
G01X-7731Y-53447D02*
X-10131D01*
G01X32719Y-77388D02*
X33319Y-76738D01*
X34019Y-76413D01*
X34819Y-76305D01*
X35819Y-76522D01*
X36519Y-77063D01*
X36719Y-77713D01*
X36619Y-78363D01*
X36219Y-78905D01*
X34219Y-79988D01*
X33319Y-80747D01*
X32719Y-81830D01*
X32519Y-82805D01*
X36719D01*
G01X40919D02*
X41119Y-81397D01*
X41419Y-80205D01*
X41819Y-79122D01*
X42319Y-77930D01*
X43119Y-76305D01*
X39119D01*
G01X47619Y-83022D02*
X47419Y-82913D01*
Y-82697D01*
X47619Y-82588D01*
X47819Y-82697D01*
Y-82913D01*
X47619Y-83022D01*
G01X51919Y-81830D02*
X52519Y-82372D01*
X53219Y-82697D01*
X54119Y-82805D01*
X55019Y-82588D01*
X55719Y-82155D01*
X56219Y-81397D01*
X56319Y-80530D01*
X56119Y-79663D01*
X55619Y-79122D01*
X54919Y-78688D01*
X54219Y-78580D01*
X53519Y-78688D01*
X52619Y-79122D01*
X52919Y-76305D01*
X55619D01*
G01X58719Y-80097D02*
X59419Y-79338D01*
X60019Y-78905D01*
X60819Y-78688D01*
X61519Y-78905D01*
X62019Y-79338D01*
X62419Y-79988D01*
X62519Y-80747D01*
X62419Y-81397D01*
X62019Y-82047D01*
X61419Y-82588D01*
X60719Y-82805D01*
X59919Y-82588D01*
X59219Y-81939D01*
X58819Y-80963D01*
X58719Y-79880D01*
X58919Y-78472D01*
X59219Y-77713D01*
X59719Y-76955D01*
X60419Y-76413D01*
X61119Y-76305D01*
X61819Y-76522D01*
X62319Y-77063D01*
G01X32419Y-94505D02*
X33019Y-95263D01*
X33819Y-95697D01*
X34719Y-95805D01*
X35519Y-95697D01*
X36319Y-95155D01*
X36819Y-94505D01*
X36919Y-93855D01*
X36719Y-93097D01*
X36019Y-92555D01*
X35319Y-92338D01*
X34419D01*
G01X35319D02*
X35919Y-92013D01*
X36419Y-91472D01*
X36619Y-90822D01*
X36419Y-90172D01*
X35919Y-89630D01*
X35019Y-89305D01*
X34119Y-89413D01*
X33219Y-89847D01*
G01X39419Y-95047D02*
X40119Y-95588D01*
X40919Y-95805D01*
X41719Y-95588D01*
X42419Y-94939D01*
X42919Y-93963D01*
X43119Y-92988D01*
Y-91797D01*
X42919Y-90822D01*
X42419Y-89955D01*
X41819Y-89522D01*
X41119Y-89305D01*
X40319Y-89522D01*
X39719Y-89955D01*
X39319Y-90605D01*
X39119Y-91472D01*
X39319Y-92230D01*
X39819Y-92988D01*
X40419Y-93422D01*
X41119Y-93530D01*
X41919Y-93313D01*
X42519Y-92772D01*
X43119Y-91797D01*
G01X47619Y-96022D02*
X47419Y-95913D01*
Y-95697D01*
X47619Y-95588D01*
X47819Y-95697D01*
Y-95913D01*
X47619Y-96022D01*
G01X51919Y-94505D02*
X52519Y-95263D01*
X53319Y-95697D01*
X54219Y-95805D01*
X55019Y-95697D01*
X55819Y-95155D01*
X56319Y-94505D01*
X56419Y-93855D01*
X56219Y-93097D01*
X55519Y-92555D01*
X54819Y-92338D01*
X53919D01*
G01X54819D02*
X55419Y-92013D01*
X55919Y-91472D01*
X56119Y-90822D01*
X55919Y-90172D01*
X55419Y-89630D01*
X54519Y-89305D01*
X53619Y-89413D01*
X52719Y-89847D01*
G01X60419Y-95805D02*
X60619Y-94397D01*
X60919Y-93205D01*
X61319Y-92122D01*
X61819Y-90930D01*
X62619Y-89305D01*
X58619D01*
G01X12919Y-107830D02*
X13519Y-108372D01*
X14219Y-108697D01*
X15119Y-108805D01*
X16019Y-108588D01*
X16719Y-108155D01*
X17219Y-107397D01*
X17319Y-106530D01*
X17119Y-105663D01*
X16619Y-105122D01*
X15919Y-104688D01*
X15219Y-104580D01*
X14519Y-104688D01*
X13619Y-105122D01*
X13919Y-102305D01*
X16619D01*
G01X19419Y-107830D02*
X20019Y-108372D01*
X20719Y-108697D01*
X21619Y-108805D01*
X22519Y-108588D01*
X23219Y-108155D01*
X23719Y-107397D01*
X23819Y-106530D01*
X23619Y-105663D01*
X23119Y-105122D01*
X22419Y-104688D01*
X21719Y-104580D01*
X21019Y-104688D01*
X20119Y-105122D01*
X20419Y-102305D01*
X23119D01*
G01X28119Y-109022D02*
X27919Y-108913D01*
Y-108697D01*
X28119Y-108588D01*
X28319Y-108697D01*
Y-108913D01*
X28119Y-109022D01*
G01X34619Y-108805D02*
Y-102305D01*
X33419Y-103605D01*
G01Y-108805D02*
X35819D01*
G01X39219Y-103388D02*
X39819Y-102738D01*
X40519Y-102413D01*
X41319Y-102305D01*
X42319Y-102522D01*
X43019Y-103063D01*
X43219Y-103713D01*
X43119Y-104363D01*
X42719Y-104905D01*
X40719Y-105988D01*
X39819Y-106747D01*
X39219Y-107830D01*
X39019Y-108805D01*
X43219D01*
G01X46119Y-104472D02*
X49119Y-108805D01*
G01Y-104472D02*
X46119Y-108805D01*
G01X52219Y-103388D02*
X52819Y-102738D01*
X53519Y-102413D01*
X54319Y-102305D01*
X55319Y-102522D01*
X56019Y-103063D01*
X56219Y-103713D01*
X56119Y-104363D01*
X55719Y-104905D01*
X53719Y-105988D01*
X52819Y-106747D01*
X52219Y-107830D01*
X52019Y-108805D01*
X56219D01*
G01X60419D02*
X60619Y-107397D01*
X60919Y-106205D01*
X61319Y-105122D01*
X61819Y-103930D01*
X62619Y-102305D01*
X58619D01*
G01X67119Y-109022D02*
X66919Y-108913D01*
Y-108697D01*
X67119Y-108588D01*
X67319Y-108697D01*
Y-108913D01*
X67119Y-109022D01*
G01X71419Y-107830D02*
X72019Y-108372D01*
X72719Y-108697D01*
X73619Y-108805D01*
X74519Y-108588D01*
X75219Y-108155D01*
X75719Y-107397D01*
X75819Y-106530D01*
X75619Y-105663D01*
X75119Y-105122D01*
X74419Y-104688D01*
X73719Y-104580D01*
X73019Y-104688D01*
X72119Y-105122D01*
X72419Y-102305D01*
X75119D01*
G01X78219Y-106097D02*
X78919Y-105338D01*
X79519Y-104905D01*
X80319Y-104688D01*
X81019Y-104905D01*
X81519Y-105338D01*
X81919Y-105988D01*
X82019Y-106747D01*
X81919Y-107397D01*
X81519Y-108047D01*
X80919Y-108588D01*
X80219Y-108805D01*
X79419Y-108588D01*
X78719Y-107939D01*
X78319Y-106963D01*
X78219Y-105880D01*
X78419Y-104472D01*
X78719Y-103713D01*
X79219Y-102955D01*
X79919Y-102413D01*
X80619Y-102305D01*
X81319Y-102522D01*
X81819Y-103063D01*
G01X13219Y-119097D02*
X13919Y-118338D01*
X14519Y-117905D01*
X15319Y-117688D01*
X16019Y-117905D01*
X16519Y-118338D01*
X16919Y-118988D01*
X17019Y-119747D01*
X16919Y-120397D01*
X16519Y-121047D01*
X15919Y-121588D01*
X15219Y-121805D01*
X14419Y-121588D01*
X13719Y-120939D01*
X13319Y-119963D01*
X13219Y-118880D01*
X13419Y-117472D01*
X13719Y-116713D01*
X14219Y-115955D01*
X14919Y-115413D01*
X15619Y-115305D01*
X16319Y-115522D01*
X16819Y-116063D01*
G01X19719Y-119097D02*
X20419Y-118338D01*
X21019Y-117905D01*
X21819Y-117688D01*
X22519Y-117905D01*
X23019Y-118338D01*
X23419Y-118988D01*
X23519Y-119747D01*
X23419Y-120397D01*
X23019Y-121047D01*
X22419Y-121588D01*
X21719Y-121805D01*
X20919Y-121588D01*
X20219Y-120939D01*
X19819Y-119963D01*
X19719Y-118880D01*
X19919Y-117472D01*
X20219Y-116713D01*
X20719Y-115955D01*
X21419Y-115413D01*
X22119Y-115305D01*
X22819Y-115522D01*
X23319Y-116063D01*
G01X28119Y-122022D02*
X27919Y-121913D01*
Y-121697D01*
X28119Y-121588D01*
X28319Y-121697D01*
Y-121913D01*
X28119Y-122022D01*
G01X32919Y-121047D02*
X33619Y-121588D01*
X34419Y-121805D01*
X35219Y-121588D01*
X35919Y-120939D01*
X36419Y-119963D01*
X36619Y-118988D01*
Y-117797D01*
X36419Y-116822D01*
X35919Y-115955D01*
X35319Y-115522D01*
X34619Y-115305D01*
X33819Y-115522D01*
X33219Y-115955D01*
X32819Y-116605D01*
X32619Y-117472D01*
X32819Y-118230D01*
X33319Y-118988D01*
X33919Y-119422D01*
X34619Y-119530D01*
X35419Y-119313D01*
X36019Y-118772D01*
X36619Y-117797D01*
G01X38919Y-120505D02*
X39519Y-121263D01*
X40319Y-121697D01*
X41219Y-121805D01*
X42019Y-121697D01*
X42819Y-121155D01*
X43319Y-120505D01*
X43419Y-119855D01*
X43219Y-119097D01*
X42519Y-118555D01*
X41819Y-118338D01*
X40919D01*
G01X41819D02*
X42419Y-118013D01*
X42919Y-117472D01*
X43119Y-116822D01*
X42919Y-116172D01*
X42419Y-115630D01*
X41519Y-115305D01*
X40619Y-115413D01*
X39719Y-115847D01*
G01X46119Y-117472D02*
X49119Y-121805D01*
G01Y-117472D02*
X46119Y-121805D01*
G01X52219Y-116388D02*
X52819Y-115738D01*
X53519Y-115413D01*
X54319Y-115305D01*
X55319Y-115522D01*
X56019Y-116063D01*
X56219Y-116713D01*
X56119Y-117363D01*
X55719Y-117905D01*
X53719Y-118988D01*
X52819Y-119747D01*
X52219Y-120830D01*
X52019Y-121805D01*
X56219D01*
G01X60419D02*
X60619Y-120397D01*
X60919Y-119205D01*
X61319Y-118122D01*
X61819Y-116930D01*
X62619Y-115305D01*
X58619D01*
G01X67119Y-122022D02*
X66919Y-121913D01*
Y-121697D01*
X67119Y-121588D01*
X67319Y-121697D01*
Y-121913D01*
X67119Y-122022D01*
G01X71419Y-120830D02*
X72019Y-121372D01*
X72719Y-121697D01*
X73619Y-121805D01*
X74519Y-121588D01*
X75219Y-121155D01*
X75719Y-120397D01*
X75819Y-119530D01*
X75619Y-118663D01*
X75119Y-118122D01*
X74419Y-117688D01*
X73719Y-117580D01*
X73019Y-117688D01*
X72119Y-118122D01*
X72419Y-115305D01*
X75119D01*
G01X78219Y-119097D02*
X78919Y-118338D01*
X79519Y-117905D01*
X80319Y-117688D01*
X81019Y-117905D01*
X81519Y-118338D01*
X81919Y-118988D01*
X82019Y-119747D01*
X81919Y-120397D01*
X81519Y-121047D01*
X80919Y-121588D01*
X80219Y-121805D01*
X79419Y-121588D01*
X78719Y-120939D01*
X78319Y-119963D01*
X78219Y-118880D01*
X78419Y-117472D01*
X78719Y-116713D01*
X79219Y-115955D01*
X79919Y-115413D01*
X80619Y-115305D01*
X81319Y-115522D01*
X81819Y-116063D01*
G01X9619Y-43805D02*
X12119Y-37305D01*
X14619Y-43805D01*
G01X13719Y-41530D02*
X10519D01*
G01X16619Y-37305D02*
Y-43805D01*
X20619D01*
G01X23119Y-37305D02*
Y-43805D01*
X27119D01*
G01X35919Y-37305D02*
Y-41963D01*
X36319Y-42939D01*
X37119Y-43588D01*
X38119Y-43805D01*
X39119Y-43588D01*
X39919Y-42939D01*
X40319Y-41963D01*
Y-37305D01*
G01X42319Y-43805D02*
Y-37305D01*
X46919Y-43805D01*
Y-37305D01*
G01X49919D02*
X52319D01*
G01X51119D02*
Y-43805D01*
G01X49919D02*
X52319D01*
G01X57619Y-37305D02*
Y-43805D01*
G01X55319Y-37305D02*
X59919D01*
G01X62019Y-42939D02*
X62819Y-43480D01*
X63719Y-43805D01*
X64519D01*
X65319Y-43480D01*
X65919Y-42939D01*
X66219Y-42180D01*
X66019Y-41422D01*
X65519Y-40772D01*
X64619Y-40338D01*
X63419Y-40122D01*
X62719Y-39688D01*
X62419Y-38930D01*
X62619Y-38172D01*
X63119Y-37630D01*
X63819Y-37305D01*
X64519D01*
X65219Y-37522D01*
X65819Y-38063D01*
G01X74619Y-43805D02*
X77119Y-37305D01*
X79619Y-43805D01*
G01X78719Y-41530D02*
X75519D01*
G01X81619Y-43805D02*
Y-37305D01*
X84119D01*
X84919Y-37630D01*
X85419Y-38063D01*
X85619Y-38930D01*
X85419Y-39797D01*
X84819Y-40338D01*
X84119Y-40663D01*
X81619D01*
G01X84119D02*
X85619Y-43805D01*
G01X92119D02*
X88119D01*
Y-37305D01*
X92119D01*
G01X90519Y-40447D02*
X88119D01*
G01X101919Y-37305D02*
X104319D01*
G01X103119D02*
Y-43805D01*
G01X101919D02*
X104319D01*
G01X107319D02*
Y-37305D01*
X111919Y-43805D01*
Y-37305D01*
G01X120019Y-43805D02*
Y-37305D01*
X122619Y-42722D01*
X125219Y-37305D01*
Y-43805D01*
G01X127919Y-37305D02*
X130319D01*
G01X129119D02*
Y-43805D01*
G01X127919D02*
X130319D01*
G01X133619Y-37305D02*
Y-43805D01*
X137619D01*
G01X140019Y-42939D02*
X140819Y-43480D01*
X141719Y-43805D01*
X142519D01*
X143319Y-43480D01*
X143919Y-42939D01*
X144219Y-42180D01*
X144019Y-41422D01*
X143519Y-40772D01*
X142619Y-40338D01*
X141419Y-40122D01*
X140719Y-39688D01*
X140419Y-38930D01*
X140619Y-38172D01*
X141119Y-37630D01*
X141819Y-37305D01*
X142519D01*
X143219Y-37522D01*
X143819Y-38063D01*
G01X35769Y-55939D02*
X36569Y-56480D01*
X37469Y-56805D01*
X38269D01*
X39069Y-56480D01*
X39669Y-55939D01*
X39969Y-55180D01*
X39769Y-54422D01*
X39269Y-53772D01*
X38369Y-53338D01*
X37169Y-53122D01*
X36469Y-52688D01*
X36169Y-51930D01*
X36369Y-51172D01*
X36869Y-50630D01*
X37569Y-50305D01*
X38269D01*
X38969Y-50522D01*
X39569Y-51063D01*
G01X43169Y-50305D02*
X45569D01*
G01X44369D02*
Y-56805D01*
G01X43169D02*
X45569D01*
G01X48969Y-50305D02*
X52769D01*
X48969Y-56805D01*
X52769D01*
G01X59369D02*
X55369D01*
Y-50305D01*
X59369D01*
G01X57769Y-53447D02*
X55369D01*
G01X41119Y-69805D02*
X41819Y-69697D01*
X42619Y-69372D01*
X43119Y-68830D01*
X43319Y-68072D01*
X43119Y-67313D01*
X42519Y-66663D01*
X41619Y-66338D01*
X40619D01*
X40019Y-66122D01*
X39519Y-65580D01*
X39319Y-64822D01*
X39619Y-64063D01*
X40319Y-63522D01*
X41119Y-63305D01*
X41919Y-63522D01*
X42619Y-64063D01*
X42919Y-64822D01*
X42719Y-65580D01*
X42219Y-66122D01*
X41619Y-66338D01*
X40619D01*
X39719Y-66663D01*
X39119Y-67313D01*
X38919Y-68072D01*
X39119Y-68830D01*
X39619Y-69372D01*
X40419Y-69697D01*
X41119Y-69805D01*
G01X47619Y-70022D02*
X47419Y-69913D01*
Y-69697D01*
X47619Y-69588D01*
X47819Y-69697D01*
Y-69913D01*
X47619Y-70022D01*
G01X54119Y-63305D02*
X53319Y-63522D01*
X52719Y-64063D01*
X52319Y-64713D01*
X52019Y-65580D01*
X51919Y-66555D01*
X52019Y-67530D01*
X52319Y-68397D01*
X52719Y-69047D01*
X53319Y-69588D01*
X54119Y-69805D01*
X54919Y-69588D01*
X55519Y-69047D01*
X55919Y-68397D01*
X56219Y-67530D01*
X56319Y-66555D01*
X56219Y-65580D01*
X55919Y-64713D01*
X55519Y-64063D01*
X54919Y-63522D01*
X54119Y-63305D01*
G01X10000Y0D02*
X130000D01*
G03X140000Y10000I0J10000D01*
G01Y126000D01*
G03X130000Y136000I-10000J0D01*
G01X10000D01*
G03X0Y126000I0J-10000D01*
G01Y10000D01*
G03X10000Y0I10000J0D01*
G01X111119Y-82805D02*
Y-76305D01*
X113519D01*
X114319Y-76630D01*
X114919Y-77388D01*
X115119Y-78255D01*
X114919Y-79122D01*
X114419Y-79772D01*
X113519Y-80097D01*
X111119D01*
G01X117619Y-76305D02*
Y-82805D01*
X121619D01*
G01X123619D02*
X126119Y-76305D01*
X128619Y-82805D01*
G01X127719Y-80530D02*
X124519D01*
G01X132619Y-76305D02*
Y-82805D01*
G01X130319Y-76305D02*
X134919D01*
G01X141119Y-82805D02*
X137119D01*
Y-76305D01*
X141119D01*
G01X139519Y-79447D02*
X137119D01*
G01X143419Y-82805D02*
Y-76305D01*
X145419D01*
X146219Y-76630D01*
X146819Y-77063D01*
X147319Y-77713D01*
X147719Y-78472D01*
X147819Y-79555D01*
X147719Y-80638D01*
X147319Y-81397D01*
X146819Y-82047D01*
X146219Y-82480D01*
X145419Y-82805D01*
X143419D01*
G01X111119Y-95805D02*
Y-89305D01*
X113519D01*
X114319Y-89630D01*
X114919Y-90388D01*
X115119Y-91255D01*
X114919Y-92122D01*
X114419Y-92772D01*
X113519Y-93097D01*
X111119D01*
G01X117619Y-89305D02*
Y-95805D01*
X121619D01*
G01X123619D02*
X126119Y-89305D01*
X128619Y-95805D01*
G01X127719Y-93530D02*
X124519D01*
G01X132619Y-89305D02*
Y-95805D01*
G01X130319Y-89305D02*
X134919D01*
G01X141119Y-95805D02*
X137119D01*
Y-89305D01*
X141119D01*
G01X139519Y-92447D02*
X137119D01*
G01X143419Y-95805D02*
Y-89305D01*
X145419D01*
X146219Y-89630D01*
X146819Y-90063D01*
X147319Y-90713D01*
X147719Y-91472D01*
X147819Y-92555D01*
X147719Y-93638D01*
X147319Y-94397D01*
X146819Y-95047D01*
X146219Y-95480D01*
X145419Y-95805D01*
X143419D01*
G01X111119Y-108805D02*
Y-102305D01*
X113519D01*
X114319Y-102630D01*
X114919Y-103388D01*
X115119Y-104255D01*
X114919Y-105122D01*
X114419Y-105772D01*
X113519Y-106097D01*
X111119D01*
G01X117619Y-102305D02*
Y-108805D01*
X121619D01*
G01X123619D02*
X126119Y-102305D01*
X128619Y-108805D01*
G01X127719Y-106530D02*
X124519D01*
G01X132619Y-102305D02*
Y-108805D01*
G01X130319Y-102305D02*
X134919D01*
G01X141119Y-108805D02*
X137119D01*
Y-102305D01*
X141119D01*
G01X139519Y-105447D02*
X137119D01*
G01X143419Y-108805D02*
Y-102305D01*
X145419D01*
X146219Y-102630D01*
X146819Y-103063D01*
X147319Y-103713D01*
X147719Y-104472D01*
X147819Y-105555D01*
X147719Y-106638D01*
X147319Y-107397D01*
X146819Y-108047D01*
X146219Y-108480D01*
X145419Y-108805D01*
X143419D01*
G01X111119Y-121805D02*
Y-115305D01*
X113519D01*
X114319Y-115630D01*
X114919Y-116388D01*
X115119Y-117255D01*
X114919Y-118122D01*
X114419Y-118772D01*
X113519Y-119097D01*
X111119D01*
G01X117619Y-115305D02*
Y-121805D01*
X121619D01*
G01X123619D02*
X126119Y-115305D01*
X128619Y-121805D01*
G01X127719Y-119530D02*
X124519D01*
G01X132619Y-115305D02*
Y-121805D01*
G01X130319Y-115305D02*
X134919D01*
G01X141119Y-121805D02*
X137119D01*
Y-115305D01*
X141119D01*
G01X139519Y-118447D02*
X137119D01*
G01X143419Y-121805D02*
Y-115305D01*
X145419D01*
X146219Y-115630D01*
X146819Y-116063D01*
X147319Y-116713D01*
X147719Y-117472D01*
X147819Y-118555D01*
X147719Y-119638D01*
X147319Y-120397D01*
X146819Y-121047D01*
X146219Y-121480D01*
X145419Y-121805D01*
X143419D01*
G01X111119Y-56805D02*
Y-50305D01*
X113519D01*
X114319Y-50630D01*
X114919Y-51388D01*
X115119Y-52255D01*
X114919Y-53122D01*
X114419Y-53772D01*
X113519Y-54097D01*
X111119D01*
G01X117619Y-50305D02*
Y-56805D01*
X121619D01*
G01X123619D02*
X126119Y-50305D01*
X128619Y-56805D01*
G01X127719Y-54530D02*
X124519D01*
G01X132619Y-50305D02*
Y-56805D01*
G01X130319Y-50305D02*
X134919D01*
G01X141119Y-56805D02*
X137119D01*
Y-50305D01*
X141119D01*
G01X139519Y-53447D02*
X137119D01*
G01X143419Y-56805D02*
Y-50305D01*
X145419D01*
X146219Y-50630D01*
X146819Y-51063D01*
X147319Y-51713D01*
X147719Y-52472D01*
X147819Y-53555D01*
X147719Y-54638D01*
X147319Y-55397D01*
X146819Y-56047D01*
X146219Y-56480D01*
X145419Y-56805D01*
X143419D01*
G01X111119Y-69805D02*
Y-63305D01*
X113519D01*
X114319Y-63630D01*
X114919Y-64388D01*
X115119Y-65255D01*
X114919Y-66122D01*
X114419Y-66772D01*
X113519Y-67097D01*
X111119D01*
G01X117619Y-63305D02*
Y-69805D01*
X121619D01*
G01X123619D02*
X126119Y-63305D01*
X128619Y-69805D01*
G01X127719Y-67530D02*
X124519D01*
G01X132619Y-63305D02*
Y-69805D01*
G01X130319Y-63305D02*
X134919D01*
G01X141119Y-69805D02*
X137119D01*
Y-63305D01*
X141119D01*
G01X139519Y-66447D02*
X137119D01*
G01X143419Y-69805D02*
Y-63305D01*
X145419D01*
X146219Y-63630D01*
X146819Y-64063D01*
X147319Y-64713D01*
X147719Y-65472D01*
X147819Y-66555D01*
X147719Y-67638D01*
X147319Y-68397D01*
X146819Y-69047D01*
X146219Y-69480D01*
X145419Y-69805D01*
X143419D01*
G01X179969Y-77388D02*
X180569Y-76738D01*
X181269Y-76413D01*
X182069Y-76305D01*
X183069Y-76522D01*
X183769Y-77063D01*
X183969Y-77713D01*
X183869Y-78363D01*
X183469Y-78905D01*
X181469Y-79988D01*
X180569Y-80747D01*
X179969Y-81830D01*
X179769Y-82805D01*
X183969D01*
G01X183069Y-95805D02*
Y-89305D01*
X179369Y-93963D01*
X184369D01*
G01X179969Y-103388D02*
X180569Y-102738D01*
X181269Y-102413D01*
X182069Y-102305D01*
X183069Y-102522D01*
X183769Y-103063D01*
X183969Y-103713D01*
X183869Y-104363D01*
X183469Y-104905D01*
X181469Y-105988D01*
X180569Y-106747D01*
X179969Y-107830D01*
X179769Y-108805D01*
X183969D01*
G01X179969Y-116388D02*
X180569Y-115738D01*
X181269Y-115413D01*
X182069Y-115305D01*
X183069Y-115522D01*
X183769Y-116063D01*
X183969Y-116713D01*
X183869Y-117363D01*
X183469Y-117905D01*
X181469Y-118988D01*
X180569Y-119747D01*
X179969Y-120830D01*
X179769Y-121805D01*
X183969D01*
G01X175369Y-56805D02*
X174569Y-56697D01*
X173869Y-56263D01*
X173269Y-55613D01*
X172869Y-54855D01*
X172669Y-53988D01*
Y-53122D01*
X172869Y-52255D01*
X173269Y-51497D01*
X173869Y-50847D01*
X174569Y-50413D01*
X175369Y-50305D01*
X176169Y-50413D01*
X176869Y-50847D01*
X177469Y-51497D01*
X177869Y-52255D01*
X178069Y-53122D01*
Y-53988D01*
X177869Y-54855D01*
X177469Y-55613D01*
X176869Y-56263D01*
X176169Y-56697D01*
X175369Y-56805D01*
G01X176169Y-55072D02*
X177369Y-56805D01*
G01X181869Y-50305D02*
Y-56805D01*
G01X179569Y-50305D02*
X184169D01*
G01X188369Y-56805D02*
Y-53880D01*
X186369Y-50305D01*
G01X190369D02*
X188369Y-53880D01*
G01X175369Y-69805D02*
Y-63305D01*
X174169Y-64605D01*
G01Y-69805D02*
X176569D01*
G01X181869Y-63305D02*
X181069Y-63522D01*
X180469Y-64063D01*
X180069Y-64713D01*
X179769Y-65580D01*
X179669Y-66555D01*
X179769Y-67530D01*
X180069Y-68397D01*
X180469Y-69047D01*
X181069Y-69588D01*
X181869Y-69805D01*
X182669Y-69588D01*
X183269Y-69047D01*
X183669Y-68397D01*
X183969Y-67530D01*
X184069Y-66555D01*
X183969Y-65580D01*
X183669Y-64713D01*
X183269Y-64063D01*
X182669Y-63522D01*
X181869Y-63305D01*
G01X188369D02*
X187569Y-63522D01*
X186969Y-64063D01*
X186569Y-64713D01*
X186269Y-65580D01*
X186169Y-66555D01*
X186269Y-67530D01*
X186569Y-68397D01*
X186969Y-69047D01*
X187569Y-69588D01*
X188369Y-69805D01*
X189169Y-69588D01*
X189769Y-69047D01*
X190169Y-68397D01*
X190469Y-67530D01*
X190569Y-66555D01*
X190469Y-65580D01*
X190169Y-64713D01*
X189769Y-64063D01*
X189169Y-63522D01*
X188369Y-63305D01*
M02*
