M48
INCH,LZ
T01C.008
T02C.02756
T03C.03937
;LEADER: 12 
;HEADER: 
;CODE  : ASCII 
;FILE  : EXTN-1-4.drl for board #Taaaazn12692.tmp ... layers TOP and BOTTOM
;T01 Holesize 1. = 8.000000 Tolerance = +0.000000/-0.000000 PLATED MILS Quantity = 100
;T02 Holesize 2. = 27.560000 Tolerance = +0.000000/-0.000000 PLATED MILS Quantity = 2
;T03 Holesize 3. = 39.370000 Tolerance = +0.000000/-0.000000 PLATED MILS Quantity = 4
%
G90
T01
X00375Y000458
X00425Y000458
X004915Y000402
X00525Y000458
X00575Y000458
X00625Y000458
X00675Y000458
X00775Y001545
X00825Y001545
X00871Y001604
X008721Y001921
X008781Y000413
X009101Y00174
X00925Y000458
X00975Y000315
X01025Y000404
X010573Y000304
X01125Y000432
X011911Y001568
X01245Y00102
X01245Y001343
X01245Y001729
X01245Y002051
X01175Y003388
X01125Y003388
X01075Y003388
X01025Y003388
X00975Y0031
X00925Y0031
X00775Y0031
X00725Y0031
X00675Y0031
X00625Y0031
X00575Y0031
X005132Y003219
X00475Y0031
X004397Y003213
X004014Y003427
X00375Y0031
X00298Y003532
X002279Y003654
X002023Y003654
X001767Y003654
X001256Y003654
X001Y003654
X001Y005937
X001256Y005937
X001512Y004524
X001512Y005937
X002535Y004768
X002791Y005178
X003047Y004685
X003303Y005937
X004183Y004694
X004892Y005482
X004892Y005876
X005696Y004694
X005696Y005088
X005696Y005482
X005696Y005876
X006558Y004217
X006598Y005587
X007442Y004217
X007482Y00768
X007482Y00718
X007482Y00668
X006982Y00768
X006982Y00718
X006982Y00668
X006482Y00768
X006482Y00718
X006482Y00668
X005696Y00627
X004892Y007451
X004892Y007057
X003297Y00693
X002414Y007683
X002301Y007157
X002028Y007683
X002023Y006808
X001767Y006808
X001706Y007683
X000762Y007726
X001344Y00899
X001344Y00949
X002958Y00949
X004124Y00899
X005712Y008276
X005921Y009048
X006314Y009434
X007688Y009653
X007966Y009048
X008176Y009462
X008804Y010143
X007295Y011001
X006902Y011001
X005196Y010143
X002751Y010276
X002428Y010276
X002042Y010276
T02
X005858Y011069
X008142Y011069
T03
X01143Y004929
X01143Y005929
X01143Y006929
X01143Y007929
M30
