G04 ================== begin FILE IDENTIFICATION RECORD ==================*
G04 Layout Name:  G:/project_development/GitHub/StarrySky/EXTN/PCB/V1.0/EXTN.brd*
G04 Film Name:    GND02*
G04 File Format:  Gerber RS274X*
G04 File Origin:  Cadence Allegro 16.6-2015-S066*
G04 Origin Date:  Wed Jul 17 16:02:14 2024*
G04 *
G04 Layer:  VIA CLASS/GND02*
G04 Layer:  PIN/GND02*
G04 Layer:  ETCH/GND02*
G04 Layer:  BOARD GEOMETRY/OUTLINE*
G04 *
G04 Offset:    (0.00 0.00)*
G04 Mirror:    No*
G04 Mode:      Positive*
G04 Rotation:  0*
G04 FullContactRelief:  No*
G04 UndefLineWidth:     6.00*
G04 ================== end FILE IDENTIFICATION RECORD ====================*
%FSLAX55Y55*MOIN*%
%IR0*IPPOS*OFA0.00000B0.00000*MIA0B0*SFA1.00000B1.00000*%
%ADD10C,.018*%
%ADD11C,.02795*%
%ADD14C,.06299*%
%ADD15R,.06299X.06299*%
%ADD12O,.04724X.07087*%
%ADD13O,.04724X.07874*%
%ADD16C,.014*%
%ADD17C,.006*%
%ADD21C,.07302*%
%ADD19C,.02804*%
%ADD20C,.03798*%
%ADD22R,.07302X.07302*%
%ADD18O,.05728X.08878*%
G75*
%LPD*%
G75*
G36*
G01X98803Y1504D02*
G02X98514Y2180I0J400D01*
G03X96486I-1014J969D01*
G02X96197Y1504I-289J-276D01*
G01X10000D01*
G02X1504Y10000I0J8496D01*
G01Y126000D01*
G02X10000Y134496I8496J0D01*
G01X130000D01*
G02X138496Y126000I0J-8496D01*
G01Y10000D01*
G02X130000Y1504I-8496J0D01*
G01X107126D01*
G02X106816Y2157I0J400D01*
G03X104642I-1087J885D01*
G02X104332Y1504I-310J-253D01*
G01X98803D01*
G37*
%LPC*%
G75*
G36*
G01X89872Y123882D02*
G02X84144I-2864J0D01*
G01Y126246D01*
G02X89872I2864J0D01*
G01Y123882D01*
G37*
G36*
G01X55856D02*
G02X50128I-2864J0D01*
G01Y126246D01*
G02X55856I2864J0D01*
G01Y123882D01*
G37*
G36*
G01X19238Y67089D02*
G03X18669I-284J-282D01*
G02Y69063I-995J987D01*
G03X19238I285J282D01*
G02Y67089I995J-987D01*
G37*
G36*
G01X10992Y60357D02*
G03X11561I285J282D01*
G02X13551I995J-987D01*
G03X14120I285J282D01*
G02Y58383I995J-987D01*
G03X13551I-284J-282D01*
G02X11561I-995J987D01*
G03X10992I-285J-282D01*
G02Y60357I-995J987D01*
G37*
G36*
G01X19238Y35549D02*
G03X18669I-284J-282D01*
G02Y37523I-995J987D01*
G03X19238I285J282D01*
G02X21229I996J-987D01*
G03X21797I284J281D01*
G02Y35549I996J-987D01*
G03X21229I-284J-281D01*
G02X19238I-995J987D01*
G37*
G36*
G01X10992Y37523D02*
G03X11561I285J282D01*
G02Y35549I995J-987D01*
G03X10992I-285J-282D01*
G02Y37523I-995J987D01*
G37*
G54D21*
X114300Y49287D03*
Y59287D03*
Y69287D03*
G54D19*
X13444Y89897D03*
Y94897D03*
X82500Y15451D03*
X77500D03*
X37500Y4579D03*
X42500D03*
X52500D03*
X57500D03*
X62500D03*
X67500D03*
X87097Y16039D03*
X91010Y17398D03*
X92500Y4579D03*
X81764Y94624D03*
X79656Y90477D03*
X15115Y45242D03*
X72500Y31003D03*
X41240Y89897D03*
X32971Y69298D03*
X23006Y71574D03*
X29582Y94897D03*
X17056Y76830D03*
X77500Y31003D03*
X30470Y46852D03*
X25352Y47684D03*
X27911Y51775D03*
X29801Y35320D03*
X65980Y55869D03*
X48919Y54819D03*
Y58757D03*
X56955Y62695D03*
X48919Y70571D03*
X92500Y31003D03*
X20420Y102758D03*
X24278D03*
X72953Y110007D03*
X69016D03*
X102500Y4040D03*
X112500Y4325D03*
X119110Y15676D03*
X124504Y13428D03*
Y17286D03*
X102500Y33878D03*
X107500D03*
X112500D03*
X117500D03*
X97500Y31003D03*
X57122Y82760D03*
G54D20*
X58583Y110694D03*
X81417D03*
G54D22*
X114300Y79287D03*
G54D18*
X87008Y108607D03*
X52992D03*
%LPD*%
G75*
G54D10*
X49151Y4023D03*
X67500Y4579D03*
X62500D03*
X57500D03*
X52500D03*
X42500D03*
X37500D03*
X59207Y90477D03*
X48919Y74509D03*
X56955Y58757D03*
Y54819D03*
Y50881D03*
Y46943D03*
X41833D03*
X67500Y31003D03*
X62500D03*
X57500D03*
X37500D03*
X51315Y32191D03*
X43974Y32133D03*
X47500Y31003D03*
X40136Y34270D03*
X65583Y42173D03*
X74417D03*
X74823Y66796D03*
X69823D03*
X64823D03*
Y71796D03*
X69823D03*
X74823D03*
Y76796D03*
X69823D03*
X64823D03*
X33029Y59370D03*
X20284Y76830D03*
X24142D03*
X7615Y77257D03*
X23006Y71574D03*
X12556Y59370D03*
X65980Y55869D03*
X87097Y16039D03*
X48919Y54819D03*
Y58757D03*
X29801Y35320D03*
X12556Y36536D03*
X17056Y76830D03*
X82500Y15451D03*
X77500D03*
Y31003D03*
X9997Y36536D03*
X72500Y31003D03*
X15115Y45242D03*
X22793Y36536D03*
X30470Y46852D03*
X20233Y36536D03*
X27911Y51775D03*
X17674Y36536D03*
X25352Y47684D03*
X79656Y90477D03*
X9997Y59370D03*
X15115D03*
X48919Y70571D03*
X56955Y62695D03*
X57122Y82760D03*
X17674Y68076D03*
X13444Y89897D03*
X20233Y68076D03*
X32971Y69298D03*
X41240Y89897D03*
X63145Y94335D03*
X51959Y101431D03*
X27506Y102758D03*
X76877Y96528D03*
X24278Y102758D03*
X20420D03*
X29582Y94897D03*
X81764Y94624D03*
X72953Y110007D03*
X69016D03*
X13444Y94897D03*
X87811Y4131D03*
X112500Y4325D03*
X105729Y3042D03*
X102500Y4040D03*
X97500Y3149D03*
X92500Y4579D03*
X124504Y20514D03*
Y10200D03*
X87207Y19213D03*
X124504Y13428D03*
Y17286D03*
X91010Y17398D03*
X117500Y33878D03*
X119110Y15676D03*
X112500Y33878D03*
X107500D03*
X102500D03*
X97500Y31003D03*
X92500D03*
X88041Y101431D03*
G54D11*
X58583Y110694D03*
X81417D03*
G54D12*
X52992Y125064D03*
X87008D03*
G54D13*
X52992Y108607D03*
X87008D03*
G54D14*
X114300Y49287D03*
Y59287D03*
Y69287D03*
G54D15*
Y79287D03*
G54D16*
G01X83944Y108607D02*
X87008D01*
G01X83944Y103968D02*
X87008Y108607D01*
G01X83944Y113246D02*
X87008Y108607D01*
G01X52992Y103968D02*
Y108607D01*
G01D02*
Y113246D01*
G01X49928Y108607D02*
X52992D01*
G01D02*
X56056D01*
G01X49928Y103968D02*
X52992Y108607D01*
G01D02*
X56056Y113246D01*
G01X49928D02*
X52992Y108607D01*
G01D02*
X56056Y103968D01*
G01X83944Y125064D02*
X87008D01*
G01X83944Y120818D02*
X87008Y125064D01*
G01X83944Y129310D02*
X87008Y125064D01*
G01X52992Y120818D02*
Y125064D01*
G01D02*
Y129310D01*
G01X49928Y125064D02*
X52992D01*
G01D02*
X56056D01*
G01X49928Y120818D02*
X52992Y125064D01*
G01D02*
X56056Y129310D01*
G01X49928D02*
X52992Y125064D01*
G01D02*
X56056Y120818D01*
G01X87008Y103968D02*
Y108607D01*
G01D02*
Y113246D01*
G01Y108607D02*
X90072D01*
G01X87008D02*
X90072Y113246D01*
G01X87008Y108607D02*
X90072Y103968D01*
G01X87008Y120818D02*
Y125064D01*
G01D02*
Y129310D01*
G01Y125064D02*
X90072D01*
G01X87008D02*
X90072Y129310D01*
G01X87008Y125064D02*
X90072Y120818D01*
G54D17*
G01X10000Y0D02*
X130000D01*
G03X140000Y10000I0J10000D01*
G01Y126000D01*
G03X130000Y136000I-10000J0D01*
G01X10000D01*
G03X0Y126000I0J-10000D01*
G01Y10000D01*
G03X10000Y0I10000J0D01*
M02*
