G04 ================== begin FILE IDENTIFICATION RECORD ==================*
G04 Layout Name:  G:/project_development/GitHub/StarrySky/EXTN/PCB/V1.0/EXTN.brd*
G04 Film Name:    PWR03*
G04 File Format:  Gerber RS274X*
G04 File Origin:  Cadence Allegro 16.6-2015-S066*
G04 Origin Date:  Wed Jul 17 16:02:14 2024*
G04 *
G04 Layer:  VIA CLASS/PWR03*
G04 Layer:  PIN/PWR03*
G04 Layer:  ETCH/PWR03*
G04 Layer:  BOARD GEOMETRY/OUTLINE*
G04 *
G04 Offset:    (0.00 0.00)*
G04 Mirror:    No*
G04 Mode:      Positive*
G04 Rotation:  0*
G04 FullContactRelief:  No*
G04 UndefLineWidth:     6.00*
G04 ================== end FILE IDENTIFICATION RECORD ====================*
%FSLAX55Y55*MOIN*%
%IR0*IPPOS*OFA0.00000B0.00000*MIA0B0*SFA1.00000B1.00000*%
%ADD10C,.018*%
%ADD11C,.02795*%
%ADD14C,.06299*%
%ADD15R,.06299X.06299*%
%ADD12O,.04724X.07087*%
%ADD13O,.04724X.07874*%
%ADD16C,.006*%
%ADD19C,.07302*%
%ADD17C,.02804*%
%ADD20C,.03798*%
%ADD18R,.07302X.07302*%
%ADD21O,.05728X.08878*%
G75*
%LPD*%
G75*
G36*
G01X10000Y1504D02*
G02X1504Y10000I0J8496D01*
G01Y126000D01*
G02X10000Y134496I8496J0D01*
G01X130000D01*
G02X138496Y126000I0J-8496D01*
G01Y10000D01*
G02X130000Y1504I-8496J0D01*
G01X107126D01*
G02X106816Y2157I0J400D01*
G03X104642I-1087J885D01*
G02X104332Y1504I-310J-253D01*
G01X98803D01*
G02X98514Y2180I0J400D01*
G03X96486I-1014J969D01*
G02X96197Y1504I-289J-276D01*
G01X10000D01*
G37*
%LPC*%
G75*
G36*
G01X125585Y11093D02*
G02X123423I-1081J-893D01*
G03X123337Y11680I-308J255D01*
G02X122402Y13428I1166J1748D01*
G01Y15184D01*
X121334D01*
X121109Y15409D01*
G03X120445Y15248I-283J-283D01*
G02X118682Y17011I-1335J428D01*
G03X118843Y17675I-122J381D01*
G01X118613Y17906D01*
X94489D01*
X90521Y13938D01*
X87097D01*
G02X85611Y14553I-1J2101D01*
G01X84579Y15585D01*
G03X83897Y15335I-283J-282D01*
G02X82384Y16848I-1397J116D01*
G03X82634Y17530I-32J399D01*
G01X81490Y18674D01*
Y40872D01*
X68595Y53768D01*
X65980D01*
G02Y57970I0J2101D01*
G01X70335D01*
X85694Y42612D01*
Y20414D01*
X86060Y20048D01*
X86202Y20191D01*
X86203D01*
G02X88383Y18449I1004J-978D01*
G03X88551Y18140I168J-109D01*
G01X88781D01*
X92749Y22108D01*
X120353D01*
X123074Y19388D01*
X123397D01*
Y19651D01*
X123360Y19703D01*
G02X125585Y19621I1144J811D01*
G03X125671Y19034I308J-255D01*
G02X126606Y17286I-1166J-1748D01*
G01Y13428D01*
G02X125671Y11680I-2101J0D01*
G03X125585Y11093I222J-332D01*
G37*
G36*
G01X19238Y67089D02*
G03X18669I-284J-282D01*
G02Y69063I-995J987D01*
G03X19238I285J282D01*
G02Y67089I995J-987D01*
G37*
G36*
G01X55856Y123882D02*
G02X50128I-2864J0D01*
G01Y126246D01*
G02X55856I2864J0D01*
G01Y123882D01*
G37*
G36*
G01X89872D02*
G02X84144I-2864J0D01*
G01Y126246D01*
G02X89872I2864J0D01*
G01Y123882D01*
G37*
G36*
G01X49694Y72768D02*
X51062Y71400D01*
X51222D01*
X58441Y64181D01*
G02X55469Y61209I-1486J-1486D01*
G01X49482Y67196D01*
X49322D01*
X44484Y72035D01*
Y79536D01*
X49809Y84862D01*
X57122D01*
G02Y80658I0J-2102D01*
G01X51549D01*
X48686Y77796D01*
Y76303D01*
G03X49049Y75905I400J0D01*
G02X49742Y73374I-130J-1396D01*
G03X49694Y72768I235J-324D01*
G37*
G36*
G01X27792Y30340D02*
X15781D01*
X11070Y35050D01*
G02X10901Y35241I1486J1486D01*
G03X10650Y35295I-158J-123D01*
G02X9663Y37898I-652J1241D01*
G03X9851Y38569I-95J388D01*
G01X5454Y42967D01*
Y68199D01*
X15570Y78316D01*
G02X18804Y77997I1486J-1486D01*
G03X19391Y77911I332J222D01*
G02Y75749I893J-1081D01*
G03X18804Y75663I-255J-308D01*
G02X18542Y75344I-1747J1168D01*
G01X9656Y66459D01*
Y61171D01*
G03X10043Y60771I400J0D01*
G02Y57969I-46J-1401D01*
G03X9656Y57569I13J-400D01*
G01Y44707D01*
X14658Y39706D01*
Y37406D01*
X15601Y36463D01*
G03X16281Y36699I283J282D01*
G02X18669Y37523I1392J-163D01*
G03X19238I285J282D01*
G02X21229I996J-987D01*
G03X21797I284J281D01*
G02Y35549I996J-987D01*
G03X21229I-284J-281D01*
G02X19238I-995J987D01*
G03X18669I-284J-282D01*
G02X17423Y35157I-995J987D01*
G01X17320Y35176D01*
X17104Y34960D01*
X17521Y34542D01*
X26052D01*
X28315Y36806D01*
G02X29801Y37422I1487J-1486D01*
G01X35134D01*
X46818Y49105D01*
Y54819D01*
G02X51020I2101J0D01*
G01Y47365D01*
X40004Y36348D01*
G03X40254Y35667I283J-282D01*
G02X38739Y34152I-118J-1397D01*
G03X38058Y34402I-399J-33D01*
G01X36874Y33218D01*
X30671D01*
X27792Y30340D01*
G37*
G54D19*
X114300Y69287D03*
Y59287D03*
Y49287D03*
G54D17*
X41833Y46943D03*
X59207Y90477D03*
X97500Y31003D03*
X117500Y33878D03*
X112500D03*
X107500D03*
X102500D03*
X112500Y4325D03*
X102500Y4040D03*
X69016Y110007D03*
X72953D03*
X51959Y101431D03*
X88041D03*
X27506Y102758D03*
X92500Y31003D03*
X63145Y94335D03*
X48919Y58757D03*
X56955D03*
Y54819D03*
Y50881D03*
Y46943D03*
X27911Y51775D03*
X25352Y47684D03*
X30470Y46852D03*
X67500Y31003D03*
X62500D03*
X57500D03*
X37500D03*
X43974Y32133D03*
X51315Y32191D03*
X47500Y31003D03*
X65583Y42173D03*
X74417D03*
X76877Y96528D03*
X77500Y31003D03*
X74823Y66796D03*
X69823D03*
X64823D03*
Y71796D03*
X69823D03*
X74823D03*
Y76796D03*
X69823D03*
X64823D03*
X33029Y59370D03*
X24142Y76830D03*
X32971Y69298D03*
X41240Y89897D03*
X72500Y31003D03*
X15115Y45242D03*
Y59370D03*
X79656Y90477D03*
X81764Y94624D03*
X92500Y4579D03*
X87811Y4131D03*
X49151Y4023D03*
X77500Y15451D03*
X7615Y77257D03*
X13444Y94897D03*
Y89897D03*
G54D20*
X81417Y110694D03*
X58583D03*
G54D18*
X114300Y79287D03*
G54D21*
X52992Y108607D03*
X87008D03*
%LPD*%
G75*
G54D10*
G01X17056Y76830D02*
X7555Y67329D01*
Y43837D01*
X12556Y38836D01*
Y36536D01*
G01X29801Y35320D02*
X26922Y32441D01*
X16651D01*
X12556Y36536D01*
G01X29801Y35320D02*
X36004D01*
X48919Y48235D01*
Y54819D01*
G01X65980Y55869D02*
X69465D01*
X83592Y41742D01*
Y19544D01*
X87097Y16039D01*
G01X48919Y70571D02*
X50192Y69298D01*
X50352D01*
X56955Y62695D01*
G01X48919Y70571D02*
X46585Y72905D01*
Y78666D01*
X50679Y82760D01*
X57122D01*
G01X91010Y17398D02*
X89651Y16039D01*
X87097D01*
G01X124504Y13428D02*
Y17286D01*
G01D02*
X122204D01*
X119483Y20007D01*
X93619D01*
X91010Y17398D01*
X49151Y4023D03*
X67500Y4579D03*
X62500D03*
X57500D03*
X52500D03*
X42500D03*
X37500D03*
X59207Y90477D03*
X48919Y74509D03*
X56955Y58757D03*
Y54819D03*
Y50881D03*
Y46943D03*
X41833D03*
X67500Y31003D03*
X62500D03*
X57500D03*
X37500D03*
X51315Y32191D03*
X43974Y32133D03*
X47500Y31003D03*
X40136Y34270D03*
X65583Y42173D03*
X74417D03*
X74823Y66796D03*
X69823D03*
X64823D03*
Y71796D03*
X69823D03*
X74823D03*
Y76796D03*
X69823D03*
X64823D03*
X33029Y59370D03*
X20284Y76830D03*
X24142D03*
X7615Y77257D03*
X23006Y71574D03*
X12556Y59370D03*
X65980Y55869D03*
X87097Y16039D03*
X48919Y54819D03*
Y58757D03*
X29801Y35320D03*
X12556Y36536D03*
X17056Y76830D03*
X82500Y15451D03*
X77500D03*
Y31003D03*
X9997Y36536D03*
X72500Y31003D03*
X15115Y45242D03*
X22793Y36536D03*
X30470Y46852D03*
X20233Y36536D03*
X27911Y51775D03*
X17674Y36536D03*
X25352Y47684D03*
X79656Y90477D03*
X9997Y59370D03*
X15115D03*
X48919Y70571D03*
X56955Y62695D03*
X57122Y82760D03*
X17674Y68076D03*
X13444Y89897D03*
X20233Y68076D03*
X32971Y69298D03*
X41240Y89897D03*
X63145Y94335D03*
X51959Y101431D03*
X27506Y102758D03*
X76877Y96528D03*
X24278Y102758D03*
X20420D03*
X29582Y94897D03*
X81764Y94624D03*
X72953Y110007D03*
X69016D03*
X13444Y94897D03*
X87811Y4131D03*
X112500Y4325D03*
X105729Y3042D03*
X102500Y4040D03*
X97500Y3149D03*
X92500Y4579D03*
X124504Y20514D03*
Y10200D03*
X87207Y19213D03*
X124504Y13428D03*
Y17286D03*
X91010Y17398D03*
X117500Y33878D03*
X119110Y15676D03*
X112500Y33878D03*
X107500D03*
X102500D03*
X97500Y31003D03*
X92500D03*
X88041Y101431D03*
G54D11*
X58583Y110694D03*
X81417D03*
G54D12*
X52992Y125064D03*
X87008D03*
G54D13*
X52992Y108607D03*
X87008D03*
G54D14*
X114300Y49287D03*
Y59287D03*
Y69287D03*
G54D15*
Y79287D03*
G54D16*
G01X10000Y0D02*
X130000D01*
G03X140000Y10000I0J10000D01*
G01Y126000D01*
G03X130000Y136000I-10000J0D01*
G01X10000D01*
G03X0Y126000I0J-10000D01*
G01Y10000D01*
G03X10000Y0I10000J0D01*
M02*
