G04 ================== begin FILE IDENTIFICATION RECORD ==================*
G04 Layout Name:  G:/project_development/GitHub/StarrySky/EXTN/PCB/V1.0/EXTN.brd*
G04 Film Name:    SILKTOP*
G04 File Format:  Gerber RS274X*
G04 File Origin:  Cadence Allegro 16.6-2015-S066*
G04 Origin Date:  Wed Jul 17 16:02:14 2024*
G04 *
G04 Layer:  PACKAGE GEOMETRY/SILKSCREEN_TOP*
G04 Layer:  BOARD GEOMETRY/SILKSCREEN_TOP*
G04 Layer:  BOARD GEOMETRY/OUTLINE*
G04 *
G04 Offset:    (0.00 0.00)*
G04 Mirror:    No*
G04 Mode:      Positive*
G04 Rotation:  0*
G04 FullContactRelief:  No*
G04 UndefLineWidth:     6.00*
G04 ================== end FILE IDENTIFICATION RECORD ====================*
%FSLAX55Y55*MOIN*%
%IR0*IPPOS*OFA0.00000B0.00000*MIA0B0*SFA1.00000B1.00000*%
%ADD10C,.006*%
%ADD11C,.00591*%
G75*
%LPD*%
G75*
G54D10*
G01X10000Y0D02*
X130000D01*
G03X140000Y10000I0J10000D01*
G01Y126000D01*
G03X130000Y136000I-10000J0D01*
G01X10000D01*
G03X0Y126000I0J-10000D01*
G01Y10000D01*
G03X10000Y0I10000J0D01*
G54D11*
G01X48324Y8396D02*
X51080D01*
Y4458D01*
X48324D01*
G01X46750Y8396D02*
X43994D01*
Y4458D01*
X46750D01*
G01X60157Y79280D02*
Y81643D01*
X62520D01*
G01Y61957D02*
X60157D01*
Y64320D01*
G01X79843D02*
Y61957D01*
X77480D01*
G01Y81643D02*
X79843D01*
Y79280D01*
G01X78267Y83217D02*
G03I-393J0D01*
G01X7733Y45219D02*
G03I-393J0D01*
G01X8521D02*
Y59393D01*
X34505D01*
Y45219D01*
X8521D01*
G01X37793Y19437D02*
G03I-393J0D01*
G01Y34791D02*
X57479D01*
Y22193D01*
X37793D01*
Y34791D01*
G01X13639Y97791D02*
Y77003D01*
X29387D01*
Y97791D01*
X13639D01*
G01X62124Y40091D02*
Y39547D01*
X77872D01*
Y40091D01*
G01Y52783D02*
Y53327D01*
X62124D01*
Y52783D01*
G01Y44256D02*
Y48618D01*
G01X77872Y44256D02*
Y48618D01*
G01X79840Y39350D02*
G03I-393J0D01*
G01X73935Y46437D02*
G03I-3937J0D01*
G01X53724Y60726D02*
X56480D01*
Y56788D01*
X53724D01*
G01X52150Y60726D02*
X49394D01*
Y56788D01*
X52150D01*
G01X53724D02*
X56480D01*
Y52850D01*
X53724D01*
G01X52150Y56788D02*
X49394D01*
Y52850D01*
X52150D01*
G01X17883Y72457D02*
X15127D01*
Y76395D01*
X17883D01*
G01X19457Y72457D02*
X22213D01*
Y76395D01*
X19457D01*
G01X24969Y72457D02*
X22213D01*
Y76395D01*
X24969D01*
G01X26543Y72457D02*
X29299D01*
Y76395D01*
X26543D01*
G01X52150Y72540D02*
X49394D01*
Y76478D01*
X52150D01*
G01X53724Y72540D02*
X56480D01*
Y76478D01*
X53724D01*
G01Y52850D02*
X56480D01*
Y48912D01*
X53724D01*
G01X52150Y52850D02*
X49394D01*
Y48912D01*
X52150D01*
G01X53724D02*
X56480D01*
Y44974D01*
X53724D01*
G01X52150Y48912D02*
X49394D01*
Y44974D01*
X52150D01*
G01X63580Y89650D02*
Y92406D01*
X67518D01*
Y89650D01*
G01X63580Y88076D02*
Y85320D01*
X67518D01*
Y88076D01*
G01X59642Y89650D02*
Y92406D01*
X63580D01*
Y89650D01*
G01X59642Y88076D02*
Y85320D01*
X63580D01*
Y88076D01*
G01X48324Y12334D02*
X51080D01*
Y8396D01*
X48324D01*
G01X46750Y12334D02*
X43994D01*
Y8396D01*
X46750D01*
G01X46638Y52850D02*
X49394D01*
Y48912D01*
X46638D01*
G01X45064Y52850D02*
X42308D01*
Y48912D01*
X45064D01*
G01Y44974D02*
X42308D01*
Y48912D01*
X45064D01*
G01X46638Y44974D02*
X49394D01*
Y48912D01*
X46638D01*
G01X69211Y53900D02*
X66455D01*
Y57838D01*
X69211D01*
G01X70785Y53900D02*
X73541D01*
Y57838D01*
X70785D01*
G01X53724Y64664D02*
X56480D01*
Y60726D01*
X53724D01*
G01X52150Y64664D02*
X49394D01*
Y60726D01*
X52150D01*
G01X53724Y68602D02*
X56480D01*
Y64664D01*
X53724D01*
G01X52150Y68602D02*
X49394D01*
Y64664D01*
X52150D01*
G01X75283Y89650D02*
Y92406D01*
X79221D01*
Y89650D01*
G01X75283Y88076D02*
Y85320D01*
X79221D01*
Y88076D01*
G01X71338Y89650D02*
Y92406D01*
X75276D01*
Y89650D01*
G01X71338Y88076D02*
Y85320D01*
X75276D01*
Y88076D01*
G01X32202Y34885D02*
X34958D01*
Y30947D01*
X32202D01*
G01X30628Y34885D02*
X27872D01*
Y30947D01*
X30628D01*
G01X53724Y72540D02*
X56480D01*
Y68602D01*
X53724D01*
G01X52150Y72540D02*
X49394D01*
Y68602D01*
X52150D01*
G01X88000Y129363D02*
Y135556D01*
X52000D01*
Y129363D01*
G01Y120765D02*
Y113300D01*
G01X14426Y98814D02*
G03I-393J0D01*
G01X26679Y102323D02*
X29435D01*
Y98385D01*
X26679D01*
G01X25105Y102323D02*
X22349D01*
Y98385D01*
X25105D01*
G01X67518Y95162D02*
Y92406D01*
X63580D01*
Y95162D01*
G01X67518Y96736D02*
Y99492D01*
X63580D01*
Y96736D01*
G01X71338D02*
Y99492D01*
X75276D01*
Y96736D01*
G01X71338Y95162D02*
Y92406D01*
X75276D01*
Y95162D01*
G01X18019Y98385D02*
X15263D01*
Y102323D01*
X18019D01*
G01X19593Y98385D02*
X22349D01*
Y102323D01*
X19593D01*
G01X95939Y36602D02*
X99089Y39752D01*
G01X95939Y8256D02*
X119561D01*
Y39752D01*
X95939D01*
Y8256D01*
G01X109379Y84287D02*
Y44287D01*
X119221D01*
Y84287D01*
X109379D01*
G01X95383Y11139D02*
Y8383D01*
X91445D01*
Y11139D01*
G01X95383Y12713D02*
Y15469D01*
X91445D01*
Y12713D01*
G01X120131Y19687D02*
Y22443D01*
X124069D01*
Y19687D01*
G01X120131Y18113D02*
Y15357D01*
X124069D01*
Y18113D01*
G01Y11027D02*
Y8271D01*
X120131D01*
Y11027D01*
G01X124069Y12601D02*
Y15357D01*
X120131D01*
Y12601D01*
G01X91445Y19799D02*
Y22555D01*
X95383D01*
Y19799D01*
G01X91445Y18225D02*
Y15469D01*
X95383D01*
Y18225D01*
G01X88000Y113300D02*
Y120765D01*
M02*
