G04 ================== begin FILE IDENTIFICATION RECORD ==================*
G04 Layout Name:  G:/project_development/GitHub/StarrySky/EXTN/PCB/V1.0/EXTN.brd*
G04 Film Name:    SOLDTOP*
G04 File Format:  Gerber RS274X*
G04 File Origin:  Cadence Allegro 16.6-2015-S066*
G04 Origin Date:  Wed Jul 17 16:02:14 2024*
G04 *
G04 Layer:  VIA CLASS/SOLDERMASK_TOP*
G04 Layer:  PIN/SOLDERMASK_TOP*
G04 Layer:  PACKAGE GEOMETRY/SOLDERMASK_TOP*
G04 Layer:  BOARD GEOMETRY/SOLDERMASK_TOP*
G04 Layer:  BOARD GEOMETRY/OUTLINE*
G04 *
G04 Offset:    (0.00 0.00)*
G04 Mirror:    No*
G04 Mode:      Positive*
G04 Rotation:  0*
G04 FullContactRelief:  No*
G04 UndefLineWidth:     6.00*
G04 ================== end FILE IDENTIFICATION RECORD ====================*
%FSLAX55Y55*MOIN*%
%IR0*IPPOS*OFA0.00000B0.00000*MIA0B0*SFA1.00000B1.00000*%
%ADD15R,.09449X.09449*%
%ADD10R,.02402X.02402*%
%ADD19C,.02795*%
%ADD25C,.06693*%
%ADD24C,.01969*%
%ADD26R,.06693X.06693*%
%ADD23R,.01575X.05512*%
%ADD22R,.02756X.05512*%
%ADD18R,.05118X.02953*%
%ADD20O,.04724X.07087*%
%ADD11R,.13189X.13189*%
%ADD16R,.02756X.0748*%
%ADD21O,.04724X.07874*%
%ADD17R,.09252X.02874*%
%ADD14R,.02165X.06299*%
%ADD13R,.01378X.03937*%
%ADD12R,.03937X.01378*%
%ADD27C,.006*%
G75*
%LPD*%
G75*
G54D10*
X49151Y6427D03*
X45923D03*
X54551Y58757D03*
X51323D03*
X54551Y54819D03*
X51323D03*
X17056Y74426D03*
X20284D03*
X24142D03*
X27370D03*
X51323Y74509D03*
X54551D03*
Y50881D03*
X51323D03*
X54551Y46943D03*
X51323D03*
X65549Y90477D03*
Y87249D03*
X61611Y90477D03*
Y87249D03*
X49151Y10365D03*
X45923D03*
X47465Y50881D03*
X44237D03*
Y46943D03*
X47465D03*
X68384Y55869D03*
X71612D03*
X54551Y62695D03*
X51323D03*
X54551Y66633D03*
X51323D03*
X77252Y90477D03*
Y87249D03*
X73307Y90477D03*
Y87249D03*
X33029Y32916D03*
X29801D03*
X54551Y70571D03*
X51323D03*
X27506Y100354D03*
X24278D03*
X65549Y94335D03*
Y97563D03*
X73307D03*
Y94335D03*
X17192Y100354D03*
X20420D03*
X93414Y10312D03*
Y13540D03*
X122100Y20514D03*
Y17286D03*
Y10200D03*
Y13428D03*
X93414Y20626D03*
Y17398D03*
G54D11*
X70000Y71800D03*
G54D20*
X52992Y125064D03*
X87008D03*
G54D12*
X79449Y77706D03*
Y75737D03*
Y73769D03*
Y71800D03*
Y69831D03*
Y67863D03*
Y65894D03*
X60551D03*
Y67863D03*
Y69831D03*
Y71800D03*
Y73769D03*
Y75737D03*
Y77706D03*
G54D21*
X52992Y108607D03*
X87008D03*
G54D13*
X75906Y62351D03*
X73937D03*
X71969D03*
X70000D03*
X68031D03*
X66063D03*
X64094D03*
Y81249D03*
X66063D03*
X68031D03*
X70000D03*
X71969D03*
X73937D03*
X75906D03*
G54D22*
X57402Y106048D03*
X60551D03*
X79449D03*
X82598D03*
G54D14*
X9997Y63723D03*
X12556D03*
X15115D03*
X17674D03*
X20233D03*
X22793D03*
X25352D03*
X27911D03*
X30470D03*
X33029D03*
Y40889D03*
X30470D03*
X27911D03*
X25352D03*
X22793D03*
X20233D03*
X17674D03*
X15115D03*
X12556D03*
X9997D03*
G54D23*
X63110Y106048D03*
X65079D03*
X67047D03*
X69016D03*
X70984D03*
X72953D03*
X74921D03*
X76890D03*
G54D24*
X115624Y16130D03*
X111687D03*
X107750D03*
X103813D03*
X99876D03*
X115624Y20067D03*
X111687D03*
X107750D03*
X103813D03*
X99876D03*
X115624Y24004D03*
X111687D03*
X107750D03*
X103813D03*
X99876D03*
X115624Y27941D03*
X111687D03*
X107750D03*
X103813D03*
X99876D03*
X115624Y31878D03*
X111687D03*
X107750D03*
X103813D03*
G54D15*
X47636Y28492D03*
G54D16*
X40136Y39405D03*
X45136D03*
X50136D03*
X55136D03*
Y17579D03*
X50136D03*
X45136D03*
X40136D03*
G54D25*
X114300Y49287D03*
Y59287D03*
Y69287D03*
G54D17*
X35411Y89897D03*
Y84897D03*
Y79897D03*
X7615D03*
Y84897D03*
Y89897D03*
X35411Y94897D03*
X7615D03*
G54D26*
X114300Y79287D03*
G54D27*
G01X10000Y0D02*
X130000D01*
G03X140000Y10000I0J10000D01*
G01Y126000D01*
G03X130000Y136000I-10000J0D01*
G01X10000D01*
G03X0Y126000I0J-10000D01*
G01Y10000D01*
G03X10000Y0I10000J0D01*
G54D18*
X61821Y50701D03*
X78179D03*
X61821Y42173D03*
X78179D03*
G54D19*
X58583Y110694D03*
X81417D03*
M02*
