G04 ================== begin FILE IDENTIFICATION RECORD ==================*
G04 Layout Name:  G:/project_development/GitHub/StarrySky/EXTN/PCB/V1.0/EXTN.brd*
G04 Film Name:    TOP*
G04 File Format:  Gerber RS274X*
G04 File Origin:  Cadence Allegro 16.6-2015-S066*
G04 Origin Date:  Wed Jul 17 16:02:14 2024*
G04 *
G04 Layer:  VIA CLASS/TOP*
G04 Layer:  PIN/TOP*
G04 Layer:  ETCH/TOP*
G04 Layer:  BOARD GEOMETRY/OUTLINE*
G04 *
G04 Offset:    (0.00 0.00)*
G04 Mirror:    No*
G04 Mode:      Positive*
G04 Rotation:  0*
G04 FullContactRelief:  No*
G04 UndefLineWidth:     6.00*
G04 ================== end FILE IDENTIFICATION RECORD ====================*
%FSLAX55Y55*MOIN*%
%IR0*IPPOS*OFA0.00000B0.00000*MIA0B0*SFA1.00000B1.00000*%
%ADD11C,.018*%
%ADD10R,.02008X.02008*%
%ADD25C,.01575*%
%ADD20C,.02795*%
%ADD26C,.06299*%
%ADD14R,.00984X.03543*%
%ADD13R,.03543X.00984*%
%ADD27R,.06299X.06299*%
%ADD24R,.01181X.05118*%
%ADD23R,.02362X.05118*%
%ADD17R,.02362X.07087*%
%ADD21O,.04724X.07087*%
%ADD15R,.01772X.05906*%
%ADD19R,.04724X.02559*%
%ADD16R,.09055X.09055*%
%ADD22O,.04724X.07874*%
%ADD12R,.12795X.12795*%
%ADD18R,.08858X.0248*%
%ADD28C,.02*%
%ADD29C,.012*%
%ADD30C,.014*%
%ADD31C,.015*%
%ADD32C,.016*%
%ADD33C,.006*%
%ADD34C,.008*%
%ADD37C,.07302*%
%ADD38C,.02804*%
%ADD35R,.138X.04546*%
%ADD36R,.07302X.07302*%
%ADD39R,.03364X.0809*%
%ADD40O,.05728X.08878*%
G75*
%LPD*%
G75*
G36*
G01X71690Y1504D02*
G02X71407Y2187I0J400D01*
G01X72214Y2994D01*
Y22346D01*
X70452Y24108D01*
X34934D01*
X33172Y22346D01*
Y2994D01*
X33979Y2187D01*
G02X33696Y1504I-283J-283D01*
G01X10000D01*
G02X1504Y10000I0J8496D01*
G01Y126000D01*
G02X10000Y134496I8496J0D01*
G01X130000D01*
G02X138496Y126000I0J-8496D01*
G01Y10000D01*
G02X130000Y1504I-8496J0D01*
G01X109607D01*
G02X109325Y2187I1J400D01*
G01X109790Y2653D01*
G03X110260Y3785I-1131J1133D01*
G01Y3817D01*
G02X110601Y3959I200J0D01*
G01X111368Y3193D01*
G03X113632Y5457I1132J1132D01*
G01X111460Y7629D01*
Y10626D01*
G02X112143Y10909I400J0D01*
G01X113186Y9866D01*
X119044D01*
X120654Y11476D01*
X124504D01*
G03X125620Y15029I0J1952D01*
G02Y15685I229J328D01*
G03X124504Y19238I-1116J1601D01*
G01X122100D01*
G03X120913Y18833I3J-1950D01*
G01X120859Y18792D01*
X120594D01*
Y18527D01*
X120553Y18473D01*
G03X120162Y17519I1546J-1191D01*
G02X119634Y17189I-397J48D01*
G03X117978Y16808I-524J-1513D01*
G01X117174Y16004D01*
X116943D01*
X116904Y16044D01*
X115588D01*
X115348Y16283D01*
Y18070D01*
G02X115724Y18469I400J-1D01*
G03X116756Y18935I-100J1598D01*
G01X120508Y22686D01*
Y33135D01*
X118632Y35010D01*
G03X117684Y35469I-1133J-1132D01*
G01X117506Y35489D01*
Y37792D01*
X115535Y39764D01*
X112637D01*
X112028Y39155D01*
G02X111443Y39176I-283J283D01*
G03X111364Y39260I-1205J-1054D01*
G01X110564Y40060D01*
G03X109432Y40530I-1133J-1131D01*
G01X107637D01*
X105898Y38791D01*
Y35510D01*
G02X105216Y35227I-400J0D01*
G01X104963Y35480D01*
X102500D01*
G03X101274Y34908I1J-1602D01*
G02X100685Y34883I-306J258D01*
G01X100496Y35072D01*
X97504D01*
X95898Y33466D01*
Y31003D01*
G03X99102I1602J0D01*
G01Y31453D01*
G02X99443Y31595I200J0D01*
G01X102323Y28715D01*
X101770Y28163D01*
G02X101106Y28327I-282J283D01*
G03X98601Y27752I-1230J-386D01*
G02X98206Y27294I-396J-58D01*
G01X93559D01*
X92646Y28207D01*
Y28884D01*
X93632Y29871D01*
G03X91368Y32135I-1132J1132D01*
G01X89442Y30210D01*
Y26881D01*
X92233Y24090D01*
X102514D01*
X102528Y23905D01*
G03X105043Y23618I1285J99D01*
G02X105707Y23782I382J-119D01*
G01X106618Y22872D01*
G03X109235Y23404I1132J1132D01*
G02X109889Y23537I371J-149D01*
G01X110555Y22872D01*
G03X112819Y25136I1132J1132D01*
G01X111909Y26047D01*
G02X112073Y26711I283J282D01*
G03X111588Y29226I-386J1230D01*
G02X111158Y29624I-30J399D01*
G01Y29867D01*
X110866Y30159D01*
X111093Y30386D01*
X111209Y30350D01*
G03X111687Y30276I481J1528D01*
G01X113617D01*
X113817Y30476D01*
X113909D01*
X114556Y31123D01*
X114702Y30978D01*
X114703Y30977D01*
G03X116601Y31038I921J901D01*
G02X117304Y30777I303J-261D01*
G01Y29042D01*
G02X116601Y28781I-400J0D01*
G03Y27101I-977J-840D01*
G02X117304Y26840I303J-261D01*
G01Y25105D01*
G02X116601Y24844I-400J0D01*
G03X115238Y22774I-977J-840D01*
G02X115402Y22110I-119J-382D01*
G01X114492Y21199D01*
G03X114139Y20667I1131J-1134D01*
G02X113485Y20534I-371J149D01*
G01X112819Y21199D01*
G03X110202Y20667I-1132J-1132D01*
G02X109548Y20534I-371J149D01*
G01X108882Y21199D01*
G03X106265Y20667I-1132J-1132D01*
G02X105611Y20534I-371J149D01*
G01X104945Y21199D01*
G03X102393Y20807I-1132J-1132D01*
G02X101670Y20834I-355J185D01*
G03X98496Y21447I-1794J-767D01*
G01X96399Y19350D01*
X91010D01*
G03X89060Y17326I0J-1951D01*
G01X89063Y17239D01*
X88860Y17036D01*
X88477Y17419D01*
G03X85717Y14659I-1380J-1380D01*
G01X88788Y11588D01*
X93414D01*
G03X94601Y11993I-3J1950D01*
G01X94655Y12034D01*
X94920D01*
Y12298D01*
X94961Y12351D01*
G03Y14729I-1547J1189D01*
G01X94920Y14782D01*
Y15046D01*
X94712D01*
G02X94725Y15446I12J200D01*
G01X98015D01*
X98186Y15617D01*
X98417Y15468D01*
X98441Y15419D01*
G03X98744Y14998I1434J713D01*
G01X100004Y13737D01*
Y12548D01*
X99722Y12266D01*
X98381D01*
X96112Y9997D01*
Y8656D01*
X93637Y6180D01*
X92500D01*
G03Y2978I0J-1601D01*
G01X94963D01*
X95225Y3239D01*
G02X95906Y2995I283J-283D01*
G03X96246Y2153I1594J154D01*
G02X95933Y1504I-313J-249D01*
G01X71690D01*
G37*
G36*
G01X35473Y2533D02*
X34473Y3533D01*
Y21807D01*
X35473Y22807D01*
X69913D01*
X70913Y21807D01*
Y3533D01*
X69913Y2533D01*
X51064D01*
G02X50716Y3131I0J400D01*
G03X50952Y4023I-1565J891D01*
G01Y10365D01*
G03X50686Y11308I-1801J1D01*
G01X50656Y11356D01*
Y11870D01*
X50142D01*
X50094Y11900D01*
G03X48208I-943J-1535D01*
G01X48160Y11870D01*
X47646D01*
Y11356D01*
X47616Y11308D01*
G03X47350Y10365I1535J-942D01*
G01Y4023D01*
G03X47586Y3131I1801J-1D01*
G02X47238Y2533I-348J-198D01*
G01X35473D01*
G37*
%LPC*%
G75*
G36*
G01X46818Y35360D02*
X43454D01*
Y43450D01*
X44553D01*
X45864Y44760D01*
Y48587D01*
G03X45275Y48940I-400J0D01*
G02X42036Y50881I-1038J1941D01*
G01Y53697D01*
X45359Y57020D01*
X46687D01*
G03X47030Y57626I0J400D01*
G02X48919Y60958I1889J1131D01*
G01X49091D01*
G03X49434Y61564I0J400D01*
G02X49122Y62695I1889J1130D01*
G01Y64432D01*
X47102D01*
X43682Y67852D01*
Y80380D01*
X48978Y85676D01*
Y93151D01*
X58350Y102523D01*
Y106048D01*
G02X58550Y106965I2202J0D01*
G01Y108787D01*
X58372Y108807D01*
G02X60154Y111761I211J1887D01*
G03X60768Y111702I331J224D01*
G01X66597Y117532D01*
X73580D01*
X79306Y111805D01*
G03X79907Y111846I283J283D01*
G02X81628Y108807I1510J-1152D01*
G01X81450Y108787D01*
Y106048D01*
G02X81132Y104964I-2001J-2D01*
G01Y102988D01*
X77982D01*
Y102987D01*
X76522D01*
Y98514D01*
X74812Y96804D01*
Y96058D01*
X73854D01*
X73823Y96047D01*
G02X72791I-516J1516D01*
G01X72760Y96058D01*
X71602D01*
Y91982D01*
X72548D01*
X74732Y94166D01*
X79042D01*
X80632Y95756D01*
G02X82896Y93492I1132J-1132D01*
G01X80902Y91497D01*
X80992Y91361D01*
G02X80397Y89057I-1336J-884D01*
G03X80300Y88420I186J-354D01*
G01X86790Y81930D01*
Y73219D01*
X83769Y70198D01*
X81722D01*
Y64900D01*
X77176D01*
Y78700D01*
X81486D01*
Y79583D01*
X78238Y82830D01*
X76900D01*
Y78976D01*
X72943D01*
Y83444D01*
X72284Y84103D01*
G03X71602Y83820I-282J-283D01*
G01Y81249D01*
G02X70994Y79993I-1601J0D01*
G01Y78976D01*
X63100D01*
Y79993D01*
G02X62492Y81249I993J1256D01*
G01Y84103D01*
X61448Y85148D01*
X59224D01*
Y82760D01*
G02X58608Y81274I-2102J1D01*
G01X57324Y79990D01*
G03X57607Y79308I283J-282D01*
G01X60551D01*
G02X61807Y78700I0J-1601D01*
G01X62824D01*
Y64900D01*
X58218D01*
X58159Y64843D01*
G02X58153Y64836I-307J257D01*
G03X58179Y64525I137J-145D01*
G02X56955Y60494I-1224J-1830D01*
G01X54551D01*
G02X53071Y61065I-1J2201D01*
G03X52803I-134J-148D01*
G02X52762Y61029I-1473J1636D01*
G03Y60423I261J-303D01*
G02X53524Y58757I-1440J-1666D01*
G01Y44124D01*
X52338Y42937D01*
Y39405D01*
G02X51818Y37985I-2202J1D01*
G01Y35360D01*
X48454D01*
Y37985D01*
G02X47934Y39405I1682J1421D01*
G01Y41336D01*
G03X47252Y41619I-400J0D01*
G01X46818Y41186D01*
Y35360D01*
G37*
G36*
G01X76368Y29871D02*
X69380Y36858D01*
Y45249D01*
X72548Y48417D01*
G03X72265Y49100I-283J283D01*
G01X64684D01*
Y48920D01*
X58958D01*
Y52482D01*
X64684D01*
Y52302D01*
X75316D01*
Y52482D01*
X76578D01*
Y53794D01*
X76104Y54268D01*
X71612D01*
G02X71097Y54352I-3J1602D01*
G01X71066Y54363D01*
X69990D01*
G02X68384Y53668I-1605J1506D01*
G01X65980D01*
G02Y58070I0J2201D01*
G01X68384D01*
G02X69990Y57375I1J-2201D01*
G01X71066D01*
X71097Y57386D01*
G02X71612Y57470I512J-1518D01*
G01X77430D01*
X79780Y55120D01*
Y52482D01*
X81042D01*
Y48920D01*
X77581D01*
X72584Y43923D01*
Y38184D01*
X77938Y32830D01*
G03X78280Y32971I142J141D01*
G01Y33307D01*
X105861Y60888D01*
X111019D01*
G02Y57686I3281J-1601D01*
G01X107187D01*
X101073Y51571D01*
G03X101356Y50888I283J-283D01*
G01X111019D01*
G02Y47686I3281J-1601D01*
G01X101659D01*
X84102Y30128D01*
Y15451D01*
G02X80898I-1602J0D01*
G01Y15619D01*
G03X80216Y15902I-400J0D01*
G01X78632Y14319D01*
G02X76368Y16583I-1132J1132D01*
G01X78280Y18495D01*
Y29038D01*
G03X77804Y29431I-400J0D01*
G02X76368Y29871I-304J1572D01*
G37*
G36*
G01X35300Y55232D02*
X25848D01*
X23750Y57330D01*
Y60268D01*
X16716D01*
Y59370D01*
G02X14197Y58058I-1601J0D01*
G02X10915I-1641J1312D01*
G02X8396Y59370I-918J1312D01*
G01Y63723D01*
G02X8609Y64522I1601J1D01*
G01Y67178D01*
X16072D01*
Y68076D01*
G02X16327Y68942I1602J-1D01*
G03X15991Y69558I-336J216D01*
G01X13781D01*
X11004Y72336D01*
Y76870D01*
X15226Y81092D01*
Y82679D01*
X14609Y83296D01*
X12546D01*
Y83156D01*
X2684D01*
Y86638D01*
X12546D01*
Y86498D01*
X15935D01*
X18428Y84005D01*
Y79766D01*
X18045Y79382D01*
G03X18132Y78750I283J-283D01*
G02X19258Y76830I-1075J-1921D01*
G01Y74426D01*
G02X18980Y73356I-2202J1D01*
G03X19329Y72762I349J-194D01*
G01X21152D01*
G02X23006Y73776I1854J-1188D01*
G01X24494D01*
X24842Y74124D01*
X24856D01*
X25167Y74435D01*
X25170Y74513D01*
G02X26072Y76204I2200J-87D01*
G03X26118Y76810I-236J323D01*
G01X21154Y81775D01*
Y85695D01*
X23838Y88380D01*
X28487D01*
X30228Y86638D01*
X40342D01*
Y83156D01*
X30480D01*
Y83296D01*
X29042D01*
X27161Y85176D01*
X25164D01*
X24356Y84369D01*
Y83101D01*
X32212Y75246D01*
Y71267D01*
G03X32683Y70873I400J0D01*
G02X34103Y68166I287J-1575D01*
G01X32072Y66134D01*
Y63723D01*
G02X31858Y62924I-1602J1D01*
G01Y60268D01*
X26954D01*
Y58656D01*
X27174Y58436D01*
X33974D01*
X35300Y59761D01*
Y75604D01*
X33810Y77094D01*
Y78156D01*
X30480D01*
Y81638D01*
X40342D01*
Y78156D01*
X38243D01*
G03X37960Y77473I0J-400D01*
G01X38502Y76930D01*
Y58435D01*
X35300Y55232D01*
G37*
G36*
G01X12546Y88296D02*
Y88156D01*
X2684D01*
Y91638D01*
X12546D01*
Y91498D01*
X13444D01*
G02Y88296I0J-1601D01*
G01X12546D01*
G37*
G36*
G01X40342D02*
Y88156D01*
X30480D01*
Y91638D01*
X40342D01*
Y91498D01*
X41240D01*
G02Y88296I0J-1601D01*
G01X40342D01*
G37*
G36*
G01X10972Y98752D02*
X9216Y96997D01*
Y96638D01*
X12546D01*
Y96498D01*
X13444D01*
G02Y93296I0J-1601D01*
G01X12546D01*
Y93156D01*
X2684D01*
Y96638D01*
X6014D01*
Y98323D01*
X9646Y101956D01*
X17192D01*
G02X17707Y101871I0J-1603D01*
G01X17738Y101860D01*
X18218D01*
Y102758D01*
G02X22052Y104235I2201J0D01*
G03X22646I297J268D01*
G02X26480Y102758I1633J-1477D01*
G01Y100354D01*
G02X22646Y98877I-2201J0D01*
G03X22052I-297J-268D01*
G02X18814Y98848I-1632J1477D01*
G01X17738D01*
X17707Y98837D01*
G02X17192Y98752I-515J1518D01*
G01X10972D01*
G37*
G36*
G01X55856Y123882D02*
G02X50128I-2864J0D01*
G01Y126246D01*
G02X55856I2864J0D01*
G01Y123882D01*
G37*
G36*
G01X89872D02*
G02X84144I-2864J0D01*
G01Y126246D01*
G02X89872I2864J0D01*
G01Y123882D01*
G37*
G36*
G01X28546Y50305D02*
G03X28422Y49655I159J-367D01*
G01X29512Y48564D01*
Y48508D01*
X29759Y48406D01*
X31889Y50536D01*
X36686D01*
X38448Y48774D01*
Y45708D01*
X36709Y43970D01*
X34417D01*
Y41688D01*
G02X34630Y40889I-1388J-798D01*
G01Y32916D01*
G02X34546Y32401I-1602J-3D01*
G01X34535Y32370D01*
Y31410D01*
X33575D01*
X33544Y31399D01*
G02X32514I-515J1517D01*
G01X32483Y31410D01*
X31407D01*
G02X27600Y32916I-1606J1506D01*
G01Y35320D01*
G02X28145Y36771I2201J1D01*
G03X27844Y37434I-301J263D01*
G01X24394D01*
Y36536D01*
G02X21655Y35409I-1601J0D01*
G03X21371I-142J-141D01*
G02X19096I-1137J1127D01*
G03X18811I-143J-141D01*
G02X16072Y36536I-1138J1127D01*
G01Y37434D01*
X14658D01*
Y36536D01*
G02X10915Y35224I-2101J0D01*
G02X8396Y36536I-918J1312D01*
G01Y40889D01*
G02X8609Y41688I1601J1D01*
G01Y44344D01*
X13514D01*
Y45242D01*
G02X16716I1601J0D01*
G01Y44344D01*
X18351D01*
G03X18633Y45027I-1J400D01*
G01X17874Y45786D01*
Y48820D01*
X19613Y50558D01*
X23560D01*
Y51782D01*
G02X24030Y52914I1601J-1D01*
G01X24830Y53714D01*
G02X25962Y54184I1133J-1131D01*
G01X27111D01*
G02X28243Y53714I-1J-1601D01*
G01X29043Y52914D01*
G02X29512Y51782I-1132J-1132D01*
G01Y51775D01*
G02X28546Y50305I-1601J0D01*
G37*
G36*
G01X36758Y93156D02*
G02X35411Y92696I-1347J1742D01*
G01X29582D01*
G02Y97098I0J2201D01*
G01X35411D01*
G02X36758Y96638I0J-2202D01*
G01X40342D01*
Y93156D01*
X36758D01*
G37*
G54D37*
X114300Y69287D03*
G54D38*
X72500Y31003D03*
G54D35*
X70000Y62351D03*
G54D36*
X114300Y79287D03*
G54D39*
X55136Y39405D03*
Y17579D03*
X40136D03*
G54D40*
X52992Y108607D03*
X87008D03*
%LPD*%
G75*
G36*
G01X52929Y72077D02*
G03X51323Y72772I-1605J-1506D01*
G01X48919D01*
G03X48551Y72742I-6J-2201D01*
G02X48084Y73136I-67J394D01*
G01Y78556D01*
X53380Y83852D01*
Y91327D01*
X61450Y99397D01*
X64044Y96804D01*
Y96058D01*
X65002D01*
X65033Y96047D01*
G03X66065I516J1516D01*
G01X66096Y96058D01*
X67198D01*
Y88754D01*
X66096D01*
X66065Y88765D01*
G03X65033I-516J-1516D01*
G01X65002Y88754D01*
X64044D01*
Y87796D01*
X64033Y87765D01*
G03X64030Y87757I1497J-566D01*
G02X63647Y87771I-189J64D01*
G03X63168Y88660I-2035J-523D01*
G01X63116Y88717D01*
Y88754D01*
X63079D01*
X63022Y88806D01*
G03X61611Y89350I-1411J-1558D01*
G01X57129D01*
X55020Y87242D01*
Y83630D01*
X52450Y81059D01*
Y74509D01*
G03X52994Y73098I2102J0D01*
G01X53046Y73041D01*
Y73004D01*
X53083D01*
X53140Y72952D01*
G03X54029Y72473I1412J1556D01*
G02X54043Y72090I-50J-194D01*
G03X54036Y72088I436J-1540D01*
G01X54005Y72077D01*
X52929D01*
G37*
G54D10*
X49151Y6427D03*
X45923D03*
X54551Y58757D03*
X51323D03*
X54551Y54819D03*
X51323D03*
X17056Y74426D03*
X20284D03*
X24142D03*
X27370D03*
X51323Y74509D03*
X54551D03*
Y50881D03*
X51323D03*
X54551Y46943D03*
X51323D03*
X65549Y90477D03*
Y87249D03*
X61611Y90477D03*
Y87249D03*
X49151Y10365D03*
X45923D03*
X47465Y50881D03*
X44237D03*
Y46943D03*
X47465D03*
X68384Y55869D03*
X71612D03*
X54551Y62695D03*
X51323D03*
X54551Y66633D03*
X51323D03*
X77252Y90477D03*
Y87249D03*
X73307Y90477D03*
Y87249D03*
X33029Y32916D03*
X29801D03*
X54551Y70571D03*
X51323D03*
X27506Y100354D03*
X24278D03*
X65549Y94335D03*
Y97563D03*
X73307D03*
Y94335D03*
X17192Y100354D03*
X20420D03*
X93414Y10312D03*
Y13540D03*
X122100Y20514D03*
Y17286D03*
Y10200D03*
Y13428D03*
X93414Y20626D03*
Y17398D03*
G54D20*
X58583Y110694D03*
X81417D03*
G54D11*
G01X12556Y63723D02*
Y59370D01*
G01Y40889D02*
Y36536D01*
G01X61611Y87249D02*
X57999D01*
X57122Y86372D01*
Y82760D01*
G01X54551Y74509D02*
Y80189D01*
X57122Y82760D01*
X49151Y4023D03*
X67500Y4579D03*
X62500D03*
X57500D03*
X52500D03*
X42500D03*
X37500D03*
X59207Y90477D03*
X48919Y74509D03*
X56955Y58757D03*
Y54819D03*
Y50881D03*
Y46943D03*
X41833D03*
X67500Y31003D03*
X62500D03*
X57500D03*
X37500D03*
X51315Y32191D03*
X43974Y32133D03*
X47500Y31003D03*
X40136Y34270D03*
X65583Y42173D03*
X74417D03*
X74823Y66796D03*
X69823D03*
X64823D03*
Y71796D03*
X69823D03*
X74823D03*
Y76796D03*
X69823D03*
X64823D03*
X33029Y59370D03*
X20284Y76830D03*
X24142D03*
X7615Y77257D03*
X23006Y71574D03*
X12556Y59370D03*
X65980Y55869D03*
X87097Y16039D03*
X48919Y54819D03*
Y58757D03*
X29801Y35320D03*
X12556Y36536D03*
X17056Y76830D03*
X82500Y15451D03*
X77500D03*
Y31003D03*
X9997Y36536D03*
X72500Y31003D03*
X15115Y45242D03*
X22793Y36536D03*
X30470Y46852D03*
X20233Y36536D03*
X27911Y51775D03*
X17674Y36536D03*
X25352Y47684D03*
X79656Y90477D03*
X9997Y59370D03*
X15115D03*
X48919Y70571D03*
X56955Y62695D03*
X57122Y82760D03*
X17674Y68076D03*
X13444Y89897D03*
X20233Y68076D03*
X32971Y69298D03*
X41240Y89897D03*
X63145Y94335D03*
X51959Y101431D03*
X27506Y102758D03*
X76877Y96528D03*
X24278Y102758D03*
X20420D03*
X29582Y94897D03*
X81764Y94624D03*
X72953Y110007D03*
X69016D03*
X13444Y94897D03*
X87811Y4131D03*
X112500Y4325D03*
X105729Y3042D03*
X102500Y4040D03*
X97500Y3149D03*
X92500Y4579D03*
X124504Y20514D03*
Y10200D03*
X87207Y19213D03*
X124504Y13428D03*
Y17286D03*
X91010Y17398D03*
X117500Y33878D03*
X119110Y15676D03*
X112500Y33878D03*
X107500D03*
X102500D03*
X97500Y31003D03*
X92500D03*
X88041Y101431D03*
G54D30*
G01X83944Y108607D02*
X87008D01*
G01X83944Y103968D02*
X87008Y108607D01*
G01X83944Y113246D02*
X87008Y108607D01*
G01X52992Y103968D02*
Y108607D01*
G01D02*
Y113246D01*
G01X49928Y108607D02*
X52992D01*
G01D02*
X56056D01*
G01X49928Y103968D02*
X52992Y108607D01*
G01D02*
X56056Y113246D01*
G01X49928D02*
X52992Y108607D01*
G01D02*
X56056Y103968D01*
G01X83944Y125064D02*
X87008D01*
G01X83944Y120818D02*
X87008Y125064D01*
G01X83944Y129310D02*
X87008Y125064D01*
G01X52992Y120818D02*
Y125064D01*
G01D02*
Y129310D01*
G01X49928Y125064D02*
X52992D01*
G01D02*
X56056D01*
G01X49928Y120818D02*
X52992Y125064D01*
G01D02*
X56056Y129310D01*
G01X49928D02*
X52992Y125064D01*
G01D02*
X56056Y120818D01*
G01X87008Y103968D02*
Y108607D01*
G01D02*
Y113246D01*
G01Y108607D02*
X90072D01*
G01X87008D02*
X90072Y113246D01*
G01X87008Y108607D02*
X90072Y103968D01*
G01X87008Y120818D02*
Y125064D01*
G01D02*
Y129310D01*
G01Y125064D02*
X90072D01*
G01X87008D02*
X90072Y129310D01*
G01X87008Y125064D02*
X90072Y120818D01*
G54D12*
X70000Y71800D03*
G54D21*
X52992Y125064D03*
X87008D03*
G54D31*
G01X87811Y4131D02*
Y7853D01*
X90270Y10312D01*
X93414D01*
G01X122100Y20514D02*
X124504D01*
G01X122100Y10200D02*
X124504D01*
G01X99876Y24004D02*
X96498Y20626D01*
X93414D01*
G01D02*
X88620D01*
X87207Y19213D01*
G01X122100Y13428D02*
X124504D01*
G01X111687Y16130D02*
Y14125D01*
X113994Y11818D01*
X118236D01*
X119846Y13428D01*
X122100D01*
G01Y17286D02*
X124504D01*
G01X99876Y20067D02*
X97207Y17398D01*
X93414D01*
G01D02*
X91010D01*
G01X93414Y13540D02*
X89596D01*
X87097Y16039D01*
G54D22*
X52992Y108607D03*
X87008D03*
G54D13*
X79449Y77706D03*
Y75737D03*
Y73769D03*
Y71800D03*
Y69831D03*
Y67863D03*
Y65894D03*
X60551D03*
Y67863D03*
Y69831D03*
Y71800D03*
Y73769D03*
Y75737D03*
Y77706D03*
G54D32*
G01X79449Y106048D02*
Y108705D01*
X78619Y109535D01*
Y109662D01*
X72751Y115530D01*
X67426D01*
X60551Y108655D01*
Y106048D01*
G54D23*
X57402D03*
X60551D03*
X79449D03*
X82598D03*
G54D14*
X75906Y62351D03*
X73937D03*
X71969D03*
X70000D03*
X68031D03*
X66063D03*
X64094D03*
Y81249D03*
X66063D03*
X68031D03*
X70000D03*
X71969D03*
X73937D03*
X75906D03*
G54D33*
G01X10000Y0D02*
X130000D01*
G03X140000Y10000I0J10000D01*
G01Y126000D01*
G03X130000Y136000I-10000J0D01*
G01X10000D01*
G03X0Y126000I0J-10000D01*
G01Y10000D01*
G03X10000Y0I10000J0D01*
G54D15*
X9997Y63723D03*
X12556D03*
X15115D03*
X17674D03*
X20233D03*
X22793D03*
X25352D03*
X27911D03*
X30470D03*
X33029D03*
Y40889D03*
X30470D03*
X27911D03*
X25352D03*
X22793D03*
X20233D03*
X17674D03*
X15115D03*
X12556D03*
X9997D03*
G54D24*
X63110Y106048D03*
X65079D03*
X67047D03*
X69016D03*
X70984D03*
X72953D03*
X74921D03*
X76890D03*
G54D34*
G01X71969Y81249D02*
Y78942D01*
X69823Y76796D01*
G01X47465Y50881D02*
Y46943D01*
G01D02*
Y44097D01*
X45136Y41768D01*
Y39405D01*
G01X82500Y15451D02*
Y30791D01*
X100996Y49287D01*
X114300D01*
G01X77500Y15451D02*
X79881Y17832D01*
Y32644D01*
X106524Y59287D01*
X114300D01*
G01X78179Y50701D02*
Y54457D01*
X76767Y55869D01*
X71612D01*
G01X78179Y50701D02*
X77097D01*
G01D02*
X61821D01*
G01X77500Y31003D02*
X70982Y37521D01*
Y44586D01*
X77097Y50701D01*
G01X9997Y40889D02*
Y36536D01*
G01X15115Y40889D02*
Y45242D01*
G01X22793Y40889D02*
Y36536D01*
G01X30470Y40889D02*
Y43700D01*
X32341Y45571D01*
X36046D01*
X36846Y46371D01*
Y48111D01*
X36023Y48934D01*
X32552D01*
X30470Y46852D01*
G01X20233Y40889D02*
Y36536D01*
G01X27911Y51775D02*
Y51782D01*
X27111Y52582D01*
X25962D01*
X25162Y51782D01*
Y50650D01*
X27911Y47901D01*
Y40889D01*
G01X17674D02*
Y36536D01*
G01X25352Y47684D02*
X24079Y48957D01*
X20276D01*
X19476Y48157D01*
Y46449D01*
X20276Y45649D01*
X23930D01*
X25352Y44227D01*
Y40889D01*
G01X77252Y90477D02*
X79656D01*
G01X9997Y63723D02*
Y59370D01*
G01X15115Y63723D02*
Y59370D01*
G01X81764Y94624D02*
X79705Y92565D01*
X75395D01*
X73307Y90477D01*
G01X70000Y81249D02*
Y101563D01*
X70984Y102547D01*
Y106048D01*
G01X69016D02*
Y102589D01*
X68800Y102373D01*
Y84871D01*
X68031Y84102D01*
Y81249D01*
G01X33029Y40889D02*
Y32916D01*
G01X60551Y77706D02*
X57748D01*
X54551Y74509D01*
G01X64094Y81249D02*
Y84766D01*
X61611Y87249D01*
G01X60551Y75737D02*
X57879D01*
X57167Y75025D01*
Y72277D01*
X55461Y70571D01*
X54551D01*
G01X73307Y87249D02*
Y85345D01*
X74220Y84432D01*
X78901D01*
X83087Y80246D01*
Y74735D01*
X82121Y73769D01*
X79449D01*
G01X66063Y81249D02*
Y84831D01*
X65549Y85345D01*
Y87249D01*
G01X79449Y71800D02*
X83106D01*
X85188Y73882D01*
Y81267D01*
X79206Y87249D01*
X77252D01*
G01X17674Y63723D02*
Y68076D01*
G01X7615Y89897D02*
X13444D01*
G01X20233Y63723D02*
Y68076D01*
G01X27911Y63723D02*
Y68862D01*
X30610Y71561D01*
Y74583D01*
X22755Y82438D01*
Y85032D01*
X24501Y86778D01*
X27824D01*
X29705Y84897D01*
X35411D01*
G01X25352Y63723D02*
Y57993D01*
X26511Y56834D01*
X34637D01*
X36901Y59098D01*
Y76267D01*
X35411Y77757D01*
Y79897D01*
G01X7615Y84897D02*
X15272D01*
X16827Y83342D01*
Y80429D01*
X12605Y76207D01*
Y72999D01*
X14444Y71160D01*
X20443D01*
X22793Y68810D01*
Y63723D01*
G01X30470D02*
Y66797D01*
X32971Y69298D01*
G01X35411Y89897D02*
X41240D01*
G01X67047Y106048D02*
Y112016D01*
X67876Y112845D01*
X70104D01*
X70984Y111965D01*
Y106048D01*
G01X72953D02*
Y110007D01*
G01X69016Y106048D02*
Y110007D01*
G01X63110Y106048D02*
Y100002D01*
X65549Y97563D01*
G01X74921Y106048D02*
Y99177D01*
X73307Y97563D01*
G01X7615Y94897D02*
Y97660D01*
X10309Y100354D01*
X17192D01*
G01X7615Y94897D02*
X13444D01*
G01X112500Y4325D02*
X109859Y6966D01*
Y17958D01*
X107750Y20067D01*
G01Y16130D02*
Y5825D01*
X108658Y4917D01*
Y3785D01*
X107915Y3042D01*
X105729D01*
G01X102500Y4040D02*
X105924Y7464D01*
Y17956D01*
X103813Y20067D01*
G01X97500Y3149D02*
X99264Y4913D01*
Y6522D01*
X101244Y8502D01*
X102427D01*
X103813Y9888D01*
Y16130D01*
G01X92500Y4579D02*
X94300D01*
X97714Y7993D01*
Y9334D01*
X99044Y10664D01*
X100385D01*
X101606Y11885D01*
Y14400D01*
X99876Y16130D01*
G01X115624D02*
X120008Y20514D01*
X122100D01*
G01X117500Y33878D02*
X118906Y32472D01*
Y23349D01*
X115624Y20067D01*
G01X111687D02*
X113747Y18007D01*
Y15620D01*
X114925Y14442D01*
X116323D01*
X116362Y14403D01*
X117837D01*
X119110Y15676D01*
G01X112500Y33878D02*
Y37362D01*
X113300Y38162D01*
X114872D01*
X115905Y37129D01*
Y34737D01*
X113246Y32078D01*
X113154D01*
X112954Y31878D01*
X111687D01*
G01X107750D02*
X108982D01*
X110232Y33128D01*
Y38128D01*
X109432Y38928D01*
X108300D01*
X107500Y38128D01*
Y33878D01*
G01Y33877D02*
Y33878D01*
G01X102500D02*
X104300D01*
X105767Y32411D01*
Y31474D01*
X107051Y30190D01*
X108570D01*
X109556Y29204D01*
Y26135D01*
X111687Y24004D01*
G01X97500Y31003D02*
Y32803D01*
X98167Y33470D01*
X99833D01*
X103113Y30190D01*
X104382D01*
X105932Y28640D01*
Y25822D01*
X107750Y24004D01*
G01X103813Y27941D02*
X101564Y25692D01*
X92896D01*
X91044Y27544D01*
Y29547D01*
X92500Y31003D01*
G54D16*
X47636Y28492D03*
G54D25*
X115624Y16130D03*
X111687D03*
X107750D03*
X103813D03*
X99876D03*
X115624Y20067D03*
X111687D03*
X107750D03*
X103813D03*
X99876D03*
X115624Y24004D03*
X111687D03*
X107750D03*
X103813D03*
X99876D03*
X115624Y27941D03*
X111687D03*
X107750D03*
X103813D03*
X99876D03*
X115624Y31878D03*
X111687D03*
X107750D03*
X103813D03*
G54D17*
X40136Y39405D03*
X45136D03*
X50136D03*
X55136D03*
Y17579D03*
X50136D03*
X45136D03*
X40136D03*
G54D26*
X114300Y49287D03*
Y59287D03*
Y69287D03*
G54D18*
X35411Y89897D03*
Y84897D03*
Y79897D03*
X7615D03*
Y84897D03*
Y89897D03*
X35411Y94897D03*
X7615D03*
G54D27*
X114300Y79287D03*
G54D28*
G01X65549Y90477D02*
X61611D01*
G01D02*
X59207D01*
G01X51323Y74509D02*
X48919D01*
G01X54551Y58757D02*
X56955D01*
G01X54551Y54819D02*
X56955D01*
G01X54551Y50881D02*
X56955D01*
G01X54551Y46943D02*
X56955D01*
G01X44237D02*
X41833D01*
G01X40136Y39405D02*
Y34270D01*
G01X61821Y42173D02*
X65583D01*
G01X78179D02*
X74417D01*
G01X33029Y63723D02*
Y59370D01*
G01X20284Y74426D02*
Y76830D01*
G01X24142Y74426D02*
Y76830D01*
G01X7615Y79897D02*
Y77257D01*
G01X27370Y74426D02*
Y73524D01*
X25768Y71922D01*
X25754D01*
X25406Y71574D01*
X23006D01*
G01X68384Y55869D02*
X65980D01*
G01X51323Y46943D02*
Y45036D01*
X50136Y43849D01*
Y39405D01*
G01X51323Y54819D02*
X48919D01*
G01X51323Y58757D02*
X48919D01*
G01X51323Y50881D02*
Y46943D01*
G01Y54819D02*
Y50881D01*
G01Y58757D02*
Y54819D01*
G01X44237Y50881D02*
Y52785D01*
X46271Y54819D01*
X48919D01*
G01X29801Y32916D02*
Y35320D01*
G01X17056Y74426D02*
Y76830D01*
G01X51323Y66633D02*
X48014D01*
X45883Y68764D01*
Y79468D01*
X51179Y84764D01*
Y92239D01*
X60551Y101611D01*
Y106048D01*
G01X51323Y66633D02*
Y62695D01*
G01Y70571D02*
X48919D01*
G01X54551Y66633D02*
Y62695D01*
G01D02*
X56955D01*
G01X65549Y94335D02*
X63145D01*
G01X57402Y106048D02*
Y102589D01*
X56244Y101431D01*
X51959D01*
G01X82598Y106048D02*
Y102589D01*
X83756Y101431D01*
X88041D01*
G01X27506Y100354D02*
Y102758D01*
G01X73307Y94335D02*
X74684D01*
X76877Y96528D01*
G01X24278Y100354D02*
Y102758D01*
G01X20420Y100354D02*
Y102758D01*
G01X35411Y94897D02*
X29582D01*
G54D19*
X61821Y50701D03*
X78179D03*
X61821Y42173D03*
X78179D03*
G54D29*
G01X49151Y6427D02*
Y4023D01*
G01Y10365D02*
Y6427D01*
M02*
