M48
INCH,LZ
T01C.02756
;EXTENTS: -39.433 -39.370 354.268 354.331 
;LEADER: 12 
;HEADER: 
;CODE  : ASCII 
;FILE  : G:/project_development/GitHub/NutShell-Pi/PCB/V1.2/NUTSHELL_PI.rou for board #Taaaadz11788.tmp
%
G90
F1
M16
T01
M16
G00X023219Y002547
G40
M15
G01X023219Y002941
M16
G00X02662Y002547
G40
M15
G01X02662Y002941
M16
G00X023219Y00096
G40
M15
G01X023219Y001236
M16
G00X02662Y00096
G40
M15
G01X02662Y001236
M16
G00X027429Y002548
G40
M15
G01X027429Y002942
M16
G00X030831Y002548
G40
M15
G01X030831Y002942
M16
G00X027429Y000961
G40
M15
G01X027429Y001237
M16
G00X030831Y000961
G40
M15
G01X030831Y001237
M16
G00X002591Y027197
G40
M15
G01X002985Y027197
M16
G00X002591Y023796
G40
M15
G01X002985Y023796
M16
G00X001005Y027197
G40
M15
G01X00128Y027197
M16
G00X001005Y023796
G40
M15
G01X00128Y023796
M16
G40
M30
